M48
; DRILL file {KiCad (5.1.4)-1} date 18.11.2019 3:09:01
; FORMAT={-:-/ absolute / metric / decimal}
; #@! TF.CreationDate,2019-11-18T03:09:01+02:00
; #@! TF.GenerationSoftware,Kicad,Pcbnew,(5.1.4)-1
; #@! TF.FileFunction,Plated,1,2,PTH
FMAT,2
METRIC
T1C0.300
T2C0.400
T3C0.700
T4C0.762
T5C0.800
T6C1.000
%
G90
G05
T1
X24.74Y-155.55
X27.889Y-155.194
X29.873Y-68.352
X32.328Y-156.028
X34.998Y-74.93
X35.592Y-109.442
X35.896Y-78.74
X37.475Y-95.577
X37.541Y-131.699
X37.85Y-127.667
X38.996Y-154.272
X39.251Y-84.685
X40.107Y-153.289
X40.244Y-142.561
X43.191Y-27.941
X46.253Y-155.499
X48.031Y-123.181
X49.428Y-153.924
X50.419Y-121.539
X51.265Y-124.925
X51.689Y-154.661
X57.18Y-131.08
X57.909Y-134.46
X58.508Y-107.362
X58.89Y-75.837
X59.027Y-106.687
X59.7Y-141.674
X59.933Y-133.43
X61.788Y-56.238
X61.92Y-154.942
X64.008Y-94.595
X64.823Y-107.979
X65.048Y-138.778
X65.347Y-141.11
X65.93Y-36.613
X67.837Y-98.691
X68.792Y-38.793
X71.156Y-140.148
X71.23Y-41.979
X72.213Y-135.945
X72.218Y-71.516
X72.669Y-154.889
X74.029Y-111.636
X75.54Y-138.098
X76.033Y-63.283
X76.213Y-134.206
X76.637Y-134.99
X77.983Y-106.754
X78.542Y-139.457
X78.572Y-154.94
X79.152Y-47.504
X79.876Y-143.575
X80.222Y-90.241
X80.253Y-92.821
X80.434Y-129.54
X80.738Y-144.824
X81.15Y-130.2
X81.236Y-68.685
X81.907Y-130.883
X82.993Y-108.131
X83.435Y-109.529
X85.198Y-68.58
X85.821Y-55.543
X87.229Y-28.653
X87.393Y-107.429
X88.815Y-136.833
X89.173Y-151.806
X89.789Y-155.905
X90.237Y-151.912
X90.37Y-153.41
X91.296Y-153.715
X91.472Y-154.541
X91.917Y-143.037
X92.572Y-154.811
X95.021Y-97.885
X95.153Y-125.444
X95.233Y-148.396
X95.53Y-91.44
X95.53Y-92.71
X95.53Y-95.344
X96.401Y-150.522
X96.517Y-155.302
X96.537Y-148.702
X98.622Y-151.992
X98.807Y-149.897
X99.314Y-156.159
X99.822Y-134.99
X99.975Y-152.542
X100.635Y-155.321
X101.227Y-143.787
X101.344Y-147.339
X101.668Y-101.6
X101.668Y-103.35
X101.673Y-73.66
X101.838Y-90.264
X102.316Y-92.71
X102.489Y-155.981
X104.928Y-39.409
X107.57Y-82.474
X107.933Y-79.903
X109.453Y-99.06
X109.635Y-96.52
X109.967Y-69.755
X111.436Y-104.384
X115.758Y-52.054
X115.987Y-100.005
X117.423Y-93.98
X118.364Y-155.931
X118.804Y-96.52
X120.122Y-74.713
X120.611Y-101.432
X121.822Y-55.688
X123.147Y-143.6
X123.45Y-130.743
X124.114Y-57.48
X124.289Y-15.457
X124.714Y-155.956
X126.035Y-58.195
X126.301Y-128.72
X126.788Y-19.086
X127.432Y-155.931
X128.898Y-74.046
X129.964Y-74.264
X130.723Y-112.001
X130.754Y-80.591
X131.064Y-156.007
X131.429Y-108.852
X132.715Y-26.416
X133.445Y-64.865
X134.239Y-156.134
X136.405Y-143.487
X136.508Y-137.303
X136.842Y-150.385
X137.004Y-151.267
X137.734Y-135.086
X138.861Y-125.958
X140.747Y-72.218
X140.807Y-74.966
X141.394Y-142.961
X142.606Y-145.596
X142.768Y-78.015
X143.502Y-123.867
X143.764Y-156.007
X143.851Y-133.445
X143.851Y-75.025
X144.693Y-80.697
X145.895Y-153.949
X146.414Y-144.945
X146.939Y-156.007
X148.836Y-154.499
X149.636Y-154.706
X149.65Y-129.141
X150.64Y-138.225
X150.952Y-154.711
X151.717Y-52.07
X153.11Y-153.398
X153.975Y-154.737
X154.258Y-124.741
X154.432Y-82.55
X154.784Y-123.123
X155.266Y-81.649
X155.527Y-134.118
X155.974Y-154.348
X157.482Y-104.14
X157.582Y-82.825
X159.505Y-80.949
X159.538Y-147.099
X159.63Y-110.592
X159.724Y-143.873
X163.845Y-126.564
X164.595Y-74.835
X166.503Y-129.188
X167.935Y-77.399
X168.586Y-38.766
X168.586Y-111.417
X168.647Y-84.41
X173.801Y-106.491
X173.959Y-151.75
X177.419Y-76.835
X177.628Y-73.908
X178.054Y-71.501
X182.245Y-76.708
X183.514Y-90.922
X183.642Y-76.708
X183.642Y-102.806
X184.531Y-83.34
X185.171Y-11.492
X187.751Y-77.552
X188.087Y-81.407
X188.976Y-78.74
X195.707Y-101.727
X195.707Y-101.727
X196.596Y-96.52
X196.596Y-105.337
X197.993Y-140.081
X198.882Y-146.505
X200.152Y-136.779
X200.254Y-77.546
X201.168Y-71.12
X201.168Y-78.74
X201.168Y-146.369
X203.371Y-59.695
X204.47Y-147.469
X204.66Y-151.575
X205.512Y-107.989
X206.031Y-143.367
X207.07Y-145.83
X209.255Y-96.52
X210.951Y-148.528
X212.884Y-147.132
X213.929Y-146.095
X214.457Y-66.04
X215.606Y-140.535
X216.154Y-154.965
X218.635Y-146.573
X220.39Y-144.042
X220.655Y-150.78
X220.728Y-149.43
X221.183Y-154.229
X221.185Y-150.105
X225.14Y-90.426
X225.679Y-121.539
X225.921Y-136.242
X227.389Y-151.07
X227.627Y-67.31
X227.889Y-134.793
X228.728Y-77.399
X230.029Y-52.063
X232.774Y-50.626
X233.03Y-143.021
X235.258Y-56.065
X235.966Y-95.25
X236.282Y-68.344
X236.471Y-133.709
X237.006Y-62.325
X237.369Y-133.88
X237.411Y-51.388
X238.947Y-137.532
X240.473Y-31.183
X240.532Y-18.955
X241.173Y-90.241
X241.325Y-58.526
X241.554Y-155.55
X242.207Y-136.381
X245.745Y-138.082
X247.071Y-47.79
X248.096Y-50.8
X251.003Y-153.314
X251.308Y-152.375
X251.333Y-154.254
X251.384Y-121.647
X251.739Y-155.016
X253.055Y-125.137
X255.022Y-83.89
X255.259Y-133.54
X255.528Y-21.764
X256.146Y-104.688
X258.369Y-154.229
X258.914Y-80.521
X260.363Y-52.061
X260.505Y-105.066
X263.334Y-63.88
X266.944Y-92.737
X267.553Y-140.975
X268.009Y-77.425
X272.704Y-84.207
X273.638Y-149.504
X277.537Y-41.966
X278.162Y-144.025
X278.979Y-145.866
X280.899Y-154.508
X280.91Y-153.416
X281.702Y-90.372
X282.019Y-94.282
X282.296Y-154.762
X284.251Y-153.467
X284.659Y-58.932
X285.559Y-52.072
X285.687Y-50.911
X286.239Y-138.884
X286.346Y-53.837
X287.627Y-64.865
X287.782Y-154.153
X288.656Y-83.806
X288.677Y-142.31
X288.988Y-85.116
X289.067Y-122.714
X290.101Y-153.99
X294.103Y-88.9
X295.044Y-53.34
X296.751Y-59.697
X296.766Y-125.349
X297.415Y-77.691
X297.82Y-105.154
X298.837Y-149.504
X299.953Y-136.689
X302.77Y-97.885
X303.043Y-124.079
X303.587Y-140.195
X305.512Y-141.413
X306.188Y-106.132
X306.205Y-101.517
X310.021Y-80.438
X311.115Y-81.531
X311.897Y-88.9
X312.848Y-91.44
X313.738Y-87.724
X314.249Y-105.423
X315.287Y-145.866
X315.402Y-96.661
X315.952Y-101.6
X317.551Y-153.086
X318.906Y-152.22
X319.365Y-13.97
X319.504Y-73.093
X319.682Y-55.6
X320.21Y-142.678
X320.53Y-144.025
X320.852Y-10.036
X321.291Y-142.022
X321.324Y-95.838
X321.328Y-155.639
X322.981Y-154.029
X324.72Y-91.44
X324.823Y-151.875
X325.01Y-55.879
X325.942Y-153.633
X326.09Y-77.399
X326.828Y-155.714
X327.863Y-88.9
X328.166Y-81.531
X328.541Y-82.462
X328.706Y-87.724
X328.897Y-66.616
X329.132Y-54.166
X330.89Y-69.929
X331.412Y-46.99
X331.857Y-128.939
X332.295Y-135.128
X332.58Y-84.239
X334.569Y-154.61
X335.723Y-99.048
X335.78Y-48.272
X338.766Y-36.797
X341.308Y-105.131
X342.163Y-154.864
X342.468Y-151.333
X344.076Y-118.749
X344.742Y-123.804
X346.068Y-122.496
X346.144Y-102.965
X346.731Y-103.675
X347.25Y-111.047
X347.43Y-16.431
X348.998Y-12.61
X350.268Y-109.803
X351.467Y-39.442
X351.76Y-100.925
X351.863Y-64.675
X352.404Y-124.079
X352.477Y-128.304
X353.182Y-131.699
X353.513Y-119.754
X353.926Y-66.604
X354.39Y-77.399
X355.829Y-154.407
X359.442Y-120.34
T2
X19.939Y-156.13
X22.104Y-128.302
X25.942Y-58.42
X43.957Y-110.405
X81.755Y-113.792
X90.66Y-110.691
X101.868Y-113.792
X109.356Y-118.999
X141.501Y-119.068
X141.786Y-110.359
X144.527Y-110.359
X145.306Y-86.36
X145.987Y-115.686
X146.638Y-114.756
X152.383Y-110.26
X154.483Y-33.02
X176.626Y-129.159
X183.188Y-112.866
X208.0Y-112.265
X210.444Y-60.96
X257.555Y-113.792
X257.804Y-128.302
X262.743Y-113.792
X264.077Y-60.975
X270.896Y-111.635
X287.646Y-57.823
X290.405Y-118.999
X295.929Y-117.517
X297.321Y-127.875
X297.457Y-139.192
X356.194Y-129.409
T3
X160.02Y-43.18
X160.02Y-50.8
X144.78Y-29.464
X152.4Y-29.464
X350.52Y-137.16
X358.14Y-137.16
X167.64Y-43.18
X167.64Y-50.8
T4
X173.736Y-154.178
X178.308Y-154.686
X185.166Y-116.586
X211.328Y-153.924
X357.632Y-143.256
T5
X115.316Y-30.48
X120.316Y-30.48
X231.14Y-63.5
X231.14Y-66.04
X231.14Y-68.58
X231.14Y-71.12
X231.14Y-73.66
X231.14Y-76.2
X231.14Y-78.74
X238.76Y-63.5
X238.76Y-66.04
X238.76Y-68.58
X238.76Y-71.12
X238.76Y-73.66
X238.76Y-76.2
X238.76Y-78.74
X114.3Y-88.9
X114.3Y-91.44
X114.3Y-93.98
X114.3Y-96.52
X114.3Y-99.06
X114.3Y-101.6
X114.3Y-104.14
X121.92Y-88.9
X121.92Y-91.44
X121.92Y-93.98
X121.92Y-96.52
X121.92Y-99.06
X121.92Y-101.6
X121.92Y-104.14
X26.67Y-83.82
X31.67Y-83.82
X203.2Y-63.5
X203.2Y-66.04
X203.2Y-68.58
X203.2Y-71.12
X203.2Y-73.66
X203.2Y-76.2
X203.2Y-78.74
X210.82Y-63.5
X210.82Y-66.04
X210.82Y-68.58
X210.82Y-71.12
X210.82Y-73.66
X210.82Y-76.2
X210.82Y-78.74
X293.37Y-83.82
X298.37Y-83.82
X55.88Y-63.5
X55.88Y-66.04
X55.88Y-68.58
X55.88Y-71.12
X55.88Y-73.66
X55.88Y-76.2
X55.88Y-78.74
X63.5Y-63.5
X63.5Y-66.04
X63.5Y-68.58
X63.5Y-71.12
X63.5Y-73.66
X63.5Y-76.2
X63.5Y-78.74
X350.52Y-35.56
X350.52Y-38.1
X350.52Y-40.64
X350.52Y-43.18
X350.52Y-45.72
X350.52Y-48.26
X350.52Y-50.8
X358.14Y-35.56
X358.14Y-38.1
X358.14Y-40.64
X358.14Y-43.18
X358.14Y-45.72
X358.14Y-48.26
X358.14Y-50.8
X144.78Y-38.1
X144.78Y-40.64
X144.78Y-43.18
X144.78Y-45.72
X144.78Y-48.26
X144.78Y-50.8
X144.78Y-53.34
X152.4Y-38.1
X152.4Y-40.64
X152.4Y-43.18
X152.4Y-45.72
X152.4Y-48.26
X152.4Y-50.8
X152.4Y-53.34
X323.85Y-30.48
X328.85Y-30.48
X114.3Y-35.56
X114.3Y-38.1
X114.3Y-40.64
X114.3Y-43.18
X114.3Y-45.72
X114.3Y-48.26
X114.3Y-50.8
X114.3Y-53.34
X121.92Y-35.56
X121.92Y-38.1
X121.92Y-40.64
X121.92Y-43.18
X121.92Y-45.72
X121.92Y-48.26
X121.92Y-50.8
X121.92Y-53.34
X25.4Y-88.9
X25.4Y-91.44
X25.4Y-93.98
X25.4Y-96.52
X25.4Y-99.06
X25.4Y-101.6
X25.4Y-104.14
X33.02Y-88.9
X33.02Y-91.44
X33.02Y-93.98
X33.02Y-96.52
X33.02Y-99.06
X33.02Y-101.6
X33.02Y-104.14
X115.57Y-58.42
X120.57Y-58.42
X292.1Y-63.5
X292.1Y-66.04
X292.1Y-68.58
X292.1Y-71.12
X292.1Y-73.66
X292.1Y-76.2
X292.1Y-78.74
X299.72Y-63.5
X299.72Y-66.04
X299.72Y-68.58
X299.72Y-71.12
X299.72Y-73.66
X299.72Y-76.2
X299.72Y-78.74
X350.52Y-7.62
X350.52Y-10.16
X350.52Y-12.7
X350.52Y-15.24
X350.52Y-17.78
X350.52Y-20.32
X350.52Y-22.86
X350.52Y-25.4
X358.14Y-7.62
X358.14Y-10.16
X358.14Y-12.7
X358.14Y-15.24
X358.14Y-17.78
X358.14Y-20.32
X358.14Y-22.86
X358.14Y-25.4
X322.58Y-63.5
X322.58Y-66.04
X322.58Y-68.58
X322.58Y-71.12
X322.58Y-73.66
X322.58Y-76.2
X322.58Y-78.74
X330.2Y-63.5
X330.2Y-66.04
X330.2Y-68.58
X330.2Y-71.12
X330.2Y-73.66
X330.2Y-76.2
X330.2Y-78.74
X292.1Y-35.56
X292.1Y-38.1
X292.1Y-40.64
X292.1Y-43.18
X292.1Y-45.72
X292.1Y-48.26
X292.1Y-50.8
X292.1Y-53.34
X299.72Y-35.56
X299.72Y-38.1
X299.72Y-40.64
X299.72Y-43.18
X299.72Y-45.72
X299.72Y-48.26
X299.72Y-50.8
X299.72Y-53.34
X261.62Y-116.459
X261.62Y-118.999
X261.62Y-121.539
X261.62Y-124.079
X261.62Y-126.619
X261.62Y-129.159
X261.62Y-131.699
X269.24Y-116.459
X269.24Y-118.999
X269.24Y-121.539
X269.24Y-124.079
X269.24Y-126.619
X269.24Y-129.159
X269.24Y-131.699
X351.79Y-83.82
X356.79Y-83.82
X231.14Y-88.9
X231.14Y-91.44
X231.14Y-93.98
X231.14Y-96.52
X231.14Y-99.06
X231.14Y-101.6
X231.14Y-104.14
X238.76Y-88.9
X238.76Y-91.44
X238.76Y-93.98
X238.76Y-96.52
X238.76Y-99.06
X238.76Y-101.6
X238.76Y-104.14
X351.79Y-110.49
X356.79Y-110.49
X144.78Y-114.3
X144.78Y-116.84
X144.78Y-119.38
X144.78Y-121.92
X144.78Y-124.46
X144.78Y-127.0
X144.78Y-129.54
X144.78Y-132.08
X144.78Y-134.62
X152.4Y-114.3
X152.4Y-116.84
X152.4Y-119.38
X152.4Y-121.92
X152.4Y-124.46
X152.4Y-127.0
X152.4Y-129.54
X152.4Y-132.08
X152.4Y-134.62
X203.2Y-116.459
X203.2Y-118.999
X203.2Y-121.539
X203.2Y-124.079
X203.2Y-126.619
X203.2Y-129.159
X203.2Y-131.699
X210.82Y-116.459
X210.82Y-118.999
X210.82Y-121.539
X210.82Y-124.079
X210.82Y-126.619
X210.82Y-129.159
X210.82Y-131.699
X114.3Y-5.08
X114.3Y-7.62
X114.3Y-10.16
X114.3Y-12.7
X114.3Y-15.24
X114.3Y-17.78
X114.3Y-20.32
X114.3Y-22.86
X114.3Y-25.4
X121.92Y-5.08
X121.92Y-7.62
X121.92Y-10.16
X121.92Y-12.7
X121.92Y-15.24
X121.92Y-17.78
X121.92Y-20.32
X121.92Y-22.86
X121.92Y-25.4
X83.82Y-116.459
X83.82Y-118.999
X83.82Y-121.539
X83.82Y-124.079
X83.82Y-126.619
X83.82Y-129.159
X83.82Y-131.699
X91.44Y-116.459
X91.44Y-118.999
X91.44Y-121.539
X91.44Y-124.079
X91.44Y-126.619
X91.44Y-129.159
X91.44Y-131.699
X165.1Y-43.26
X165.1Y-48.26
X173.182Y-88.9
X173.182Y-91.44
X173.182Y-93.98
X173.182Y-96.52
X173.182Y-99.06
X173.182Y-101.6
X173.182Y-104.14
X180.802Y-88.9
X180.802Y-91.44
X180.802Y-93.98
X180.802Y-96.52
X180.802Y-99.06
X180.802Y-101.6
X180.802Y-104.14
X83.82Y-88.9
X83.82Y-91.44
X83.82Y-93.98
X83.82Y-96.52
X83.82Y-99.06
X83.82Y-101.6
X83.82Y-104.14
X91.44Y-88.9
X91.44Y-91.44
X91.44Y-93.98
X91.44Y-96.52
X91.44Y-99.06
X91.44Y-101.6
X91.44Y-104.14
X262.89Y-58.42
X267.89Y-58.42
X83.82Y-35.56
X83.82Y-38.1
X83.82Y-40.64
X83.82Y-43.18
X83.82Y-45.72
X83.82Y-48.26
X83.82Y-50.8
X83.82Y-53.34
X91.44Y-35.56
X91.44Y-38.1
X91.44Y-40.64
X91.44Y-43.18
X91.44Y-45.72
X91.44Y-48.26
X91.44Y-50.8
X91.44Y-53.34
X25.4Y-60.96
X25.4Y-63.5
X25.4Y-66.04
X25.4Y-68.58
X25.4Y-71.12
X25.4Y-73.66
X25.4Y-76.2
X25.4Y-78.74
X33.02Y-60.96
X33.02Y-63.5
X33.02Y-66.04
X33.02Y-68.58
X33.02Y-71.12
X33.02Y-73.66
X33.02Y-76.2
X33.02Y-78.74
X350.52Y-63.5
X350.52Y-66.04
X350.52Y-68.58
X350.52Y-71.12
X350.52Y-73.66
X350.52Y-76.2
X350.52Y-78.74
X358.14Y-63.5
X358.14Y-66.04
X358.14Y-68.58
X358.14Y-71.12
X358.14Y-73.66
X358.14Y-76.2
X358.14Y-78.74
X144.78Y-63.5
X144.78Y-66.04
X144.78Y-68.58
X144.78Y-71.12
X144.78Y-73.66
X144.78Y-76.2
X144.78Y-78.74
X152.4Y-63.5
X152.4Y-66.04
X152.4Y-68.58
X152.4Y-71.12
X152.4Y-73.66
X152.4Y-76.2
X152.4Y-78.74
X26.67Y-110.49
X31.67Y-110.49
X292.1Y-116.459
X292.1Y-118.999
X292.1Y-121.539
X292.1Y-124.079
X292.1Y-126.619
X292.1Y-129.159
X292.1Y-131.699
X299.72Y-116.459
X299.72Y-118.999
X299.72Y-121.539
X299.72Y-124.079
X299.72Y-126.619
X299.72Y-129.159
X299.72Y-131.699
X350.52Y-88.9
X350.52Y-91.44
X350.52Y-93.98
X350.52Y-96.52
X350.52Y-99.06
X350.52Y-101.6
X350.52Y-104.14
X358.14Y-88.9
X358.14Y-91.44
X358.14Y-93.98
X358.14Y-96.52
X358.14Y-99.06
X358.14Y-101.6
X358.14Y-104.14
X232.41Y-30.48
X237.41Y-30.48
X114.3Y-63.5
X114.3Y-66.04
X114.3Y-68.58
X114.3Y-71.12
X114.3Y-73.66
X114.3Y-76.2
X114.3Y-78.74
X121.92Y-63.5
X121.92Y-66.04
X121.92Y-68.58
X121.92Y-71.12
X121.92Y-73.66
X121.92Y-76.2
X121.92Y-78.74
X322.58Y-35.56
X322.58Y-38.1
X322.58Y-40.64
X322.58Y-43.18
X322.58Y-45.72
X322.58Y-48.26
X322.58Y-50.8
X322.58Y-53.34
X330.2Y-35.56
X330.2Y-38.1
X330.2Y-40.64
X330.2Y-43.18
X330.2Y-45.72
X330.2Y-48.26
X330.2Y-50.8
X330.2Y-53.34
X146.05Y-109.22
X151.05Y-109.22
X322.58Y-116.84
X322.58Y-119.38
X322.58Y-121.92
X322.58Y-124.46
X322.58Y-127.0
X322.58Y-129.54
X322.58Y-132.08
X322.58Y-134.62
X322.58Y-137.16
X330.2Y-116.84
X330.2Y-119.38
X330.2Y-121.92
X330.2Y-124.46
X330.2Y-127.0
X330.2Y-129.54
X330.2Y-132.08
X330.2Y-134.62
X330.2Y-137.16
X292.1Y-88.9
X292.1Y-91.44
X292.1Y-93.98
X292.1Y-96.52
X292.1Y-99.06
X292.1Y-101.6
X292.1Y-104.14
X299.72Y-88.9
X299.72Y-91.44
X299.72Y-93.98
X299.72Y-96.52
X299.72Y-99.06
X299.72Y-101.6
X299.72Y-104.14
X231.14Y-114.3
X231.14Y-116.84
X231.14Y-119.38
X231.14Y-121.92
X231.14Y-124.46
X231.14Y-127.0
X231.14Y-129.54
X231.14Y-132.08
X231.14Y-134.62
X238.76Y-114.3
X238.76Y-116.84
X238.76Y-119.38
X238.76Y-121.92
X238.76Y-124.46
X238.76Y-127.0
X238.76Y-129.54
X238.76Y-132.08
X238.76Y-134.62
X54.956Y-88.9
X54.956Y-91.44
X54.956Y-93.98
X54.956Y-96.52
X54.956Y-99.06
X54.956Y-101.6
X54.956Y-104.14
X62.576Y-88.9
X62.576Y-91.44
X62.576Y-93.98
X62.576Y-96.52
X62.576Y-99.06
X62.576Y-101.6
X62.576Y-104.14
X231.14Y-35.56
X231.14Y-38.1
X231.14Y-40.64
X231.14Y-43.18
X231.14Y-45.72
X231.14Y-48.26
X231.14Y-50.8
X231.14Y-53.34
X238.76Y-35.56
X238.76Y-38.1
X238.76Y-40.64
X238.76Y-43.18
X238.76Y-45.72
X238.76Y-48.26
X238.76Y-50.8
X238.76Y-53.34
X262.89Y-109.22
X267.89Y-109.22
X203.2Y-88.9
X203.2Y-91.44
X203.2Y-93.98
X203.2Y-96.52
X203.2Y-99.06
X203.2Y-101.6
X203.2Y-104.14
X210.82Y-88.9
X210.82Y-91.44
X210.82Y-93.98
X210.82Y-96.52
X210.82Y-99.06
X210.82Y-101.6
X210.82Y-104.14
X26.67Y-55.88
X31.67Y-55.88
X351.79Y-57.15
X356.79Y-57.15
X172.72Y-63.5
X172.72Y-66.04
X172.72Y-68.58
X172.72Y-71.12
X172.72Y-73.66
X172.72Y-76.2
X172.72Y-78.74
X180.34Y-63.5
X180.34Y-66.04
X180.34Y-68.58
X180.34Y-71.12
X180.34Y-73.66
X180.34Y-76.2
X180.34Y-78.74
X55.88Y-114.3
X55.88Y-116.84
X55.88Y-119.38
X55.88Y-121.92
X55.88Y-124.46
X55.88Y-127.0
X55.88Y-129.54
X55.88Y-132.08
X55.88Y-134.62
X63.5Y-114.3
X63.5Y-116.84
X63.5Y-119.38
X63.5Y-121.92
X63.5Y-124.46
X63.5Y-127.0
X63.5Y-129.54
X63.5Y-132.08
X63.5Y-134.62
X172.72Y-116.459
X172.72Y-118.999
X172.72Y-121.539
X172.72Y-124.079
X172.72Y-126.619
X172.72Y-129.159
X172.72Y-131.699
X180.34Y-116.459
X180.34Y-118.999
X180.34Y-121.539
X180.34Y-124.079
X180.34Y-126.619
X180.34Y-129.159
X180.34Y-131.699
X25.4Y-7.62
X25.4Y-10.16
X25.4Y-12.7
X25.4Y-15.24
X25.4Y-17.78
X25.4Y-20.32
X25.4Y-22.86
X25.4Y-25.4
X33.02Y-7.62
X33.02Y-10.16
X33.02Y-12.7
X33.02Y-15.24
X33.02Y-17.78
X33.02Y-20.32
X33.02Y-22.86
X33.02Y-25.4
X144.78Y-88.9
X144.78Y-91.44
X144.78Y-93.98
X144.78Y-96.52
X144.78Y-99.06
X144.78Y-101.6
X144.78Y-104.14
X152.4Y-88.9
X152.4Y-91.44
X152.4Y-93.98
X152.4Y-96.52
X152.4Y-99.06
X152.4Y-101.6
X152.4Y-104.14
X114.3Y-116.459
X114.3Y-118.999
X114.3Y-121.539
X114.3Y-124.079
X114.3Y-126.619
X114.3Y-129.159
X114.3Y-131.699
X121.92Y-116.459
X121.92Y-118.999
X121.92Y-121.539
X121.92Y-124.079
X121.92Y-126.619
X121.92Y-129.159
X121.92Y-131.699
X146.05Y-83.82
X151.05Y-83.82
X55.88Y-35.56
X55.88Y-38.1
X55.88Y-40.64
X55.88Y-43.18
X55.88Y-45.72
X55.88Y-48.26
X55.88Y-50.8
X55.88Y-53.34
X63.5Y-35.56
X63.5Y-38.1
X63.5Y-40.64
X63.5Y-43.18
X63.5Y-45.72
X63.5Y-48.26
X63.5Y-50.8
X63.5Y-53.34
X162.56Y-43.18
X162.56Y-48.18
X261.62Y-63.5
X261.62Y-66.04
X261.62Y-68.58
X261.62Y-71.12
X261.62Y-73.66
X261.62Y-76.2
X261.62Y-78.74
X269.24Y-63.5
X269.24Y-66.04
X269.24Y-68.58
X269.24Y-71.12
X269.24Y-73.66
X269.24Y-76.2
X269.24Y-78.74
X350.52Y-116.459
X350.52Y-118.999
X350.52Y-121.539
X350.52Y-124.079
X350.52Y-126.619
X350.52Y-129.159
X350.52Y-131.699
X358.14Y-116.459
X358.14Y-118.999
X358.14Y-121.539
X358.14Y-124.079
X358.14Y-126.619
X358.14Y-129.159
X358.14Y-131.699
X25.4Y-35.56
X25.4Y-38.1
X25.4Y-40.64
X25.4Y-43.18
X25.4Y-45.72
X25.4Y-48.26
X25.4Y-50.8
X33.02Y-35.56
X33.02Y-38.1
X33.02Y-40.64
X33.02Y-43.18
X33.02Y-45.72
X33.02Y-48.26
X33.02Y-50.8
X322.58Y-88.9
X322.58Y-91.44
X322.58Y-93.98
X322.58Y-96.52
X322.58Y-99.06
X322.58Y-101.6
X322.58Y-104.14
X330.2Y-88.9
X330.2Y-91.44
X330.2Y-93.98
X330.2Y-96.52
X330.2Y-99.06
X330.2Y-101.6
X330.2Y-104.14
X261.62Y-5.08
X261.62Y-7.62
X261.62Y-10.16
X261.62Y-12.7
X261.62Y-15.24
X261.62Y-17.78
X261.62Y-20.32
X261.62Y-22.86
X261.62Y-25.4
X269.24Y-5.08
X269.24Y-7.62
X269.24Y-10.16
X269.24Y-12.7
X269.24Y-15.24
X269.24Y-17.78
X269.24Y-20.32
X269.24Y-22.86
X269.24Y-25.4
X261.62Y-35.56
X261.62Y-38.1
X261.62Y-40.64
X261.62Y-43.18
X261.62Y-45.72
X261.62Y-48.26
X261.62Y-50.8
X261.62Y-53.34
X269.24Y-35.56
X269.24Y-38.1
X269.24Y-40.64
X269.24Y-43.18
X269.24Y-45.72
X269.24Y-48.26
X269.24Y-50.8
X269.24Y-53.34
X25.4Y-116.459
X25.4Y-118.999
X25.4Y-121.539
X25.4Y-124.079
X25.4Y-126.619
X25.4Y-129.159
X25.4Y-131.699
X33.02Y-116.459
X33.02Y-118.999
X33.02Y-121.539
X33.02Y-124.079
X33.02Y-126.619
X33.02Y-129.159
X33.02Y-131.699
X261.62Y-88.9
X261.62Y-91.44
X261.62Y-93.98
X261.62Y-96.52
X261.62Y-99.06
X261.62Y-101.6
X261.62Y-104.14
X269.24Y-88.9
X269.24Y-91.44
X269.24Y-93.98
X269.24Y-96.52
X269.24Y-99.06
X269.24Y-101.6
X269.24Y-104.14
X83.82Y-63.5
X83.82Y-66.04
X83.82Y-68.58
X83.82Y-71.12
X83.82Y-73.66
X83.82Y-76.2
X83.82Y-78.74
X91.44Y-63.5
X91.44Y-66.04
X91.44Y-68.58
X91.44Y-71.12
X91.44Y-73.66
X91.44Y-76.2
X91.44Y-78.74
T6
X368.3Y-35.56
X368.3Y-50.56
X12.7Y-35.56
X12.7Y-50.56
X362.204Y-137.16
X362.204Y-152.4
X12.7Y-116.84
X12.7Y-131.84
X368.3Y-116.84
X368.3Y-131.84
X368.3Y-89.14
X368.3Y-104.14
X12.7Y-88.9
X12.7Y-103.9
X12.7Y-61.2
X12.7Y-76.2
X339.852Y-137.16
X339.852Y-152.4
X12.7Y-10.16
X12.7Y-25.16
X368.3Y-8.636
X368.3Y-23.636
X368.3Y-63.5
X368.3Y-78.5
X23.114Y-137.668
X23.114Y-152.908
X368.3Y-137.4
X368.3Y-152.4
T0
M30
