G04 #@! TF.GenerationSoftware,KiCad,Pcbnew,(5.1.4)-1*
G04 #@! TF.CreationDate,2019-11-18T03:08:55+02:00*
G04 #@! TF.ProjectId,HexPerTerminal,48657850-6572-4546-9572-6d696e616c2e,0.1*
G04 #@! TF.SameCoordinates,Original*
G04 #@! TF.FileFunction,Copper,L1,Top*
G04 #@! TF.FilePolarity,Positive*
%FSLAX46Y46*%
G04 Gerber Fmt 4.6, Leading zero omitted, Abs format (unit mm)*
G04 Created by KiCad (PCBNEW (5.1.4)-1) date 2019-11-18 03:08:55*
%MOMM*%
%LPD*%
G04 APERTURE LIST*
%ADD10C,0.050000*%
%ADD11C,0.010000*%
%ADD12O,1.600000X1.600000*%
%ADD13R,1.600000X1.600000*%
%ADD14C,1.600000*%
%ADD15O,1.400000X1.400000*%
%ADD16C,1.400000*%
%ADD17O,2.000000X2.000000*%
%ADD18C,2.000000*%
%ADD19R,2.000000X2.000000*%
%ADD20R,1.905000X7.620000*%
%ADD21C,1.524000*%
%ADD22C,0.800000*%
%ADD23C,0.600000*%
%ADD24C,1.270000*%
%ADD25C,0.750000*%
%ADD26C,0.350000*%
%ADD27C,0.254000*%
G04 APERTURE END LIST*
D10*
X18669000Y-158115000D02*
X18669000Y-164465000D01*
X19304000Y-165100000D02*
G75*
G02X18669000Y-164465000I0J635000D01*
G01*
X0Y-635000D02*
X0Y-156845000D01*
X176784000Y-158115000D02*
G75*
G02X177419000Y-157480000I635000J0D01*
G01*
X18034000Y-157480000D02*
G75*
G02X18669000Y-158115000I0J-635000D01*
G01*
X366649000Y-164465000D02*
G75*
G02X366014000Y-165100000I-635000J0D01*
G01*
X366649000Y-164465000D02*
X366649000Y-158115000D01*
X209169000Y-165100000D02*
X266954000Y-165100000D01*
X208534000Y-158115000D02*
X208534000Y-164465000D01*
X209169000Y-165100000D02*
G75*
G02X208534000Y-164465000I0J635000D01*
G01*
X207899000Y-157480000D02*
G75*
G02X208534000Y-158115000I0J-635000D01*
G01*
X266954000Y-165100000D02*
X366014000Y-165100000D01*
X96139000Y-165100000D02*
X176149000Y-165100000D01*
X176784000Y-158115000D02*
X176784000Y-164465000D01*
X207899000Y-157480000D02*
X177419000Y-157480000D01*
X176784000Y-164465000D02*
G75*
G02X176149000Y-165100000I-635000J0D01*
G01*
X366649000Y-158115000D02*
G75*
G02X367284000Y-157480000I635000J0D01*
G01*
X378968000Y-156845000D02*
G75*
G02X378333000Y-157480000I-635000J0D01*
G01*
X367284000Y-157480000D02*
X378333000Y-157480000D01*
X378968000Y-635000D02*
X378968000Y-156845000D01*
X19304000Y-165100000D02*
X96139000Y-165100000D01*
X635000Y-157480000D02*
X18034000Y-157480000D01*
X378333000Y0D02*
X635000Y0D01*
X378333000Y0D02*
G75*
G02X378968000Y-635000I0J-635000D01*
G01*
X635000Y-157480000D02*
G75*
G02X0Y-156845000I0J635000D01*
G01*
X0Y-635000D02*
G75*
G02X635000Y0I635000J0D01*
G01*
D11*
G36*
X309714899Y-15087599D02*
G01*
X312686618Y-18059399D01*
X309727600Y-21018499D01*
X306768581Y-23977600D01*
X304127005Y-23977600D01*
X306419302Y-21685197D01*
X306703227Y-21401113D01*
X306977031Y-21126870D01*
X307238583Y-20864618D01*
X307485751Y-20616504D01*
X307716404Y-20384679D01*
X307928411Y-20171291D01*
X308119641Y-19978490D01*
X308287962Y-19808424D01*
X308431243Y-19663243D01*
X308547352Y-19545095D01*
X308634159Y-19456130D01*
X308689532Y-19398497D01*
X308711339Y-19374345D01*
X308711600Y-19373797D01*
X308686613Y-19371854D01*
X308613306Y-19369965D01*
X308494160Y-19368141D01*
X308331654Y-19366391D01*
X308128269Y-19364726D01*
X307886484Y-19363155D01*
X307608780Y-19361688D01*
X307297637Y-19360335D01*
X306955535Y-19359106D01*
X306584954Y-19358011D01*
X306188375Y-19357059D01*
X305768276Y-19356261D01*
X305327139Y-19355626D01*
X304867444Y-19355164D01*
X304391671Y-19354886D01*
X303936400Y-19354800D01*
X299161200Y-19354800D01*
X299161200Y-16738600D01*
X308724195Y-16738600D01*
X306412900Y-14427200D01*
X304101604Y-12115800D01*
X306743181Y-12115800D01*
X309714899Y-15087599D01*
X309714899Y-15087599D01*
G37*
X309714899Y-15087599D02*
X312686618Y-18059399D01*
X309727600Y-21018499D01*
X306768581Y-23977600D01*
X304127005Y-23977600D01*
X306419302Y-21685197D01*
X306703227Y-21401113D01*
X306977031Y-21126870D01*
X307238583Y-20864618D01*
X307485751Y-20616504D01*
X307716404Y-20384679D01*
X307928411Y-20171291D01*
X308119641Y-19978490D01*
X308287962Y-19808424D01*
X308431243Y-19663243D01*
X308547352Y-19545095D01*
X308634159Y-19456130D01*
X308689532Y-19398497D01*
X308711339Y-19374345D01*
X308711600Y-19373797D01*
X308686613Y-19371854D01*
X308613306Y-19369965D01*
X308494160Y-19368141D01*
X308331654Y-19366391D01*
X308128269Y-19364726D01*
X307886484Y-19363155D01*
X307608780Y-19361688D01*
X307297637Y-19360335D01*
X306955535Y-19359106D01*
X306584954Y-19358011D01*
X306188375Y-19357059D01*
X305768276Y-19356261D01*
X305327139Y-19355626D01*
X304867444Y-19355164D01*
X304391671Y-19354886D01*
X303936400Y-19354800D01*
X299161200Y-19354800D01*
X299161200Y-16738600D01*
X308724195Y-16738600D01*
X306412900Y-14427200D01*
X304101604Y-12115800D01*
X306743181Y-12115800D01*
X309714899Y-15087599D01*
G36*
X297205538Y-14770100D02*
G01*
X298532107Y-13442950D01*
X299858677Y-12115800D01*
X301491138Y-12115800D01*
X301773958Y-12116088D01*
X302041247Y-12116922D01*
X302288763Y-12118250D01*
X302512266Y-12120023D01*
X302707512Y-12122192D01*
X302870261Y-12124707D01*
X302996271Y-12127519D01*
X303081299Y-12130577D01*
X303121105Y-12133833D01*
X303123600Y-12134890D01*
X303105938Y-12154636D01*
X303054205Y-12208389D01*
X302970276Y-12294262D01*
X302856025Y-12410367D01*
X302713329Y-12554818D01*
X302544063Y-12725725D01*
X302350101Y-12921203D01*
X302133320Y-13139364D01*
X301895595Y-13378320D01*
X301638801Y-13636183D01*
X301364814Y-13911067D01*
X301075509Y-14201084D01*
X300772762Y-14504346D01*
X300458447Y-14818966D01*
X300164499Y-15113000D01*
X297205399Y-18072018D01*
X300158109Y-21024809D01*
X303110818Y-23977600D01*
X299834481Y-23977600D01*
X298519940Y-22663241D01*
X297205400Y-21348883D01*
X297205400Y-25298400D01*
X294563800Y-25298400D01*
X294563800Y-20688446D01*
X291274354Y-23977600D01*
X287972604Y-23977600D01*
X290283899Y-21666200D01*
X292595195Y-19354800D01*
X287324800Y-19354800D01*
X287324800Y-16738600D01*
X289947297Y-16738599D01*
X292569795Y-16738599D01*
X290258499Y-14427199D01*
X287947204Y-12115799D01*
X289598080Y-12115799D01*
X291248955Y-12115800D01*
X292906377Y-13773077D01*
X294563800Y-15430354D01*
X294563800Y-10795000D01*
X297205400Y-10795000D01*
X297205538Y-14770100D01*
X297205538Y-14770100D01*
G37*
X297205538Y-14770100D02*
X298532107Y-13442950D01*
X299858677Y-12115800D01*
X301491138Y-12115800D01*
X301773958Y-12116088D01*
X302041247Y-12116922D01*
X302288763Y-12118250D01*
X302512266Y-12120023D01*
X302707512Y-12122192D01*
X302870261Y-12124707D01*
X302996271Y-12127519D01*
X303081299Y-12130577D01*
X303121105Y-12133833D01*
X303123600Y-12134890D01*
X303105938Y-12154636D01*
X303054205Y-12208389D01*
X302970276Y-12294262D01*
X302856025Y-12410367D01*
X302713329Y-12554818D01*
X302544063Y-12725725D01*
X302350101Y-12921203D01*
X302133320Y-13139364D01*
X301895595Y-13378320D01*
X301638801Y-13636183D01*
X301364814Y-13911067D01*
X301075509Y-14201084D01*
X300772762Y-14504346D01*
X300458447Y-14818966D01*
X300164499Y-15113000D01*
X297205399Y-18072018D01*
X300158109Y-21024809D01*
X303110818Y-23977600D01*
X299834481Y-23977600D01*
X298519940Y-22663241D01*
X297205400Y-21348883D01*
X297205400Y-25298400D01*
X294563800Y-25298400D01*
X294563800Y-20688446D01*
X291274354Y-23977600D01*
X287972604Y-23977600D01*
X290283899Y-21666200D01*
X292595195Y-19354800D01*
X287324800Y-19354800D01*
X287324800Y-16738600D01*
X289947297Y-16738599D01*
X292569795Y-16738599D01*
X290258499Y-14427199D01*
X287947204Y-12115799D01*
X289598080Y-12115799D01*
X291248955Y-12115800D01*
X292906377Y-13773077D01*
X294563800Y-15430354D01*
X294563800Y-10795000D01*
X297205400Y-10795000D01*
X297205538Y-14770100D01*
D12*
X91440000Y-35560000D03*
X83820000Y-53340000D03*
X91440000Y-38100000D03*
X83820000Y-50800000D03*
X91440000Y-40640000D03*
X83820000Y-48260000D03*
X91440000Y-43180000D03*
X83820000Y-45720000D03*
X91440000Y-45720000D03*
X83820000Y-43180000D03*
X91440000Y-48260000D03*
X83820000Y-40640000D03*
X91440000Y-50800000D03*
X83820000Y-38100000D03*
X91440000Y-53340000D03*
D13*
X83820000Y-35560000D03*
D12*
X33020000Y-7620000D03*
X25400000Y-25400000D03*
X33020000Y-10160000D03*
X25400000Y-22860000D03*
X33020000Y-12700000D03*
X25400000Y-20320000D03*
X33020000Y-15240000D03*
X25400000Y-17780000D03*
X33020000Y-17780000D03*
X25400000Y-15240000D03*
X33020000Y-20320000D03*
X25400000Y-12700000D03*
X33020000Y-22860000D03*
X25400000Y-10160000D03*
X33020000Y-25400000D03*
D13*
X25400000Y-7620000D03*
D12*
X330200000Y-116840000D03*
X322580000Y-137160000D03*
X330200000Y-119380000D03*
X322580000Y-134620000D03*
X330200000Y-121920000D03*
X322580000Y-132080000D03*
X330200000Y-124460000D03*
X322580000Y-129540000D03*
X330200000Y-127000000D03*
X322580000Y-127000000D03*
X330200000Y-129540000D03*
X322580000Y-124460000D03*
X330200000Y-132080000D03*
X322580000Y-121920000D03*
X330200000Y-134620000D03*
X322580000Y-119380000D03*
X330200000Y-137160000D03*
D14*
X322580000Y-116840000D03*
D12*
X269240000Y-5080000D03*
X261620000Y-25400000D03*
X269240000Y-7620000D03*
X261620000Y-22860000D03*
X269240000Y-10160000D03*
X261620000Y-20320000D03*
X269240000Y-12700000D03*
X261620000Y-17780000D03*
X269240000Y-15240000D03*
X261620000Y-15240000D03*
X269240000Y-17780000D03*
X261620000Y-12700000D03*
X269240000Y-20320000D03*
X261620000Y-10160000D03*
X269240000Y-22860000D03*
X261620000Y-7620000D03*
X269240000Y-25400000D03*
D14*
X261620000Y-5080000D03*
D12*
X238760000Y-114300000D03*
X231140000Y-134620000D03*
X238760000Y-116840000D03*
X231140000Y-132080000D03*
X238760000Y-119380000D03*
X231140000Y-129540000D03*
X238760000Y-121920000D03*
X231140000Y-127000000D03*
X238760000Y-124460000D03*
X231140000Y-124460000D03*
X238760000Y-127000000D03*
X231140000Y-121920000D03*
X238760000Y-129540000D03*
X231140000Y-119380000D03*
X238760000Y-132080000D03*
X231140000Y-116840000D03*
X238760000Y-134620000D03*
D14*
X231140000Y-114300000D03*
D12*
X152400000Y-114300000D03*
X144780000Y-134620000D03*
X152400000Y-116840000D03*
X144780000Y-132080000D03*
X152400000Y-119380000D03*
X144780000Y-129540000D03*
X152400000Y-121920000D03*
X144780000Y-127000000D03*
X152400000Y-124460000D03*
X144780000Y-124460000D03*
X152400000Y-127000000D03*
X144780000Y-121920000D03*
X152400000Y-129540000D03*
X144780000Y-119380000D03*
X152400000Y-132080000D03*
X144780000Y-116840000D03*
X152400000Y-134620000D03*
D14*
X144780000Y-114300000D03*
D12*
X121920000Y-5080000D03*
X114300000Y-25400000D03*
X121920000Y-7620000D03*
X114300000Y-22860000D03*
X121920000Y-10160000D03*
X114300000Y-20320000D03*
X121920000Y-12700000D03*
X114300000Y-17780000D03*
X121920000Y-15240000D03*
X114300000Y-15240000D03*
X121920000Y-17780000D03*
X114300000Y-12700000D03*
X121920000Y-20320000D03*
X114300000Y-10160000D03*
X121920000Y-22860000D03*
X114300000Y-7620000D03*
X121920000Y-25400000D03*
D14*
X114300000Y-5080000D03*
D12*
X63500000Y-114300000D03*
X55880000Y-134620000D03*
X63500000Y-116840000D03*
X55880000Y-132080000D03*
X63500000Y-119380000D03*
X55880000Y-129540000D03*
X63500000Y-121920000D03*
X55880000Y-127000000D03*
X63500000Y-124460000D03*
X55880000Y-124460000D03*
X63500000Y-127000000D03*
X55880000Y-121920000D03*
X63500000Y-129540000D03*
X55880000Y-119380000D03*
X63500000Y-132080000D03*
X55880000Y-116840000D03*
X63500000Y-134620000D03*
D14*
X55880000Y-114300000D03*
D15*
X160020000Y-43180000D03*
D16*
X160020000Y-50800000D03*
D15*
X167640000Y-50800000D03*
D16*
X167640000Y-43180000D03*
D15*
X152400000Y-29464000D03*
D16*
X144780000Y-29464000D03*
D15*
X358140000Y-137160000D03*
D16*
X350520000Y-137160000D03*
D17*
X339852000Y-137160000D03*
D18*
X339852000Y-152400000D03*
D17*
X362204000Y-152400000D03*
D18*
X362204000Y-137160000D03*
D17*
X23114000Y-137668000D03*
D18*
X23114000Y-152908000D03*
D17*
X368300000Y-137400000D03*
D19*
X368300000Y-152400000D03*
D17*
X368300000Y-50560000D03*
D19*
X368300000Y-35560000D03*
D17*
X368300000Y-78500000D03*
D19*
X368300000Y-63500000D03*
D17*
X368300000Y-104140000D03*
D19*
X368300000Y-89140000D03*
D17*
X368300000Y-131840000D03*
D19*
X368300000Y-116840000D03*
D17*
X368300000Y-23636000D03*
D19*
X368300000Y-8636000D03*
D17*
X12700000Y-131840000D03*
D19*
X12700000Y-116840000D03*
D17*
X12700000Y-103900000D03*
D19*
X12700000Y-88900000D03*
D17*
X12700000Y-76200000D03*
D19*
X12700000Y-61200000D03*
D17*
X12700000Y-50560000D03*
D19*
X12700000Y-35560000D03*
D17*
X12700000Y-25160000D03*
D19*
X12700000Y-10160000D03*
D14*
X356790000Y-110490000D03*
X351790000Y-110490000D03*
X356790000Y-83820000D03*
X351790000Y-83820000D03*
X356790000Y-57150000D03*
X351790000Y-57150000D03*
X328850000Y-30480000D03*
X323850000Y-30480000D03*
X298370000Y-83820000D03*
X293370000Y-83820000D03*
X267890000Y-109220000D03*
X262890000Y-109220000D03*
X267890000Y-58420000D03*
X262890000Y-58420000D03*
X237410000Y-30480000D03*
X232410000Y-30480000D03*
X151050000Y-109220000D03*
X146050000Y-109220000D03*
X120570000Y-58420000D03*
X115570000Y-58420000D03*
X120316000Y-30480000D03*
X115316000Y-30480000D03*
X151050000Y-83820000D03*
X146050000Y-83820000D03*
X31670000Y-55880000D03*
X26670000Y-55880000D03*
X31670000Y-83820000D03*
X26670000Y-83820000D03*
X31670000Y-110490000D03*
X26670000Y-110490000D03*
X165100000Y-43260000D03*
X165100000Y-48260000D03*
X162560000Y-48180000D03*
X162560000Y-43180000D03*
D12*
X358140000Y-7620000D03*
X350520000Y-25400000D03*
X358140000Y-10160000D03*
X350520000Y-22860000D03*
X358140000Y-12700000D03*
X350520000Y-20320000D03*
X358140000Y-15240000D03*
X350520000Y-17780000D03*
X358140000Y-17780000D03*
X350520000Y-15240000D03*
X358140000Y-20320000D03*
X350520000Y-12700000D03*
X358140000Y-22860000D03*
X350520000Y-10160000D03*
X358140000Y-25400000D03*
D13*
X350520000Y-7620000D03*
D12*
X358140000Y-35560000D03*
X350520000Y-50800000D03*
X358140000Y-38100000D03*
X350520000Y-48260000D03*
X358140000Y-40640000D03*
X350520000Y-45720000D03*
X358140000Y-43180000D03*
X350520000Y-43180000D03*
X358140000Y-45720000D03*
X350520000Y-40640000D03*
X358140000Y-48260000D03*
X350520000Y-38100000D03*
X358140000Y-50800000D03*
D13*
X350520000Y-35560000D03*
D12*
X358140000Y-63500000D03*
X350520000Y-78740000D03*
X358140000Y-66040000D03*
X350520000Y-76200000D03*
X358140000Y-68580000D03*
X350520000Y-73660000D03*
X358140000Y-71120000D03*
X350520000Y-71120000D03*
X358140000Y-73660000D03*
X350520000Y-68580000D03*
X358140000Y-76200000D03*
X350520000Y-66040000D03*
X358140000Y-78740000D03*
D13*
X350520000Y-63500000D03*
D12*
X358140000Y-88900000D03*
X350520000Y-104140000D03*
X358140000Y-91440000D03*
X350520000Y-101600000D03*
X358140000Y-93980000D03*
X350520000Y-99060000D03*
X358140000Y-96520000D03*
X350520000Y-96520000D03*
X358140000Y-99060000D03*
X350520000Y-93980000D03*
X358140000Y-101600000D03*
X350520000Y-91440000D03*
X358140000Y-104140000D03*
D13*
X350520000Y-88900000D03*
D12*
X358140000Y-116459000D03*
X350520000Y-131699000D03*
X358140000Y-118999000D03*
X350520000Y-129159000D03*
X358140000Y-121539000D03*
X350520000Y-126619000D03*
X358140000Y-124079000D03*
X350520000Y-124079000D03*
X358140000Y-126619000D03*
X350520000Y-121539000D03*
X358140000Y-129159000D03*
X350520000Y-118999000D03*
X358140000Y-131699000D03*
D13*
X350520000Y-116459000D03*
D12*
X330200000Y-35560000D03*
X322580000Y-53340000D03*
X330200000Y-38100000D03*
X322580000Y-50800000D03*
X330200000Y-40640000D03*
X322580000Y-48260000D03*
X330200000Y-43180000D03*
X322580000Y-45720000D03*
X330200000Y-45720000D03*
X322580000Y-43180000D03*
X330200000Y-48260000D03*
X322580000Y-40640000D03*
X330200000Y-50800000D03*
X322580000Y-38100000D03*
X330200000Y-53340000D03*
D13*
X322580000Y-35560000D03*
D12*
X330200000Y-63500000D03*
X322580000Y-78740000D03*
X330200000Y-66040000D03*
X322580000Y-76200000D03*
X330200000Y-68580000D03*
X322580000Y-73660000D03*
X330200000Y-71120000D03*
X322580000Y-71120000D03*
X330200000Y-73660000D03*
X322580000Y-68580000D03*
X330200000Y-76200000D03*
X322580000Y-66040000D03*
X330200000Y-78740000D03*
D13*
X322580000Y-63500000D03*
D12*
X330200000Y-88900000D03*
X322580000Y-104140000D03*
X330200000Y-91440000D03*
X322580000Y-101600000D03*
X330200000Y-93980000D03*
X322580000Y-99060000D03*
X330200000Y-96520000D03*
X322580000Y-96520000D03*
X330200000Y-99060000D03*
X322580000Y-93980000D03*
X330200000Y-101600000D03*
X322580000Y-91440000D03*
X330200000Y-104140000D03*
D13*
X322580000Y-88900000D03*
D12*
X299720000Y-35560000D03*
X292100000Y-53340000D03*
X299720000Y-38100000D03*
X292100000Y-50800000D03*
X299720000Y-40640000D03*
X292100000Y-48260000D03*
X299720000Y-43180000D03*
X292100000Y-45720000D03*
X299720000Y-45720000D03*
X292100000Y-43180000D03*
X299720000Y-48260000D03*
X292100000Y-40640000D03*
X299720000Y-50800000D03*
X292100000Y-38100000D03*
X299720000Y-53340000D03*
D13*
X292100000Y-35560000D03*
D12*
X299720000Y-63500000D03*
X292100000Y-78740000D03*
X299720000Y-66040000D03*
X292100000Y-76200000D03*
X299720000Y-68580000D03*
X292100000Y-73660000D03*
X299720000Y-71120000D03*
X292100000Y-71120000D03*
X299720000Y-73660000D03*
X292100000Y-68580000D03*
X299720000Y-76200000D03*
X292100000Y-66040000D03*
X299720000Y-78740000D03*
D13*
X292100000Y-63500000D03*
D12*
X299720000Y-88900000D03*
X292100000Y-104140000D03*
X299720000Y-91440000D03*
X292100000Y-101600000D03*
X299720000Y-93980000D03*
X292100000Y-99060000D03*
X299720000Y-96520000D03*
X292100000Y-96520000D03*
X299720000Y-99060000D03*
X292100000Y-93980000D03*
X299720000Y-101600000D03*
X292100000Y-91440000D03*
X299720000Y-104140000D03*
D13*
X292100000Y-88900000D03*
D12*
X299720000Y-116459000D03*
X292100000Y-131699000D03*
X299720000Y-118999000D03*
X292100000Y-129159000D03*
X299720000Y-121539000D03*
X292100000Y-126619000D03*
X299720000Y-124079000D03*
X292100000Y-124079000D03*
X299720000Y-126619000D03*
X292100000Y-121539000D03*
X299720000Y-129159000D03*
X292100000Y-118999000D03*
X299720000Y-131699000D03*
D13*
X292100000Y-116459000D03*
D12*
X269240000Y-35560000D03*
X261620000Y-53340000D03*
X269240000Y-38100000D03*
X261620000Y-50800000D03*
X269240000Y-40640000D03*
X261620000Y-48260000D03*
X269240000Y-43180000D03*
X261620000Y-45720000D03*
X269240000Y-45720000D03*
X261620000Y-43180000D03*
X269240000Y-48260000D03*
X261620000Y-40640000D03*
X269240000Y-50800000D03*
X261620000Y-38100000D03*
X269240000Y-53340000D03*
D13*
X261620000Y-35560000D03*
D12*
X269240000Y-63500000D03*
X261620000Y-78740000D03*
X269240000Y-66040000D03*
X261620000Y-76200000D03*
X269240000Y-68580000D03*
X261620000Y-73660000D03*
X269240000Y-71120000D03*
X261620000Y-71120000D03*
X269240000Y-73660000D03*
X261620000Y-68580000D03*
X269240000Y-76200000D03*
X261620000Y-66040000D03*
X269240000Y-78740000D03*
D13*
X261620000Y-63500000D03*
D12*
X269240000Y-88900000D03*
X261620000Y-104140000D03*
X269240000Y-91440000D03*
X261620000Y-101600000D03*
X269240000Y-93980000D03*
X261620000Y-99060000D03*
X269240000Y-96520000D03*
X261620000Y-96520000D03*
X269240000Y-99060000D03*
X261620000Y-93980000D03*
X269240000Y-101600000D03*
X261620000Y-91440000D03*
X269240000Y-104140000D03*
D13*
X261620000Y-88900000D03*
D12*
X269240000Y-116459000D03*
X261620000Y-131699000D03*
X269240000Y-118999000D03*
X261620000Y-129159000D03*
X269240000Y-121539000D03*
X261620000Y-126619000D03*
X269240000Y-124079000D03*
X261620000Y-124079000D03*
X269240000Y-126619000D03*
X261620000Y-121539000D03*
X269240000Y-129159000D03*
X261620000Y-118999000D03*
X269240000Y-131699000D03*
D13*
X261620000Y-116459000D03*
D12*
X238760000Y-35560000D03*
X231140000Y-53340000D03*
X238760000Y-38100000D03*
X231140000Y-50800000D03*
X238760000Y-40640000D03*
X231140000Y-48260000D03*
X238760000Y-43180000D03*
X231140000Y-45720000D03*
X238760000Y-45720000D03*
X231140000Y-43180000D03*
X238760000Y-48260000D03*
X231140000Y-40640000D03*
X238760000Y-50800000D03*
X231140000Y-38100000D03*
X238760000Y-53340000D03*
D13*
X231140000Y-35560000D03*
D12*
X238760000Y-63500000D03*
X231140000Y-78740000D03*
X238760000Y-66040000D03*
X231140000Y-76200000D03*
X238760000Y-68580000D03*
X231140000Y-73660000D03*
X238760000Y-71120000D03*
X231140000Y-71120000D03*
X238760000Y-73660000D03*
X231140000Y-68580000D03*
X238760000Y-76200000D03*
X231140000Y-66040000D03*
X238760000Y-78740000D03*
D13*
X231140000Y-63500000D03*
D12*
X238760000Y-88900000D03*
X231140000Y-104140000D03*
X238760000Y-91440000D03*
X231140000Y-101600000D03*
X238760000Y-93980000D03*
X231140000Y-99060000D03*
X238760000Y-96520000D03*
X231140000Y-96520000D03*
X238760000Y-99060000D03*
X231140000Y-93980000D03*
X238760000Y-101600000D03*
X231140000Y-91440000D03*
X238760000Y-104140000D03*
D13*
X231140000Y-88900000D03*
D12*
X210820000Y-63500000D03*
X203200000Y-78740000D03*
X210820000Y-66040000D03*
X203200000Y-76200000D03*
X210820000Y-68580000D03*
X203200000Y-73660000D03*
X210820000Y-71120000D03*
X203200000Y-71120000D03*
X210820000Y-73660000D03*
X203200000Y-68580000D03*
X210820000Y-76200000D03*
X203200000Y-66040000D03*
X210820000Y-78740000D03*
D13*
X203200000Y-63500000D03*
D12*
X210820000Y-88900000D03*
X203200000Y-104140000D03*
X210820000Y-91440000D03*
X203200000Y-101600000D03*
X210820000Y-93980000D03*
X203200000Y-99060000D03*
X210820000Y-96520000D03*
X203200000Y-96520000D03*
X210820000Y-99060000D03*
X203200000Y-93980000D03*
X210820000Y-101600000D03*
X203200000Y-91440000D03*
X210820000Y-104140000D03*
D13*
X203200000Y-88900000D03*
D12*
X210820000Y-116459000D03*
X203200000Y-131699000D03*
X210820000Y-118999000D03*
X203200000Y-129159000D03*
X210820000Y-121539000D03*
X203200000Y-126619000D03*
X210820000Y-124079000D03*
X203200000Y-124079000D03*
X210820000Y-126619000D03*
X203200000Y-121539000D03*
X210820000Y-129159000D03*
X203200000Y-118999000D03*
X210820000Y-131699000D03*
D13*
X203200000Y-116459000D03*
D12*
X180340000Y-63500000D03*
X172720000Y-78740000D03*
X180340000Y-66040000D03*
X172720000Y-76200000D03*
X180340000Y-68580000D03*
X172720000Y-73660000D03*
X180340000Y-71120000D03*
X172720000Y-71120000D03*
X180340000Y-73660000D03*
X172720000Y-68580000D03*
X180340000Y-76200000D03*
X172720000Y-66040000D03*
X180340000Y-78740000D03*
D13*
X172720000Y-63500000D03*
D12*
X180802000Y-88900000D03*
X173182000Y-104140000D03*
X180802000Y-91440000D03*
X173182000Y-101600000D03*
X180802000Y-93980000D03*
X173182000Y-99060000D03*
X180802000Y-96520000D03*
X173182000Y-96520000D03*
X180802000Y-99060000D03*
X173182000Y-93980000D03*
X180802000Y-101600000D03*
X173182000Y-91440000D03*
X180802000Y-104140000D03*
D13*
X173182000Y-88900000D03*
D12*
X180340000Y-116459000D03*
X172720000Y-131699000D03*
X180340000Y-118999000D03*
X172720000Y-129159000D03*
X180340000Y-121539000D03*
X172720000Y-126619000D03*
X180340000Y-124079000D03*
X172720000Y-124079000D03*
X180340000Y-126619000D03*
X172720000Y-121539000D03*
X180340000Y-129159000D03*
X172720000Y-118999000D03*
X180340000Y-131699000D03*
D13*
X172720000Y-116459000D03*
D12*
X152400000Y-38100000D03*
X144780000Y-53340000D03*
X152400000Y-40640000D03*
X144780000Y-50800000D03*
X152400000Y-43180000D03*
X144780000Y-48260000D03*
X152400000Y-45720000D03*
X144780000Y-45720000D03*
X152400000Y-48260000D03*
X144780000Y-43180000D03*
X152400000Y-50800000D03*
X144780000Y-40640000D03*
X152400000Y-53340000D03*
D13*
X144780000Y-38100000D03*
D12*
X152400000Y-63500000D03*
X144780000Y-78740000D03*
X152400000Y-66040000D03*
X144780000Y-76200000D03*
X152400000Y-68580000D03*
X144780000Y-73660000D03*
X152400000Y-71120000D03*
X144780000Y-71120000D03*
X152400000Y-73660000D03*
X144780000Y-68580000D03*
X152400000Y-76200000D03*
X144780000Y-66040000D03*
X152400000Y-78740000D03*
D13*
X144780000Y-63500000D03*
D12*
X152400000Y-88900000D03*
X144780000Y-104140000D03*
X152400000Y-91440000D03*
X144780000Y-101600000D03*
X152400000Y-93980000D03*
X144780000Y-99060000D03*
X152400000Y-96520000D03*
X144780000Y-96520000D03*
X152400000Y-99060000D03*
X144780000Y-93980000D03*
X152400000Y-101600000D03*
X144780000Y-91440000D03*
X152400000Y-104140000D03*
D13*
X144780000Y-88900000D03*
D12*
X121920000Y-35560000D03*
X114300000Y-53340000D03*
X121920000Y-38100000D03*
X114300000Y-50800000D03*
X121920000Y-40640000D03*
X114300000Y-48260000D03*
X121920000Y-43180000D03*
X114300000Y-45720000D03*
X121920000Y-45720000D03*
X114300000Y-43180000D03*
X121920000Y-48260000D03*
X114300000Y-40640000D03*
X121920000Y-50800000D03*
X114300000Y-38100000D03*
X121920000Y-53340000D03*
D13*
X114300000Y-35560000D03*
D12*
X121920000Y-63500000D03*
X114300000Y-78740000D03*
X121920000Y-66040000D03*
X114300000Y-76200000D03*
X121920000Y-68580000D03*
X114300000Y-73660000D03*
X121920000Y-71120000D03*
X114300000Y-71120000D03*
X121920000Y-73660000D03*
X114300000Y-68580000D03*
X121920000Y-76200000D03*
X114300000Y-66040000D03*
X121920000Y-78740000D03*
D13*
X114300000Y-63500000D03*
D12*
X121920000Y-88900000D03*
X114300000Y-104140000D03*
X121920000Y-91440000D03*
X114300000Y-101600000D03*
X121920000Y-93980000D03*
X114300000Y-99060000D03*
X121920000Y-96520000D03*
X114300000Y-96520000D03*
X121920000Y-99060000D03*
X114300000Y-93980000D03*
X121920000Y-101600000D03*
X114300000Y-91440000D03*
X121920000Y-104140000D03*
D13*
X114300000Y-88900000D03*
D12*
X121920000Y-116459000D03*
X114300000Y-131699000D03*
X121920000Y-118999000D03*
X114300000Y-129159000D03*
X121920000Y-121539000D03*
X114300000Y-126619000D03*
X121920000Y-124079000D03*
X114300000Y-124079000D03*
X121920000Y-126619000D03*
X114300000Y-121539000D03*
X121920000Y-129159000D03*
X114300000Y-118999000D03*
X121920000Y-131699000D03*
D13*
X114300000Y-116459000D03*
D12*
X91440000Y-63500000D03*
X83820000Y-78740000D03*
X91440000Y-66040000D03*
X83820000Y-76200000D03*
X91440000Y-68580000D03*
X83820000Y-73660000D03*
X91440000Y-71120000D03*
X83820000Y-71120000D03*
X91440000Y-73660000D03*
X83820000Y-68580000D03*
X91440000Y-76200000D03*
X83820000Y-66040000D03*
X91440000Y-78740000D03*
D13*
X83820000Y-63500000D03*
D12*
X91440000Y-88900000D03*
X83820000Y-104140000D03*
X91440000Y-91440000D03*
X83820000Y-101600000D03*
X91440000Y-93980000D03*
X83820000Y-99060000D03*
X91440000Y-96520000D03*
X83820000Y-96520000D03*
X91440000Y-99060000D03*
X83820000Y-93980000D03*
X91440000Y-101600000D03*
X83820000Y-91440000D03*
X91440000Y-104140000D03*
D13*
X83820000Y-88900000D03*
D12*
X91440000Y-116459000D03*
X83820000Y-131699000D03*
X91440000Y-118999000D03*
X83820000Y-129159000D03*
X91440000Y-121539000D03*
X83820000Y-126619000D03*
X91440000Y-124079000D03*
X83820000Y-124079000D03*
X91440000Y-126619000D03*
X83820000Y-121539000D03*
X91440000Y-129159000D03*
X83820000Y-118999000D03*
X91440000Y-131699000D03*
D13*
X83820000Y-116459000D03*
D12*
X63500000Y-35560000D03*
X55880000Y-53340000D03*
X63500000Y-38100000D03*
X55880000Y-50800000D03*
X63500000Y-40640000D03*
X55880000Y-48260000D03*
X63500000Y-43180000D03*
X55880000Y-45720000D03*
X63500000Y-45720000D03*
X55880000Y-43180000D03*
X63500000Y-48260000D03*
X55880000Y-40640000D03*
X63500000Y-50800000D03*
X55880000Y-38100000D03*
X63500000Y-53340000D03*
D13*
X55880000Y-35560000D03*
D12*
X63500000Y-63500000D03*
X55880000Y-78740000D03*
X63500000Y-66040000D03*
X55880000Y-76200000D03*
X63500000Y-68580000D03*
X55880000Y-73660000D03*
X63500000Y-71120000D03*
X55880000Y-71120000D03*
X63500000Y-73660000D03*
X55880000Y-68580000D03*
X63500000Y-76200000D03*
X55880000Y-66040000D03*
X63500000Y-78740000D03*
D13*
X55880000Y-63500000D03*
D12*
X62576400Y-88900000D03*
X54956400Y-104140000D03*
X62576400Y-91440000D03*
X54956400Y-101600000D03*
X62576400Y-93980000D03*
X54956400Y-99060000D03*
X62576400Y-96520000D03*
X54956400Y-96520000D03*
X62576400Y-99060000D03*
X54956400Y-93980000D03*
X62576400Y-101600000D03*
X54956400Y-91440000D03*
X62576400Y-104140000D03*
D13*
X54956400Y-88900000D03*
D12*
X33020000Y-35560000D03*
X25400000Y-50800000D03*
X33020000Y-38100000D03*
X25400000Y-48260000D03*
X33020000Y-40640000D03*
X25400000Y-45720000D03*
X33020000Y-43180000D03*
X25400000Y-43180000D03*
X33020000Y-45720000D03*
X25400000Y-40640000D03*
X33020000Y-48260000D03*
X25400000Y-38100000D03*
X33020000Y-50800000D03*
D13*
X25400000Y-35560000D03*
D12*
X33020000Y-60960000D03*
X25400000Y-78740000D03*
X33020000Y-63500000D03*
X25400000Y-76200000D03*
X33020000Y-66040000D03*
X25400000Y-73660000D03*
X33020000Y-68580000D03*
X25400000Y-71120000D03*
X33020000Y-71120000D03*
X25400000Y-68580000D03*
X33020000Y-73660000D03*
X25400000Y-66040000D03*
X33020000Y-76200000D03*
X25400000Y-63500000D03*
X33020000Y-78740000D03*
D13*
X25400000Y-60960000D03*
D12*
X33020000Y-88900000D03*
X25400000Y-104140000D03*
X33020000Y-91440000D03*
X25400000Y-101600000D03*
X33020000Y-93980000D03*
X25400000Y-99060000D03*
X33020000Y-96520000D03*
X25400000Y-96520000D03*
X33020000Y-99060000D03*
X25400000Y-93980000D03*
X33020000Y-101600000D03*
X25400000Y-91440000D03*
X33020000Y-104140000D03*
D13*
X25400000Y-88900000D03*
D12*
X33020000Y-116459000D03*
X25400000Y-131699000D03*
X33020000Y-118999000D03*
X25400000Y-129159000D03*
X33020000Y-121539000D03*
X25400000Y-126619000D03*
X33020000Y-124079000D03*
X25400000Y-124079000D03*
X33020000Y-126619000D03*
X25400000Y-121539000D03*
X33020000Y-129159000D03*
X25400000Y-118999000D03*
X33020000Y-131699000D03*
D13*
X25400000Y-116459000D03*
D20*
X365379000Y-160655000D03*
X362204000Y-160655000D03*
X359029000Y-160655000D03*
X355854000Y-160655000D03*
X352679000Y-160655000D03*
X349504000Y-160655000D03*
X346329000Y-160655000D03*
X343154000Y-160655000D03*
X339979000Y-160655000D03*
X336804000Y-160655000D03*
X333629000Y-160655000D03*
X330454000Y-160655000D03*
X327279000Y-160655000D03*
X324104000Y-160655000D03*
X320929000Y-160655000D03*
X317754000Y-160655000D03*
X314579000Y-160655000D03*
X311404000Y-160655000D03*
X308229000Y-160655000D03*
X305054000Y-160655000D03*
X301879000Y-160655000D03*
X298704000Y-160655000D03*
X295529000Y-160655000D03*
X292354000Y-160655000D03*
X289179000Y-160655000D03*
X286004000Y-160655000D03*
X282829000Y-160655000D03*
X279654000Y-160655000D03*
X276479000Y-160655000D03*
X273304000Y-160655000D03*
X270129000Y-160655000D03*
X266954000Y-160655000D03*
X263779000Y-160655000D03*
X260604000Y-160655000D03*
X257429000Y-160655000D03*
X254254000Y-160655000D03*
X251079000Y-160655000D03*
X247904000Y-160655000D03*
X244729000Y-160655000D03*
X241554000Y-160655000D03*
X238379000Y-160655000D03*
X235204000Y-160655000D03*
X232029000Y-160655000D03*
X228854000Y-160655000D03*
X225679000Y-160655000D03*
X222504000Y-160655000D03*
X219329000Y-160655000D03*
X216154000Y-160655000D03*
X212979000Y-160655000D03*
X209804000Y-160655000D03*
X175514000Y-160655000D03*
X172339000Y-160655000D03*
X169164000Y-160655000D03*
X165989000Y-160655000D03*
X162814000Y-160655000D03*
X159639000Y-160655000D03*
X156464000Y-160655000D03*
X153289000Y-160655000D03*
X150114000Y-160655000D03*
X146939000Y-160655000D03*
X143764000Y-160655000D03*
X140589000Y-160655000D03*
X137414000Y-160655000D03*
X134239000Y-160655000D03*
X131064000Y-160655000D03*
X127889000Y-160655000D03*
X124714000Y-160655000D03*
X121539000Y-160655000D03*
X118364000Y-160655000D03*
X115189000Y-160655000D03*
X112014000Y-160655000D03*
X108839000Y-160655000D03*
X105664000Y-160655000D03*
X102489000Y-160655000D03*
X99314000Y-160655000D03*
X96139000Y-160655000D03*
X92964000Y-160655000D03*
X89789000Y-160655000D03*
X86614000Y-160655000D03*
X83439000Y-160655000D03*
X80264000Y-160655000D03*
X77089000Y-160655000D03*
X73914000Y-160655000D03*
X70739000Y-160655000D03*
X67564000Y-160655000D03*
X64389000Y-160655000D03*
X61214000Y-160655000D03*
X58039000Y-160655000D03*
X54864000Y-160655000D03*
X51689000Y-160655000D03*
X48514000Y-160655000D03*
X45339000Y-160655000D03*
X42164000Y-160655000D03*
X38989000Y-160655000D03*
X35814000Y-160655000D03*
X32639000Y-160655000D03*
X29464000Y-160655000D03*
X26289000Y-160655000D03*
X23114000Y-160655000D03*
X19939000Y-160655000D03*
D21*
X357632000Y-143256000D03*
D22*
X141501300Y-119067900D03*
X141786300Y-110358800D03*
X144526700Y-110358800D03*
X146638100Y-114756300D03*
X145987400Y-115686400D03*
X152383400Y-110259900D03*
X183188200Y-112866300D03*
X208000500Y-112265000D03*
X297457500Y-139192000D03*
X290405300Y-118999000D03*
X270895800Y-111634700D03*
X109356300Y-118999000D03*
X90660100Y-110690600D03*
X43957300Y-110405300D03*
D23*
X57908600Y-134460100D03*
X88815300Y-136832800D03*
X96400700Y-150522200D03*
X50419000Y-121539000D03*
X67836800Y-98691100D03*
X59932700Y-133430300D03*
X81150200Y-130200400D03*
X89173000Y-151806300D03*
X51264900Y-124924900D03*
X352477300Y-128303900D03*
X352404500Y-124079000D03*
X142768500Y-78014600D03*
X159505000Y-80949100D03*
X123450000Y-130743000D03*
X37850500Y-127667200D03*
X80434200Y-129540000D03*
X91295700Y-153715100D03*
X81235800Y-68685400D03*
X80252900Y-92821000D03*
X64008400Y-94595200D03*
X37541100Y-131699000D03*
X57180000Y-131080400D03*
X48031200Y-123181100D03*
X81906900Y-130882800D03*
X90237000Y-151911900D03*
X58890200Y-75837500D03*
X107932600Y-79903400D03*
X136507800Y-137302700D03*
X245744800Y-138081700D03*
X115986900Y-100004600D03*
X141393800Y-142961400D03*
X233030100Y-143020600D03*
X35591800Y-109442500D03*
X83435000Y-109528700D03*
X95232500Y-148395900D03*
X220727800Y-149429800D03*
X227388700Y-151069800D03*
X59026900Y-106686600D03*
X131428800Y-108851900D03*
X146413900Y-144945100D03*
X220389800Y-144042500D03*
X37475500Y-95577200D03*
X95530500Y-95343800D03*
X101344300Y-147338900D03*
X64822800Y-107979300D03*
X82992700Y-108131300D03*
X96537500Y-148702200D03*
X221184600Y-150105100D03*
X29873500Y-68352200D03*
X109966600Y-69755300D03*
X137734100Y-135086000D03*
X242207000Y-136381200D03*
X80222500Y-90240700D03*
X80738300Y-144824300D03*
X204660500Y-151574500D03*
X198881998Y-146505000D03*
X27889200Y-155194000D03*
X155265900Y-81648600D03*
X178054000Y-71501000D03*
X72218000Y-71515900D03*
X35895800Y-78740000D03*
X115758000Y-52053600D03*
X133444700Y-64864700D03*
X24739600Y-155549600D03*
X288987500Y-85115800D03*
X39251200Y-84684900D03*
X34997800Y-74930000D03*
X346143800Y-102964600D03*
X297820300Y-105154000D03*
X76032800Y-63283200D03*
X78572200Y-154940000D03*
X241324600Y-58526200D03*
X124114500Y-57479700D03*
X121821700Y-55687500D03*
X85820600Y-55542900D03*
X79152300Y-47503700D03*
X87229300Y-28653400D03*
X255528400Y-21763800D03*
X281701800Y-90372300D03*
X302769600Y-97884700D03*
X277537500Y-41965900D03*
X214456700Y-66040000D03*
X203371000Y-59695400D03*
X61787900Y-56238000D03*
X320852000Y-10036000D03*
X318906300Y-152220000D03*
X347429800Y-16430600D03*
X355828604Y-154406600D03*
X91472400Y-154541400D03*
X126788000Y-19085900D03*
X43191200Y-27941300D03*
X132715000Y-26416004D03*
X90369800Y-153410100D03*
X92571600Y-154811500D03*
X98621600Y-151991500D03*
X99974800Y-152541800D03*
X104927600Y-39409200D03*
X338765600Y-36796700D03*
X130723100Y-112001500D03*
X260504700Y-105065500D03*
X306187500Y-106131800D03*
X120611200Y-101431900D03*
X140807400Y-74966300D03*
X335780000Y-48272000D03*
X325009700Y-55879400D03*
X285686800Y-50910600D03*
X284659200Y-58932400D03*
X126034900Y-58195500D03*
X101673500Y-73660000D03*
X237006000Y-62324600D03*
X248095800Y-50800000D03*
X157481900Y-104140000D03*
X128898300Y-74045600D03*
X130754000Y-80591300D03*
X146939000Y-156006798D03*
X32328200Y-156027600D03*
X38996406Y-154272206D03*
X95153300Y-125443700D03*
X95530500Y-91440000D03*
X91916800Y-143037300D03*
X159723700Y-143873100D03*
X98806700Y-149897200D03*
X149636300Y-154706100D03*
X95021200Y-97884600D03*
X101227100Y-143787000D03*
X159538400Y-147098500D03*
X109453300Y-99060000D03*
X137003500Y-151266700D03*
X153110300Y-153398300D03*
X101668100Y-103349700D03*
X101668100Y-101600000D03*
X102315900Y-92710000D03*
X123146800Y-143599700D03*
X213929500Y-146094700D03*
X95530500Y-92710000D03*
X111436100Y-104383700D03*
X136405400Y-143486800D03*
X206031000Y-143367100D03*
X101837700Y-90264500D03*
X294103000Y-88900000D03*
X303586800Y-140195500D03*
X167934800Y-77399300D03*
X85198300Y-68580000D03*
X87392900Y-107429000D03*
X58507800Y-107362000D03*
X99314000Y-156159204D03*
X79875500Y-143575100D03*
X65930100Y-36613100D03*
X40106600Y-153289000D03*
X126301500Y-128719700D03*
X127431800Y-155930600D03*
X124714000Y-155956000D03*
X131064001Y-156006799D03*
X134239000Y-156133800D03*
X297414900Y-77691100D03*
X296750700Y-59697300D03*
X188087000Y-81407000D03*
X143501900Y-123867100D03*
X138861000Y-125957600D03*
X142606100Y-145595900D03*
X117423400Y-93980000D03*
X140747300Y-72218300D03*
X129964400Y-74264100D03*
X136842400Y-150384700D03*
X109634800Y-96520000D03*
X220655100Y-150780500D03*
X118804500Y-96520000D03*
X286346200Y-53837200D03*
X288656500Y-83806200D03*
X184531000Y-83339900D03*
X143851100Y-133444600D03*
X227889200Y-134793400D03*
X272703800Y-84207300D03*
X168647100Y-84410100D03*
X173958800Y-151750200D03*
X166503100Y-129187900D03*
X149649800Y-129140600D03*
X155527100Y-134118000D03*
X255259100Y-133540400D03*
X225139700Y-90426400D03*
X150640100Y-138225100D03*
X238947500Y-137532400D03*
X120122500Y-74713300D03*
X241173000Y-90240700D03*
X68792200Y-38793100D03*
X46253400Y-155498800D03*
X235258400Y-56065300D03*
X71229900Y-41978800D03*
X102489002Y-155981400D03*
X353925700Y-66604400D03*
X285559400Y-52071800D03*
X99821800Y-134990400D03*
X76637000Y-134990400D03*
X144692900Y-80697500D03*
X157581700Y-82825300D03*
X173800600Y-106491000D03*
X145894900Y-153948600D03*
X183514400Y-90922300D03*
X163845500Y-126564100D03*
X153974800Y-154736800D03*
X155973700Y-154347800D03*
X154258500Y-124740700D03*
X154784300Y-123123200D03*
X168586400Y-38766300D03*
X183642000Y-76708000D03*
X143851200Y-75024600D03*
X151717200Y-52070000D03*
X351467400Y-39441600D03*
X185170500Y-11492400D03*
X183642000Y-102806200D03*
X195707000Y-101727000D03*
X195707000Y-101727000D03*
X107569600Y-82473500D03*
X154432000Y-82549992D03*
X118364000Y-155930600D03*
X187750700Y-77552300D03*
X200253600Y-77546200D03*
X177419000Y-76835000D03*
X255022300Y-83890200D03*
X251333000Y-154254200D03*
X164595500Y-74835400D03*
X177627600Y-73907800D03*
X143763997Y-156006803D03*
X328540900Y-82462200D03*
X353512600Y-119754400D03*
X359441600Y-120339700D03*
X182244998Y-76708000D03*
X332580500Y-84239400D03*
X201168000Y-71120000D03*
X188976000Y-78740000D03*
X201168000Y-78740000D03*
X225679000Y-121539000D03*
X201168000Y-146368700D03*
X210951300Y-148527700D03*
X72213400Y-135945300D03*
X200151984Y-136779000D03*
X71155700Y-140148200D03*
X197993000Y-140081000D03*
X331412300Y-46990000D03*
X295044000Y-53340000D03*
X260363300Y-52060700D03*
X230029000Y-52062800D03*
X240531800Y-18955300D03*
X209255400Y-96520000D03*
X77982800Y-106753600D03*
X196595996Y-96520000D03*
X196596000Y-105337000D03*
X72669400Y-154889200D03*
X74028700Y-111636000D03*
X61919700Y-154942300D03*
X236470600Y-133709400D03*
X76212800Y-134206100D03*
X241554004Y-155549600D03*
X225921400Y-136241700D03*
X237369000Y-133879800D03*
X251384400Y-121647000D03*
X221183200Y-154228800D03*
X253054600Y-125137400D03*
X266943700Y-92736900D03*
X235966000Y-95250000D03*
X65347100Y-141110400D03*
X215606000Y-140534600D03*
X236282200Y-68343700D03*
X51688998Y-154660600D03*
X212884100Y-147132200D03*
X228727700Y-77399200D03*
X268009200Y-77425300D03*
X204470000Y-147469300D03*
X280898600Y-154508200D03*
X280910000Y-153416000D03*
X247070700Y-47790300D03*
X251307600Y-152374600D03*
X232773700Y-50626300D03*
X237411500Y-51388300D03*
X251002800Y-153314400D03*
X267553300Y-140974800D03*
X59700400Y-141673800D03*
X282018600Y-94282500D03*
X258368800Y-154228800D03*
X290100800Y-153990400D03*
X287782000Y-154152600D03*
X282295600Y-154762200D03*
X284251400Y-153466798D03*
X278978600Y-145866300D03*
X315287400Y-145866300D03*
X315952000Y-101600000D03*
X315401700Y-96660600D03*
X325942500Y-153633400D03*
X124289400Y-15456900D03*
X96516800Y-155301800D03*
X312847900Y-91440000D03*
X89789000Y-155905200D03*
X100634802Y-155321000D03*
X286239300Y-138883800D03*
X65048500Y-138777900D03*
X287627500Y-64864700D03*
X328897400Y-66615800D03*
X49428400Y-153924000D03*
X314249300Y-105423500D03*
X313737900Y-87724100D03*
X328705800Y-87724100D03*
X75540100Y-138098300D03*
X296766100Y-125349000D03*
X78541800Y-139457500D03*
X299952800Y-136689200D03*
X303042900Y-124079000D03*
X288677300Y-142310500D03*
X289067100Y-122714400D03*
X321323700Y-95837600D03*
X324720300Y-91440000D03*
X344741700Y-123803900D03*
X331856900Y-128939500D03*
X327862500Y-88900000D03*
X311897100Y-88900000D03*
X306205400Y-101517200D03*
X353181900Y-131699000D03*
X258914400Y-80520900D03*
X251739400Y-155016200D03*
X321327600Y-155639300D03*
X317550800Y-153085800D03*
X321291000Y-142021800D03*
X320209700Y-142678400D03*
X218635300Y-146573200D03*
X216154002Y-154965400D03*
X332294900Y-135127600D03*
X342468200Y-151333200D03*
X328166200Y-81531000D03*
X311115200Y-81531000D03*
X305512100Y-141412900D03*
X40244200Y-142561200D03*
X350267700Y-109803500D03*
X347250500Y-111046700D03*
X344076100Y-118749500D03*
X346067800Y-122496000D03*
X319504000Y-73093400D03*
X324822900Y-151875100D03*
X335722600Y-99047800D03*
X334568800Y-154609800D03*
X273638000Y-149503800D03*
X298836700Y-149503800D03*
X310020900Y-80438300D03*
X354390100Y-77399200D03*
X326089600Y-77399200D03*
X227627100Y-67310100D03*
X207069700Y-145830300D03*
X351760400Y-100925300D03*
X330890100Y-69929200D03*
X263333800Y-63879500D03*
X256145700Y-104688100D03*
X159629600Y-110591700D03*
X148835900Y-154498900D03*
X346731000Y-103675100D03*
X341308000Y-105131300D03*
X351863400Y-64675400D03*
X342163400Y-154863800D03*
X329131700Y-54166500D03*
X319681800Y-55600500D03*
X322980900Y-154028900D03*
X326827800Y-155713600D03*
X348997500Y-12609900D03*
X319365100Y-13970000D03*
X278162100Y-144024700D03*
X320530300Y-144024700D03*
X240472800Y-31183200D03*
X205511700Y-107988500D03*
X168586400Y-111417100D03*
X150952200Y-154711396D03*
D21*
X173736000Y-154178000D03*
D22*
X154483300Y-33020000D03*
X356194300Y-129409100D03*
X262742900Y-113792000D03*
X264076900Y-60974900D03*
X145305800Y-86360000D03*
X25942200Y-58420000D03*
X297320800Y-127875500D03*
X295929000Y-117516600D03*
X257803700Y-128302500D03*
X257555200Y-113792000D03*
X210443900Y-60960000D03*
X176626400Y-129159000D03*
X101868100Y-113792000D03*
X81755500Y-113792000D03*
X22103500Y-128302500D03*
D21*
X211328000Y-153924000D03*
X185166000Y-116586000D03*
D22*
X287646300Y-57823400D03*
X19939000Y-156130500D03*
D21*
X178308000Y-154686000D03*
D24*
X23114000Y-160655000D02*
X23114000Y-152908000D01*
X362204000Y-160655000D02*
X362204000Y-156464000D01*
X362204000Y-156464000D02*
X361188000Y-155448000D01*
X361188000Y-155448000D02*
X358648000Y-155448000D01*
X358648000Y-155448000D02*
X357632000Y-154432000D01*
X357632000Y-154432000D02*
X357632000Y-143256000D01*
D25*
X152383400Y-110259900D02*
X154715600Y-110259900D01*
X154715600Y-110259900D02*
X157322000Y-112866300D01*
X157322000Y-112866300D02*
X183188200Y-112866300D01*
X145987400Y-115686400D02*
X145987400Y-115407000D01*
X145987400Y-115407000D02*
X146638100Y-114756300D01*
X144526700Y-110358800D02*
X141786300Y-110358800D01*
X121920000Y-118999000D02*
X123395300Y-118999000D01*
X141501300Y-119067900D02*
X123464200Y-119067900D01*
X123464200Y-119067900D02*
X123395300Y-118999000D01*
X208000500Y-112265000D02*
X211996400Y-108269100D01*
X211996400Y-108269100D02*
X236080800Y-108269100D01*
X236080800Y-108269100D02*
X236631000Y-107718900D01*
X236631000Y-107718900D02*
X264016600Y-107718900D01*
X264016600Y-107718900D02*
X267932400Y-111634700D01*
X267932400Y-111634700D02*
X270895800Y-111634700D01*
X43957300Y-110405300D02*
X80265000Y-110405300D01*
X80265000Y-110405300D02*
X80550300Y-110690600D01*
X80550300Y-110690600D02*
X90660100Y-110690600D01*
X339852000Y-139192000D02*
X297457500Y-139192000D01*
D24*
X339852000Y-139192000D02*
X341376000Y-140716000D01*
X341376000Y-140716000D02*
X366776000Y-140716000D01*
X366776000Y-140716000D02*
X368300000Y-139192000D01*
X368300000Y-139192000D02*
X368300000Y-137400000D01*
X339852000Y-137160000D02*
X339852000Y-139192000D01*
D25*
X269240000Y-118999000D02*
X290405300Y-118999000D01*
X91440000Y-118999000D02*
X109356300Y-118999000D01*
X207399200Y-112866300D02*
X208000500Y-112265000D01*
X183188200Y-112866300D02*
X207399200Y-112866300D01*
D26*
X96400700Y-150522200D02*
X96451000Y-150572500D01*
X96451000Y-150572500D02*
X98880600Y-150572500D01*
X98880600Y-150572500D02*
X99073900Y-150765800D01*
X99073900Y-150765800D02*
X120018300Y-150765800D01*
X120018300Y-150765800D02*
X120131100Y-150878600D01*
X120131100Y-150878600D02*
X132603600Y-150878600D01*
X132603600Y-150878600D02*
X138194700Y-156469700D01*
X138194700Y-156469700D02*
X140589000Y-156469700D01*
X140589000Y-160655000D02*
X140589000Y-156469700D01*
X88815300Y-136832800D02*
X60281300Y-136832800D01*
X60281300Y-136832800D02*
X57908600Y-134460100D01*
X33020000Y-121539000D02*
X50419000Y-121539000D01*
X25400000Y-126619000D02*
X26575300Y-126619000D01*
X26575300Y-126619000D02*
X26575300Y-126986300D01*
X26575300Y-126986300D02*
X33019300Y-133430300D01*
X33019300Y-133430300D02*
X59932700Y-133430300D01*
X83820000Y-99060000D02*
X82644700Y-99060000D01*
X67836800Y-98691100D02*
X82275800Y-98691100D01*
X82275800Y-98691100D02*
X82644700Y-99060000D01*
X89173000Y-151806300D02*
X89742700Y-151236600D01*
X89742700Y-151236600D02*
X98766400Y-151236600D01*
X98766400Y-151236600D02*
X98845900Y-151316100D01*
X98845900Y-151316100D02*
X119790300Y-151316100D01*
X119790300Y-151316100D02*
X119903100Y-151428900D01*
X119903100Y-151428900D02*
X132373200Y-151428900D01*
X132373200Y-151428900D02*
X137414000Y-156469700D01*
X81150200Y-130200400D02*
X81018200Y-130332400D01*
X81018200Y-130332400D02*
X65644500Y-130332400D01*
X65644500Y-130332400D02*
X65231300Y-130745600D01*
X65231300Y-130745600D02*
X60943200Y-130745600D01*
X60943200Y-130745600D02*
X59737600Y-129540000D01*
X59737600Y-129540000D02*
X55880000Y-129540000D01*
X34195300Y-124079000D02*
X35041200Y-124924900D01*
X35041200Y-124924900D02*
X51264900Y-124924900D01*
X137414000Y-160655000D02*
X137414000Y-156469700D01*
X33020000Y-124079000D02*
X34195300Y-124079000D01*
X350520000Y-124079000D02*
X352404500Y-124079000D01*
X352477300Y-128303900D02*
X357284900Y-128303900D01*
X357284900Y-128303900D02*
X358140000Y-129159000D01*
X300895300Y-129159000D02*
X301689700Y-128364600D01*
X301689700Y-128364600D02*
X323101600Y-128364600D01*
X323101600Y-128364600D02*
X323755400Y-127710800D01*
X323755400Y-127710800D02*
X326914300Y-127710800D01*
X326914300Y-127710800D02*
X328803700Y-125821400D01*
X328803700Y-125821400D02*
X344394300Y-125821400D01*
X344394300Y-125821400D02*
X346136700Y-124079000D01*
X346136700Y-124079000D02*
X350520000Y-124079000D01*
X159505000Y-80949100D02*
X158578000Y-80022100D01*
X158578000Y-80022100D02*
X144238200Y-80022100D01*
X144238200Y-80022100D02*
X142768500Y-78552400D01*
X142768500Y-78552400D02*
X142768500Y-78014600D01*
X299720000Y-129159000D02*
X300895300Y-129159000D01*
X123450000Y-130743000D02*
X169235800Y-130743000D01*
X169235800Y-130743000D02*
X172160500Y-127818300D01*
X172160500Y-127818300D02*
X179164700Y-127818300D01*
X179164700Y-127818300D02*
X179164700Y-125443600D01*
X179164700Y-129159000D02*
X179164700Y-127818300D01*
X81107300Y-125616400D02*
X81056200Y-125667500D01*
X81056200Y-125667500D02*
X37686800Y-125667500D01*
X37686800Y-125667500D02*
X34195300Y-129159000D01*
X210820000Y-129159000D02*
X211995300Y-129159000D01*
X266614400Y-127708700D02*
X266528700Y-127794400D01*
X266528700Y-127794400D02*
X260687500Y-127794400D01*
X260687500Y-127794400D02*
X260310600Y-127417500D01*
X260310600Y-127417500D02*
X245498000Y-127417500D01*
X245498000Y-127417500D02*
X242162300Y-130753200D01*
X242162300Y-130753200D02*
X213589500Y-130753200D01*
X213589500Y-130753200D02*
X211995300Y-129159000D01*
X266614400Y-127582300D02*
X266614400Y-127708700D01*
X268064700Y-129159000D02*
X266614400Y-127708700D01*
X266614400Y-127582300D02*
X268786700Y-125410000D01*
X268786700Y-125410000D02*
X289593700Y-125410000D01*
X289593700Y-125410000D02*
X290924700Y-124079000D01*
X261620000Y-124079000D02*
X263111100Y-124079000D01*
X263111100Y-124079000D02*
X266614400Y-127582300D01*
X292100000Y-124079000D02*
X290924700Y-124079000D01*
X269240000Y-129159000D02*
X268064700Y-129159000D01*
X179164700Y-125443600D02*
X200660100Y-125443600D01*
X200660100Y-125443600D02*
X202024700Y-124079000D01*
X172720000Y-124079000D02*
X177800100Y-124079000D01*
X177800100Y-124079000D02*
X179164700Y-125443600D01*
X203200000Y-124079000D02*
X202024700Y-124079000D01*
X180340000Y-129159000D02*
X179164700Y-129159000D01*
X121332400Y-129159000D02*
X121920000Y-129159000D01*
X121332400Y-129159000D02*
X120744700Y-129159000D01*
X120744700Y-129159000D02*
X115664700Y-124079000D01*
X115664700Y-124079000D02*
X114300000Y-124079000D01*
X91440000Y-129159000D02*
X92615300Y-129159000D01*
X92615300Y-129159000D02*
X97695300Y-124079000D01*
X97695300Y-124079000D02*
X114300000Y-124079000D01*
X90852400Y-129159000D02*
X91440000Y-129159000D01*
X90852400Y-129159000D02*
X90264700Y-129159000D01*
X81107300Y-125616400D02*
X82644700Y-124079000D01*
X90264700Y-129159000D02*
X88900200Y-127794500D01*
X88900200Y-127794500D02*
X83285400Y-127794500D01*
X83285400Y-127794500D02*
X81107300Y-125616400D01*
X83820000Y-124079000D02*
X82644700Y-124079000D01*
X33020000Y-129159000D02*
X34195300Y-129159000D01*
X91295700Y-153715100D02*
X91424900Y-153585900D01*
X91424900Y-153585900D02*
X99285600Y-153585900D01*
X99285600Y-153585900D02*
X99467100Y-153767400D01*
X99467100Y-153767400D02*
X106136700Y-153767400D01*
X106136700Y-153767400D02*
X108839000Y-156469700D01*
X62324700Y-129540000D02*
X61149400Y-128364700D01*
X61149400Y-128364700D02*
X38548000Y-128364700D01*
X38548000Y-128364700D02*
X37850500Y-127667200D01*
X63500000Y-129540000D02*
X80434200Y-129540000D01*
X63500000Y-129540000D02*
X62324700Y-129540000D01*
X108839000Y-160655000D02*
X108839000Y-156469700D01*
X80252900Y-93980000D02*
X83820000Y-93980000D01*
X64008400Y-94595200D02*
X64623600Y-93980000D01*
X64623600Y-93980000D02*
X80252900Y-93980000D01*
X80252900Y-93980000D02*
X80252900Y-92821000D01*
X83820000Y-68580000D02*
X82644700Y-68580000D01*
X81235800Y-68685400D02*
X82539300Y-68685400D01*
X82539300Y-68685400D02*
X82644700Y-68580000D01*
X33020000Y-131699000D02*
X37541100Y-131699000D01*
X90237000Y-151911900D02*
X91360700Y-153035600D01*
X91360700Y-153035600D02*
X99513600Y-153035600D01*
X99513600Y-153035600D02*
X99695100Y-153217100D01*
X99695100Y-153217100D02*
X108761400Y-153217100D01*
X108761400Y-153217100D02*
X112014000Y-156469700D01*
X26575300Y-116459000D02*
X26575300Y-116826300D01*
X26575300Y-116826300D02*
X32606900Y-122857900D01*
X32606900Y-122857900D02*
X47708000Y-122857900D01*
X47708000Y-122857900D02*
X48031200Y-123181100D01*
X25400000Y-116459000D02*
X26575300Y-116459000D01*
X57180000Y-131080400D02*
X60224400Y-131080400D01*
X60224400Y-131080400D02*
X61224000Y-132080000D01*
X61224000Y-132080000D02*
X63500000Y-132080000D01*
X64675300Y-132080000D02*
X65872500Y-130882800D01*
X65872500Y-130882800D02*
X81906900Y-130882800D01*
X112014000Y-160655000D02*
X112014000Y-156469700D01*
X63500000Y-132080000D02*
X64675300Y-132080000D01*
X63500000Y-76200000D02*
X62324700Y-76200000D01*
X58890200Y-75837500D02*
X61962200Y-75837500D01*
X61962200Y-75837500D02*
X62324700Y-76200000D01*
X64675300Y-76200000D02*
X68516300Y-80041000D01*
X68516300Y-80041000D02*
X107795000Y-80041000D01*
X107795000Y-80041000D02*
X107932600Y-79903400D01*
X63500000Y-76200000D02*
X64675300Y-76200000D01*
X155014500Y-138497300D02*
X154611400Y-138900400D01*
X154611400Y-138900400D02*
X150336000Y-138900400D01*
X143830400Y-138216500D02*
X142916600Y-137302700D01*
X142916600Y-137302700D02*
X136932064Y-137302700D01*
X136932064Y-137302700D02*
X136507800Y-137302700D01*
X155127200Y-138497300D02*
X155014500Y-138497300D01*
X149652100Y-138216500D02*
X143830400Y-138216500D01*
X150336000Y-138900400D02*
X149652100Y-138216500D01*
X198941401Y-137696900D02*
X155927600Y-137696900D01*
X199452801Y-138208300D02*
X198941401Y-137696900D01*
X245193936Y-138208300D02*
X199452801Y-138208300D01*
X245320536Y-138081700D02*
X245193936Y-138208300D01*
X155927600Y-137696900D02*
X155127200Y-138497300D01*
X245744800Y-138081700D02*
X245320536Y-138081700D01*
X33020000Y-93980000D02*
X52019500Y-93980000D01*
X52019500Y-93980000D02*
X53194900Y-95155400D01*
X53194900Y-95155400D02*
X58638900Y-95155400D01*
X58638900Y-95155400D02*
X61273600Y-97790100D01*
X61273600Y-97790100D02*
X64044700Y-97790100D01*
X64044700Y-97790100D02*
X66503200Y-100248600D01*
X66503200Y-100248600D02*
X115742900Y-100248600D01*
X115742900Y-100248600D02*
X115986900Y-100004600D01*
X205501200Y-142941900D02*
X199242436Y-142941900D01*
X141601600Y-143169200D02*
X141393800Y-142961400D01*
X206639600Y-143020600D02*
X206310800Y-142691800D01*
X177058564Y-142941900D02*
X157687300Y-142941900D01*
X156663400Y-143853100D02*
X147833600Y-143853100D01*
X233030100Y-143020600D02*
X206639600Y-143020600D01*
X177072710Y-142956046D02*
X177058564Y-142941900D01*
X206310800Y-142691800D02*
X205751300Y-142691800D01*
X157179200Y-143450000D02*
X157066500Y-143450000D01*
X147833600Y-143853100D02*
X147149700Y-143169200D01*
X205751300Y-142691800D02*
X205501200Y-142941900D01*
X199242436Y-142941900D02*
X199228290Y-142956046D01*
X157066500Y-143450000D02*
X156663400Y-143853100D01*
X157687300Y-142941900D02*
X157179200Y-143450000D01*
X147149700Y-143169200D02*
X141601600Y-143169200D01*
X199228290Y-142956046D02*
X177072710Y-142956046D01*
X83435000Y-109528700D02*
X83348800Y-109442500D01*
X83348800Y-109442500D02*
X35591800Y-109442500D01*
X238379000Y-160655000D02*
X238379000Y-156469700D01*
X238379000Y-156469700D02*
X232979100Y-151069800D01*
X232979100Y-151069800D02*
X227388700Y-151069800D01*
X220543300Y-149245300D02*
X220727800Y-149429800D01*
X203116031Y-149245300D02*
X220543300Y-149245300D01*
X202429531Y-149931800D02*
X203116031Y-149245300D01*
X164468935Y-149931800D02*
X202429531Y-149931800D01*
X162774835Y-151625900D02*
X164468935Y-149931800D01*
X157662700Y-151625900D02*
X162774835Y-151625900D01*
X157659100Y-151622300D02*
X157662700Y-151625900D01*
X139870900Y-151622300D02*
X157659100Y-151622300D01*
X137363500Y-149114900D02*
X139870900Y-151622300D01*
X133953100Y-149114900D02*
X137363500Y-149114900D01*
X133515600Y-148677400D02*
X133953100Y-149114900D01*
X121043100Y-148677400D02*
X133515600Y-148677400D01*
X120930300Y-148564600D02*
X121043100Y-148677400D01*
X99986100Y-148564600D02*
X120930300Y-148564600D01*
X99435800Y-148014300D02*
X99986100Y-148564600D01*
X95614100Y-148014300D02*
X99435800Y-148014300D01*
X95232500Y-148395900D02*
X95614100Y-148014300D01*
X131428800Y-108851900D02*
X59033000Y-108851900D01*
X59033000Y-108851900D02*
X57806300Y-107625200D01*
X57806300Y-107625200D02*
X57806300Y-107050100D01*
X57806300Y-107050100D02*
X58169800Y-106686600D01*
X58169800Y-106686600D02*
X59026900Y-106686600D01*
X37475500Y-95577200D02*
X52838300Y-95577200D01*
X52838300Y-95577200D02*
X53781100Y-96520000D01*
X54368800Y-96520000D02*
X54956400Y-96520000D01*
X54368800Y-96520000D02*
X53781100Y-96520000D01*
X157282400Y-145569000D02*
X157529000Y-145322400D01*
X157529000Y-145322400D02*
X160758400Y-145322400D01*
X162038300Y-144042500D02*
X176603498Y-144042500D01*
X146413900Y-144945100D02*
X147037800Y-145569000D01*
X147037800Y-145569000D02*
X157282400Y-145569000D01*
X160758400Y-145322400D02*
X162038300Y-144042500D01*
X219965536Y-144042500D02*
X220389800Y-144042500D01*
X199697502Y-144042500D02*
X219965536Y-144042500D01*
X176617066Y-144056068D02*
X199683934Y-144056068D01*
X199683934Y-144056068D02*
X199697502Y-144042500D01*
X176603498Y-144042500D02*
X176617066Y-144056068D01*
X62576400Y-95155300D02*
X62764900Y-95343800D01*
X62764900Y-95343800D02*
X95530500Y-95343800D01*
X62576400Y-93980000D02*
X62576400Y-95155300D01*
X62576400Y-93980000D02*
X61401100Y-93980000D01*
X25400000Y-96520000D02*
X25400000Y-95344700D01*
X25400000Y-95344700D02*
X25032700Y-95344700D01*
X25032700Y-95344700D02*
X24192200Y-94504200D01*
X24192200Y-94504200D02*
X24192200Y-93492800D01*
X24192200Y-93492800D02*
X24941800Y-92743200D01*
X24941800Y-92743200D02*
X60164300Y-92743200D01*
X60164300Y-92743200D02*
X61401100Y-93980000D01*
X121261200Y-147338900D02*
X121499100Y-147576800D01*
X133971600Y-147576800D02*
X134409100Y-148014300D01*
X228854000Y-156495000D02*
X228854000Y-160655000D01*
X220211400Y-147852400D02*
X228854000Y-156495000D01*
X205461600Y-147852400D02*
X220211400Y-147852400D01*
X205169300Y-148144700D02*
X205461600Y-147852400D01*
X202660965Y-148144700D02*
X205169300Y-148144700D01*
X201974465Y-148831200D02*
X202660965Y-148144700D01*
X164013869Y-148831200D02*
X201974465Y-148831200D01*
X162319769Y-150525300D02*
X164013869Y-148831200D01*
X158118700Y-150525300D02*
X162319769Y-150525300D01*
X158115100Y-150521700D02*
X158118700Y-150525300D01*
X140326900Y-150521700D02*
X158115100Y-150521700D01*
X137819500Y-148014300D02*
X140326900Y-150521700D01*
X134409100Y-148014300D02*
X137819500Y-148014300D01*
X121499100Y-147576800D02*
X133971600Y-147576800D01*
X101344300Y-147338900D02*
X121261200Y-147338900D01*
X64822800Y-107979300D02*
X82840700Y-107979300D01*
X82840700Y-107979300D02*
X82992700Y-108131300D01*
X61401100Y-101600000D02*
X60090800Y-100289700D01*
X60090800Y-100289700D02*
X32517700Y-100289700D01*
X32517700Y-100289700D02*
X26575300Y-94347300D01*
X26575300Y-94347300D02*
X26575300Y-93980000D01*
X62576400Y-101600000D02*
X61401100Y-101600000D01*
X25400000Y-93980000D02*
X26575300Y-93980000D01*
X99276400Y-148633400D02*
X99757900Y-149114900D01*
X96537500Y-148702200D02*
X96961764Y-148702200D01*
X220138600Y-149795600D02*
X220448100Y-150105100D01*
X120702300Y-149114900D02*
X120815100Y-149227700D01*
X97030564Y-148633400D02*
X99276400Y-148633400D01*
X220760336Y-150105100D02*
X221184600Y-150105100D01*
X220448100Y-150105100D02*
X220760336Y-150105100D01*
X203343564Y-149795600D02*
X220138600Y-149795600D01*
X202657064Y-150482100D02*
X203343564Y-149795600D01*
X164696468Y-150482100D02*
X202657064Y-150482100D01*
X163002368Y-152176200D02*
X164696468Y-150482100D01*
X157434700Y-152176200D02*
X163002368Y-152176200D01*
X157431100Y-152172600D02*
X157434700Y-152176200D01*
X139642900Y-152172600D02*
X157431100Y-152172600D01*
X137135500Y-149665200D02*
X139642900Y-152172600D01*
X133287600Y-149227700D02*
X133725100Y-149665200D01*
X99757900Y-149114900D02*
X120702300Y-149114900D01*
X96961764Y-148702200D02*
X97030564Y-148633400D01*
X133725100Y-149665200D02*
X137135500Y-149665200D01*
X120815100Y-149227700D02*
X133287600Y-149227700D01*
X242207000Y-136381200D02*
X233036100Y-136381200D01*
X233036100Y-136381200D02*
X232496300Y-136921000D01*
X232496300Y-136921000D02*
X225602700Y-136921000D01*
X225602700Y-136921000D02*
X224727700Y-136046000D01*
X224727700Y-136046000D02*
X155243600Y-136046000D01*
X155243600Y-136046000D02*
X154443200Y-136846400D01*
X154443200Y-136846400D02*
X154330500Y-136846400D01*
X154330500Y-136846400D02*
X154177500Y-136999400D01*
X154177500Y-136999400D02*
X144430700Y-136999400D01*
X144430700Y-136999400D02*
X142517300Y-135086000D01*
X142517300Y-135086000D02*
X137734100Y-135086000D01*
X109966600Y-69755300D02*
X63500000Y-69755300D01*
X29873500Y-68352200D02*
X30836300Y-67389400D01*
X30836300Y-67389400D02*
X56643100Y-67389400D01*
X56643100Y-67389400D02*
X57833700Y-68580000D01*
X57833700Y-68580000D02*
X63500000Y-68580000D01*
X63500000Y-68580000D02*
X63500000Y-69755300D01*
X56131700Y-88900000D02*
X57472400Y-90240700D01*
X57472400Y-90240700D02*
X80222500Y-90240700D01*
X54956400Y-88900000D02*
X56131700Y-88900000D01*
X54368800Y-88900000D02*
X54956400Y-88900000D01*
X54368800Y-88900000D02*
X53781100Y-88900000D01*
X25400000Y-88900000D02*
X26575300Y-88900000D01*
X26575300Y-88900000D02*
X27916000Y-90240700D01*
X27916000Y-90240700D02*
X52440400Y-90240700D01*
X52440400Y-90240700D02*
X53781100Y-88900000D01*
X141238900Y-148320500D02*
X159027100Y-148320500D01*
X161409637Y-148324100D02*
X163228737Y-146505000D01*
X138731500Y-145813100D02*
X141238900Y-148320500D01*
X159027100Y-148320500D02*
X159030700Y-148324100D01*
X159030700Y-148324100D02*
X161409637Y-148324100D01*
X198457734Y-146505000D02*
X198881998Y-146505000D01*
X163228737Y-146505000D02*
X198457734Y-146505000D01*
X134883600Y-145375600D02*
X135321100Y-145813100D01*
X135321100Y-145813100D02*
X138731500Y-145813100D01*
X122048200Y-145012700D02*
X122411100Y-145375600D01*
X81350964Y-145012700D02*
X122048200Y-145012700D01*
X122411100Y-145375600D02*
X134883600Y-145375600D01*
X81162564Y-144824300D02*
X81350964Y-145012700D01*
X80738300Y-144824300D02*
X81162564Y-144824300D01*
X222504000Y-154279600D02*
X222504000Y-160655000D01*
X221100650Y-152876250D02*
X222504000Y-154279600D01*
X217582750Y-152876250D02*
X221100650Y-152876250D01*
X204660500Y-151574500D02*
X216281000Y-151574500D01*
X216281000Y-151574500D02*
X217582750Y-152876250D01*
X28752800Y-155194000D02*
X27889200Y-155194000D01*
X29464000Y-160655000D02*
X29464000Y-155905200D01*
X29464000Y-155905200D02*
X28752800Y-155194000D01*
X26575300Y-76200000D02*
X30298700Y-79923400D01*
X30298700Y-79923400D02*
X46908800Y-79923400D01*
X46908800Y-79923400D02*
X49374500Y-77457700D01*
X49374500Y-77457700D02*
X60464300Y-77457700D01*
X60464300Y-77457700D02*
X64655200Y-81648600D01*
X64655200Y-81648600D02*
X155265900Y-81648600D01*
X25400000Y-76200000D02*
X26575300Y-76200000D01*
X261620000Y-99060000D02*
X260444700Y-99060000D01*
X231140000Y-99060000D02*
X232315300Y-99060000D01*
X232315300Y-99060000D02*
X233505900Y-100250600D01*
X233505900Y-100250600D02*
X259254100Y-100250600D01*
X259254100Y-100250600D02*
X260444700Y-99060000D01*
X229870000Y-72390000D02*
X178943000Y-72390000D01*
X231140000Y-73660000D02*
X229870000Y-72390000D01*
X178353999Y-71800999D02*
X178054000Y-71501000D01*
X178943000Y-72390000D02*
X178353999Y-71800999D01*
X72218000Y-71515900D02*
X65679000Y-71515900D01*
X65679000Y-71515900D02*
X64891900Y-72303000D01*
X64891900Y-72303000D02*
X35378300Y-72303000D01*
X35378300Y-72303000D02*
X34195300Y-71120000D01*
X33020000Y-71120000D02*
X34195300Y-71120000D01*
X35895800Y-78740000D02*
X33020000Y-78740000D01*
X93901700Y-52053600D02*
X115758000Y-52053600D01*
X91440000Y-53340000D02*
X90264700Y-53340000D01*
X90264700Y-53340000D02*
X88989300Y-52064600D01*
X88989300Y-52064600D02*
X83291700Y-52064600D01*
X83291700Y-52064600D02*
X82016300Y-53340000D01*
X82016300Y-53340000D02*
X63500000Y-53340000D01*
X92027700Y-53340000D02*
X91440000Y-53340000D01*
X92027700Y-53340000D02*
X92615300Y-53340000D01*
X93901700Y-52053600D02*
X92615300Y-53340000D01*
X93901700Y-52053600D02*
X93901700Y-48981600D01*
X93901700Y-48981600D02*
X92004700Y-47084600D01*
X92004700Y-47084600D02*
X91142300Y-47084600D01*
X91142300Y-47084600D02*
X89777700Y-45720000D01*
X89777700Y-45720000D02*
X83820000Y-45720000D01*
X121920000Y-53340000D02*
X117044400Y-53340000D01*
X117044400Y-53340000D02*
X115758000Y-52053600D01*
X25400000Y-71120000D02*
X25400000Y-72295300D01*
X33020000Y-78740000D02*
X31844700Y-78740000D01*
X31844700Y-78740000D02*
X31844700Y-78374700D01*
X31844700Y-78374700D02*
X25765300Y-72295300D01*
X25765300Y-72295300D02*
X25400000Y-72295300D01*
X196182700Y-64864700D02*
X133444700Y-64864700D01*
X203200000Y-66040000D02*
X197358000Y-66040000D01*
X197358000Y-66040000D02*
X196182700Y-64864700D01*
X25501600Y-155549600D02*
X24739600Y-155549600D01*
X26289000Y-160655000D02*
X26289000Y-156337000D01*
X26289000Y-156337000D02*
X25501600Y-155549600D01*
X39251200Y-84684900D02*
X39682100Y-85115800D01*
X39682100Y-85115800D02*
X288987500Y-85115800D01*
X33020000Y-74930000D02*
X34997800Y-74930000D01*
X33020000Y-74930000D02*
X33020000Y-73660000D01*
X33020000Y-76200000D02*
X33020000Y-74930000D01*
X346143800Y-102964600D02*
X328800500Y-102964600D01*
X328800500Y-102964600D02*
X326341600Y-105423500D01*
X326341600Y-105423500D02*
X321011900Y-105423500D01*
X321011900Y-105423500D02*
X320317300Y-104728900D01*
X320317300Y-104728900D02*
X312826100Y-104728900D01*
X312826100Y-104728900D02*
X312187100Y-105367900D01*
X312187100Y-105367900D02*
X298034200Y-105367900D01*
X298034200Y-105367900D02*
X297820300Y-105154000D01*
X25400000Y-63500000D02*
X26575300Y-63500000D01*
X76032800Y-63283200D02*
X66362400Y-63283200D01*
X66362400Y-63283200D02*
X64866300Y-64779300D01*
X64866300Y-64779300D02*
X27854600Y-64779300D01*
X27854600Y-64779300D02*
X26575300Y-63500000D01*
X77089000Y-160655000D02*
X77089000Y-156423200D01*
X77089000Y-156423200D02*
X78272201Y-155239999D01*
X78272201Y-155239999D02*
X78572200Y-154940000D01*
X85820600Y-55542900D02*
X85965200Y-55687500D01*
X85965200Y-55687500D02*
X121821700Y-55687500D01*
X124114500Y-57479700D02*
X240278100Y-57479700D01*
X240278100Y-57479700D02*
X241324600Y-58526200D01*
X82644700Y-50800000D02*
X81459100Y-51985600D01*
X81459100Y-51985600D02*
X30300900Y-51985600D01*
X30300900Y-51985600D02*
X26575300Y-48260000D01*
X269240000Y-99060000D02*
X268064700Y-99060000D01*
X238760000Y-99060000D02*
X239935300Y-99060000D01*
X239935300Y-99060000D02*
X241125900Y-97869400D01*
X241125900Y-97869400D02*
X266874100Y-97869400D01*
X266874100Y-97869400D02*
X268064700Y-99060000D01*
X83820000Y-50800000D02*
X82644700Y-50800000D01*
X25400000Y-48260000D02*
X26575300Y-48260000D01*
X292100000Y-91440000D02*
X282769500Y-91440000D01*
X282769500Y-91440000D02*
X281701800Y-90372300D01*
X79152300Y-47503700D02*
X78396000Y-48260000D01*
X78396000Y-48260000D02*
X63500000Y-48260000D01*
X292687700Y-91440000D02*
X292100000Y-91440000D01*
X292687700Y-91440000D02*
X293275300Y-91440000D01*
X350520000Y-91440000D02*
X349344700Y-91440000D01*
X349344700Y-91440000D02*
X348145400Y-90240700D01*
X348145400Y-90240700D02*
X294474600Y-90240700D01*
X294474600Y-90240700D02*
X293275300Y-91440000D01*
X132001600Y-28653400D02*
X87229300Y-28653400D01*
X255528400Y-21763800D02*
X138891200Y-21763800D01*
X138891200Y-21763800D02*
X132001600Y-28653400D01*
X62912400Y-48260000D02*
X63500000Y-48260000D01*
X62324700Y-48260000D02*
X62912400Y-48260000D01*
X61134100Y-49450600D02*
X62324700Y-48260000D01*
X25400000Y-43180000D02*
X31670600Y-49450600D01*
X31670600Y-49450600D02*
X61134100Y-49450600D01*
X82621300Y-46827200D02*
X82621300Y-45205700D01*
X82621300Y-45205700D02*
X83282400Y-44544600D01*
X83282400Y-44544600D02*
X147575800Y-44544600D01*
X147575800Y-44544600D02*
X149926600Y-46895400D01*
X149926600Y-46895400D02*
X158944800Y-46895400D01*
X158944800Y-46895400D02*
X161300500Y-44539700D01*
X161300500Y-44539700D02*
X226529500Y-44539700D01*
X226529500Y-44539700D02*
X229103300Y-41965900D01*
X229103300Y-41965900D02*
X277537500Y-41965900D01*
X90264700Y-48260000D02*
X88900000Y-46895300D01*
X88900000Y-46895300D02*
X82689400Y-46895300D01*
X82689400Y-46895300D02*
X82621300Y-46827200D01*
X82621300Y-46827200D02*
X78873800Y-46827200D01*
X78873800Y-46827200D02*
X78805700Y-46895300D01*
X78805700Y-46895300D02*
X35370600Y-46895300D01*
X35370600Y-46895300D02*
X34195300Y-45720000D01*
X302769600Y-97884700D02*
X302070600Y-97884700D01*
X302070600Y-97884700D02*
X300895300Y-99060000D01*
X356964700Y-99060000D02*
X355774700Y-100250000D01*
X355774700Y-100250000D02*
X326507000Y-100250000D01*
X326507000Y-100250000D02*
X324141700Y-97884700D01*
X324141700Y-97884700D02*
X302769600Y-97884700D01*
X299720000Y-99060000D02*
X300895300Y-99060000D01*
X358140000Y-99060000D02*
X356964700Y-99060000D01*
X91440000Y-48260000D02*
X90264700Y-48260000D01*
X33020000Y-45720000D02*
X34195300Y-45720000D01*
X61787900Y-56238000D02*
X115935100Y-56238000D01*
X115935100Y-56238000D02*
X119392500Y-59695400D01*
X119392500Y-59695400D02*
X203371000Y-59695400D01*
X214456700Y-66040000D02*
X231140000Y-66040000D01*
X261620000Y-91440000D02*
X260444700Y-91440000D01*
X231140000Y-91440000D02*
X232315300Y-91440000D01*
X232315300Y-91440000D02*
X233527100Y-92651800D01*
X233527100Y-92651800D02*
X259232900Y-92651800D01*
X259232900Y-92651800D02*
X260444700Y-91440000D01*
X33020000Y-50800000D02*
X55880000Y-50800000D01*
X320852000Y-10036000D02*
X345281100Y-10036000D01*
X345281100Y-10036000D02*
X349135700Y-13890600D01*
X349135700Y-13890600D02*
X355774100Y-13890600D01*
X355774100Y-13890600D02*
X356964700Y-12700000D01*
X34195300Y-12700000D02*
X37910700Y-8984600D01*
X319800600Y-8984600D02*
X320852000Y-10036000D01*
X358140000Y-12700000D02*
X356964700Y-12700000D01*
X33020000Y-12700000D02*
X34195300Y-12700000D01*
X319800600Y-8984600D02*
X319753600Y-8984600D01*
X319753600Y-8984600D02*
X314833000Y-4064000D01*
X276922200Y-4064000D02*
X272001600Y-8984600D01*
X314833000Y-4064000D02*
X276922200Y-4064000D01*
X37910700Y-8984600D02*
X272001600Y-8984600D01*
X318906300Y-154549700D02*
X318906300Y-152220000D01*
X317779400Y-155676600D02*
X318906300Y-154549700D01*
X317754000Y-160655000D02*
X317779400Y-160629600D01*
X317779400Y-160629600D02*
X317779400Y-155676600D01*
X347429800Y-16430600D02*
X355774100Y-16430600D01*
X355774100Y-16430600D02*
X356964700Y-15240000D01*
X358140000Y-15240000D02*
X356964700Y-15240000D01*
X321135400Y-16430600D02*
X347429800Y-16430600D01*
X319960600Y-16430600D02*
X321135400Y-16430600D01*
X34195300Y-15240000D02*
X35385900Y-16430600D01*
X33020000Y-15240000D02*
X34195300Y-15240000D01*
X35385900Y-16430600D02*
X271319600Y-16430600D01*
X271319600Y-16430600D02*
X280638200Y-7112000D01*
X280638200Y-7112000D02*
X310642000Y-7112000D01*
X310642000Y-7112000D02*
X319960600Y-16430600D01*
X355854000Y-160655000D02*
X355854000Y-154431996D01*
X355854000Y-154431996D02*
X355828604Y-154406600D01*
X91472400Y-154541400D02*
X91877600Y-154136200D01*
X91877600Y-154136200D02*
X99057600Y-154136200D01*
X99057600Y-154136200D02*
X99239100Y-154317700D01*
X99239100Y-154317700D02*
X103512000Y-154317700D01*
X103512000Y-154317700D02*
X105664000Y-156469700D01*
X105664000Y-160655000D02*
X105664000Y-156469700D01*
X25400000Y-17780000D02*
X26575300Y-17780000D01*
X26575300Y-17780000D02*
X27881200Y-19085900D01*
X27881200Y-19085900D02*
X126788000Y-19085900D01*
X131189704Y-27941300D02*
X132415001Y-26716003D01*
X132415001Y-26716003D02*
X132715000Y-26416004D01*
X43191200Y-27941300D02*
X131189704Y-27941300D01*
X83820000Y-118999000D02*
X82644700Y-118999000D01*
X82644700Y-118999000D02*
X79723700Y-121920000D01*
X79723700Y-121920000D02*
X63500000Y-121920000D01*
X90369800Y-154809600D02*
X90369800Y-153410100D01*
X91135200Y-155575000D02*
X92405200Y-155575000D01*
X91135200Y-155575000D02*
X90369800Y-154809600D01*
X92964000Y-156133800D02*
X92964000Y-160655000D01*
X92405200Y-155575000D02*
X92964000Y-156133800D01*
X83820000Y-116459000D02*
X82644700Y-116459000D01*
X82644700Y-116459000D02*
X79723700Y-119380000D01*
X79723700Y-119380000D02*
X63500000Y-119380000D01*
X94960700Y-154811500D02*
X92571600Y-154811500D01*
X96139000Y-155989800D02*
X94960700Y-154811500D01*
X96393000Y-160655000D02*
X96139000Y-160401000D01*
X96139000Y-160401000D02*
X96139000Y-155989800D01*
X98621600Y-151991500D02*
X98746700Y-151866400D01*
X98746700Y-151866400D02*
X116935700Y-151866400D01*
X116935700Y-151866400D02*
X121539000Y-156469700D01*
X121539000Y-160655000D02*
X121539000Y-156469700D01*
X55880000Y-119380000D02*
X57055300Y-119380000D01*
X91440000Y-124079000D02*
X90264700Y-124079000D01*
X90264700Y-124079000D02*
X88994700Y-122809000D01*
X88994700Y-122809000D02*
X83427700Y-122809000D01*
X83427700Y-122809000D02*
X83046700Y-123190000D01*
X83046700Y-123190000D02*
X60865300Y-123190000D01*
X60865300Y-123190000D02*
X57055300Y-119380000D01*
X99974800Y-152541800D02*
X111261100Y-152541800D01*
X111261100Y-152541800D02*
X115189000Y-156469700D01*
X55880000Y-116840000D02*
X57055300Y-116840000D01*
X91440000Y-121539000D02*
X90264700Y-121539000D01*
X90264700Y-121539000D02*
X86512800Y-117787100D01*
X86512800Y-117787100D02*
X82861900Y-117787100D01*
X82861900Y-117787100D02*
X80055900Y-120593100D01*
X80055900Y-120593100D02*
X60808400Y-120593100D01*
X60808400Y-120593100D02*
X57055300Y-116840000D01*
X115189000Y-160655000D02*
X115189000Y-156469700D01*
X338765600Y-36796700D02*
X338713600Y-36848700D01*
X338713600Y-36848700D02*
X327997600Y-36848700D01*
X327997600Y-36848700D02*
X325533500Y-34384600D01*
X325533500Y-34384600D02*
X304266300Y-34384600D01*
X304266300Y-34384600D02*
X301790000Y-36860900D01*
X301790000Y-36860900D02*
X156284700Y-36860900D01*
X156284700Y-36860900D02*
X153736400Y-39409200D01*
X153736400Y-39409200D02*
X104927600Y-39409200D01*
X338765600Y-36796700D02*
X348041400Y-36796700D01*
X348041400Y-36796700D02*
X349344700Y-38100000D01*
X90264700Y-66040000D02*
X89079100Y-64854400D01*
X89079100Y-64854400D02*
X65860900Y-64854400D01*
X65860900Y-64854400D02*
X64675300Y-66040000D01*
X350520000Y-38100000D02*
X349344700Y-38100000D01*
X63500000Y-66040000D02*
X64675300Y-66040000D01*
X91440000Y-66040000D02*
X90264700Y-66040000D01*
X306187500Y-106131800D02*
X306579800Y-106524100D01*
X306579800Y-106524100D02*
X344837100Y-106524100D01*
X344837100Y-106524100D02*
X349344700Y-102016500D01*
X349344700Y-102016500D02*
X349344700Y-101600000D01*
X269240000Y-104140000D02*
X287768200Y-104140000D01*
X287768200Y-104140000D02*
X289108900Y-102799300D01*
X289108900Y-102799300D02*
X293696200Y-102799300D01*
X293696200Y-102799300D02*
X297028700Y-106131800D01*
X297028700Y-106131800D02*
X306187500Y-106131800D01*
X350520000Y-101600000D02*
X353060000Y-104140000D01*
X353060000Y-104140000D02*
X358140000Y-104140000D01*
X350520000Y-101600000D02*
X349344700Y-101600000D01*
X350520000Y-93980000D02*
X351695300Y-93980000D01*
X351695300Y-93980000D02*
X354235300Y-96520000D01*
X354235300Y-96520000D02*
X358140000Y-96520000D01*
X269240000Y-96520000D02*
X268064700Y-96520000D01*
X268064700Y-96520000D02*
X265524700Y-93980000D01*
X265524700Y-93980000D02*
X261620000Y-93980000D01*
X115475300Y-101600000D02*
X115643400Y-101431900D01*
X115643400Y-101431900D02*
X120611200Y-101431900D01*
X114300000Y-101600000D02*
X115475300Y-101600000D01*
X113124700Y-101600000D02*
X112306800Y-102417900D01*
X112306800Y-102417900D02*
X101181500Y-102417900D01*
X101181500Y-102417900D02*
X100800100Y-102799300D01*
X100800100Y-102799300D02*
X65092400Y-102799300D01*
X65092400Y-102799300D02*
X63751700Y-104140000D01*
X54956400Y-101600000D02*
X56131700Y-101600000D01*
X56131700Y-101600000D02*
X58671700Y-104140000D01*
X58671700Y-104140000D02*
X61988800Y-104140000D01*
X114300000Y-101600000D02*
X113124700Y-101600000D01*
X62576400Y-104140000D02*
X63751700Y-104140000D01*
X61988800Y-104140000D02*
X62576400Y-104140000D01*
X259430400Y-103991200D02*
X260504700Y-105065500D01*
X240809000Y-103991200D02*
X259430400Y-103991200D01*
X238575500Y-106224700D02*
X240809000Y-103991200D01*
X134813500Y-107911100D02*
X203365900Y-107911100D01*
X130723100Y-112001500D02*
X134813500Y-107911100D01*
X203365900Y-107911100D02*
X204683600Y-106593400D01*
X204683600Y-106593400D02*
X235500700Y-106593400D01*
X235500700Y-106593400D02*
X235869400Y-106224700D01*
X235869400Y-106224700D02*
X238575500Y-106224700D01*
X84995300Y-73660000D02*
X86359900Y-75024600D01*
X86359900Y-75024600D02*
X117250300Y-75024600D01*
X117250300Y-75024600D02*
X117629100Y-75403400D01*
X117629100Y-75403400D02*
X120728700Y-75403400D01*
X120728700Y-75403400D02*
X121165800Y-74966300D01*
X121165800Y-74966300D02*
X140807400Y-74966300D01*
X83820000Y-73660000D02*
X84995300Y-73660000D01*
X57055300Y-73660000D02*
X58249300Y-74854000D01*
X58249300Y-74854000D02*
X81450700Y-74854000D01*
X81450700Y-74854000D02*
X82644700Y-73660000D01*
X229964700Y-50800000D02*
X227424700Y-53340000D01*
X227424700Y-53340000D02*
X152400000Y-53340000D01*
X231140000Y-50800000D02*
X229964700Y-50800000D01*
X83232400Y-73660000D02*
X83820000Y-73660000D01*
X83232400Y-73660000D02*
X82644700Y-73660000D01*
X55880000Y-73660000D02*
X57055300Y-73660000D01*
X284659200Y-58932400D02*
X321956700Y-58932400D01*
X321956700Y-58932400D02*
X325009700Y-55879400D01*
X126034900Y-58195500D02*
X204351900Y-58195500D01*
X204351900Y-58195500D02*
X205871100Y-59714700D01*
X205871100Y-59714700D02*
X283876900Y-59714700D01*
X283876900Y-59714700D02*
X284659200Y-58932400D01*
X350520000Y-48260000D02*
X349344700Y-48260000D01*
X335780000Y-48272000D02*
X349332700Y-48272000D01*
X349332700Y-48272000D02*
X349344700Y-48260000D01*
X91440000Y-73660000D02*
X101673500Y-73660000D01*
X285686800Y-50910600D02*
X285797400Y-50800000D01*
X285797400Y-50800000D02*
X292100000Y-50800000D01*
X90852400Y-73660000D02*
X91440000Y-73660000D01*
X90852400Y-73660000D02*
X90264700Y-73660000D01*
X63500000Y-73660000D02*
X64675300Y-73660000D01*
X64675300Y-73660000D02*
X65870800Y-72464500D01*
X65870800Y-72464500D02*
X89069200Y-72464500D01*
X89069200Y-72464500D02*
X90264700Y-73660000D01*
X261620000Y-50800000D02*
X248095800Y-50800000D01*
X237006000Y-62324600D02*
X217054800Y-62324600D01*
X217054800Y-62324600D02*
X212141000Y-67238400D01*
X212141000Y-67238400D02*
X86193700Y-67238400D01*
X86193700Y-67238400D02*
X84995300Y-66040000D01*
X83820000Y-66040000D02*
X84995300Y-66040000D01*
X83232400Y-66040000D02*
X83820000Y-66040000D01*
X83232400Y-66040000D02*
X82644700Y-66040000D01*
X358140000Y-45720000D02*
X356964700Y-45720000D01*
X261620000Y-48260000D02*
X262795300Y-48260000D01*
X262795300Y-48260000D02*
X263970600Y-47084700D01*
X263970600Y-47084700D02*
X294423800Y-47084700D01*
X294423800Y-47084700D02*
X297153000Y-44355500D01*
X297153000Y-44355500D02*
X302102500Y-44355500D01*
X302102500Y-44355500D02*
X304492500Y-41965500D01*
X304492500Y-41965500D02*
X353210200Y-41965500D01*
X353210200Y-41965500D02*
X356964700Y-45720000D01*
X82644700Y-66040000D02*
X81450700Y-67234000D01*
X81450700Y-67234000D02*
X58249300Y-67234000D01*
X58249300Y-67234000D02*
X57055300Y-66040000D01*
X55880000Y-66040000D02*
X57055300Y-66040000D01*
X130754000Y-80591300D02*
X66526600Y-80591300D01*
X66526600Y-80591300D02*
X64675300Y-78740000D01*
X152400000Y-104140000D02*
X157481900Y-104140000D01*
X231140000Y-68580000D02*
X232315300Y-68580000D01*
X232315300Y-68580000D02*
X234855300Y-71120000D01*
X234855300Y-71120000D02*
X238172400Y-71120000D01*
X128898300Y-74045600D02*
X133093900Y-69850000D01*
X133093900Y-69850000D02*
X228694700Y-69850000D01*
X228694700Y-69850000D02*
X229964700Y-68580000D01*
X231140000Y-68580000D02*
X229964700Y-68580000D01*
X350520000Y-68580000D02*
X349344700Y-68580000D01*
X349344700Y-68580000D02*
X345607000Y-72317700D01*
X345607000Y-72317700D02*
X261155400Y-72317700D01*
X261155400Y-72317700D02*
X259957700Y-71120000D01*
X259957700Y-71120000D02*
X238760000Y-71120000D01*
X356964700Y-71120000D02*
X354424700Y-68580000D01*
X354424700Y-68580000D02*
X350520000Y-68580000D01*
X358140000Y-71120000D02*
X356964700Y-71120000D01*
X358140000Y-78740000D02*
X356964700Y-78740000D01*
X356964700Y-78740000D02*
X354424700Y-76200000D01*
X354424700Y-76200000D02*
X350520000Y-76200000D01*
X238172400Y-71120000D02*
X238760000Y-71120000D01*
X63500000Y-78740000D02*
X64675300Y-78740000D01*
X55880000Y-68580000D02*
X57055300Y-68580000D01*
X63500000Y-71120000D02*
X59595300Y-71120000D01*
X59595300Y-71120000D02*
X57055300Y-68580000D01*
X146939000Y-160655000D02*
X146939000Y-156006798D01*
X32639000Y-160655000D02*
X32639000Y-156338400D01*
X32639000Y-156338400D02*
X32328200Y-156027600D01*
X63500000Y-40640000D02*
X63500000Y-38100000D01*
X55880000Y-40640000D02*
X55880000Y-43180000D01*
X38989000Y-160655000D02*
X38989000Y-154279612D01*
X38989000Y-154279612D02*
X38996406Y-154272206D01*
X84995300Y-126619000D02*
X86170600Y-125443700D01*
X86170600Y-125443700D02*
X95153300Y-125443700D01*
X83820000Y-126619000D02*
X84995300Y-126619000D01*
X91440000Y-91440000D02*
X95530500Y-91440000D01*
X159723700Y-143873100D02*
X159596500Y-144000300D01*
X159596500Y-144000300D02*
X157294500Y-144000300D01*
X157294500Y-144000300D02*
X156873500Y-144421300D01*
X156873500Y-144421300D02*
X147623500Y-144421300D01*
X147623500Y-144421300D02*
X146921700Y-143719500D01*
X146921700Y-143719500D02*
X140529400Y-143719500D01*
X140529400Y-143719500D02*
X139621400Y-142811500D01*
X139621400Y-142811500D02*
X136125700Y-142811500D01*
X136125700Y-142811500D02*
X136012800Y-142924400D01*
X136012800Y-142924400D02*
X92029700Y-142924400D01*
X92029700Y-142924400D02*
X91916800Y-143037300D01*
X98806700Y-149897200D02*
X98983600Y-149897200D01*
X98983600Y-149897200D02*
X99301900Y-150215500D01*
X99301900Y-150215500D02*
X120246300Y-150215500D01*
X120246300Y-150215500D02*
X120359100Y-150328300D01*
X120359100Y-150328300D02*
X132831600Y-150328300D01*
X132831600Y-150328300D02*
X137677500Y-155174200D01*
X137677500Y-155174200D02*
X149115700Y-155174200D01*
X149115700Y-155174200D02*
X149583700Y-154706200D01*
X149583700Y-154706200D02*
X149583700Y-154706100D01*
X149583700Y-154706100D02*
X149636300Y-154706100D01*
X101227100Y-143787000D02*
X122379100Y-143787000D01*
X122379100Y-143787000D02*
X122867100Y-144275000D01*
X122867100Y-144275000D02*
X135339600Y-144275000D01*
X135339600Y-144275000D02*
X135777100Y-144712500D01*
X135777100Y-144712500D02*
X139187500Y-144712500D01*
X139187500Y-144712500D02*
X141694900Y-147219900D01*
X141694900Y-147219900D02*
X159417000Y-147219900D01*
X159417000Y-147219900D02*
X159538400Y-147098500D01*
X84995300Y-96520000D02*
X86359900Y-97884600D01*
X86359900Y-97884600D02*
X95021200Y-97884600D01*
X83820000Y-96520000D02*
X84995300Y-96520000D01*
X137003500Y-151266700D02*
X139010000Y-153273200D01*
X139010000Y-153273200D02*
X152985200Y-153273200D01*
X152985200Y-153273200D02*
X153110300Y-153398300D01*
X109453300Y-99060000D02*
X91440000Y-99060000D01*
X91440000Y-101600000D02*
X101668100Y-101600000D01*
X179626700Y-104140000D02*
X178286000Y-102799300D01*
X178286000Y-102799300D02*
X112995100Y-102799300D01*
X112995100Y-102799300D02*
X112444700Y-103349700D01*
X112444700Y-103349700D02*
X101668100Y-103349700D01*
X180802000Y-104140000D02*
X179626700Y-104140000D01*
X102315900Y-92710000D02*
X95530500Y-92710000D01*
X84995300Y-91440000D02*
X86265300Y-92710000D01*
X86265300Y-92710000D02*
X95530500Y-92710000D01*
X83820000Y-91440000D02*
X84995300Y-91440000D01*
X157985100Y-146423100D02*
X161754971Y-146423100D01*
X161754971Y-146423100D02*
X163034971Y-145143100D01*
X141922900Y-146669600D02*
X157738600Y-146669600D01*
X213629501Y-145794701D02*
X213929500Y-146094700D01*
X212977900Y-145143100D02*
X213629501Y-145794701D01*
X200152568Y-145143100D02*
X212977900Y-145143100D01*
X200139578Y-145156090D02*
X200152568Y-145143100D01*
X176161422Y-145156090D02*
X200139578Y-145156090D01*
X176148432Y-145143100D02*
X176161422Y-145156090D01*
X163034971Y-145143100D02*
X176148432Y-145143100D01*
X157738600Y-146669600D02*
X157985100Y-146423100D01*
X139415500Y-144162200D02*
X141922900Y-146669600D01*
X136005200Y-144162200D02*
X139415500Y-144162200D01*
X135442700Y-143599700D02*
X136005200Y-144162200D01*
X123146800Y-143599700D02*
X135442700Y-143599700D01*
X111436100Y-104383700D02*
X92859000Y-104383700D01*
X92859000Y-104383700D02*
X92615300Y-104140000D01*
X91440000Y-104140000D02*
X92615300Y-104140000D01*
X136829664Y-143486800D02*
X136405400Y-143486800D01*
X176844888Y-143506057D02*
X176831031Y-143492200D01*
X140301400Y-144269800D02*
X139518400Y-143486800D01*
X199469969Y-143492200D02*
X199456112Y-143506057D01*
X205905900Y-143492200D02*
X199469969Y-143492200D01*
X157101200Y-144971900D02*
X147395800Y-144971900D01*
X157522500Y-144550600D02*
X157101200Y-144971900D01*
X139518400Y-143486800D02*
X136829664Y-143486800D01*
X161059800Y-143492200D02*
X160001400Y-144550600D01*
X206031000Y-143367100D02*
X205905900Y-143492200D01*
X199456112Y-143506057D02*
X176844888Y-143506057D01*
X147395800Y-144971900D02*
X146693700Y-144269800D01*
X176831031Y-143492200D02*
X161059800Y-143492200D01*
X160001400Y-144550600D02*
X157522500Y-144550600D01*
X146693700Y-144269800D02*
X140301400Y-144269800D01*
X180802000Y-96520000D02*
X179626700Y-96520000D01*
X101837700Y-90264500D02*
X106917900Y-95344700D01*
X106917900Y-95344700D02*
X178451400Y-95344700D01*
X178451400Y-95344700D02*
X179626700Y-96520000D01*
X84995300Y-88900000D02*
X86359800Y-90264500D01*
X86359800Y-90264500D02*
X101837700Y-90264500D01*
X83820000Y-88900000D02*
X84995300Y-88900000D01*
X167934800Y-77399300D02*
X143108300Y-77399300D01*
X143108300Y-77399300D02*
X143048300Y-77339300D01*
X143048300Y-77339300D02*
X142488800Y-77339300D01*
X142488800Y-77339300D02*
X142428800Y-77399300D01*
X142428800Y-77399300D02*
X93814600Y-77399300D01*
X93814600Y-77399300D02*
X92615300Y-76200000D01*
X352679000Y-156469700D02*
X336404800Y-140195500D01*
X336404800Y-140195500D02*
X303586800Y-140195500D01*
X91440000Y-68580000D02*
X85198300Y-68580000D01*
X292100000Y-88900000D02*
X294103000Y-88900000D01*
X352679000Y-160655000D02*
X352679000Y-156469700D01*
X292100000Y-96520000D02*
X290924700Y-96520000D01*
X238760000Y-101600000D02*
X259804800Y-101600000D01*
X259804800Y-101600000D02*
X261074800Y-100330000D01*
X261074800Y-100330000D02*
X287114700Y-100330000D01*
X287114700Y-100330000D02*
X290924700Y-96520000D01*
X180802000Y-101600000D02*
X182755500Y-101600000D01*
X182755500Y-101600000D02*
X183930800Y-100424700D01*
X183930800Y-100424700D02*
X226060000Y-100424700D01*
X226060000Y-100424700D02*
X229964700Y-96520000D01*
X231140000Y-96520000D02*
X229964700Y-96520000D01*
X91440000Y-76200000D02*
X92615300Y-76200000D01*
X87392900Y-107429000D02*
X65227600Y-107429000D01*
X65227600Y-107429000D02*
X65069000Y-107270400D01*
X65069000Y-107270400D02*
X64326500Y-107270400D01*
X64326500Y-107270400D02*
X64234900Y-107362000D01*
X64234900Y-107362000D02*
X58507800Y-107362000D01*
X91440000Y-40640000D02*
X91440000Y-38100000D01*
X99314000Y-160655000D02*
X99314000Y-156159204D01*
X54864000Y-156469700D02*
X67758600Y-143575100D01*
X67758600Y-143575100D02*
X79875500Y-143575100D01*
X54864000Y-160655000D02*
X54864000Y-156469700D01*
X65930100Y-36613100D02*
X66983200Y-35560000D01*
X66983200Y-35560000D02*
X83820000Y-35560000D01*
X38523396Y-153289000D02*
X40106600Y-153289000D01*
X35814000Y-160655000D02*
X35814000Y-155998396D01*
X35814000Y-155998396D02*
X38523396Y-153289000D01*
X151812400Y-127000000D02*
X150484500Y-128327900D01*
X150484500Y-128327900D02*
X126693300Y-128327900D01*
X126693300Y-128327900D02*
X126301500Y-128719700D01*
X152400000Y-127000000D02*
X151812400Y-127000000D01*
X127731799Y-156230599D02*
X127431800Y-155930600D01*
X127889000Y-156387800D02*
X127731799Y-156230599D01*
X127889000Y-160655000D02*
X127889000Y-156387800D01*
X151224700Y-124460000D02*
X149942000Y-123177300D01*
X149942000Y-123177300D02*
X123997000Y-123177300D01*
X123997000Y-123177300D02*
X123095300Y-124079000D01*
X152400000Y-124460000D02*
X151224700Y-124460000D01*
X121920000Y-124079000D02*
X123095300Y-124079000D01*
X124714000Y-160655000D02*
X124714000Y-155956000D01*
X131064000Y-160655000D02*
X131064001Y-156431063D01*
X131064001Y-156431063D02*
X131064001Y-156006799D01*
X152400000Y-119380000D02*
X151224700Y-119380000D01*
X114300000Y-116459000D02*
X115475300Y-116459000D01*
X115475300Y-116459000D02*
X119356000Y-120339700D01*
X119356000Y-120339700D02*
X142316000Y-120339700D01*
X142316000Y-120339700D02*
X142548700Y-120572400D01*
X142548700Y-120572400D02*
X150032300Y-120572400D01*
X150032300Y-120572400D02*
X151224700Y-119380000D01*
X134239000Y-160655000D02*
X134239000Y-156133800D01*
X296750700Y-59697300D02*
X325535900Y-59697300D01*
X325535900Y-59697300D02*
X331420200Y-53813000D01*
X331420200Y-53813000D02*
X331420200Y-52828200D01*
X331420200Y-52828200D02*
X330567300Y-51975300D01*
X330567300Y-51975300D02*
X330200000Y-51975300D01*
X330200000Y-50800000D02*
X330200000Y-51975300D01*
X331375300Y-48260000D02*
X332550600Y-47084700D01*
X332550600Y-47084700D02*
X358449100Y-47084700D01*
X358449100Y-47084700D02*
X359324400Y-46209400D01*
X359324400Y-46209400D02*
X359324400Y-42634400D01*
X359324400Y-42634400D02*
X358505300Y-41815300D01*
X358505300Y-41815300D02*
X358140000Y-41815300D01*
X153575300Y-91440000D02*
X154765800Y-90249500D01*
X154765800Y-90249500D02*
X178436200Y-90249500D01*
X178436200Y-90249500D02*
X179626700Y-91440000D01*
X358140000Y-40640000D02*
X358140000Y-41815300D01*
X330200000Y-48260000D02*
X331375300Y-48260000D01*
X152400000Y-91440000D02*
X151224700Y-91440000D01*
X152400000Y-91440000D02*
X153575300Y-91440000D01*
X180802000Y-91440000D02*
X179626700Y-91440000D01*
X121920000Y-91440000D02*
X123095300Y-91440000D01*
X151224700Y-91440000D02*
X150039100Y-90254400D01*
X150039100Y-90254400D02*
X124280900Y-90254400D01*
X124280900Y-90254400D02*
X123095300Y-91440000D01*
X189230000Y-81407000D02*
X188087000Y-81407000D01*
X189512000Y-81689000D02*
X189230000Y-81407000D01*
X252968100Y-81689000D02*
X189512000Y-81689000D01*
X253416000Y-81241100D02*
X252968100Y-81689000D01*
X297414900Y-77691100D02*
X293864900Y-81241100D01*
X293864900Y-81241100D02*
X253416000Y-81241100D01*
X138861000Y-125957600D02*
X141411400Y-125957600D01*
X141411400Y-125957600D02*
X143501900Y-123867100D01*
X121920000Y-93980000D02*
X117423400Y-93980000D01*
X232029000Y-160655000D02*
X232029000Y-157797500D01*
X176389244Y-144606079D02*
X176375965Y-144592800D01*
X199925035Y-144592800D02*
X199911756Y-144606079D01*
X199911756Y-144606079D02*
X176389244Y-144606079D01*
X221533500Y-147302000D02*
X218399000Y-147302000D01*
X218399000Y-147302000D02*
X215689800Y-144592800D01*
X157757100Y-145872800D02*
X157510600Y-146119300D01*
X215689800Y-144592800D02*
X199925035Y-144592800D01*
X232029000Y-157797500D02*
X221533500Y-147302000D01*
X142906099Y-145895899D02*
X142606100Y-145595900D01*
X143129500Y-146119300D02*
X142906099Y-145895899D01*
X157510600Y-146119300D02*
X143129500Y-146119300D01*
X160986300Y-145872800D02*
X157757100Y-145872800D01*
X162266300Y-144592800D02*
X160986300Y-145872800D01*
X176375965Y-144592800D02*
X162266300Y-144592800D01*
X140747300Y-72218300D02*
X132010200Y-72218300D01*
X132010200Y-72218300D02*
X129964400Y-74264100D01*
X152400000Y-48260000D02*
X158633800Y-48260000D01*
X158633800Y-48260000D02*
X159998400Y-46895400D01*
X159998400Y-46895400D02*
X236220100Y-46895400D01*
X236220100Y-46895400D02*
X237584700Y-48260000D01*
X143604700Y-99060000D02*
X142429400Y-100235300D01*
X142429400Y-100235300D02*
X117172700Y-100235300D01*
X117172700Y-100235300D02*
X115997400Y-99060000D01*
X115997400Y-99060000D02*
X114300000Y-99060000D01*
X173182000Y-99060000D02*
X172006700Y-99060000D01*
X238760000Y-48260000D02*
X237584700Y-48260000D01*
X144780000Y-99060000D02*
X145955300Y-99060000D01*
X145955300Y-99060000D02*
X147174700Y-100279400D01*
X147174700Y-100279400D02*
X170787300Y-100279400D01*
X170787300Y-100279400D02*
X172006700Y-99060000D01*
X144192400Y-99060000D02*
X144780000Y-99060000D01*
X144192400Y-99060000D02*
X143604700Y-99060000D01*
X114300000Y-96520000D02*
X109634800Y-96520000D01*
X118804500Y-96520000D02*
X114300000Y-96520000D01*
X220230836Y-150780500D02*
X220655100Y-150780500D01*
X219796236Y-150345900D02*
X220230836Y-150780500D01*
X203571097Y-150345900D02*
X219796236Y-150345900D01*
X202884597Y-151032400D02*
X203571097Y-150345900D01*
X164924000Y-151032400D02*
X202884597Y-151032400D01*
X163229900Y-152726500D02*
X164924000Y-151032400D01*
X157206700Y-152726500D02*
X163229900Y-152726500D01*
X139414900Y-152722900D02*
X157203100Y-152722900D01*
X136842400Y-150384700D02*
X137076700Y-150384700D01*
X157203100Y-152722900D02*
X157206700Y-152726500D01*
X137076700Y-150384700D02*
X139414900Y-152722900D01*
X286346200Y-53837200D02*
X288184100Y-51999300D01*
X288184100Y-51999300D02*
X297345400Y-51999300D01*
X297345400Y-51999300D02*
X298544700Y-50800000D01*
X299720000Y-50800000D02*
X298544700Y-50800000D01*
X349344700Y-43180000D02*
X348169400Y-44355300D01*
X348169400Y-44355300D02*
X304800000Y-44355300D01*
X304800000Y-44355300D02*
X300895300Y-48260000D01*
X299720000Y-48260000D02*
X300895300Y-48260000D01*
X350520000Y-43180000D02*
X349344700Y-43180000D01*
X180802000Y-99060000D02*
X179626700Y-99060000D01*
X152400000Y-99060000D02*
X153575300Y-99060000D01*
X153575300Y-99060000D02*
X154765900Y-97869400D01*
X154765900Y-97869400D02*
X178436100Y-97869400D01*
X178436100Y-97869400D02*
X179626700Y-99060000D01*
X151812400Y-99060000D02*
X152400000Y-99060000D01*
X151812400Y-99060000D02*
X151224700Y-99060000D01*
X121920000Y-99060000D02*
X123095300Y-99060000D01*
X123095300Y-99060000D02*
X124296600Y-97858700D01*
X124296600Y-97858700D02*
X150023400Y-97858700D01*
X150023400Y-97858700D02*
X151224700Y-99060000D01*
X288656500Y-83806200D02*
X288038400Y-83188100D01*
X288038400Y-83188100D02*
X253994700Y-83188100D01*
X253994700Y-83188100D02*
X253842900Y-83339900D01*
X184955264Y-83339900D02*
X184531000Y-83339900D01*
X253842900Y-83339900D02*
X184955264Y-83339900D01*
X227889200Y-134793400D02*
X154939600Y-134793400D01*
X154939600Y-134793400D02*
X153987200Y-135745800D01*
X153987200Y-135745800D02*
X153874500Y-135745800D01*
X153874500Y-135745800D02*
X153721500Y-135898800D01*
X153721500Y-135898800D02*
X150169100Y-135898800D01*
X150169100Y-135898800D02*
X147714900Y-133444600D01*
X147714900Y-133444600D02*
X143851100Y-133444600D01*
X168647100Y-84410100D02*
X168802500Y-84565500D01*
X168802500Y-84565500D02*
X272345600Y-84565500D01*
X272345600Y-84565500D02*
X272703800Y-84207300D01*
X358140000Y-50800000D02*
X356964700Y-50800000D01*
X269240000Y-48260000D02*
X284674200Y-48260000D01*
X284674200Y-48260000D02*
X285873500Y-49459300D01*
X285873500Y-49459300D02*
X355624000Y-49459300D01*
X355624000Y-49459300D02*
X356964700Y-50800000D01*
X173182000Y-91440000D02*
X171228500Y-91440000D01*
X171228500Y-91440000D02*
X170043800Y-92624700D01*
X170043800Y-92624700D02*
X147140000Y-92624700D01*
X147140000Y-92624700D02*
X145955300Y-91440000D01*
X144780000Y-91440000D02*
X145955300Y-91440000D01*
X144192400Y-91440000D02*
X144780000Y-91440000D01*
X144192400Y-91440000D02*
X143604700Y-91440000D01*
X114300000Y-91440000D02*
X115475300Y-91440000D01*
X115475300Y-91440000D02*
X116665900Y-92630600D01*
X116665900Y-92630600D02*
X142414100Y-92630600D01*
X142414100Y-92630600D02*
X143604700Y-91440000D01*
X149649800Y-129140600D02*
X150518300Y-129140600D01*
X150518300Y-129140600D02*
X151334500Y-128324400D01*
X151334500Y-128324400D02*
X165639600Y-128324400D01*
X165639600Y-128324400D02*
X166503100Y-129187900D01*
X173958800Y-151750200D02*
X202944630Y-151750200D01*
X202944630Y-151750200D02*
X203798630Y-150896200D01*
X203798630Y-150896200D02*
X218777700Y-150896200D01*
X219906850Y-152025350D02*
X222510350Y-152025350D01*
X218777700Y-150896200D02*
X219906850Y-152025350D01*
X225679000Y-155194000D02*
X225679000Y-160655000D01*
X222510350Y-152025350D02*
X225679000Y-155194000D01*
X255259100Y-133540400D02*
X255058300Y-133339600D01*
X255058300Y-133339600D02*
X237783900Y-133339600D01*
X237783900Y-133339600D02*
X237478400Y-133034100D01*
X237478400Y-133034100D02*
X233609600Y-133034100D01*
X233609600Y-133034100D02*
X233288300Y-133355400D01*
X233288300Y-133355400D02*
X228421000Y-133355400D01*
X228421000Y-133355400D02*
X227658400Y-134118000D01*
X227658400Y-134118000D02*
X155527100Y-134118000D01*
X144780000Y-88900000D02*
X150320600Y-88900000D01*
X150320600Y-88900000D02*
X151606400Y-90185800D01*
X151606400Y-90185800D02*
X153759800Y-90185800D01*
X153759800Y-90185800D02*
X156221000Y-87724600D01*
X156221000Y-87724600D02*
X177056700Y-87724600D01*
X177056700Y-87724600D02*
X179579100Y-90247000D01*
X179579100Y-90247000D02*
X224960300Y-90247000D01*
X224960300Y-90247000D02*
X225139700Y-90426400D01*
X114300000Y-73660000D02*
X119069200Y-73660000D01*
X119069200Y-73660000D02*
X120122500Y-74713300D01*
X154899200Y-137947000D02*
X154786500Y-137947000D01*
X238947500Y-137532400D02*
X199554734Y-137532400D01*
X154508400Y-138225100D02*
X151064364Y-138225100D01*
X199554734Y-137532400D02*
X199168934Y-137146600D01*
X151064364Y-138225100D02*
X150640100Y-138225100D01*
X154786500Y-137947000D02*
X154508400Y-138225100D01*
X155699600Y-137146600D02*
X154899200Y-137947000D01*
X199168934Y-137146600D02*
X155699600Y-137146600D01*
X230514000Y-90240700D02*
X240748736Y-90240700D01*
X169855800Y-93980000D02*
X171049800Y-92786000D01*
X152400000Y-93980000D02*
X169855800Y-93980000D01*
X227968700Y-92786000D02*
X230514000Y-90240700D01*
X240748736Y-90240700D02*
X241173000Y-90240700D01*
X171049800Y-92786000D02*
X227968700Y-92786000D01*
X68792200Y-38793100D02*
X70670900Y-36914400D01*
X70670900Y-36914400D02*
X119559100Y-36914400D01*
X119559100Y-36914400D02*
X120744700Y-38100000D01*
X121920000Y-38100000D02*
X120744700Y-38100000D01*
X45339000Y-156413200D02*
X45953401Y-155798799D01*
X45339000Y-160655000D02*
X45339000Y-156413200D01*
X45953401Y-155798799D02*
X46253400Y-155498800D01*
X235258400Y-56065300D02*
X149482500Y-56065300D01*
X149482500Y-56065300D02*
X144217200Y-50800000D01*
X144217200Y-50800000D02*
X143604700Y-50800000D01*
X144780000Y-50800000D02*
X144217200Y-50800000D01*
X114300000Y-50800000D02*
X115475300Y-50800000D01*
X143604700Y-50800000D02*
X142419100Y-51985600D01*
X142419100Y-51985600D02*
X116660900Y-51985600D01*
X116660900Y-51985600D02*
X115475300Y-50800000D01*
X238760000Y-91440000D02*
X240972704Y-91440000D01*
X268040700Y-90240700D02*
X268440001Y-90640001D01*
X268440001Y-90640001D02*
X269240000Y-91440000D01*
X240972704Y-91440000D02*
X242172004Y-90240700D01*
X242172004Y-90240700D02*
X268040700Y-90240700D01*
X71229900Y-41978800D02*
X119543500Y-41978800D01*
X119543500Y-41978800D02*
X120744700Y-43180000D01*
X121920000Y-43180000D02*
X120744700Y-43180000D01*
X102489000Y-155981402D02*
X102489002Y-155981400D01*
X102489000Y-160655000D02*
X102489000Y-155981402D01*
X142056900Y-47267800D02*
X144413600Y-49624500D01*
X144413600Y-49624500D02*
X283112100Y-49624500D01*
X283112100Y-49624500D02*
X285559400Y-52071800D01*
X356964700Y-91440000D02*
X355748900Y-92655800D01*
X355748900Y-92655800D02*
X302889500Y-92655800D01*
X302889500Y-92655800D02*
X301673700Y-91440000D01*
X301673700Y-91440000D02*
X299720000Y-91440000D01*
X353925700Y-66604400D02*
X354490100Y-66040000D01*
X354490100Y-66040000D02*
X358140000Y-66040000D01*
X358140000Y-91440000D02*
X356964700Y-91440000D01*
X142056900Y-47267800D02*
X143604700Y-45720000D01*
X121920000Y-48260000D02*
X141064700Y-48260000D01*
X141064700Y-48260000D02*
X142056900Y-47267800D01*
X144780000Y-45720000D02*
X143604700Y-45720000D01*
X99821800Y-134990400D02*
X76637000Y-134990400D01*
X202024700Y-101600000D02*
X197133700Y-106491000D01*
X197133700Y-106491000D02*
X173800600Y-106491000D01*
X157581700Y-82825300D02*
X155453900Y-80697500D01*
X155453900Y-80697500D02*
X144692900Y-80697500D01*
X203200000Y-101600000D02*
X202024700Y-101600000D01*
X145894900Y-153948600D02*
X146020000Y-153823500D01*
X146020000Y-153823500D02*
X152580500Y-153823500D01*
X152580500Y-153823500D02*
X152830600Y-154073600D01*
X152830600Y-154073600D02*
X153390100Y-154073600D01*
X153390100Y-154073600D02*
X153799600Y-153664100D01*
X153799600Y-153664100D02*
X156833400Y-153664100D01*
X156833400Y-153664100D02*
X159639000Y-156469700D01*
X159639000Y-160655000D02*
X159639000Y-156469700D01*
X203200000Y-91440000D02*
X202024700Y-91440000D01*
X183514400Y-90922300D02*
X201507000Y-90922300D01*
X201507000Y-90922300D02*
X202024700Y-91440000D01*
X144780000Y-124460000D02*
X145955300Y-124460000D01*
X163845500Y-126564100D02*
X163011400Y-125730000D01*
X163011400Y-125730000D02*
X147225300Y-125730000D01*
X147225300Y-125730000D02*
X145955300Y-124460000D01*
X153289000Y-155422600D02*
X153674801Y-155036799D01*
X153674801Y-155036799D02*
X153974800Y-154736800D01*
X153289000Y-160655000D02*
X153289000Y-155422600D01*
X171544700Y-116459000D02*
X167448300Y-120555400D01*
X167448300Y-120555400D02*
X151792000Y-120555400D01*
X151792000Y-120555400D02*
X150427400Y-121920000D01*
X150427400Y-121920000D02*
X144780000Y-121920000D01*
X172720000Y-116459000D02*
X171544700Y-116459000D01*
X156464000Y-160655000D02*
X156464000Y-154838100D01*
X156464000Y-154838100D02*
X155973700Y-154347800D01*
X180340000Y-124079000D02*
X179164700Y-124079000D01*
X154258500Y-124740700D02*
X167851300Y-124740700D01*
X167851300Y-124740700D02*
X169703600Y-122888400D01*
X169703600Y-122888400D02*
X177974100Y-122888400D01*
X177974100Y-122888400D02*
X179164700Y-124079000D01*
X179164700Y-121539000D02*
X177954800Y-120329100D01*
X177954800Y-120329100D02*
X170706200Y-120329100D01*
X170706200Y-120329100D02*
X167912100Y-123123200D01*
X167912100Y-123123200D02*
X154784300Y-123123200D01*
X180340000Y-121539000D02*
X179164700Y-121539000D01*
X162560000Y-43180000D02*
X160020000Y-43180000D01*
X153575300Y-40640000D02*
X155449000Y-38766300D01*
X155449000Y-38766300D02*
X168586400Y-38766300D01*
X152400000Y-40640000D02*
X153575300Y-40640000D01*
X144780000Y-40640000D02*
X152400000Y-40640000D01*
X251005500Y-79820300D02*
X249688200Y-81137600D01*
X260569600Y-79970500D02*
X260419400Y-79820300D01*
X290993700Y-74835300D02*
X285858500Y-79970500D01*
X249688200Y-81137600D02*
X190146864Y-81137600D01*
X285858500Y-79970500D02*
X260569600Y-79970500D01*
X190146864Y-81137600D02*
X185717264Y-76708000D01*
X184066264Y-76708000D02*
X183642000Y-76708000D01*
X185717264Y-76708000D02*
X184066264Y-76708000D01*
X298544700Y-74835300D02*
X290993700Y-74835300D01*
X299720000Y-73660000D02*
X298544700Y-74835300D01*
X260419400Y-79820300D02*
X251005500Y-79820300D01*
X152400000Y-76200000D02*
X151224700Y-76200000D01*
X151224700Y-76200000D02*
X150049300Y-75024600D01*
X150049300Y-75024600D02*
X143851200Y-75024600D01*
X160020000Y-50800000D02*
X158750000Y-52070000D01*
X158750000Y-52070000D02*
X151717200Y-52070000D01*
X169071000Y-78740000D02*
X152400000Y-78740000D01*
X290924700Y-73660000D02*
X289593950Y-74990750D01*
X292100000Y-73660000D02*
X290924700Y-73660000D01*
X289593950Y-74990750D02*
X177860750Y-74990750D01*
X177860750Y-74990750D02*
X175452200Y-77399300D01*
X175452200Y-77399300D02*
X170411700Y-77399300D01*
X170411700Y-77399300D02*
X169071000Y-78740000D01*
X165100000Y-43260000D02*
X167560000Y-43260000D01*
X167560000Y-43260000D02*
X167640000Y-43180000D01*
X153575300Y-45720000D02*
X159853700Y-39441600D01*
X159853700Y-39441600D02*
X351467400Y-39441600D01*
X152400000Y-45720000D02*
X153575300Y-45720000D01*
X350520000Y-15240000D02*
X349344700Y-15240000D01*
X349344700Y-15240000D02*
X345597100Y-11492400D01*
X319723600Y-11492400D02*
X319723600Y-11113600D01*
X345597100Y-11492400D02*
X319723600Y-11492400D01*
X319723600Y-11113600D02*
X313563000Y-4953000D01*
X277619800Y-4953000D02*
X271080400Y-11492400D01*
X313563000Y-4953000D02*
X277619800Y-4953000D01*
X271080400Y-11492400D02*
X185170500Y-11492400D01*
X173182000Y-101600000D02*
X174357300Y-101600000D01*
X174357300Y-101600000D02*
X175532600Y-100424700D01*
X175532600Y-100424700D02*
X182763500Y-100424700D01*
X182763500Y-100424700D02*
X184128200Y-99060000D01*
X184128200Y-99060000D02*
X203200000Y-99060000D01*
X183642000Y-102806200D02*
X194627800Y-102806200D01*
X194627800Y-102806200D02*
X195707000Y-101727000D01*
X154355508Y-82473500D02*
X154432000Y-82549992D01*
X107569600Y-82473500D02*
X154355508Y-82473500D01*
X118364000Y-160655000D02*
X118364000Y-155930600D01*
X187750700Y-77552300D02*
X200247500Y-77552300D01*
X200247500Y-77552300D02*
X200253600Y-77546200D01*
X180340000Y-68580000D02*
X203200000Y-68580000D01*
X254897300Y-84015200D02*
X255022300Y-83890200D01*
X179519200Y-84015200D02*
X254897300Y-84015200D01*
X177419000Y-76835000D02*
X177419000Y-81915000D01*
X177419000Y-81915000D02*
X179519200Y-84015200D01*
X251757264Y-154254200D02*
X251333000Y-154254200D01*
X255447800Y-154254200D02*
X251757264Y-154254200D01*
X257429000Y-160655000D02*
X257429000Y-156235400D01*
X257429000Y-156235400D02*
X255447800Y-154254200D01*
X177627600Y-73907800D02*
X176700000Y-74835400D01*
X176700000Y-74835400D02*
X164595500Y-74835400D01*
X143764000Y-156006806D02*
X143763997Y-156006803D01*
X143764000Y-160655000D02*
X143764000Y-156006806D01*
X353512600Y-119754400D02*
X354097900Y-120339700D01*
X354097900Y-120339700D02*
X359441600Y-120339700D01*
X176022000Y-71120000D02*
X172720000Y-71120000D01*
X180340000Y-73660000D02*
X178562000Y-73660000D01*
X178562000Y-73660000D02*
X176022000Y-71120000D01*
X253441700Y-81993700D02*
X253196100Y-82239300D01*
X253196100Y-82239300D02*
X187776298Y-82239300D01*
X182544997Y-77007999D02*
X182244998Y-76708000D01*
X187776298Y-82239300D02*
X182544997Y-77007999D01*
X300687500Y-81993700D02*
X253441700Y-81993700D01*
X301156000Y-82462200D02*
X300687500Y-81993700D01*
X328540900Y-82462200D02*
X301156000Y-82462200D01*
X186929600Y-82789600D02*
X180340000Y-76200000D01*
X253424200Y-82789600D02*
X186929600Y-82789600D01*
X253669800Y-82544000D02*
X253424200Y-82789600D01*
X300184500Y-82544000D02*
X253669800Y-82544000D01*
X332580500Y-84239400D02*
X301879900Y-84239400D01*
X301879900Y-84239400D02*
X300184500Y-82544000D01*
X203200000Y-71120000D02*
X201168000Y-71120000D01*
X201041000Y-78740000D02*
X201168000Y-78613000D01*
X188976000Y-78740000D02*
X201041000Y-78740000D01*
X210820000Y-121539000D02*
X225679000Y-121539000D01*
X64389000Y-156210000D02*
X64389000Y-160655000D01*
X66751200Y-153847800D02*
X64389000Y-156210000D01*
X76623500Y-145563000D02*
X68338700Y-153847800D01*
X121820200Y-145563000D02*
X76623500Y-145563000D01*
X122183100Y-145925900D02*
X121820200Y-145563000D01*
X134655600Y-145925900D02*
X122183100Y-145925900D01*
X135093100Y-146363400D02*
X134655600Y-145925900D01*
X68338700Y-153847800D02*
X66751200Y-153847800D01*
X138503500Y-146363400D02*
X135093100Y-146363400D01*
X200356400Y-147180300D02*
X163331270Y-147180300D01*
X201168000Y-146368700D02*
X200356400Y-147180300D01*
X163331270Y-147180300D02*
X161637170Y-148874400D01*
X161637170Y-148874400D02*
X158802700Y-148874400D01*
X141010900Y-148870800D02*
X138503500Y-146363400D01*
X158802700Y-148874400D02*
X158799100Y-148870800D01*
X158799100Y-148870800D02*
X141010900Y-148870800D01*
X238760000Y-104140000D02*
X237584700Y-104140000D01*
X210820000Y-101600000D02*
X211995300Y-101600000D01*
X211995300Y-101600000D02*
X213170600Y-102775300D01*
X213170600Y-102775300D02*
X236220000Y-102775300D01*
X236220000Y-102775300D02*
X237584700Y-104140000D01*
X231140000Y-129540000D02*
X229964700Y-129540000D01*
X210820000Y-124079000D02*
X224503700Y-124079000D01*
X224503700Y-124079000D02*
X229964700Y-129540000D01*
X202888498Y-148695000D02*
X210359736Y-148695000D01*
X121158300Y-148014300D02*
X121271100Y-148127100D01*
X100489100Y-148014300D02*
X121158300Y-148014300D01*
X210527036Y-148527700D02*
X210951300Y-148527700D01*
X134181100Y-148564600D02*
X137591500Y-148564600D01*
X140098900Y-151072000D02*
X157887100Y-151072000D01*
X99938800Y-147464000D02*
X100489100Y-148014300D01*
X83439000Y-153212800D02*
X89187800Y-147464000D01*
X210359736Y-148695000D02*
X210527036Y-148527700D01*
X202201998Y-149381500D02*
X202888498Y-148695000D01*
X121271100Y-148127100D02*
X133743600Y-148127100D01*
X133743600Y-148127100D02*
X134181100Y-148564600D01*
X137591500Y-148564600D02*
X140098900Y-151072000D01*
X89187800Y-147464000D02*
X99938800Y-147464000D01*
X157887100Y-151072000D02*
X157890700Y-151075600D01*
X83439000Y-160655000D02*
X83439000Y-153212800D01*
X157890700Y-151075600D02*
X162547302Y-151075600D01*
X162547302Y-151075600D02*
X164241402Y-149381500D01*
X164241402Y-149381500D02*
X202201998Y-149381500D01*
X231140000Y-119380000D02*
X229964700Y-119380000D01*
X203200000Y-118999000D02*
X204375300Y-118999000D01*
X204375300Y-118999000D02*
X208125800Y-122749500D01*
X208125800Y-122749500D02*
X226595200Y-122749500D01*
X226595200Y-122749500D02*
X229964700Y-119380000D01*
X142439800Y-135945300D02*
X144044200Y-137549700D01*
X72213400Y-135945300D02*
X142439800Y-135945300D01*
X199727720Y-136779000D02*
X200151984Y-136779000D01*
X199545020Y-136596300D02*
X199727720Y-136779000D01*
X154671200Y-137396700D02*
X155471600Y-136596300D01*
X154405500Y-137549700D02*
X154558500Y-137396700D01*
X155471600Y-136596300D02*
X199545020Y-136596300D01*
X154558500Y-137396700D02*
X154671200Y-137396700D01*
X144044200Y-137549700D02*
X154405500Y-137549700D01*
X234872298Y-95155300D02*
X236236998Y-96520000D01*
X237628630Y-96520000D02*
X238760000Y-96520000D01*
X236236998Y-96520000D02*
X237628630Y-96520000D01*
X204375300Y-95155300D02*
X234872298Y-95155300D01*
X203200000Y-93980000D02*
X204375300Y-95155300D01*
X231140000Y-116840000D02*
X229964700Y-116840000D01*
X203200000Y-116459000D02*
X204375300Y-116459000D01*
X204375300Y-116459000D02*
X208197600Y-120281300D01*
X208197600Y-120281300D02*
X226523400Y-120281300D01*
X226523400Y-120281300D02*
X229964700Y-116840000D01*
X71155700Y-140148200D02*
X134897500Y-140148200D01*
X134897500Y-140148200D02*
X134985700Y-140060000D01*
X134985700Y-140060000D02*
X142560700Y-140060000D01*
X142560700Y-140060000D02*
X142918400Y-140417700D01*
X142918400Y-140417700D02*
X148289700Y-140417700D01*
X148289700Y-140417700D02*
X148973600Y-141101600D01*
X148973600Y-141101600D02*
X155523400Y-141101600D01*
X155523400Y-141101600D02*
X155926500Y-140698500D01*
X156656700Y-140081000D02*
X197568736Y-140081000D01*
X156039200Y-140698500D02*
X156656700Y-140081000D01*
X197568736Y-140081000D02*
X197993000Y-140081000D01*
X155926500Y-140698500D02*
X156039200Y-140698500D01*
X239935300Y-53340000D02*
X241214600Y-52060700D01*
X241214600Y-52060700D02*
X260363300Y-52060700D01*
X331412300Y-46990000D02*
X325025300Y-46990000D01*
X325025300Y-46990000D02*
X323755300Y-45720000D01*
X322580000Y-45720000D02*
X323755300Y-45720000D01*
X300895300Y-53340000D02*
X302182700Y-52052600D01*
X302182700Y-52052600D02*
X327737300Y-52052600D01*
X327737300Y-52052600D02*
X329024700Y-53340000D01*
X330200000Y-53340000D02*
X329024700Y-53340000D01*
X299720000Y-53340000D02*
X300895300Y-53340000D01*
X295044000Y-53340000D02*
X299720000Y-53340000D01*
X292100000Y-45720000D02*
X290924700Y-45720000D01*
X261620000Y-45720000D02*
X262795300Y-45720000D01*
X262795300Y-45720000D02*
X263985900Y-44529400D01*
X263985900Y-44529400D02*
X289734100Y-44529400D01*
X289734100Y-44529400D02*
X290924700Y-45720000D01*
X268064700Y-53340000D02*
X266785400Y-52060700D01*
X266785400Y-52060700D02*
X260363300Y-52060700D01*
X269240000Y-53340000D02*
X268064700Y-53340000D01*
X238760000Y-53340000D02*
X239935300Y-53340000D01*
X238172400Y-53340000D02*
X238760000Y-53340000D01*
X238172400Y-53340000D02*
X237584700Y-53340000D01*
X237584700Y-53340000D02*
X236307500Y-52062800D01*
X236307500Y-52062800D02*
X230029000Y-52062800D01*
X203200000Y-96520000D02*
X209255400Y-96520000D01*
X269240000Y-18955300D02*
X240531800Y-18955300D01*
X269240000Y-17780000D02*
X269240000Y-18955300D01*
X203200000Y-96520000D02*
X196595996Y-96520000D01*
X173999600Y-105337000D02*
X196596000Y-105337000D01*
X172720500Y-106616100D02*
X173999600Y-105337000D01*
X78544564Y-106616100D02*
X172720500Y-106616100D01*
X77982800Y-106753600D02*
X78407064Y-106753600D01*
X78407064Y-106753600D02*
X78544564Y-106616100D01*
X73914000Y-160655000D02*
X73914000Y-156133800D01*
X73914000Y-156133800D02*
X72969399Y-155189199D01*
X72969399Y-155189199D02*
X72669400Y-154889200D01*
X209644700Y-104140000D02*
X208365400Y-102860700D01*
X208365400Y-102860700D02*
X201833700Y-102860700D01*
X201833700Y-102860700D02*
X197528000Y-107166400D01*
X197528000Y-107166400D02*
X134109000Y-107166400D01*
X134109000Y-107166400D02*
X129639400Y-111636000D01*
X129639400Y-111636000D02*
X74028700Y-111636000D01*
X61214000Y-160655000D02*
X61214000Y-155648000D01*
X61214000Y-155648000D02*
X61919700Y-154942300D01*
X210820000Y-104140000D02*
X209644700Y-104140000D01*
X236470600Y-133709400D02*
X233876000Y-133709400D01*
X233876000Y-133709400D02*
X231765000Y-135820400D01*
X231765000Y-135820400D02*
X228216200Y-135820400D01*
X228216200Y-135820400D02*
X227891500Y-135495700D01*
X227891500Y-135495700D02*
X155015600Y-135495700D01*
X155015600Y-135495700D02*
X154215200Y-136296100D01*
X154215200Y-136296100D02*
X154102500Y-136296100D01*
X154102500Y-136296100D02*
X153949500Y-136449100D01*
X153949500Y-136449100D02*
X144775200Y-136449100D01*
X144775200Y-136449100D02*
X142532200Y-134206100D01*
X142532200Y-134206100D02*
X76212800Y-134206100D01*
X261620000Y-118999000D02*
X261620000Y-117823700D01*
X261620000Y-117823700D02*
X262428000Y-117823700D01*
X262428000Y-117823700D02*
X262795400Y-117456300D01*
X262795400Y-117456300D02*
X262795400Y-115488600D01*
X262795400Y-115488600D02*
X262590400Y-115283600D01*
X262590400Y-115283600D02*
X251756200Y-115283600D01*
X251756200Y-115283600D02*
X247659800Y-119380000D01*
X247659800Y-119380000D02*
X238760000Y-119380000D01*
X261620000Y-116459000D02*
X255600500Y-116459000D01*
X255600500Y-116459000D02*
X250139500Y-121920000D01*
X250139500Y-121920000D02*
X238760000Y-121920000D01*
X241554000Y-155549604D02*
X241554004Y-155549600D01*
X241554000Y-160655000D02*
X241554000Y-155549604D01*
X239935300Y-129540000D02*
X246571900Y-122903400D01*
X246571900Y-122903400D02*
X266889100Y-122903400D01*
X266889100Y-122903400D02*
X268064700Y-124079000D01*
X269240000Y-124079000D02*
X268064700Y-124079000D01*
X238760000Y-129540000D02*
X239935300Y-129540000D01*
X237369000Y-133879800D02*
X235428400Y-135820400D01*
X235428400Y-135820400D02*
X232818600Y-135820400D01*
X232818600Y-135820400D02*
X232268300Y-136370700D01*
X232268300Y-136370700D02*
X226050400Y-136370700D01*
X226050400Y-136370700D02*
X225921400Y-136241700D01*
X268064700Y-121539000D02*
X266879100Y-120353400D01*
X266879100Y-120353400D02*
X252678000Y-120353400D01*
X252678000Y-120353400D02*
X251384400Y-121647000D01*
X269240000Y-121539000D02*
X268064700Y-121539000D01*
X219329000Y-156083000D02*
X220883201Y-154528799D01*
X219329000Y-160655000D02*
X219329000Y-156083000D01*
X220883201Y-154528799D02*
X221183200Y-154228800D01*
X260444700Y-126619000D02*
X258963100Y-125137400D01*
X258963100Y-125137400D02*
X253054600Y-125137400D01*
X322580000Y-99060000D02*
X321404700Y-99060000D01*
X321404700Y-99060000D02*
X320229400Y-100235300D01*
X320229400Y-100235300D02*
X288689900Y-100235300D01*
X288689900Y-100235300D02*
X286149800Y-102775400D01*
X286149800Y-102775400D02*
X237713400Y-102775400D01*
X237713400Y-102775400D02*
X236538000Y-101600000D01*
X236538000Y-101600000D02*
X231140000Y-101600000D01*
X261620000Y-126619000D02*
X260444700Y-126619000D01*
X322580000Y-93980000D02*
X303046200Y-93980000D01*
X303046200Y-93980000D02*
X301803100Y-92736900D01*
X301803100Y-92736900D02*
X266943700Y-92736900D01*
X257775100Y-95250000D02*
X236390264Y-95250000D01*
X260288200Y-92736900D02*
X257775100Y-95250000D01*
X236390264Y-95250000D02*
X235966000Y-95250000D01*
X266943700Y-92736900D02*
X260288200Y-92736900D01*
X238760000Y-68580000D02*
X236518500Y-68580000D01*
X236518500Y-68580000D02*
X236282200Y-68343700D01*
X239347700Y-68580000D02*
X238760000Y-68580000D01*
X239347700Y-68580000D02*
X257904700Y-68580000D01*
X260444700Y-66040000D02*
X257904700Y-68580000D01*
X261620000Y-66040000D02*
X260444700Y-66040000D01*
X90477900Y-141110400D02*
X65771364Y-141110400D01*
X142332700Y-140610300D02*
X135213700Y-140610300D01*
X135213700Y-140610300D02*
X135125500Y-140698500D01*
X135125500Y-140698500D02*
X90889800Y-140698500D01*
X65771364Y-141110400D02*
X65347100Y-141110400D01*
X90889800Y-140698500D02*
X90477900Y-141110400D01*
X156775300Y-140740700D02*
X156267200Y-141248800D01*
X198317002Y-140756002D02*
X177983998Y-140756002D01*
X198582404Y-140490600D02*
X198317002Y-140756002D01*
X215137736Y-140490600D02*
X198582404Y-140490600D01*
X156267200Y-141248800D02*
X156154500Y-141248800D01*
X142690400Y-140968000D02*
X142332700Y-140610300D01*
X148061700Y-140968000D02*
X142690400Y-140968000D01*
X148745600Y-141651900D02*
X148061700Y-140968000D01*
X155751400Y-141651900D02*
X148745600Y-141651900D01*
X156154500Y-141248800D02*
X155751400Y-141651900D01*
X177968696Y-140740700D02*
X156775300Y-140740700D01*
X177983998Y-140756002D02*
X177968696Y-140740700D01*
X215181736Y-140534600D02*
X215137736Y-140490600D01*
X215606000Y-140534600D02*
X215181736Y-140534600D01*
X51689000Y-160655000D02*
X51689000Y-154660602D01*
X51689000Y-154660602D02*
X51688998Y-154660600D01*
X232315300Y-71120000D02*
X233490600Y-72295300D01*
X233490600Y-72295300D02*
X259080000Y-72295300D01*
X259080000Y-72295300D02*
X260444700Y-73660000D01*
X261620000Y-73660000D02*
X260444700Y-73660000D01*
X231140000Y-71120000D02*
X232315300Y-71120000D01*
X237584700Y-76200000D02*
X236385500Y-77399200D01*
X236385500Y-77399200D02*
X228727700Y-77399200D01*
X238760000Y-76200000D02*
X237584700Y-76200000D01*
X239347700Y-76200000D02*
X238760000Y-76200000D01*
X268009200Y-77425300D02*
X241160600Y-77425300D01*
X241160600Y-77425300D02*
X239935300Y-76200000D01*
X239347700Y-76200000D02*
X239935300Y-76200000D01*
X67564000Y-156337000D02*
X67564000Y-160655000D01*
X68941950Y-154959050D02*
X67564000Y-156337000D01*
X161864703Y-149424700D02*
X158574700Y-149424700D01*
X140782900Y-149421100D02*
X138275500Y-146913700D01*
X163558803Y-147730600D02*
X161864703Y-149424700D01*
X201519400Y-147730600D02*
X163558803Y-147730600D01*
X202456000Y-146794000D02*
X201519400Y-147730600D01*
X121955100Y-146476200D02*
X121592200Y-146113300D01*
X212884100Y-147132200D02*
X212545900Y-146794000D01*
X121592200Y-146113300D02*
X79248200Y-146113300D01*
X212545900Y-146794000D02*
X202456000Y-146794000D01*
X158571100Y-149421100D02*
X140782900Y-149421100D01*
X158574700Y-149424700D02*
X158571100Y-149421100D01*
X138275500Y-146913700D02*
X134865100Y-146913700D01*
X79248200Y-146113300D02*
X70402450Y-154959050D01*
X134865100Y-146913700D02*
X134427600Y-146476200D01*
X134427600Y-146476200D02*
X121955100Y-146476200D01*
X70402450Y-154959050D02*
X68941950Y-154959050D01*
X268064700Y-68580000D02*
X264325400Y-64840700D01*
X264325400Y-64840700D02*
X233656000Y-64840700D01*
X233656000Y-64840700D02*
X232315300Y-63500000D01*
X231140000Y-63500000D02*
X232315300Y-63500000D01*
X269240000Y-68580000D02*
X268064700Y-68580000D01*
X204045736Y-147469300D02*
X204470000Y-147469300D01*
X201746932Y-148280900D02*
X202558532Y-147469300D01*
X162092236Y-149975000D02*
X163786336Y-148280900D01*
X158346700Y-149975000D02*
X162092236Y-149975000D01*
X163786336Y-148280900D02*
X201746932Y-148280900D01*
X158343100Y-149971400D02*
X158346700Y-149975000D01*
X202558532Y-147469300D02*
X204045736Y-147469300D01*
X140554900Y-149971400D02*
X158343100Y-149971400D01*
X138047500Y-147464000D02*
X140554900Y-149971400D01*
X134637100Y-147464000D02*
X138047500Y-147464000D01*
X80264000Y-160655000D02*
X80264000Y-155219400D01*
X80264000Y-155219400D02*
X88819800Y-146663600D01*
X88819800Y-146663600D02*
X121364200Y-146663600D01*
X121364200Y-146663600D02*
X121727100Y-147026500D01*
X121727100Y-147026500D02*
X134199600Y-147026500D01*
X134199600Y-147026500D02*
X134637100Y-147464000D01*
X279654000Y-160655000D02*
X279654000Y-155752800D01*
X279654000Y-155752800D02*
X280598601Y-154808199D01*
X280598601Y-154808199D02*
X280898600Y-154508200D01*
X238760000Y-45720000D02*
X238760000Y-43180000D01*
X277952200Y-153416000D02*
X280910000Y-153416000D01*
X276479000Y-160655000D02*
X276479000Y-154889200D01*
X276479000Y-154889200D02*
X277952200Y-153416000D01*
X231140000Y-43180000D02*
X234419800Y-43180000D01*
X234419800Y-43180000D02*
X238324500Y-47084700D01*
X238324500Y-47084700D02*
X246365100Y-47084700D01*
X246365100Y-47084700D02*
X247070700Y-47790300D01*
X244729000Y-160655000D02*
X244729000Y-157797500D01*
X250151900Y-152374600D02*
X250883336Y-152374600D01*
X250883336Y-152374600D02*
X251307600Y-152374600D01*
X244729000Y-157797500D02*
X250151900Y-152374600D01*
X232773700Y-50626300D02*
X233535700Y-51388300D01*
X233535700Y-51388300D02*
X237411500Y-51388300D01*
X247904000Y-160655000D02*
X247904000Y-156413200D01*
X247904000Y-156413200D02*
X250702801Y-153614399D01*
X250702801Y-153614399D02*
X251002800Y-153314400D01*
X206994800Y-141040900D02*
X198809937Y-141040900D01*
X135353500Y-141248800D02*
X91117800Y-141248800D01*
X156495200Y-141799100D02*
X156382500Y-141799100D01*
X142462400Y-141518300D02*
X142104700Y-141160600D01*
X135441700Y-141160600D02*
X135353500Y-141248800D01*
X157003300Y-141291000D02*
X156495200Y-141799100D01*
X198809937Y-141040900D02*
X198544824Y-141306013D01*
X148517600Y-142202200D02*
X147833700Y-141518300D01*
X267129036Y-140974800D02*
X266893936Y-141209900D01*
X266893936Y-141209900D02*
X207163800Y-141209900D01*
X91117800Y-141248800D02*
X90567500Y-141799100D01*
X198544824Y-141306013D02*
X177756176Y-141306013D01*
X147833700Y-141518300D02*
X142462400Y-141518300D01*
X90567500Y-141799100D02*
X60249964Y-141799100D01*
X155979400Y-142202200D02*
X148517600Y-142202200D01*
X142104700Y-141160600D02*
X135441700Y-141160600D01*
X177741163Y-141291000D02*
X157003300Y-141291000D01*
X60249964Y-141799100D02*
X60124664Y-141673800D01*
X177756176Y-141306013D02*
X177741163Y-141291000D01*
X207163800Y-141209900D02*
X206994800Y-141040900D01*
X267553300Y-140974800D02*
X267129036Y-140974800D01*
X60124664Y-141673800D02*
X59700400Y-141673800D01*
X156382500Y-141799100D02*
X155979400Y-142202200D01*
X261620000Y-96520000D02*
X266853700Y-96520000D01*
X266853700Y-96520000D02*
X268044300Y-97710600D01*
X268044300Y-97710600D02*
X278590500Y-97710600D01*
X278590500Y-97710600D02*
X282018600Y-94282500D01*
X260604000Y-156464000D02*
X258668799Y-154528799D01*
X258668799Y-154528799D02*
X258368800Y-154228800D01*
X260604000Y-160655000D02*
X260604000Y-156464000D01*
X292354000Y-160655000D02*
X292354000Y-156243600D01*
X292354000Y-156243600D02*
X290100800Y-153990400D01*
X289179000Y-155549600D02*
X288081999Y-154452599D01*
X289179000Y-160655000D02*
X289179000Y-155549600D01*
X288081999Y-154452599D02*
X287782000Y-154152600D01*
X282595599Y-155062199D02*
X282295600Y-154762200D01*
X282829000Y-160655000D02*
X282829000Y-155295600D01*
X282829000Y-155295600D02*
X282595599Y-155062199D01*
X286004000Y-160655000D02*
X286004000Y-155219398D01*
X286004000Y-155219398D02*
X284551399Y-153766797D01*
X284551399Y-153766797D02*
X284251400Y-153466798D01*
X322580000Y-101600000D02*
X315952000Y-101600000D01*
X315287400Y-145866300D02*
X278978600Y-145866300D01*
X330454000Y-156469700D02*
X327617700Y-153633400D01*
X327617700Y-153633400D02*
X325942500Y-153633400D01*
X321404700Y-96520000D02*
X321264100Y-96660600D01*
X321264100Y-96660600D02*
X315401700Y-96660600D01*
X322580000Y-96520000D02*
X321404700Y-96520000D01*
X330454000Y-160655000D02*
X330454000Y-156469700D01*
X261620000Y-15240000D02*
X260444700Y-15240000D01*
X124289400Y-15456900D02*
X260227800Y-15456900D01*
X260227800Y-15456900D02*
X260444700Y-15240000D01*
X322580000Y-91440000D02*
X312847900Y-91440000D01*
X89789000Y-160655000D02*
X89789000Y-155905200D01*
X100615602Y-155301800D02*
X100634802Y-155321000D01*
X96516800Y-155301800D02*
X100615602Y-155301800D01*
X328897400Y-66615800D02*
X327146300Y-64864700D01*
X327146300Y-64864700D02*
X287627500Y-64864700D01*
X286239300Y-138883800D02*
X285814200Y-139308900D01*
X285814200Y-139308900D02*
X198997737Y-139308900D01*
X198997737Y-139308900D02*
X198486337Y-138797500D01*
X198486337Y-138797500D02*
X156383600Y-138797500D01*
X156383600Y-138797500D02*
X155583200Y-139597900D01*
X155583200Y-139597900D02*
X155470500Y-139597900D01*
X155470500Y-139597900D02*
X155067400Y-140001000D01*
X155067400Y-140001000D02*
X149879800Y-140001000D01*
X149879800Y-140001000D02*
X149195900Y-139317100D01*
X149195900Y-139317100D02*
X143374400Y-139317100D01*
X143374400Y-139317100D02*
X142835200Y-138777900D01*
X142835200Y-138777900D02*
X65472764Y-138777900D01*
X65472764Y-138777900D02*
X65048500Y-138777900D01*
X48514000Y-154838400D02*
X49128401Y-154223999D01*
X49128401Y-154223999D02*
X49428400Y-153924000D01*
X48514000Y-160655000D02*
X48514000Y-154838400D01*
X314249300Y-105423500D02*
X314799600Y-105973800D01*
X314799600Y-105973800D02*
X327190900Y-105973800D01*
X327190900Y-105973800D02*
X329024700Y-104140000D01*
X330200000Y-104140000D02*
X329024700Y-104140000D01*
X328705800Y-87724100D02*
X313737900Y-87724100D01*
X299720000Y-121539000D02*
X300895300Y-121539000D01*
X300895300Y-121539000D02*
X303054300Y-119380000D01*
X303054300Y-119380000D02*
X322580000Y-119380000D01*
X143602400Y-138766800D02*
X142933900Y-138098300D01*
X142933900Y-138098300D02*
X75964364Y-138098300D01*
X75964364Y-138098300D02*
X75540100Y-138098300D01*
X156155600Y-138247200D02*
X155355200Y-139047600D01*
X149424100Y-138766800D02*
X143602400Y-138766800D01*
X150108000Y-139450700D02*
X149424100Y-138766800D01*
X154839400Y-139450700D02*
X150108000Y-139450700D01*
X199225269Y-138758600D02*
X198713869Y-138247200D01*
X155242500Y-139047600D02*
X154839400Y-139450700D01*
X155355200Y-139047600D02*
X155242500Y-139047600D01*
X198713869Y-138247200D02*
X156155600Y-138247200D01*
X278026400Y-138758600D02*
X199225269Y-138758600D01*
X291436000Y-125349000D02*
X278026400Y-138758600D01*
X296766100Y-125349000D02*
X291436000Y-125349000D01*
X329024700Y-101600000D02*
X327825500Y-102799200D01*
X327825500Y-102799200D02*
X302236100Y-102799200D01*
X302236100Y-102799200D02*
X300895300Y-104140000D01*
X330200000Y-101600000D02*
X329024700Y-101600000D01*
X299720000Y-104140000D02*
X300895300Y-104140000D01*
X303042900Y-124079000D02*
X299720000Y-124079000D01*
X321404700Y-121920000D02*
X319245700Y-124079000D01*
X319245700Y-124079000D02*
X303042900Y-124079000D01*
X322580000Y-121920000D02*
X321404700Y-121920000D01*
X155811200Y-140148200D02*
X155698500Y-140148200D01*
X290507800Y-136689200D02*
X287337800Y-139859200D01*
X287337800Y-139859200D02*
X198770204Y-139859200D01*
X142736500Y-139457500D02*
X78966064Y-139457500D01*
X155295400Y-140551300D02*
X149376800Y-140551300D01*
X143146400Y-139867400D02*
X142736500Y-139457500D01*
X299952800Y-136689200D02*
X290507800Y-136689200D01*
X149376800Y-140551300D02*
X148692900Y-139867400D01*
X156611600Y-139347800D02*
X155811200Y-140148200D01*
X148692900Y-139867400D02*
X143146400Y-139867400D01*
X78966064Y-139457500D02*
X78541800Y-139457500D01*
X198770204Y-139859200D02*
X198258804Y-139347800D01*
X198258804Y-139347800D02*
X156611600Y-139347800D01*
X155698500Y-140148200D02*
X155295400Y-140551300D01*
X292977700Y-118999000D02*
X289262300Y-122714400D01*
X289262300Y-122714400D02*
X289067100Y-122714400D01*
X329024700Y-124460000D02*
X327754700Y-125730000D01*
X327754700Y-125730000D02*
X322049800Y-125730000D01*
X322049800Y-125730000D02*
X321668800Y-125349000D01*
X321668800Y-125349000D02*
X299327700Y-125349000D01*
X299327700Y-125349000D02*
X292977700Y-118999000D01*
X292100000Y-118999000D02*
X292977700Y-118999000D01*
X330200000Y-124460000D02*
X329024700Y-124460000D01*
X206538800Y-142141500D02*
X205523300Y-142141500D01*
X156435400Y-143302800D02*
X148061600Y-143302800D01*
X135897700Y-142261200D02*
X135809500Y-142349400D01*
X147377700Y-142618900D02*
X142006400Y-142618900D01*
X142006400Y-142618900D02*
X141648700Y-142261200D01*
X148061600Y-143302800D02*
X147377700Y-142618900D01*
X91573800Y-142349400D02*
X91023500Y-142899700D01*
X135809500Y-142349400D02*
X91573800Y-142349400D01*
X141648700Y-142261200D02*
X135897700Y-142261200D01*
X91023500Y-142899700D02*
X57061800Y-142899700D01*
X156951200Y-142899700D02*
X156838500Y-142899700D01*
X199014903Y-142391600D02*
X199000468Y-142406035D01*
X288677300Y-142310500D02*
X206707800Y-142310500D01*
X177300532Y-142406035D02*
X177286097Y-142391600D01*
X157459300Y-142391600D02*
X156951200Y-142899700D01*
X199000468Y-142406035D02*
X177300532Y-142406035D01*
X156838500Y-142899700D02*
X156435400Y-143302800D01*
X206707800Y-142310500D02*
X206538800Y-142141500D01*
X205273200Y-142391600D02*
X199014903Y-142391600D01*
X205523300Y-142141500D02*
X205273200Y-142391600D01*
X177286097Y-142391600D02*
X157459300Y-142391600D01*
X44913550Y-155047950D02*
X43097450Y-155047950D01*
X57061800Y-142899700D02*
X44913550Y-155047950D01*
X42164000Y-155981400D02*
X42164000Y-160655000D01*
X43097450Y-155047950D02*
X42164000Y-155981400D01*
X330200000Y-91440000D02*
X324720300Y-91440000D01*
X299720000Y-96520000D02*
X300895300Y-96520000D01*
X321323700Y-95837600D02*
X301577700Y-95837600D01*
X301577700Y-95837600D02*
X300895300Y-96520000D01*
X331375300Y-121920000D02*
X333259200Y-123803900D01*
X333259200Y-123803900D02*
X344741700Y-123803900D01*
X330200000Y-121920000D02*
X329024700Y-121920000D01*
X292100000Y-116459000D02*
X293275300Y-116459000D01*
X293275300Y-116459000D02*
X293275300Y-116826300D01*
X293275300Y-116826300D02*
X299203100Y-122754100D01*
X299203100Y-122754100D02*
X314626700Y-122754100D01*
X314626700Y-122754100D02*
X316646400Y-120734400D01*
X316646400Y-120734400D02*
X327839100Y-120734400D01*
X327839100Y-120734400D02*
X329024700Y-121920000D01*
X330200000Y-121920000D02*
X331375300Y-121920000D01*
X322580000Y-88900000D02*
X327862500Y-88900000D01*
X331856900Y-128939500D02*
X345262600Y-128939500D01*
X345262600Y-128939500D02*
X347583100Y-126619000D01*
X347583100Y-126619000D02*
X350520000Y-126619000D01*
X311897100Y-88900000D02*
X322580000Y-88900000D01*
X306205400Y-101517200D02*
X301603000Y-101517200D01*
X301603000Y-101517200D02*
X300344800Y-102775400D01*
X300344800Y-102775400D02*
X296303100Y-102775400D01*
X296303100Y-102775400D02*
X295127700Y-101600000D01*
X295127700Y-101600000D02*
X292100000Y-101600000D01*
X358140000Y-131699000D02*
X353181900Y-131699000D01*
X330200000Y-96520000D02*
X329024700Y-96520000D01*
X292100000Y-93980000D02*
X293275300Y-93980000D01*
X293275300Y-93980000D02*
X294450600Y-95155300D01*
X294450600Y-95155300D02*
X327660000Y-95155300D01*
X327660000Y-95155300D02*
X329024700Y-96520000D01*
X290924700Y-76200000D02*
X286603800Y-80520900D01*
X286603800Y-80520900D02*
X258914400Y-80520900D01*
X292100000Y-76200000D02*
X290924700Y-76200000D01*
X251079000Y-155676600D02*
X251439401Y-155316199D01*
X251079000Y-160655000D02*
X251079000Y-155676600D01*
X251439401Y-155316199D02*
X251739400Y-155016200D01*
X320929000Y-156469700D02*
X321327600Y-156071100D01*
X321327600Y-156071100D02*
X321327600Y-155639300D01*
X320929000Y-160655000D02*
X320929000Y-156469700D01*
X292100000Y-40640000D02*
X292100000Y-43180000D01*
X314579000Y-160655000D02*
X314579000Y-156057600D01*
X314579000Y-156057600D02*
X317250801Y-153385799D01*
X317250801Y-153385799D02*
X317550800Y-153085800D01*
X358140000Y-124079000D02*
X355747200Y-124079000D01*
X355747200Y-124079000D02*
X352031800Y-127794400D01*
X352031800Y-127794400D02*
X348441500Y-127794400D01*
X348441500Y-127794400D02*
X345425900Y-130810000D01*
X345425900Y-130810000D02*
X325025300Y-130810000D01*
X325025300Y-130810000D02*
X323755300Y-132080000D01*
X322580000Y-132080000D02*
X323755300Y-132080000D01*
X349504000Y-160655000D02*
X349504000Y-156469700D01*
X349504000Y-156469700D02*
X335056100Y-142021800D01*
X335056100Y-142021800D02*
X321291000Y-142021800D01*
X356964700Y-121539000D02*
X353154700Y-125349000D01*
X353154700Y-125349000D02*
X347296500Y-125349000D01*
X347296500Y-125349000D02*
X344384300Y-128261200D01*
X344384300Y-128261200D02*
X325034100Y-128261200D01*
X325034100Y-128261200D02*
X323755300Y-129540000D01*
X218635300Y-146573200D02*
X274491200Y-146573200D01*
X274491200Y-146573200D02*
X277715100Y-143349300D01*
X277715100Y-143349300D02*
X319538800Y-143349300D01*
X319538800Y-143349300D02*
X320209700Y-142678400D01*
X322580000Y-129540000D02*
X323755300Y-129540000D01*
X358140000Y-121539000D02*
X356964700Y-121539000D01*
X216154000Y-160655000D02*
X216154000Y-154965402D01*
X216154000Y-154965402D02*
X216154002Y-154965400D01*
X330200000Y-132080000D02*
X330200000Y-133255300D01*
X332294900Y-135127600D02*
X332294900Y-134995400D01*
X332294900Y-134995400D02*
X330554800Y-133255300D01*
X330554800Y-133255300D02*
X330200000Y-133255300D01*
X346329000Y-155194000D02*
X342768199Y-151633199D01*
X342768199Y-151633199D02*
X342468200Y-151333200D01*
X346329000Y-160655000D02*
X346329000Y-155194000D01*
X311115200Y-81531000D02*
X328166200Y-81531000D01*
X156723200Y-142349400D02*
X156610500Y-142349400D01*
X40668464Y-142561200D02*
X40244200Y-142561200D01*
X206766800Y-141591200D02*
X205295300Y-141591200D01*
X147605700Y-142068600D02*
X142234400Y-142068600D01*
X148289600Y-142752500D02*
X147605700Y-142068600D01*
X142234400Y-142068600D02*
X141876700Y-141710900D01*
X135581500Y-141799100D02*
X91345800Y-141799100D01*
X206935800Y-141760200D02*
X206766800Y-141591200D01*
X157231300Y-141841300D02*
X156723200Y-142349400D01*
X177513630Y-141841300D02*
X157231300Y-141841300D01*
X198787370Y-141841300D02*
X198772646Y-141856024D01*
X198772646Y-141856024D02*
X177528354Y-141856024D01*
X40880264Y-142349400D02*
X40668464Y-142561200D01*
X205295300Y-141591200D02*
X205045200Y-141841300D01*
X141876700Y-141710900D02*
X135669700Y-141710900D01*
X156207400Y-142752500D02*
X148289600Y-142752500D01*
X90795500Y-142349400D02*
X40880264Y-142349400D01*
X135669700Y-141710900D02*
X135581500Y-141799100D01*
X305512100Y-141412900D02*
X268070300Y-141412900D01*
X205045200Y-141841300D02*
X198787370Y-141841300D01*
X267723000Y-141760200D02*
X206935800Y-141760200D01*
X91345800Y-141799100D02*
X90795500Y-142349400D01*
X156610500Y-142349400D02*
X156207400Y-142752500D01*
X177528354Y-141856024D02*
X177513630Y-141841300D01*
X268070300Y-141412900D02*
X267723000Y-141760200D01*
X346067800Y-122496000D02*
X344076100Y-120504300D01*
X344076100Y-120504300D02*
X344076100Y-118749500D01*
X347250500Y-111046700D02*
X349024500Y-111046700D01*
X349024500Y-111046700D02*
X350267700Y-109803500D01*
X319504000Y-73093400D02*
X320838100Y-73093400D01*
X320838100Y-73093400D02*
X321404700Y-73660000D01*
X322580000Y-73660000D02*
X323755300Y-73660000D01*
X350520000Y-71120000D02*
X349344700Y-71120000D01*
X323755300Y-73660000D02*
X324945900Y-74850600D01*
X324945900Y-74850600D02*
X345614100Y-74850600D01*
X345614100Y-74850600D02*
X349344700Y-71120000D01*
X321992400Y-73660000D02*
X322580000Y-73660000D01*
X321992400Y-73660000D02*
X321404700Y-73660000D01*
X339979000Y-156469700D02*
X341230800Y-155217900D01*
X341230800Y-155217900D02*
X341230800Y-151809800D01*
X341230800Y-151809800D02*
X340423600Y-151002600D01*
X340423600Y-151002600D02*
X325695400Y-151002600D01*
X325695400Y-151002600D02*
X324822900Y-151875100D01*
X339979000Y-160655000D02*
X339979000Y-156469700D01*
X350520000Y-96520000D02*
X338250400Y-96520000D01*
X338250400Y-96520000D02*
X335722600Y-99047800D01*
X333629000Y-160655000D02*
X333629000Y-155549600D01*
X334268801Y-154909799D02*
X334568800Y-154609800D01*
X333629000Y-155549600D02*
X334268801Y-154909799D01*
X326089600Y-77399200D02*
X313060000Y-77399200D01*
X313060000Y-77399200D02*
X310020900Y-80438300D01*
X298836700Y-149503800D02*
X273638000Y-149503800D01*
X354390100Y-77399200D02*
X326089600Y-77399200D01*
X321404700Y-68580000D02*
X320210700Y-69774000D01*
X320210700Y-69774000D02*
X236014400Y-69774000D01*
X236014400Y-69774000D02*
X233550500Y-67310100D01*
X233550500Y-67310100D02*
X227627100Y-67310100D01*
X322580000Y-68580000D02*
X321404700Y-68580000D01*
X323167700Y-68580000D02*
X322580000Y-68580000D01*
X323167700Y-68580000D02*
X323755300Y-68580000D01*
X323755300Y-68580000D02*
X325104500Y-69929200D01*
X325104500Y-69929200D02*
X330890100Y-69929200D01*
X358140000Y-101600000D02*
X356964700Y-101600000D01*
X351760400Y-100925300D02*
X356290000Y-100925300D01*
X356290000Y-100925300D02*
X356964700Y-101600000D01*
X58039000Y-157797500D02*
X71513200Y-144323300D01*
X122639100Y-144825300D02*
X135111600Y-144825300D01*
X122276200Y-144462400D02*
X122639100Y-144825300D01*
X135111600Y-144825300D02*
X135549100Y-145262800D01*
X138959500Y-145262800D02*
X141466900Y-147770200D01*
X159255100Y-147770200D02*
X159258700Y-147773800D01*
X159258700Y-147773800D02*
X161182104Y-147773800D01*
X163262504Y-145693400D02*
X175920899Y-145693400D01*
X175933600Y-145706101D02*
X200367400Y-145706101D01*
X200380101Y-145693400D02*
X205129400Y-145693400D01*
X206645436Y-145830300D02*
X207069700Y-145830300D01*
X175920899Y-145693400D02*
X175933600Y-145706101D01*
X200367400Y-145706101D02*
X200380101Y-145693400D01*
X135549100Y-145262800D02*
X138959500Y-145262800D01*
X161182104Y-147773800D02*
X163262504Y-145693400D01*
X141466900Y-147770200D02*
X159255100Y-147770200D01*
X205266300Y-145830300D02*
X206645436Y-145830300D01*
X205129400Y-145693400D02*
X205266300Y-145830300D01*
X99687500Y-144462400D02*
X122276200Y-144462400D01*
X99371500Y-144146400D02*
X99687500Y-144462400D01*
X80259400Y-144146400D02*
X99371500Y-144146400D01*
X80082500Y-144323300D02*
X80259400Y-144146400D01*
X71513200Y-144323300D02*
X80082500Y-144323300D01*
X58039000Y-160655000D02*
X58039000Y-157797500D01*
X322580000Y-66040000D02*
X321404700Y-66040000D01*
X263333800Y-63879500D02*
X267719300Y-63879500D01*
X267719300Y-63879500D02*
X268680500Y-64840700D01*
X268680500Y-64840700D02*
X270415400Y-64840700D01*
X270415400Y-64840700D02*
X272829600Y-67254900D01*
X272829600Y-67254900D02*
X320189800Y-67254900D01*
X320189800Y-67254900D02*
X321404700Y-66040000D01*
X323755300Y-66040000D02*
X325006400Y-67291100D01*
X325006400Y-67291100D02*
X355675800Y-67291100D01*
X355675800Y-67291100D02*
X356964700Y-68580000D01*
X322580000Y-66040000D02*
X323755300Y-66040000D01*
X358140000Y-68580000D02*
X356964700Y-68580000D01*
X201661050Y-110591700D02*
X159629600Y-110591700D01*
X204939550Y-107313200D02*
X201661050Y-110591700D01*
X235834100Y-107313200D02*
X204939550Y-107313200D01*
X236278800Y-106868500D02*
X235834100Y-107313200D01*
X256145700Y-104688100D02*
X253965300Y-106868500D01*
X253965300Y-106868500D02*
X236278800Y-106868500D01*
X148710900Y-154623900D02*
X148835900Y-154498900D01*
X145219600Y-154228300D02*
X145615200Y-154623900D01*
X145219600Y-154228200D02*
X145219600Y-154228300D01*
X145615200Y-154623900D02*
X148710900Y-154623900D01*
X133059600Y-149778000D02*
X137509800Y-154228200D01*
X120587100Y-149778000D02*
X133059600Y-149778000D01*
X137509800Y-154228200D02*
X145219600Y-154228200D01*
X99529900Y-149665200D02*
X120474300Y-149665200D01*
X120474300Y-149665200D02*
X120587100Y-149778000D01*
X86614000Y-151282400D02*
X88049600Y-149846800D01*
X86614000Y-160655000D02*
X86614000Y-151282400D01*
X88049600Y-149846800D02*
X97120000Y-149846800D01*
X97120000Y-149846800D02*
X97783100Y-149183700D01*
X97783100Y-149183700D02*
X99048400Y-149183700D01*
X99048400Y-149183700D02*
X99529900Y-149665200D01*
X346731000Y-103675100D02*
X342764200Y-103675100D01*
X342764200Y-103675100D02*
X341308000Y-105131300D01*
X323755300Y-63500000D02*
X325095600Y-62159700D01*
X325095600Y-62159700D02*
X331564700Y-62159700D01*
X331564700Y-62159700D02*
X334080400Y-64675400D01*
X334080400Y-64675400D02*
X351863400Y-64675400D01*
X322580000Y-63500000D02*
X323755300Y-63500000D01*
X343154000Y-160655000D02*
X343154000Y-155854400D01*
X343154000Y-155854400D02*
X342463399Y-155163799D01*
X342463399Y-155163799D02*
X342163400Y-154863800D01*
X319681800Y-55600500D02*
X324333700Y-55600500D01*
X324333700Y-55600500D02*
X324333700Y-55600400D01*
X324333700Y-55600400D02*
X325767600Y-54166500D01*
X325767600Y-54166500D02*
X329131700Y-54166500D01*
X326827800Y-155713600D02*
X324665600Y-155713600D01*
X324665600Y-155713600D02*
X322980900Y-154028900D01*
X322580000Y-35560000D02*
X322580000Y-38100000D01*
X350520000Y-8795300D02*
X350152700Y-8795300D01*
X350152700Y-8795300D02*
X348997500Y-9950500D01*
X348997500Y-9950500D02*
X348997500Y-12609900D01*
X350520000Y-7620000D02*
X350520000Y-8795300D01*
X278162100Y-144024700D02*
X320530300Y-144024700D01*
X311364100Y-5969000D02*
X319365100Y-13970000D01*
X279146000Y-5969000D02*
X311364100Y-5969000D01*
X33020000Y-11335300D02*
X32654700Y-11335300D01*
X271145000Y-13970000D02*
X279146000Y-5969000D01*
X33020000Y-10160000D02*
X33020000Y-11335300D01*
X32654700Y-11335300D02*
X31837400Y-12152600D01*
X31837400Y-12152600D02*
X31837400Y-13181100D01*
X31837400Y-13181100D02*
X32626300Y-13970000D01*
X32626300Y-13970000D02*
X271145000Y-13970000D01*
X358140000Y-17780000D02*
X358140000Y-18955300D01*
X240472800Y-31183200D02*
X313838100Y-31183200D01*
X313838100Y-31183200D02*
X326066000Y-18955300D01*
X326066000Y-18955300D02*
X358140000Y-18955300D01*
X168586400Y-111417100D02*
X202083100Y-111417100D01*
X202083100Y-111417100D02*
X205511700Y-107988500D01*
X150114000Y-155549596D02*
X150652201Y-155011395D01*
X150114000Y-160655000D02*
X150114000Y-155549596D01*
X150652201Y-155011395D02*
X150952200Y-154711396D01*
D24*
X339852000Y-152400000D02*
X337820000Y-152400000D01*
X337820000Y-152400000D02*
X336804000Y-153416000D01*
X336804000Y-153416000D02*
X336804000Y-160655000D01*
X264141600Y-60960000D02*
X264126700Y-60974900D01*
X264126700Y-60974900D02*
X264076900Y-60974900D01*
X264141600Y-60960000D02*
X299720000Y-60960000D01*
D25*
X350520000Y-129159000D02*
X350770100Y-129409100D01*
X350770100Y-129409100D02*
X356194300Y-129409100D01*
D24*
X101868100Y-113792000D02*
X121920000Y-113792000D01*
X91440000Y-113792000D02*
X101868100Y-113792000D01*
D25*
X23924700Y-129159000D02*
X23068200Y-128302500D01*
X23068200Y-128302500D02*
X22103500Y-128302500D01*
D24*
X154483300Y-33020000D02*
X232410000Y-33020000D01*
X152400000Y-33020000D02*
X154483300Y-33020000D01*
X262742900Y-113792000D02*
X269240000Y-113792000D01*
X257555200Y-113792000D02*
X262742900Y-113792000D01*
X238760000Y-60960000D02*
X264141600Y-60960000D01*
X145305800Y-86360000D02*
X152400000Y-86360000D01*
X121920000Y-86360000D02*
X145305800Y-86360000D01*
X25942200Y-58420000D02*
X33020000Y-58420000D01*
X12700000Y-61200000D02*
X15508000Y-61200000D01*
X15508000Y-61200000D02*
X18288000Y-58420000D01*
X18288000Y-58420000D02*
X25942200Y-58420000D01*
D25*
X297320800Y-127875500D02*
X296037300Y-129159000D01*
X296037300Y-129159000D02*
X292100000Y-129159000D01*
X299720000Y-115125500D02*
X298320100Y-115125500D01*
X298320100Y-115125500D02*
X295929000Y-117516600D01*
D24*
X299720000Y-115125500D02*
X299720000Y-113792000D01*
X299720000Y-116459000D02*
X299720000Y-115125500D01*
D25*
X261620000Y-129159000D02*
X260144700Y-129159000D01*
X257803700Y-128302500D02*
X259288200Y-128302500D01*
X259288200Y-128302500D02*
X260144700Y-129159000D01*
D24*
X241808000Y-113792000D02*
X257555200Y-113792000D01*
X210443900Y-60960000D02*
X238760000Y-60960000D01*
X180340000Y-60960000D02*
X210443900Y-60960000D01*
D25*
X176626400Y-129159000D02*
X172720000Y-129159000D01*
D24*
X81755500Y-113792000D02*
X91440000Y-113792000D01*
X66040000Y-113792000D02*
X81755500Y-113792000D01*
D25*
X25400000Y-129159000D02*
X23924700Y-129159000D01*
D24*
X261620000Y-2540000D02*
X358140000Y-2540000D01*
X261620000Y-5080000D02*
X261620000Y-2540000D01*
X63500000Y-33020000D02*
X91440000Y-33020000D01*
X63500000Y-35560000D02*
X63500000Y-33020000D01*
X33020000Y-33020000D02*
X63500000Y-33020000D01*
X12700000Y-35560000D02*
X14970000Y-35560000D01*
X14970000Y-35560000D02*
X17510000Y-33020000D01*
X17510000Y-33020000D02*
X33020000Y-33020000D01*
X118872000Y-2540000D02*
X261620000Y-2540000D01*
X114300000Y-2540000D02*
X118872000Y-2540000D01*
X238760000Y-63500000D02*
X238760000Y-60960000D01*
X63500000Y-58420000D02*
X91440000Y-58420000D01*
X63500000Y-63500000D02*
X63500000Y-58420000D01*
X33020000Y-58420000D02*
X63500000Y-58420000D01*
X238760000Y-86360000D02*
X269240000Y-86360000D01*
X238760000Y-88900000D02*
X238760000Y-86360000D01*
X210820000Y-86360000D02*
X238760000Y-86360000D01*
X210820000Y-88900000D02*
X210820000Y-86360000D01*
X152400000Y-86360000D02*
X180848000Y-86360000D01*
X152400000Y-88900000D02*
X152400000Y-86360000D01*
X91440000Y-86360000D02*
X121920000Y-86360000D01*
X91440000Y-88900000D02*
X91440000Y-86360000D01*
X299720000Y-113792000D02*
X322580000Y-113792000D01*
X269240000Y-113792000D02*
X299720000Y-113792000D01*
X231140000Y-111252000D02*
X239268000Y-111252000D01*
X239268000Y-111252000D02*
X241808000Y-113792000D01*
X210820000Y-114300000D02*
X227076000Y-114300000D01*
X227076000Y-114300000D02*
X230124000Y-111252000D01*
X230124000Y-111252000D02*
X231140000Y-111252000D01*
X210820000Y-116459000D02*
X210820000Y-114300000D01*
X156464000Y-114300000D02*
X180340000Y-114300000D01*
X121920000Y-116459000D02*
X121920000Y-113792000D01*
X55880000Y-111760000D02*
X64008000Y-111760000D01*
X64008000Y-111760000D02*
X66040000Y-113792000D01*
X33020000Y-114300000D02*
X51816000Y-114300000D01*
X51816000Y-114300000D02*
X54356000Y-111760000D01*
X54356000Y-111760000D02*
X55880000Y-111760000D01*
X115316000Y-33020000D02*
X121920000Y-33020000D01*
X91440000Y-33020000D02*
X115316000Y-33020000D01*
X180340000Y-63500000D02*
X180340000Y-60960000D01*
X152400000Y-60960000D02*
X180340000Y-60960000D01*
X114300000Y-59944000D02*
X115316000Y-60960000D01*
X115316000Y-60960000D02*
X152400000Y-60960000D01*
X91440000Y-58420000D02*
X112776000Y-58420000D01*
X112776000Y-58420000D02*
X114300000Y-59944000D01*
X91440000Y-63500000D02*
X91440000Y-58420000D01*
X358140000Y-88900000D02*
X358140000Y-86360000D01*
X351790000Y-86360000D02*
X358140000Y-86360000D01*
X330200000Y-86360000D02*
X351790000Y-86360000D01*
X358140000Y-116459000D02*
X358140000Y-113792000D01*
X351790000Y-113792000D02*
X358140000Y-113792000D01*
X332740000Y-113792000D02*
X351790000Y-113792000D01*
X358140000Y-63500000D02*
X358140000Y-60960000D01*
X351790000Y-60960000D02*
X358140000Y-60960000D01*
X299720000Y-60960000D02*
X351790000Y-60960000D01*
X330200000Y-33020000D02*
X358140000Y-33020000D01*
X330200000Y-35560000D02*
X330200000Y-33020000D01*
X323850000Y-33020000D02*
X330200000Y-33020000D01*
X299720000Y-33020000D02*
X323850000Y-33020000D01*
X238760000Y-33020000D02*
X269240000Y-33020000D01*
X238760000Y-35560000D02*
X238760000Y-33020000D01*
X232410000Y-33020000D02*
X238760000Y-33020000D01*
X33020000Y-116459000D02*
X33020000Y-114300000D01*
X26670000Y-114300000D02*
X33020000Y-114300000D01*
X12700000Y-116840000D02*
X15748000Y-116840000D01*
X15748000Y-116840000D02*
X18288000Y-114300000D01*
X18288000Y-114300000D02*
X26670000Y-114300000D01*
X146304000Y-111760000D02*
X153924000Y-111760000D01*
X153924000Y-111760000D02*
X156464000Y-114300000D01*
X144780000Y-111760000D02*
X146304000Y-111760000D01*
X299720000Y-86360000D02*
X330200000Y-86360000D01*
X299720000Y-88900000D02*
X299720000Y-86360000D01*
X293370000Y-86360000D02*
X299720000Y-86360000D01*
X269240000Y-86360000D02*
X293370000Y-86360000D01*
X293370000Y-83820000D02*
X293370000Y-86360000D01*
X146050000Y-109220000D02*
X146050000Y-111506000D01*
X146050000Y-111506000D02*
X146304000Y-111760000D01*
X26670000Y-110490000D02*
X26670000Y-114300000D01*
X232410000Y-30480000D02*
X232410000Y-33020000D01*
X323850000Y-30480000D02*
X323850000Y-33020000D01*
X351790000Y-57150000D02*
X351790000Y-60960000D01*
X351790000Y-110490000D02*
X351790000Y-113792000D01*
X351790000Y-83820000D02*
X351790000Y-86360000D01*
X12700000Y-88900000D02*
X20320000Y-88900000D01*
X20320000Y-88900000D02*
X22860000Y-86360000D01*
X22860000Y-86360000D02*
X26670000Y-86360000D01*
X26670000Y-86360000D02*
X62484000Y-86360000D01*
X26670000Y-86360000D02*
X26670000Y-83820000D01*
X114300000Y-59944000D02*
X114300000Y-59690000D01*
X114300000Y-59690000D02*
X115570000Y-58420000D01*
X115316000Y-30480000D02*
X115316000Y-33020000D01*
X121920000Y-35560000D02*
X121920000Y-33020000D01*
X55880000Y-114300000D02*
X55880000Y-111760000D01*
X63500000Y-116840000D02*
X65024000Y-116840000D01*
X65024000Y-116840000D02*
X66040000Y-115824000D01*
X66040000Y-115824000D02*
X66040000Y-113792000D01*
X91440000Y-116459000D02*
X91440000Y-113792000D01*
X121920000Y-113792000D02*
X141732000Y-113792000D01*
X141732000Y-113792000D02*
X143764000Y-111760000D01*
X143764000Y-111760000D02*
X144780000Y-111760000D01*
X144780000Y-114300000D02*
X144780000Y-111760000D01*
X152400000Y-116840000D02*
X153924000Y-116840000D01*
X153924000Y-116840000D02*
X156464000Y-114300000D01*
X180340000Y-116459000D02*
X180340000Y-114300000D01*
X231140000Y-114300000D02*
X231140000Y-111252000D01*
X238760000Y-116840000D02*
X240284000Y-116840000D01*
X240284000Y-116840000D02*
X241808000Y-115316000D01*
X241808000Y-115316000D02*
X241808000Y-113792000D01*
X269240000Y-116459000D02*
X269240000Y-113792000D01*
X322580000Y-113792000D02*
X332740000Y-113792000D01*
X330200000Y-119380000D02*
X331724000Y-119380000D01*
X331724000Y-119380000D02*
X332740000Y-118364000D01*
X332740000Y-118364000D02*
X332740000Y-113792000D01*
X322580000Y-116840000D02*
X322580000Y-113792000D01*
X358140000Y-113792000D02*
X362296000Y-113792000D01*
X362296000Y-113792000D02*
X365344000Y-116840000D01*
X365344000Y-116840000D02*
X368300000Y-116840000D01*
X12700000Y-116840000D02*
X4572000Y-116840000D01*
X62484000Y-86360000D02*
X91440000Y-86360000D01*
X62576400Y-88900000D02*
X62576400Y-86452400D01*
X62576400Y-86452400D02*
X62484000Y-86360000D01*
X121920000Y-88900000D02*
X121920000Y-86360000D01*
X180848000Y-86360000D02*
X210820000Y-86360000D01*
X180802000Y-88900000D02*
X180802000Y-86406200D01*
X180802000Y-86406200D02*
X180848000Y-86360000D01*
X269240000Y-88900000D02*
X269240000Y-86360000D01*
X330200000Y-88900000D02*
X330200000Y-86360000D01*
X358140000Y-86360000D02*
X362712000Y-86360000D01*
X362712000Y-86360000D02*
X365492000Y-89140000D01*
X365492000Y-89140000D02*
X368300000Y-89140000D01*
X12700000Y-88900000D02*
X5080000Y-88900000D01*
X33020000Y-60960000D02*
X33020000Y-58420000D01*
X152400000Y-63500000D02*
X152400000Y-60960000D01*
X299720000Y-63500000D02*
X299720000Y-60960000D01*
X358140000Y-60960000D02*
X362204000Y-60960000D01*
X362204000Y-60960000D02*
X364744000Y-63500000D01*
X364744000Y-63500000D02*
X368300000Y-63500000D01*
X12700000Y-61200000D02*
X5320000Y-61200000D01*
X358140000Y-33020000D02*
X363220000Y-33020000D01*
X363220000Y-33020000D02*
X365760000Y-35560000D01*
X365760000Y-35560000D02*
X368300000Y-35560000D01*
X358140000Y-2540000D02*
X360172000Y-2540000D01*
X360172000Y-2540000D02*
X366268000Y-8636000D01*
X366268000Y-8636000D02*
X368300000Y-8636000D01*
X269240000Y-7620000D02*
X267208000Y-7620000D01*
X267208000Y-7620000D02*
X264668000Y-5080000D01*
X264668000Y-5080000D02*
X261620000Y-5080000D01*
X12700000Y-10160000D02*
X15240000Y-10160000D01*
X15240000Y-10160000D02*
X22860000Y-2540000D01*
X22860000Y-2540000D02*
X33020000Y-2540000D01*
X121920000Y-7620000D02*
X119888000Y-7620000D01*
X119888000Y-7620000D02*
X118872000Y-6604000D01*
X118872000Y-6604000D02*
X118872000Y-2540000D01*
X33020000Y-2540000D02*
X114300000Y-2540000D01*
X33020000Y-35560000D02*
X33020000Y-33020000D01*
X91440000Y-35560000D02*
X91440000Y-33020000D01*
X121920000Y-33020000D02*
X152400000Y-33020000D01*
X152400000Y-38100000D02*
X152400000Y-33020000D01*
X269240000Y-33020000D02*
X299720000Y-33020000D01*
X269240000Y-35560000D02*
X269240000Y-33020000D01*
X299720000Y-35560000D02*
X299720000Y-33020000D01*
X358140000Y-35560000D02*
X358140000Y-33020000D01*
X368300000Y-35560000D02*
X374396000Y-35560000D01*
X12700000Y-35560000D02*
X4572000Y-35560000D01*
X33020000Y-7620000D02*
X33020000Y-2540000D01*
X114300000Y-5080000D02*
X114300000Y-2540000D01*
X358140000Y-7620000D02*
X358140000Y-2540000D01*
X6604000Y-10160000D02*
X12700000Y-10160000D01*
X372872000Y-8636000D02*
X368300000Y-8636000D01*
X172339000Y-155575000D02*
X173736000Y-154178000D01*
X172339000Y-160655000D02*
X172339000Y-155575000D01*
X212979000Y-155575000D02*
X212979000Y-160655000D01*
X210312000Y-152908000D02*
X212979000Y-155575000D01*
X173736000Y-154178000D02*
X175006000Y-152908000D01*
X175006000Y-152908000D02*
X210312000Y-152908000D01*
X195580000Y-114300000D02*
X210820000Y-114300000D01*
X185166000Y-115508370D02*
X185166000Y-114300000D01*
X185166000Y-116586000D02*
X185166000Y-115508370D01*
X180340000Y-114300000D02*
X185166000Y-114300000D01*
X185166000Y-114300000D02*
X195580000Y-114300000D01*
D25*
X260144700Y-53340000D02*
X258624000Y-54860700D01*
X258624000Y-54860700D02*
X234136000Y-54860700D01*
X234136000Y-54860700D02*
X232615300Y-53340000D01*
X120570000Y-58420000D02*
X125650000Y-53340000D01*
X125650000Y-53340000D02*
X144780000Y-53340000D01*
X54404700Y-78740000D02*
X49435100Y-83709600D01*
X49435100Y-83709600D02*
X31780400Y-83709600D01*
X31780400Y-83709600D02*
X31670000Y-83820000D01*
X62024700Y-134620000D02*
X62024700Y-134143000D01*
X62024700Y-134143000D02*
X59961700Y-132080000D01*
X59961700Y-132080000D02*
X55880000Y-132080000D01*
X322580000Y-53340000D02*
X320563100Y-53340000D01*
X320563100Y-53340000D02*
X319060500Y-54842600D01*
X319060500Y-54842600D02*
X295077900Y-54842600D01*
X295077900Y-54842600D02*
X293575300Y-53340000D01*
X171244700Y-133021900D02*
X155244000Y-133021900D01*
X155244000Y-133021900D02*
X153875300Y-134390600D01*
X153875300Y-134390600D02*
X153875300Y-134620000D01*
X287646300Y-57823400D02*
X267890000Y-57823400D01*
X151050000Y-83820000D02*
X166164700Y-83820000D01*
X166164700Y-83820000D02*
X171244700Y-78740000D01*
X231140000Y-132080000D02*
X228493900Y-132080000D01*
X228493900Y-132080000D02*
X227361800Y-133212100D01*
X227361800Y-133212100D02*
X206188400Y-133212100D01*
X206188400Y-133212100D02*
X204675300Y-131699000D01*
X350520000Y-131699000D02*
X351995300Y-131699000D01*
X350520000Y-78740000D02*
X354528300Y-78740000D01*
X354528300Y-78740000D02*
X356790000Y-81001700D01*
X55880000Y-78740000D02*
X54404700Y-78740000D01*
X328724700Y-137160000D02*
X326184700Y-134620000D01*
X326184700Y-134620000D02*
X322580000Y-134620000D01*
X238760000Y-134620000D02*
X257223700Y-134620000D01*
X257223700Y-134620000D02*
X260144700Y-131699000D01*
X64975300Y-134620000D02*
X67737200Y-131858100D01*
X67737200Y-131858100D02*
X83660900Y-131858100D01*
X83660900Y-131858100D02*
X83820000Y-131699000D01*
X112824700Y-53340000D02*
X111327800Y-54836900D01*
X111327800Y-54836900D02*
X86792200Y-54836900D01*
X86792200Y-54836900D02*
X85295300Y-53340000D01*
X287646300Y-57823400D02*
X287646300Y-56318400D01*
X287646300Y-56318400D02*
X290624700Y-53340000D01*
X350520000Y-25400000D02*
X349044700Y-25400000D01*
X328850000Y-30480000D02*
X343964700Y-30480000D01*
X343964700Y-30480000D02*
X349044700Y-25400000D01*
X292100000Y-53340000D02*
X293575300Y-53340000D01*
X291362400Y-53340000D02*
X292100000Y-53340000D01*
X291362400Y-53340000D02*
X290624700Y-53340000D01*
X263095300Y-53340000D02*
X267578700Y-57823400D01*
X267578700Y-57823400D02*
X267890000Y-57823400D01*
X267890000Y-58420000D02*
X267890000Y-57823400D01*
X261620000Y-53340000D02*
X260144700Y-53340000D01*
X231140000Y-53340000D02*
X232615300Y-53340000D01*
X231140000Y-104140000D02*
X229664700Y-104140000D01*
X83820000Y-53340000D02*
X85295300Y-53340000D01*
X114300000Y-53340000D02*
X112824700Y-53340000D01*
X55880000Y-53340000D02*
X34210000Y-53340000D01*
X34210000Y-53340000D02*
X31670000Y-55880000D01*
X350520000Y-25400000D02*
X351995300Y-25400000D01*
X368300000Y-23636000D02*
X366624700Y-23636000D01*
X366624700Y-23636000D02*
X363336000Y-26924700D01*
X363336000Y-26924700D02*
X353520000Y-26924700D01*
X353520000Y-26924700D02*
X351995300Y-25400000D01*
X322580000Y-134620000D02*
X296496300Y-134620000D01*
X296496300Y-134620000D02*
X293575300Y-131699000D01*
X330200000Y-137160000D02*
X328724700Y-137160000D01*
X330798200Y-137160000D02*
X330200000Y-137160000D01*
X330798200Y-137160000D02*
X331675300Y-137160000D01*
X261620000Y-22860000D02*
X245030000Y-22860000D01*
X245030000Y-22860000D02*
X237410000Y-30480000D01*
X267764700Y-25400000D02*
X265224700Y-22860000D01*
X265224700Y-22860000D02*
X261620000Y-22860000D01*
X269240000Y-25400000D02*
X267764700Y-25400000D01*
X83820000Y-131699000D02*
X85295300Y-131699000D01*
X114300000Y-131699000D02*
X112824700Y-131699000D01*
X112824700Y-131699000D02*
X111312800Y-133210900D01*
X111312800Y-133210900D02*
X86807200Y-133210900D01*
X86807200Y-133210900D02*
X85295300Y-131699000D01*
X115037700Y-131699000D02*
X114300000Y-131699000D01*
X115037700Y-131699000D02*
X115775300Y-131699000D01*
X171244700Y-131699000D02*
X171244700Y-133021900D01*
X201724700Y-131699000D02*
X200246400Y-133177300D01*
X200246400Y-133177300D02*
X171400100Y-133177300D01*
X171400100Y-133177300D02*
X171244700Y-133021900D01*
X172720000Y-131699000D02*
X171244700Y-131699000D01*
X203200000Y-131699000D02*
X201724700Y-131699000D01*
X152400000Y-134620000D02*
X150924700Y-134620000D01*
X150924700Y-134620000D02*
X148384700Y-132080000D01*
X148384700Y-132080000D02*
X144780000Y-132080000D01*
X152998200Y-134620000D02*
X152400000Y-134620000D01*
X152998200Y-134620000D02*
X153875300Y-134620000D01*
X63500000Y-134620000D02*
X62024700Y-134620000D01*
X64098200Y-134620000D02*
X63500000Y-134620000D01*
X64098200Y-134620000D02*
X64975300Y-134620000D01*
X368300000Y-131840000D02*
X366624700Y-131840000D01*
X366624700Y-131840000D02*
X365268700Y-133196000D01*
X365268700Y-133196000D02*
X353263000Y-133196000D01*
X353263000Y-133196000D02*
X351995300Y-131928300D01*
X351995300Y-131928300D02*
X351995300Y-131699000D01*
X14375300Y-103900000D02*
X19324900Y-108849600D01*
X19324900Y-108849600D02*
X30029600Y-108849600D01*
X30029600Y-108849600D02*
X31670000Y-110490000D01*
X12700000Y-103900000D02*
X14375300Y-103900000D01*
X56431700Y-105672800D02*
X36487200Y-105672800D01*
X36487200Y-105672800D02*
X31670000Y-110490000D01*
X25400000Y-78740000D02*
X23924700Y-78740000D01*
X12700000Y-76200000D02*
X21384700Y-76200000D01*
X21384700Y-76200000D02*
X23924700Y-78740000D01*
X25400000Y-25400000D02*
X23924700Y-25400000D01*
X12700000Y-25160000D02*
X23684700Y-25160000D01*
X23684700Y-25160000D02*
X23924700Y-25400000D01*
X356790000Y-81001700D02*
X364123000Y-81001700D01*
X364123000Y-81001700D02*
X366624700Y-78500000D01*
X356790000Y-81001700D02*
X356790000Y-83820000D01*
X368300000Y-78500000D02*
X366624700Y-78500000D01*
X261620000Y-53340000D02*
X263095300Y-53340000D01*
X83820000Y-104140000D02*
X85295300Y-104140000D01*
X115037700Y-104140000D02*
X113559900Y-105617800D01*
X113559900Y-105617800D02*
X86773100Y-105617800D01*
X86773100Y-105617800D02*
X85295300Y-104140000D01*
X115037700Y-104140000D02*
X115775300Y-104140000D01*
X114300000Y-104140000D02*
X115037700Y-104140000D01*
X203200000Y-104140000D02*
X204675300Y-104140000D01*
X204675300Y-104140000D02*
X206184900Y-105649600D01*
X206184900Y-105649600D02*
X228155100Y-105649600D01*
X228155100Y-105649600D02*
X229664700Y-104140000D01*
X162560000Y-48180000D02*
X165020000Y-48180000D01*
X165020000Y-48180000D02*
X165100000Y-48260000D01*
X350520000Y-104140000D02*
X350520000Y-105615300D01*
X350520000Y-105615300D02*
X351915300Y-105615300D01*
X351915300Y-105615300D02*
X356790000Y-110490000D01*
X350520000Y-131699000D02*
X337136300Y-131699000D01*
X337136300Y-131699000D02*
X331675300Y-137160000D01*
X292100000Y-104140000D02*
X290624700Y-104140000D01*
X290624700Y-104140000D02*
X285544700Y-109220000D01*
X285544700Y-109220000D02*
X267890000Y-109220000D01*
X292100000Y-131699000D02*
X293575300Y-131699000D01*
X261620000Y-104140000D02*
X263095300Y-104140000D01*
X263095300Y-104140000D02*
X263095300Y-104425300D01*
X263095300Y-104425300D02*
X267890000Y-109220000D01*
X261620000Y-131699000D02*
X260144700Y-131699000D01*
X231140000Y-78740000D02*
X229664700Y-78740000D01*
X203200000Y-78740000D02*
X204675300Y-78740000D01*
X204675300Y-78740000D02*
X206162200Y-80226900D01*
X206162200Y-80226900D02*
X228177800Y-80226900D01*
X228177800Y-80226900D02*
X229664700Y-78740000D01*
X203200000Y-131699000D02*
X204675300Y-131699000D01*
X172720000Y-78740000D02*
X171244700Y-78740000D01*
X144780000Y-132080000D02*
X143304700Y-132080000D01*
X144780000Y-104140000D02*
X146255300Y-104140000D01*
X173182000Y-104140000D02*
X171706700Y-104140000D01*
X171706700Y-104140000D02*
X170231300Y-105615400D01*
X170231300Y-105615400D02*
X147730700Y-105615400D01*
X147730700Y-105615400D02*
X146255300Y-104140000D01*
X144780000Y-104140000D02*
X143304700Y-104140000D01*
X115775300Y-104140000D02*
X117250700Y-105615400D01*
X117250700Y-105615400D02*
X141829300Y-105615400D01*
X141829300Y-105615400D02*
X143304700Y-104140000D01*
X115775300Y-131699000D02*
X117252600Y-133176300D01*
X117252600Y-133176300D02*
X142208400Y-133176300D01*
X142208400Y-133176300D02*
X143304700Y-132080000D01*
X82344700Y-104140000D02*
X80811900Y-105672800D01*
X80811900Y-105672800D02*
X56431700Y-105672800D01*
X56431700Y-104140000D02*
X56431700Y-105672800D01*
X83820000Y-104140000D02*
X82344700Y-104140000D01*
X54956400Y-104140000D02*
X56431700Y-104140000D01*
X12700000Y-50560000D02*
X14375300Y-50560000D01*
X25400000Y-50800000D02*
X14615300Y-50800000D01*
X14615300Y-50800000D02*
X14375300Y-50560000D01*
X25400000Y-131699000D02*
X23924700Y-131699000D01*
X23924700Y-131699000D02*
X23783700Y-131840000D01*
X23783700Y-131840000D02*
X12700000Y-131840000D01*
X19939000Y-160655000D02*
X19939000Y-156130500D01*
D24*
X192471200Y-154686000D02*
X208915000Y-154686000D01*
X208915000Y-154686000D02*
X209804000Y-155575000D01*
X209804000Y-155575000D02*
X209804000Y-160655000D01*
X175514000Y-160655000D02*
X175514000Y-155575000D01*
X175514000Y-155575000D02*
X176403000Y-154686000D01*
X176403000Y-154686000D02*
X192471200Y-154686000D01*
X121920000Y-25400000D02*
X118872000Y-25400000D01*
X118872000Y-25400000D02*
X116332000Y-22860000D01*
X116332000Y-22860000D02*
X114300000Y-22860000D01*
D25*
X26590000Y-50800000D02*
X25400000Y-50800000D01*
X31670000Y-55880000D02*
X26590000Y-50800000D01*
X365379000Y-155321000D02*
X368300000Y-152400000D01*
X365379000Y-160655000D02*
X365379000Y-155321000D01*
D27*
G36*
X376872356Y-5225001D02*
G01*
X377065514Y-5276999D01*
X377246649Y-5361892D01*
X377410197Y-5477073D01*
X377551146Y-5619012D01*
X377665183Y-5783365D01*
X377748806Y-5965084D01*
X377799452Y-6158603D01*
X377816021Y-6363561D01*
X376817861Y-149100473D01*
X376798757Y-149303387D01*
X376746325Y-149494601D01*
X376661628Y-149673865D01*
X376547212Y-149835792D01*
X376406524Y-149975499D01*
X376243802Y-150088779D01*
X376063947Y-150172222D01*
X375872371Y-150223316D01*
X375669330Y-150241000D01*
X366522000Y-150241000D01*
X366510931Y-150241483D01*
X366290398Y-150260777D01*
X366268597Y-150264621D01*
X366054764Y-150321917D01*
X366033961Y-150329489D01*
X365833327Y-150423047D01*
X365814156Y-150434116D01*
X365632816Y-150561092D01*
X365615857Y-150575321D01*
X365459321Y-150731857D01*
X365445092Y-150748816D01*
X365318116Y-150930156D01*
X365307047Y-150949327D01*
X365213489Y-151149961D01*
X365205917Y-151170764D01*
X365148621Y-151384597D01*
X365144777Y-151406398D01*
X365125483Y-151626931D01*
X365125000Y-151638000D01*
X365125000Y-153156452D01*
X365107157Y-153360395D01*
X365055612Y-153552765D01*
X364971445Y-153733260D01*
X364857220Y-153896390D01*
X364716390Y-154037220D01*
X364553260Y-154151445D01*
X364372765Y-154235612D01*
X364180395Y-154287157D01*
X363976452Y-154305000D01*
X360431548Y-154305000D01*
X360227605Y-154287157D01*
X360035235Y-154235612D01*
X359854740Y-154151445D01*
X359691610Y-154037220D01*
X359550780Y-153896390D01*
X359436555Y-153733260D01*
X359352388Y-153552765D01*
X359300843Y-153360395D01*
X359283000Y-153156452D01*
X359283000Y-152780435D01*
X360613871Y-152780435D01*
X360718644Y-153083344D01*
X360880499Y-153359992D01*
X361093215Y-153599748D01*
X361348618Y-153793399D01*
X361636893Y-153933502D01*
X361823566Y-153990124D01*
X362077000Y-153870777D01*
X362077000Y-152527000D01*
X362331000Y-152527000D01*
X362331000Y-153870777D01*
X362584434Y-153990124D01*
X362771107Y-153933502D01*
X363059382Y-153793399D01*
X363314785Y-153599748D01*
X363527501Y-153359992D01*
X363689356Y-153083344D01*
X363794129Y-152780435D01*
X363675315Y-152527000D01*
X362331000Y-152527000D01*
X362077000Y-152527000D01*
X360732685Y-152527000D01*
X360613871Y-152780435D01*
X359283000Y-152780435D01*
X359283000Y-152019565D01*
X360613871Y-152019565D01*
X360732685Y-152273000D01*
X362077000Y-152273000D01*
X362077000Y-150929223D01*
X362331000Y-150929223D01*
X362331000Y-152273000D01*
X363675315Y-152273000D01*
X363794129Y-152019565D01*
X363689356Y-151716656D01*
X363527501Y-151440008D01*
X363314785Y-151200252D01*
X363059382Y-151006601D01*
X362771107Y-150866498D01*
X362584434Y-150809876D01*
X362331000Y-150929223D01*
X362077000Y-150929223D01*
X361823566Y-150809876D01*
X361636893Y-150866498D01*
X361348618Y-151006601D01*
X361093215Y-151200252D01*
X360880499Y-151440008D01*
X360718644Y-151716656D01*
X360613871Y-152019565D01*
X359283000Y-152019565D01*
X359283000Y-143515548D01*
X359300843Y-143311605D01*
X359352388Y-143119235D01*
X359436555Y-142938740D01*
X359550780Y-142775610D01*
X359691610Y-142634780D01*
X359854740Y-142520555D01*
X360035235Y-142436388D01*
X360227605Y-142384843D01*
X360431548Y-142367000D01*
X370078000Y-142367000D01*
X370089069Y-142366517D01*
X370309602Y-142347223D01*
X370331403Y-142343379D01*
X370545236Y-142286083D01*
X370566039Y-142278511D01*
X370766673Y-142184953D01*
X370785844Y-142173884D01*
X370967184Y-142046908D01*
X370984143Y-142032679D01*
X371140679Y-141876143D01*
X371154908Y-141859184D01*
X371281884Y-141677844D01*
X371292953Y-141658673D01*
X371386511Y-141458039D01*
X371394083Y-141437236D01*
X371451379Y-141223403D01*
X371455223Y-141201602D01*
X371474517Y-140981069D01*
X371475000Y-140970000D01*
X371475000Y-5596321D01*
X371489040Y-5489675D01*
X371526993Y-5398049D01*
X371587368Y-5319368D01*
X371666049Y-5258993D01*
X371757675Y-5221040D01*
X371864321Y-5207000D01*
X376667523Y-5207000D01*
X376872356Y-5225001D01*
X376872356Y-5225001D01*
G37*
X376872356Y-5225001D02*
X377065514Y-5276999D01*
X377246649Y-5361892D01*
X377410197Y-5477073D01*
X377551146Y-5619012D01*
X377665183Y-5783365D01*
X377748806Y-5965084D01*
X377799452Y-6158603D01*
X377816021Y-6363561D01*
X376817861Y-149100473D01*
X376798757Y-149303387D01*
X376746325Y-149494601D01*
X376661628Y-149673865D01*
X376547212Y-149835792D01*
X376406524Y-149975499D01*
X376243802Y-150088779D01*
X376063947Y-150172222D01*
X375872371Y-150223316D01*
X375669330Y-150241000D01*
X366522000Y-150241000D01*
X366510931Y-150241483D01*
X366290398Y-150260777D01*
X366268597Y-150264621D01*
X366054764Y-150321917D01*
X366033961Y-150329489D01*
X365833327Y-150423047D01*
X365814156Y-150434116D01*
X365632816Y-150561092D01*
X365615857Y-150575321D01*
X365459321Y-150731857D01*
X365445092Y-150748816D01*
X365318116Y-150930156D01*
X365307047Y-150949327D01*
X365213489Y-151149961D01*
X365205917Y-151170764D01*
X365148621Y-151384597D01*
X365144777Y-151406398D01*
X365125483Y-151626931D01*
X365125000Y-151638000D01*
X365125000Y-153156452D01*
X365107157Y-153360395D01*
X365055612Y-153552765D01*
X364971445Y-153733260D01*
X364857220Y-153896390D01*
X364716390Y-154037220D01*
X364553260Y-154151445D01*
X364372765Y-154235612D01*
X364180395Y-154287157D01*
X363976452Y-154305000D01*
X360431548Y-154305000D01*
X360227605Y-154287157D01*
X360035235Y-154235612D01*
X359854740Y-154151445D01*
X359691610Y-154037220D01*
X359550780Y-153896390D01*
X359436555Y-153733260D01*
X359352388Y-153552765D01*
X359300843Y-153360395D01*
X359283000Y-153156452D01*
X359283000Y-152780435D01*
X360613871Y-152780435D01*
X360718644Y-153083344D01*
X360880499Y-153359992D01*
X361093215Y-153599748D01*
X361348618Y-153793399D01*
X361636893Y-153933502D01*
X361823566Y-153990124D01*
X362077000Y-153870777D01*
X362077000Y-152527000D01*
X362331000Y-152527000D01*
X362331000Y-153870777D01*
X362584434Y-153990124D01*
X362771107Y-153933502D01*
X363059382Y-153793399D01*
X363314785Y-153599748D01*
X363527501Y-153359992D01*
X363689356Y-153083344D01*
X363794129Y-152780435D01*
X363675315Y-152527000D01*
X362331000Y-152527000D01*
X362077000Y-152527000D01*
X360732685Y-152527000D01*
X360613871Y-152780435D01*
X359283000Y-152780435D01*
X359283000Y-152019565D01*
X360613871Y-152019565D01*
X360732685Y-152273000D01*
X362077000Y-152273000D01*
X362077000Y-150929223D01*
X362331000Y-150929223D01*
X362331000Y-152273000D01*
X363675315Y-152273000D01*
X363794129Y-152019565D01*
X363689356Y-151716656D01*
X363527501Y-151440008D01*
X363314785Y-151200252D01*
X363059382Y-151006601D01*
X362771107Y-150866498D01*
X362584434Y-150809876D01*
X362331000Y-150929223D01*
X362077000Y-150929223D01*
X361823566Y-150809876D01*
X361636893Y-150866498D01*
X361348618Y-151006601D01*
X361093215Y-151200252D01*
X360880499Y-151440008D01*
X360718644Y-151716656D01*
X360613871Y-152019565D01*
X359283000Y-152019565D01*
X359283000Y-143515548D01*
X359300843Y-143311605D01*
X359352388Y-143119235D01*
X359436555Y-142938740D01*
X359550780Y-142775610D01*
X359691610Y-142634780D01*
X359854740Y-142520555D01*
X360035235Y-142436388D01*
X360227605Y-142384843D01*
X360431548Y-142367000D01*
X370078000Y-142367000D01*
X370089069Y-142366517D01*
X370309602Y-142347223D01*
X370331403Y-142343379D01*
X370545236Y-142286083D01*
X370566039Y-142278511D01*
X370766673Y-142184953D01*
X370785844Y-142173884D01*
X370967184Y-142046908D01*
X370984143Y-142032679D01*
X371140679Y-141876143D01*
X371154908Y-141859184D01*
X371281884Y-141677844D01*
X371292953Y-141658673D01*
X371386511Y-141458039D01*
X371394083Y-141437236D01*
X371451379Y-141223403D01*
X371455223Y-141201602D01*
X371474517Y-140981069D01*
X371475000Y-140970000D01*
X371475000Y-5596321D01*
X371489040Y-5489675D01*
X371526993Y-5398049D01*
X371587368Y-5319368D01*
X371666049Y-5258993D01*
X371757675Y-5221040D01*
X371864321Y-5207000D01*
X376667523Y-5207000D01*
X376872356Y-5225001D01*
G36*
X7564395Y-5224843D02*
G01*
X7756765Y-5276388D01*
X7937260Y-5360555D01*
X8100390Y-5474780D01*
X8241220Y-5615610D01*
X8355445Y-5778740D01*
X8439612Y-5959235D01*
X8491157Y-6151605D01*
X8509000Y-6355548D01*
X8509000Y-134366000D01*
X8509483Y-134377069D01*
X8528777Y-134597602D01*
X8532621Y-134619403D01*
X8589917Y-134833236D01*
X8597489Y-134854039D01*
X8691047Y-135054673D01*
X8702116Y-135073844D01*
X8829092Y-135255184D01*
X8843321Y-135272143D01*
X8999857Y-135428679D01*
X9016816Y-135442908D01*
X9198156Y-135569884D01*
X9217327Y-135580953D01*
X9417961Y-135674511D01*
X9438764Y-135682083D01*
X9652597Y-135739379D01*
X9674398Y-135743223D01*
X9894931Y-135762517D01*
X9906000Y-135763000D01*
X24632452Y-135763000D01*
X24836395Y-135780843D01*
X25028765Y-135832388D01*
X25209260Y-135916555D01*
X25372390Y-136030780D01*
X25513220Y-136171610D01*
X25627445Y-136334740D01*
X25711612Y-136515235D01*
X25763157Y-136707605D01*
X25781000Y-136911548D01*
X25781000Y-141980452D01*
X25763157Y-142184395D01*
X25711612Y-142376765D01*
X25627445Y-142557260D01*
X25513220Y-142720390D01*
X25372390Y-142861220D01*
X25209260Y-142975445D01*
X25028765Y-143059612D01*
X24836395Y-143111157D01*
X24632452Y-143129000D01*
X2291548Y-143129000D01*
X2087605Y-143111157D01*
X1895235Y-143059612D01*
X1714740Y-142975445D01*
X1551610Y-142861220D01*
X1410780Y-142720390D01*
X1296555Y-142557260D01*
X1212388Y-142376765D01*
X1160843Y-142184395D01*
X1143000Y-141980452D01*
X1143000Y-138048435D01*
X21523871Y-138048435D01*
X21628644Y-138351344D01*
X21790499Y-138627992D01*
X22003215Y-138867748D01*
X22258618Y-139061399D01*
X22546893Y-139201502D01*
X22733566Y-139258124D01*
X22987000Y-139138777D01*
X22987000Y-137795000D01*
X23241000Y-137795000D01*
X23241000Y-139138777D01*
X23494434Y-139258124D01*
X23681107Y-139201502D01*
X23969382Y-139061399D01*
X24224785Y-138867748D01*
X24437501Y-138627992D01*
X24599356Y-138351344D01*
X24704129Y-138048435D01*
X24585315Y-137795000D01*
X23241000Y-137795000D01*
X22987000Y-137795000D01*
X21642685Y-137795000D01*
X21523871Y-138048435D01*
X1143000Y-138048435D01*
X1143000Y-137287565D01*
X21523871Y-137287565D01*
X21642685Y-137541000D01*
X22987000Y-137541000D01*
X22987000Y-136197223D01*
X23241000Y-136197223D01*
X23241000Y-137541000D01*
X24585315Y-137541000D01*
X24704129Y-137287565D01*
X24599356Y-136984656D01*
X24437501Y-136708008D01*
X24224785Y-136468252D01*
X23969382Y-136274601D01*
X23681107Y-136134498D01*
X23494434Y-136077876D01*
X23241000Y-136197223D01*
X22987000Y-136197223D01*
X22733566Y-136077876D01*
X22546893Y-136134498D01*
X22258618Y-136274601D01*
X22003215Y-136468252D01*
X21790499Y-136708008D01*
X21628644Y-136984656D01*
X21523871Y-137287565D01*
X1143000Y-137287565D01*
X1143000Y-6355548D01*
X1160843Y-6151605D01*
X1212388Y-5959235D01*
X1296555Y-5778740D01*
X1410780Y-5615610D01*
X1551610Y-5474780D01*
X1714740Y-5360555D01*
X1895235Y-5276388D01*
X2087605Y-5224843D01*
X2291548Y-5207000D01*
X7360452Y-5207000D01*
X7564395Y-5224843D01*
X7564395Y-5224843D01*
G37*
X7564395Y-5224843D02*
X7756765Y-5276388D01*
X7937260Y-5360555D01*
X8100390Y-5474780D01*
X8241220Y-5615610D01*
X8355445Y-5778740D01*
X8439612Y-5959235D01*
X8491157Y-6151605D01*
X8509000Y-6355548D01*
X8509000Y-134366000D01*
X8509483Y-134377069D01*
X8528777Y-134597602D01*
X8532621Y-134619403D01*
X8589917Y-134833236D01*
X8597489Y-134854039D01*
X8691047Y-135054673D01*
X8702116Y-135073844D01*
X8829092Y-135255184D01*
X8843321Y-135272143D01*
X8999857Y-135428679D01*
X9016816Y-135442908D01*
X9198156Y-135569884D01*
X9217327Y-135580953D01*
X9417961Y-135674511D01*
X9438764Y-135682083D01*
X9652597Y-135739379D01*
X9674398Y-135743223D01*
X9894931Y-135762517D01*
X9906000Y-135763000D01*
X24632452Y-135763000D01*
X24836395Y-135780843D01*
X25028765Y-135832388D01*
X25209260Y-135916555D01*
X25372390Y-136030780D01*
X25513220Y-136171610D01*
X25627445Y-136334740D01*
X25711612Y-136515235D01*
X25763157Y-136707605D01*
X25781000Y-136911548D01*
X25781000Y-141980452D01*
X25763157Y-142184395D01*
X25711612Y-142376765D01*
X25627445Y-142557260D01*
X25513220Y-142720390D01*
X25372390Y-142861220D01*
X25209260Y-142975445D01*
X25028765Y-143059612D01*
X24836395Y-143111157D01*
X24632452Y-143129000D01*
X2291548Y-143129000D01*
X2087605Y-143111157D01*
X1895235Y-143059612D01*
X1714740Y-142975445D01*
X1551610Y-142861220D01*
X1410780Y-142720390D01*
X1296555Y-142557260D01*
X1212388Y-142376765D01*
X1160843Y-142184395D01*
X1143000Y-141980452D01*
X1143000Y-138048435D01*
X21523871Y-138048435D01*
X21628644Y-138351344D01*
X21790499Y-138627992D01*
X22003215Y-138867748D01*
X22258618Y-139061399D01*
X22546893Y-139201502D01*
X22733566Y-139258124D01*
X22987000Y-139138777D01*
X22987000Y-137795000D01*
X23241000Y-137795000D01*
X23241000Y-139138777D01*
X23494434Y-139258124D01*
X23681107Y-139201502D01*
X23969382Y-139061399D01*
X24224785Y-138867748D01*
X24437501Y-138627992D01*
X24599356Y-138351344D01*
X24704129Y-138048435D01*
X24585315Y-137795000D01*
X23241000Y-137795000D01*
X22987000Y-137795000D01*
X21642685Y-137795000D01*
X21523871Y-138048435D01*
X1143000Y-138048435D01*
X1143000Y-137287565D01*
X21523871Y-137287565D01*
X21642685Y-137541000D01*
X22987000Y-137541000D01*
X22987000Y-136197223D01*
X23241000Y-136197223D01*
X23241000Y-137541000D01*
X24585315Y-137541000D01*
X24704129Y-137287565D01*
X24599356Y-136984656D01*
X24437501Y-136708008D01*
X24224785Y-136468252D01*
X23969382Y-136274601D01*
X23681107Y-136134498D01*
X23494434Y-136077876D01*
X23241000Y-136197223D01*
X22987000Y-136197223D01*
X22733566Y-136077876D01*
X22546893Y-136134498D01*
X22258618Y-136274601D01*
X22003215Y-136468252D01*
X21790499Y-136708008D01*
X21628644Y-136984656D01*
X21523871Y-137287565D01*
X1143000Y-137287565D01*
X1143000Y-6355548D01*
X1160843Y-6151605D01*
X1212388Y-5959235D01*
X1296555Y-5778740D01*
X1410780Y-5615610D01*
X1551610Y-5474780D01*
X1714740Y-5360555D01*
X1895235Y-5276388D01*
X2087605Y-5224843D01*
X2291548Y-5207000D01*
X7360452Y-5207000D01*
X7564395Y-5224843D01*
M02*
