G04 #@! TF.GenerationSoftware,KiCad,Pcbnew,(5.1.4)-1*
G04 #@! TF.CreationDate,2019-11-18T03:08:56+02:00*
G04 #@! TF.ProjectId,HexPerTerminal,48657850-6572-4546-9572-6d696e616c2e,0.1*
G04 #@! TF.SameCoordinates,Original*
G04 #@! TF.FileFunction,Profile,NP*
%FSLAX46Y46*%
G04 Gerber Fmt 4.6, Leading zero omitted, Abs format (unit mm)*
G04 Created by KiCad (PCBNEW (5.1.4)-1) date 2019-11-18 03:08:56*
%MOMM*%
%LPD*%
G04 APERTURE LIST*
%ADD10C,0.050000*%
G04 APERTURE END LIST*
D10*
X18669000Y-158115000D02*
X18669000Y-164465000D01*
X19304000Y-165100000D02*
G75*
G02X18669000Y-164465000I0J635000D01*
G01*
X0Y-635000D02*
X0Y-156845000D01*
X176784000Y-158115000D02*
G75*
G02X177419000Y-157480000I635000J0D01*
G01*
X18034000Y-157480000D02*
G75*
G02X18669000Y-158115000I0J-635000D01*
G01*
X366649000Y-164465000D02*
G75*
G02X366014000Y-165100000I-635000J0D01*
G01*
X366649000Y-164465000D02*
X366649000Y-158115000D01*
X209169000Y-165100000D02*
X266954000Y-165100000D01*
X208534000Y-158115000D02*
X208534000Y-164465000D01*
X209169000Y-165100000D02*
G75*
G02X208534000Y-164465000I0J635000D01*
G01*
X207899000Y-157480000D02*
G75*
G02X208534000Y-158115000I0J-635000D01*
G01*
X266954000Y-165100000D02*
X366014000Y-165100000D01*
X96139000Y-165100000D02*
X176149000Y-165100000D01*
X176784000Y-158115000D02*
X176784000Y-164465000D01*
X207899000Y-157480000D02*
X177419000Y-157480000D01*
X176784000Y-164465000D02*
G75*
G02X176149000Y-165100000I-635000J0D01*
G01*
X366649000Y-158115000D02*
G75*
G02X367284000Y-157480000I635000J0D01*
G01*
X378968000Y-156845000D02*
G75*
G02X378333000Y-157480000I-635000J0D01*
G01*
X367284000Y-157480000D02*
X378333000Y-157480000D01*
X378968000Y-635000D02*
X378968000Y-156845000D01*
X19304000Y-165100000D02*
X96139000Y-165100000D01*
X635000Y-157480000D02*
X18034000Y-157480000D01*
X378333000Y0D02*
X635000Y0D01*
X378333000Y0D02*
G75*
G02X378968000Y-635000I0J-635000D01*
G01*
X635000Y-157480000D02*
G75*
G02X0Y-156845000I0J635000D01*
G01*
X0Y-635000D02*
G75*
G02X635000Y0I635000J0D01*
G01*
M02*
