<?xml version="1.0" encoding="UTF-8" standalone="no"?>
<!-- Created with Inkscape (http://www.inkscape.org/) -->

<svg
   width="188.50609mm"
   height="38.250229mm"
   viewBox="0 0 188.50609 38.250229"
   version="1.1"
   id="svg5"
   xml:space="preserve"
   inkscape:version="1.2.2 (732a01da63, 2022-12-09)"
   sodipodi:docname="Entrex Logo.svg"
   xmlns:inkscape="http://www.inkscape.org/namespaces/inkscape"
   xmlns:sodipodi="http://sodipodi.sourceforge.net/DTD/sodipodi-0.dtd"
   xmlns="http://www.w3.org/2000/svg"
   xmlns:svg="http://www.w3.org/2000/svg"><sodipodi:namedview
     id="namedview7"
     pagecolor="#ffffff"
     bordercolor="#000000"
     borderopacity="0.25"
     inkscape:showpageshadow="2"
     inkscape:pageopacity="0.0"
     inkscape:pagecheckerboard="0"
     inkscape:deskcolor="#d1d1d1"
     inkscape:document-units="mm"
     showgrid="false"
     inkscape:zoom="0.71624579"
     inkscape:cx="262.47973"
     inkscape:cy="335.77859"
     inkscape:window-width="1920"
     inkscape:window-height="991"
     inkscape:window-x="-9"
     inkscape:window-y="-9"
     inkscape:window-maximized="1"
     inkscape:current-layer="layer1" /><defs
     id="defs2" /><g
     inkscape:label="Layer 1"
     inkscape:groupmode="layer"
     id="layer1"
     transform="translate(20.879288,-59.753004)"><path
       style="fill:#000000;stroke-width:1"
       d="m 124.41906,97.943874 -2.11666,-0.10926 -0.11217,-5.60917 c -0.1344,-6.72171 -0.24686,-7.22385 -1.35096,-6.0325 -0.491,0.5298 -1.18271,0.71549 -1.18271,0.3175 0,-0.11641 -0.14287,-0.21166 -0.3175,-0.21166 -0.17462,0 -0.3175,0.0952 -0.3175,0.21166 0,0.11642 -0.14287,0.21167 -0.3175,0.21167 -0.17462,0 -0.3175,-0.0952 -0.3175,-0.21167 0,-0.11641 -0.14287,-0.21166 -0.3175,-0.21166 -0.42455,0 -0.40513,0.34441 0.0288,0.51093 0.31325,0.12021 0.30847,0.17471 -0.0501,0.57093 -0.37477,0.41411 -0.37634,0.45272 -0.0288,0.70684 0.46014,0.33647 0.47687,0.7513 0.0303,0.7513 -0.18553,0 -0.38714,-0.1905 -0.44802,-0.42334 -0.0609,-0.23283 -0.19485,-0.42333 -0.29769,-0.42333 -0.10284,0 -0.18698,0.1905 -0.18698,0.42333 0,0.28223 -0.14111,0.42334 -0.42333,0.42334 -0.50216,0 -0.54698,-0.26889 -0.10583,-0.635 0.17462,-0.14493 0.3175,-0.34709 0.3175,-0.44925 0,-0.30791 -0.41512,-0.2099 -0.85782,0.20254 -0.40827,0.38036 -0.40867,0.39765 -0.0192,0.84667 0.21865,0.2521 0.55306,0.45837 0.74313,0.45837 0.20448,0 0.34559,0.17286 0.34559,0.42333 0,0.23284 0.0953,0.42334 0.21167,0.42334 0.30679,0 0.26041,-0.79398 -0.0529,-0.90589 -0.14552,-0.052 -0.20242,-0.16176 -0.12644,-0.24397 0.076,-0.0822 0.32557,-0.0324 0.55466,0.11065 0.35226,0.21999 0.49423,0.18731 0.9202,-0.21183 0.49253,-0.46152 0.49463,-0.47862 0.0949,-0.77308 -0.40019,-0.29481 -0.3983,-0.31226 0.0898,-0.83184 0.5633,-0.59961 0.84811,-0.67474 0.84811,-0.22373 0,0.16884 0.16046,0.39678 0.35658,0.50653 0.31118,0.17415 0.25352,0.29674 -0.45294,0.96302 -0.44524,0.41991 -0.88503,0.76347 -0.97731,0.76347 -0.0923,0 -0.22826,0.1905 -0.30216,0.42333 -0.0739,0.23284 -0.27082,0.42334 -0.4376,0.42334 -0.16678,0 -0.30323,0.0952 -0.30323,0.21166 0,0.11642 -0.14288,0.21167 -0.3175,0.21167 -0.17463,0 -0.3175,-0.0952 -0.3175,-0.21167 0,-0.11641 -0.14288,-0.21166 -0.3175,-0.21166 -0.17463,0 -0.3175,-0.0952 -0.3175,-0.21167 0,-0.27452 -0.78382,-1.05833 -1.05834,-1.05833 -0.11641,0 -0.21166,0.0953 -0.21166,0.21166 0,0.11642 0.14287,0.21167 0.3175,0.21167 0.17462,0 0.3175,0.14586 0.3175,0.32414 0,0.17828 -0.14288,0.37897 -0.3175,0.44598 -0.17463,0.067 -0.3175,0.2069 -0.3175,0.31086 0,0.10396 0.14287,0.18902 0.3175,0.18902 0.17462,0 0.3175,-0.0952 0.3175,-0.21167 0,-0.30783 0.40614,-0.2591 0.75595,0.0907 0.3469,0.34689 0.40509,0.96762 0.0907,0.96762 -0.11641,0 -0.21166,-0.14288 -0.21166,-0.3175 0,-0.17463 -0.14288,-0.3175 -0.3175,-0.3175 -0.42748,0 -0.40537,0.55599 0.0287,0.72257 0.30022,0.1152 0.27912,0.19741 -0.15875,0.61856 -0.45525,0.43786 -0.54212,0.45445 -0.88199,0.16851 -0.33546,-0.28222 -0.41324,-0.28095 -0.70578,0.0116 -0.29727,0.29726 -0.37994,0.27762 -0.86245,-0.20488 -0.46725,-0.46726 -0.49137,-0.55733 -0.1938,-0.72387 0.18693,-0.10461 0.33987,-0.32834 0.33987,-0.49718 0,-0.16884 0.14287,-0.30698 0.3175,-0.30698 0.17462,0 0.3175,-0.0952 0.3175,-0.21167 0,-0.11641 -0.14288,-0.21166 -0.3175,-0.21166 -0.17463,0 -0.3175,0.0952 -0.3175,0.21166 0,0.11642 -0.14288,0.21167 -0.3175,0.21167 -0.17463,0 -0.3175,-0.0952 -0.3175,-0.21167 0,-0.11641 -0.14288,-0.21166 -0.3175,-0.21166 -0.17463,0 -0.3175,0.0952 -0.3175,0.21166 0,0.11642 0.14287,0.21167 0.3175,0.21167 0.17462,0 0.3175,0.14586 0.3175,0.32414 0,0.17828 -0.14288,0.37897 -0.3175,0.44598 -0.41831,0.16053 -0.40778,0.49988 0.0155,0.49988 0.19712,0 0.3051,0.14401 0.26459,0.35288 -0.0984,0.50732 -0.57164,0.59694 -0.7444,0.14097 -0.20694,-0.54617 -0.61236,-0.91718 -1.00225,-0.91718 -0.42297,0 -0.43324,0.33943 -0.0151,0.49988 0.34795,0.13352 0.4416,0.77012 0.11328,0.77012 -0.11232,0 -0.31115,-0.19981 -0.44184,-0.44401 l -0.23763,-0.444 -0.31347,0.44754 c -0.17241,0.24615 -0.4022,0.39271 -0.51066,0.32568 -0.26256,-0.16227 -0.25317,-0.73188 0.0121,-0.73188 0.32208,0 1.06075,-0.69605 1.06075,-0.99954 0,-0.14875 0.14288,-0.27046 0.3175,-0.27046 0.17463,0 0.3175,-0.0952 0.3175,-0.21167 0,-0.29837 -0.58211,-0.2645 -0.68353,0.0398 -0.0611,0.18344 -0.20526,0.16639 -0.53283,-0.0631 -0.3223,-0.22575 -0.39322,-0.40123 -0.25132,-0.62186 0.1666,-0.25904 0.22724,-0.2615 0.38569,-0.0157 0.10339,0.16043 0.29389,0.22625 0.42333,0.14625 0.34462,-0.21299 0.28704,-0.54379 -0.0947,-0.54379 -0.1815,0 -0.27668,-0.0863 -0.21153,-0.19169 0.18833,-0.30471 1.17303,0.25511 1.17487,0.66794 0.002,0.46177 0.33566,0.48515 0.50817,0.0356 0.18017,-0.4695 0.1664,-0.51185 -0.16637,-0.51185 -0.16217,0 -0.352,-0.14891 -0.42184,-0.33092 -0.0721,-0.18801 -0.23457,-0.26442 -0.37612,-0.17694 -0.17054,0.1054 -0.2044,0.0374 -0.10733,-0.21556 0.078,-0.20325 0.14181,-0.40937 0.14181,-0.45806 0,-0.0487 0.0953,-0.0885 0.21166,-0.0885 0.11642,0 0.21167,0.14288 0.21167,0.3175 0,0.17463 0.14287,0.3175 0.3175,0.3175 0.17462,0 0.3175,-0.14287 0.3175,-0.3175 0,-0.17462 -0.0952,-0.3175 -0.21167,-0.3175 -0.44976,0 -0.16957,-0.47716 0.87388,-1.48819 0.59705,-0.57849 1.14738,-1.05181 1.22296,-1.05181 0.20033,0 0.8665,-0.81551 0.8665,-1.06075 0,-0.11509 0.11421,-0.20925 0.25379,-0.20925 0.13959,0 0.70093,-0.47625 1.24742,-1.05833 0.54648,-0.58209 1.10696,-1.05834 1.2455,-1.05834 0.13855,0 0.21482,-0.11121 0.16951,-0.24715 -0.06,-0.18007 -2.11849,-0.27009 -7.58472,-0.33166 -4.12629,-0.0465 -9.61021,-0.11948 -12.186495,-0.16222 l -4.684154,-0.0777 -0.128935,0.77979 c -0.167997,1.01605 -0.168675,3.32224 -0.0013,4.54312 l 0.132258,0.96491 1.296492,0.19805 c 0.713072,0.10893 2.844307,0.17164 4.736078,0.13935 3.560386,-0.0608 3.540636,-0.0655 3.448516,0.82073 -0.0219,0.21067 0.0458,0.49642 0.15052,0.635 0.10469,0.13858 0.20616,0.94252 0.22548,1.78654 l 0.0351,1.53459 -0.79212,0.0261 c -2.729719,0.0898 -15.991754,-0.021 -16.105436,-0.13449 -0.169149,-0.16894 -0.173664,-0.31648 -0.327137,-10.68657 -0.162065,-10.95087 -0.169226,-16.32837 -0.02194,-16.47566 0.128513,-0.12851 16.196333,-0.10013 16.325303,0.0288 0.15354,0.15354 0.53335,3.4914 0.4652,4.08828 l -0.0698,0.61104 -4.487861,0.10583 c -3.148023,0.0742 -4.56551,0.18364 -4.747965,0.36647 -0.643414,0.64471 -0.568255,5.15822 0.0936,5.62103 0.13872,0.097 2.72872,0.11541 5.755554,0.0409 3.026832,-0.0745 8.217962,-0.17489 11.535842,-0.22308 6.03728,-0.0877 6.985,-0.20531 6.985,-0.86693 0,-0.15495 0.14287,-0.28173 0.3175,-0.28173 0.17462,0 0.3175,-0.14732 0.3175,-0.32738 0,-0.28111 -0.0739,-0.27363 -0.52252,0.0529 -0.28738,0.20917 -0.5255,0.45174 -0.52916,0.53905 -0.0147,0.35043 -0.42999,0.13175 -0.42999,-0.22641 0,-0.38043 0.88575,-1.30817 1.24897,-1.30817 0.10307,0 0.24223,-0.14288 0.30924,-0.3175 0.0829,-0.21596 -0.0114,-0.3175 -0.29485,-0.3175 -0.22928,0 -0.41669,0.1428 -0.41669,0.3175 0,0.41916 -0.34354,0.40742 -0.50652,-0.0173 -0.18154,-0.47308 -0.16723,-0.51185 0.18902,-0.51185 0.17462,0 0.3175,-0.0952 0.3175,-0.21167 0,-0.11641 0.13725,-0.21166 0.30501,-0.21166 0.38276,0 0.6116,-0.35059 0.42545,-0.65179 -0.0875,-0.14157 -0.38358,0.0195 -0.77845,0.42333 -0.68486,0.7005 -1.22201,0.84744 -1.22201,0.33429 0,-0.17462 0.12171,-0.3175 0.27046,-0.3175 0.14875,0 0.43457,-0.19167 0.63516,-0.42594 0.3048,-0.35598 0.32122,-0.4996 0.1,-0.87433 -0.21177,-0.35865 -0.2118,-0.46755 -1.6e-4,-0.54419 0.31392,-0.11369 0.35819,-0.69554 0.0529,-0.69554 -0.11641,0 -0.21166,0.14288 -0.21166,0.3175 0,0.17639 -0.18815,0.3175 -0.42334,0.3175 -0.23518,0 -0.42333,-0.14111 -0.42333,-0.3175 0,-0.17462 -0.0953,-0.3175 -0.21167,-0.3175 -0.11641,0 -0.21166,0.14288 -0.21166,0.3175 0,0.17463 0.0953,0.3175 0.21166,0.3175 0.11642,0 0.21167,0.14288 0.21167,0.3175 0,0.17463 -0.0953,0.3175 -0.21167,0.3175 -0.11641,0 -0.21166,0.14288 -0.21166,0.3175 0,0.17463 0.0953,0.3175 0.21166,0.3175 0.33279,0 0.2471,0.57611 -0.10583,0.71154 -0.17463,0.067 -0.3175,0.22008 -0.3175,0.34015 0,0.12007 0.14287,0.21831 0.3175,0.21831 0.17462,0 0.3175,0.10856 0.3175,0.24125 0,0.13269 0.16669,0.36492 0.37042,0.51608 0.34975,0.2595 0.3468,0.29289 -0.0529,0.59868 -0.49585,0.37933 -0.74083,0.42089 -0.74083,0.12566 0,-0.11642 0.0953,-0.21167 0.21166,-0.21167 0.11642,0 0.21167,-0.14929 0.21167,-0.33176 0,-0.24322 -0.12153,-0.29319 -0.45535,-0.18724 -0.36539,0.11597 -0.42883,0.0754 -0.32107,-0.20542 0.0813,-0.21189 0.0104,-0.39746 -0.17965,-0.4704 -0.17266,-0.0663 -0.31393,-0.26072 -0.31393,-0.43214 0,-0.23517 -0.16886,-0.28218 -0.68792,-0.19152 -0.37835,0.0661 -0.56885,0.0657 -0.42333,-8.2e-4 0.30433,-0.13915 0.36126,-0.7207 0.0705,-0.7207 -0.10671,0 -0.23469,0.11906 -0.28439,0.26458 -0.11427,0.33456 -4.60158,-3.89125 -4.60158,-4.33342 0,-0.35466 0.61423,-0.14005 0.74084,0.25884 0.0739,0.23283 0.22319,0.42333 0.33176,0.42333 0.10857,0 0.1974,0.14288 0.1974,0.3175 0,0.17463 0.11603,0.3175 0.25785,0.3175 0.27729,0 1.22382,-1.0077 1.22382,-1.30292 0,-0.0983 0.0942,-0.17874 0.20925,-0.17874 0.26254,0 1.06075,-0.67252 1.06075,-0.89371 0,-0.0905 -0.14288,-0.16463 -0.3175,-0.16463 -0.17463,0 -0.3175,0.13489 -0.3175,0.29976 0,0.16487 -0.28575,0.42625 -0.635,0.58084 -0.35774,0.15835 -0.635,0.44335 -0.635,0.65274 0,0.23055 -0.16073,0.37166 -0.42333,0.37166 -0.60689,0 -0.52617,-0.26174 0.3175,-1.02945 0.40745,-0.37078 0.74083,-0.76709 0.74083,-0.88068 0,-0.11359 0.14287,-0.20653 0.3175,-0.20653 0.17462,0 0.31824,-0.11907 0.31915,-0.26459 8.5e-4,-0.14552 0.2538,-0.38165 0.56199,-0.52474 0.47777,-0.22182 0.60228,-0.20623 0.84501,0.10584 0.26826,0.34487 0.30281,0.34254 0.59882,-0.0403 0.30973,-0.40058 0.32064,-0.40058 0.7792,0 0.76121,0.66495 1.235,1.14105 1.235,1.24099 0,0.0784 0.92563,0.98568 1.97156,1.93242 0.13801,0.12493 0.53,0.57737 0.87108,1.00542 0.34109,0.42805 0.7459,0.77827 0.89959,0.77827 0.15369,0 0.27943,0.12811 0.27943,0.28469 0,0.33878 0.67066,0.98531 1.02209,0.98531 0.18343,0 0.24791,-1.51398 0.24791,-5.82083 0,-3.20146 0.0714,-5.82262 0.15875,-5.8248 0.0873,-0.002 1.397,-0.0218 2.91042,-0.0437 l 2.75167,-0.0397 0.0562,5.98689 c 0.0436,4.63831 0.11509,5.96612 0.3175,5.89467 0.14369,-0.0507 0.25006,-0.23645 0.23638,-0.41272 -0.0166,-0.21323 0.10742,-0.28589 0.37042,-0.21711 0.29842,0.078 0.39529,-0.012 0.39529,-0.3673 0,-0.34222 0.0914,-0.4356 0.33481,-0.34218 0.18415,0.0707 0.37465,0.12848 0.42334,0.12848 0.0487,0 0.0885,0.14287 0.0885,0.3175 0,0.17462 0.0952,0.3175 0.21166,0.3175 0.30448,0 0.26131,-0.57905 -0.0529,-0.7099 -0.19391,-0.0807 -0.16835,-0.18865 0.0957,-0.40398 0.241,-0.19653 0.31906,-0.46372 0.23579,-0.80704 -0.10227,-0.42165 -0.074,-0.46603 0.15831,-0.24867 0.37889,0.3545 0.62146,0.33384 0.62146,-0.0529 0,-0.17463 -0.10087,-0.3175 -0.22416,-0.3175 -0.12329,0 -0.16016,-0.10355 -0.0819,-0.23011 0.1024,-0.1657 0.20662,-0.1657 0.37232,0 0.12656,0.12656 0.35394,0.23011 0.50528,0.23011 0.35191,0 0.36054,-0.56842 0.0106,-0.69674 -0.21167,-0.0776 -0.21167,-0.1531 0,-0.37747 0.21789,-0.23097 0.26458,-0.21696 0.26458,0.0794 0,0.36579 0.23948,0.47314 0.49206,0.22056 0.0766,-0.0766 0.0366,-0.26293 -0.0888,-0.41406 -0.23996,-0.28913 -0.0943,-0.71666 0.24422,-0.71666 0.10954,0 0.19917,0.14287 0.19917,0.3175 0,0.17462 0.0953,0.3175 0.21167,0.3175 0.11641,0 0.21166,-0.0896 0.21166,-0.19918 0,-0.10954 -0.0953,-0.25804 -0.21166,-0.32999 -0.43134,-0.26658 -0.19277,-0.53323 0.37041,-0.41401 0.49705,0.10523 0.52626,0.0879 0.19993,-0.11888 -0.30162,-0.1911 -0.32961,-0.30542 -0.13283,-0.54253 0.32489,-0.39147 0.62082,-0.38333 0.62082,0.0171 0,0.17462 0.10558,0.3175 0.23461,0.3175 0.14585,0 0.18331,-0.20442 0.099,-0.54027 -0.12016,-0.47873 -0.0903,-0.51602 0.26213,-0.3274 0.27832,0.14895 0.47259,0.13799 0.6471,-0.0365 0.19139,-0.19139 0.35044,-0.18626 0.68401,0.0221 0.33536,0.20943 0.50337,0.21439 0.73555,0.0217 0.23119,-0.19187 0.37064,-0.19187 0.60183,0 0.23239,0.19288 0.40255,0.18673 0.74729,-0.027 0.37556,-0.23283 0.47791,-0.22637 0.64513,0.0408 0.16384,0.26173 0.27374,0.27103 0.62567,0.0529 0.55019,-0.34098 0.64433,-0.33325 0.64433,0.0529 0,0.17463 -0.14288,0.3175 -0.3175,0.3175 -0.17463,0 -0.3175,0.0952 -0.3175,0.21167 0,0.11642 0.14287,0.21167 0.3175,0.21167 0.17462,0 0.3175,-0.0953 0.3175,-0.21167 0,-0.11642 0.14586,-0.21167 0.32414,-0.21167 0.17828,0 0.37897,-0.14287 0.44598,-0.3175 0.067,-0.17462 0.25452,-0.3175 0.41669,-0.3175 0.16217,0 0.29485,0.14288 0.29485,0.3175 0,0.17463 0.14288,0.3175 0.3175,0.3175 0.17463,0 0.3175,-0.14287 0.3175,-0.3175 0,-0.17462 0.0952,-0.3175 0.21167,-0.3175 0.36748,0 0.22945,0.5288 -0.22261,0.85286 -0.23886,0.17122 -1.04216,0.90662 -1.78512,1.63423 -0.74296,0.7276 -1.40479,1.32291 -1.47072,1.32291 -0.20419,0 -0.96655,-0.83475 -0.96655,-1.05833 0,-0.32699 -0.3633,-0.25008 -0.49988,0.10583 -0.067,0.17463 -0.2677,0.3175 -0.44598,0.3175 -0.17828,0 -0.32414,0.13269 -0.32414,0.29486 0,0.16217 -0.14287,0.34968 -0.3175,0.41669 -0.17462,0.067 -0.3175,0.22007 -0.3175,0.34014 0,0.12007 0.14288,0.21831 0.3175,0.21831 0.17463,0 0.3175,0.14288 0.3175,0.3175 0,0.36022 0.33161,0.42549 0.53009,0.10434 0.0725,-0.11724 -0.0172,-0.2703 -0.19917,-0.34014 -0.42249,-0.16213 -0.43287,-0.7167 -0.0134,-0.7167 0.17463,0 0.3175,-0.14287 0.3175,-0.3175 0,-0.17462 0.0952,-0.3175 0.21167,-0.3175 0.19918,0 1.05833,0.75274 1.05833,0.92726 0,0.0443 -0.8217,0.87776 -1.82599,1.85208 -1.00429,0.97432 -2.28813,2.22393 -2.85296,2.77691 -0.56484,0.55298 -1.12427,1.00542 -1.24318,1.00542 -0.11891,0 -0.2162,0.14288 -0.2162,0.3175 0,0.17463 -0.0794,0.3175 -0.17639,0.3175 -0.097,0 -0.4542,0.2831 -0.79375,0.62912 -0.72012,0.73384 -1.14653,0.81475 -1.14653,0.21755 0,-0.28223 0.14111,-0.42334 0.42333,-0.42334 0.23284,0 0.42334,-0.0953 0.42334,-0.21166 0,-0.11642 -0.17441,-0.21167 -0.38757,-0.21167 -0.48325,0 -1.12647,1.0812 -0.72368,1.21644 0.14552,0.0489 0.26458,0.17506 0.26458,0.28045 0,0.30797 -0.70443,1.04311 -0.99954,1.04311 -0.57452,0 -0.22069,0.69602 0.97105,1.91016 0.68283,0.69566 1.34958,1.26484 1.48166,1.26484 0.24271,0 0.27054,-0.27993 0.3191,-3.20973 0.0148,-0.89222 0.0823,-1.67789 0.15006,-1.74593 0.0677,-0.068 5.05917,-0.13245 11.09208,-0.14314 6.03291,-0.0107 11.09718,-0.0686 11.25393,-0.12879 0.4655,-0.17864 0.32708,-0.71886 -0.35001,-1.36592 -0.34925,-0.33376 -0.635,-0.69031 -0.635,-0.79232 0,-0.10202 -0.21431,-0.33006 -0.47625,-0.50676 -1.15976,-0.78236 -7.68147,-7.51524 -7.47731,-7.71941 0.0593,-0.0593 1.8849,-0.1189 4.05692,-0.13248 3.81911,-0.0239 3.96605,-0.009 4.46296,0.45156 0.28261,0.26194 0.60417,0.47625 0.71459,0.47625 0.11042,0 0.20076,0.0984 0.20076,0.21878 0,0.16356 5.02171,5.26963 6.96669,7.08372 0.12481,0.11642 1.2046,1.23561 2.39954,2.48709 1.19493,1.25148 2.28457,2.27541 2.42142,2.27541 0.13685,0 0.31015,0.19322 0.3851,0.42937 0.10572,0.33308 -0.097,0.63915 -0.9041,1.36476 -1.50322,1.35152 -3.22508,3.08594 -3.22676,3.25029 -8.5e-4,0.0778 -0.33417,0.36801 -0.74083,0.64495 -0.40667,0.27695 -0.73939,0.63413 -0.73939,0.79375 0,0.15962 -0.0864,0.29022 -0.19203,0.29022 -0.10562,0 -1.98681,1.79072 -4.18042,3.97938 l -3.98839,3.97939 -2.2225,-0.0494 c -1.22237,-0.0271 -2.27012,-0.067 -2.32833,-0.0886 -0.0582,-0.0216 -0.20108,-0.0162 -0.3175,0.0121 -0.42745,0.1037 -2.47198,-0.0289 -2.90273,-0.18819 -0.39277,-0.1453 -0.007,-0.59347 3.34607,-3.88859 2.08449,-2.0484 4.44282,-4.35143 5.24071,-5.11784 1.48269,-1.4242 1.64969,-1.89146 0.73626,-2.06003 -0.37811,-0.0698 -15.53842,-0.0533 -21.28989,0.0231 -0.50589,0.007 -0.89959,0.11385 -0.89959,0.24479 0,0.12806 0.33182,0.56465 0.73737,0.9702 0.72212,0.72212 0.72978,0.7478 0.37041,1.24218 -0.20182,0.27765 -0.48601,0.50781 -0.63153,0.51147 -0.14552,0.004 -0.26757,0.12571 -0.27123,0.27123 -0.008,0.33022 -1.03159,1.09607 -1.2169,0.91076 -0.0749,-0.0749 -0.0142,-0.3317 0.13498,-0.57058 0.38787,-0.62108 0.14358,-0.72732 -0.43202,-0.18788 -0.45974,0.43086 -0.46719,0.47644 -0.11983,0.73254 0.20373,0.15019 0.37042,0.38165 0.37042,0.51433 0,0.13269 0.0953,0.24125 0.21167,0.24125 0.11641,0 0.21166,-0.14288 0.21166,-0.3175 0,-0.17639 0.18815,-0.3175 0.42334,-0.3175 0.23283,0 0.42333,0.13177 0.42333,0.29281 0,0.16105 -0.1905,0.34263 -0.42333,0.40352 -0.23284,0.0609 -0.42334,0.21487 -0.42334,0.34219 0,0.12731 0.1905,0.23148 0.42334,0.23148 0.23518,0 0.42333,0.14111 0.42333,0.3175 0,0.17462 0.0953,0.3175 0.21167,0.3175 0.11641,0 0.21166,-0.14288 0.21166,-0.3175 0,-0.17463 -0.0953,-0.3175 -0.21166,-0.3175 -0.11642,0 -0.21167,-0.14288 -0.21167,-0.3175 0,-0.17463 0.0953,-0.3175 0.21167,-0.3175 0.11641,0 0.21166,-0.14288 0.21166,-0.3175 0,-0.17463 -0.0953,-0.3175 -0.21166,-0.3175 -0.35799,0 -0.23477,-0.52114 0.21408,-0.90546 0.46075,-0.39451 0.84425,-0.47572 0.84425,-0.17879 0,0.10216 -0.14287,0.30432 -0.3175,0.44925 -0.39829,0.33055 -0.40915,0.635 -0.0226,0.635 0.16217,0 0.352,0.14891 0.42184,0.33092 0.0709,0.18467 0.23536,0.26393 0.37221,0.17935 0.17394,-0.10749 0.14361,-0.22587 -0.10433,-0.40717 -0.38888,-0.28435 -0.46957,-0.73811 -0.13126,-0.73811 0.12007,0 0.27314,0.14288 0.34015,0.3175 0.13543,0.35294 0.71154,0.43863 0.71154,0.10584 0,-0.11642 0.1905,-0.21167 0.42333,-0.21167 0.23284,0 0.42334,0.0775 0.42334,0.17229 0,0.0948 0.85725,1.04935 1.905,2.12132 1.04775,1.07197 1.905,2.00788 1.905,2.07979 0,0.0719 -0.16669,0.2573 -0.37042,0.41195 -0.33683,0.25569 -0.33843,0.2818 -0.0176,0.28792 0.19403,0.004 0.39643,-0.11233 0.44979,-0.25785 0.0763,-0.20803 0.15548,-0.20952 0.37053,-0.007 0.22219,0.2093 0.2073,0.28306 -0.0794,0.39307 -0.19409,0.0745 -0.3529,0.2681 -0.3529,0.43027 0,0.41019 -0.42523,0.36849 -0.77057,-0.0756 -0.27435,-0.35278 -0.29864,-0.35278 -0.5101,0 -0.29284,0.48854 -0.56456,0.46885 -0.73016,-0.0529 -0.0739,-0.23283 -0.21208,-0.42333 -0.30708,-0.42333 -0.095,0 -0.22253,0.1905 -0.28342,0.42333 -0.0609,0.23283 -0.26249,0.42333 -0.44802,0.42333 -0.19621,1e-5 -0.33732,-0.17709 -0.33732,-0.42333 0,-0.23518 0.14111,-0.42333 0.3175,-0.42333 0.17463,0 0.3175,-0.0952 0.3175,-0.21167 0,-0.30783 -0.40614,-0.2591 -0.75595,0.0907 -0.36307,0.36306 -0.39547,0.90131 -0.061,1.01281 0.14449,0.0482 0.0285,0.31019 -0.28886,0.65264 -0.63275,0.68275 -0.79922,0.71375 -0.79922,0.14883 0,-0.2595 0.14336,-0.42594 0.37042,-0.43006 0.35278,-0.006 0.35278,-0.0201 0,-0.28792 -0.43712,-0.33182 -0.49368,-0.97535 -0.0857,-0.97535 0.33879,0 0.98531,-0.67066 0.98531,-1.02208 0,-0.13636 -0.14287,-0.24792 -0.3175,-0.24792 -0.43051,0 -0.40109,-0.42137 0.0526,-0.75311 0.20355,-0.14884 0.29625,-0.34445 0.20599,-0.43471 -0.0902,-0.0902 -0.44192,0.14009 -0.78148,0.51186 -0.33957,0.37178 -0.72595,0.67596 -0.85863,0.67596 -0.30372,0 -0.16015,0.47388 0.17769,0.58649 0.13824,0.0461 0.25135,-0.067 0.25135,-0.25135 0,-0.18433 0.14288,-0.33514 0.3175,-0.33514 0.17639,0 0.3175,0.18815 0.3175,0.42333 0,0.23519 -0.14111,0.42334 -0.3175,0.42334 -0.17462,0 -0.3175,0.0952 -0.3175,0.21166 0,0.11642 -0.14287,0.21167 -0.3175,0.21167 -0.42135,0 -0.40695,0.56391 0.0205,0.80312 0.29443,0.16477 0.26549,0.2674 -0.22446,0.79606 -0.46367,0.50032 -0.59682,0.55259 -0.75809,0.29761 -0.1076,-0.17011 -0.19709,-0.38073 -0.19888,-0.46804 -0.002,-0.0873 -0.14611,-0.15875 -0.32074,-0.15875 -0.17462,0 -0.3175,-0.0861 -0.3175,-0.19128 0,-0.1052 -0.85725,-1.06169 -1.905,-2.12552 -1.04775,-1.06384 -1.905,-1.98469 -1.905,-2.04635 0,-0.0616 0.14802,-0.2601 0.32893,-0.44101 0.29745,-0.29745 0.28817,-0.36689 -0.097,-0.72571 -0.45062,-0.41981 -0.86695,-0.52116 -0.86695,-0.21105 0,0.10216 0.14288,0.30433 0.3175,0.44925 0.41382,0.34344 0.40472,0.635 -0.0198,0.635 -0.18552,0 -0.38713,-0.1905 -0.44802,-0.42333 -0.12518,-0.47869 -0.38283,-0.54768 -0.61888,-0.16574 -0.0876,0.14168 -0.19653,2.73724 -0.24215,5.76792 -0.0456,3.03067 -0.10493,5.53247 -0.13181,5.55955 -0.13123,0.13216 -1.71354,0.1584 -3.61932,0.06 z m -8.83267,-6.31374 c 0.0461,-0.13824 -0.0327,-0.25135 -0.1751,-0.25135 -0.14239,0 -0.38178,-0.16669 -0.53198,-0.37042 -0.25609,-0.34737 -0.30168,-0.33991 -0.73253,0.11983 -0.2527,0.26963 -0.38921,0.55538 -0.30336,0.635 0.0859,0.0796 0.19862,0.0257 0.25059,-0.11983 0.13797,-0.3863 0.90589,-0.32649 0.90589,0.0706 0,0.37378 0.45566,0.30869 0.58649,-0.0838 z m 19.31017,-0.0397 c 0,-0.11641 -0.0952,-0.21166 -0.21166,-0.21166 -0.11642,0 -0.21167,0.0952 -0.21167,0.21166 0,0.11642 0.0952,0.21167 0.21167,0.21167 0.11641,0 0.21166,-0.0952 0.21166,-0.21167 z m -22.86,-0.74083 c 0,-0.17462 -0.0952,-0.3175 -0.21166,-0.3175 -0.11642,0 -0.21167,0.14288 -0.21167,0.3175 0,0.17463 0.0952,0.3175 0.21167,0.3175 0.11641,0 0.21166,-0.14287 0.21166,-0.3175 z m 22.225,0 c 0,-0.17462 -0.14287,-0.3175 -0.3175,-0.3175 -0.17462,0 -0.3175,-0.14287 -0.3175,-0.3175 0,-0.17462 0.14288,-0.3175 0.3175,-0.3175 0.17463,0 0.3175,-0.14287 0.3175,-0.3175 0,-0.43795 -0.26098,-0.39723 -0.69379,0.10825 -0.40692,0.47526 -0.47374,0.84425 -0.15287,0.84425 0.11641,0 0.21166,0.14288 0.21166,0.3175 0,0.17463 0.14288,0.3175 0.3175,0.3175 0.17463,0 0.3175,-0.14287 0.3175,-0.3175 z m 0.635,-0.635 c 0,-0.17462 -0.0952,-0.3175 -0.21166,-0.3175 -0.11642,0 -0.21167,0.14288 -0.21167,0.3175 0,0.17463 0.0952,0.3175 0.21167,0.3175 0.11641,0 0.21166,-0.14287 0.21166,-0.3175 z m 4.49377,-0.10583 0.45439,-0.42334 -0.49066,-0.45712 c -0.40151,-0.37406 -0.56209,-0.41252 -0.88371,-0.21167 -0.50854,0.31759 -0.61045,0.30934 -0.61045,-0.0494 0,-0.16217 0.14287,-0.34968 0.3175,-0.41669 0.39991,-0.15347 0.41633,-0.55846 0.0226,-0.55846 -0.16217,0 -0.35199,-0.14891 -0.42184,-0.33092 -0.0698,-0.182 -0.2229,-0.27163 -0.34014,-0.19917 -0.32115,0.19848 -0.25588,0.53009 0.10434,0.53009 0.17462,0 0.3175,0.13269 0.3175,0.29485 0,0.16217 -0.14288,0.34968 -0.3175,0.4167 -0.17463,0.067 -0.3175,0.22007 -0.3175,0.34014 0,0.12007 0.14287,0.21831 0.3175,0.21831 0.17462,0 0.3175,0.14288 0.3175,0.3175 0,0.17463 0.0952,0.3175 0.21166,0.3175 0.11642,0 0.21167,-0.14287 0.21167,-0.3175 0,-0.17639 0.18815,-0.3175 0.42333,-0.3175 0.49438,0 0.57545,0.58992 0.10584,0.77012 -0.17463,0.067 -0.3175,0.2069 -0.3175,0.31086 0,0.31975 0.41817,0.21032 0.89543,-0.23431 z m -25.58648,-0.65512 c 0.20883,-0.2439 0.31221,-0.50584 0.22972,-0.58209 -0.0825,-0.0762 -0.19249,-0.0196 -0.24446,0.12596 -0.13386,0.37481 -0.90588,0.32971 -0.90588,-0.0529 0,-0.36022 -0.33161,-0.42549 -0.53009,-0.10434 -0.0725,0.11724 0.0172,0.27031 0.19917,0.34015 0.18201,0.0698 0.33092,0.25967 0.33092,0.42184 0,0.43635 0.48708,0.35773 0.92062,-0.1486 z m 1.09021,0.23178 c 0.072,-0.11641 -0.0177,-0.21166 -0.19917,-0.21166 -0.1815,0 -0.32999,0.0952 -0.32999,0.21166 0,0.11642 0.0896,0.21167 0.19917,0.21167 0.10955,0 0.25804,-0.0952 0.32999,-0.21167 z m 18.049,-0.17198 c 0.0461,-0.13824 -0.067,-0.25135 -0.25136,-0.25135 -0.19402,0 -0.33514,-0.17825 -0.33514,-0.42333 0,-0.28222 0.14112,-0.42334 0.42334,-0.42334 0.23283,0 0.42333,-0.0952 0.42333,-0.21166 0,-0.34716 -0.62183,-0.24043 -1.07861,0.18512 -0.38515,0.35883 -0.39443,0.42826 -0.097,0.72572 0.18091,0.1809 0.32892,0.43891 0.32892,0.57334 0,0.30608 0.47324,0.16528 0.5865,-0.1745 z m 1.9535,-0.46302 c 0,-0.11641 -0.0952,-0.21166 -0.21166,-0.21166 -0.11642,0 -0.21167,0.0953 -0.21167,0.21166 0,0.11642 0.0952,0.21167 0.21167,0.21167 0.11641,0 0.21166,-0.0953 0.21166,-0.21167 z m -1.37583,-0.21166 c 0.072,-0.11642 0.03,-0.21167 -0.0933,-0.21167 -0.12329,0 -0.22416,0.0952 -0.22416,0.21167 0,0.11641 0.042,0.21166 0.0933,0.21166 0.0513,0 0.15221,-0.0952 0.22416,-0.21166 z m -19.79083,-0.51153 c 0,-0.16492 0.11906,-0.34239 0.26458,-0.39436 0.1539,-0.055 0.18605,-0.17302 0.0769,-0.28222 -0.1092,-0.10919 -0.22726,-0.077 -0.28223,0.0769 -0.052,0.14552 -0.22943,0.26458 -0.39435,0.26458 -0.16493,0 -0.29986,0.14288 -0.29986,0.3175 0,0.17463 0.14287,0.3175 0.3175,0.3175 0.17462,0 0.3175,-0.13494 0.3175,-0.29986 z m 1.27,0.10069 c 0,-0.24974 -0.41283,-0.51689 -0.56445,-0.36527 -0.15162,0.15162 0.11554,0.56444 0.36527,0.56444 0.10955,0 0.19918,-0.0896 0.19918,-0.19917 z m 19.47333,-0.11833 c 0,-0.17462 0.0952,-0.3175 0.21167,-0.3175 0.11641,0 0.21166,-0.14287 0.21166,-0.3175 0,-0.17462 -0.0952,-0.3175 -0.21166,-0.3175 -0.11642,0 -0.21167,0.14288 -0.21167,0.3175 0,0.17639 -0.18815,0.3175 -0.42333,0.3175 -0.46848,0 -0.57354,0.32745 -0.15875,0.49482 0.4606,0.18586 0.58208,0.14885 0.58208,-0.17732 z m 1.5483,-0.3175 c 0.1463,0 1.20337,-1.03108 1.20337,-1.17379 0,-0.0529 -0.14288,-0.0962 -0.3175,-0.0962 -0.17463,0 -0.3175,0.14288 -0.3175,0.3175 0,0.17463 -0.14587,0.3175 -0.32415,0.3175 -0.17828,0 -0.37897,0.14288 -0.44597,0.3175 -0.067,0.17463 -0.25453,0.3175 -0.4167,0.3175 -0.31745,0 -0.3898,0.25783 -0.14191,0.50572 0.0841,0.0841 0.2613,0.005 0.39375,-0.17639 0.13245,-0.18113 0.29742,-0.32933 0.36661,-0.32933 z m -4.29997,0.21167 c 0,-0.11642 -0.14287,-0.21167 -0.3175,-0.21167 -0.17462,0 -0.3175,0.0952 -0.3175,0.21167 0,0.11641 0.14288,0.21166 0.3175,0.21166 0.17463,0 0.3175,-0.0952 0.3175,-0.21166 z m -18.83833,-0.52917 c 0,-0.17462 -0.0952,-0.3175 -0.21167,-0.3175 -0.11641,0 -0.21166,0.14288 -0.21166,0.3175 0,0.17463 0.0952,0.3175 0.21166,0.3175 0.11642,0 0.21167,-0.14287 0.21167,-0.3175 z m 2.54,0.11833 c 0,-0.10955 -0.0953,-0.25805 -0.21167,-0.33 -0.31647,-0.19559 -0.25524,-0.74083 0.0832,-0.74083 0.16217,0 0.34968,0.14288 0.41669,0.3175 0.067,0.17463 0.22008,0.3175 0.34015,0.3175 0.12007,0 0.21831,-0.14287 0.21831,-0.3175 0,-0.17462 -0.14288,-0.3175 -0.3175,-0.3175 -0.17463,0 -0.3175,-0.0952 -0.3175,-0.21167 0,-0.11641 -0.14288,-0.21166 -0.3175,-0.21166 -0.17463,0 -0.3175,0.0952 -0.3175,0.21166 0,0.11642 -0.14288,0.21167 -0.3175,0.21167 -0.17463,0 -0.3175,0.14288 -0.3175,0.3175 0,0.17463 0.14287,0.3175 0.3175,0.3175 0.17462,0 0.3175,0.14288 0.3175,0.3175 0,0.17463 0.0953,0.3175 0.21166,0.3175 0.11642,0 0.21167,-0.0896 0.21167,-0.19917 z m 4.23333,-0.0125 c 0,-0.11641 -0.0896,-0.21166 -0.19917,-0.21166 -0.10955,0 -0.25804,0.0952 -0.32999,0.21166 -0.072,0.11642 0.0177,0.21167 0.19917,0.21167 0.1815,0 0.32999,-0.0952 0.32999,-0.21167 z m 11.43,-0.3175 c 0,-0.17462 0.13269,-0.3175 0.29486,-0.3175 0.16217,0 0.34968,0.14288 0.41669,0.3175 0.12413,0.3235 0.55928,0.44742 0.55744,0.15875 -0.002,-0.25515 -1.43746,-1.74625 -1.68153,-1.74625 -0.31963,0 -0.27394,-0.34161 0.095,-0.71059 0.17463,-0.17463 0.3175,-0.37084 0.3175,-0.43603 0,-0.25003 -0.74191,-0.97004 -0.99954,-0.97004 -0.14875,0 -0.27046,-0.15082 -0.27046,-0.33514 0,-0.18433 -0.1131,-0.29744 -0.25135,-0.25136 -0.33049,0.11017 -0.4845,0.5865 -0.18962,0.5865 0.28818,0 1.07597,0.77488 1.07597,1.05833 0,0.11642 -0.14287,0.21167 -0.3175,0.21167 -0.17462,0 -0.3175,-0.0952 -0.3175,-0.21167 0,-0.11642 -0.14287,-0.21167 -0.3175,-0.21167 -0.17462,0 -0.3175,0.0952 -0.3175,0.21167 0,0.11642 0.14288,0.21167 0.3175,0.21167 0.17463,0 0.3175,0.0953 0.3175,0.21166 0,0.27452 0.78382,1.05834 1.05834,1.05834 0.11641,0 0.21166,0.1905 0.21166,0.42333 0,0.23519 -0.14111,0.42333 -0.3175,0.42333 -0.17462,0 -0.3175,0.14288 -0.3175,0.3175 0,0.17463 0.14288,0.3175 0.3175,0.3175 0.17463,0 0.3175,-0.14287 0.3175,-0.3175 z m -17.29787,-0.53158 c 0.40692,-0.47526 0.47374,-0.84425 0.15287,-0.84425 -0.11641,0 -0.21166,0.14288 -0.21166,0.3175 0,0.17639 -0.18815,0.3175 -0.42334,0.3175 -0.42169,0 -0.55057,0.22554 -0.28222,0.49389 0.22521,0.22521 0.37583,0.16911 0.76435,-0.28464 z m 3.75121,0.10825 c 0,-0.17462 -0.0953,-0.3175 -0.21167,-0.3175 -0.11642,0 -0.21167,0.14288 -0.21167,0.3175 0,0.17463 0.0953,0.3175 0.21167,0.3175 0.11642,0 0.21167,-0.14287 0.21167,-0.3175 z m 16.89276,-0.12171 c -0.0417,-0.12515 -0.16633,-0.22754 -0.27693,-0.22754 -0.1106,0 -0.23521,0.10239 -0.27693,0.22754 -0.0417,0.12515 0.0829,0.22754 0.27693,0.22754 0.19403,0 0.31865,-0.10239 0.27693,-0.22754 z m 1.31057,0.0159 c 0,-0.11642 -0.14287,-0.21167 -0.3175,-0.21167 -0.17462,0 -0.3175,0.0952 -0.3175,0.21167 0,0.11641 0.14288,0.21166 0.3175,0.21166 0.17463,0 0.3175,-0.0952 0.3175,-0.21166 z m -18.83833,-0.42334 c 0,-0.11641 -0.0952,-0.21166 -0.21167,-0.21166 -0.11642,0 -0.21167,0.0952 -0.21167,0.21166 0,0.11642 0.0952,0.21167 0.21167,0.21167 0.11642,0 0.21167,-0.0952 0.21167,-0.21167 z m 19.47333,-0.21166 c 0,-0.11642 -0.0896,-0.21167 -0.19917,-0.21167 -0.10955,0 -0.25805,0.0952 -0.33,0.21167 -0.072,0.11641 0.0177,0.21166 0.19918,0.21166 0.18149,0 0.32999,-0.0952 0.32999,-0.21166 z M 119.9,85.436294 c -0.78557,-0.73187 -0.95329,-0.37154 -0.20229,0.43457 0.30776,0.33034 0.49404,0.40988 0.55208,0.23574 0.0482,-0.14455 -0.10922,-0.44619 -0.34979,-0.67031 z m -4.9001,0.33333 c 0,-0.17462 -0.14288,-0.3175 -0.3175,-0.3175 -0.33054,0 -0.41994,0.25034 -0.17639,0.49389 0.24355,0.24355 0.49389,0.15414 0.49389,-0.17639 z m 1.27,0 c 0,-0.17462 -0.0952,-0.3175 -0.21167,-0.3175 -0.11642,0 -0.21167,0.14288 -0.21167,0.3175 0,0.17463 0.0953,0.3175 0.21167,0.3175 0.11642,0 0.21167,-0.14287 0.21167,-0.3175 z m 1.40512,0 c 0.067,-0.17462 0.25452,-0.3175 0.41669,-0.3175 0.16217,0 0.29485,-0.10319 0.29485,-0.2293 0,-0.12612 -0.11906,-0.17381 -0.26458,-0.10598 -0.14552,0.0678 -0.43127,0.18214 -0.635,0.254 -0.20373,0.0719 -0.37042,0.26242 -0.37042,0.42347 0,0.39209 0.4054,0.37417 0.55846,-0.0247 z m 1.51213,-0.0731 c 0.0607,-0.18217 -0.0411,-0.25845 -0.28242,-0.21167 -0.20749,0.0402 -0.41993,0.20129 -0.47209,0.35793 -0.0607,0.18217 0.0411,0.25845 0.28242,0.21167 0.20749,-0.0402 0.41993,-0.20129 0.47209,-0.35793 z m 9.86525,-0.20661 c 0.14021,-0.22688 -0.63108,-0.88443 -1.03742,-0.88443 -0.1733,0 -0.31508,0.0952 -0.31508,0.21167 0,0.11642 0.1905,0.21167 0.42333,0.21167 0.23519,0 0.42333,0.14111 0.42333,0.3175 0,0.33914 0.32752,0.43211 0.50584,0.14359 z m -13.4175,-0.35526 c 0,-0.17462 -0.0896,-0.3175 -0.19918,-0.3175 -0.26691,0 -0.45807,0.33054 -0.28896,0.49964 0.23838,0.23838 0.48814,0.14518 0.48814,-0.18214 z m 1.85277,-0.3175 c 0.12023,0 0.27343,-0.14287 0.34044,-0.3175 0.067,-0.17462 0.22007,-0.3175 0.34014,-0.3175 0.12007,0 0.21831,0.14288 0.21831,0.3175 0,0.45023 0.476,0.39332 0.90546,-0.10825 0.40693,-0.47526 0.47374,-0.84425 0.15288,-0.84425 -0.11642,0 -0.21167,0.14288 -0.21167,0.3175 0,0.17639 -0.18815,0.3175 -0.42333,0.3175 -0.23519,0 -0.42334,-0.14111 -0.42334,-0.3175 0,-0.17462 -0.0714,-0.31433 -0.15875,-0.31046 -0.26008,0.0115 -1.11125,0.78489 -1.11125,1.00966 0,0.1144 -0.14891,0.26515 -0.33091,0.33499 -0.18468,0.0709 -0.26394,0.23536 -0.17936,0.37221 0.1075,0.17394 0.22587,0.14361 0.40717,-0.10433 0.14058,-0.19227 0.35398,-0.34957 0.47421,-0.34957 z m 3.54473,0.42333 c -0.072,-0.11641 -0.22045,-0.21166 -0.33,-0.21166 -0.10954,0 -0.19917,0.0953 -0.19917,0.21166 0,0.11642 0.1485,0.21167 0.32999,0.21167 0.1815,0 0.27113,-0.0953 0.19918,-0.21167 z m 1.27,0 c -0.072,-0.11641 -0.22045,-0.21166 -0.33,-0.21166 -0.10954,0 -0.19917,0.0953 -0.19917,0.21166 0,0.11642 0.1485,0.21167 0.32999,0.21167 0.1815,0 0.27113,-0.0953 0.19918,-0.21167 z m 0.74083,-0.64749 c 0,-0.10955 -0.0952,-0.19917 -0.21167,-0.19917 -0.11641,0 -0.21166,0.14849 -0.21166,0.32999 0,0.1815 0.0952,0.27112 0.21166,0.19917 0.11642,-0.0719 0.21167,-0.22044 0.21167,-0.32999 z m -6.13007,-0.60591 c 0.91753,-0.90841 0.99823,-1.07493 0.5209,-1.07493 -0.17462,0 -0.3175,0.0953 -0.3175,0.21167 0,0.27452 -0.78381,1.05833 -1.05833,1.05833 -0.11642,0 -0.21167,0.14288 -0.21167,0.3175 0,0.47023 0.14365,0.4012 1.0666,-0.51257 z m 3.66402,0.38662 c 0.20883,-0.2439 0.31221,-0.50584 0.22973,-0.58209 -0.0825,-0.0762 -0.19249,-0.0196 -0.24446,0.12596 -0.052,0.14552 -0.22944,0.26458 -0.39436,0.26458 -0.16492,0 -0.29986,0.14288 -0.29986,0.3175 0,0.44251 0.26208,0.39595 0.70895,-0.12595 z m 1.19605,0.12595 c 0,-0.17462 0.14287,-0.3175 0.3175,-0.3175 0.17462,0 0.3175,-0.0952 0.3175,-0.21167 0,-0.11641 -0.14288,-0.21166 -0.3175,-0.21166 -0.17463,0 -0.3175,0.0952 -0.3175,0.21166 0,0.11642 -0.14288,0.21167 -0.3175,0.21167 -0.33053,0 -0.41994,0.25034 -0.17639,0.49389 0.24355,0.24355 0.49389,0.15414 0.49389,-0.17639 z m 12.06134,-1.00542 c 0.007,-0.29639 -0.41801,-0.16041 -0.85073,0.27231 -0.6103,0.6103 -0.28782,0.96243 0.33801,0.36909 0.27999,-0.26546 0.51071,-0.55408 0.51272,-0.6414 z m -6.13467,0.60677 c 0,-0.16104 0.20008,-0.34513 0.44463,-0.40908 0.24525,-0.0641 0.38193,-0.21772 0.30481,-0.3425 -0.0927,-0.14999 -0.31164,-0.10129 -0.64964,0.1445 -0.51703,0.37596 -0.69837,0.8999 -0.31147,0.8999 0.11642,0 0.21167,-0.13177 0.21167,-0.29282 z m 1.27,-0.0247 c 0,-0.17463 -0.0952,-0.3175 -0.21167,-0.3175 -0.11642,0 -0.21167,0.14287 -0.21167,0.3175 0,0.17462 0.0952,0.3175 0.21167,0.3175 0.11642,0 0.21167,-0.14288 0.21167,-0.3175 z m 2.88679,0 c 0.067,-0.17463 0.25452,-0.3175 0.41669,-0.3175 0.16216,0 0.29485,-0.0953 0.29485,-0.21167 0,-0.11642 -0.14287,-0.21167 -0.3175,-0.21167 -0.17462,0 -0.3175,0.0952 -0.3175,0.21167 0,0.11642 -0.14287,0.21167 -0.3175,0.21167 -0.17462,0 -0.3175,0.14287 -0.3175,0.3175 0,0.17462 0.0982,0.3175 0.21831,0.3175 0.12007,0 0.27314,-0.14288 0.34015,-0.3175 z m -7.96679,-0.10584 c 0,-0.11641 -0.14288,-0.21166 -0.3175,-0.21166 -0.17463,0 -0.3175,0.0952 -0.3175,0.21166 0,0.11642 0.14287,0.21167 0.3175,0.21167 0.17462,0 0.3175,-0.0952 0.3175,-0.21167 z m 3.34058,-0.60229 c 0.0607,-0.18217 -0.0411,-0.25845 -0.28242,-0.21167 -0.20749,0.0402 -0.41992,0.20129 -0.47208,0.35793 -0.0607,0.18216 0.0411,0.25844 0.28242,0.21166 0.20749,-0.0402 0.41992,-0.20129 0.47208,-0.35792 z m 3.85608,0.0606 c 0,-0.18149 -0.0953,-0.27112 -0.21166,-0.19917 -0.11642,0.072 -0.21167,0.22045 -0.21167,0.32999 0,0.10955 0.0953,0.19918 0.21167,0.19918 0.11641,0 0.21166,-0.1485 0.21166,-0.33 z m -10.58333,-0.19917 c 0,-0.17462 0.14287,-0.3175 0.3175,-0.3175 0.17462,0 0.3175,-0.14287 0.3175,-0.3175 0,-0.17462 0.14287,-0.3175 0.3175,-0.3175 0.17462,0 0.3175,-0.14287 0.3175,-0.3175 0,-0.17462 -0.14288,-0.3175 -0.3175,-0.3175 -0.17463,0 -0.3175,0.14288 -0.3175,0.3175 0,0.17463 -0.14288,0.3175 -0.3175,0.3175 -0.17463,0 -0.3175,0.14288 -0.3175,0.3175 0,0.17463 -0.14288,0.3175 -0.3175,0.3175 -0.33053,0 -0.41994,0.25034 -0.17639,0.49389 0.24355,0.24355 0.49389,0.15414 0.49389,-0.17639 z m 2.54,0 c 0,-0.17462 -0.0952,-0.3175 -0.21167,-0.3175 -0.11641,0 -0.21166,-0.14287 -0.21166,-0.3175 0,-0.17462 0.0952,-0.3175 0.21166,-0.3175 0.11642,0 0.21167,-0.14287 0.21167,-0.3175 0,-0.17462 -0.0952,-0.3175 -0.21167,-0.3175 -0.11641,0 -0.21166,0.10856 -0.21166,0.24125 0,0.13268 -0.15552,0.35496 -0.34559,0.49394 -0.31728,0.232 -0.31342,0.29027 0.047,0.71126 0.45888,0.53592 0.72188,0.58731 0.72188,0.14105 z m 1.27,0.0907 c 0,-0.29304 -0.5385,-0.83154 -0.83155,-0.83154 -0.12473,0 -0.22678,0.0952 -0.22678,0.21166 0,0.11642 0.14287,0.21167 0.3175,0.21167 0.17462,0 0.3175,0.14288 0.3175,0.3175 0,0.17463 0.0953,0.3175 0.21166,0.3175 0.11642,0 0.21167,-0.10205 0.21167,-0.22679 z m -5.29167,-0.19654 c 0,-0.11642 -0.0896,-0.21167 -0.19917,-0.21167 -0.10955,0 -0.25804,0.0953 -0.32999,0.21167 -0.072,0.11641 0.0177,0.21166 0.19917,0.21166 0.1815,0 0.32999,-0.0953 0.32999,-0.21166 z m 2.75167,0 c 0,-0.11642 -0.0952,-0.21167 -0.21167,-0.21167 -0.11641,0 -0.21166,0.0953 -0.21166,0.21167 0,0.11641 0.0952,0.21166 0.21166,0.21166 0.11642,0 0.21167,-0.0953 0.21167,-0.21166 z m 10.08346,-0.3175 c 0.067,-0.17463 0.24433,-0.3175 0.39404,-0.3175 0.14971,0 0.32703,0.14287 0.39405,0.3175 0.067,0.17462 0.22007,0.3175 0.34014,0.3175 0.12007,0 0.21831,-0.14288 0.21831,-0.3175 0,-0.17463 -0.0952,-0.3175 -0.21167,-0.3175 -0.27452,0 -1.05833,-0.78382 -1.05833,-1.05834 0,-0.11641 -0.14287,-0.21166 -0.3175,-0.21166 -0.17462,0 -0.3175,0.0851 -0.3175,0.18902 0,0.10396 0.14288,0.24384 0.3175,0.31086 0.17463,0.067 0.3175,0.26769 0.3175,0.44597 0,0.17828 -0.14287,0.32415 -0.3175,0.32415 -0.17462,0 -0.3175,0.14287 -0.3175,0.3175 0,0.17462 0.0982,0.3175 0.21831,0.3175 0.12007,0 0.27314,-0.14288 0.34015,-0.3175 z m -13.47013,-0.21167 c 0,-0.17462 -0.0953,-0.3175 -0.21166,-0.3175 -0.11642,0 -0.21167,0.14288 -0.21167,0.3175 0,0.17463 0.0953,0.3175 0.21167,0.3175 0.11641,0 0.21166,-0.14287 0.21166,-0.3175 z m 1.27,0 c 0,-0.17462 -0.0953,-0.3175 -0.21166,-0.3175 -0.11642,0 -0.21167,0.14288 -0.21167,0.3175 0,0.17463 0.0953,0.3175 0.21167,0.3175 0.11641,0 0.21166,-0.14287 0.21166,-0.3175 z m 5.50334,0.10583 c 0,-0.11641 -0.14288,-0.21166 -0.3175,-0.21166 -0.17463,0 -0.3175,0.0952 -0.3175,0.21166 0,0.11642 0.14287,0.21167 0.3175,0.21167 0.17462,0 0.3175,-0.0952 0.3175,-0.21167 z m 1.27,0 c 0,-0.11641 -0.0953,-0.21166 -0.21167,-0.21166 -0.11642,0 -0.21167,0.0952 -0.21167,0.21166 0,0.11642 0.0953,0.21167 0.21167,0.21167 0.11642,0 0.21167,-0.0952 0.21167,-0.21167 z m 1.27,0 c 0,-0.11641 -0.0953,-0.21166 -0.21167,-0.21166 -0.11642,0 -0.21167,0.0952 -0.21167,0.21166 0,0.11642 0.0952,0.21167 0.21167,0.21167 0.11642,0 0.21167,-0.0952 0.21167,-0.21167 z m 1.74625,-0.083 c 0.40895,-0.31044 0.50366,-0.97535 0.13893,-0.97535 -0.12731,0 -0.2813,0.1905 -0.34219,0.42333 -0.12831,0.49066 -0.69633,0.57699 -0.69633,0.10584 0,-0.17463 -0.14287,-0.3175 -0.3175,-0.3175 -0.17462,0 -0.3175,0.14287 -0.3175,0.3175 0,0.17462 0.14288,0.3175 0.3175,0.3175 0.17463,0 0.3175,0.0952 0.3175,0.21166 0,0.29478 0.45755,0.25258 0.89959,-0.083 z m 1.00541,0.20131 c 0,-0.22341 -0.40621,-0.31727 -0.52703,-0.12178 -0.0731,0.11832 0.0155,0.21512 0.19704,0.21512 0.1815,0 0.32999,-0.042 0.32999,-0.0933 z m -3.47045,-0.90767 c -0.21516,-0.21516 -0.39269,0.10878 -0.21616,0.39442 0.13336,0.21578 0.18322,0.21594 0.25491,8.4e-4 0.049,-0.14706 0.0316,-0.32493 -0.0387,-0.39527 z m 4.10545,0.26018 c 0,-0.17463 -0.0953,-0.3175 -0.21166,-0.3175 -0.11642,0 -0.21167,0.14287 -0.21167,0.3175 0,0.17462 0.0953,0.3175 0.21167,0.3175 0.11641,0 0.21166,-0.14288 0.21166,-0.3175 z m -6.63821,-0.21167 c 0.067,-0.17462 0.25452,-0.3175 0.41669,-0.3175 0.16217,0 0.29486,-0.10319 0.29486,-0.2293 0,-0.12612 -0.11907,-0.17381 -0.26459,-0.10598 -0.14552,0.0678 -0.43127,0.18214 -0.635,0.254 -0.20373,0.0719 -0.37041,0.26242 -0.37041,0.42347 0,0.39209 0.4054,0.37417 0.55845,-0.0247 z m 1.61701,-0.10825 c 0.40692,-0.47526 0.47374,-0.84425 0.15287,-0.84425 -0.11642,0 -0.21167,0.13269 -0.21167,0.29485 0,0.16217 -0.14287,0.34968 -0.3175,0.4167 -0.17462,0.067 -0.3175,0.22007 -0.3175,0.34014 0,0.34472 0.29707,0.2559 0.6938,-0.20744 z m -6.69572,-0.10375 c 0.17481,-0.17481 0.27335,-0.48437 0.21898,-0.68792 -0.0832,-0.31141 -0.12335,-0.29363 -0.25336,0.11211 -0.11219,0.35011 -0.26327,0.44766 -0.5516,0.35615 -0.27306,-0.0867 -0.3971,-0.0224 -0.3971,0.20573 0,0.42132 0.56765,0.42936 0.98308,0.0139 z m 1.13359,0.10617 c 0,-0.11642 -0.14288,-0.21167 -0.3175,-0.21167 -0.17463,0 -0.3175,0.0952 -0.3175,0.21167 0,0.11641 0.14287,0.21166 0.3175,0.21166 0.17462,0 0.3175,-0.0952 0.3175,-0.21166 z m 1.905,-0.54166 c 0,-0.1815 -0.0953,-0.27113 -0.21167,-0.19918 -0.11641,0.072 -0.21166,0.22045 -0.21166,0.33 0,0.10954 0.0953,0.19917 0.21166,0.19917 0.11642,0 0.21167,-0.1485 0.21167,-0.32999 z m 1.64042,-0.0814 c 0.54718,-0.45647 0.62153,-0.85861 0.15875,-0.85861 -0.17463,0 -0.3175,0.13269 -0.3175,0.29485 0,0.16217 -0.14288,0.34968 -0.3175,0.4167 -0.32246,0.12374 -0.4493,0.5643 -0.15875,0.55141 0.0873,-0.004 0.37306,-0.18583 0.635,-0.40435 z m 3.86291,0.19972 c 0,-0.11641 -0.14287,-0.21166 -0.3175,-0.21166 -0.17462,0 -0.3175,0.0953 -0.3175,0.21166 0,0.11642 0.14288,0.21167 0.3175,0.21167 0.17463,0 0.3175,-0.0953 0.3175,-0.21167 z m 1.27,0 c 0,-0.11641 -0.14287,-0.21166 -0.3175,-0.21166 -0.17462,0 -0.3175,0.0953 -0.3175,0.21166 0,0.11642 0.14288,0.21167 0.3175,0.21167 0.17463,0 0.3175,-0.0953 0.3175,-0.21167 z m 1.60262,-0.0907 c 0.16631,-0.16631 0.30238,-0.41124 0.30238,-0.54429 0,-0.30539 -0.5316,-0.84666 -0.83154,-0.84666 -0.12474,0 -0.22679,0.0952 -0.22679,0.21166 0,0.11642 0.14288,0.21167 0.3175,0.21167 0.17639,0 0.3175,0.18815 0.3175,0.42333 0,0.23519 -0.14111,0.42334 -0.3175,0.42334 -0.17462,0 -0.3175,0.0953 -0.3175,0.21166 0,0.30784 0.40614,0.2591 0.75595,-0.0907 z m -9.64595,-0.12095 c 0,-0.11642 -0.1485,-0.21167 -0.32999,-0.21167 -0.1815,0 -0.27113,0.0953 -0.19918,0.21167 0.072,0.11641 0.22045,0.21166 0.33,0.21166 0.10954,0 0.19917,-0.0953 0.19917,-0.21166 z m 6.13833,-0.51153 c 0,-0.16492 0.11907,-0.34239 0.26459,-0.39436 0.14552,-0.052 0.2022,-0.16198 0.12595,-0.24446 -0.14891,-0.16109 -1.02554,0.50057 -1.02554,0.77405 0,0.0906 0.14288,0.16463 0.3175,0.16463 0.17463,0 0.3175,-0.13494 0.3175,-0.29986 z m 1.27,-0.0176 c 0,-0.17463 0.14288,-0.3175 0.3175,-0.3175 0.17463,0 0.3175,-0.0952 0.3175,-0.21167 0,-0.11642 -0.14287,-0.21167 -0.3175,-0.21167 -0.17462,0 -0.3175,0.0952 -0.3175,0.21167 0,0.11642 -0.14287,0.21167 -0.3175,0.21167 -0.17462,0 -0.3175,0.14287 -0.3175,0.3175 0,0.17462 0.14288,0.3175 0.3175,0.3175 0.17463,0 0.3175,-0.14288 0.3175,-0.3175 z m 1.27,0 c 0,-0.17463 -0.0952,-0.3175 -0.21166,-0.3175 -0.11642,0 -0.21167,0.14287 -0.21167,0.3175 0,0.17462 0.0952,0.3175 0.21167,0.3175 0.11641,0 0.21166,-0.14288 0.21166,-0.3175 z m -9.31333,-0.22931 c 0,-0.18433 -0.11311,-0.29743 -0.25135,-0.25135 -0.39248,0.13082 -0.45758,0.58648 -0.0838,0.58648 0.18433,0 0.33514,-0.15081 0.33514,-0.33513 z m 1.27,0.12347 c 0,-0.11642 -0.0952,-0.21167 -0.21167,-0.21167 -0.11641,0 -0.21166,0.0952 -0.21166,0.21167 0,0.11641 0.0952,0.21166 0.21166,0.21166 0.11642,0 0.21167,-0.0952 0.21167,-0.21166 z m 1.27,0 c 0,-0.11642 -0.0952,-0.21167 -0.21167,-0.21167 -0.11641,0 -0.21166,0.0952 -0.21166,0.21167 0,0.11641 0.0952,0.21166 0.21166,0.21166 0.11642,0 0.21167,-0.0952 0.21167,-0.21166 z m 3.10949,-0.11592 c 0.18016,-0.18016 0.25557,-0.39448 0.16756,-0.47625 -0.088,-0.0818 -0.20253,-0.0296 -0.2545,0.11592 -0.052,0.14552 -0.22381,0.26458 -0.38186,0.26458 -0.15806,0 -0.34624,0.0952 -0.41819,0.21167 -0.21004,0.33985 0.52762,0.24345 0.88699,-0.11592 z m -3.81157,-0.55877 c -0.0676,-0.16885 -0.11772,-0.1187 -0.12788,0.12788 -0.009,0.22313 0.0408,0.34815 0.11118,0.27781 0.0703,-0.0703 0.0778,-0.25289 0.0167,-0.40569 z m 2.18375,-0.71205 c 0,-0.0522 -0.10206,-0.0949 -0.22679,-0.0949 -0.34854,0 -0.83155,0.56243 -0.83155,0.96829 0,0.28827 0.10955,0.24532 0.52917,-0.20745 0.29104,-0.31404 0.52917,-0.6137 0.52917,-0.66591 z m 0.635,0.85757 c 0,-0.17462 -0.0952,-0.3175 -0.21167,-0.3175 -0.11642,0 -0.21167,0.14288 -0.21167,0.3175 0,0.17463 0.0953,0.3175 0.21167,0.3175 0.11642,0 0.21167,-0.14287 0.21167,-0.3175 z m -4.02167,-0.19917 c 0,-0.22341 -0.40621,-0.31727 -0.52703,-0.12178 -0.0731,0.11831 0.0155,0.21512 0.19704,0.21512 0.18149,0 0.32999,-0.042 0.32999,-0.0933 z m 4.86833,-0.43583 c 0,-0.17462 0.0953,-0.3175 0.21167,-0.3175 0.11642,0 0.21167,-0.14287 0.21167,-0.3175 0,-0.17462 -0.0953,-0.3175 -0.21167,-0.3175 -0.11642,0 -0.21167,0.14288 -0.21167,0.3175 0,0.17463 -0.13268,0.3175 -0.29485,0.3175 -0.16217,0 -0.34968,-0.14287 -0.41669,-0.3175 -0.14221,-0.37059 -0.55846,-0.42854 -0.55846,-0.0777 0,0.26596 0.80915,1.03025 1.09072,1.03025 0.0986,0 0.17928,-0.14287 0.17928,-0.3175 z m 1.27,0 c 0,-0.17462 -0.14287,-0.3175 -0.3175,-0.3175 -0.17462,0 -0.3175,0.14288 -0.3175,0.3175 0,0.17463 0.14288,0.3175 0.3175,0.3175 0.17463,0 0.3175,-0.14287 0.3175,-0.3175 z m 1.27,0 c 0,-0.17462 -0.14287,-0.3175 -0.3175,-0.3175 -0.48347,0 -0.38294,-0.26809 0.3175,-0.84667 0.79057,-0.65302 0.88888,-1.26287 0.11249,-0.69779 -0.28738,0.20916 -0.52551,0.49936 -0.52917,0.64488 -0.01,0.3808 -0.85332,0.32848 -0.85332,-0.0529 0,-0.17462 -0.14287,-0.3175 -0.3175,-0.3175 -0.47377,0 -0.39664,0.17377 0.47625,1.07305 0.86278,0.88884 1.11125,1.00387 1.11125,0.51445 z m 1.27,0 c 0,-0.17462 -0.0952,-0.3175 -0.21166,-0.3175 -0.11642,0 -0.21167,0.14288 -0.21167,0.3175 0,0.17463 0.0952,0.3175 0.21167,0.3175 0.11641,0 0.21166,-0.14287 0.21166,-0.3175 z m -7.83166,-0.10583 c 0,-0.11642 -0.14288,-0.21167 -0.3175,-0.21167 -0.17463,0 -0.3175,0.0953 -0.3175,0.21167 0,0.11641 0.14287,0.21166 0.3175,0.21166 0.17462,0 0.3175,-0.0953 0.3175,-0.21166 z m 1.27,0 c 0,-0.11642 -0.14288,-0.21167 -0.3175,-0.21167 -0.17463,0 -0.3175,0.0953 -0.3175,0.21167 0,0.11641 0.14287,0.21166 0.3175,0.21166 0.17462,0 0.3175,-0.0953 0.3175,-0.21166 z m 5.82083,-0.42334 c 0.072,-0.11641 0.0299,-0.21166 -0.0933,-0.21166 -0.12329,0 -0.22416,0.0952 -0.22416,0.21166 0,0.11642 0.042,0.21167 0.0933,0.21167 0.0513,0 0.15221,-0.0952 0.22416,-0.21167 z m -7.84284,-0.44141 c -0.0682,-0.11027 -0.21413,-0.14473 -0.32441,-0.0766 -0.11027,0.0682 -0.14473,0.21413 -0.0766,0.32441 0.0681,0.11027 0.21414,0.14473 0.32441,0.0766 0.11027,-0.0682 0.14473,-0.21414 0.0766,-0.32441 z m 1.31046,0.12391 c 0.067,-0.17462 0.25452,-0.3175 0.41669,-0.3175 0.16217,0 0.29486,-0.0952 0.29486,-0.21166 0,-0.11642 -0.14288,-0.21167 -0.3175,-0.21167 -0.17463,0 -0.3175,0.0952 -0.3175,0.21167 0,0.33279 -0.57611,0.2471 -0.71155,-0.10584 -0.067,-0.17462 -0.22007,-0.3175 -0.34014,-0.3175 -0.12007,0 -0.21831,0.14288 -0.21831,0.3175 0,0.17463 0.14287,0.3175 0.3175,0.3175 0.17462,0 0.3175,0.14288 0.3175,0.3175 0,0.17463 0.0982,0.3175 0.21831,0.3175 0.12007,0 0.27313,-0.14287 0.34014,-0.3175 z m 1.34655,0 c 0,-0.17462 0.14967,-0.3175 0.33262,-0.3175 0.18294,0 0.46869,-0.13607 0.635,-0.30238 0.34689,-0.34689 0.40509,-0.96762 0.0907,-0.96762 -0.11642,0 -0.21167,-0.14287 -0.21167,-0.3175 0,-0.17462 0.0953,-0.3175 0.21167,-0.3175 0.11642,0 0.21167,-0.14287 0.21167,-0.3175 0,-0.17462 -0.0952,-0.3175 -0.21167,-0.3175 -0.11642,0 -0.21167,-0.15081 -0.21167,-0.33514 0,-0.37378 -0.45566,-0.30869 -0.58649,0.0838 -0.0461,0.13824 0.067,0.25135 0.25136,0.25135 0.42568,0 0.43931,0.54974 0.0176,0.71155 -0.17463,0.067 -0.3175,0.22007 -0.3175,0.34014 0,0.12007 0.14287,0.21831 0.3175,0.21831 0.56698,0 0.33963,0.73353 -0.3175,1.02441 -0.59475,0.26326 -0.89152,0.88059 -0.42334,0.88059 0.11642,0 0.21167,-0.14287 0.21167,-0.3175 z m -3.38667,-0.52916 c 0,-0.11642 -0.0953,-0.21167 -0.21167,-0.21167 -0.11641,0 -0.21166,0.0952 -0.21166,0.21167 0,0.11641 0.0953,0.21166 0.21166,0.21166 0.11642,0 0.21167,-0.0952 0.21167,-0.21166 z m 5.62429,-0.0907 c 0.34981,-0.34981 0.39855,-0.75595 0.0907,-0.75595 -0.11642,0 -0.21167,0.14288 -0.21167,0.3175 0,0.17463 -0.14287,0.3175 -0.3175,0.3175 -0.17462,0 -0.3175,0.0952 -0.3175,0.21167 0,0.30783 0.40614,0.2591 0.75596,-0.0907 z m -4.77762,-0.7786 c 0,-0.24185 -0.57399,-0.24731 -0.72259,-0.007 -0.0619,0.10018 -0.0582,0.2365 0.008,0.30292 0.16517,0.16518 0.71438,-0.0624 0.71438,-0.29604 z m 1.66375,-0.18902 c 0.13268,0 0.24125,-0.14287 0.24125,-0.3175 0,-0.17462 -0.0982,-0.3175 -0.21831,-0.3175 -0.12007,0 -0.27314,0.14288 -0.34015,0.3175 -0.17737,0.46223 -0.55169,0.37841 -0.98826,-0.2213 -0.3463,-0.47571 -0.35132,-0.55673 -0.0529,-0.85513 0.41151,-0.41151 0.41388,-0.51107 0.0121,-0.51107 -0.17463,0 -0.3175,0.14288 -0.3175,0.3175 0,0.17463 -0.14288,0.3175 -0.3175,0.3175 -0.47411,0 -0.39643,0.1744 0.47625,1.06916 0.66238,0.67915 0.83264,0.76311 1.02875,0.50734 0.12925,-0.16857 0.34356,-0.3065 0.47625,-0.3065 z m 0.87625,0.3175 c 0,-0.17462 -0.0952,-0.3175 -0.21167,-0.3175 -0.11642,0 -0.21167,0.14288 -0.21167,0.3175 0,0.17463 0.0952,0.3175 0.21167,0.3175 0.11642,0 0.21167,-0.14287 0.21167,-0.3175 z m 4.1275,0.10584 c 0.072,-0.11642 -0.0709,-0.21167 -0.3175,-0.21167 -0.24658,0 -0.38945,0.0953 -0.3175,0.21167 0.072,0.11641 0.21482,0.21166 0.3175,0.21166 0.10267,0 0.24555,-0.0953 0.3175,-0.21166 z m -8.14917,-0.20503 c 0,-0.11276 -0.14288,-0.15019 -0.3175,-0.0832 -0.17463,0.067 -0.3175,0.15927 -0.3175,0.20502 0,0.0457 0.14287,0.0832 0.3175,0.0832 0.17462,0 0.3175,-0.0923 0.3175,-0.20503 z m 0.635,-0.53581 c 0,-0.17462 -0.0953,-0.3175 -0.21167,-0.3175 -0.11641,0 -0.21166,0.14288 -0.21166,0.3175 0,0.17463 0.0953,0.3175 0.21166,0.3175 0.11642,0 0.21167,-0.14287 0.21167,-0.3175 z m 5.50333,-0.0176 c 0,-0.18433 -0.1131,-0.29744 -0.25135,-0.25136 -0.39248,0.13083 -0.45757,0.58649 -0.0838,0.58649 0.18432,0 0.33513,-0.15081 0.33513,-0.33514 z m 1.27,0.13596 c 0,-0.10955 -0.0953,-0.25804 -0.21166,-0.32999 -0.11642,-0.0719 -0.21167,0.0177 -0.21167,0.19917 0,0.1815 0.0953,0.32999 0.21167,0.32999 0.11641,0 0.21166,-0.0896 0.21166,-0.19917 z m 1.27,-0.0125 c 0,-0.11642 -0.0953,-0.21167 -0.21166,-0.21167 -0.11642,0 -0.21167,0.0952 -0.21167,0.21167 0,0.11641 0.0953,0.21166 0.21167,0.21166 0.11641,0 0.21166,-0.0952 0.21166,-0.21166 z m 1.48167,0 c 0,-0.11642 -0.14287,-0.21167 -0.3175,-0.21167 -0.17462,0 -0.3175,0.0952 -0.3175,0.21167 0,0.11641 0.14288,0.21166 0.3175,0.21166 0.17463,0 0.3175,-0.0952 0.3175,-0.21166 z m -10.795,-0.3175 c 0,-0.18601 0.19285,-0.3175 0.46567,-0.3175 0.334,0 0.4009,-0.0648 0.23662,-0.22905 -0.16428,-0.16428 -0.35464,-0.15061 -0.67325,0.0484 -0.55673,0.34769 -0.75175,0.81569 -0.3399,0.81569 0.17097,0 0.31086,-0.14288 0.31086,-0.3175 z m 4.65667,-0.42334 c 0,-0.17462 -0.0952,-0.3175 -0.21167,-0.3175 -0.11642,0 -0.21167,0.14288 -0.21167,0.3175 0,0.17463 0.0952,0.3175 0.21167,0.3175 0.11642,0 0.21167,-0.14287 0.21167,-0.3175 z m 2.75166,0.14111 c 0,-0.2756 -0.25162,-0.4589 -0.45631,-0.33239 -0.21891,0.13529 -0.0301,0.50878 0.25714,0.50878 0.10955,0 0.19917,-0.0794 0.19917,-0.17639 z m 1.27,-0.25943 c 0,-0.10955 -0.14287,-0.19918 -0.3175,-0.19918 -0.17462,0 -0.3175,-0.14287 -0.3175,-0.3175 0,-0.17462 -0.0953,-0.3175 -0.21166,-0.3175 -0.31843,0 -0.25506,0.36782 0.14359,0.83341 0.3454,0.4034 0.70307,0.40379 0.70307,7.6e-4 z m 1.48167,0.23665 c 0,-0.10955 -0.0953,-0.25804 -0.21167,-0.32999 -0.11641,-0.072 -0.21166,0.0177 -0.21166,0.19917 0,0.1815 0.0953,0.32999 0.21166,0.32999 0.11642,0 0.21167,-0.0896 0.21167,-0.19917 z m -10.795,-0.22416 c 0,-0.11642 -0.14288,-0.21167 -0.3175,-0.21167 -0.17463,0 -0.3175,0.0952 -0.3175,0.21167 0,0.11642 0.14287,0.21167 0.3175,0.21167 0.17462,0 0.3175,-0.0952 0.3175,-0.21167 z m 4.02167,0 c 0,-0.11642 -0.0953,-0.21167 -0.21167,-0.21167 -0.11642,0 -0.21167,0.0952 -0.21167,0.21167 0,0.11642 0.0952,0.21167 0.21167,0.21167 0.11642,0 0.21167,-0.0952 0.21167,-0.21167 z m -3.38667,-0.75333 c 0,-0.16775 -0.0952,-0.305 -0.21167,-0.305 -0.11641,0 -0.21166,0.19612 -0.21166,0.43582 0,0.23971 0.0952,0.37696 0.21166,0.30501 0.11642,-0.072 0.21167,-0.26807 0.21167,-0.43583 z m 4.02167,0.10584 c 0,-0.10955 -0.0952,-0.19918 -0.21167,-0.19918 -0.11642,0 -0.21167,0.1485 -0.21167,0.33 0,0.18149 0.0953,0.27112 0.21167,0.19917 0.11642,-0.072 0.21167,-0.22045 0.21167,-0.32999 z m 2.75166,0.11832 c 0,-0.17462 0.14288,-0.3175 0.3175,-0.3175 0.17463,0 0.3175,-0.14287 0.3175,-0.3175 0,-0.43795 -0.26098,-0.39723 -0.69379,0.10826 -0.40692,0.47525 -0.47374,0.84424 -0.15287,0.84424 0.11641,0 0.21166,-0.14287 0.21166,-0.3175 z m 2.54,0 c 0,-0.17462 -0.0953,-0.3175 -0.21166,-0.3175 -0.30535,0 -0.26098,-0.58211 0.0529,-0.69421 0.14552,-0.052 0.2022,-0.16198 0.12596,-0.24446 -0.14891,-0.1611 -1.02554,0.50056 -1.02554,0.77405 0,0.0905 0.14288,0.16462 0.3175,0.16462 0.17463,0 0.3175,0.14288 0.3175,0.3175 0,0.17463 0.0953,0.3175 0.21167,0.3175 0.11641,0 0.21166,-0.14287 0.21166,-0.3175 z m 1.48167,0.10584 c 0,-0.11642 -0.14287,-0.21167 -0.3175,-0.21167 -0.17462,0 -0.3175,0.0953 -0.3175,0.21167 0,0.11641 0.14288,0.21166 0.3175,0.21166 0.17463,0 0.3175,-0.0953 0.3175,-0.21166 z m -9.525,-0.3175 c 0,-0.17463 -0.0953,-0.3175 -0.21167,-0.3175 -0.34022,0 -0.24378,-0.45885 0.15875,-0.7553 0.35278,-0.25981 0.35278,-0.27964 0,-0.4164 -0.20373,-0.079 -0.37041,-0.27628 -0.37041,-0.43845 0,-0.16217 -0.14288,-0.29485 -0.3175,-0.29485 -0.17463,0 -0.3175,0.14287 -0.3175,0.3175 0,0.17462 0.14287,0.3175 0.3175,0.3175 0.17462,0 0.3175,0.13268 0.3175,0.29485 0,0.16217 -0.14288,0.34968 -0.3175,0.41669 -0.17463,0.067 -0.3175,0.22008 -0.3175,0.34015 0,0.12007 0.14287,0.21831 0.3175,0.21831 0.17462,0 0.3175,0.14287 0.3175,0.3175 0,0.17462 0.0953,0.3175 0.21166,0.3175 0.11642,0 0.21167,-0.14288 0.21167,-0.3175 z m 3.54983,-0.48948 c 0.0461,-0.13825 -0.067,-0.25136 -0.25136,-0.25136 -0.18432,0 -0.33514,0.15082 -0.33514,0.33514 0,0.37379 0.45567,0.30869 0.5865,-0.0838 z m 5.34017,0.0661 c 0,-0.17462 0.14288,-0.3175 0.3175,-0.3175 0.17463,0 0.3175,-0.0952 0.3175,-0.21166 0,-0.30784 -0.40614,-0.2591 -0.75595,0.0907 -0.34982,0.34981 -0.39855,0.75595 -0.0907,0.75595 0.11642,0 0.21167,-0.14287 0.21167,-0.3175 z m 2.54,0.10584 c 0,-0.11642 -0.0952,-0.21167 -0.21167,-0.21167 -0.11641,0 -0.21166,0.0952 -0.21166,0.21167 0,0.11641 0.0952,0.21166 0.21166,0.21166 0.11642,0 0.21167,-0.0952 0.21167,-0.21166 z m -10.58333,-0.21167 c 0,-0.11642 -0.14288,-0.21167 -0.3175,-0.21167 -0.17463,0 -0.3175,0.0952 -0.3175,0.21167 0,0.11642 0.14287,0.21167 0.3175,0.21167 0.17462,0 0.3175,-0.0952 0.3175,-0.21167 z m 1.27,0 c 0,-0.11642 -0.0953,-0.21167 -0.21167,-0.21167 -0.11642,0 -0.21167,0.0952 -0.21167,0.21167 0,0.11642 0.0952,0.21167 0.21167,0.21167 0.11642,0 0.21167,-0.0952 0.21167,-0.21167 z m 8.04333,0.11833 c 0,-0.0513 -0.0952,-0.15221 -0.21167,-0.22416 -0.11641,-0.0719 -0.21166,-0.0299 -0.21166,0.0933 0,0.12329 0.0952,0.22416 0.21166,0.22416 0.11642,0 0.21167,-0.042 0.21167,-0.0933 z m -3.38667,-0.63323 c 0,-0.16678 0.20009,-0.36674 0.44464,-0.44436 0.32219,-0.10226 0.3808,-0.20497 0.21284,-0.37293 -0.16797,-0.16797 -0.34872,-0.10632 -0.65631,0.22384 -0.45743,0.49099 -0.55372,0.89668 -0.21283,0.89668 0.11641,0 0.21166,-0.13645 0.21166,-0.30323 z m 4.23334,0.0916 c 0,-0.11642 -0.14288,-0.21167 -0.3175,-0.21167 -0.17463,0 -0.3175,0.0952 -0.3175,0.21167 0,0.11641 0.14287,0.21166 0.3175,0.21166 0.17462,0 0.3175,-0.0952 0.3175,-0.21166 z m 1.27,0 c 0,-0.11642 -0.0896,-0.21167 -0.19918,-0.21167 -0.10954,0 -0.25804,0.0952 -0.32999,0.21167 -0.072,0.11641 0.0177,0.21166 0.19917,0.21166 0.1815,0 0.33,-0.0952 0.33,-0.21166 z m -10.58334,-0.42334 c 0.39295,-0.39294 0.56309,-0.84666 0.3175,-0.84666 -0.19355,0 -0.9525,0.84327 -0.9525,1.05833 0,0.31435 0.16348,0.25985 0.635,-0.21167 z m -2.96333,0 c 0,-0.11641 -0.0952,-0.21166 -0.21167,-0.21166 -0.11641,0 -0.21166,0.0952 -0.21166,0.21166 0,0.11642 0.0952,0.21167 0.21166,0.21167 0.11642,0 0.21167,-0.0952 0.21167,-0.21167 z m 4.23333,0.11833 c 0,-0.22341 -0.40621,-0.31727 -0.52703,-0.12178 -0.0731,0.11832 0.0155,0.21512 0.19704,0.21512 0.1815,0 0.32999,-0.042 0.32999,-0.0933 z m 7.19667,-0.43583 c 0,-0.17462 -0.0952,-0.3175 -0.21167,-0.3175 -0.11641,0 -0.21166,0.14288 -0.21166,0.3175 0,0.17463 0.0952,0.3175 0.21166,0.3175 0.11642,0 0.21167,-0.14287 0.21167,-0.3175 z m 1.27,0.20422 c 0,-0.23734 -0.69229,-1.15672 -0.87101,-1.15672 -0.10303,0 -0.18732,0.14288 -0.18732,0.3175 0,0.17463 0.14287,0.3175 0.3175,0.3175 0.17462,0 0.3175,0.14288 0.3175,0.3175 0,0.17463 0.0952,0.3175 0.21166,0.3175 0.11642,0 0.21167,-0.051 0.21167,-0.11328 z m -10.58333,-0.41591 c 0,-0.17463 -0.0851,-0.3175 -0.18902,-0.3175 -0.10397,0 -0.24385,0.14287 -0.31086,0.3175 -0.0742,0.1934 -4.3e-4,0.3175 0.18902,0.3175 0.17097,0 0.31086,-0.14288 0.31086,-0.3175 z m 8.04333,0.10583 c 0,-0.11642 -0.0953,-0.21167 -0.21167,-0.21167 -0.11641,0 -0.21166,0.0953 -0.21166,0.21167 0,0.11642 0.0953,0.21167 0.21166,0.21167 0.11642,0 0.21167,-0.0953 0.21167,-0.21167 z m 0.635,-0.42333 c 0,-0.11642 -0.0952,-0.21167 -0.21167,-0.21167 -0.11641,0 -0.21166,0.0952 -0.21166,0.21167 0,0.11641 0.0952,0.21166 0.21166,0.21166 0.11642,0 0.21167,-0.0952 0.21167,-0.21166 z m 2.75167,-0.12348 c 0,-0.37378 -0.45567,-0.30869 -0.5865,0.0838 -0.0461,0.13824 0.067,0.25135 0.25136,0.25135 0.18432,0 0.33514,-0.15081 0.33514,-0.33514 z m 1.27,0.12348 c 0,-0.11642 -0.0953,-0.21167 -0.21167,-0.21167 -0.11642,0 -0.21167,0.0952 -0.21167,0.21167 0,0.11641 0.0952,0.21166 0.21167,0.21166 0.11642,0 0.21167,-0.0952 0.21167,-0.21166 z m -5.50334,-0.21167 c 0,-0.11642 -0.10087,-0.21167 -0.22416,-0.21167 -0.12328,0 -0.16529,0.0952 -0.0933,0.21167 0.072,0.11642 0.17283,0.21167 0.22416,0.21167 0.0513,0 0.0933,-0.0952 0.0933,-0.21167 z m -9.31333,-0.21167 c 0,-0.11641 -0.0952,-0.21166 -0.21167,-0.21166 -0.11641,0 -0.21166,0.0952 -0.21166,0.21166 0,0.11642 0.0952,0.21167 0.21166,0.21167 0.11642,0 0.21167,-0.0952 0.21167,-0.21167 z m 1.48167,0 c 0,-0.11641 -0.14288,-0.21166 -0.3175,-0.21166 -0.17639,0 -0.3175,-0.18815 -0.3175,-0.42334 0,-0.23283 -0.0896,-0.42333 -0.19918,-0.42333 -0.38897,0 -0.4147,0.36337 -0.0574,0.81069 0.37699,0.47195 0.89158,0.61489 0.89158,0.24764 z m 1.27,0 c 0,-0.11641 -0.0896,-0.21166 -0.19918,-0.21166 -0.10954,0 -0.25804,0.0952 -0.32999,0.21166 -0.072,0.11642 0.0177,0.21167 0.19917,0.21167 0.1815,0 0.33,-0.0952 0.33,-0.21167 z m 7.32455,-0.57767 c -0.21517,-0.21516 -0.3927,0.10877 -0.21616,0.39442 0.13335,0.21577 0.18321,0.21594 0.25491,8.4e-4 0.049,-0.14706 0.0316,-0.32493 -0.0388,-0.39527 z m 1.35378,0.26017 c 0,-0.17462 -0.0952,-0.3175 -0.21167,-0.3175 -0.11641,0 -0.21166,0.14288 -0.21166,0.3175 0,0.17463 0.0952,0.3175 0.21166,0.3175 0.11642,0 0.21167,-0.14287 0.21167,-0.3175 z m 4.11633,-0.12391 c -0.0682,-0.11027 -0.21414,-0.14473 -0.32441,-0.0766 -0.11027,0.0682 -0.14473,0.21413 -0.0766,0.32441 0.0682,0.11027 0.21413,0.14473 0.32441,0.0766 0.11027,-0.0682 0.14473,-0.21414 0.0766,-0.32441 z m -13.42966,-0.19359 c 0,-0.23283 -0.0953,-0.42333 -0.21167,-0.42333 -0.11642,0 -0.21167,0.1905 -0.21167,0.42333 0,0.23284 0.0953,0.42334 0.21167,0.42334 0.11642,0 0.21167,-0.1905 0.21167,-0.42334 z m 10.795,0.21167 c 0,-0.11642 0.14287,-0.21167 0.3175,-0.21167 0.36022,0 0.42549,-0.33161 0.10434,-0.53009 -0.11724,-0.0725 -0.27031,0.0172 -0.34015,0.19918 -0.0698,0.182 -0.25967,0.33091 -0.42184,0.33091 -0.16217,0 -0.29485,0.0952 -0.29485,0.21167 0,0.11642 0.14287,0.21167 0.3175,0.21167 0.17462,0 0.3175,-0.0952 0.3175,-0.21167 z m -16.08667,-0.42333 c 0,-0.11642 -0.14288,-0.21167 -0.3175,-0.21167 -0.17463,0 -0.3175,-0.14287 -0.3175,-0.3175 0,-0.17462 -0.0851,-0.3175 -0.18902,-0.3175 -0.10396,0 -0.24385,0.14288 -0.31086,0.3175 -0.0742,0.1934 -4.2e-4,0.3175 0.18902,0.3175 0.17097,0 0.31086,0.0952 0.31086,0.21167 0,0.11641 0.14287,0.21166 0.3175,0.21166 0.17462,0 0.3175,-0.0952 0.3175,-0.21166 z m 13.97,-0.10584 c 0,-0.17462 -0.0952,-0.3175 -0.21167,-0.3175 -0.11641,0 -0.21166,0.14288 -0.21166,0.3175 0,0.17463 0.0952,0.3175 0.21166,0.3175 0.11642,0 0.21167,-0.14287 0.21167,-0.3175 z m 2.11667,-0.81802 c 0,-0.074 -0.14288,-0.13448 -0.3175,-0.13448 -0.17463,0 -0.3175,0.14288 -0.3175,0.3175 0,0.17463 -0.0953,0.3175 -0.21167,0.3175 -0.11642,0 -0.21167,0.13833 -0.21167,0.3074 0,0.21994 0.15055,0.16787 0.52917,-0.18303 0.29104,-0.26972 0.52917,-0.55093 0.52917,-0.62489 z m 2.06816,0.88417 c -0.13083,-0.39248 -0.5865,-0.45757 -0.5865,-0.0838 0,0.18433 0.15082,0.33514 0.33514,0.33514 0.18433,0 0.29744,-0.11311 0.25136,-0.25135 z m 1.3185,-0.0661 c 0,-0.17462 -0.14287,-0.3175 -0.3175,-0.3175 -0.41049,0 -0.40578,-0.36528 0.0101,-0.78115 0.18017,-0.18017 0.27441,-0.38074 0.20943,-0.44572 -0.065,-0.065 -0.31922,0.0977 -0.56497,0.36146 -0.39143,0.42014 -0.41296,0.54289 -0.17367,0.99001 0.30272,0.56562 0.83663,0.68872 0.83663,0.1929 z m -16.12723,-0.33337 c -0.0417,-0.12515 -0.16634,-0.22754 -0.27693,-0.22754 -0.1106,0 -0.23522,0.10239 -0.27693,0.22754 -0.0417,0.12515 0.0829,0.22754 0.27693,0.22754 0.19403,0 0.31864,-0.10239 0.27693,-0.22754 z m 1.31057,0.0159 c 0,-0.11641 -0.0953,-0.21166 -0.21167,-0.21166 -0.11642,0 -0.21167,0.0953 -0.21167,0.21166 0,0.11642 0.0952,0.21167 0.21167,0.21167 0.11642,0 0.21167,-0.0953 0.21167,-0.21167 z m -6.56167,-0.3175 c 0,-0.17462 0.14287,-0.3175 0.3175,-0.3175 0.17462,0 0.3175,-0.0952 0.3175,-0.21166 0,-0.11642 -0.0942,-0.21167 -0.20925,-0.21167 -0.32524,0 -1.05185,0.68983 -0.93158,0.88442 0.17832,0.28853 0.50583,0.19556 0.50583,-0.14359 z m 19.35633,-0.12391 c -0.0682,-0.11027 -0.21414,-0.14473 -0.32441,-0.0766 -0.11027,0.0682 -0.14473,0.21413 -0.0766,0.32441 0.0682,0.11027 0.21413,0.14473 0.32441,0.0766 0.11027,-0.0682 0.14473,-0.21414 0.0766,-0.32441 z m 3.05075,-0.19359 c 0.13269,0 0.24125,-0.0952 0.24125,-0.21166 0,-0.11642 -0.0714,-0.20864 -0.15875,-0.20494 -0.31718,0.0135 -0.89941,0.5764 -0.89285,0.86327 0.005,0.21481 0.0826,0.19425 0.28792,-0.0763 0.15465,-0.20373 0.38975,-0.37042 0.52243,-0.37042 z m -16.48041,-0.11832 c 0,-0.16776 -0.13494,-0.30501 -0.29987,-0.30501 -0.16492,0 -0.33226,-0.0972 -0.37187,-0.21604 -0.0776,-0.23284 -1.22864,0.20466 -1.23161,0.46813 -0.004,0.32492 0.43326,0.38735 0.55165,0.0788 0.18235,-0.47519 0.64724,-0.40772 0.7836,0.11371 0.1246,0.47651 0.5681,0.36751 0.5681,-0.13962 z m -6.77334,-0.21167 c 0,-0.18149 -0.0953,-0.27112 -0.21166,-0.19917 -0.11642,0.0719 -0.21167,0.22044 -0.21167,0.32999 0,0.10954 0.0953,0.19917 0.21167,0.19917 0.11641,0 0.21166,-0.14849 0.21166,-0.32999 z m 2.75167,0.11833 c 0,-0.11642 -0.14288,-0.21167 -0.3175,-0.21167 -0.17463,0 -0.3175,0.0952 -0.3175,0.21167 0,0.11641 0.14287,0.21166 0.3175,0.21166 0.17462,0 0.3175,-0.0952 0.3175,-0.21166 z m 15.45167,-0.22416 c 0,-0.10955 -0.0953,-0.19918 -0.21167,-0.19918 -0.11642,0 -0.21167,0.1485 -0.21167,0.33 0,0.18149 0.0952,0.27112 0.21167,0.19917 0.11642,-0.0719 0.21167,-0.22045 0.21167,-0.32999 z m 1.27,0.11832 c 0,-0.17462 -0.0952,-0.3175 -0.21167,-0.3175 -0.11642,0 -0.21167,0.14288 -0.21167,0.3175 0,0.17463 0.0952,0.3175 0.21167,0.3175 0.11642,0 0.21167,-0.14287 0.21167,-0.3175 z m 1.27,0 c 0,-0.17462 -0.0953,-0.3175 -0.21167,-0.3175 -0.11642,0 -0.21167,0.14288 -0.21167,0.3175 0,0.17463 0.0952,0.3175 0.21167,0.3175 0.11642,0 0.21167,-0.14287 0.21167,-0.3175 z m -21.28154,-0.51454 c 0.15653,-0.25328 -0.24165,-0.50424 -0.52358,-0.32999 -0.23672,0.1463 -0.0813,0.52703 0.21512,0.52703 0.10267,0 0.24148,-0.0887 0.30846,-0.19704 z m 1.77862,-0.43796 c 0.13269,0 0.24125,-0.0953 0.24125,-0.21166 0,-0.31843 -0.36782,-0.25506 -0.8334,0.14359 -0.2282,0.19539 -0.35763,0.44794 -0.28761,0.56123 0.0724,0.11711 0.23757,0.0552 0.3829,-0.14359 0.14059,-0.19226 0.36418,-0.34957 0.49686,-0.34957 z m 21.61958,0.3175 c 0,-0.17462 -0.0952,-0.3175 -0.21166,-0.3175 -0.11642,0 -0.21167,0.14288 -0.21167,0.3175 0,0.17463 0.0952,0.3175 0.21167,0.3175 0.11641,0 0.21166,-0.14287 0.21166,-0.3175 z m -20.43579,-0.13981 c 0.29652,-0.1351 0.53913,-0.36529 0.53913,-0.51152 0,-0.14624 0.11906,-0.30841 0.26458,-0.36038 0.14552,-0.052 0.186,-0.17818 0.09,-0.28046 -0.0977,-0.104 -0.26556,-0.0235 -0.38094,0.18269 -0.11347,0.20276 -0.32153,0.36865 -0.46237,0.36865 -0.14084,0 -0.37504,0.1905 -0.52045,0.42333 -0.30693,0.49149 -0.25866,0.50973 0.47009,0.17769 z m 16.51996,0.034 c -0.072,-0.11642 -0.26807,-0.21167 -0.43583,-0.21167 -0.16775,0 -0.305,0.0952 -0.305,0.21167 0,0.11642 0.19612,0.21167 0.43582,0.21167 0.23971,0 0.37696,-0.0953 0.30501,-0.21167 z m 1.37583,0 c 0,-0.11642 -0.14287,-0.21167 -0.3175,-0.21167 -0.17462,0 -0.3175,0.0952 -0.3175,0.21167 0,0.11642 0.14288,0.21167 0.3175,0.21167 0.17463,0 0.3175,-0.0953 0.3175,-0.21167 z m 1.27,0 c 0,-0.11642 -0.14287,-0.21167 -0.3175,-0.21167 -0.17462,0 -0.3175,0.0952 -0.3175,0.21167 0,0.11642 0.14288,0.21167 0.3175,0.21167 0.17463,0 0.3175,-0.0953 0.3175,-0.21167 z m -22.86,-0.52917 c 0,-0.17462 -0.0952,-0.3175 -0.21166,-0.3175 -0.11642,0 -0.21167,0.14288 -0.21167,0.3175 0,0.17463 0.0952,0.3175 0.21167,0.3175 0.11641,0 0.21166,-0.14287 0.21166,-0.3175 z m 1.43316,0.0662 c -0.13082,-0.39248 -0.58649,-0.45757 -0.58649,-0.0838 0,0.18433 0.15081,0.33514 0.33514,0.33514 0.18433,0 0.29743,-0.11311 0.25135,-0.25135 z m 4.32374,-0.22029 c 0.52267,-0.60264 0.12817,-0.75676 -0.452,-0.17659 -0.49511,0.49511 -0.5416,0.64823 -0.19681,0.64823 0.13187,0 0.42383,-0.21224 0.64881,-0.47164 z m 1.01644,0.25998 c 0,-0.11642 -0.14288,-0.21167 -0.3175,-0.21167 -0.17463,0 -0.3175,0.0953 -0.3175,0.21167 0,0.11641 0.14287,0.21166 0.3175,0.21166 0.17462,0 0.3175,-0.0953 0.3175,-0.21166 z m 13.94998,-0.39247 c -0.31282,-0.10752 -0.47173,0.11053 -0.29222,0.40098 0.1138,0.18414 0.19962,0.1741 0.33191,-0.0388 0.1048,-0.16868 0.0884,-0.31812 -0.0397,-0.36215 z m 2.77168,0.16831 c 0,-0.10955 -0.14287,-0.19918 -0.3175,-0.19918 -0.17462,0 -0.3175,-0.14287 -0.3175,-0.3175 0,-0.17462 -0.0952,-0.3175 -0.21166,-0.3175 -0.31843,0 -0.25506,0.36782 0.14359,0.83341 0.3454,0.4034 0.70307,0.40379 0.70307,7.6e-4 z m 2.7111,0.20828 c -0.0417,-0.12515 -0.16633,-0.22754 -0.27693,-0.22754 -0.1106,0 -0.23521,0.10239 -0.27693,0.22754 -0.0417,0.12515 0.0829,0.22754 0.27693,0.22754 0.19403,0 0.31865,-0.10239 0.27693,-0.22754 z m -4.45355,-0.61912 c -0.29283,-0.46889 -0.49459,-0.53063 -0.69171,-0.21167 -0.0719,0.11642 0.0177,0.21167 0.19917,0.21167 0.1815,0 0.32999,0.0952 0.32999,0.21166 0,0.11642 0.0961,0.21167 0.21346,0.21167 0.12654,0 0.1058,-0.1724 -0.0509,-0.42333 z m -21.22338,0 c 0.072,-0.11642 -0.0233,-0.21167 -0.21167,-0.21167 -0.18836,0 -0.28361,0.0952 -0.21166,0.21167 0.072,0.11641 0.1672,0.21166 0.21166,0.21166 0.0445,0 0.13972,-0.0952 0.21167,-0.21166 z m 1.47049,-0.22975 c -0.0682,-0.11027 -0.21413,-0.14473 -0.3244,-0.0766 -0.11027,0.0682 -0.14474,0.21413 -0.0766,0.32441 0.0682,0.11027 0.21413,0.14473 0.3244,0.0766 0.11027,-0.0682 0.14473,-0.21414 0.0766,-0.32441 z m 1.38701,0.12391 c 0,-0.17462 -0.0953,-0.3175 -0.21167,-0.3175 -0.11641,0 -0.21166,0.14288 -0.21166,0.3175 0,0.17463 0.0953,0.3175 0.21166,0.3175 0.11642,0 0.21167,-0.14287 0.21167,-0.3175 z m 20.74333,-0.10583 c 0,-0.11642 -0.0952,-0.21167 -0.21166,-0.21167 -0.11642,0 -0.21167,0.0952 -0.21167,0.21167 0,0.11642 0.0952,0.21167 0.21167,0.21167 0.11641,0 0.21166,-0.0952 0.21166,-0.21167 z m -22.64833,-0.52917 c 0,-0.17462 -0.14288,-0.3175 -0.3175,-0.3175 -0.33053,0 -0.41994,0.25034 -0.17639,0.49389 0.24355,0.24355 0.49389,0.15415 0.49389,-0.17639 z m 1.57315,-0.17983 c 0.29515,-0.27353 0.47468,-0.55928 0.39896,-0.635 -0.23367,-0.23367 -0.49044,-0.15245 -0.49044,0.15515 0,0.16104 -0.1905,0.34263 -0.42334,0.40351 -0.23283,0.0609 -0.42333,0.21488 -0.42333,0.34219 0,0.37144 0.36084,0.26919 0.93815,-0.26585 z m 1.13795,0.26979 c -0.0417,-0.12515 -0.16634,-0.22754 -0.27693,-0.22754 -0.1106,0 -0.23522,0.10239 -0.27693,0.22754 -0.0417,0.12515 0.0829,0.22754 0.27693,0.22754 0.19402,0 0.31864,-0.10239 0.27693,-0.22754 z m 1.27,0 c -0.0417,-0.12515 -0.16634,-0.22754 -0.27693,-0.22754 -0.1106,0 -0.23522,0.10239 -0.27693,0.22754 -0.0417,0.12515 0.0829,0.22754 0.27693,0.22754 0.19402,0 0.31864,-0.10239 0.27693,-0.22754 z m 16.77186,-0.48249 c -0.32258,-0.32259 -0.70201,0.0683 -0.40901,0.4214 0.20502,0.24702 0.28986,0.25418 0.4248,0.0358 0.0927,-0.15006 0.0856,-0.35582 -0.0158,-0.45724 z m 2.41897,0.11243 c -0.17156,-0.0376 -0.31193,-0.20433 -0.31193,-0.37042 0,-0.16609 -0.14287,-0.30198 -0.3175,-0.30198 -0.42735,0 -0.40159,0.11083 0.15875,0.68322 0.29203,0.29832 0.5355,0.40355 0.62943,0.27205 0.0842,-0.11794 0.0128,-0.24523 -0.15875,-0.28287 z m 2.86307,0.37082 c 0,-0.31935 -0.55064,-0.83285 -0.88446,-0.82482 -0.18877,0.005 -0.15927,0.0982 0.0907,0.28792 0.20373,0.15465 0.37042,0.38975 0.37042,0.52243 0,0.13269 0.0952,0.24125 0.21166,0.24125 0.11642,0 0.21167,-0.10205 0.21167,-0.22678 z m -4.28625,-0.4912 c -0.20373,-0.15465 -0.37042,-0.38975 -0.37042,-0.52243 0,-0.13269 -0.0952,-0.24125 -0.21166,-0.24125 -0.11642,0 -0.21167,0.0993 -0.21167,0.2206 0,0.3415 0.49382,0.82148 0.84667,0.82295 0.25541,0.001 0.24506,-0.0537 -0.0529,-0.27987 z m -21.1667,-0.46385 c -0.2017,-0.20171 -0.6061,0.12501 -0.45578,0.36824 0.0894,0.14456 0.20774,0.14091 0.35976,-0.0111 0.12462,-0.12462 0.16783,-0.28533 0.096,-0.35714 z m 23.44212,0.1235 c -0.0719,-0.11642 -0.22045,-0.21167 -0.33,-0.21167 -0.10954,0 -0.19917,0.0952 -0.19917,0.21167 0,0.11642 0.1485,0.21167 0.32999,0.21167 0.1815,0 0.27113,-0.0952 0.19918,-0.21167 z m 2.98885,-0.10112 c 0.17204,-0.17203 0.51854,-0.4569 0.77001,-0.63304 0.27758,-0.19442 0.37745,-0.38987 0.25418,-0.49745 -0.11752,-0.10256 -0.55239,0.16407 -1.03247,0.63304 -0.45619,0.44563 -0.71132,0.81024 -0.56697,0.81024 0.14436,0 0.40322,-0.14076 0.57525,-0.31279 z m -25.74302,-0.42805 c 0,-0.17462 -0.0952,-0.3175 -0.21167,-0.3175 -0.11641,0 -0.21166,0.14288 -0.21166,0.3175 0,0.17463 0.0952,0.3175 0.21166,0.3175 0.11642,0 0.21167,-0.14287 0.21167,-0.3175 z m 1.43316,0.0661 c -0.13083,-0.39248 -0.58649,-0.45757 -0.58649,-0.0838 0,0.18433 0.15081,0.33514 0.33513,0.33514 0.18433,0 0.29744,-0.11311 0.25136,-0.25135 z m 22.06184,-0.17198 c 0,-0.29505 0.14111,-0.42333 0.46567,-0.42333 0.35699,0 0.40755,-0.0581 0.21667,-0.249 -0.19089,-0.19089 -0.34897,-0.15853 -0.67734,0.13864 -0.45108,0.40822 -0.57533,0.95702 -0.21667,0.95702 0.11642,0 0.21167,-0.1905 0.21167,-0.42333 z m 1.18622,-0.15434 c -0.21517,-0.21516 -0.3927,0.10877 -0.21616,0.39442 0.13335,0.21577 0.18321,0.21594 0.25491,8.4e-4 0.049,-0.14706 0.0316,-0.32493 -0.0387,-0.39527 z m -3.37736,-0.62569 c -0.1609,-0.1609 -0.77219,0.47621 -0.77219,0.80482 0,0.14767 0.19844,0.0537 0.44461,-0.21054 0.24454,-0.26248 0.39195,-0.52991 0.32758,-0.59428 z m 1.54949,0.0921 c 0.011,-0.26288 -0.42669,-0.17898 -0.7493,0.14363 -0.50791,0.50791 -0.34255,0.80495 0.22013,0.39542 0.28739,-0.20916 0.52551,-0.45173 0.52917,-0.53905 z m -22.21835,0.15875 c 0,-0.17462 -0.0953,-0.3175 -0.21167,-0.3175 -0.11641,0 -0.21166,0.14288 -0.21166,0.3175 0,0.17463 0.0953,0.3175 0.21166,0.3175 0.11642,0 0.21167,-0.14287 0.21167,-0.3175 z m -1.27,-0.10583 c 0,-0.11642 -0.0952,-0.21167 -0.21167,-0.21167 -0.11641,0 -0.21166,0.0952 -0.21166,0.21167 0,0.11642 0.0952,0.21167 0.21166,0.21167 0.11642,0 0.21167,-0.0953 0.21167,-0.21167 z m -37.888339,26.88669 c -0.640292,-0.0634 -1.277146,-0.18761 -1.415233,-0.27597 -0.288552,-0.18465 -0.901717,-2.76431 -1.021785,-4.29877 -0.244447,-3.12405 -1.113455,-5.59028 -1.969808,-5.59028 -0.202021,0 -0.555195,-0.12954 -0.784826,-0.28787 -0.295677,-0.20385 -0.999359,-0.27183 -2.411387,-0.23294 -2.895655,0.0798 -2.798685,-0.1206 -2.688584,5.55489 0.07295,3.76033 0.03607,4.55623 -0.223109,4.81541 -0.477603,0.47761 -6.741508,0.45419 -6.92573,-0.0259 -0.071,-0.18501 -0.133358,-4.25695 -0.138582,-9.04875 -0.0052,-4.79179 -0.04748,-10.60073 -0.09391,-12.90876 -0.04778,-2.37504 0.0031,-4.42654 0.117183,-4.72663 l 0.201595,-0.53024 7.777504,0.11437 c 8.196044,0.12052 9.035872,0.21155 11.158838,1.20946 1.381987,0.64961 2.75862,2.26612 3.190551,3.74651 0.50009,1.71398 0.351223,4.41455 -0.288158,5.22739 -0.254591,0.32366 -0.462892,0.6627 -0.462892,0.75342 0,0.20415 -1.420588,1.68296 -1.616697,1.68296 -0.316802,0 -1.558303,1.10038 -1.558303,1.38117 0,0.16571 0.29108,0.45181 0.646845,0.63579 1.68692,0.87234 2.951488,2.72177 2.951488,4.31656 0,0.42816 0.08489,0.86897 0.188648,0.97956 0.103757,0.1106 0.246713,0.77259 0.317678,1.47109 0.185951,1.83029 0.485216,3.87647 0.727232,4.97233 0.115472,0.52287 0.163698,1.0255 0.107169,1.11697 -0.108742,0.17595 -3.822148,0.14272 -5.785727,-0.0518 z m -4.550833,-15.75024 c 1.55238,-0.59068 2.218827,-1.35669 2.438247,-2.8025 0.180588,-1.18995 -0.115743,-2.04383 -0.99216,-2.85893 -0.743051,-0.69107 -1.451567,-0.84432 -4.44816,-0.96212 -2.984917,-0.11734 -2.913888,-0.20699 -2.771168,3.49781 0.129593,3.36407 0.08885,3.32123 3.13983,3.30128 1.215542,-0.008 2.400577,-0.0869 2.633411,-0.17554 z m -31.051523,15.35323 -0.698478,-0.34885 -0.0556,-6.6675 c -0.110672,-13.272 -0.146266,-14.57478 -0.405265,-14.83339 -0.217289,-0.21697 -3.707169,-0.41687 -6.894553,-0.39492 -0.791136,0.005 -0.793829,0.002 -0.817228,-0.9027 -0.05458,-2.11145 0.08105,-3.88178 0.309238,-4.03612 0.133873,-0.0905 4.148656,-0.11905 8.92174,-0.0633 4.773083,0.0557 9.940396,0.10597 11.482917,0.11171 l 2.804583,0.0104 v 2.54 2.54 l -1.957916,0.0187 c -1.076855,0.0103 -2.784097,0.008 -3.793871,-0.006 -1.731728,-0.0232 -1.845308,0.003 -2.000735,0.45752 -0.09063,0.26517 -0.169325,5.18085 -0.174879,10.92372 -0.0094,9.72044 -0.03586,10.46043 -0.383064,10.71436 -0.591018,0.43226 -5.441451,0.38344 -6.33689,-0.0638 z m 67.512465,0.26987 c -0.072,-0.072 -0.0797,-0.2645 -0.017,-0.42774 0.0696,-0.18144 -0.0232,-0.29681 -0.23874,-0.29681 -0.19395,0 -0.29933,-0.0863 -0.23417,-0.19169 0.17835,-0.28857 1.19115,0.24866 1.12638,0.59748 -0.062,0.33419 -0.43447,0.52072 -0.63643,0.31876 z m 28.83823,-0.20203 c 0,-0.17828 0.16669,-0.38564 0.37042,-0.46081 0.20373,-0.0752 0.4491,-0.23886 0.54528,-0.36377 0.12149,-0.15779 0.20763,-0.14635 0.28222,0.0375 0.059,0.14552 0.28198,0.26458 0.49541,0.26458 0.21343,0 0.42971,-0.11906 0.48061,-0.26458 0.0669,-0.19118 0.21601,-0.15504 0.53752,0.13023 0.42339,0.37567 0.4629,0.3769 0.81453,0.0253 0.35164,-0.35163 0.37932,-0.34768 0.5708,0.0814 0.25367,0.56851 0.55988,0.58364 0.55988,0.0277 0,-0.23283 -0.0953,-0.42333 -0.21167,-0.42333 -0.11642,0 -0.21167,-0.14288 -0.21167,-0.3175 0,-0.17463 0.0953,-0.3175 0.21167,-0.3175 0.11642,0 0.21167,0.14287 0.21167,0.3175 0,0.17462 0.14586,0.3175 0.32414,0.3175 0.17828,0 0.38564,0.16668 0.46081,0.37041 0.0752,0.20373 0.23611,0.43668 0.35765,0.51766 0.12173,0.0811 0.13941,0.22371 0.0394,0.3175 -0.0999,0.0936 -0.22412,0.0512 -0.27609,-0.0943 -0.11196,-0.31349 -0.82565,-0.35399 -1.00904,-0.0573 -0.0812,0.13139 -0.27331,0.11667 -0.52447,-0.0402 -0.31052,-0.19392 -0.47375,-0.18326 -0.75392,0.0493 -0.3115,0.25852 -0.39557,0.24484 -0.65219,-0.10611 -0.28925,-0.39558 -0.30036,-0.39543 -0.6121,0.008 -0.31382,0.40611 -0.32132,0.40596 -0.64722,-0.0125 -0.30897,-0.39668 -0.34294,-0.40001 -0.53969,-0.0529 -0.25873,0.45647 -0.82392,0.48822 -0.82392,0.0463 z m -132.6759366,-0.315 c -0.6188011,-0.0906 -1.1803931,-0.22004 -1.2479803,-0.28763 -0.1015238,-0.10152 -0.1207538,-7.23348 -0.067585,-25.06312 l 0.00649,-2.1773 5.1329169,0.0277 c 4.884518,0.0264 5.155965,0.049 5.609167,0.46795 0.261937,0.24213 0.47625,0.55594 0.47625,0.69735 0,0.14141 0.677109,1.62499 1.504687,3.29685 1.457702,2.94483 1.856804,3.79299 2.625545,5.57975 0.200351,0.46566 0.638885,1.43178 0.97452,2.14692 0.335636,0.71515 0.610248,1.40248 0.610248,1.52741 0,0.12492 0.156246,0.58756 0.347214,1.02807 0.835711,1.92777 1.193053,2.72986 1.369284,3.07347 0.103677,0.20215 0.188502,0.51965 0.188502,0.70556 0,0.18591 0.119062,0.2981 0.264583,0.24932 0.205992,-0.0691 0.265866,-2.07682 0.270377,-9.06639 0.0032,-4.93773 0.07912,-9.09494 0.168739,-9.23823 0.18488,-0.29561 5.432059,-0.32041 5.904494,-0.0279 0.216696,0.13417 0.257141,2.80671 0.20192,13.3426 -0.03961,7.55779 -0.152874,13.33144 -0.265655,13.54217 -0.177624,0.3319 -0.647043,0.36685 -4.863285,0.36208 l -4.666685,-0.005 -0.756456,-1.51739 c -0.416052,-0.83458 -0.990169,-1.99365 -1.275817,-2.57574 -2.316666,-4.72083 -2.940348,-5.93583 -3.078465,-5.99722 -0.08731,-0.0388 -0.15875,-0.19319 -0.15875,-0.34307 0,-0.27448 -0.806545,-2.23659 -1.957527,-4.76214 -0.342335,-0.75117 -0.811839,-1.8463 -1.043346,-2.43363 -0.488194,-1.23857 -0.74749,-1.5981 -1.1525438,-1.5981 -0.2432368,0 -0.2915835,1.53994 -0.2915835,9.28741 0,7.67848 -0.05106,9.32979 -0.2947374,9.53203 -0.3725524,0.30919 -3.0548137,0.44317 -4.5345246,0.2265 z m -22.3169884,-0.1541 -2.69875,-0.0662 -0.02621,-8.72492 c -0.01441,-4.79871 -0.06118,-10.24893 -0.103918,-12.1116 -0.09752,-4.24982 -0.09424,-6.30202 0.01024,-6.4065 0.132421,-0.13242 18.5440373,-0.0687 18.7602527,0.065 0.1088835,0.0673 0.1979676,1.16684 0.1979676,2.44343 v 2.32108 l -0.5820833,0.22474 c -0.3209375,0.12392 -1.1043751,0.16942 -1.7462501,0.10142 -0.6402917,-0.0678 -2.7357921,-0.11839 -4.6566671,-0.11237 -1.9208748,0.006 -3.7522838,0.004 -4.0697978,-0.004 -0.716339,-0.0183 -0.774388,0.20031 -0.848583,3.19626 l -0.05579,2.25255 0.635,0.22597 c 0.381406,0.13572 2.610679,0.22562 5.5821028,0.22511 2.7209059,-4.6e-4 4.9998194,0.0519 5.0642528,0.1163 0.064431,0.0644 0.1596962,1.14981 0.2116984,2.41195 l 0.094551,2.29481 -0.6079701,0.10221 c -0.3343826,0.0562 -2.6082182,0.0819 -5.0529681,0.057 -4.2850328,-0.0436 -5.3118978,0.0663 -5.6545338,0.6052 -0.0879,0.13824 -0.161275,1.35577 -0.163058,2.70562 -0.0027,2.07337 0.05425,2.50543 0.367175,2.7839 0.385385,0.34295 0.713209,0.35705 8.5667089,0.36847 l 3.1162901,0.005 0.1831382,0.68691 c 0.3170788,1.1893 0.306214,3.67141 -0.017484,3.9951 -0.2306744,0.23067 -1.2632564,0.28304 -5.0375234,0.25546 -8.4398398,-0.0617 -8.0266118,-0.0387 -8.0416258,-0.44706 -0.01004,-0.27302 -0.06162,-0.24499 -0.204846,0.11133 -0.105286,0.26194 -0.265936,0.45555 -0.357,0.43025 -0.09107,-0.0253 -1.380013,-0.0758 -2.864325,-0.11216 z m 9.7225088,-2.84486 c -0.06757,-0.16886 -0.117725,-0.1187 -0.127882,0.12788 -0.0092,0.22313 0.04084,0.34815 0.111172,0.27781 0.07034,-0.0703 0.07785,-0.2529 0.01671,-0.40569 z m 117.0481962,2.65024 c -0.30803,-0.30803 -0.12787,-0.66246 0.28222,-0.55522 0.29441,0.077 0.42333,0.007 0.42333,-0.23148 0,-0.18821 0.14288,-0.34219 0.3175,-0.34219 0.45023,0 0.39333,0.476 -0.10825,0.90546 -0.4564,0.39078 -0.69032,0.44791 -0.9148,0.22343 z m 11.71222,-4.53068 c 0,-0.29429 0.62101,-0.91609 0.76806,-0.76904 0.15836,0.15836 -0.31581,0.99583 -0.56384,0.99583 -0.11232,0 -0.20422,-0.10205 -0.20422,-0.22679 z m 14.34042,-2.33085 c -0.38284,-0.41929 -0.48971,-0.83432 -0.21167,-0.82198 0.27344,0.0121 1.11125,0.79041 1.11125,1.0323 0,0.35507 -0.4874,0.24112 -0.89958,-0.21032 z M 114.9999,72.951284 c 0,-0.12328 0.0953,-0.16529 0.21166,-0.0933 0.11642,0.072 0.21167,0.17282 0.21167,0.22416 0,0.0513 -0.0953,0.0933 -0.21167,0.0933 -0.11641,0 -0.21166,-0.10087 -0.21166,-0.22416 z m 1.69333,-1.78667 c 0,-0.17639 0.18815,-0.3175 0.42333,-0.3175 0.23519,0 0.42334,0.14111 0.42334,0.3175 0,0.17639 -0.18815,0.3175 -0.42334,0.3175 -0.23518,0 -0.42333,-0.14111 -0.42333,-0.3175 z m -6.35,-3.9928 c 0,-0.39938 -0.43876,-0.45794 -0.7911,-0.1056 -0.17992,0.17992 -0.51161,-0.0329 -1.31234,-0.84213 -0.58936,-0.5956 -1.07128,-1.10875 -1.07094,-1.14035 4.3e-4,-0.0316 0.35753,-0.0655 0.79375,-0.0753 0.43622,-0.01 0.67407,0.0219 0.52855,0.0706 -0.37515,0.12538 -0.32961,0.89982 0.0529,0.89982 0.17463,0 0.3175,0.0952 0.3175,0.21166 0,0.11642 0.14288,0.21167 0.3175,0.21167 0.17463,0 0.3175,-0.0952 0.3175,-0.21167 0,-0.11641 0.15082,-0.21166 0.33514,-0.21166 0.37379,0 0.30869,-0.45567 -0.0838,-0.5865 -0.13825,-0.0461 -0.25136,0.075 -0.25136,0.269 0,0.19402 -0.11311,0.31507 -0.25135,0.26899 -0.38262,-0.12754 -0.46198,-0.58649 -0.10143,-0.58649 0.17463,0 0.36062,-0.11907 0.41332,-0.26459 0.0765,-0.21137 0.18652,-0.21101 0.54681,0.002 0.36241,0.21406 0.5354,0.21406 0.88078,0 0.34975,-0.21677 0.46299,-0.21303 0.60808,0.0201 0.14172,0.22769 0.27435,0.23503 0.64667,0.0358 0.62623,-0.33515 0.80373,-0.10894 0.32746,0.41733 -0.43585,0.48162 -0.87579,0.55152 -1.00723,0.16005 -0.0694,-0.20662 -0.21234,-0.19879 -0.65264,0.0358 -0.54696,0.29137 -0.78032,0.86381 -0.35213,0.86381 0.11641,0 0.21166,-0.14288 0.21166,-0.3175 0,-0.36463 0.33249,-0.42407 0.53542,-0.0957 0.0754,0.12198 -0.10949,0.46835 -0.41084,0.7697 -0.42521,0.42521 -0.54791,0.47035 -0.54791,0.20155 z"
       id="path248" /></g></svg>
