<?xml version="1.0" encoding="UTF-8" standalone="no"?>
<!-- Created with Inkscape (http://www.inkscape.org/) -->

<svg
   width="91.262749mm"
   height="175.16315mm"
   viewBox="0 0 91.262747 175.16315"
   version="1.1"
   id="svg5"
   xml:space="preserve"
   inkscape:version="1.2.2 (732a01da63, 2022-12-09)"
   sodipodi:docname="Trapezoid Terminal Pinout Plug - Light.svg"
   xmlns:inkscape="http://www.inkscape.org/namespaces/inkscape"
   xmlns:sodipodi="http://sodipodi.sourceforge.net/DTD/sodipodi-0.dtd"
   xmlns="http://www.w3.org/2000/svg"
   xmlns:svg="http://www.w3.org/2000/svg"><sodipodi:namedview
     id="namedview7"
     pagecolor="#ffffff"
     bordercolor="#000000"
     borderopacity="0.25"
     inkscape:showpageshadow="2"
     inkscape:pageopacity="0.0"
     inkscape:pagecheckerboard="0"
     inkscape:deskcolor="#d1d1d1"
     inkscape:document-units="mm"
     showgrid="false"
     inkscape:zoom="0.71624579"
     inkscape:cx="-435.60465"
     inkscape:cy="337.17476"
     inkscape:window-width="1920"
     inkscape:window-height="991"
     inkscape:window-x="-9"
     inkscape:window-y="-9"
     inkscape:window-maximized="1"
     inkscape:current-layer="layer1" /><defs
     id="defs2" /><g
     inkscape:label="Layer 1"
     inkscape:groupmode="layer"
     id="layer1"
     transform="translate(-107.89579,-59.709885)"><path
       style="fill:#000000;stroke-width:1"
       d="m 163.9211,234.53333 c -0.10563,-0.31631 1.20566,-5.77271 1.50288,-6.25362 0.35779,-0.57892 1.46051,-0.46974 2.09302,0.20721 1.01148,1.08257 2.44163,4.33233 2.1291,4.83802 -0.26881,0.43494 -0.77479,0.19364 -1.21457,-0.57922 -0.85102,-1.49557 -3.12116,-0.81648 -3.12116,0.93367 0,0.94453 -1.12756,1.63761 -1.38927,0.85394 z m 3.50594,-4.16309 c 0,-0.25766 -0.17741,-0.6157 -0.39423,-0.79565 -0.32622,-0.27074 -0.43507,-0.21928 -0.63099,0.29833 -0.27455,0.72535 0.0777,1.32937 0.64769,1.11065 0.20764,-0.0797 0.37753,-0.35568 0.37753,-0.61333 z m -24.95903,3.78827 c -0.097,-0.097 -0.17639,-1.39868 -0.17639,-2.89259 0,-2.58196 0.0294,-2.72595 0.59531,-2.91347 0.75918,-0.25157 3.31668,-0.30157 3.68797,-0.0721 0.46377,0.28663 -0.0288,0.76262 -0.79317,0.7665 -1.19646,0.006 -1.87674,0.29182 -2.05856,0.86469 -0.20706,0.65239 0.47047,1.24836 1.41919,1.24836 0.8943,0 0.60382,0.58966 -0.42134,0.85531 -0.6504,0.16854 -0.8419,0.36197 -0.8419,0.85041 0,0.34774 -0.0723,0.82059 -0.1606,1.05077 -0.16183,0.42172 -0.92345,0.56918 -1.25051,0.24213 z m 6.07782,-0.16444 c -0.34493,-0.25489 -0.43901,-0.82889 -0.45886,-2.7995 -0.0311,-3.08859 0.15908,-3.35035 2.414,-3.32255 2.36109,0.0291 2.61446,0.59047 0.38017,0.84231 -0.96266,0.1085 -1.28806,0.27397 -1.51402,0.7699 -0.36645,0.80427 -0.025,1.17987 1.15709,1.27286 1.21159,0.0953 1.32572,0.66739 0.13314,0.66739 -0.65673,0 -1.02091,0.15346 -1.21214,0.51079 -0.36091,0.67437 0.35876,1.43367 1.20544,1.27182 0.7452,-0.14245 1.40383,0.21086 1.03147,0.55332 -0.45476,0.41824 -2.66379,0.58282 -3.13629,0.23366 z m 12.16264,-0.0777 c -0.0883,-0.23018 -0.1606,-1.18268 -0.1606,-2.11667 0,-1.50455 -0.0585,-1.69815 -0.51355,-1.69815 -0.28245,0 -0.57722,0.10301 -0.65502,0.22891 -0.146,0.23622 -0.71788,0.20744 -2.20487,-0.11094 -0.80914,-0.17325 -0.86174,-0.13922 -0.89124,0.57656 -0.0172,0.41837 -0.008,0.92876 0.0214,1.13418 0.029,0.20543 -0.0218,0.77098 -0.11293,1.25677 -0.12187,0.64963 -0.30488,0.88327 -0.69183,0.88327 -0.49715,0 -0.522,-0.15668 -0.45103,-2.84427 0.0743,-2.81433 0.082,-2.84507 0.73655,-2.91996 0.43973,-0.0503 0.95518,0.19358 1.53769,0.7276 0.48192,0.44181 1.05218,0.8033 1.26724,0.8033 0.21507,0 0.86634,-0.48491 1.44727,-1.07759 0.58094,-0.59267 1.20131,-1.02941 1.37859,-0.97053 0.21315,0.0708 0.34129,0.8615 0.37828,2.33435 0.0308,1.22502 0.11107,2.60498 0.17845,3.06657 0.0858,0.58747 0.003,0.88513 -0.27602,0.99218 -0.62061,0.23815 -0.81516,0.18588 -0.9884,-0.26558 z m 10.85685,-0.0504 c -0.0767,-0.12417 -0.13486,-1.49822 -0.12916,-3.05344 0.0104,-2.82722 0.0105,-2.82766 0.66338,-2.82766 0.54977,0 0.64403,0.11505 0.59619,0.72761 -0.11303,1.44733 0.0364,3.6464 0.27318,4.02069 0.13315,0.21046 0.79005,0.44859 1.45976,0.52916 0.66971,0.0806 1.24355,0.26557 1.2752,0.41109 0.0709,0.32587 -3.94079,0.51253 -4.13855,0.19255 z m 6.59641,-0.29238 c -0.21348,-0.71888 -0.26538,-5.29831 -0.0623,-5.50135 0.32166,-0.32166 3.98201,-0.62007 4.25518,-0.34691 0.35619,0.35619 0.1243,0.50711 -1.33332,0.86771 -0.85171,0.2107 -1.31482,0.47399 -1.37357,0.7809 -0.0718,0.37517 0.10332,0.46379 0.92297,0.46707 0.55637,0.002 1.19018,0.12129 1.40846,0.26458 0.35278,0.23159 0.35278,0.28926 0,0.51908 -0.21828,0.1422 -0.58864,0.19897 -0.82302,0.12616 -0.23438,-0.0728 -0.70823,0.096 -1.053,0.37523 -0.54036,0.43755 -0.59028,0.61182 -0.36179,1.26289 0.23213,0.66143 0.40844,0.76167 1.41858,0.80651 1.42009,0.0631 1.964,0.25634 1.74021,0.61844 -0.10057,0.16272 -1.08443,0.25851 -2.39088,0.23277 -1.79438,-0.0354 -2.24443,-0.12605 -2.34749,-0.47308 z m -32.7833,-12.37969 c -0.32899,-0.32898 -0.20014,-7.36694 0.14111,-7.70819 0.47616,-0.47617 1.21372,-0.38245 1.39121,0.17677 0.0863,0.27185 0.395,0.70977 0.68604,0.97315 0.51531,0.46635 0.55494,0.45424 1.5146,-0.46299 1.28893,-1.23194 2.17617,-1.69696 2.4359,-1.27669 0.22063,0.35698 0.1045,6.42031 -0.13757,7.183 -0.34641,1.09147 -0.65143,0.0884 -0.65143,-2.14222 0,-3.23361 -0.3491,-3.87409 -1.4491,-2.65861 -0.76814,0.84879 -1.43067,0.92154 -2.15922,0.2371 -0.87342,-0.82053 -1.05638,-0.45638 -0.97589,1.94234 0.0985,2.93588 -0.199,4.33299 -0.79565,3.73634 z m 2.73402,-5.64444 c 0,-0.14552 -0.12609,-0.26459 -0.2802,-0.26459 -0.1541,0 -0.20661,0.11907 -0.11667,0.26459 0.0899,0.14552 0.21603,0.26458 0.2802,0.26458 0.0642,0 0.11667,-0.11906 0.11667,-0.26458 z m 10.11015,5.4901 c -0.15037,-0.1819 -0.48107,-0.86651 -0.7349,-1.52135 -0.52875,-1.36413 -1.09974,-2.11667 -1.60601,-2.11667 -0.36983,0 -0.51242,0.46339 -0.71911,2.33696 -0.12586,1.14081 -0.31395,1.57699 -0.56974,1.32121 -0.0738,-0.0738 -0.1631,-1.90936 -0.19843,-4.07899 l -0.0642,-3.9448 1.71979,-0.0421 c 1.27716,-0.0313 1.5155,0.0118 0.92605,0.16713 -0.43657,0.11508 -0.73422,0.23868 -0.66146,0.27466 0.3679,0.18194 1.75666,0.15036 2.01311,-0.0458 0.17675,-0.13517 0.57109,-0.006 0.99219,0.32539 0.77963,0.61326 0.92606,1.76876 0.36423,2.87413 -0.38055,0.7487 -1.77484,1.23635 -2.11015,0.73801 -0.11942,-0.17748 -0.1356,0.0265 -0.036,0.45334 0.0996,0.42681 0.46045,1.18757 0.80179,1.69056 0.86484,1.27442 0.76332,2.63341 -0.11715,1.5683 z m 0.41431,-4.57906 c 1.31538,-0.92133 0.32692,-2.49854 -1.56585,-2.49854 -1.53565,0 -1.81486,0.20199 -1.81486,1.31295 0,0.88592 0.0918,1.02118 0.8599,1.26759 1.25155,0.40149 1.85873,0.38174 2.52081,-0.082 z m 3.45968,4.0923 c -0.26643,-0.16449 -0.38057,-1.17491 -0.44588,-3.94716 l -0.0878,-3.72607 1.93987,0.0782 c 1.73743,0.07 1.93987,0.1334 1.93987,0.60734 0,0.45037 -0.17729,0.52957 -1.19062,0.53189 -1.3748,0.003 -1.85209,0.23416 -1.85209,0.89647 0,0.46589 0.98855,1.08518 1.73224,1.08518 0.79945,0 0.34259,0.71076 -0.60776,0.94553 -0.74778,0.18472 -1.01372,0.39712 -1.07959,0.86223 -0.12858,0.90781 0.65933,1.6311 1.78206,1.63588 1.10055,0.005 1.72469,0.32124 1.56687,0.7947 -0.12866,0.386 -3.14257,0.57826 -3.69718,0.23584 z m 18.50012,-0.12411 c -0.85373,-0.4633 -1.30771,-1.20448 -1.02145,-1.66765 0.15675,-0.25362 0.43523,-0.19598 1.18212,0.2447 0.92408,0.54522 1.0041,0.552 1.47589,0.12503 0.32741,-0.29629 0.48311,-0.76152 0.45307,-1.35373 -0.0392,-0.7732 -0.1404,-0.90261 -0.70722,-0.90447 -0.3638,-0.001 -1.04841,-0.2381 -1.52135,-0.52646 -0.78402,-0.47803 -0.8599,-0.64005 -0.8599,-1.8361 0,-1.05564 0.11483,-1.39222 0.58804,-1.72368 0.32342,-0.22653 0.80558,-0.41187 1.07147,-0.41187 0.84926,0 2.04466,0.77741 2.04466,1.32971 0,0.63303 -0.099,0.64309 -0.93535,0.0951 -0.60098,-0.39378 -0.70405,-0.3933 -1.31361,0.006 -1.09221,0.71565 -0.82624,1.4686 0.71333,2.01941 0.53785,0.19242 1.22375,0.68237 1.52422,1.08878 0.46316,0.62646 0.50923,0.90394 0.30273,1.82303 -0.43956,1.95634 -1.45412,2.52924 -2.99665,1.69213 z m 0.48393,-7.71799 c -0.26895,-0.26895 -0.49087,0.13596 -0.2702,0.49302 0.1667,0.26972 0.22902,0.26993 0.31864,0.001 0.0613,-0.18383 0.0395,-0.40617 -0.0484,-0.49409 z m -11.47806,4.09553 c 0.0927,-4.75935 0.55146,-5.04842 0.73487,-0.46302 0.14883,3.72064 0.0962,4.23333 -0.43499,4.23333 -0.30729,0 -0.36031,-0.66654 -0.29988,-3.77031 z m 6.20844,3.33485 c -0.10005,-0.10005 -0.1819,-0.6851 -0.1819,-1.30012 0,-1.29136 -0.21834,-1.43942 -2.12269,-1.43942 -1.18417,0 -2.09393,-0.49064 -1.36209,-0.73459 0.17219,-0.0574 0.24927,-0.20759 0.17129,-0.33377 -0.3989,-0.64543 3.24158,-4.19792 3.89074,-3.79671 0.11908,0.0736 0.21813,0.75185 0.22011,1.50725 0.005,2.01813 0.2018,2.50903 1.08163,2.70227 0.82654,0.18154 1.06643,0.91469 0.30382,0.92855 -0.77789,0.0141 -1.25677,0.60743 -1.25677,1.55704 0,0.8632 -0.3557,1.29794 -0.74414,0.9095 z m -0.1819,-4.8499 c 0,-1.09625 -0.33617,-1.16309 -1.21628,-0.24183 -0.7388,0.77333 -0.74904,0.81799 -0.26852,1.17097 0.72052,0.52927 1.4848,0.051 1.4848,-0.92914 z m -30.32153,-10.20645 c -1.53371,-0.79888 -2.86568,-2.17897 -3.32265,-3.44269 -0.18084,-0.50009 -0.42393,-0.90925 -0.54022,-0.90925 -0.11629,0 -0.21143,-0.59531 -0.21143,-1.32292 0,-0.87978 0.11078,-1.32427 0.33073,-1.32696 0.24219,-0.003 0.23417,-0.0652 -0.0299,-0.23256 -0.3045,-0.19292 -0.3045,-0.24739 0,-0.3498 0.28418,-0.0956 0.29319,-0.2031 0.0425,-0.50705 -0.2272,-0.27544 -0.369,-3.12509 -0.49588,-9.9649 l -0.17768,-9.57914 h 0.69431 0.69431 l 0.0249,4.69635 c 0.0383,7.23573 -0.0474,9.70611 -0.34278,9.8887 -0.16881,0.10432 -0.13823,0.21185 0.081,0.28493 0.25658,0.0855 0.36658,0.83014 0.40536,2.74401 0.0293,1.44465 0.17006,2.93055 0.31286,3.30201 0.1611,0.41905 0.16668,0.84149 0.0147,1.11303 -0.16938,0.30267 -0.0801,0.78836 0.2896,1.57478 0.69521,1.47899 1.61691,2.4532 2.99555,3.1662 1.0953,0.56646 1.28926,0.57505 11.79406,0.5223 8.03913,-0.0404 10.77592,0.0256 11.06652,0.26679 0.27154,0.22535 0.43897,0.23552 0.56435,0.0343 0.11138,-0.17878 2.04892,-0.34755 5.16365,-0.44978 2.74195,-0.09 5.20467,-0.28099 5.47271,-0.42444 0.68429,-0.36622 1.31251,-0.34389 0.7867,0.028 -0.35277,0.24949 -0.35277,0.26864 0,0.17234 0.21829,-0.0596 0.39688,-0.23647 0.39688,-0.39306 0,-0.1566 0.31892,-0.53558 0.7087,-0.84219 0.38979,-0.3066 0.97005,-0.98032 1.28946,-1.49714 l 0.58076,-0.93968 -0.18366,-11.75599 -0.18364,-11.75598 h 0.65143 0.65143 l 0.0264,5.6224 c 0.0145,3.09232 0.0969,8.32124 0.18303,11.61983 0.14761,5.65083 0.1257,6.06369 -0.37908,7.14375 -0.29465,0.63048 -0.69152,1.32936 -0.88193,1.55309 -0.53167,0.62469 -2.60585,1.75479 -3.78578,2.06265 -1.37765,0.35944 -24.52606,0.64097 -25.39946,0.30891 -0.40281,-0.15315 -0.70206,-0.14945 -0.80054,0.01 -0.0879,0.14226 -1.70811,0.25448 -3.67413,0.25448 -3.25529,0 -3.61325,-0.0502 -4.81303,-0.67515 z m 16.36931,-9.9218 c -2.45544,-0.48635 -3.90001,-1.64582 -4.8701,-3.90894 -0.73852,-1.7229 -0.63657,-3.26001 0.34901,-5.26201 0.97535,-1.98121 2.0209,-2.81911 4.09773,-3.28388 1.18825,-0.26592 1.6601,-0.24267 3.12546,0.15398 1.4814,0.401 1.9052,0.66334 2.99125,1.85165 1.09693,1.20022 1.30234,1.60835 1.54357,3.06692 0.33809,2.04431 0.0778,3.43353 -0.91354,4.87646 -1.41475,2.05913 -3.80213,3.0052 -6.32338,2.50582 z m 3.54625,-1.3844 c 0.46135,-0.24523 1.26848,-0.97021 1.79362,-1.61107 0.81615,-0.99601 0.95955,-1.37121 0.9875,-2.58379 0.0485,-2.10385 -0.26663,-3.11169 -1.33351,-4.26478 -1.1568,-1.25028 -2.34004,-1.78402 -3.955,-1.78402 -3.13523,0 -5.68106,2.9081 -5.22254,5.96571 0.2273,1.51573 1.60387,3.52168 2.85621,4.16212 0.54571,0.27906 0.99219,0.58939 0.99219,0.68963 0,0.32911 3.02383,-0.1179 3.88153,-0.5738 z m -3.27586,-1.43085 c -0.87287,-0.17257 -2.19317,-2.11474 -2.19317,-3.22616 0,-1.12737 0.92418,-2.55468 1.9226,-2.96927 2.22131,-0.92238 5.07047,1.48069 4.49635,3.79237 -0.21326,0.8587 -1.06217,2.00346 -1.59718,2.15381 -0.90196,0.25347 -2.05449,0.36275 -2.6286,0.24925 z m 2.6781,-1.68936 c 0.78057,-0.92765 0.85036,-1.53826 0.29789,-2.60661 -0.82917,-1.60343 -3.09311,-1.46656 -3.9758,0.24037 -0.56758,1.09759 -0.49794,1.73499 0.27387,2.50681 1.00124,1.00123 2.49519,0.93954 3.40404,-0.14057 z m 2.80165,-5.53595 c 0,-0.14552 -0.12609,-0.26458 -0.2802,-0.26458 -0.15411,0 -0.20661,0.11906 -0.11668,0.26458 0.0899,0.14552 0.21603,0.26459 0.2802,0.26459 0.0642,0 0.11668,-0.11907 0.11668,-0.26459 z m -18.70531,-7.6178 c -0.58755,-0.37352 0.0438,-0.71638 1.3751,-0.7468 1.82904,-0.0418 2.09308,-0.1408 2.88492,-1.08184 1.09186,-1.29761 1.50073,-2.49951 1.20711,-3.54844 -0.31313,-1.11863 -1.64616,-2.56026 -2.82149,-3.05135 -1.81655,-0.759 -4.19275,0.60075 -4.98782,2.85423 -0.53708,1.52224 -0.49231,1.85027 0.42546,3.11721 l 0.80922,1.11709 -0.71368,-0.0852 c -1.70961,-0.20413 -2.31896,-3.92954 -0.96212,-5.88214 1.44489,-2.07932 3.94944,-2.65664 6.27507,-1.44646 3.66621,1.90778 3.8845,6.01451 0.43595,8.20152 -1.20074,0.76149 -3.16425,1.03753 -3.92772,0.55219 z M 172.851,176.9544 c -1.77341,-0.83202 -3.04578,-2.66158 -3.04124,-4.37305 0.003,-0.99898 0.54317,-2.53404 0.86981,-2.47027 0.17564,0.0343 0.28696,-0.13468 0.24738,-0.37549 -0.0883,-0.53728 1.23259,-1.38459 2.81435,-1.8053 1.01327,-0.2695 1.3282,-0.23683 2.56815,0.26643 2.23888,0.90869 3.37873,2.81324 3.03586,5.07252 -0.25145,1.65686 -0.8975,2.59273 -1.78982,2.59273 h -0.70726 l 0.8756,-0.90339 c 2.08771,-2.15396 0.99772,-5.3451 -2.14758,-6.28746 -1.20608,-0.36134 -2.5695,-0.007 -3.61029,0.93866 -2.73727,2.48671 -1.01367,6.78136 2.7216,6.78136 1.0427,0 1.23069,0.0752 1.1572,0.46302 -0.1251,0.66014 -1.68878,0.71249 -2.99376,0.10024 z m -2.6029,-4.33357 c -0.0734,-0.1819 -0.13345,-0.0331 -0.13345,0.33073 0,0.3638 0.06,0.51263 0.13345,0.33073 0.0734,-0.1819 0.0734,-0.47956 0,-0.66146 z m -29.31171,0.26458 c -0.0178,-1.78263 -0.0726,-5.38427 -0.12187,-8.00364 -0.0867,-4.60997 -0.14465,-12.14449 -0.12162,-15.80886 0.009,-1.40612 0.0956,-1.78594 0.4081,-1.78594 0.21828,0 0.40603,0.14883 0.41724,0.33073 0.0112,0.1819 0.0549,0.74745 0.0971,1.25677 0.0422,0.50933 0.15505,5.45042 0.25074,10.98021 0.0957,5.52979 0.22566,11.45315 0.28883,13.16302 l 0.11485,3.10886 h -0.65053 -0.65054 z m 42.6185,0.39688 c -0.006,-1.41883 -0.0783,-4.39539 -0.15961,-6.61459 -0.1427,-3.89356 -0.12955,-4.03489 0.37553,-4.03489 0.73911,0 0.8117,0.61285 0.84333,7.11979 0.0151,3.11175 0.0903,5.75935 0.16706,5.88355 0.0768,0.1242 -0.16511,0.22582 -0.53751,0.22582 h -0.67707 l -0.0117,-2.57968 z m -34.98157,1.02186 c -0.0759,-0.56577 -0.0761,-1.5778 -5.3e-4,-2.24896 0.11394,-1.01083 0.23383,-1.22533 0.69845,-1.24959 1.13792,-0.0594 1.89909,0.0821 2.49415,0.4636 0.48679,0.31211 0.59391,0.58669 0.52917,1.3564 -0.0761,0.90549 -0.15469,0.98268 -1.27179,1.25009 -0.80489,0.19267 -1.27524,0.47487 -1.4518,0.87106 -0.39969,0.89685 -0.84456,0.6995 -0.99775,-0.4426 z m 2.91295,-1.81182 c 0.15522,-0.47279 -1.18576,-1.04091 -1.56404,-0.66263 -0.1609,0.1609 -0.21788,0.48711 -0.12662,0.72492 0.19361,0.50455 1.52062,0.45566 1.69066,-0.0623 z m 21.67341,2.66409 c -0.097,-0.097 -0.17639,-1.09447 -0.17639,-2.21656 0,-2.48242 0.24582,-2.80207 1.82738,-2.3762 1.52371,0.41029 2.09221,1.68354 1.19457,2.67542 -0.38069,0.42066 -0.37942,0.5198 0.0144,1.12081 0.58086,0.88651 0.0413,1.2222 -0.75786,0.47147 -0.75792,-0.71204 -1.4847,-0.72561 -1.4847,-0.0277 0,0.52712 -0.28193,0.68821 -0.61736,0.35278 z m 2.20081,-2.66788 c -0.007,-0.79452 -0.41496,-1.1951 -1.02125,-1.00267 -0.68155,0.21631 -0.73158,0.81157 -0.0992,1.17991 0.69822,0.40668 1.12495,0.33918 1.12043,-0.17724 z m -13.62199,-2.79017 c -2.35493,-0.72589 -3.05773,-1.22472 -3.71524,-2.63698 -0.71857,-1.54342 -0.79387,-2.3349 -0.34834,-3.6615 0.55718,-1.65905 2.18424,-2.93513 4.13452,-3.24265 0.91086,-0.14361 1.36081,-0.0548 2.32629,0.45916 2.36404,1.25848 3.36382,3.1747 2.76754,5.3044 -0.65663,2.34527 -3.3709,4.33052 -5.16477,3.77757 z m 3.22377,-1.96462 c 1.14821,-1.15822 1.6574,-2.74933 1.3138,-4.10537 -0.36793,-1.45205 -2.4115,-2.84766 -4.1698,-2.84766 -0.87988,0 -3.06446,1.54588 -3.4293,2.42668 -1.15875,2.79746 0.97458,5.84746 3.98757,5.70099 1.01128,-0.0492 1.35739,-0.22609 2.29773,-1.17464 z m -1.64863,-0.62302 c -0.11241,-0.18188 -0.27956,-0.69827 -0.37144,-1.14754 -0.14134,-0.69106 -0.28762,-0.81684 -0.94997,-0.81684 -0.7137,0 -0.79016,0.0877 -0.86502,0.99219 -0.0663,0.8012 -0.18774,0.99218 -0.63086,0.99218 -0.51616,0 -0.5408,-0.1111 -0.41488,-1.87102 0.15311,-2.13987 0.40781,-2.56862 1.22333,-2.05932 0.4472,0.27928 0.72251,0.28295 1.42026,0.0189 1.21774,-0.4608 1.6031,0.0995 1.4645,2.12942 -0.10812,1.58341 -0.4996,2.37091 -0.87592,1.762 z m -14.80431,-4.35326 c -0.58208,-0.2097 -1.08735,-0.38307 -1.12282,-0.38526 -0.0355,-0.002 -0.42406,-0.50036 -0.86353,-1.10704 -0.50011,-0.69038 -0.74153,-1.28429 -0.64529,-1.5875 0.10438,-0.32888 0.0206,-0.48445 -0.26095,-0.48445 -0.59276,0 -0.5438,-1.77161 0.0898,-3.24978 0.76963,-1.7955 1.86295,-2.43876 4.14501,-2.43876 1.60511,0 2.03013,0.10504 2.98689,0.73819 1.4387,0.95209 2.15092,2.13344 2.15217,3.56979 0.002,2.32964 -1.64467,4.50548 -3.82539,5.05459 -1.42097,0.35781 -1.34985,0.36075 -2.65591,-0.10978 z m 3.57187,-1.18734 c 0.81119,-0.57358 1.74466,-1.58316 1.46382,-1.58316 -0.11313,0 -0.0604,-0.17506 0.11718,-0.38904 0.17758,-0.21397 0.34099,-1.00094 0.36313,-1.74882 0.0387,-1.30889 -0.008,-1.40325 -1.24212,-2.52137 -1.13264,-1.02597 -1.42765,-1.1616 -2.52673,-1.1616 -1.49603,0 -3.283,1.03382 -3.75449,2.1721 -0.16959,0.40945 -0.25336,1.31675 -0.18615,2.01623 0.29674,3.08826 3.45461,4.84958 5.76536,3.21566 z m -3.85557,-1.87866 c -0.31439,-0.5087 -0.38046,-2.90924 -0.0948,-3.44308 0.41389,-0.77335 0.77533,-0.33343 0.77533,0.94368 0,1.26466 0.47761,1.87257 1.27287,1.62016 0.5616,-0.17824 1.25636,0.45668 0.98325,0.89857 -0.22898,0.3705 -2.70583,0.3542 -2.93669,-0.0193 z m 24.63387,2.49772 c -1.57855,-0.44432 -3.3158,-2.83523 -3.3158,-4.5634 0,-1.38687 0.9751,-3.25368 2.06514,-3.95366 1.09899,-0.70572 3.82173,-1.09963 4.1319,-0.59778 0.1013,0.16392 0.40517,0.29804 0.67526,0.29804 0.27009,0 0.97743,0.55255 1.57188,1.22788 0.99107,1.12591 1.08082,1.35145 1.08082,2.7161 0,1.83567 -0.61153,3.07016 -2.01345,4.0645 -1.03875,0.73676 -3.06391,1.12691 -4.19575,0.80832 z m 3.59039,-1.2153 c 1.18879,-0.79417 1.82415,-2.12103 1.82465,-3.8106 2.7e-4,-1.30518 -0.0577,-1.4183 -1.25636,-2.44569 -1.48614,-1.27381 -2.56852,-1.39951 -4.44713,-0.51646 -2.78087,1.30717 -3.00224,5.3235 -0.38151,6.9216 1.0461,0.63791 3.19503,0.56282 4.26035,-0.14885 z m -3.74305,-1.71452 c -0.007,-0.25466 -0.0748,-1.07569 -0.15165,-1.82451 -0.17198,-1.67513 0.19798,-2.00069 1.19168,-1.04866 0.83644,0.80136 1.34031,0.88415 1.3836,0.22734 0.0646,-0.9797 0.10991,-1.11872 0.36636,-1.12346 0.14661,-0.003 0.29904,0.88073 0.34186,1.98141 0.0715,1.83787 0.0376,1.98632 -0.45371,1.98632 -0.29205,0 -0.65843,-0.23813 -0.81419,-0.52917 -0.38901,-0.72687 -1.02027,-0.66374 -1.32292,0.13229 -0.29335,0.77157 -0.52417,0.85623 -0.54103,0.19844 z m 10.55504,-0.13229 c -0.0221,-1.20055 -0.0667,-3.40321 -0.0991,-4.89479 -0.0586,-2.69472 -0.0549,-2.71198 0.56932,-2.71198 h 0.62826 l 0.0217,4.16718 c 0.012,2.29196 0.0756,4.49461 0.14134,4.8948 0.10417,0.6338 0.0332,0.7276 -0.55092,0.7276 -0.6602,0 -0.67113,-0.0336 -0.71067,-2.18281 z m -22.75507,-4.04479 c -1.54512,-0.54626 -2.27642,-1.14652 -2.85636,-2.34452 -1.58465,-3.27343 0.72387,-6.92039 4.34745,-6.86801 1.65715,0.0239 2.74936,0.56727 3.7954,1.88801 1.00952,1.27462 1.3062,2.30563 0.72738,2.52775 -0.32323,0.12403 -0.41656,-0.022 -0.41656,-0.65174 0,-1.35206 -2.33227,-3.14056 -4.09543,-3.14056 -2.18945,0 -4.33814,2.25497 -3.97799,4.17474 0.503,2.68124 2.83178,4.36848 5.07798,3.6791 1.0817,-0.33198 2.99544,-2.04813 2.99544,-2.68616 0,-0.22712 0.15624,-0.32861 0.37603,-0.24427 0.94136,0.36123 -0.99328,2.91201 -2.72053,3.58696 -1.08718,0.42484 -2.19776,0.4517 -3.25281,0.0787 z m 0.16133,-2.8885 c -0.35719,-0.35719 -0.64944,-0.83344 -0.64944,-1.05833 0,-0.60572 0.70182,-0.49566 1.18872,0.18641 0.42249,0.59184 0.42734,0.59223 0.83076,0.0662 0.29025,-0.37851 0.3654,-0.88699 0.26395,-1.78594 -0.10393,-0.921 -0.051,-1.25677 0.19824,-1.25677 0.57207,0 0.89558,2.37264 0.45094,3.30729 -0.65721,1.38147 -1.29235,1.53202 -2.28317,0.54119 z m 22.35021,-6.42817 c -0.0105,-2.43747 -0.0403,-5.29502 -0.0661,-6.3501 -0.045,-1.83567 -0.021,-1.91833 0.55777,-1.91823 l 0.60483,1e-4 -0.0306,4.0349 c -0.0168,2.21919 0.0548,5.07669 0.15916,6.35 l 0.18973,2.3151 h -0.69784 -0.69785 z m -35.03819,2.32454 c -1.22142,-0.51152 -2.74283,-2.14811 -3.14793,-3.38625 -0.39478,-1.20656 -0.34323,-2.95154 0.0956,-3.23777 0.11157,-0.0728 0.28212,-0.38655 0.37901,-0.69732 0.0969,-0.31076 0.66918,-0.90607 1.27174,-1.32291 0.9282,-0.64211 1.34272,-0.75439 2.71331,-0.73493 1.99172,0.0283 2.93119,0.53493 4.31627,2.32782 0.62038,0.80303 0.81925,2.87522 0.36512,3.80437 -0.89376,1.82861 -1.13217,2.10037 -2.43403,2.77453 -1.41055,0.73045 -2.57423,0.88492 -3.55913,0.47246 z m 3.00883,-0.88365 c 0.45135,-0.18978 1.17608,-0.81485 1.61052,-1.38906 0.6691,-0.88437 0.79101,-1.28589 0.79725,-2.62573 0.007,-1.51185 -0.0394,-1.6245 -1.05252,-2.55053 -1.66261,-1.51978 -3.39009,-1.62054 -5.33868,-0.3114 -1.77935,1.19544 -2.08902,3.65788 -0.68043,5.41068 1.41745,1.76382 2.86984,2.22037 4.66386,1.46604 z m -3.14112,-3.46936 c 0,-1.16123 0.11146,-2.00643 0.26458,-2.00643 0.14552,0 0.26459,0.16586 0.26459,0.36857 0,0.37652 0.5467,0.68977 1.20381,0.68977 0.20173,0 0.53165,-0.31466 0.73315,-0.69924 0.47674,-0.90988 0.63455,-0.59963 0.74808,1.47072 0.0654,1.19198 -0.005,1.73041 -0.23765,1.80798 -0.18698,0.0625 -0.33073,-0.10714 -0.33073,-0.39018 0,-1.56751 -1.74925,-1.8237 -1.90242,-0.27862 -0.0451,0.45469 -0.23078,0.87557 -0.41268,0.93528 -0.24505,0.0805 -0.33073,-0.4112 -0.33073,-1.89785 z m 24.41369,3.38131 c -1.29185,-0.63692 -2.086,-1.56243 -2.44699,-2.85176 -0.31493,-1.1248 -0.15908,-3.45525 0.2156,-3.22395 0.0962,0.0594 0.1926,-0.18515 0.21411,-0.54349 0.11102,-1.84908 3.10609,-3.1444 5.39955,-2.33522 1.17581,0.41485 2.36654,1.32356 2.36654,1.80603 0,0.14508 0.192,0.47593 0.42667,0.73524 0.30322,0.33506 0.42378,0.96973 0.41672,2.19371 -0.009,1.62254 -0.0684,1.78545 -1.01976,2.81368 -1.65237,1.7859 -3.7355,2.31141 -5.57244,1.40576 z m 4.00106,-0.81119 c 1.682,-1.26181 2.3307,-3.64036 1.51812,-5.5664 -1.12414,-2.6645 -5.74865,-2.63364 -7.02063,0.0469 -1.19169,2.5113 -0.59578,4.50799 1.75024,5.86446 0.80003,0.46258 2.93782,0.26607 3.75227,-0.34492 z m -3.76337,-3.22635 c 0.0726,-2.28643 0.22181,-2.7823 0.6356,-2.11277 0.11538,0.1867 0.609,0.23735 1.33853,0.13736 0.63566,-0.0871 1.15574,-0.0954 1.15574,-0.0185 0,0.077 -0.32742,0.42178 -0.7276,0.76627 l -0.72761,0.62634 0.8599,1.22079 c 0.47294,0.67143 0.85989,1.33636 0.85989,1.47763 0,0.52876 -0.71463,0.22925 -1.28108,-0.53691 -0.7273,-0.98372 -1.30294,-1.01897 -1.41332,-0.0866 -0.046,0.38897 -0.23961,0.75843 -0.43014,0.82103 -0.27209,0.0894 -0.33,-0.40295 -0.26991,-2.2947 z m -32.0508,-1.41634 c -0.006,-2.36472 -0.0771,-6.29378 -0.15813,-8.73125 l -0.14735,-4.43177 h 0.67046 0.67046 l 0.0731,8.73137 0.0731,8.73138 -0.58546,-1.3e-4 c -0.57977,-1.2e-4 -0.58557,-0.042 -0.59625,-4.2996 z m 20.16557,-1.16564 c -0.32743,-0.0704 -0.59532,-0.20965 -0.59532,-0.30953 0,-0.0999 -0.34415,-0.33393 -0.76478,-0.52012 -1.03231,-0.45695 -2.19327,-2.28241 -2.35304,-3.69987 -0.172,-1.52599 0.68781,-3.26881 2.12697,-4.31133 2.16417,-1.56772 5.50635,-0.73874 6.94943,1.72369 0.66666,1.13757 0.86862,2.63006 0.39547,2.92248 -0.14329,0.0886 -0.23824,0.4303 -0.21101,0.75943 0.0483,0.58333 -0.95621,2.28578 -1.34866,2.28578 -0.10817,0 -0.46945,0.25413 -0.80284,0.56472 -0.60998,0.56829 -2.19944,0.84195 -3.39622,0.58475 z m 3.67581,-1.80212 c 0.97598,-0.82124 1.53975,-2.15509 1.54572,-3.65707 0.003,-0.79892 -0.20096,-1.22215 -1.00551,-2.08467 -0.8671,-0.92958 -1.19941,-1.10048 -2.35582,-1.2116 -2.24794,-0.216 -4.09345,1.13069 -4.60067,3.35717 -0.33152,1.45518 0.63326,3.38951 2.01286,4.03569 1.48785,0.69688 3.26351,0.51965 4.40342,-0.43952 z m -3.24857,-1.63458 c -0.48224,-0.135 -0.75797,-1.17919 -0.75797,-2.87038 0,-1.10331 0.0177,-1.12508 1.02294,-1.25992 1.97787,-0.26529 3.17422,0.32177 1.75518,0.86128 -0.75704,0.28783 -0.85553,0.66266 -0.23652,0.9002 0.29849,0.11454 0.37707,0.35382 0.26406,0.80406 -0.12431,0.49532 -0.0372,0.68026 0.38338,0.81374 1.41585,0.44937 -0.92524,1.1726 -2.43107,0.75102 z m -2.35389,-4.70865 c 0.005,-0.13695 -0.16639,-0.0179 -0.38004,0.26458 -0.21365,0.28248 -0.39225,0.62565 -0.39688,0.7626 -0.005,0.13696 0.16639,0.0179 0.38005,-0.26458 0.21365,-0.28248 0.39224,-0.62565 0.39687,-0.7626 z m 24.05918,1.1089 c -0.0145,-1.49159 -0.0721,-3.21799 -0.12806,-3.83646 -0.0949,-1.04843 -0.0573,-1.12447 0.55549,-1.12447 0.63652,0 0.65824,0.0604 0.68938,1.91822 0.0177,1.05503 0.0601,2.78144 0.0942,3.83646 0.06,1.85605 0.0418,1.91823 -0.56132,1.91823 -0.61254,0 -0.62385,-0.0472 -0.64971,-2.71198 z m -34.8588,-0.46206 c -1.05977,-0.25049 -2.9142,-1.98092 -3.11835,-2.90984 -0.0801,-0.36465 -0.19752,-0.85659 -0.26083,-1.09322 -0.0719,-0.26885 0.0861,-0.48285 0.42147,-0.57054 0.404,-0.10565 0.53658,-0.0124 0.53658,0.37722 0,1.39636 1.87377,3.37993 3.46828,3.6715 0.85937,0.15715 1.1687,0.0586 2.30686,-0.73463 3.04944,-2.1254 2.8015,-5.59288 -0.52584,-7.3538 -0.60357,-0.31942 -0.87865,-0.31987 -1.93104,-0.003 -1.67771,0.50492 -2.36848,1.00542 -2.88242,2.08847 -0.32459,0.68402 -0.56509,0.88745 -0.93485,0.79075 -0.72367,-0.18924 -0.41966,-1.00555 0.87051,-2.33745 0.86015,-0.88797 1.3366,-1.15545 2.30961,-1.2966 1.38324,-0.20066 3.68634,0.26626 4.01277,0.81352 0.11637,0.1951 0.35449,0.35565 0.52916,0.35677 0.57845,0.004 1.49513,2.00644 1.53233,3.34777 0.0606,2.18408 -0.59652,3.1421 -3.04009,4.43242 -1.34835,0.71199 -1.81178,0.77119 -3.29415,0.42082 z m 24.41111,-1.01952 c -0.74052,-0.23077 -1.97806,-1.31585 -2.60054,-2.28015 -0.62287,-0.96492 -0.63122,-2.9214 -0.018,-4.21371 0.91126,-1.92034 3.70608,-3.03935 5.43583,-2.17643 0.47236,0.23564 0.99577,0.42844 1.16315,0.42844 0.16738,0 0.70739,0.41586 1.20004,0.92414 0.81862,0.8446 0.9011,1.07804 0.95828,2.71198 0.0788,2.25282 -0.50217,3.23578 -2.6542,4.49044 -0.58248,0.33959 -2.55537,0.40486 -3.48459,0.11529 z m 3.59484,-1.06774 c 0.83794,-0.52423 1.80857,-1.60446 2.0121,-2.23931 0.33256,-1.03733 -0.15622,-2.66824 -1.09913,-3.66744 -1.55772,-1.6507 -3.14813,-1.7838 -5.23868,-0.43841 -2.17266,1.39822 -2.05394,5.23837 0.19763,6.39286 1.49232,0.76518 2.85393,0.74945 4.12808,-0.0477 z m -3.47908,-2.74234 c -0.051,-0.61847 -0.0558,-1.57097 -0.0107,-2.11667 l 0.0821,-0.99219 1.37309,0.004 c 1.59912,0.005 2.25235,0.28008 1.71634,0.7235 -0.18879,0.15618 -0.69126,0.32426 -1.11659,0.37352 -1.08383,0.12551 -1.13271,0.6301 -0.0986,1.01751 l 0.87192,0.32664 -0.99219,0.40079 c -0.6484,0.26193 -0.99218,0.57171 -0.99218,0.89406 0,0.27129 -0.16661,0.49326 -0.37024,0.49326 -0.24462,0 -0.40171,-0.3815 -0.46302,-1.12448 z m -25.11455,2.27764 c -0.17526,-2.13557 -0.0905,-3.65206 0.22153,-3.9641 0.20129,-0.20129 0.89705,-0.36406 1.55615,-0.36406 0.96478,0 1.33954,0.14746 1.96547,0.77339 0.42537,0.42537 0.7734,1.0261 0.7734,1.33495 0,0.60575 -1.08197,1.84645 -1.64162,1.88245 -0.6522,0.042 -1.40413,0.17187 -2.12869,0.36777 -0.40018,0.10819 -0.73599,0.0945 -0.74624,-0.0304 z m 3.04244,-1.56894 c 0.54464,-0.54463 0.52461,-0.79831 -0.11339,-1.43631 -0.61822,-0.61822 -1.03934,-0.66257 -1.70052,-0.1791 -0.36988,0.27046 -0.43677,0.54123 -0.29413,1.19063 0.15472,0.70447 0.30666,0.84056 0.93844,0.84056 0.41461,0 0.94093,-0.1871 1.1696,-0.41578 z m -10.17474,-3.8837 c -0.004,-1.20055 -0.0799,-4.17711 -0.1688,-6.61459 l -0.16161,-4.43177 h 0.68794 0.68794 l 0.0762,5.75469 c 0.0924,6.98336 0.0521,7.47448 -0.61424,7.47448 -0.44956,0 -0.50094,-0.22103 -0.5074,-2.18281 z m 42.37971,-1.66656 -0.0931,-3.86742 0.62227,0.0881 c 0.61947,0.0877 0.62226,0.10471 0.62226,3.79225 0,3.50272 -0.0288,3.70826 -0.52916,3.77934 -0.50491,0.0717 -0.53344,-0.10218 -0.62227,-3.79225 z m -22.80194,2.10409 c -1.15401,-0.3557 -1.494,-0.69767 -2.55845,-2.57343 -0.23614,-0.41612 -0.24052,-0.60843 -0.017,-0.74656 0.22048,-0.13627 0.20918,-0.29677 -0.0422,-0.59967 -0.22579,-0.27207 -0.27348,-0.66377 -0.13936,-1.14465 0.11214,-0.40207 0.18244,-0.9101 0.15623,-1.12896 -0.0432,-0.36106 0.90062,-1.50743 1.88714,-2.29202 0.21349,-0.16979 0.80659,-0.42424 1.31801,-0.56545 2.0713,-0.57191 5.54911,0.91246 5.06903,2.16352 -0.23123,0.60257 -0.5066,0.53765 -1.01578,-0.23948 -0.24142,-0.36843 -0.54454,-0.60462 -0.67361,-0.52484 -0.12907,0.0798 -0.31543,0.0144 -0.41412,-0.14531 -0.0987,-0.15968 -0.45681,-0.22072 -0.79581,-0.13563 -0.33901,0.0851 -0.69024,0.0352 -0.7805,-0.11085 -0.0903,-0.14606 -0.55046,-0.26556 -1.02265,-0.26556 -0.62378,0 -1.08975,0.23856 -1.70418,0.87249 -0.4651,0.47987 -0.84565,1.06816 -0.84565,1.30731 0,0.23914 -0.12272,0.51065 -0.2727,0.60334 -0.81674,0.50478 0.72943,3.77134 2.12722,4.49417 1.30934,0.67708 3.33729,0.28892 4.55207,-0.87129 1.09304,-1.04394 1.55468,-2.72701 1.02133,-3.72359 -0.27047,-0.50537 -0.24414,-0.53347 0.30522,-0.32572 0.53054,0.20064 0.59784,0.39883 0.57238,1.68545 -0.0649,3.27869 -3.29168,5.32547 -6.7266,4.26673 z m -1.8435,-2.86931 c 0,-0.0642 -0.11907,-0.19027 -0.26459,-0.2802 -0.14552,-0.0899 -0.26458,-0.0374 -0.26458,0.11667 0,0.15411 0.11906,0.2802 0.26458,0.2802 0.14552,0 0.26459,-0.0525 0.26459,-0.11667 z m 2.41594,0.0262 c -0.16208,-0.19529 -0.22802,-0.42174 -0.14653,-0.50323 0.0815,-0.0815 0.2077,-0.84246 0.28047,-1.69107 0.14076,-1.64148 0.35918,-1.93805 1.4321,-1.94449 0.783,-0.005 1.30968,0.43446 1.30968,1.09207 0,0.25362 0.25991,0.90164 0.57757,1.44004 l 0.57758,0.97891 -0.60689,0.49142 c -0.72821,0.58967 -2.97355,0.67908 -3.42398,0.13635 z m 2.87572,-0.80316 c 0,-0.56473 -0.62788,-0.95228 -1.27054,-0.78422 -0.56614,0.14805 -0.76123,0.61623 -0.40515,0.97231 0.33682,0.33682 1.67569,0.18653 1.67569,-0.18809 z m -1.99567,-1.99849 c 0.0837,-0.13547 0.0312,-0.32109 -0.11668,-0.41249 -0.14789,-0.0914 -0.2689,0.0194 -0.2689,0.2463 0,0.46475 0.15877,0.53318 0.38558,0.16619 z m -13.30526,-1.33921 c -1.69328,-0.40054 -3.16372,-1.94586 -3.58952,-3.7723 -0.13617,-0.58411 -0.077,-0.72761 0.29984,-0.72761 0.42712,0 1.09459,1.30254 1.18634,2.31511 0.0165,0.1819 0.0912,0.26953 0.16596,0.19473 0.0748,-0.0748 0.47232,0.18622 0.88339,0.58005 1.52233,1.45848 4.50016,0.73513 5.70094,-1.38484 1.1395,-2.01176 0.58495,-4.19199 -1.37422,-5.40283 -0.78629,-0.48595 -1.22899,-0.57476 -2.33524,-0.46846 -1.23516,0.11868 -1.48365,0.26017 -2.61194,1.48724 -1.13271,1.23187 -1.8281,1.67936 -1.79894,1.15765 0.0279,-0.49894 0.98248,-1.92867 1.62186,-2.42912 0.98358,-0.76985 3.23657,-1.16696 4.43898,-0.78242 3.0632,0.97964 4.34668,3.70824 3.06309,6.51196 -0.58006,1.26702 -0.80978,1.48531 -2.30988,2.19498 -1.7547,0.83011 -1.93467,0.85843 -3.34066,0.52586 z m 34.61552,-4.76449 c 0,-4.20096 0.0323,-4.49792 0.48978,-4.49792 0.45008,0 0.49434,0.29382 0.54606,3.62448 0.031,1.99346 0.11942,3.72663 0.19659,3.85149 0.29748,0.48135 -0.1865,1.51987 -0.70831,1.51987 -0.50189,0 -0.52412,-0.19081 -0.52412,-4.49792 z m -10.98021,3.46057 c -2.01368,-1.02861 -2.95419,-4.77058 -1.70646,-6.78944 0.88637,-1.43417 2.95058,-2.42326 4.33315,-2.07625 0.86028,0.21591 1.11764,0.86679 0.27938,0.70654 -1.76298,-0.33701 -3.85672,1.27241 -4.35445,3.34718 -0.27695,1.15448 -0.25268,1.44973 0.20407,2.48229 0.40093,0.90635 0.78451,1.30077 1.6925,1.74033 1.36744,0.66196 2.0265,0.70453 3.19833,0.20657 1.2989,-0.55196 2.23866,-1.57829 2.56922,-2.80592 0.42572,-1.581 0.10795,-2.61737 -1.1571,-3.77374 -1.05221,-0.96182 -1.06636,-0.99605 -0.41167,-0.99605 0.7847,0 1.85552,1.04885 2.34811,2.29994 0.41223,1.04698 0.18858,2.51988 -0.59188,3.89801 -0.84311,1.48877 -1.64877,1.96547 -3.62508,2.14496 -1.41695,0.12869 -1.90615,0.061 -2.77812,-0.38442 z m -24.47396,-2.66682 c 0,-0.43656 0.0931,-0.79375 0.20688,-0.79375 0.11378,0 0.23329,-0.31925 0.26559,-0.70944 0.0698,-0.84299 0.71576,-1.90132 1.2966,-2.12421 0.25868,-0.0993 0.59686,0.0807 0.89672,0.47725 0.69685,0.9215 1.59562,3.49249 1.31797,3.77014 -0.30241,0.30241 -0.80876,-0.0127 -0.80876,-0.50332 0,-0.67387 -1.47298,-0.56235 -2.26601,0.17157 -0.74565,0.69008 -0.90899,0.63828 -0.90899,-0.28824 z m 25.51374,0.0535 c -0.89534,-0.74883 -1.23608,-2.07264 -0.76697,-2.97979 0.64397,-1.24531 2.32441,-1.76572 3.01493,-0.9337 0.38646,0.46565 -0.0355,0.78719 -0.73969,0.56368 -0.28554,-0.0906 -0.74837,0.0538 -1.10942,0.34614 -0.59123,0.47875 -0.60289,0.55197 -0.25558,1.60433 0.22527,0.68259 0.49048,1.05412 0.69612,0.97521 0.18272,-0.0701 0.75738,-0.20724 1.27704,-0.30473 1.24701,-0.23394 1.26489,0.30408 0.0273,0.82118 -1.1632,0.48601 -1.46792,0.47289 -2.14372,-0.0923 z m -32.6426,-5.27899 c -0.008,-1.85539 -0.0595,-4.20688 -0.11352,-5.22552 -0.054,-1.01865 -0.137,-5.543025 -0.1845,-10.054171 l -0.0864,-8.202084 0.72544,-1.455208 c 0.70037,-1.404943 2.29219,-2.839154 2.80167,-2.52428 0.12458,0.077 0.28479,-0.01189 0.35602,-0.19753 0.30253,-0.788358 6.26352,-1.38002 6.7051,-0.665519 0.11012,0.178166 0.22647,0.171226 0.34501,-0.02058 0.12367,-0.200107 3.03079,-0.293713 9.42169,-0.303367 5.08356,-0.0077 9.49177,-0.07644 9.79603,-0.152804 0.33466,-0.08399 0.86451,-0.733087 1.34127,-1.64311 0.44198,-0.843635 0.94133,-1.470468 1.137,-1.427304 0.21865,0.04823 0.29018,-0.07611 0.19159,-0.333027 -0.19996,-0.521085 0.27672,-1.809153 0.59641,-1.611578 0.13222,0.08172 0.17809,-0.08971 0.10193,-0.380954 -0.0762,-0.291241 -0.0172,-0.52953 0.13108,-0.52953 0.14826,0 0.39642,-0.327422 0.55146,-0.727605 0.15505,-0.400182 0.79177,-1.625091 1.41495,-2.722019 0.62317,-1.096928 1.77659,-3.146364 2.56316,-4.554302 0.78657,-1.407937 1.5196,-2.504583 1.62897,-2.43699 0.10937,0.06759 0.14735,-0.08563 0.0844,-0.340491 -0.063,-0.254862 0.15651,-0.788592 0.4877,-1.186067 l 0.60214,-0.722681 9.17873,-0.137101 c 8.29546,-0.123908 10.10497,-0.02911 9.27192,0.485746 -0.11611,0.07176 -4.13641,0.160165 -8.934,0.196458 l -8.7229,0.06599 -0.69332,0.739144 c -0.38132,0.406529 -0.90566,1.189553 -1.1652,1.740053 -0.25953,0.550501 -0.9154,1.733516 -1.45749,2.628923 -0.54209,0.895407 -1.31923,2.324157 -1.72699,3.175 -0.40776,0.850843 -0.9387,1.844643 -1.17986,2.208446 -0.24117,0.363802 -1.00774,1.733021 -1.70349,3.042708 -0.69576,1.309688 -1.42938,2.616102 -1.63027,2.903142 -0.50084,0.715627 -0.4581,1.399324 0.0978,1.563963 0.25466,0.07543 1.77338,0.126751 3.37493,0.114054 3.39381,-0.0269 4.68202,0.404132 6.21651,2.080045 1.8441,2.014058 1.79605,1.649983 1.9931,15.100776 0.14495,9.894394 0.13679,10.120304 -0.36561,10.120304 -0.6814,0 -0.72952,-0.56625 -0.79812,-9.392699 -0.10099,-12.993419 -0.12753,-13.251975 -1.55362,-15.134078 -1.20446,-1.589625 -2.3696,-1.919166 -6.4198,-1.815744 -1.96453,0.05016 -3.65592,0.104161 -3.75864,0.119993 -0.2115,0.0326 -1.71089,2.575353 -3.37136,5.717328 -0.61524,1.164167 -1.22721,2.229776 -1.35993,2.368021 -0.3564,0.371226 -0.29346,0.674688 0.13994,0.674688 0.90097,0 0.64466,0.678907 -0.81242,2.151938 l -1.55321,1.570212 0.59531,1.035614 c 1.03494,1.800384 0.67628,3.561231 -0.91682,4.501179 -1.41764,0.836428 -2.80251,0.705808 -3.98186,-0.37556 -0.91989,-0.843476 -0.98733,-1.008282 -0.97431,-2.380991 0.0124,-1.309079 0.11487,-1.578869 0.9118,-2.401091 0.74423,-0.76785 1.08705,-0.926301 2.00413,-0.926301 1.36278,0 1.62754,-0.302789 1.99263,-2.278806 0.35329,-1.912205 0.49253,-2.157302 0.90506,-1.593139 0.3885,0.53131 1.18385,0.305052 1.18385,-0.33678 0,-0.246367 0.10794,-0.561052 0.23987,-0.699296 0.13193,-0.138245 0.68389,-1.084792 1.22657,-2.103438 0.54269,-1.018646 1.20963,-2.169486 1.48209,-2.55742 0.27246,-0.387938 0.56882,-1.072546 0.65858,-1.521355 l 0.1632,-0.816017 -2.34817,-0.0068 c -12.26619,-0.0354 -19.89197,0.06098 -20.96784,0.265015 -1.93264,0.366517 -3.58595,1.477936 -4.28717,2.882001 -0.5874,1.176155 -0.59166,1.272881 -0.54763,12.450168 0.0244,6.195638 0.11803,12.187538 0.20806,13.315318 l 0.16369,2.05052 h -0.68049 -0.68049 l -0.0154,-3.37343 z m 23.14818,-10.769749 c 0.91002,-0.910019 0.88753,-2.330167 -0.0507,-3.199659 -0.82081,-0.760701 -1.57462,-0.821976 -2.48218,-0.201774 -1.55118,1.060032 -1.70405,2.884964 -0.30529,3.644469 1.07332,0.582792 2.10024,0.494855 2.83813,-0.243036 z m 1.35934,-1.516843 c -0.0845,-0.211066 -0.14716,-0.148373 -0.15985,0.159853 -0.0115,0.278913 0.051,0.435184 0.13896,0.347266 0.0879,-0.08792 0.0973,-0.316124 0.0209,-0.507119 z M 147.40562,71.776509 c -0.58862,-0.506311 -0.73635,-0.856965 -0.73635,-1.747873 0,-1.952759 1.93329,-3.03046 3.3321,-1.857459 0.52865,0.443305 0.56422,0.563431 0.23155,0.78175 -0.2776,0.182179 -0.45634,0.144895 -0.60846,-0.126917 -0.26067,-0.465799 -1.2852,-0.505846 -1.72367,-0.06737 -0.17463,0.174625 -0.3175,0.746125 -0.3175,1.27 0,1.501301 1.20613,2.190986 1.897,1.084733 0.33769,-0.540734 1.01341,-0.461257 1.01341,0.119196 0,0.480941 -1.04334,1.177321 -1.7639,1.177321 -0.32331,0 -0.91919,-0.28502 -1.32418,-0.633377 z m 4.7625,0 c -0.58862,-0.506311 -0.73635,-0.856965 -0.73635,-1.747873 0,-0.890908 0.14773,-1.241562 0.73635,-1.747873 0.89526,-0.770077 2.02125,-0.813216 2.86034,-0.109586 0.52668,0.441663 0.56334,0.564022 0.23379,0.780365 -0.27013,0.177331 -0.52171,0.138133 -0.81459,-0.126917 -0.51479,-0.465883 -1.35346,-0.496898 -1.78437,-0.06599 -0.44124,0.441236 -0.39811,2.196639 0.0634,2.579638 0.54793,0.45474 1.84494,0.24374 1.95137,-0.317451 0.0607,-0.320324 -0.0813,-0.463021 -0.46076,-0.463021 -0.31122,0 -0.54857,-0.17171 -0.54857,-0.396875 0,-0.277182 0.27929,-0.396875 0.92605,-0.396875 0.89754,0 0.92604,0.03127 0.92604,1.015864 0,0.831836 -0.12208,1.071488 -0.67391,1.322917 -1.03374,0.471005 -1.87029,0.369098 -2.67876,-0.326324 z m 5.73392,-0.954123 c 0,-1.694656 -0.0246,-1.734539 -0.81115,-1.313608 -0.81578,0.436595 -0.63126,-0.214549 0.30996,-1.093781 0.45195,-0.422186 0.9282,-0.767611 1.05834,-0.767611 0.13013,0 0.2366,1.071562 0.2366,2.38125 0,1.940278 -0.0735,2.38125 -0.39688,2.38125 -0.30868,0 -0.39687,-0.352778 -0.39687,-1.5875 z M 117.94995,63.598781 V 61.40226 l 0.99219,-0.03006 c 0.56705,-0.01718 1.19058,0.147975 1.45521,0.385445 1.01799,0.913526 0.13454,2.982048 -1.10552,2.588469 -0.47313,-0.150165 -0.54813,-0.06292 -0.54813,0.63761 0,0.545016 -0.13035,0.81158 -0.39687,0.81158 -0.32091,0 -0.39688,-0.420447 -0.39688,-2.196521 z m 1.98438,-0.717519 c 0,-0.746029 -0.10119,-0.922418 -0.52917,-0.922418 -0.35229,0 -0.55827,0.205412 -0.61623,0.614554 -0.12605,0.889658 0.149,1.422172 0.68158,1.319606 0.33626,-0.06476 0.46382,-0.343001 0.46382,-1.011742 z m -10.45104,-0.26096 v -1.852083 h -0.79375 c -0.52917,0 -0.79375,-0.132292 -0.79375,-0.396875 0,-0.314981 0.38217,-0.396875 1.85208,-0.396875 1.46991,0 1.85208,0.08189 1.85208,0.396875 0,0.246944 -0.24988,0.396875 -0.66145,0.396875 -0.64256,0 -0.66146,0.05292 -0.66146,1.852083 0,1.469908 -0.0819,1.852083 -0.39688,1.852083 -0.31498,0 -0.39687,-0.382175 -0.39687,-1.852083 z m 2.64583,0.317021 V 61.40226 l 0.99219,-0.0242 c 0.96977,-0.02366 0.97874,-0.01515 0.39687,0.376709 -0.46566,0.313599 -0.59531,0.65319 -0.59531,1.559267 0,0.853259 -0.10453,1.158353 -0.39687,1.158353 -0.30718,0 -0.39688,-0.346951 -0.39688,-1.535062 z m 2.4474,1.346724 c -0.1819,-0.06619 -0.33073,-0.404672 -0.33073,-0.752187 0,-0.487984 0.19168,-0.681516 0.8419,-0.850003 0.46304,-0.119987 0.88968,-0.361516 0.94809,-0.536731 0.12768,-0.383046 -0.63127,-0.430475 -0.86395,-0.05399 -0.26571,0.429919 -0.92768,0.312122 -0.75626,-0.134575 0.18577,-0.484117 1.18648,-0.768225 1.90389,-0.540527 0.41901,0.132988 0.54247,0.44864 0.61441,1.570982 l 0.09,1.404553 -1.05833,0.0064 c -0.58208,0.0035 -1.20716,-0.04774 -1.38906,-0.113932 z m 1.43005,-0.749114 c 0.0862,-0.224558 0.0995,-0.465485 0.0296,-0.535395 -0.23572,-0.235716 -0.9966,0.20337 -0.9966,0.575113 0,0.500682 0.77182,0.468981 0.96703,-0.03972 z m 5.82085,0.453598 c -0.91085,-1.006476 -0.22894,-2.691146 1.0893,-2.691146 0.56647,0 1.38323,0.894026 1.38323,1.51408 0,0.217949 -0.3759,0.338004 -1.05833,0.338004 -0.58208,0 -1.05833,0.122799 -1.05833,0.272887 0,0.403025 0.8764,0.669782 0.99837,0.303881 0.11573,-0.347204 0.85371,-0.434096 0.85371,-0.100518 0,0.857315 -1.53253,1.109142 -2.20795,0.362812 z m 1.61264,-1.698958 c -0.0606,-0.181901 -0.32853,-0.330729 -0.59531,-0.330729 -0.26679,0 -0.53468,0.148828 -0.59532,0.330729 -0.0698,0.209462 0.14846,0.330729 0.59532,0.330729 0.44685,0 0.66513,-0.121267 0.59531,-0.330729 z m 1.38906,1.877058 c 0,-0.168166 0.29766,-0.696003 0.66146,-1.172972 0.3638,-0.476969 0.66146,-0.934692 0.66146,-1.017162 0,-0.08247 -0.29766,-0.149945 -0.66146,-0.149945 -0.3638,0 -0.66146,-0.119063 -0.66146,-0.264583 0,-0.145521 0.59531,-0.264584 1.32292,-0.264584 0.7276,0 1.32291,0.09561 1.32291,0.21246 0,0.116853 -0.36748,0.712165 -0.81664,1.322917 l -0.81663,1.110457 h 0.81663 c 0.44916,0 0.81664,0.119062 0.81664,0.264583 0,0.145521 -0.59531,0.264583 -1.32291,0.264583 -0.82432,0 -1.32292,-0.115238 -1.32292,-0.305754 z m 3.70417,-0.223412 c -0.29104,-0.291042 -0.52917,-0.767292 -0.52917,-1.058334 0,-0.681451 0.90605,-1.5875 1.5875,-1.5875 0.68145,0 1.5875,0.906049 1.5875,1.5875 0,0.291042 -0.23812,0.767292 -0.52917,1.058334 -0.29104,0.291041 -0.76729,0.529166 -1.05833,0.529166 -0.29104,0 -0.76729,-0.238125 -1.05833,-0.529166 z m 1.71979,-0.529167 c 0.2455,-0.773499 -0.0937,-1.5875 -0.66146,-1.5875 -0.56779,0 -0.90696,0.814001 -0.66146,1.5875 0.0924,0.291042 0.39003,0.529167 0.66146,0.529167 0.27143,0 0.56909,-0.238125 0.66146,-0.529167 z m 1.71979,-0.529167 c 0,-1.234722 0.0882,-1.5875 0.39688,-1.5875 0.30868,0 0.39687,0.352778 0.39687,1.5875 0,1.234723 -0.0882,1.5875 -0.39687,1.5875 -0.30869,0 -0.39688,-0.352777 -0.39688,-1.5875 z m 2.00349,1.079451 c -0.91365,-1.009567 -0.0602,-2.912387 1.16281,-2.592563 0.44966,0.117587 0.53787,0.01454 0.53787,-0.628325 0,-0.59259 0.12138,-0.768979 0.52916,-0.768979 0.48688,0 0.52917,0.176389 0.52917,2.207052 v 2.207053 l -1.17151,0.01771 c -0.79376,0.012 -1.30566,-0.13051 -1.5875,-0.441949 z m 1.70068,-0.550284 c 0.33322,-0.622626 -0.0636,-1.5875 -0.65294,-1.5875 -0.20335,0 -0.44531,0.238125 -0.53769,0.529167 -0.2232,0.703247 0.0763,1.5875 0.53769,1.5875 0.20335,0 0.49718,-0.238125 0.65294,-0.529167 z m 6.87916,-0.926042 c 0,-1.940277 -0.0147,-1.984375 -0.66145,-1.984375 -0.41158,0 -0.66146,-0.14993 -0.66146,-0.396875 0,-0.312072 0.36747,-0.396875 1.71979,-0.396875 1.35231,0 1.71979,0.0848 1.71979,0.396875 0,0.246945 -0.24988,0.396875 -0.66146,0.396875 -0.64676,0 -0.66146,0.0441 -0.66146,1.984375 0,1.5875 -0.0794,1.984375 -0.39687,1.984375 -0.3175,0 -0.39688,-0.396875 -0.39688,-1.984375 z m 2.91042,1.455209 c -1.42932,-1.429317 0.33973,-4.050884 1.91933,-2.844271 0.23813,0.181901 0.51191,0.658151 0.60841,1.058333 0.17249,0.715294 0.15446,0.727604 -1.0659,0.727604 -0.87618,0 -1.20854,0.09729 -1.12981,0.33073 0.0614,0.181901 0.39869,0.348762 0.74965,0.370803 1.44058,0.09047 1.38688,0.06509 1.03499,0.489092 -0.46285,0.5577 -1.49094,0.493444 -2.11667,-0.132291 z m 1.67781,-1.998364 c -0.18196,-0.4742 -1.18549,-0.414562 -1.34841,0.08013 -0.0712,0.216132 0.17089,0.33073 0.69858,0.33073 0.62129,0 0.77114,-0.09474 0.64983,-0.410864 z m 1.76177,0.706637 v -1.820893 l 1.05834,-0.0146 c 1.19118,-0.01644 1.39492,0.366517 0.39687,0.745976 -0.58443,0.222199 -0.66146,0.406307 -0.66146,1.580951 0,1.005357 -0.0968,1.329464 -0.39687,1.329464 -0.31433,0 -0.39688,-0.37871 -0.39688,-1.820893 z m 2.64223,0.564123 c -0.002,-0.691224 -0.0712,-1.508426 -0.15372,-1.816004 -0.13576,-0.505784 -0.0406,-0.559716 0.9958,-0.564284 0.63025,-0.0028 1.29473,0.114627 1.47663,0.260901 0.22524,0.181123 0.45327,0.164254 0.71491,-0.05289 0.2113,-0.175361 0.62802,-0.241448 0.92604,-0.146859 0.47211,0.149844 0.54186,0.391061 0.54186,1.873943 0,1.336467 -0.0852,1.701962 -0.39687,1.701962 -0.30531,0 -0.39688,-0.340234 -0.39688,-1.474608 0,-1.261534 -0.0669,-1.46189 -0.46302,-1.386585 -0.35785,0.06803 -0.48118,0.402961 -0.54299,1.474609 -0.11157,1.934411 -0.78682,1.934411 -0.89839,0 -0.0618,-1.071648 -0.18514,-1.406578 -0.54299,-1.474609 -0.39612,-0.07531 -0.46302,0.125051 -0.46302,1.386585 0,1.134374 -0.0916,1.474608 -0.39688,1.474608 -0.29657,0 -0.39779,-0.317635 -0.40048,-1.25677 z m 5.55986,-0.595313 c 0,-1.469908 0.0819,-1.852083 0.39687,-1.852083 0.31498,0 0.39688,0.382175 0.39688,1.852083 0,1.469908 -0.0819,1.852083 -0.39688,1.852083 -0.31498,0 -0.39687,-0.382175 -0.39687,-1.852083 z m 1.85208,0.03608 v -1.816004 l 1.12448,-0.0051 c 1.55265,-0.007 1.78594,0.264976 1.78594,2.081955 0,1.205925 -0.0891,1.555103 -0.39688,1.555103 -0.30019,0 -0.39687,-0.324302 -0.39687,-1.33122 0,-0.976531 -0.11286,-1.374528 -0.42358,-1.493763 -0.58121,-0.223029 -0.89047,0.364392 -0.89529,1.700504 -0.003,0.821348 -0.11104,1.124479 -0.40092,1.124479 -0.31423,0 -0.39688,-0.378167 -0.39688,-1.816003 z m 3.95384,1.401161 c -0.50075,-0.60337 -0.15756,-1.289826 0.80015,-1.600464 0.50109,-0.162533 0.95603,-0.430361 1.01096,-0.595173 0.15145,-0.454339 -0.69013,-0.668931 -1.1445,-0.291835 -0.52112,0.432488 -0.82554,0.123288 -0.39242,-0.398583 0.40398,-0.486774 1.68727,-0.531888 2.06342,-0.07254 0.14896,0.181901 0.31236,0.993286 0.36313,1.803077 l 0.0923,1.472348 -1.24984,0.01833 c -0.74042,0.01086 -1.3694,-0.125748 -1.5432,-0.33516 z m 1.81925,-0.844631 c 0.0966,-0.677184 -0.16676,-0.748742 -0.86815,-0.235873 -0.2828,0.20679 -0.4049,0.490977 -0.29048,0.676108 0.30995,0.501518 1.06521,0.214549 1.15863,-0.440235 z m 1.89983,-1.121777 c 0,-1.940277 0.0735,-2.38125 0.39687,-2.38125 0.32338,0 0.39688,0.440973 0.39688,2.38125 0,1.940278 -0.0735,2.38125 -0.39688,2.38125 -0.32338,0 -0.39687,-0.440972 -0.39687,-2.38125 z m -34.66042,-1.719791 c 0,-0.218282 0.17859,-0.396875 0.39688,-0.396875 0.21828,0 0.39687,0.178593 0.39687,0.396875 0,0.218281 -0.17859,0.396875 -0.39687,0.396875 -0.21829,0 -0.39688,-0.178594 -0.39688,-0.396875 z m 25.13542,-0.396875 c 0,-0.145521 0.17859,-0.264584 0.39687,-0.264584 0.21828,0 0.39688,0.119063 0.39688,0.264584 0,0.14552 -0.1786,0.264583 -0.39688,0.264583 -0.21828,0 -0.39687,-0.119063 -0.39687,-0.264583 z"
       id="path234" /></g></svg>
