G04 #@! TF.GenerationSoftware,KiCad,Pcbnew,7.0.9*
G04 #@! TF.CreationDate,2024-04-03T04:08:09-05:00*
G04 #@! TF.ProjectId,Arduino Controller - Entrex Trapezoid,41726475-696e-46f2-9043-6f6e74726f6c,rev?*
G04 #@! TF.SameCoordinates,Original*
G04 #@! TF.FileFunction,Copper,L1,Top*
G04 #@! TF.FilePolarity,Positive*
%FSLAX46Y46*%
G04 Gerber Fmt 4.6, Leading zero omitted, Abs format (unit mm)*
G04 Created by KiCad (PCBNEW 7.0.9) date 2024-04-03 04:08:09*
%MOMM*%
%LPD*%
G01*
G04 APERTURE LIST*
G04 #@! TA.AperFunction,ComponentPad*
%ADD10C,1.700000*%
G04 #@! TD*
G04 #@! TA.AperFunction,ComponentPad*
%ADD11O,1.700000X1.700000*%
G04 #@! TD*
G04 #@! TA.AperFunction,ComponentPad*
%ADD12C,2.000000*%
G04 #@! TD*
G04 #@! TA.AperFunction,ComponentPad*
%ADD13O,1.727200X1.727200*%
G04 #@! TD*
G04 #@! TA.AperFunction,ComponentPad*
%ADD14R,1.700000X1.700000*%
G04 #@! TD*
G04 #@! TA.AperFunction,ComponentPad*
%ADD15R,1.600000X1.600000*%
G04 #@! TD*
G04 #@! TA.AperFunction,ComponentPad*
%ADD16O,1.600000X1.600000*%
G04 #@! TD*
G04 #@! TA.AperFunction,ViaPad*
%ADD17C,0.600000*%
G04 #@! TD*
G04 #@! TA.AperFunction,Conductor*
%ADD18C,0.250000*%
G04 #@! TD*
G04 #@! TA.AperFunction,Conductor*
%ADD19C,0.500000*%
G04 #@! TD*
G04 APERTURE END LIST*
D10*
X153568000Y-80346000D03*
D11*
X153568000Y-82886000D03*
X153568000Y-85426000D03*
X153568000Y-87966000D03*
D10*
X100956000Y-55256000D03*
D11*
X98416000Y-55256000D03*
X95876000Y-55256000D03*
X93336000Y-55256000D03*
X90796000Y-55256000D03*
X88256000Y-55256000D03*
X85716000Y-55256000D03*
X83176000Y-55256000D03*
D10*
X78096000Y-55246000D03*
D11*
X75556000Y-55246000D03*
X73016000Y-55246000D03*
X70476000Y-55246000D03*
X67936000Y-55246000D03*
X65396000Y-55246000D03*
X62856000Y-55246000D03*
X60316000Y-55246000D03*
D10*
X95885000Y-44450000D03*
D11*
X93345000Y-44450000D03*
X90805000Y-44450000D03*
X88265000Y-44450000D03*
X85725000Y-44450000D03*
X83185000Y-44450000D03*
D10*
X111125000Y-44450000D03*
D11*
X108585000Y-44450000D03*
X106045000Y-44450000D03*
X103505000Y-44450000D03*
D12*
X148108000Y-50736000D03*
X141608000Y-50736000D03*
X148108000Y-46236000D03*
X141608000Y-46236000D03*
D10*
X103496000Y-55246000D03*
D11*
X106036000Y-55246000D03*
X108576000Y-55246000D03*
X111116000Y-55246000D03*
X113656000Y-55246000D03*
X116196000Y-55246000D03*
X118736000Y-55246000D03*
X121276000Y-55246000D03*
X123816000Y-55246000D03*
X126356000Y-55246000D03*
X128896000Y-55246000D03*
X131436000Y-55246000D03*
X133976000Y-55246000D03*
X136516000Y-55246000D03*
X139056000Y-55246000D03*
X141596000Y-55246000D03*
X144136000Y-55246000D03*
X146676000Y-55246000D03*
X149216000Y-55246000D03*
D13*
X122428000Y-68072000D03*
X114808000Y-68072000D03*
X112268000Y-68072000D03*
X84201000Y-96012000D03*
X56388000Y-116332000D03*
X53848000Y-116332000D03*
X99568000Y-68072000D03*
X97028000Y-68072000D03*
X94488000Y-68072000D03*
X91948000Y-68072000D03*
X89408000Y-68072000D03*
X86868000Y-68072000D03*
X84328000Y-68072000D03*
X81788000Y-68072000D03*
X76708000Y-68072000D03*
X74168000Y-68072000D03*
X71628000Y-68072000D03*
X69088000Y-68072000D03*
X66548000Y-68072000D03*
X64008000Y-68072000D03*
X61468000Y-68072000D03*
X58928000Y-68072000D03*
X126492000Y-116332000D03*
X86868000Y-116332000D03*
X89408000Y-116332000D03*
X91948000Y-116332000D03*
X94488000Y-116332000D03*
X97028000Y-116332000D03*
X99568000Y-116332000D03*
X102108000Y-116332000D03*
X104648000Y-116332000D03*
X108712000Y-116332000D03*
X111252000Y-116332000D03*
X113792000Y-116332000D03*
X116332000Y-116332000D03*
X118872000Y-116332000D03*
X121412000Y-116332000D03*
X81788000Y-116332000D03*
X79248000Y-116332000D03*
X76708000Y-116332000D03*
X74168000Y-116332000D03*
X71628000Y-116332000D03*
X69088000Y-116332000D03*
X66548000Y-116332000D03*
X64008000Y-116332000D03*
X56388000Y-113792000D03*
X53848000Y-113792000D03*
X56388000Y-111252000D03*
X53848000Y-111252000D03*
X56388000Y-108712000D03*
X53848000Y-108712000D03*
X56388000Y-106172000D03*
X53848000Y-106172000D03*
X56388000Y-103632000D03*
X53848000Y-103632000D03*
X56388000Y-101092000D03*
X53848000Y-101092000D03*
X56388000Y-98552000D03*
X53848000Y-98552000D03*
X56388000Y-96012000D03*
X53848000Y-96012000D03*
X56388000Y-93472000D03*
X53848000Y-93472000D03*
X56388000Y-90932000D03*
X53848000Y-90932000D03*
X56388000Y-88392000D03*
X53848000Y-88392000D03*
X56388000Y-85852000D03*
X53848000Y-85852000D03*
X56388000Y-83312000D03*
X53848000Y-83312000D03*
X56388000Y-80772000D03*
X53848000Y-80772000D03*
X56388000Y-78232000D03*
X53848000Y-78232000D03*
X56388000Y-75692000D03*
X53848000Y-75692000D03*
X123952000Y-116332000D03*
X109728000Y-68072000D03*
X107188000Y-68072000D03*
X84201000Y-90932000D03*
X56388000Y-73152000D03*
X53848000Y-73152000D03*
X119888000Y-68072000D03*
X86741000Y-96012000D03*
X84201000Y-93472000D03*
X117348000Y-68072000D03*
X86741000Y-90932000D03*
X86741000Y-93472000D03*
X131572000Y-116332000D03*
X129032000Y-116332000D03*
X104648000Y-68072000D03*
D11*
X118015000Y-98640000D03*
X120555000Y-99910000D03*
X123095000Y-98640000D03*
X118015000Y-101180000D03*
X120555000Y-102450000D03*
X123095000Y-101180000D03*
X118015000Y-103720000D03*
X120555000Y-104990000D03*
X123095000Y-103720000D03*
X118015000Y-106260000D03*
X120555000Y-107530000D03*
X123095000Y-106260000D03*
X118015000Y-108800000D03*
X123095000Y-108800000D03*
D14*
X48895000Y-123190000D03*
D11*
X51435000Y-123190000D03*
X53975000Y-123190000D03*
X56515000Y-123190000D03*
X59055000Y-123190000D03*
X61595000Y-123190000D03*
X64135000Y-123190000D03*
X66675000Y-123190000D03*
X69215000Y-123190000D03*
X71755000Y-123190000D03*
X74295000Y-123190000D03*
X76835000Y-123190000D03*
X79375000Y-123190000D03*
X81915000Y-123190000D03*
X84455000Y-123190000D03*
X86995000Y-123190000D03*
X89535000Y-123190000D03*
X92075000Y-123190000D03*
X94615000Y-123190000D03*
D14*
X79220000Y-78660000D03*
D11*
X79220000Y-81200000D03*
X81760000Y-78660000D03*
X81760000Y-81200000D03*
X84300000Y-78660000D03*
X84300000Y-81200000D03*
X86840000Y-78660000D03*
X86840000Y-81200000D03*
X89380000Y-78660000D03*
X89380000Y-81200000D03*
X130235000Y-74520000D03*
X132775000Y-75790000D03*
X135315000Y-74520000D03*
X130235000Y-77060000D03*
X132775000Y-78330000D03*
X135315000Y-77060000D03*
X130235000Y-79600000D03*
X132775000Y-80870000D03*
X135315000Y-79600000D03*
X130235000Y-82140000D03*
X132775000Y-83410000D03*
X135315000Y-82140000D03*
X130235000Y-84680000D03*
X135315000Y-84680000D03*
D14*
X128270000Y-44450000D03*
D11*
X125730000Y-44450000D03*
X123190000Y-44450000D03*
X120650000Y-44450000D03*
D15*
X98425000Y-74930000D03*
D16*
X98425000Y-77470000D03*
X98425000Y-80010000D03*
X98425000Y-82550000D03*
X98425000Y-85090000D03*
X98425000Y-87630000D03*
X98425000Y-90170000D03*
X106045000Y-90170000D03*
X106045000Y-87630000D03*
X106045000Y-85090000D03*
X106045000Y-82550000D03*
X106045000Y-80010000D03*
X106045000Y-77470000D03*
X106045000Y-74930000D03*
D17*
X57277000Y-64770000D03*
X55245000Y-66167000D03*
X69215000Y-96266000D03*
X71120000Y-62738000D03*
X80645000Y-91186000D03*
X76835000Y-61722000D03*
X64135000Y-98679000D03*
X80010000Y-61341000D03*
X66675000Y-98171000D03*
X61595000Y-100457000D03*
X74295000Y-62484000D03*
X69215000Y-63246000D03*
X71755000Y-94742000D03*
X76835000Y-92583000D03*
X64135000Y-64135000D03*
X66675000Y-63754000D03*
X55372000Y-64389000D03*
X84455000Y-98806000D03*
X86995000Y-98552000D03*
X53721000Y-65913000D03*
X96393000Y-92202000D03*
X91567000Y-84963000D03*
X89535000Y-85979000D03*
X132842000Y-102616000D03*
X74295000Y-93345000D03*
X145034000Y-69977000D03*
X106680000Y-106172000D03*
X138811000Y-69977000D03*
X112268000Y-106172000D03*
X120523000Y-111125000D03*
X95250000Y-81280000D03*
X89408000Y-75438000D03*
X120523000Y-111760000D03*
X104394000Y-59182000D03*
X132842000Y-86106000D03*
X94488000Y-51943000D03*
X92075000Y-52197000D03*
X86995000Y-53467000D03*
X89662000Y-52832000D03*
X83058000Y-61087000D03*
X99695000Y-81026000D03*
X117602000Y-70993000D03*
X80645000Y-71120000D03*
X100203000Y-71755000D03*
X123825000Y-94234000D03*
X127000000Y-76835000D03*
X97282000Y-72517000D03*
X116459000Y-74549000D03*
X86741000Y-87122000D03*
X115316000Y-86233000D03*
X102108000Y-68834000D03*
X80391000Y-69215000D03*
X78359000Y-69850000D03*
X104521000Y-79248000D03*
X84836000Y-72009000D03*
X138049000Y-81915000D03*
X96139000Y-72009000D03*
X84201000Y-73279000D03*
X139827000Y-84455000D03*
X83820000Y-76962000D03*
X135255000Y-56388000D03*
X86868000Y-75692000D03*
X137287000Y-83439000D03*
X96393000Y-81026000D03*
X86868000Y-73025000D03*
X124841000Y-103505000D03*
X94234000Y-71374000D03*
X130810000Y-102362000D03*
X140462000Y-78486000D03*
X79375000Y-70866000D03*
X123444000Y-95758000D03*
D18*
X78096000Y-66666000D02*
X78096000Y-55246000D01*
X76708000Y-68072000D02*
X78105000Y-66675000D01*
X78105000Y-66675000D02*
X78096000Y-66666000D01*
X75556000Y-55246000D02*
X75556000Y-66684000D01*
X75556000Y-66684000D02*
X74168000Y-68072000D01*
X73016000Y-66684000D02*
X71628000Y-68072000D01*
X73016000Y-55246000D02*
X73016000Y-66684000D01*
X70476000Y-66684000D02*
X69088000Y-68072000D01*
X70476000Y-55246000D02*
X70476000Y-66684000D01*
X67936000Y-66684000D02*
X66548000Y-68072000D01*
X67936000Y-55246000D02*
X67936000Y-66684000D01*
X65396000Y-55246000D02*
X65396000Y-66684000D01*
X65396000Y-66684000D02*
X64008000Y-68072000D01*
X60060000Y-119645000D02*
X56515000Y-123190000D01*
X56388000Y-103632000D02*
X57912000Y-103632000D01*
X57912000Y-103632000D02*
X60060000Y-105780000D01*
X60060000Y-105780000D02*
X60060000Y-119645000D01*
X62856000Y-55246000D02*
X62856000Y-66684000D01*
X62856000Y-66684000D02*
X61468000Y-68072000D01*
X58465600Y-102280600D02*
X60510000Y-104325000D01*
X60510000Y-121735000D02*
X59055000Y-123190000D01*
X53848000Y-103632000D02*
X55199400Y-102280600D01*
X55199400Y-102280600D02*
X58465600Y-102280600D01*
X60510000Y-104325000D02*
X60510000Y-121735000D01*
X60316000Y-66684000D02*
X58928000Y-68072000D01*
X60316000Y-55246000D02*
X60316000Y-66684000D01*
X100956000Y-66684000D02*
X99568000Y-68072000D01*
X100956000Y-55256000D02*
X100956000Y-66684000D01*
X61595000Y-123190000D02*
X60960000Y-122555000D01*
X60960000Y-122555000D02*
X60960000Y-103505000D01*
X58547000Y-101092000D02*
X56388000Y-101092000D01*
X60960000Y-103505000D02*
X58547000Y-101092000D01*
X56896000Y-65151000D02*
X53340000Y-65151000D01*
X55036600Y-112440600D02*
X53355665Y-112440600D01*
X51759400Y-110844335D02*
X51759400Y-66731600D01*
X53355665Y-112440600D02*
X51759400Y-110844335D01*
X51759400Y-66731600D02*
X53340000Y-65151000D01*
X56388000Y-113792000D02*
X55036600Y-112440600D01*
X56896000Y-65151000D02*
X57277000Y-64770000D01*
X55036600Y-109900600D02*
X53355665Y-109900600D01*
X53355665Y-109900600D02*
X52659400Y-109204335D01*
X56388000Y-111252000D02*
X55036600Y-109900600D01*
X52659400Y-109204335D02*
X52659400Y-68752600D01*
X55245000Y-66167000D02*
X55245000Y-66294000D01*
X52659400Y-68752600D02*
X55245000Y-66167000D01*
X71755000Y-123190000D02*
X70439400Y-121874400D01*
X70439400Y-115779796D02*
X69215000Y-114555396D01*
X69215000Y-114555396D02*
X69215000Y-97028000D01*
X69215000Y-97028000D02*
X69215000Y-96266000D01*
X70439400Y-121874400D02*
X70439400Y-115779796D01*
X71628000Y-116332000D02*
X70439400Y-115143400D01*
X71120000Y-66676396D02*
X71120000Y-63500000D01*
X70439400Y-115143400D02*
X70439400Y-67356996D01*
X71120000Y-63500000D02*
X71120000Y-62738000D01*
X70439400Y-67356996D02*
X71120000Y-66676396D01*
X80599400Y-121874400D02*
X80599400Y-91948000D01*
X80599400Y-91231600D02*
X80645000Y-91186000D01*
X80599400Y-91948000D02*
X80599400Y-91231600D01*
X81915000Y-123190000D02*
X80599400Y-121874400D01*
X80599400Y-91948000D02*
X80599400Y-91485600D01*
X75519400Y-67356996D02*
X76835000Y-66041396D01*
X76708000Y-116332000D02*
X75519400Y-115143400D01*
X76835000Y-66041396D02*
X76835000Y-62484000D01*
X76835000Y-62484000D02*
X76835000Y-61722000D01*
X75519400Y-115143400D02*
X75519400Y-67356996D01*
X65359400Y-115839665D02*
X64135000Y-114615265D01*
X64135000Y-99314000D02*
X64135000Y-98679000D01*
X66675000Y-123190000D02*
X65359400Y-121874400D01*
X65359400Y-121874400D02*
X65359400Y-115839665D01*
X64135000Y-114615265D02*
X64135000Y-99314000D01*
X77896600Y-83820000D02*
X77896600Y-110490000D01*
X80010000Y-65406396D02*
X77896600Y-67519796D01*
X80010000Y-61341000D02*
X80010000Y-65406396D01*
X77896600Y-67519796D02*
X77896600Y-69065800D01*
X77896600Y-110490000D02*
X79248000Y-111841400D01*
X79248000Y-111841400D02*
X79248000Y-116332000D01*
X75969400Y-70993000D02*
X75969400Y-81892800D01*
X77896600Y-69065800D02*
X75969400Y-70993000D01*
X75969400Y-81892800D02*
X77896600Y-83820000D01*
X69215000Y-123190000D02*
X67899400Y-121874400D01*
X67899400Y-121874400D02*
X67899400Y-115779796D01*
X67899400Y-115779796D02*
X66675000Y-114555396D01*
X66675000Y-114555396D02*
X66675000Y-98171000D01*
X61595000Y-100965000D02*
X61595000Y-100457000D01*
X64135000Y-123190000D02*
X61595000Y-120650000D01*
X61595000Y-120650000D02*
X61595000Y-100965000D01*
X61595000Y-100965000D02*
X61595000Y-100330000D01*
X59160000Y-117368604D02*
X55244302Y-121284302D01*
X53340698Y-121284302D02*
X51435000Y-123190000D01*
X55244302Y-121284302D02*
X53340698Y-121284302D01*
X59160000Y-108944000D02*
X59160000Y-117368604D01*
X56388000Y-106172000D02*
X59160000Y-108944000D01*
X74295000Y-66041395D02*
X74295000Y-63119000D01*
X74295000Y-63119000D02*
X74295000Y-62484000D01*
X72816600Y-114980600D02*
X72816600Y-67519795D01*
X74168000Y-116332000D02*
X72816600Y-114980600D01*
X72816600Y-67519795D02*
X74295000Y-66041395D01*
X67736600Y-114980600D02*
X67736600Y-67579665D01*
X69215000Y-64008000D02*
X69215000Y-63246000D01*
X67736600Y-67579665D02*
X69215000Y-66101265D01*
X69088000Y-116332000D02*
X67736600Y-114980600D01*
X69215000Y-66101265D02*
X69215000Y-64008000D01*
X71755000Y-95504000D02*
X71755000Y-94615000D01*
X72816600Y-121711600D02*
X72816600Y-115616996D01*
X71755000Y-95504000D02*
X71755000Y-94742000D01*
X72816600Y-115616996D02*
X71755000Y-114555396D01*
X74295000Y-123190000D02*
X72816600Y-121711600D01*
X71755000Y-114555396D02*
X71755000Y-95504000D01*
X78059400Y-121874400D02*
X78059400Y-111289196D01*
X76835000Y-110064796D02*
X76835000Y-93472000D01*
X79375000Y-123190000D02*
X78059400Y-121874400D01*
X78059400Y-111289196D02*
X76835000Y-110064796D01*
X76835000Y-93472000D02*
X76835000Y-92583000D01*
X64135000Y-66041396D02*
X64135000Y-64897000D01*
X62819400Y-67356996D02*
X64135000Y-66041396D01*
X64008000Y-116332000D02*
X62819400Y-115143400D01*
X64135000Y-64897000D02*
X64135000Y-64135000D01*
X62819400Y-115143400D02*
X62819400Y-67356996D01*
X66548000Y-116332000D02*
X65359400Y-115143400D01*
X66675000Y-66264065D02*
X66675000Y-64389000D01*
X65359400Y-67579665D02*
X66675000Y-66264065D01*
X65359400Y-115143400D02*
X65359400Y-67579665D01*
X66675000Y-64389000D02*
X66675000Y-63754000D01*
X53848000Y-113792000D02*
X51309400Y-111253400D01*
X52833400Y-64389000D02*
X55372000Y-64389000D01*
X51309400Y-111253400D02*
X51309400Y-65913000D01*
X51309400Y-65913000D02*
X52833400Y-64389000D01*
X84455000Y-99441000D02*
X84455000Y-98806000D01*
X84455000Y-123190000D02*
X84455000Y-99441000D01*
X86995000Y-99695000D02*
X86995000Y-98552000D01*
X86995000Y-99695000D02*
X86995000Y-98425000D01*
X86995000Y-123190000D02*
X88056600Y-122128400D01*
X86995000Y-114778065D02*
X86995000Y-99695000D01*
X88056600Y-122128400D02*
X88056600Y-115839665D01*
X88056600Y-115839665D02*
X86995000Y-114778065D01*
X52209400Y-66921716D02*
X53218116Y-65913000D01*
X53848000Y-111252000D02*
X52209400Y-109613400D01*
X53218116Y-65913000D02*
X53721000Y-65913000D01*
X52209400Y-109613400D02*
X52209400Y-66921716D01*
X98298000Y-94107000D02*
X96393000Y-92202000D01*
X95101701Y-124365000D02*
X98298000Y-121168701D01*
X90710000Y-124365000D02*
X95101701Y-124365000D01*
X89535000Y-123190000D02*
X90710000Y-124365000D01*
X98298000Y-121168701D02*
X98298000Y-94107000D01*
X91440000Y-114143065D02*
X91440000Y-85090000D01*
X93136600Y-115839665D02*
X91440000Y-114143065D01*
X94615000Y-123190000D02*
X93136600Y-121711600D01*
X93136600Y-121711600D02*
X93136600Y-115839665D01*
X91440000Y-85090000D02*
X91567000Y-84963000D01*
X89535000Y-86741000D02*
X89535000Y-85979000D01*
X90759400Y-115839665D02*
X89535000Y-114615265D01*
X92075000Y-123190000D02*
X90759400Y-121874400D01*
X89535000Y-114615265D02*
X89535000Y-86741000D01*
X90759400Y-121874400D02*
X90759400Y-115839665D01*
X53848000Y-108712000D02*
X55199400Y-107360600D01*
X56940204Y-107360600D02*
X58710000Y-109130396D01*
X55199400Y-107360600D02*
X56940204Y-107360600D01*
X58710000Y-117182208D02*
X55057906Y-120834302D01*
X51250698Y-120834302D02*
X48895000Y-123190000D01*
X55057906Y-120834302D02*
X51250698Y-120834302D01*
X58710000Y-109130396D02*
X58710000Y-117182208D01*
X143221000Y-61241000D02*
X143221000Y-92237000D01*
X149216000Y-55246000D02*
X143221000Y-61241000D01*
X143221000Y-92237000D02*
X132842000Y-102616000D01*
X57576600Y-66095204D02*
X57576600Y-79583400D01*
X61087000Y-52451000D02*
X59141000Y-54397000D01*
X88265000Y-44450000D02*
X88265000Y-51181000D01*
X59141000Y-64530804D02*
X57576600Y-66095204D01*
X57576600Y-79583400D02*
X56388000Y-80772000D01*
X88265000Y-51181000D02*
X86995000Y-52451000D01*
X86995000Y-52451000D02*
X61087000Y-52451000D01*
X59141000Y-54397000D02*
X59141000Y-64530804D01*
X53975000Y-123190000D02*
X59610000Y-117555000D01*
X55199400Y-104820600D02*
X53848000Y-106172000D01*
X59610000Y-106680000D02*
X57750600Y-104820600D01*
X57750600Y-104820600D02*
X55199400Y-104820600D01*
X59610000Y-117555000D02*
X59610000Y-106680000D01*
X74295000Y-93853000D02*
X74295000Y-93345000D01*
X74295000Y-114555396D02*
X74295000Y-93853000D01*
X75519400Y-115779796D02*
X74295000Y-114555396D01*
X75519400Y-121874400D02*
X75519400Y-115779796D01*
X76835000Y-123190000D02*
X75519400Y-121874400D01*
X120523000Y-111760000D02*
X120555000Y-111792000D01*
D19*
X107188000Y-68072000D02*
X107188000Y-61976000D01*
X120523000Y-111125000D02*
X120555000Y-111157000D01*
X120555000Y-111157000D02*
X120555000Y-111728000D01*
X107188000Y-61976000D02*
X104394000Y-59182000D01*
X89380000Y-78660000D02*
X89380000Y-81200000D01*
D18*
X120555000Y-111728000D02*
X120523000Y-111760000D01*
X132842000Y-86233000D02*
X132775000Y-86166000D01*
D19*
X97155000Y-90170000D02*
X95250000Y-88265000D01*
X89380000Y-75466000D02*
X89408000Y-75438000D01*
X95250000Y-88265000D02*
X95250000Y-81280000D01*
X120555000Y-111093000D02*
X120523000Y-111125000D01*
D18*
X120555000Y-111792000D02*
X120555000Y-111982000D01*
X132842000Y-86106000D02*
X132775000Y-86166000D01*
D19*
X98425000Y-90170000D02*
X97155000Y-90170000D01*
X89380000Y-81200000D02*
X89380000Y-75466000D01*
X120555000Y-107530000D02*
X120555000Y-111093000D01*
X132775000Y-83410000D02*
X132842000Y-86106000D01*
D18*
X98416000Y-66684000D02*
X97028000Y-68072000D01*
X98416000Y-55256000D02*
X98416000Y-66684000D01*
X95876000Y-66684000D02*
X94488000Y-68072000D01*
X95876000Y-55256000D02*
X95876000Y-66684000D01*
X93336000Y-55256000D02*
X93336000Y-66684000D01*
X93336000Y-66684000D02*
X91948000Y-68072000D01*
X136298000Y-53171000D02*
X136652000Y-53525000D01*
X141536000Y-53525000D02*
X142771000Y-54760000D01*
X142771000Y-54760000D02*
X142771000Y-91037396D01*
X136652000Y-53525000D02*
X141536000Y-53525000D01*
X132080000Y-101728396D02*
X132080000Y-115824000D01*
X95885000Y-44450000D02*
X104606000Y-53171000D01*
X104606000Y-53171000D02*
X136298000Y-53171000D01*
X132080000Y-115824000D02*
X131572000Y-116332000D01*
X142771000Y-91037396D02*
X132080000Y-101728396D01*
X141087000Y-56505000D02*
X140231000Y-55649000D01*
X102516000Y-53621000D02*
X93345000Y-44450000D01*
X141087000Y-92085000D02*
X141087000Y-56505000D01*
X131435000Y-101737000D02*
X141087000Y-92085000D01*
X133550000Y-53975000D02*
X133196000Y-53621000D01*
X129032000Y-116332000D02*
X131435000Y-113929000D01*
X131435000Y-113929000D02*
X131435000Y-101737000D01*
X140231000Y-55649000D02*
X140231000Y-54737000D01*
X140231000Y-54737000D02*
X139469000Y-53975000D01*
X139469000Y-53975000D02*
X133550000Y-53975000D01*
X133196000Y-53621000D02*
X102516000Y-53621000D01*
X121239400Y-60289400D02*
X116196000Y-55246000D01*
X121730000Y-69054935D02*
X121239400Y-68564335D01*
X121412000Y-116332000D02*
X121730000Y-116014000D01*
X121730000Y-116014000D02*
X121730000Y-69054935D01*
X121239400Y-68564335D02*
X121239400Y-60289400D01*
X113656000Y-55246000D02*
X118536600Y-60126600D01*
X119190000Y-98153299D02*
X119190000Y-116014000D01*
X119190000Y-116014000D02*
X118872000Y-116332000D01*
X118536600Y-60126600D02*
X118536600Y-97499899D01*
X118536600Y-97499899D02*
X119190000Y-98153299D01*
X116159400Y-68401535D02*
X113906600Y-70654334D01*
X116159400Y-116159400D02*
X116159400Y-111125000D01*
X113906600Y-70654334D02*
X113906600Y-108953600D01*
X113906600Y-108953600D02*
X116078000Y-111125000D01*
X116078000Y-111125000D02*
X116159400Y-111125000D01*
X116332000Y-116332000D02*
X116159400Y-116159400D01*
X116159400Y-60289400D02*
X111116000Y-55246000D01*
X116159400Y-68401535D02*
X116159400Y-60289400D01*
X113456600Y-60126600D02*
X113456600Y-115996600D01*
X108576000Y-55246000D02*
X113456600Y-60126600D01*
X113456600Y-115996600D02*
X113792000Y-116332000D01*
X110916600Y-60126600D02*
X106036000Y-55246000D01*
X110916600Y-115996600D02*
X110916600Y-60126600D01*
X111252000Y-116332000D02*
X110916600Y-115996600D01*
X108539400Y-60289400D02*
X103496000Y-55246000D01*
X108539400Y-116159400D02*
X108539400Y-60289400D01*
X108712000Y-116332000D02*
X108539400Y-116159400D01*
X90796000Y-66684000D02*
X89408000Y-68072000D01*
X90796000Y-55256000D02*
X90796000Y-66684000D01*
X88256000Y-66684000D02*
X86868000Y-68072000D01*
X88256000Y-55256000D02*
X88256000Y-66684000D01*
X85716000Y-66684000D02*
X84328000Y-68072000D01*
X85716000Y-55256000D02*
X85716000Y-66684000D01*
X81788000Y-56644000D02*
X81788000Y-68072000D01*
X83176000Y-55256000D02*
X81788000Y-56644000D01*
X94511000Y-66145395D02*
X94511000Y-52705000D01*
X93136600Y-114980600D02*
X93136600Y-67519795D01*
X94488000Y-116332000D02*
X93136600Y-114980600D01*
X94511000Y-51966000D02*
X94488000Y-51943000D01*
X94511000Y-52705000D02*
X94511000Y-51966000D01*
X93136600Y-67519795D02*
X94511000Y-66145395D01*
X90759400Y-67356996D02*
X92075000Y-66041396D01*
X90759400Y-115143400D02*
X90759400Y-67356996D01*
X91948000Y-116332000D02*
X90759400Y-115143400D01*
X92075000Y-52959000D02*
X92075000Y-52197000D01*
X92075000Y-66041396D02*
X92075000Y-52959000D01*
X86868000Y-116332000D02*
X85475000Y-114939000D01*
X85475000Y-114939000D02*
X85475000Y-68768735D01*
X85679400Y-68564335D02*
X85679400Y-67356996D01*
X86995000Y-66041396D02*
X86995000Y-53467000D01*
X85679400Y-67356996D02*
X86995000Y-66041396D01*
X85475000Y-68768735D02*
X85679400Y-68564335D01*
X89408000Y-116332000D02*
X88205000Y-115129000D01*
X88205000Y-115129000D02*
X88205000Y-67371396D01*
X89621000Y-53340000D02*
X89621000Y-52873000D01*
X88205000Y-67371396D02*
X89621000Y-65955396D01*
X89621000Y-52873000D02*
X89662000Y-52832000D01*
X89621000Y-65955396D02*
X89621000Y-53340000D01*
X82976600Y-61595000D02*
X82976600Y-61168400D01*
X82976600Y-61168400D02*
X83058000Y-61087000D01*
X81788000Y-116332000D02*
X82976600Y-115143400D01*
X82976600Y-115143400D02*
X82976600Y-61595000D01*
X118015000Y-98640000D02*
X118015000Y-72009000D01*
X80585000Y-71180000D02*
X80645000Y-71120000D01*
X81760000Y-81200000D02*
X80585000Y-80025000D01*
X99568000Y-116332000D02*
X99568000Y-81661000D01*
X99568000Y-81661000D02*
X99568000Y-81153000D01*
X80645000Y-71120000D02*
X80585000Y-71060000D01*
X118015000Y-71406000D02*
X117602000Y-70993000D01*
X80585000Y-80025000D02*
X80585000Y-71180000D01*
X118015000Y-72009000D02*
X118015000Y-71406000D01*
X99568000Y-81153000D02*
X99695000Y-81026000D01*
X127000000Y-91059000D02*
X127000000Y-76835000D01*
X98425000Y-74930000D02*
X98425000Y-73533000D01*
X123825000Y-94234000D02*
X127000000Y-91059000D01*
X98425000Y-73533000D02*
X100203000Y-71755000D01*
X116609400Y-74699400D02*
X116459000Y-74549000D01*
X98425000Y-77470000D02*
X97282000Y-76327000D01*
X116609400Y-102314400D02*
X116609400Y-78359000D01*
X97282000Y-76327000D02*
X97282000Y-72517000D01*
X118015000Y-103720000D02*
X116609400Y-102314400D01*
X116609400Y-78359000D02*
X116609400Y-74699400D01*
X86840000Y-87023000D02*
X86741000Y-87122000D01*
X115316000Y-106101000D02*
X115316000Y-96393000D01*
X86840000Y-81200000D02*
X86840000Y-87023000D01*
X115316000Y-96393000D02*
X115316000Y-86233000D01*
X118015000Y-108800000D02*
X115316000Y-106101000D01*
X81760000Y-70584000D02*
X80391000Y-69215000D01*
X102108000Y-116332000D02*
X102108000Y-81788000D01*
X81760000Y-72263000D02*
X81760000Y-70584000D01*
X133985000Y-83312000D02*
X133985000Y-87750000D01*
X133985000Y-87750000D02*
X133664000Y-88071000D01*
X133985000Y-75850000D02*
X135315000Y-74520000D01*
X81760000Y-78660000D02*
X81760000Y-72263000D01*
X123095000Y-98640000D02*
X133664000Y-88071000D01*
X133985000Y-83312000D02*
X133985000Y-75850000D01*
X102108000Y-81788000D02*
X102108000Y-68834000D01*
X136490000Y-87785000D02*
X136490000Y-78235000D01*
X79220000Y-81200000D02*
X78045000Y-80025000D01*
X123095000Y-101180000D02*
X136490000Y-87785000D01*
X78045000Y-80025000D02*
X78045000Y-70164000D01*
X136490000Y-78235000D02*
X135315000Y-77060000D01*
X78045000Y-70164000D02*
X78359000Y-69850000D01*
X123095000Y-106260000D02*
X138049000Y-91306000D01*
X84300000Y-78660000D02*
X84408000Y-78660000D01*
X84408000Y-78660000D02*
X84836000Y-78232000D01*
X104648000Y-80391000D02*
X104648000Y-79248000D01*
X96139000Y-77724000D02*
X96139000Y-72009000D01*
X138049000Y-91306000D02*
X138049000Y-81915000D01*
X98425000Y-80010000D02*
X96139000Y-77724000D01*
X104648000Y-80391000D02*
X104648000Y-79375000D01*
X104648000Y-116332000D02*
X104648000Y-80391000D01*
X84836000Y-78232000D02*
X84836000Y-72009000D01*
X104648000Y-79375000D02*
X104521000Y-79248000D01*
X83820000Y-76962000D02*
X83820000Y-73660000D01*
X83820000Y-73660000D02*
X84201000Y-73279000D01*
X139827000Y-92068000D02*
X139827000Y-85344000D01*
X123095000Y-108800000D02*
X139827000Y-92068000D01*
X139827000Y-85344000D02*
X139827000Y-84455000D01*
X112481000Y-55732701D02*
X112481000Y-54759299D01*
X134366000Y-57277000D02*
X135255000Y-56388000D01*
X119911000Y-57046000D02*
X120142000Y-57277000D01*
X119911000Y-54602000D02*
X119911000Y-57046000D01*
X133096000Y-57277000D02*
X134366000Y-57277000D01*
X119380000Y-54071000D02*
X119911000Y-54602000D01*
X117348000Y-68072000D02*
X117348000Y-60599701D01*
X113169299Y-54071000D02*
X119380000Y-54071000D01*
X133096000Y-57277000D02*
X120142000Y-57277000D01*
X117348000Y-60599701D02*
X112481000Y-55732701D01*
X112481000Y-54759299D02*
X113169299Y-54071000D01*
X86857903Y-75681903D02*
X86868000Y-75692000D01*
X86840000Y-78660000D02*
X86857903Y-75057000D01*
X96393000Y-83058000D02*
X98425000Y-85090000D01*
X137599000Y-91119604D02*
X137599000Y-83751000D01*
X96393000Y-81026000D02*
X96393000Y-83058000D01*
X86840000Y-78660000D02*
X86840000Y-75720000D01*
X125213604Y-103505000D02*
X137599000Y-91119604D01*
X86840000Y-75720000D02*
X86868000Y-75692000D01*
X86857903Y-75057000D02*
X86857903Y-75681903D01*
X137599000Y-83751000D02*
X137287000Y-83439000D01*
X124841000Y-103505000D02*
X125213604Y-103505000D01*
X86857903Y-75057000D02*
X86868000Y-73025000D01*
X140452000Y-92079396D02*
X140462000Y-78486000D01*
X130810000Y-102362000D02*
X130810000Y-101721396D01*
X130810000Y-101721396D02*
X140452000Y-92079396D01*
X94234000Y-71374000D02*
X94234000Y-113538000D01*
X94234000Y-113538000D02*
X97028000Y-116332000D01*
X140462000Y-78486000D02*
X140452000Y-78603000D01*
X131600000Y-76965000D02*
X131600000Y-85316000D01*
X79220000Y-71021000D02*
X79375000Y-70866000D01*
X131445000Y-87757000D02*
X123444000Y-95758000D01*
X131600000Y-85316000D02*
X131445000Y-85471000D01*
X79220000Y-78660000D02*
X79220000Y-71882000D01*
X79220000Y-71882000D02*
X79220000Y-71219000D01*
X79220000Y-71882000D02*
X79220000Y-71021000D01*
X132775000Y-75790000D02*
X131600000Y-76965000D01*
X131445000Y-85471000D02*
X131445000Y-87757000D01*
G04 #@! TA.AperFunction,Conductor*
G36*
X55921155Y-116118799D02*
G01*
X55880000Y-116258961D01*
X55880000Y-116405039D01*
X55921155Y-116545201D01*
X55944804Y-116582000D01*
X54291196Y-116582000D01*
X54314845Y-116545201D01*
X54356000Y-116405039D01*
X54356000Y-116258961D01*
X54314845Y-116118799D01*
X54291196Y-116082000D01*
X55944804Y-116082000D01*
X55921155Y-116118799D01*
G37*
G04 #@! TD.AperFunction*
G04 #@! TA.AperFunction,Conductor*
G36*
X112518000Y-69412735D02*
G01*
X112603891Y-69398404D01*
X112658836Y-69379541D01*
X112728635Y-69376391D01*
X112789056Y-69411476D01*
X112820917Y-69473659D01*
X112823100Y-69496822D01*
X112823100Y-115310228D01*
X112803415Y-115377267D01*
X112790330Y-115394210D01*
X112705512Y-115486347D01*
X112625809Y-115608343D01*
X112572662Y-115653699D01*
X112503431Y-115663123D01*
X112440095Y-115633621D01*
X112418191Y-115608343D01*
X112388679Y-115563172D01*
X112338490Y-115486351D01*
X112184483Y-115319054D01*
X112184478Y-115319050D01*
X112184475Y-115319047D01*
X112005047Y-115179393D01*
X112005032Y-115179383D01*
X111805065Y-115071166D01*
X111805059Y-115071163D01*
X111805055Y-115071161D01*
X111805052Y-115071160D01*
X111805050Y-115071159D01*
X111633837Y-115012381D01*
X111576821Y-114971995D01*
X111550691Y-114907196D01*
X111550100Y-114895100D01*
X111550100Y-69440933D01*
X111569785Y-69373894D01*
X111622589Y-69328139D01*
X111691747Y-69318195D01*
X111714363Y-69323652D01*
X111932106Y-69398403D01*
X112018000Y-69412736D01*
X112018000Y-68516297D01*
X112123408Y-68564435D01*
X112231666Y-68580000D01*
X112304334Y-68580000D01*
X112412592Y-68564435D01*
X112518000Y-68516297D01*
X112518000Y-69412735D01*
G37*
G04 #@! TD.AperFunction*
G04 #@! TA.AperFunction,Conductor*
G36*
X116152541Y-102758632D02*
G01*
X116180321Y-102781614D01*
X116184643Y-102785547D01*
X116665936Y-103266840D01*
X116699421Y-103328163D01*
X116698461Y-103384960D01*
X116670435Y-103495633D01*
X116651844Y-103719994D01*
X116651844Y-103720005D01*
X116670434Y-103944359D01*
X116670436Y-103944371D01*
X116725703Y-104162614D01*
X116816140Y-104368792D01*
X116939276Y-104557265D01*
X116939284Y-104557276D01*
X117071221Y-104700595D01*
X117091760Y-104722906D01*
X117269424Y-104861189D01*
X117312695Y-104884606D01*
X117362286Y-104933825D01*
X117377394Y-105002042D01*
X117353224Y-105067597D01*
X117324802Y-105095236D01*
X117143922Y-105221890D01*
X117143920Y-105221891D01*
X116976891Y-105388920D01*
X116976886Y-105388926D01*
X116841400Y-105582420D01*
X116841399Y-105582422D01*
X116741570Y-105796507D01*
X116741567Y-105796513D01*
X116684364Y-106009999D01*
X116684364Y-106010000D01*
X117581314Y-106010000D01*
X117555507Y-106050156D01*
X117515000Y-106188111D01*
X117515000Y-106331889D01*
X117555507Y-106469844D01*
X117581314Y-106510000D01*
X116672267Y-106510000D01*
X116605228Y-106490315D01*
X116584586Y-106473681D01*
X115985819Y-105874914D01*
X115952334Y-105813591D01*
X115949500Y-105787233D01*
X115949500Y-102854175D01*
X115969185Y-102787136D01*
X116021989Y-102741381D01*
X116091147Y-102731437D01*
X116152541Y-102758632D01*
G37*
G04 #@! TD.AperFunction*
G04 #@! TA.AperFunction,Conductor*
G36*
X137867905Y-55919515D02*
G01*
X137889804Y-55944787D01*
X137980278Y-56083268D01*
X137980283Y-56083273D01*
X137980284Y-56083276D01*
X138132756Y-56248902D01*
X138132761Y-56248907D01*
X138181146Y-56286567D01*
X138310424Y-56387189D01*
X138310425Y-56387189D01*
X138310427Y-56387191D01*
X138421171Y-56447122D01*
X138508426Y-56494342D01*
X138721365Y-56567444D01*
X138943431Y-56604500D01*
X139168569Y-56604500D01*
X139390635Y-56567444D01*
X139603574Y-56494342D01*
X139801576Y-56387189D01*
X139867950Y-56335526D01*
X139932943Y-56309884D01*
X140001484Y-56323450D01*
X140031794Y-56345699D01*
X140417181Y-56731085D01*
X140450666Y-56792408D01*
X140453500Y-56818766D01*
X140453500Y-77562528D01*
X140433815Y-77629567D01*
X140381011Y-77675322D01*
X140343384Y-77685748D01*
X140280958Y-77692781D01*
X140108983Y-77752957D01*
X139954718Y-77849889D01*
X139825889Y-77978718D01*
X139728958Y-78132982D01*
X139668782Y-78304953D01*
X139668781Y-78304958D01*
X139648384Y-78485996D01*
X139648384Y-78486003D01*
X139668781Y-78667041D01*
X139668782Y-78667046D01*
X139728958Y-78839017D01*
X139809090Y-78966546D01*
X139828096Y-79032609D01*
X139824788Y-83530910D01*
X139805054Y-83597935D01*
X139752216Y-83643651D01*
X139714672Y-83654039D01*
X139645956Y-83661781D01*
X139473982Y-83721958D01*
X139319718Y-83818889D01*
X139190889Y-83947718D01*
X139093958Y-84101982D01*
X139033782Y-84273953D01*
X139033781Y-84273958D01*
X139013384Y-84454996D01*
X139013384Y-84455003D01*
X139033781Y-84636041D01*
X139033782Y-84636046D01*
X139093958Y-84808019D01*
X139093960Y-84808022D01*
X139174493Y-84936188D01*
X139193500Y-85002160D01*
X139193500Y-91754232D01*
X139173815Y-91821271D01*
X139157181Y-91841913D01*
X124668819Y-106330274D01*
X124607496Y-106363759D01*
X124537804Y-106358775D01*
X124481871Y-106316903D01*
X124457562Y-106252833D01*
X124454884Y-106220520D01*
X124448283Y-106140856D01*
X124439565Y-106035639D01*
X124439563Y-106035628D01*
X124411538Y-105924960D01*
X124414163Y-105855140D01*
X124444061Y-105806841D01*
X138437815Y-91813087D01*
X138450180Y-91803183D01*
X138450006Y-91802973D01*
X138456012Y-91798003D01*
X138456018Y-91798000D01*
X138503999Y-91746904D01*
X138525135Y-91725769D01*
X138529458Y-91720195D01*
X138533257Y-91715747D01*
X138565585Y-91681322D01*
X138575420Y-91663432D01*
X138586098Y-91647174D01*
X138598614Y-91631040D01*
X138617374Y-91587686D01*
X138619935Y-91582458D01*
X138642695Y-91541060D01*
X138647774Y-91521274D01*
X138654072Y-91502882D01*
X138662181Y-91484145D01*
X138669569Y-91437497D01*
X138670751Y-91431786D01*
X138682500Y-91386030D01*
X138682500Y-91365615D01*
X138684027Y-91346214D01*
X138685011Y-91340002D01*
X138687220Y-91326057D01*
X138682775Y-91279033D01*
X138682500Y-91273195D01*
X138682500Y-82462160D01*
X138701507Y-82396188D01*
X138782039Y-82268022D01*
X138782041Y-82268019D01*
X138782041Y-82268017D01*
X138782043Y-82268015D01*
X138842217Y-82096047D01*
X138847150Y-82052267D01*
X138862616Y-81915003D01*
X138862616Y-81914996D01*
X138842218Y-81733958D01*
X138842217Y-81733953D01*
X138829354Y-81697193D01*
X138782043Y-81561985D01*
X138685111Y-81407719D01*
X138556281Y-81278889D01*
X138540425Y-81268926D01*
X138402017Y-81181958D01*
X138402016Y-81181957D01*
X138402015Y-81181957D01*
X138303611Y-81147524D01*
X138230046Y-81121782D01*
X138230041Y-81121781D01*
X138049004Y-81101384D01*
X138048996Y-81101384D01*
X137867958Y-81121781D01*
X137867953Y-81121782D01*
X137695982Y-81181958D01*
X137541718Y-81278889D01*
X137412887Y-81407720D01*
X137352493Y-81503837D01*
X137300158Y-81550127D01*
X137231105Y-81560775D01*
X137167257Y-81532400D01*
X137128885Y-81474010D01*
X137123500Y-81437864D01*
X137123500Y-78318631D01*
X137125239Y-78302879D01*
X137124968Y-78302854D01*
X137125700Y-78295098D01*
X137125702Y-78295091D01*
X137123500Y-78225028D01*
X137123500Y-78195144D01*
X137122614Y-78188141D01*
X137122157Y-78182322D01*
X137120674Y-78135111D01*
X137114976Y-78115499D01*
X137111033Y-78096466D01*
X137108474Y-78076203D01*
X137091085Y-78032286D01*
X137089196Y-78026766D01*
X137076018Y-77981407D01*
X137065626Y-77963835D01*
X137057066Y-77946362D01*
X137049552Y-77927383D01*
X137021794Y-77889179D01*
X137018587Y-77884296D01*
X137007398Y-77865377D01*
X136994542Y-77843638D01*
X136980108Y-77829204D01*
X136967471Y-77814409D01*
X136955472Y-77797893D01*
X136955470Y-77797890D01*
X136919073Y-77767781D01*
X136914751Y-77763847D01*
X136664063Y-77513159D01*
X136630578Y-77451836D01*
X136631539Y-77395037D01*
X136659561Y-77284380D01*
X136659563Y-77284371D01*
X136659564Y-77284368D01*
X136663082Y-77241913D01*
X136678156Y-77060005D01*
X136678156Y-77059994D01*
X136659565Y-76835640D01*
X136659563Y-76835628D01*
X136613558Y-76653958D01*
X136604296Y-76617384D01*
X136513860Y-76411209D01*
X136500250Y-76390378D01*
X136416063Y-76261519D01*
X136390722Y-76222732D01*
X136390719Y-76222729D01*
X136390715Y-76222723D01*
X136238243Y-76057097D01*
X136238238Y-76057092D01*
X136060577Y-75918812D01*
X136060578Y-75918812D01*
X136060576Y-75918811D01*
X136024070Y-75899055D01*
X135974479Y-75849836D01*
X135959371Y-75781619D01*
X135983541Y-75716064D01*
X136024070Y-75680945D01*
X136024084Y-75680936D01*
X136060576Y-75661189D01*
X136238240Y-75522906D01*
X136390722Y-75357268D01*
X136513860Y-75168791D01*
X136604296Y-74962616D01*
X136659564Y-74744368D01*
X136660751Y-74730041D01*
X136678156Y-74520005D01*
X136678156Y-74519994D01*
X136659565Y-74295640D01*
X136659563Y-74295628D01*
X136632771Y-74189828D01*
X136604296Y-74077384D01*
X136513860Y-73871209D01*
X136500250Y-73850378D01*
X136445606Y-73766739D01*
X136390722Y-73682732D01*
X136390719Y-73682729D01*
X136390715Y-73682723D01*
X136238243Y-73517097D01*
X136238238Y-73517092D01*
X136060577Y-73378812D01*
X136060572Y-73378808D01*
X135862580Y-73271661D01*
X135862577Y-73271659D01*
X135862574Y-73271658D01*
X135862571Y-73271657D01*
X135862569Y-73271656D01*
X135649637Y-73198556D01*
X135427569Y-73161500D01*
X135202431Y-73161500D01*
X134980362Y-73198556D01*
X134767430Y-73271656D01*
X134767419Y-73271661D01*
X134569427Y-73378808D01*
X134569422Y-73378812D01*
X134391761Y-73517092D01*
X134391756Y-73517097D01*
X134239284Y-73682723D01*
X134239276Y-73682734D01*
X134116140Y-73871207D01*
X134025703Y-74077385D01*
X133970436Y-74295628D01*
X133970434Y-74295640D01*
X133951844Y-74519994D01*
X133951844Y-74520005D01*
X133970435Y-74744369D01*
X133970854Y-74746877D01*
X133970729Y-74747910D01*
X133970859Y-74749479D01*
X133970536Y-74749505D01*
X133962471Y-74816241D01*
X133917917Y-74870062D01*
X133851337Y-74891252D01*
X133783872Y-74873082D01*
X133757316Y-74851267D01*
X133743155Y-74835884D01*
X133698240Y-74787094D01*
X133698237Y-74787092D01*
X133698238Y-74787092D01*
X133520577Y-74648812D01*
X133520572Y-74648808D01*
X133322580Y-74541661D01*
X133322577Y-74541659D01*
X133322574Y-74541658D01*
X133322571Y-74541657D01*
X133322569Y-74541656D01*
X133109637Y-74468556D01*
X132887569Y-74431500D01*
X132662431Y-74431500D01*
X132440362Y-74468556D01*
X132227430Y-74541656D01*
X132227419Y-74541661D01*
X132029427Y-74648808D01*
X132029422Y-74648812D01*
X131851761Y-74787092D01*
X131792684Y-74851267D01*
X131732797Y-74887257D01*
X131662959Y-74885156D01*
X131605343Y-74845631D01*
X131578242Y-74781232D01*
X131579146Y-74746877D01*
X131579564Y-74744369D01*
X131598156Y-74520005D01*
X131598156Y-74519994D01*
X131579565Y-74295640D01*
X131579563Y-74295628D01*
X131552771Y-74189828D01*
X131524296Y-74077384D01*
X131433860Y-73871209D01*
X131420250Y-73850378D01*
X131365606Y-73766739D01*
X131310722Y-73682732D01*
X131310719Y-73682729D01*
X131310715Y-73682723D01*
X131158243Y-73517097D01*
X131158238Y-73517092D01*
X130980577Y-73378812D01*
X130980572Y-73378808D01*
X130782580Y-73271661D01*
X130782577Y-73271659D01*
X130782574Y-73271658D01*
X130782571Y-73271657D01*
X130782569Y-73271656D01*
X130569637Y-73198556D01*
X130347569Y-73161500D01*
X130122431Y-73161500D01*
X129900362Y-73198556D01*
X129687430Y-73271656D01*
X129687419Y-73271661D01*
X129489427Y-73378808D01*
X129489422Y-73378812D01*
X129311761Y-73517092D01*
X129311756Y-73517097D01*
X129159284Y-73682723D01*
X129159276Y-73682734D01*
X129036140Y-73871207D01*
X128945703Y-74077385D01*
X128890436Y-74295628D01*
X128890434Y-74295640D01*
X128871844Y-74519994D01*
X128871844Y-74520005D01*
X128890434Y-74744359D01*
X128890436Y-74744371D01*
X128945703Y-74962614D01*
X129036140Y-75168792D01*
X129159276Y-75357265D01*
X129159284Y-75357276D01*
X129311756Y-75522902D01*
X129311760Y-75522906D01*
X129489424Y-75661189D01*
X129489429Y-75661191D01*
X129489431Y-75661193D01*
X129525930Y-75680946D01*
X129575520Y-75730165D01*
X129590628Y-75798382D01*
X129566457Y-75863937D01*
X129525930Y-75899054D01*
X129489431Y-75918806D01*
X129489422Y-75918812D01*
X129311761Y-76057092D01*
X129311756Y-76057097D01*
X129159284Y-76222723D01*
X129159276Y-76222734D01*
X129036140Y-76411207D01*
X128945703Y-76617385D01*
X128890436Y-76835628D01*
X128890434Y-76835640D01*
X128871844Y-77059994D01*
X128871844Y-77060005D01*
X128890434Y-77284359D01*
X128890436Y-77284371D01*
X128945703Y-77502614D01*
X129036140Y-77708792D01*
X129159276Y-77897265D01*
X129159284Y-77897276D01*
X129311756Y-78062902D01*
X129311761Y-78062907D01*
X129328844Y-78076203D01*
X129489424Y-78201189D01*
X129489429Y-78201191D01*
X129489431Y-78201193D01*
X129525930Y-78220946D01*
X129575520Y-78270165D01*
X129590628Y-78338382D01*
X129566457Y-78403937D01*
X129525930Y-78439054D01*
X129489431Y-78458806D01*
X129489422Y-78458812D01*
X129311761Y-78597092D01*
X129311756Y-78597097D01*
X129159284Y-78762723D01*
X129159276Y-78762734D01*
X129036140Y-78951207D01*
X128945703Y-79157385D01*
X128890436Y-79375628D01*
X128890434Y-79375640D01*
X128871844Y-79599994D01*
X128871844Y-79600005D01*
X128890434Y-79824359D01*
X128890436Y-79824371D01*
X128945703Y-80042614D01*
X129036140Y-80248792D01*
X129159276Y-80437265D01*
X129159284Y-80437276D01*
X129311756Y-80602902D01*
X129311761Y-80602907D01*
X129370981Y-80649000D01*
X129489424Y-80741189D01*
X129532695Y-80764606D01*
X129582286Y-80813825D01*
X129597394Y-80882042D01*
X129573224Y-80947597D01*
X129544802Y-80975236D01*
X129363922Y-81101890D01*
X129363920Y-81101891D01*
X129196891Y-81268920D01*
X129196886Y-81268926D01*
X129061400Y-81462420D01*
X129061399Y-81462422D01*
X128961570Y-81676507D01*
X128961567Y-81676513D01*
X128904364Y-81889999D01*
X128904364Y-81890000D01*
X129801314Y-81890000D01*
X129775507Y-81930156D01*
X129735000Y-82068111D01*
X129735000Y-82211889D01*
X129775507Y-82349844D01*
X129801314Y-82390000D01*
X128904364Y-82390000D01*
X128961567Y-82603486D01*
X128961570Y-82603492D01*
X129061399Y-82817578D01*
X129196894Y-83011082D01*
X129363917Y-83178105D01*
X129544802Y-83304763D01*
X129588427Y-83359340D01*
X129595619Y-83428839D01*
X129564097Y-83491193D01*
X129532697Y-83515392D01*
X129489427Y-83538809D01*
X129489422Y-83538812D01*
X129311761Y-83677092D01*
X129311756Y-83677097D01*
X129159284Y-83842723D01*
X129159276Y-83842734D01*
X129036140Y-84031207D01*
X128945703Y-84237385D01*
X128890436Y-84455628D01*
X128890434Y-84455640D01*
X128871844Y-84679994D01*
X128871844Y-84680005D01*
X128890434Y-84904359D01*
X128890436Y-84904371D01*
X128945703Y-85122614D01*
X129036140Y-85328792D01*
X129159276Y-85517265D01*
X129159284Y-85517276D01*
X129311228Y-85682328D01*
X129311760Y-85682906D01*
X129489424Y-85821189D01*
X129489425Y-85821189D01*
X129489427Y-85821191D01*
X129598070Y-85879985D01*
X129687426Y-85928342D01*
X129900365Y-86001444D01*
X130122431Y-86038500D01*
X130347569Y-86038500D01*
X130569635Y-86001444D01*
X130569638Y-86001443D01*
X130647237Y-85974802D01*
X130717035Y-85971653D01*
X130777456Y-86006738D01*
X130809317Y-86068921D01*
X130811500Y-86092084D01*
X130811500Y-87443233D01*
X130791815Y-87510272D01*
X130775181Y-87530914D01*
X127845181Y-90460914D01*
X127783858Y-90494399D01*
X127714166Y-90489415D01*
X127658233Y-90447543D01*
X127633816Y-90382079D01*
X127633500Y-90373233D01*
X127633500Y-77382160D01*
X127652507Y-77316188D01*
X127733039Y-77188022D01*
X127733041Y-77188019D01*
X127733041Y-77188017D01*
X127733043Y-77188015D01*
X127793217Y-77016047D01*
X127798150Y-76972267D01*
X127813616Y-76835003D01*
X127813616Y-76834996D01*
X127793218Y-76653958D01*
X127793217Y-76653953D01*
X127780421Y-76617384D01*
X127733043Y-76481985D01*
X127636111Y-76327719D01*
X127507281Y-76198889D01*
X127396211Y-76129099D01*
X127353017Y-76101958D01*
X127353016Y-76101957D01*
X127353015Y-76101957D01*
X127298630Y-76082927D01*
X127181046Y-76041782D01*
X127181041Y-76041781D01*
X127000004Y-76021384D01*
X126999996Y-76021384D01*
X126818958Y-76041781D01*
X126818953Y-76041782D01*
X126646982Y-76101958D01*
X126492718Y-76198889D01*
X126363889Y-76327718D01*
X126266958Y-76481982D01*
X126206782Y-76653953D01*
X126206781Y-76653958D01*
X126186384Y-76834996D01*
X126186384Y-76835003D01*
X126206781Y-77016041D01*
X126206782Y-77016046D01*
X126266958Y-77188019D01*
X126266960Y-77188022D01*
X126347493Y-77316188D01*
X126366500Y-77382160D01*
X126366500Y-90745232D01*
X126346815Y-90812271D01*
X126330181Y-90832913D01*
X123762942Y-93400151D01*
X123701619Y-93433636D01*
X123689148Y-93435690D01*
X123643953Y-93440783D01*
X123471983Y-93500957D01*
X123317718Y-93597889D01*
X123188889Y-93726718D01*
X123091958Y-93880982D01*
X123031782Y-94052953D01*
X123031781Y-94052958D01*
X123011384Y-94233996D01*
X123011384Y-94234003D01*
X123031781Y-94415041D01*
X123031782Y-94415046D01*
X123072949Y-94532693D01*
X123084016Y-94564322D01*
X123091958Y-94587017D01*
X123188889Y-94741281D01*
X123234110Y-94786502D01*
X123267595Y-94847825D01*
X123262611Y-94917517D01*
X123220739Y-94973450D01*
X123187385Y-94991224D01*
X123090985Y-95024956D01*
X123090984Y-95024956D01*
X122936718Y-95121889D01*
X122807889Y-95250718D01*
X122710958Y-95404982D01*
X122650782Y-95576953D01*
X122650781Y-95576958D01*
X122630384Y-95757996D01*
X122630384Y-95758003D01*
X122650781Y-95939041D01*
X122650782Y-95939046D01*
X122676308Y-96011994D01*
X122710957Y-96111015D01*
X122807889Y-96265281D01*
X122936719Y-96394111D01*
X123090985Y-96491043D01*
X123262953Y-96551217D01*
X123262958Y-96551218D01*
X123443996Y-96571616D01*
X123444000Y-96571616D01*
X123444004Y-96571616D01*
X123625041Y-96551218D01*
X123625044Y-96551217D01*
X123625047Y-96551217D01*
X123797015Y-96491043D01*
X123951281Y-96394111D01*
X124080111Y-96265281D01*
X124177043Y-96111015D01*
X124237217Y-95939047D01*
X124242309Y-95893851D01*
X124269374Y-95829439D01*
X124277838Y-95820064D01*
X131833815Y-88264087D01*
X131846180Y-88254183D01*
X131846006Y-88253973D01*
X131852012Y-88249003D01*
X131852018Y-88249000D01*
X131899999Y-88197904D01*
X131921135Y-88176769D01*
X131925458Y-88171195D01*
X131929257Y-88166747D01*
X131935830Y-88159747D01*
X131961586Y-88132321D01*
X131971420Y-88114429D01*
X131982103Y-88098167D01*
X131994614Y-88082041D01*
X132013371Y-88038691D01*
X132015941Y-88033447D01*
X132038693Y-87992064D01*
X132038693Y-87992063D01*
X132038695Y-87992060D01*
X132043774Y-87972273D01*
X132050070Y-87953885D01*
X132058181Y-87935145D01*
X132065569Y-87888497D01*
X132066751Y-87882786D01*
X132078500Y-87837030D01*
X132078500Y-87816615D01*
X132080027Y-87797214D01*
X132083220Y-87777057D01*
X132078775Y-87730033D01*
X132078500Y-87724195D01*
X132078500Y-86785254D01*
X132098185Y-86718215D01*
X132150989Y-86672460D01*
X132220147Y-86662516D01*
X132283703Y-86691541D01*
X132290181Y-86697573D01*
X132334719Y-86742111D01*
X132488985Y-86839043D01*
X132660947Y-86899215D01*
X132660953Y-86899217D01*
X132660958Y-86899218D01*
X132841996Y-86919616D01*
X132842000Y-86919616D01*
X132842004Y-86919616D01*
X133023041Y-86899218D01*
X133023043Y-86899217D01*
X133023047Y-86899217D01*
X133023050Y-86899215D01*
X133023054Y-86899215D01*
X133186545Y-86842007D01*
X133256324Y-86838445D01*
X133316951Y-86873173D01*
X133349179Y-86935167D01*
X133351500Y-86959048D01*
X133351500Y-87436233D01*
X133331815Y-87503272D01*
X133315181Y-87523914D01*
X133187861Y-87651234D01*
X123551990Y-97287103D01*
X123490667Y-97320588D01*
X123433872Y-97319628D01*
X123429642Y-97318557D01*
X123207569Y-97281500D01*
X122982431Y-97281500D01*
X122760362Y-97318556D01*
X122547430Y-97391656D01*
X122547415Y-97391662D01*
X122546508Y-97392154D01*
X122546094Y-97392242D01*
X122542723Y-97393721D01*
X122542418Y-97393027D01*
X122478178Y-97406743D01*
X122412808Y-97382075D01*
X122371152Y-97325980D01*
X122363500Y-97283094D01*
X122363500Y-69568100D01*
X122383185Y-69501061D01*
X122435989Y-69455306D01*
X122487500Y-69444100D01*
X122541694Y-69444100D01*
X122541695Y-69444100D01*
X122765985Y-69406672D01*
X122981055Y-69332839D01*
X123181039Y-69224612D01*
X123187501Y-69219583D01*
X123298600Y-69133111D01*
X123360483Y-69084946D01*
X123514490Y-68917649D01*
X123638861Y-68727285D01*
X123730203Y-68519047D01*
X123786024Y-68298614D01*
X123798750Y-68145039D01*
X123804802Y-68072005D01*
X123804802Y-68071994D01*
X123787135Y-67858799D01*
X123786024Y-67845386D01*
X123730203Y-67624953D01*
X123638861Y-67416715D01*
X123514490Y-67226351D01*
X123360483Y-67059054D01*
X123360478Y-67059050D01*
X123360475Y-67059047D01*
X123181047Y-66919393D01*
X123181032Y-66919383D01*
X122981065Y-66811166D01*
X122981051Y-66811159D01*
X122765987Y-66737328D01*
X122608015Y-66710967D01*
X122541695Y-66699900D01*
X122314305Y-66699900D01*
X122295333Y-66703066D01*
X122090015Y-66737327D01*
X122037162Y-66755472D01*
X121967363Y-66758621D01*
X121906942Y-66723534D01*
X121875082Y-66661351D01*
X121872900Y-66638190D01*
X121872900Y-60373032D01*
X121874639Y-60357280D01*
X121874368Y-60357255D01*
X121875100Y-60349499D01*
X121875102Y-60349492D01*
X121872900Y-60279428D01*
X121872900Y-60249544D01*
X121872014Y-60242541D01*
X121871557Y-60236722D01*
X121870074Y-60189513D01*
X121870074Y-60189511D01*
X121864374Y-60169892D01*
X121860431Y-60150846D01*
X121857874Y-60130604D01*
X121857874Y-60130603D01*
X121840481Y-60086674D01*
X121838604Y-60081192D01*
X121825419Y-60035807D01*
X121815020Y-60018224D01*
X121806466Y-60000763D01*
X121798952Y-59981783D01*
X121796504Y-59978414D01*
X121771195Y-59943579D01*
X121767986Y-59938694D01*
X121743944Y-59898041D01*
X121743943Y-59898040D01*
X121743942Y-59898038D01*
X121729508Y-59883604D01*
X121716871Y-59868809D01*
X121704872Y-59852293D01*
X121704870Y-59852290D01*
X121668473Y-59822181D01*
X121664151Y-59818247D01*
X119968085Y-58122181D01*
X119934600Y-58060858D01*
X119939584Y-57991166D01*
X119981456Y-57935233D01*
X120046920Y-57910816D01*
X120055766Y-57910500D01*
X120061970Y-57910500D01*
X120082390Y-57910500D01*
X120101789Y-57912027D01*
X120121941Y-57915218D01*
X120121942Y-57915219D01*
X120121942Y-57915218D01*
X120121943Y-57915219D01*
X120168959Y-57910775D01*
X120174796Y-57910500D01*
X133015970Y-57910500D01*
X134282366Y-57910500D01*
X134298113Y-57912238D01*
X134298139Y-57911968D01*
X134305905Y-57912701D01*
X134305909Y-57912702D01*
X134375958Y-57910500D01*
X134405856Y-57910500D01*
X134405857Y-57910500D01*
X134407222Y-57910327D01*
X134412862Y-57909614D01*
X134418685Y-57909156D01*
X134444708Y-57908338D01*
X134465890Y-57907673D01*
X134475681Y-57904827D01*
X134485481Y-57901980D01*
X134504538Y-57898032D01*
X134524797Y-57895474D01*
X134568721Y-57878082D01*
X134574221Y-57876199D01*
X134619593Y-57863018D01*
X134637165Y-57852625D01*
X134654632Y-57844068D01*
X134673617Y-57836552D01*
X134711826Y-57808790D01*
X134716704Y-57805585D01*
X134757362Y-57781542D01*
X134771802Y-57767100D01*
X134786592Y-57754470D01*
X134803107Y-57742472D01*
X134833222Y-57706067D01*
X134837126Y-57701776D01*
X135317057Y-57221846D01*
X135378378Y-57188363D01*
X135390835Y-57186311D01*
X135436047Y-57181217D01*
X135608015Y-57121043D01*
X135762281Y-57024111D01*
X135891111Y-56895281D01*
X135988043Y-56741015D01*
X136022283Y-56643159D01*
X136063005Y-56586385D01*
X136127957Y-56560637D01*
X136176325Y-56566444D01*
X136176391Y-56566185D01*
X136178396Y-56566692D01*
X136179596Y-56566836D01*
X136181365Y-56567444D01*
X136403431Y-56604500D01*
X136628569Y-56604500D01*
X136850635Y-56567444D01*
X137063574Y-56494342D01*
X137261576Y-56387189D01*
X137439240Y-56248906D01*
X137582512Y-56093273D01*
X137591715Y-56083276D01*
X137591715Y-56083275D01*
X137591722Y-56083268D01*
X137682193Y-55944790D01*
X137735338Y-55899437D01*
X137804569Y-55890013D01*
X137867905Y-55919515D01*
G37*
G04 #@! TD.AperFunction*
G04 #@! TA.AperFunction,Conductor*
G36*
X108984669Y-56568988D02*
G01*
X109032991Y-56598895D01*
X112786781Y-60352685D01*
X112820266Y-60414008D01*
X112823100Y-60440366D01*
X112823100Y-66647177D01*
X112803415Y-66714216D01*
X112750611Y-66759971D01*
X112681453Y-66769915D01*
X112658838Y-66764459D01*
X112603890Y-66745595D01*
X112518000Y-66731263D01*
X112518000Y-67627702D01*
X112412592Y-67579565D01*
X112304334Y-67564000D01*
X112231666Y-67564000D01*
X112123408Y-67579565D01*
X112018000Y-67627702D01*
X112018000Y-66731263D01*
X112017999Y-66731263D01*
X111932104Y-66745596D01*
X111714362Y-66820347D01*
X111644564Y-66823497D01*
X111584143Y-66788410D01*
X111552282Y-66726228D01*
X111550100Y-66703066D01*
X111550100Y-60210232D01*
X111551839Y-60194480D01*
X111551568Y-60194455D01*
X111552300Y-60186699D01*
X111552302Y-60186692D01*
X111550100Y-60116628D01*
X111550100Y-60086744D01*
X111549214Y-60079741D01*
X111548757Y-60073922D01*
X111547274Y-60026711D01*
X111541576Y-60007099D01*
X111537633Y-59988066D01*
X111535074Y-59967803D01*
X111517685Y-59923886D01*
X111515796Y-59918366D01*
X111502618Y-59873007D01*
X111492226Y-59855435D01*
X111483666Y-59837962D01*
X111476152Y-59818983D01*
X111448394Y-59780779D01*
X111445187Y-59775896D01*
X111435473Y-59759471D01*
X111421142Y-59735238D01*
X111406708Y-59720804D01*
X111394071Y-59706009D01*
X111382072Y-59689493D01*
X111382070Y-59689490D01*
X111345673Y-59659381D01*
X111341351Y-59655447D01*
X108502085Y-56816181D01*
X108468600Y-56754858D01*
X108473584Y-56685166D01*
X108515456Y-56629233D01*
X108580920Y-56604816D01*
X108589766Y-56604500D01*
X108688569Y-56604500D01*
X108910630Y-56567445D01*
X108910631Y-56567444D01*
X108910635Y-56567444D01*
X108910637Y-56567442D01*
X108914849Y-56566376D01*
X108984669Y-56568988D01*
G37*
G04 #@! TD.AperFunction*
G04 #@! TA.AperFunction,Conductor*
G36*
X122730507Y-44240156D02*
G01*
X122690000Y-44378111D01*
X122690000Y-44521889D01*
X122730507Y-44659844D01*
X122756314Y-44700000D01*
X121083686Y-44700000D01*
X121109493Y-44659844D01*
X121150000Y-44521889D01*
X121150000Y-44378111D01*
X121109493Y-44240156D01*
X121083686Y-44200000D01*
X122756314Y-44200000D01*
X122730507Y-44240156D01*
G37*
G04 #@! TD.AperFunction*
G04 #@! TA.AperFunction,Conductor*
G36*
X156570018Y-41371633D02*
G01*
X156750641Y-41383470D01*
X156821674Y-41388126D01*
X156829707Y-41389184D01*
X157060471Y-41435085D01*
X157075046Y-41437985D01*
X157082889Y-41440086D01*
X157319769Y-41520496D01*
X157327243Y-41523592D01*
X157551607Y-41634236D01*
X157558631Y-41638293D01*
X157687083Y-41724121D01*
X157766621Y-41777267D01*
X157773049Y-41782199D01*
X157961123Y-41947135D01*
X157966862Y-41952874D01*
X158131798Y-42140948D01*
X158136736Y-42147383D01*
X158275706Y-42355368D01*
X158279766Y-42362398D01*
X158390401Y-42586743D01*
X158393508Y-42594244D01*
X158473913Y-42831111D01*
X158476014Y-42838953D01*
X158524813Y-43084279D01*
X158525873Y-43092328D01*
X158542367Y-43343981D01*
X158542500Y-43348037D01*
X158542500Y-127329159D01*
X158542467Y-127329499D01*
X158542500Y-127346001D01*
X158542500Y-127362932D01*
X158542534Y-127363274D01*
X158544201Y-128200246D01*
X158524650Y-128267325D01*
X158471937Y-128313185D01*
X158420197Y-128324493D01*
X45576285Y-128320500D01*
X45570706Y-128320500D01*
X45565305Y-128320264D01*
X45526783Y-128316893D01*
X45409589Y-128306640D01*
X45388303Y-128302887D01*
X45245175Y-128264536D01*
X45224870Y-128257146D01*
X45090573Y-128194522D01*
X45071866Y-128183721D01*
X44950485Y-128098728D01*
X44933928Y-128084835D01*
X44829164Y-127980071D01*
X44815271Y-127963514D01*
X44730278Y-127842133D01*
X44719479Y-127823430D01*
X44656851Y-127689123D01*
X44649463Y-127668824D01*
X44611112Y-127525696D01*
X44607359Y-127504409D01*
X44601349Y-127435720D01*
X44593735Y-127348695D01*
X44593500Y-127343293D01*
X44593500Y-124088654D01*
X47536500Y-124088654D01*
X47543011Y-124149202D01*
X47543011Y-124149204D01*
X47594111Y-124286204D01*
X47681739Y-124403261D01*
X47798796Y-124490889D01*
X47935799Y-124541989D01*
X47963050Y-124544918D01*
X47996345Y-124548499D01*
X47996362Y-124548500D01*
X49793638Y-124548500D01*
X49793654Y-124548499D01*
X49820692Y-124545591D01*
X49854201Y-124541989D01*
X49991204Y-124490889D01*
X50108261Y-124403261D01*
X50195889Y-124286204D01*
X50241138Y-124164887D01*
X50283009Y-124108956D01*
X50348474Y-124084539D01*
X50416746Y-124099391D01*
X50448545Y-124124236D01*
X50511760Y-124192906D01*
X50689424Y-124331189D01*
X50689425Y-124331189D01*
X50689427Y-124331191D01*
X50816135Y-124399761D01*
X50887426Y-124438342D01*
X51100365Y-124511444D01*
X51322431Y-124548500D01*
X51547569Y-124548500D01*
X51769635Y-124511444D01*
X51982574Y-124438342D01*
X52180576Y-124331189D01*
X52358240Y-124192906D01*
X52510722Y-124027268D01*
X52601193Y-123888790D01*
X52654338Y-123843437D01*
X52723569Y-123834013D01*
X52786905Y-123863515D01*
X52808804Y-123888787D01*
X52899278Y-124027268D01*
X52899283Y-124027273D01*
X52899284Y-124027276D01*
X53025968Y-124164889D01*
X53051760Y-124192906D01*
X53229424Y-124331189D01*
X53229425Y-124331189D01*
X53229427Y-124331191D01*
X53356135Y-124399761D01*
X53427426Y-124438342D01*
X53640365Y-124511444D01*
X53862431Y-124548500D01*
X54087569Y-124548500D01*
X54309635Y-124511444D01*
X54522574Y-124438342D01*
X54720576Y-124331189D01*
X54898240Y-124192906D01*
X55050722Y-124027268D01*
X55141193Y-123888790D01*
X55194338Y-123843437D01*
X55263569Y-123834013D01*
X55326905Y-123863515D01*
X55348804Y-123888787D01*
X55439278Y-124027268D01*
X55439283Y-124027273D01*
X55439284Y-124027276D01*
X55565968Y-124164889D01*
X55591760Y-124192906D01*
X55769424Y-124331189D01*
X55769425Y-124331189D01*
X55769427Y-124331191D01*
X55896135Y-124399761D01*
X55967426Y-124438342D01*
X56180365Y-124511444D01*
X56402431Y-124548500D01*
X56627569Y-124548500D01*
X56849635Y-124511444D01*
X57062574Y-124438342D01*
X57260576Y-124331189D01*
X57438240Y-124192906D01*
X57590722Y-124027268D01*
X57681193Y-123888790D01*
X57734338Y-123843437D01*
X57803569Y-123834013D01*
X57866905Y-123863515D01*
X57888804Y-123888787D01*
X57979278Y-124027268D01*
X57979283Y-124027273D01*
X57979284Y-124027276D01*
X58105968Y-124164889D01*
X58131760Y-124192906D01*
X58309424Y-124331189D01*
X58309425Y-124331189D01*
X58309427Y-124331191D01*
X58436135Y-124399761D01*
X58507426Y-124438342D01*
X58720365Y-124511444D01*
X58942431Y-124548500D01*
X59167569Y-124548500D01*
X59389635Y-124511444D01*
X59602574Y-124438342D01*
X59800576Y-124331189D01*
X59978240Y-124192906D01*
X60130722Y-124027268D01*
X60221193Y-123888790D01*
X60274338Y-123843437D01*
X60343569Y-123834013D01*
X60406905Y-123863515D01*
X60428804Y-123888787D01*
X60519278Y-124027268D01*
X60519283Y-124027273D01*
X60519284Y-124027276D01*
X60645968Y-124164889D01*
X60671760Y-124192906D01*
X60849424Y-124331189D01*
X60849425Y-124331189D01*
X60849427Y-124331191D01*
X60976135Y-124399761D01*
X61047426Y-124438342D01*
X61260365Y-124511444D01*
X61482431Y-124548500D01*
X61707569Y-124548500D01*
X61929635Y-124511444D01*
X62142574Y-124438342D01*
X62340576Y-124331189D01*
X62518240Y-124192906D01*
X62670722Y-124027268D01*
X62761193Y-123888790D01*
X62814338Y-123843437D01*
X62883569Y-123834013D01*
X62946905Y-123863515D01*
X62968804Y-123888787D01*
X63059278Y-124027268D01*
X63059283Y-124027273D01*
X63059284Y-124027276D01*
X63185968Y-124164889D01*
X63211760Y-124192906D01*
X63389424Y-124331189D01*
X63389425Y-124331189D01*
X63389427Y-124331191D01*
X63516135Y-124399761D01*
X63587426Y-124438342D01*
X63800365Y-124511444D01*
X64022431Y-124548500D01*
X64247569Y-124548500D01*
X64469635Y-124511444D01*
X64682574Y-124438342D01*
X64880576Y-124331189D01*
X65058240Y-124192906D01*
X65210722Y-124027268D01*
X65301193Y-123888790D01*
X65354338Y-123843437D01*
X65423569Y-123834013D01*
X65486905Y-123863515D01*
X65508804Y-123888787D01*
X65599278Y-124027268D01*
X65599283Y-124027273D01*
X65599284Y-124027276D01*
X65725968Y-124164889D01*
X65751760Y-124192906D01*
X65929424Y-124331189D01*
X65929425Y-124331189D01*
X65929427Y-124331191D01*
X66056135Y-124399761D01*
X66127426Y-124438342D01*
X66340365Y-124511444D01*
X66562431Y-124548500D01*
X66787569Y-124548500D01*
X67009635Y-124511444D01*
X67222574Y-124438342D01*
X67420576Y-124331189D01*
X67598240Y-124192906D01*
X67750722Y-124027268D01*
X67841193Y-123888790D01*
X67894338Y-123843437D01*
X67963569Y-123834013D01*
X68026905Y-123863515D01*
X68048804Y-123888787D01*
X68139278Y-124027268D01*
X68139283Y-124027273D01*
X68139284Y-124027276D01*
X68265968Y-124164889D01*
X68291760Y-124192906D01*
X68469424Y-124331189D01*
X68469425Y-124331189D01*
X68469427Y-124331191D01*
X68596135Y-124399761D01*
X68667426Y-124438342D01*
X68880365Y-124511444D01*
X69102431Y-124548500D01*
X69327569Y-124548500D01*
X69549635Y-124511444D01*
X69762574Y-124438342D01*
X69960576Y-124331189D01*
X70138240Y-124192906D01*
X70290722Y-124027268D01*
X70381193Y-123888790D01*
X70434338Y-123843437D01*
X70503569Y-123834013D01*
X70566905Y-123863515D01*
X70588804Y-123888787D01*
X70679278Y-124027268D01*
X70679283Y-124027273D01*
X70679284Y-124027276D01*
X70805968Y-124164889D01*
X70831760Y-124192906D01*
X71009424Y-124331189D01*
X71009425Y-124331189D01*
X71009427Y-124331191D01*
X71136135Y-124399761D01*
X71207426Y-124438342D01*
X71420365Y-124511444D01*
X71642431Y-124548500D01*
X71867569Y-124548500D01*
X72089635Y-124511444D01*
X72302574Y-124438342D01*
X72500576Y-124331189D01*
X72678240Y-124192906D01*
X72830722Y-124027268D01*
X72921193Y-123888790D01*
X72974338Y-123843437D01*
X73043569Y-123834013D01*
X73106905Y-123863515D01*
X73128804Y-123888787D01*
X73219278Y-124027268D01*
X73219283Y-124027273D01*
X73219284Y-124027276D01*
X73345968Y-124164889D01*
X73371760Y-124192906D01*
X73549424Y-124331189D01*
X73549425Y-124331189D01*
X73549427Y-124331191D01*
X73676135Y-124399761D01*
X73747426Y-124438342D01*
X73960365Y-124511444D01*
X74182431Y-124548500D01*
X74407569Y-124548500D01*
X74629635Y-124511444D01*
X74842574Y-124438342D01*
X75040576Y-124331189D01*
X75218240Y-124192906D01*
X75370722Y-124027268D01*
X75461193Y-123888790D01*
X75514338Y-123843437D01*
X75583569Y-123834013D01*
X75646905Y-123863515D01*
X75668804Y-123888787D01*
X75759278Y-124027268D01*
X75759283Y-124027273D01*
X75759284Y-124027276D01*
X75885968Y-124164889D01*
X75911760Y-124192906D01*
X76089424Y-124331189D01*
X76089425Y-124331189D01*
X76089427Y-124331191D01*
X76216135Y-124399761D01*
X76287426Y-124438342D01*
X76500365Y-124511444D01*
X76722431Y-124548500D01*
X76947569Y-124548500D01*
X77169635Y-124511444D01*
X77382574Y-124438342D01*
X77580576Y-124331189D01*
X77758240Y-124192906D01*
X77910722Y-124027268D01*
X78001193Y-123888790D01*
X78054338Y-123843437D01*
X78123569Y-123834013D01*
X78186905Y-123863515D01*
X78208804Y-123888787D01*
X78299278Y-124027268D01*
X78299283Y-124027273D01*
X78299284Y-124027276D01*
X78425968Y-124164889D01*
X78451760Y-124192906D01*
X78629424Y-124331189D01*
X78629425Y-124331189D01*
X78629427Y-124331191D01*
X78756135Y-124399761D01*
X78827426Y-124438342D01*
X79040365Y-124511444D01*
X79262431Y-124548500D01*
X79487569Y-124548500D01*
X79709635Y-124511444D01*
X79922574Y-124438342D01*
X80120576Y-124331189D01*
X80298240Y-124192906D01*
X80450722Y-124027268D01*
X80541193Y-123888790D01*
X80594338Y-123843437D01*
X80663569Y-123834013D01*
X80726905Y-123863515D01*
X80748804Y-123888787D01*
X80839278Y-124027268D01*
X80839283Y-124027273D01*
X80839284Y-124027276D01*
X80965968Y-124164889D01*
X80991760Y-124192906D01*
X81169424Y-124331189D01*
X81169425Y-124331189D01*
X81169427Y-124331191D01*
X81296135Y-124399761D01*
X81367426Y-124438342D01*
X81580365Y-124511444D01*
X81802431Y-124548500D01*
X82027569Y-124548500D01*
X82249635Y-124511444D01*
X82462574Y-124438342D01*
X82660576Y-124331189D01*
X82838240Y-124192906D01*
X82990722Y-124027268D01*
X83081193Y-123888790D01*
X83134338Y-123843437D01*
X83203569Y-123834013D01*
X83266905Y-123863515D01*
X83288804Y-123888787D01*
X83379278Y-124027268D01*
X83379283Y-124027273D01*
X83379284Y-124027276D01*
X83505968Y-124164889D01*
X83531760Y-124192906D01*
X83709424Y-124331189D01*
X83709425Y-124331189D01*
X83709427Y-124331191D01*
X83836135Y-124399761D01*
X83907426Y-124438342D01*
X84120365Y-124511444D01*
X84342431Y-124548500D01*
X84567569Y-124548500D01*
X84789635Y-124511444D01*
X85002574Y-124438342D01*
X85200576Y-124331189D01*
X85378240Y-124192906D01*
X85530722Y-124027268D01*
X85621193Y-123888790D01*
X85674338Y-123843437D01*
X85743569Y-123834013D01*
X85806905Y-123863515D01*
X85828804Y-123888787D01*
X85919278Y-124027268D01*
X85919283Y-124027273D01*
X85919284Y-124027276D01*
X86045968Y-124164889D01*
X86071760Y-124192906D01*
X86249424Y-124331189D01*
X86249425Y-124331189D01*
X86249427Y-124331191D01*
X86376135Y-124399761D01*
X86447426Y-124438342D01*
X86660365Y-124511444D01*
X86882431Y-124548500D01*
X87107569Y-124548500D01*
X87329635Y-124511444D01*
X87542574Y-124438342D01*
X87740576Y-124331189D01*
X87918240Y-124192906D01*
X88070722Y-124027268D01*
X88161193Y-123888790D01*
X88214338Y-123843437D01*
X88283569Y-123834013D01*
X88346905Y-123863515D01*
X88368804Y-123888787D01*
X88459278Y-124027268D01*
X88459283Y-124027273D01*
X88459284Y-124027276D01*
X88585968Y-124164889D01*
X88611760Y-124192906D01*
X88789424Y-124331189D01*
X88789425Y-124331189D01*
X88789427Y-124331191D01*
X88916135Y-124399761D01*
X88987426Y-124438342D01*
X89200365Y-124511444D01*
X89422431Y-124548500D01*
X89647569Y-124548500D01*
X89869635Y-124511444D01*
X89869637Y-124511443D01*
X89873864Y-124510373D01*
X89943684Y-124512994D01*
X89991991Y-124542896D01*
X90202912Y-124753817D01*
X90212819Y-124766183D01*
X90213029Y-124766010D01*
X90217996Y-124772015D01*
X90269079Y-124819984D01*
X90290224Y-124841130D01*
X90295813Y-124845466D01*
X90300245Y-124849252D01*
X90321853Y-124869542D01*
X90334680Y-124881587D01*
X90352562Y-124891417D01*
X90368829Y-124902102D01*
X90384960Y-124914615D01*
X90406838Y-124924081D01*
X90428307Y-124933371D01*
X90433533Y-124935931D01*
X90474940Y-124958695D01*
X90494716Y-124963772D01*
X90513124Y-124970075D01*
X90531850Y-124978179D01*
X90531852Y-124978180D01*
X90531853Y-124978180D01*
X90531855Y-124978181D01*
X90572784Y-124984663D01*
X90578503Y-124985569D01*
X90584212Y-124986751D01*
X90629970Y-124998500D01*
X90650384Y-124998500D01*
X90669783Y-125000027D01*
X90689943Y-125003220D01*
X90736966Y-124998775D01*
X90742804Y-124998500D01*
X95018067Y-124998500D01*
X95033814Y-125000238D01*
X95033840Y-124999968D01*
X95041606Y-125000701D01*
X95041610Y-125000702D01*
X95111659Y-124998500D01*
X95141557Y-124998500D01*
X95141558Y-124998500D01*
X95142923Y-124998327D01*
X95148563Y-124997614D01*
X95154386Y-124997156D01*
X95180409Y-124996338D01*
X95201591Y-124995673D01*
X95211382Y-124992827D01*
X95221182Y-124989980D01*
X95240239Y-124986032D01*
X95260498Y-124983474D01*
X95304422Y-124966082D01*
X95309922Y-124964199D01*
X95355294Y-124951018D01*
X95372866Y-124940625D01*
X95390333Y-124932068D01*
X95409318Y-124924552D01*
X95447527Y-124896790D01*
X95452405Y-124893585D01*
X95493063Y-124869542D01*
X95507503Y-124855100D01*
X95522293Y-124842470D01*
X95538808Y-124830472D01*
X95568923Y-124794067D01*
X95572827Y-124789776D01*
X98686815Y-121675788D01*
X98699180Y-121665884D01*
X98699006Y-121665674D01*
X98705012Y-121660704D01*
X98705018Y-121660701D01*
X98752999Y-121609605D01*
X98774134Y-121588471D01*
X98778463Y-121582888D01*
X98782242Y-121578464D01*
X98814586Y-121544022D01*
X98824423Y-121526125D01*
X98835097Y-121509875D01*
X98847613Y-121493742D01*
X98866372Y-121450390D01*
X98868933Y-121445163D01*
X98891695Y-121403761D01*
X98896774Y-121383975D01*
X98903072Y-121365583D01*
X98911181Y-121346846D01*
X98918568Y-121300202D01*
X98919748Y-121294495D01*
X98931500Y-121248731D01*
X98931500Y-121228310D01*
X98933027Y-121208910D01*
X98936219Y-121188758D01*
X98931775Y-121141741D01*
X98931500Y-121135904D01*
X98931500Y-117737865D01*
X98951185Y-117670826D01*
X99003989Y-117625071D01*
X99073147Y-117615127D01*
X99095763Y-117620584D01*
X99188791Y-117652520D01*
X99230015Y-117666672D01*
X99454305Y-117704100D01*
X99454306Y-117704100D01*
X99681694Y-117704100D01*
X99681695Y-117704100D01*
X99905985Y-117666672D01*
X100121055Y-117592839D01*
X100321039Y-117484612D01*
X100500483Y-117344946D01*
X100654490Y-117177649D01*
X100734191Y-117055656D01*
X100787337Y-117010300D01*
X100856568Y-117000876D01*
X100919904Y-117030378D01*
X100941809Y-117055657D01*
X101021505Y-117177643D01*
X101021507Y-117177645D01*
X101021510Y-117177649D01*
X101175517Y-117344946D01*
X101175521Y-117344949D01*
X101175524Y-117344952D01*
X101354952Y-117484606D01*
X101354967Y-117484616D01*
X101471499Y-117547680D01*
X101554945Y-117592839D01*
X101770015Y-117666672D01*
X101994305Y-117704100D01*
X101994306Y-117704100D01*
X102221694Y-117704100D01*
X102221695Y-117704100D01*
X102445985Y-117666672D01*
X102661055Y-117592839D01*
X102861039Y-117484612D01*
X103040483Y-117344946D01*
X103194490Y-117177649D01*
X103274191Y-117055656D01*
X103327337Y-117010300D01*
X103396568Y-117000876D01*
X103459904Y-117030378D01*
X103481809Y-117055657D01*
X103561505Y-117177643D01*
X103561507Y-117177645D01*
X103561510Y-117177649D01*
X103715517Y-117344946D01*
X103715521Y-117344949D01*
X103715524Y-117344952D01*
X103894952Y-117484606D01*
X103894967Y-117484616D01*
X104011499Y-117547680D01*
X104094945Y-117592839D01*
X104310015Y-117666672D01*
X104534305Y-117704100D01*
X104534306Y-117704100D01*
X104761694Y-117704100D01*
X104761695Y-117704100D01*
X104985985Y-117666672D01*
X105201055Y-117592839D01*
X105401039Y-117484612D01*
X105580483Y-117344946D01*
X105734490Y-117177649D01*
X105858861Y-116987285D01*
X105950203Y-116779047D01*
X106006024Y-116558614D01*
X106024802Y-116332000D01*
X106006024Y-116105386D01*
X105950203Y-115884953D01*
X105858861Y-115676715D01*
X105734490Y-115486351D01*
X105580483Y-115319054D01*
X105580478Y-115319050D01*
X105580475Y-115319047D01*
X105401047Y-115179393D01*
X105401032Y-115179383D01*
X105346482Y-115149862D01*
X105296891Y-115100643D01*
X105281500Y-115040808D01*
X105281500Y-91452384D01*
X105301185Y-91385345D01*
X105353989Y-91339590D01*
X105423147Y-91329646D01*
X105457899Y-91340000D01*
X105595757Y-91404284D01*
X105816913Y-91463543D01*
X105979832Y-91477796D01*
X106044998Y-91483498D01*
X106045000Y-91483498D01*
X106045002Y-91483498D01*
X106102021Y-91478509D01*
X106273087Y-91463543D01*
X106494243Y-91404284D01*
X106701749Y-91307523D01*
X106889300Y-91176198D01*
X107051198Y-91014300D01*
X107182523Y-90826749D01*
X107279284Y-90619243D01*
X107338543Y-90398087D01*
X107358498Y-90170000D01*
X107338543Y-89941913D01*
X107279284Y-89720757D01*
X107182523Y-89513251D01*
X107051198Y-89325700D01*
X106889300Y-89163802D01*
X106701749Y-89032477D01*
X106658655Y-89012382D01*
X106606215Y-88966210D01*
X106587063Y-88899017D01*
X106607278Y-88832136D01*
X106658655Y-88787618D01*
X106661882Y-88786112D01*
X106701749Y-88767523D01*
X106889300Y-88636198D01*
X107051198Y-88474300D01*
X107182523Y-88286749D01*
X107279284Y-88079243D01*
X107338543Y-87858087D01*
X107358498Y-87630000D01*
X107357454Y-87618072D01*
X107347411Y-87503272D01*
X107338543Y-87401913D01*
X107279284Y-87180757D01*
X107255025Y-87128734D01*
X107223984Y-87062166D01*
X107182523Y-86973251D01*
X107051198Y-86785700D01*
X106889300Y-86623802D01*
X106701749Y-86492477D01*
X106658655Y-86472382D01*
X106606215Y-86426210D01*
X106587063Y-86359017D01*
X106607278Y-86292136D01*
X106658655Y-86247618D01*
X106661882Y-86246112D01*
X106701749Y-86227523D01*
X106889300Y-86096198D01*
X107051198Y-85934300D01*
X107182523Y-85746749D01*
X107279284Y-85539243D01*
X107338543Y-85318087D01*
X107358498Y-85090000D01*
X107338543Y-84861913D01*
X107279284Y-84640757D01*
X107255025Y-84588734D01*
X107223984Y-84522166D01*
X107182523Y-84433251D01*
X107051198Y-84245700D01*
X106889300Y-84083802D01*
X106701749Y-83952477D01*
X106691545Y-83947719D01*
X106658655Y-83932382D01*
X106606215Y-83886210D01*
X106587063Y-83819017D01*
X106607278Y-83752136D01*
X106658655Y-83707618D01*
X106661882Y-83706112D01*
X106701749Y-83687523D01*
X106889300Y-83556198D01*
X107051198Y-83394300D01*
X107182523Y-83206749D01*
X107279284Y-82999243D01*
X107338543Y-82778087D01*
X107358498Y-82550000D01*
X107338543Y-82321913D01*
X107279284Y-82100757D01*
X107255025Y-82048734D01*
X107223984Y-81982166D01*
X107182523Y-81893251D01*
X107051198Y-81705700D01*
X106889300Y-81543802D01*
X106701749Y-81412477D01*
X106691545Y-81407719D01*
X106658655Y-81392382D01*
X106606215Y-81346210D01*
X106587063Y-81279017D01*
X106607278Y-81212136D01*
X106658655Y-81167618D01*
X106661882Y-81166112D01*
X106701749Y-81147523D01*
X106889300Y-81016198D01*
X107051198Y-80854300D01*
X107182523Y-80666749D01*
X107279284Y-80459243D01*
X107338543Y-80238087D01*
X107358498Y-80010000D01*
X107357900Y-80003170D01*
X107350716Y-79921048D01*
X107338543Y-79781913D01*
X107279284Y-79560757D01*
X107274545Y-79550595D01*
X107217867Y-79429047D01*
X107182523Y-79353251D01*
X107051198Y-79165700D01*
X106889300Y-79003802D01*
X106701749Y-78872477D01*
X106658655Y-78852382D01*
X106606215Y-78806210D01*
X106587063Y-78739017D01*
X106607278Y-78672136D01*
X106658655Y-78627618D01*
X106661882Y-78626112D01*
X106701749Y-78607523D01*
X106889300Y-78476198D01*
X107051198Y-78314300D01*
X107182523Y-78126749D01*
X107279284Y-77919243D01*
X107338543Y-77698087D01*
X107358498Y-77470000D01*
X107357744Y-77461386D01*
X107342258Y-77284380D01*
X107338543Y-77241913D01*
X107279284Y-77020757D01*
X107182523Y-76813251D01*
X107051198Y-76625700D01*
X106889300Y-76463802D01*
X106701749Y-76332477D01*
X106648596Y-76307691D01*
X106596158Y-76261519D01*
X106577007Y-76194325D01*
X106597223Y-76127444D01*
X106648600Y-76082927D01*
X106697483Y-76060133D01*
X106883820Y-75929657D01*
X107044657Y-75768820D01*
X107175134Y-75582482D01*
X107271265Y-75376326D01*
X107271269Y-75376317D01*
X107323872Y-75180000D01*
X106360686Y-75180000D01*
X106372641Y-75168045D01*
X106430165Y-75055148D01*
X106449986Y-74930000D01*
X106430165Y-74804852D01*
X106372641Y-74691955D01*
X106360686Y-74680000D01*
X107323872Y-74680000D01*
X107323872Y-74679999D01*
X107271269Y-74483682D01*
X107271265Y-74483673D01*
X107175134Y-74277517D01*
X107044657Y-74091179D01*
X106883820Y-73930342D01*
X106697482Y-73799865D01*
X106491328Y-73703734D01*
X106295000Y-73651127D01*
X106295000Y-74614314D01*
X106283045Y-74602359D01*
X106170148Y-74544835D01*
X106076481Y-74530000D01*
X106013519Y-74530000D01*
X105919852Y-74544835D01*
X105806955Y-74602359D01*
X105795000Y-74614314D01*
X105795000Y-73651127D01*
X105598671Y-73703734D01*
X105392517Y-73799865D01*
X105206179Y-73930342D01*
X105045342Y-74091179D01*
X104914865Y-74277517D01*
X104818734Y-74483673D01*
X104818730Y-74483682D01*
X104766127Y-74679999D01*
X104766128Y-74680000D01*
X105729314Y-74680000D01*
X105717359Y-74691955D01*
X105659835Y-74804852D01*
X105640014Y-74930000D01*
X105659835Y-75055148D01*
X105717359Y-75168045D01*
X105729314Y-75180000D01*
X104766128Y-75180000D01*
X104818730Y-75376317D01*
X104818734Y-75376326D01*
X104914865Y-75582482D01*
X105045342Y-75768820D01*
X105206179Y-75929657D01*
X105392517Y-76060133D01*
X105441399Y-76082927D01*
X105493839Y-76129099D01*
X105512992Y-76196292D01*
X105492777Y-76263174D01*
X105441402Y-76307691D01*
X105388256Y-76332474D01*
X105388252Y-76332476D01*
X105385569Y-76334355D01*
X105200700Y-76463802D01*
X105200698Y-76463803D01*
X105200695Y-76463806D01*
X105038806Y-76625695D01*
X105038803Y-76625698D01*
X105038802Y-76625700D01*
X104983316Y-76704942D01*
X104907476Y-76813252D01*
X104907475Y-76813254D01*
X104810718Y-77020750D01*
X104810714Y-77020761D01*
X104751457Y-77241910D01*
X104751456Y-77241918D01*
X104731502Y-77469998D01*
X104731502Y-77470001D01*
X104751456Y-77698081D01*
X104751457Y-77698089D01*
X104810714Y-77919238D01*
X104810718Y-77919249D01*
X104902166Y-78115359D01*
X104907477Y-78126749D01*
X105038802Y-78314300D01*
X105038806Y-78314304D01*
X105079102Y-78354600D01*
X105112587Y-78415923D01*
X105107603Y-78485615D01*
X105065731Y-78541548D01*
X105000267Y-78565965D01*
X104931994Y-78551113D01*
X104925449Y-78547275D01*
X104874017Y-78514958D01*
X104874016Y-78514957D01*
X104874015Y-78514957D01*
X104791269Y-78486003D01*
X104702046Y-78454782D01*
X104702041Y-78454781D01*
X104521004Y-78434384D01*
X104520996Y-78434384D01*
X104339958Y-78454781D01*
X104339953Y-78454782D01*
X104167982Y-78514958D01*
X104013718Y-78611889D01*
X103884889Y-78740718D01*
X103787958Y-78894982D01*
X103727782Y-79066953D01*
X103727781Y-79066958D01*
X103707384Y-79247996D01*
X103707384Y-79248003D01*
X103727781Y-79429041D01*
X103727782Y-79429046D01*
X103756516Y-79511161D01*
X103780023Y-79578342D01*
X103787958Y-79601017D01*
X103884889Y-79755281D01*
X103978181Y-79848573D01*
X104011666Y-79909896D01*
X104014500Y-79936254D01*
X104014500Y-115040808D01*
X103994815Y-115107847D01*
X103949518Y-115149862D01*
X103894967Y-115179383D01*
X103894952Y-115179393D01*
X103715524Y-115319047D01*
X103715514Y-115319057D01*
X103561507Y-115486354D01*
X103481809Y-115608343D01*
X103428662Y-115653699D01*
X103359431Y-115663123D01*
X103296095Y-115633621D01*
X103274191Y-115608343D01*
X103244679Y-115563172D01*
X103194490Y-115486351D01*
X103040483Y-115319054D01*
X103040478Y-115319050D01*
X103040475Y-115319047D01*
X102861047Y-115179393D01*
X102861032Y-115179383D01*
X102806482Y-115149862D01*
X102756891Y-115100643D01*
X102741500Y-115040808D01*
X102741500Y-69381160D01*
X102760507Y-69315188D01*
X102841039Y-69187022D01*
X102841041Y-69187019D01*
X102841041Y-69187017D01*
X102841043Y-69187015D01*
X102901217Y-69015047D01*
X102901222Y-69015004D01*
X102921616Y-68834003D01*
X102921616Y-68833996D01*
X102901218Y-68652958D01*
X102901217Y-68652953D01*
X102880050Y-68592462D01*
X102841043Y-68480985D01*
X102744111Y-68326719D01*
X102615281Y-68197889D01*
X102461015Y-68100957D01*
X102378275Y-68072005D01*
X102289046Y-68040782D01*
X102289041Y-68040781D01*
X102108004Y-68020384D01*
X102107996Y-68020384D01*
X101926958Y-68040781D01*
X101926953Y-68040782D01*
X101754982Y-68100958D01*
X101600718Y-68197889D01*
X101471889Y-68326718D01*
X101374958Y-68480982D01*
X101314782Y-68652953D01*
X101314781Y-68652958D01*
X101294384Y-68833996D01*
X101294384Y-68834003D01*
X101314781Y-69015041D01*
X101314782Y-69015046D01*
X101374958Y-69187019D01*
X101374960Y-69187022D01*
X101455493Y-69315188D01*
X101474500Y-69381160D01*
X101474500Y-115040808D01*
X101454815Y-115107847D01*
X101409518Y-115149862D01*
X101354967Y-115179383D01*
X101354952Y-115179393D01*
X101175524Y-115319047D01*
X101175514Y-115319057D01*
X101021507Y-115486354D01*
X100941809Y-115608343D01*
X100888662Y-115653699D01*
X100819431Y-115663123D01*
X100756095Y-115633621D01*
X100734191Y-115608343D01*
X100704679Y-115563172D01*
X100654490Y-115486351D01*
X100500483Y-115319054D01*
X100500478Y-115319050D01*
X100500475Y-115319047D01*
X100321047Y-115179393D01*
X100321032Y-115179383D01*
X100266482Y-115149862D01*
X100216891Y-115100643D01*
X100201500Y-115040808D01*
X100201500Y-81714254D01*
X100221185Y-81647215D01*
X100237819Y-81626573D01*
X100260435Y-81603957D01*
X100331111Y-81533281D01*
X100428043Y-81379015D01*
X100488217Y-81207047D01*
X100488218Y-81207041D01*
X100508616Y-81026003D01*
X100508616Y-81025996D01*
X100488218Y-80844958D01*
X100488217Y-80844953D01*
X100475809Y-80809492D01*
X100428043Y-80672985D01*
X100331111Y-80518719D01*
X100202281Y-80389889D01*
X100190541Y-80382512D01*
X100048016Y-80292957D01*
X99876041Y-80232781D01*
X99840723Y-80228802D01*
X99776310Y-80201735D01*
X99736755Y-80144140D01*
X99731080Y-80094777D01*
X99738498Y-80010000D01*
X99737900Y-80003170D01*
X99730716Y-79921048D01*
X99718543Y-79781913D01*
X99659284Y-79560757D01*
X99654545Y-79550595D01*
X99597867Y-79429047D01*
X99562523Y-79353251D01*
X99431198Y-79165700D01*
X99269300Y-79003802D01*
X99081749Y-78872477D01*
X99038655Y-78852382D01*
X98986215Y-78806210D01*
X98967063Y-78739017D01*
X98987278Y-78672136D01*
X99038655Y-78627618D01*
X99041882Y-78626112D01*
X99081749Y-78607523D01*
X99269300Y-78476198D01*
X99431198Y-78314300D01*
X99562523Y-78126749D01*
X99659284Y-77919243D01*
X99718543Y-77698087D01*
X99738498Y-77470000D01*
X99737744Y-77461386D01*
X99722258Y-77284380D01*
X99718543Y-77241913D01*
X99659284Y-77020757D01*
X99562523Y-76813251D01*
X99431198Y-76625700D01*
X99269300Y-76463802D01*
X99261628Y-76458430D01*
X99218006Y-76403853D01*
X99210814Y-76334355D01*
X99242338Y-76272001D01*
X99302568Y-76236588D01*
X99319489Y-76233570D01*
X99334201Y-76231989D01*
X99471204Y-76180889D01*
X99588261Y-76093261D01*
X99675889Y-75976204D01*
X99726989Y-75839201D01*
X99730591Y-75805692D01*
X99733499Y-75778654D01*
X99733500Y-75778637D01*
X99733500Y-74081362D01*
X99733499Y-74081345D01*
X99729238Y-74041718D01*
X99726989Y-74020799D01*
X99718354Y-73997649D01*
X99686740Y-73912889D01*
X99675889Y-73883796D01*
X99588261Y-73766739D01*
X99517921Y-73714083D01*
X99471206Y-73679112D01*
X99471204Y-73679111D01*
X99436094Y-73666015D01*
X99380162Y-73624145D01*
X99355746Y-73558680D01*
X99370598Y-73490407D01*
X99391746Y-73462157D01*
X100265056Y-72588846D01*
X100326377Y-72555363D01*
X100338836Y-72553310D01*
X100384047Y-72548217D01*
X100556015Y-72488043D01*
X100710281Y-72391111D01*
X100839111Y-72262281D01*
X100936043Y-72108015D01*
X100996217Y-71936047D01*
X100996218Y-71936041D01*
X101016616Y-71755003D01*
X101016616Y-71754996D01*
X100996218Y-71573958D01*
X100996217Y-71573953D01*
X100936043Y-71401985D01*
X100839111Y-71247719D01*
X100710281Y-71118889D01*
X100556015Y-71021957D01*
X100473269Y-70993003D01*
X100384046Y-70961782D01*
X100384041Y-70961781D01*
X100203004Y-70941384D01*
X100202996Y-70941384D01*
X100021958Y-70961781D01*
X100021953Y-70961782D01*
X99849982Y-71021958D01*
X99695718Y-71118889D01*
X99566889Y-71247718D01*
X99469957Y-71401983D01*
X99409783Y-71573953D01*
X99404690Y-71619148D01*
X99377621Y-71683561D01*
X99369151Y-71692942D01*
X98289119Y-72772974D01*
X98227796Y-72806459D01*
X98158104Y-72801475D01*
X98102171Y-72759603D01*
X98077754Y-72694139D01*
X98078218Y-72671409D01*
X98086821Y-72595062D01*
X98092354Y-72545955D01*
X98095616Y-72517002D01*
X98095616Y-72516996D01*
X98075218Y-72335958D01*
X98075217Y-72335953D01*
X98064859Y-72306351D01*
X98015043Y-72163985D01*
X97918111Y-72009719D01*
X97789281Y-71880889D01*
X97635017Y-71783958D01*
X97635016Y-71783957D01*
X97635015Y-71783957D01*
X97552269Y-71755003D01*
X97463046Y-71723782D01*
X97463041Y-71723781D01*
X97282004Y-71703384D01*
X97281996Y-71703384D01*
X97100958Y-71723781D01*
X97100950Y-71723783D01*
X97035190Y-71746794D01*
X96965412Y-71750355D01*
X96904784Y-71715626D01*
X96877194Y-71670706D01*
X96872042Y-71655983D01*
X96808619Y-71555046D01*
X96775111Y-71501719D01*
X96646281Y-71372889D01*
X96492015Y-71275957D01*
X96433278Y-71255404D01*
X96320046Y-71215782D01*
X96320041Y-71215781D01*
X96139004Y-71195384D01*
X96138996Y-71195384D01*
X95957958Y-71215781D01*
X95957953Y-71215782D01*
X95785982Y-71275958D01*
X95631718Y-71372889D01*
X95502889Y-71501718D01*
X95405958Y-71655982D01*
X95345782Y-71827953D01*
X95345781Y-71827958D01*
X95325384Y-72008996D01*
X95325384Y-72009003D01*
X95345781Y-72190041D01*
X95345782Y-72190046D01*
X95405958Y-72362019D01*
X95405960Y-72362022D01*
X95486493Y-72490188D01*
X95505500Y-72556160D01*
X95505500Y-77640366D01*
X95503761Y-77656113D01*
X95504032Y-77656139D01*
X95503298Y-77663905D01*
X95503298Y-77663908D01*
X95503298Y-77663909D01*
X95504709Y-77708791D01*
X95505500Y-77733957D01*
X95505500Y-77763859D01*
X95506384Y-77770856D01*
X95506842Y-77776679D01*
X95508326Y-77823889D01*
X95508327Y-77823891D01*
X95514022Y-77843495D01*
X95517967Y-77862542D01*
X95520526Y-77882797D01*
X95520527Y-77882800D01*
X95520528Y-77882803D01*
X95537914Y-77926716D01*
X95539806Y-77932244D01*
X95552981Y-77977592D01*
X95563372Y-77995162D01*
X95571932Y-78012635D01*
X95579447Y-78031617D01*
X95607209Y-78069827D01*
X95610416Y-78074710D01*
X95634458Y-78115362D01*
X95634462Y-78115366D01*
X95648889Y-78129793D01*
X95661526Y-78144588D01*
X95673528Y-78161107D01*
X95709931Y-78191222D01*
X95714231Y-78195135D01*
X96419972Y-78900876D01*
X97116664Y-79597568D01*
X97150149Y-79658891D01*
X97148758Y-79717341D01*
X97131459Y-79781904D01*
X97131456Y-79781918D01*
X97111502Y-80009998D01*
X97111502Y-80010001D01*
X97131456Y-80238081D01*
X97131458Y-80238092D01*
X97151862Y-80314240D01*
X97150199Y-80384090D01*
X97111036Y-80441952D01*
X97046808Y-80469456D01*
X96977906Y-80457869D01*
X96944406Y-80434014D01*
X96900281Y-80389889D01*
X96746017Y-80292958D01*
X96746016Y-80292957D01*
X96746015Y-80292957D01*
X96691693Y-80273949D01*
X96574046Y-80232782D01*
X96574041Y-80232781D01*
X96393004Y-80212384D01*
X96392996Y-80212384D01*
X96211958Y-80232781D01*
X96211953Y-80232782D01*
X96039982Y-80292958D01*
X95885718Y-80389889D01*
X95751965Y-80523643D01*
X95750235Y-80521913D01*
X95702352Y-80555501D01*
X95632539Y-80558330D01*
X95608826Y-80549755D01*
X95603021Y-80546959D01*
X95431046Y-80486782D01*
X95431041Y-80486781D01*
X95250004Y-80466384D01*
X95249996Y-80466384D01*
X95068958Y-80486781D01*
X95068950Y-80486783D01*
X95032454Y-80499554D01*
X94962675Y-80503115D01*
X94902048Y-80468386D01*
X94869821Y-80406393D01*
X94867500Y-80382512D01*
X94867500Y-71921160D01*
X94886507Y-71855188D01*
X94967039Y-71727022D01*
X94967041Y-71727019D01*
X94967041Y-71727017D01*
X94967043Y-71727015D01*
X95027217Y-71555047D01*
X95031144Y-71520195D01*
X95047616Y-71374003D01*
X95047616Y-71373996D01*
X95027218Y-71192958D01*
X95027217Y-71192953D01*
X94967043Y-71020985D01*
X94870111Y-70866719D01*
X94741281Y-70737889D01*
X94697899Y-70710630D01*
X94587017Y-70640958D01*
X94587016Y-70640957D01*
X94587015Y-70640957D01*
X94532693Y-70621949D01*
X94415046Y-70580782D01*
X94415041Y-70580781D01*
X94234004Y-70560384D01*
X94233996Y-70560384D01*
X94052958Y-70580781D01*
X94052950Y-70580783D01*
X93935054Y-70622037D01*
X93865276Y-70625598D01*
X93804648Y-70590869D01*
X93772421Y-70528876D01*
X93770100Y-70504995D01*
X93770100Y-69449920D01*
X93789785Y-69382881D01*
X93842589Y-69337126D01*
X93911747Y-69327182D01*
X93934363Y-69332639D01*
X93934943Y-69332838D01*
X93934945Y-69332839D01*
X94150015Y-69406672D01*
X94374305Y-69444100D01*
X94374306Y-69444100D01*
X94601694Y-69444100D01*
X94601695Y-69444100D01*
X94825985Y-69406672D01*
X95041055Y-69332839D01*
X95241039Y-69224612D01*
X95247501Y-69219583D01*
X95358600Y-69133111D01*
X95420483Y-69084946D01*
X95574490Y-68917649D01*
X95654191Y-68795656D01*
X95707337Y-68750300D01*
X95776568Y-68740876D01*
X95839904Y-68770378D01*
X95861809Y-68795657D01*
X95941505Y-68917643D01*
X95941507Y-68917645D01*
X95941510Y-68917649D01*
X96095517Y-69084946D01*
X96095521Y-69084949D01*
X96095524Y-69084952D01*
X96274952Y-69224606D01*
X96274967Y-69224616D01*
X96451518Y-69320161D01*
X96474945Y-69332839D01*
X96690015Y-69406672D01*
X96914305Y-69444100D01*
X96914306Y-69444100D01*
X97141694Y-69444100D01*
X97141695Y-69444100D01*
X97365985Y-69406672D01*
X97581055Y-69332839D01*
X97781039Y-69224612D01*
X97787501Y-69219583D01*
X97898600Y-69133111D01*
X97960483Y-69084946D01*
X98114490Y-68917649D01*
X98194191Y-68795656D01*
X98247337Y-68750300D01*
X98316568Y-68740876D01*
X98379904Y-68770378D01*
X98401809Y-68795657D01*
X98481505Y-68917643D01*
X98481507Y-68917645D01*
X98481510Y-68917649D01*
X98635517Y-69084946D01*
X98635521Y-69084949D01*
X98635524Y-69084952D01*
X98814952Y-69224606D01*
X98814967Y-69224616D01*
X98991518Y-69320161D01*
X99014945Y-69332839D01*
X99230015Y-69406672D01*
X99454305Y-69444100D01*
X99454306Y-69444100D01*
X99681694Y-69444100D01*
X99681695Y-69444100D01*
X99905985Y-69406672D01*
X100121055Y-69332839D01*
X100321039Y-69224612D01*
X100327501Y-69219583D01*
X100438600Y-69133111D01*
X100500483Y-69084946D01*
X100654490Y-68917649D01*
X100778861Y-68727285D01*
X100870203Y-68519047D01*
X100926024Y-68298614D01*
X100938750Y-68145039D01*
X100944802Y-68072005D01*
X100944802Y-68071994D01*
X100926025Y-67845394D01*
X100926023Y-67845382D01*
X100895732Y-67725766D01*
X100898357Y-67655946D01*
X100928255Y-67607647D01*
X101344815Y-67191087D01*
X101357180Y-67181183D01*
X101357006Y-67180973D01*
X101363012Y-67176003D01*
X101363018Y-67176000D01*
X101410999Y-67124904D01*
X101432134Y-67103770D01*
X101436463Y-67098187D01*
X101440242Y-67093763D01*
X101472586Y-67059321D01*
X101482423Y-67041424D01*
X101493097Y-67025174D01*
X101505613Y-67009041D01*
X101524372Y-66965689D01*
X101526933Y-66960462D01*
X101549695Y-66919060D01*
X101554774Y-66899274D01*
X101561072Y-66880882D01*
X101569181Y-66862145D01*
X101576018Y-66818972D01*
X101576568Y-66815501D01*
X101577748Y-66809794D01*
X101589500Y-66764030D01*
X101589500Y-66743609D01*
X101591027Y-66724209D01*
X101593125Y-66710967D01*
X101594219Y-66704057D01*
X101589775Y-66657040D01*
X101589500Y-66651203D01*
X101589500Y-56531729D01*
X101609185Y-56464690D01*
X101654484Y-56422674D01*
X101701566Y-56397195D01*
X101701572Y-56397191D01*
X101701576Y-56397189D01*
X101879240Y-56258906D01*
X102031722Y-56093268D01*
X102125459Y-55949791D01*
X102178603Y-55904437D01*
X102247835Y-55895013D01*
X102311170Y-55924515D01*
X102333074Y-55949793D01*
X102420276Y-56083265D01*
X102420284Y-56083276D01*
X102572756Y-56248902D01*
X102572761Y-56248907D01*
X102621146Y-56286567D01*
X102750424Y-56387189D01*
X102750425Y-56387189D01*
X102750427Y-56387191D01*
X102861171Y-56447122D01*
X102948426Y-56494342D01*
X103161365Y-56567444D01*
X103383431Y-56604500D01*
X103608569Y-56604500D01*
X103830630Y-56567445D01*
X103830631Y-56567444D01*
X103830635Y-56567444D01*
X103830637Y-56567442D01*
X103834849Y-56566376D01*
X103904669Y-56568988D01*
X103952991Y-56598895D01*
X107869581Y-60515485D01*
X107903066Y-60576808D01*
X107905900Y-60603166D01*
X107905900Y-61321856D01*
X107886215Y-61388895D01*
X107833411Y-61434650D01*
X107764253Y-61444594D01*
X107700697Y-61415569D01*
X107694219Y-61409537D01*
X105154256Y-58869575D01*
X105132103Y-58834275D01*
X105130064Y-58835258D01*
X105127043Y-58828984D01*
X105030110Y-58674718D01*
X104901281Y-58545889D01*
X104747017Y-58448958D01*
X104747016Y-58448957D01*
X104747015Y-58448957D01*
X104692693Y-58429949D01*
X104575046Y-58388782D01*
X104575041Y-58388781D01*
X104394004Y-58368384D01*
X104393996Y-58368384D01*
X104212958Y-58388781D01*
X104212953Y-58388782D01*
X104040982Y-58448958D01*
X103886718Y-58545889D01*
X103757889Y-58674718D01*
X103660958Y-58828982D01*
X103600782Y-59000953D01*
X103600781Y-59000958D01*
X103580384Y-59181996D01*
X103580384Y-59182003D01*
X103600781Y-59363041D01*
X103600782Y-59363046D01*
X103660958Y-59535017D01*
X103757889Y-59689281D01*
X103886719Y-59818111D01*
X103918312Y-59837962D01*
X104040984Y-59915043D01*
X104047258Y-59918064D01*
X104046275Y-59920103D01*
X104081575Y-59942256D01*
X106393181Y-62253862D01*
X106426666Y-62315185D01*
X106429500Y-62341543D01*
X106429500Y-66863017D01*
X106409815Y-66930056D01*
X106381663Y-66960870D01*
X106255519Y-67059052D01*
X106255517Y-67059053D01*
X106255517Y-67059054D01*
X106140387Y-67184120D01*
X106101504Y-67226358D01*
X106016731Y-67356112D01*
X105963585Y-67401469D01*
X105894353Y-67410892D01*
X105831018Y-67381390D01*
X105809114Y-67356111D01*
X105727759Y-67231587D01*
X105574715Y-67065338D01*
X105574703Y-67065327D01*
X105396376Y-66926529D01*
X105197630Y-66818972D01*
X105197624Y-66818970D01*
X104983893Y-66745596D01*
X104898000Y-66731263D01*
X104898000Y-67627702D01*
X104792592Y-67579565D01*
X104684334Y-67564000D01*
X104611666Y-67564000D01*
X104503408Y-67579565D01*
X104398000Y-67627702D01*
X104398000Y-66731263D01*
X104397999Y-66731263D01*
X104312106Y-66745596D01*
X104098375Y-66818970D01*
X104098369Y-66818972D01*
X103899623Y-66926529D01*
X103721296Y-67065327D01*
X103721284Y-67065338D01*
X103568240Y-67231587D01*
X103444639Y-67420774D01*
X103353864Y-67627721D01*
X103304666Y-67822000D01*
X104204804Y-67822000D01*
X104181155Y-67858799D01*
X104140000Y-67998961D01*
X104140000Y-68145039D01*
X104181155Y-68285201D01*
X104204804Y-68322000D01*
X103304666Y-68322000D01*
X103353864Y-68516278D01*
X103444639Y-68723225D01*
X103568240Y-68912412D01*
X103721284Y-69078661D01*
X103721296Y-69078672D01*
X103899623Y-69217470D01*
X104098369Y-69325027D01*
X104098375Y-69325029D01*
X104312106Y-69398403D01*
X104398000Y-69412736D01*
X104398000Y-68516297D01*
X104503408Y-68564435D01*
X104611666Y-68580000D01*
X104684334Y-68580000D01*
X104792592Y-68564435D01*
X104898000Y-68516297D01*
X104898000Y-69412735D01*
X104983893Y-69398403D01*
X105197624Y-69325029D01*
X105197630Y-69325027D01*
X105396376Y-69217470D01*
X105574703Y-69078672D01*
X105574715Y-69078661D01*
X105727759Y-68912412D01*
X105809114Y-68787888D01*
X105862260Y-68742531D01*
X105931491Y-68733107D01*
X105994827Y-68762608D01*
X106016731Y-68787887D01*
X106101504Y-68917641D01*
X106101506Y-68917643D01*
X106101510Y-68917649D01*
X106255517Y-69084946D01*
X106255521Y-69084949D01*
X106255524Y-69084952D01*
X106434952Y-69224606D01*
X106434967Y-69224616D01*
X106611518Y-69320161D01*
X106634945Y-69332839D01*
X106850015Y-69406672D01*
X107074305Y-69444100D01*
X107074306Y-69444100D01*
X107301694Y-69444100D01*
X107301695Y-69444100D01*
X107525985Y-69406672D01*
X107741055Y-69332839D01*
X107741056Y-69332838D01*
X107741637Y-69332639D01*
X107811436Y-69329489D01*
X107871857Y-69364575D01*
X107903718Y-69426758D01*
X107905900Y-69449920D01*
X107905900Y-115160066D01*
X107886215Y-115227105D01*
X107858063Y-115257919D01*
X107779519Y-115319052D01*
X107625507Y-115486354D01*
X107501137Y-115676718D01*
X107409797Y-115884952D01*
X107353975Y-116105389D01*
X107335198Y-116331994D01*
X107335198Y-116332005D01*
X107353975Y-116558610D01*
X107409797Y-116779047D01*
X107500284Y-116985337D01*
X107501139Y-116987285D01*
X107625510Y-117177649D01*
X107779517Y-117344946D01*
X107779521Y-117344949D01*
X107779524Y-117344952D01*
X107958952Y-117484606D01*
X107958967Y-117484616D01*
X108075499Y-117547680D01*
X108158945Y-117592839D01*
X108374015Y-117666672D01*
X108598305Y-117704100D01*
X108598306Y-117704100D01*
X108825694Y-117704100D01*
X108825695Y-117704100D01*
X109049985Y-117666672D01*
X109265055Y-117592839D01*
X109465039Y-117484612D01*
X109644483Y-117344946D01*
X109798490Y-117177649D01*
X109878191Y-117055656D01*
X109931337Y-117010300D01*
X110000568Y-117000876D01*
X110063904Y-117030378D01*
X110085809Y-117055657D01*
X110165505Y-117177643D01*
X110165507Y-117177645D01*
X110165510Y-117177649D01*
X110319517Y-117344946D01*
X110319521Y-117344949D01*
X110319524Y-117344952D01*
X110498952Y-117484606D01*
X110498967Y-117484616D01*
X110615499Y-117547680D01*
X110698945Y-117592839D01*
X110914015Y-117666672D01*
X111138305Y-117704100D01*
X111138306Y-117704100D01*
X111365694Y-117704100D01*
X111365695Y-117704100D01*
X111589985Y-117666672D01*
X111805055Y-117592839D01*
X112005039Y-117484612D01*
X112184483Y-117344946D01*
X112338490Y-117177649D01*
X112418191Y-117055656D01*
X112471337Y-117010300D01*
X112540568Y-117000876D01*
X112603904Y-117030378D01*
X112625809Y-117055657D01*
X112705505Y-117177643D01*
X112705507Y-117177645D01*
X112705510Y-117177649D01*
X112859517Y-117344946D01*
X112859521Y-117344949D01*
X112859524Y-117344952D01*
X113038952Y-117484606D01*
X113038967Y-117484616D01*
X113155499Y-117547680D01*
X113238945Y-117592839D01*
X113454015Y-117666672D01*
X113678305Y-117704100D01*
X113678306Y-117704100D01*
X113905694Y-117704100D01*
X113905695Y-117704100D01*
X114129985Y-117666672D01*
X114345055Y-117592839D01*
X114545039Y-117484612D01*
X114724483Y-117344946D01*
X114878490Y-117177649D01*
X114958191Y-117055656D01*
X115011337Y-117010300D01*
X115080568Y-117000876D01*
X115143904Y-117030378D01*
X115165809Y-117055657D01*
X115245505Y-117177643D01*
X115245507Y-117177645D01*
X115245510Y-117177649D01*
X115399517Y-117344946D01*
X115399521Y-117344949D01*
X115399524Y-117344952D01*
X115578952Y-117484606D01*
X115578967Y-117484616D01*
X115695499Y-117547680D01*
X115778945Y-117592839D01*
X115994015Y-117666672D01*
X116218305Y-117704100D01*
X116218306Y-117704100D01*
X116445694Y-117704100D01*
X116445695Y-117704100D01*
X116669985Y-117666672D01*
X116885055Y-117592839D01*
X117085039Y-117484612D01*
X117264483Y-117344946D01*
X117418490Y-117177649D01*
X117498191Y-117055656D01*
X117551337Y-117010300D01*
X117620568Y-117000876D01*
X117683904Y-117030378D01*
X117705809Y-117055657D01*
X117785505Y-117177643D01*
X117785507Y-117177645D01*
X117785510Y-117177649D01*
X117939517Y-117344946D01*
X117939521Y-117344949D01*
X117939524Y-117344952D01*
X118118952Y-117484606D01*
X118118967Y-117484616D01*
X118235499Y-117547680D01*
X118318945Y-117592839D01*
X118534015Y-117666672D01*
X118758305Y-117704100D01*
X118758306Y-117704100D01*
X118985694Y-117704100D01*
X118985695Y-117704100D01*
X119209985Y-117666672D01*
X119425055Y-117592839D01*
X119625039Y-117484612D01*
X119804483Y-117344946D01*
X119958490Y-117177649D01*
X120038191Y-117055656D01*
X120091337Y-117010300D01*
X120160568Y-117000876D01*
X120223904Y-117030378D01*
X120245809Y-117055657D01*
X120325505Y-117177643D01*
X120325507Y-117177645D01*
X120325510Y-117177649D01*
X120479517Y-117344946D01*
X120479521Y-117344949D01*
X120479524Y-117344952D01*
X120658952Y-117484606D01*
X120658967Y-117484616D01*
X120775499Y-117547680D01*
X120858945Y-117592839D01*
X121074015Y-117666672D01*
X121298305Y-117704100D01*
X121298306Y-117704100D01*
X121525694Y-117704100D01*
X121525695Y-117704100D01*
X121749985Y-117666672D01*
X121965055Y-117592839D01*
X122165039Y-117484612D01*
X122344483Y-117344946D01*
X122498490Y-117177649D01*
X122578191Y-117055656D01*
X122631337Y-117010300D01*
X122700568Y-117000876D01*
X122763904Y-117030378D01*
X122785809Y-117055657D01*
X122865505Y-117177643D01*
X122865507Y-117177645D01*
X122865510Y-117177649D01*
X123019517Y-117344946D01*
X123019521Y-117344949D01*
X123019524Y-117344952D01*
X123198952Y-117484606D01*
X123198967Y-117484616D01*
X123315499Y-117547680D01*
X123398945Y-117592839D01*
X123614015Y-117666672D01*
X123838305Y-117704100D01*
X123838306Y-117704100D01*
X124065694Y-117704100D01*
X124065695Y-117704100D01*
X124289985Y-117666672D01*
X124505055Y-117592839D01*
X124705039Y-117484612D01*
X124884483Y-117344946D01*
X125038490Y-117177649D01*
X125118191Y-117055656D01*
X125171337Y-117010300D01*
X125240568Y-117000876D01*
X125303904Y-117030378D01*
X125325809Y-117055657D01*
X125405505Y-117177643D01*
X125405507Y-117177645D01*
X125405510Y-117177649D01*
X125559517Y-117344946D01*
X125559521Y-117344949D01*
X125559524Y-117344952D01*
X125738952Y-117484606D01*
X125738967Y-117484616D01*
X125855499Y-117547680D01*
X125938945Y-117592839D01*
X126154015Y-117666672D01*
X126378305Y-117704100D01*
X126378306Y-117704100D01*
X126605694Y-117704100D01*
X126605695Y-117704100D01*
X126829985Y-117666672D01*
X127045055Y-117592839D01*
X127245039Y-117484612D01*
X127424483Y-117344946D01*
X127578490Y-117177649D01*
X127658191Y-117055656D01*
X127711337Y-117010300D01*
X127780568Y-117000876D01*
X127843904Y-117030378D01*
X127865809Y-117055657D01*
X127945505Y-117177643D01*
X127945507Y-117177645D01*
X127945510Y-117177649D01*
X128099517Y-117344946D01*
X128099521Y-117344949D01*
X128099524Y-117344952D01*
X128278952Y-117484606D01*
X128278967Y-117484616D01*
X128395499Y-117547680D01*
X128478945Y-117592839D01*
X128694015Y-117666672D01*
X128918305Y-117704100D01*
X128918306Y-117704100D01*
X129145694Y-117704100D01*
X129145695Y-117704100D01*
X129369985Y-117666672D01*
X129585055Y-117592839D01*
X129785039Y-117484612D01*
X129964483Y-117344946D01*
X130118490Y-117177649D01*
X130198191Y-117055656D01*
X130251337Y-117010300D01*
X130320568Y-117000876D01*
X130383904Y-117030378D01*
X130405809Y-117055657D01*
X130485505Y-117177643D01*
X130485507Y-117177645D01*
X130485510Y-117177649D01*
X130639517Y-117344946D01*
X130639521Y-117344949D01*
X130639524Y-117344952D01*
X130818952Y-117484606D01*
X130818967Y-117484616D01*
X130935499Y-117547680D01*
X131018945Y-117592839D01*
X131234015Y-117666672D01*
X131458305Y-117704100D01*
X131458306Y-117704100D01*
X131685694Y-117704100D01*
X131685695Y-117704100D01*
X131909985Y-117666672D01*
X132125055Y-117592839D01*
X132325039Y-117484612D01*
X132504483Y-117344946D01*
X132658490Y-117177649D01*
X132782861Y-116987285D01*
X132874203Y-116779047D01*
X132930024Y-116558614D01*
X132948802Y-116332000D01*
X132930024Y-116105386D01*
X132874203Y-115884953D01*
X132782861Y-115676715D01*
X132771996Y-115660085D01*
X132733691Y-115601453D01*
X132713503Y-115534563D01*
X132713500Y-115533632D01*
X132713500Y-107376187D01*
X137314500Y-107376187D01*
X137325801Y-107451161D01*
X137353604Y-107635615D01*
X137353605Y-107635617D01*
X137353606Y-107635623D01*
X137430938Y-107886326D01*
X137544767Y-108122696D01*
X137544768Y-108122697D01*
X137544770Y-108122700D01*
X137544772Y-108122704D01*
X137692567Y-108339479D01*
X137871014Y-108531801D01*
X137871018Y-108531804D01*
X137871019Y-108531805D01*
X138076143Y-108695386D01*
X138303357Y-108826568D01*
X138547584Y-108922420D01*
X138803370Y-108980802D01*
X138803376Y-108980802D01*
X138803379Y-108980803D01*
X138999500Y-108995500D01*
X138999506Y-108995500D01*
X139130500Y-108995500D01*
X139326620Y-108980803D01*
X139326622Y-108980802D01*
X139326630Y-108980802D01*
X139582416Y-108922420D01*
X139826643Y-108826568D01*
X140053857Y-108695386D01*
X140258981Y-108531805D01*
X140437433Y-108339479D01*
X140585228Y-108122704D01*
X140699063Y-107886323D01*
X140776396Y-107635615D01*
X140804948Y-107446187D01*
X150649500Y-107446187D01*
X150665084Y-107549572D01*
X150688604Y-107705615D01*
X150688605Y-107705617D01*
X150688606Y-107705623D01*
X150765938Y-107956326D01*
X150879767Y-108192696D01*
X150879768Y-108192697D01*
X150879770Y-108192700D01*
X150879772Y-108192704D01*
X151017791Y-108395140D01*
X151027567Y-108409479D01*
X151206014Y-108601801D01*
X151206018Y-108601804D01*
X151206019Y-108601805D01*
X151411143Y-108765386D01*
X151638357Y-108896568D01*
X151882584Y-108992420D01*
X152138370Y-109050802D01*
X152138376Y-109050802D01*
X152138379Y-109050803D01*
X152334500Y-109065500D01*
X152334506Y-109065500D01*
X152465500Y-109065500D01*
X152661620Y-109050803D01*
X152661622Y-109050802D01*
X152661630Y-109050802D01*
X152917416Y-108992420D01*
X153161643Y-108896568D01*
X153388857Y-108765386D01*
X153593981Y-108601805D01*
X153772433Y-108409479D01*
X153920228Y-108192704D01*
X154034063Y-107956323D01*
X154111396Y-107705615D01*
X154150500Y-107446182D01*
X154150500Y-107183818D01*
X154111396Y-106924385D01*
X154034063Y-106673677D01*
X153986557Y-106575030D01*
X153920232Y-106437303D01*
X153920231Y-106437302D01*
X153920230Y-106437301D01*
X153920228Y-106437296D01*
X153772433Y-106220521D01*
X153727408Y-106171995D01*
X153593985Y-106028198D01*
X153507854Y-105959511D01*
X153388857Y-105864614D01*
X153161643Y-105733432D01*
X152917416Y-105637580D01*
X152917411Y-105637578D01*
X152917402Y-105637576D01*
X152675746Y-105582420D01*
X152661630Y-105579198D01*
X152661629Y-105579197D01*
X152661625Y-105579197D01*
X152661620Y-105579196D01*
X152465500Y-105564500D01*
X152465494Y-105564500D01*
X152334506Y-105564500D01*
X152334500Y-105564500D01*
X152138379Y-105579196D01*
X152138374Y-105579197D01*
X151882597Y-105637576D01*
X151882578Y-105637582D01*
X151638356Y-105733432D01*
X151411143Y-105864614D01*
X151206014Y-106028198D01*
X151027567Y-106220520D01*
X150879768Y-106437302D01*
X150879767Y-106437303D01*
X150765938Y-106673673D01*
X150688606Y-106924376D01*
X150688605Y-106924381D01*
X150688604Y-106924385D01*
X150678146Y-106993766D01*
X150649500Y-107183812D01*
X150649500Y-107446187D01*
X140804948Y-107446187D01*
X140815500Y-107376182D01*
X140815500Y-107113818D01*
X140776396Y-106854385D01*
X140699063Y-106603677D01*
X140685267Y-106575030D01*
X140585232Y-106367303D01*
X140585231Y-106367302D01*
X140585230Y-106367301D01*
X140585228Y-106367296D01*
X140437433Y-106150521D01*
X140374309Y-106082489D01*
X140258985Y-105958198D01*
X140217306Y-105924960D01*
X140053857Y-105794614D01*
X139826643Y-105663432D01*
X139582416Y-105567580D01*
X139582411Y-105567578D01*
X139582402Y-105567576D01*
X139364818Y-105517914D01*
X139326630Y-105509198D01*
X139326629Y-105509197D01*
X139326625Y-105509197D01*
X139326620Y-105509196D01*
X139130500Y-105494500D01*
X139130494Y-105494500D01*
X138999506Y-105494500D01*
X138999500Y-105494500D01*
X138803379Y-105509196D01*
X138803374Y-105509197D01*
X138547597Y-105567576D01*
X138547578Y-105567582D01*
X138303356Y-105663432D01*
X138076143Y-105794614D01*
X137871014Y-105958198D01*
X137692567Y-106150520D01*
X137617925Y-106260000D01*
X137547184Y-106363759D01*
X137544768Y-106367302D01*
X137544767Y-106367303D01*
X137430938Y-106603673D01*
X137353606Y-106854376D01*
X137353605Y-106854381D01*
X137353604Y-106854385D01*
X137343053Y-106924385D01*
X137314500Y-107113812D01*
X137314500Y-107376187D01*
X132713500Y-107376187D01*
X132713500Y-103553616D01*
X132733185Y-103486577D01*
X132785989Y-103440822D01*
X132837500Y-103429616D01*
X132842004Y-103429616D01*
X133023041Y-103409218D01*
X133023044Y-103409217D01*
X133023047Y-103409217D01*
X133195015Y-103349043D01*
X133349281Y-103252111D01*
X133478111Y-103123281D01*
X133575043Y-102969015D01*
X133635217Y-102797047D01*
X133640309Y-102751851D01*
X133667374Y-102687439D01*
X133675838Y-102678064D01*
X137141114Y-99212788D01*
X137202435Y-99179305D01*
X137272127Y-99184289D01*
X137328060Y-99226161D01*
X137352477Y-99291625D01*
X137351408Y-99318953D01*
X137314500Y-99563812D01*
X137314500Y-99826187D01*
X137330084Y-99929572D01*
X137353604Y-100085615D01*
X137353605Y-100085617D01*
X137353606Y-100085623D01*
X137430938Y-100336326D01*
X137544767Y-100572696D01*
X137544768Y-100572697D01*
X137544770Y-100572700D01*
X137544772Y-100572704D01*
X137649860Y-100726839D01*
X137692567Y-100789479D01*
X137871014Y-100981801D01*
X137871018Y-100981804D01*
X137871019Y-100981805D01*
X138076143Y-101145386D01*
X138303357Y-101276568D01*
X138547584Y-101372420D01*
X138803370Y-101430802D01*
X138803376Y-101430802D01*
X138803379Y-101430803D01*
X138999500Y-101445500D01*
X138999506Y-101445500D01*
X139130500Y-101445500D01*
X139326620Y-101430803D01*
X139326622Y-101430802D01*
X139326630Y-101430802D01*
X139582416Y-101372420D01*
X139826643Y-101276568D01*
X140053857Y-101145386D01*
X140258981Y-100981805D01*
X140437433Y-100789479D01*
X140585228Y-100572704D01*
X140699063Y-100336323D01*
X140776396Y-100085615D01*
X140804948Y-99896187D01*
X150649500Y-99896187D01*
X150669794Y-100030823D01*
X150688604Y-100155615D01*
X150688605Y-100155617D01*
X150688606Y-100155623D01*
X150765938Y-100406326D01*
X150879767Y-100642696D01*
X150879768Y-100642697D01*
X150879770Y-100642700D01*
X150879772Y-100642704D01*
X150970066Y-100775140D01*
X151027567Y-100859479D01*
X151206014Y-101051801D01*
X151206018Y-101051804D01*
X151206019Y-101051805D01*
X151411143Y-101215386D01*
X151638357Y-101346568D01*
X151882584Y-101442420D01*
X152138370Y-101500802D01*
X152138376Y-101500802D01*
X152138379Y-101500803D01*
X152334500Y-101515500D01*
X152334506Y-101515500D01*
X152465500Y-101515500D01*
X152661620Y-101500803D01*
X152661622Y-101500802D01*
X152661630Y-101500802D01*
X152917416Y-101442420D01*
X153161643Y-101346568D01*
X153388857Y-101215386D01*
X153593981Y-101051805D01*
X153772433Y-100859479D01*
X153920228Y-100642704D01*
X154034063Y-100406323D01*
X154111396Y-100155615D01*
X154150500Y-99896182D01*
X154150500Y-99633818D01*
X154111396Y-99374385D01*
X154034063Y-99123677D01*
X153986140Y-99024163D01*
X153920232Y-98887303D01*
X153920231Y-98887302D01*
X153920230Y-98887301D01*
X153920228Y-98887296D01*
X153772433Y-98670521D01*
X153730152Y-98624953D01*
X153593985Y-98478198D01*
X153515538Y-98415639D01*
X153388857Y-98314614D01*
X153161643Y-98183432D01*
X152917416Y-98087580D01*
X152917411Y-98087578D01*
X152917402Y-98087576D01*
X152679895Y-98033367D01*
X152661630Y-98029198D01*
X152661629Y-98029197D01*
X152661625Y-98029197D01*
X152661620Y-98029196D01*
X152465500Y-98014500D01*
X152465494Y-98014500D01*
X152334506Y-98014500D01*
X152334500Y-98014500D01*
X152138379Y-98029196D01*
X152138374Y-98029197D01*
X151882597Y-98087576D01*
X151882578Y-98087582D01*
X151638356Y-98183432D01*
X151411143Y-98314614D01*
X151206014Y-98478198D01*
X151027567Y-98670520D01*
X150879768Y-98887302D01*
X150879767Y-98887303D01*
X150765938Y-99123673D01*
X150688606Y-99374376D01*
X150688605Y-99374381D01*
X150688604Y-99374385D01*
X150673853Y-99472247D01*
X150649500Y-99633812D01*
X150649500Y-99896187D01*
X140804948Y-99896187D01*
X140815500Y-99826182D01*
X140815500Y-99563818D01*
X140776396Y-99304385D01*
X140699063Y-99053677D01*
X140666976Y-98987047D01*
X140585232Y-98817303D01*
X140585231Y-98817302D01*
X140585230Y-98817301D01*
X140585228Y-98817296D01*
X140437433Y-98600521D01*
X140426331Y-98588556D01*
X140258985Y-98408198D01*
X140160065Y-98329312D01*
X140053857Y-98244614D01*
X139826643Y-98113432D01*
X139582416Y-98017580D01*
X139582411Y-98017578D01*
X139582402Y-98017576D01*
X139364818Y-97967914D01*
X139326630Y-97959198D01*
X139326629Y-97959197D01*
X139326625Y-97959197D01*
X139326620Y-97959196D01*
X139130500Y-97944500D01*
X139130494Y-97944500D01*
X138999506Y-97944500D01*
X138999500Y-97944500D01*
X138803379Y-97959196D01*
X138803374Y-97959197D01*
X138693464Y-97984283D01*
X138623725Y-97980009D01*
X138567368Y-97938711D01*
X138542285Y-97873498D01*
X138556440Y-97805078D01*
X138578188Y-97775714D01*
X143609815Y-92744087D01*
X143622180Y-92734183D01*
X143622006Y-92733973D01*
X143628012Y-92729003D01*
X143628018Y-92729000D01*
X143675999Y-92677904D01*
X143697135Y-92656769D01*
X143701458Y-92651195D01*
X143705257Y-92646747D01*
X143737585Y-92612322D01*
X143737786Y-92611958D01*
X143747420Y-92594430D01*
X143758098Y-92578174D01*
X143770614Y-92562040D01*
X143789374Y-92518686D01*
X143791935Y-92513458D01*
X143814695Y-92472060D01*
X143819774Y-92452274D01*
X143826072Y-92433882D01*
X143834181Y-92415145D01*
X143841569Y-92368497D01*
X143842751Y-92362786D01*
X143854500Y-92317030D01*
X143854500Y-92296615D01*
X143856027Y-92277214D01*
X143856229Y-92275938D01*
X143859220Y-92257057D01*
X143854775Y-92210033D01*
X143854500Y-92204195D01*
X143854500Y-87966005D01*
X152204844Y-87966005D01*
X152223434Y-88190359D01*
X152223436Y-88190371D01*
X152278703Y-88408614D01*
X152369140Y-88614792D01*
X152492276Y-88803265D01*
X152492284Y-88803276D01*
X152644756Y-88968902D01*
X152644760Y-88968906D01*
X152822424Y-89107189D01*
X152822425Y-89107189D01*
X152822427Y-89107191D01*
X152886285Y-89141749D01*
X153020426Y-89214342D01*
X153233365Y-89287444D01*
X153455431Y-89324500D01*
X153680569Y-89324500D01*
X153902635Y-89287444D01*
X154115574Y-89214342D01*
X154313576Y-89107189D01*
X154491240Y-88968906D01*
X154610785Y-88839047D01*
X154643715Y-88803276D01*
X154643716Y-88803274D01*
X154643722Y-88803268D01*
X154766860Y-88614791D01*
X154857296Y-88408616D01*
X154912564Y-88190368D01*
X154913691Y-88176769D01*
X154931156Y-87966005D01*
X154931156Y-87965994D01*
X154912565Y-87741640D01*
X154912563Y-87741628D01*
X154857296Y-87523385D01*
X154856949Y-87522595D01*
X154766860Y-87317209D01*
X154643722Y-87128732D01*
X154643719Y-87128729D01*
X154643715Y-87128723D01*
X154491243Y-86963097D01*
X154491238Y-86963092D01*
X154313577Y-86824812D01*
X154313578Y-86824812D01*
X154313576Y-86824811D01*
X154277070Y-86805055D01*
X154227479Y-86755836D01*
X154212371Y-86687619D01*
X154236541Y-86622064D01*
X154277070Y-86586945D01*
X154278788Y-86586015D01*
X154313576Y-86567189D01*
X154491240Y-86428906D01*
X154610785Y-86299047D01*
X154643715Y-86263276D01*
X154643716Y-86263274D01*
X154643722Y-86263268D01*
X154766860Y-86074791D01*
X154857296Y-85868616D01*
X154912564Y-85650368D01*
X154912565Y-85650359D01*
X154931156Y-85426005D01*
X154931156Y-85425994D01*
X154912565Y-85201640D01*
X154912563Y-85201628D01*
X154857296Y-84983385D01*
X154849184Y-84964892D01*
X154766860Y-84777209D01*
X154643722Y-84588732D01*
X154643719Y-84588729D01*
X154643715Y-84588723D01*
X154491243Y-84423097D01*
X154491238Y-84423092D01*
X154313577Y-84284812D01*
X154313578Y-84284812D01*
X154313576Y-84284811D01*
X154277070Y-84265055D01*
X154227479Y-84215836D01*
X154212371Y-84147619D01*
X154236541Y-84082064D01*
X154277070Y-84046945D01*
X154278659Y-84046085D01*
X154313576Y-84027189D01*
X154491240Y-83888906D01*
X154597811Y-83773140D01*
X154643715Y-83723276D01*
X154643716Y-83723274D01*
X154643722Y-83723268D01*
X154766860Y-83534791D01*
X154857296Y-83328616D01*
X154912564Y-83110368D01*
X154914634Y-83085386D01*
X154931156Y-82886005D01*
X154931156Y-82885994D01*
X154912565Y-82661640D01*
X154912563Y-82661628D01*
X154877830Y-82524472D01*
X154857296Y-82443384D01*
X154766860Y-82237209D01*
X154744449Y-82202907D01*
X154678973Y-82102688D01*
X154643722Y-82048732D01*
X154643719Y-82048729D01*
X154643715Y-82048723D01*
X154491243Y-81883097D01*
X154491238Y-81883092D01*
X154313577Y-81744812D01*
X154313577Y-81744811D01*
X154270303Y-81721393D01*
X154220713Y-81672173D01*
X154205605Y-81603957D01*
X154229775Y-81538401D01*
X154258198Y-81510763D01*
X154329373Y-81460925D01*
X153700533Y-80832086D01*
X153710315Y-80830680D01*
X153841100Y-80770952D01*
X153949761Y-80676798D01*
X154027493Y-80555844D01*
X154051076Y-80475524D01*
X154682925Y-81107373D01*
X154682926Y-81107373D01*
X154741598Y-81023582D01*
X154741600Y-81023578D01*
X154841429Y-80809492D01*
X154841433Y-80809483D01*
X154902567Y-80581326D01*
X154902569Y-80581315D01*
X154923157Y-80346001D01*
X154923157Y-80345998D01*
X154902569Y-80110684D01*
X154902567Y-80110673D01*
X154841433Y-79882516D01*
X154841429Y-79882507D01*
X154741600Y-79668423D01*
X154741599Y-79668421D01*
X154682925Y-79584626D01*
X154682925Y-79584625D01*
X154051076Y-80216475D01*
X154027493Y-80136156D01*
X153949761Y-80015202D01*
X153841100Y-79921048D01*
X153710315Y-79861320D01*
X153700533Y-79859913D01*
X154329373Y-79231073D01*
X154329373Y-79231072D01*
X154245583Y-79172402D01*
X154245579Y-79172400D01*
X154031492Y-79072570D01*
X154031483Y-79072566D01*
X153803326Y-79011432D01*
X153803315Y-79011430D01*
X153568002Y-78990843D01*
X153567998Y-78990843D01*
X153332684Y-79011430D01*
X153332673Y-79011432D01*
X153104516Y-79072566D01*
X153104507Y-79072570D01*
X152890419Y-79172401D01*
X152806625Y-79231072D01*
X153435466Y-79859913D01*
X153425685Y-79861320D01*
X153294900Y-79921048D01*
X153186239Y-80015202D01*
X153108507Y-80136156D01*
X153084923Y-80216476D01*
X152453072Y-79584625D01*
X152394401Y-79668419D01*
X152294570Y-79882507D01*
X152294566Y-79882516D01*
X152233432Y-80110673D01*
X152233430Y-80110684D01*
X152212843Y-80345998D01*
X152212843Y-80346001D01*
X152233430Y-80581315D01*
X152233432Y-80581326D01*
X152294566Y-80809483D01*
X152294570Y-80809492D01*
X152394400Y-81023579D01*
X152394402Y-81023583D01*
X152453072Y-81107373D01*
X152453073Y-81107373D01*
X153084923Y-80475523D01*
X153108507Y-80555844D01*
X153186239Y-80676798D01*
X153294900Y-80770952D01*
X153425685Y-80830680D01*
X153435466Y-80832086D01*
X152806625Y-81460925D01*
X152877801Y-81510763D01*
X152921426Y-81565340D01*
X152928620Y-81634838D01*
X152897097Y-81697193D01*
X152865697Y-81721392D01*
X152822427Y-81744809D01*
X152822422Y-81744812D01*
X152644761Y-81883092D01*
X152644756Y-81883097D01*
X152492284Y-82048723D01*
X152492276Y-82048734D01*
X152369140Y-82237207D01*
X152278703Y-82443385D01*
X152223436Y-82661628D01*
X152223434Y-82661640D01*
X152204844Y-82885994D01*
X152204844Y-82886005D01*
X152223434Y-83110359D01*
X152223436Y-83110371D01*
X152278703Y-83328614D01*
X152369140Y-83534792D01*
X152492276Y-83723265D01*
X152492284Y-83723276D01*
X152644756Y-83888902D01*
X152644761Y-83888907D01*
X152663672Y-83903626D01*
X152822424Y-84027189D01*
X152822429Y-84027191D01*
X152822431Y-84027193D01*
X152858930Y-84046946D01*
X152908520Y-84096165D01*
X152923628Y-84164382D01*
X152899457Y-84229937D01*
X152858930Y-84265054D01*
X152822431Y-84284806D01*
X152822422Y-84284812D01*
X152644761Y-84423092D01*
X152644756Y-84423097D01*
X152492284Y-84588723D01*
X152492276Y-84588734D01*
X152369140Y-84777207D01*
X152278703Y-84983385D01*
X152223436Y-85201628D01*
X152223434Y-85201640D01*
X152204844Y-85425994D01*
X152204844Y-85426005D01*
X152223434Y-85650359D01*
X152223436Y-85650371D01*
X152278703Y-85868614D01*
X152369140Y-86074792D01*
X152492276Y-86263265D01*
X152492284Y-86263276D01*
X152644756Y-86428902D01*
X152644760Y-86428906D01*
X152822424Y-86567189D01*
X152822429Y-86567191D01*
X152822431Y-86567193D01*
X152858930Y-86586946D01*
X152908520Y-86636165D01*
X152923628Y-86704382D01*
X152899457Y-86769937D01*
X152858930Y-86805054D01*
X152822431Y-86824806D01*
X152822422Y-86824812D01*
X152644761Y-86963092D01*
X152644756Y-86963097D01*
X152492284Y-87128723D01*
X152492276Y-87128734D01*
X152369140Y-87317207D01*
X152278703Y-87523385D01*
X152223436Y-87741628D01*
X152223434Y-87741640D01*
X152204844Y-87965994D01*
X152204844Y-87966005D01*
X143854500Y-87966005D01*
X143854500Y-61554765D01*
X143874185Y-61487726D01*
X143890814Y-61467089D01*
X148759009Y-56598893D01*
X148820330Y-56565410D01*
X148877143Y-56566374D01*
X148881356Y-56567441D01*
X148881365Y-56567444D01*
X149103431Y-56604500D01*
X149328569Y-56604500D01*
X149550635Y-56567444D01*
X149763574Y-56494342D01*
X149961576Y-56387189D01*
X150139240Y-56248906D01*
X150282512Y-56093273D01*
X150291715Y-56083276D01*
X150291717Y-56083273D01*
X150291722Y-56083268D01*
X150414860Y-55894791D01*
X150505296Y-55688616D01*
X150560564Y-55470368D01*
X150578327Y-55256005D01*
X150579156Y-55246005D01*
X150579156Y-55245994D01*
X150560565Y-55021640D01*
X150560563Y-55021628D01*
X150557876Y-55011018D01*
X150505296Y-54803384D01*
X150414860Y-54597209D01*
X150398706Y-54572484D01*
X150300609Y-54422335D01*
X150291722Y-54408732D01*
X150291719Y-54408729D01*
X150291715Y-54408723D01*
X150139243Y-54243097D01*
X150139238Y-54243092D01*
X149964636Y-54107193D01*
X149961576Y-54104811D01*
X149961575Y-54104810D01*
X149961572Y-54104808D01*
X149763580Y-53997661D01*
X149763577Y-53997659D01*
X149763574Y-53997658D01*
X149763571Y-53997657D01*
X149763569Y-53997656D01*
X149550637Y-53924556D01*
X149328569Y-53887500D01*
X149103431Y-53887500D01*
X148881362Y-53924556D01*
X148668430Y-53997656D01*
X148668419Y-53997661D01*
X148470427Y-54104808D01*
X148470422Y-54104812D01*
X148292761Y-54243092D01*
X148292756Y-54243097D01*
X148140284Y-54408723D01*
X148140276Y-54408734D01*
X148049808Y-54547206D01*
X147996662Y-54592562D01*
X147927431Y-54601986D01*
X147864095Y-54572484D01*
X147842192Y-54547206D01*
X147760609Y-54422335D01*
X147751722Y-54408732D01*
X147751719Y-54408729D01*
X147751715Y-54408723D01*
X147599243Y-54243097D01*
X147599238Y-54243092D01*
X147424636Y-54107193D01*
X147421576Y-54104811D01*
X147421575Y-54104810D01*
X147421572Y-54104808D01*
X147223580Y-53997661D01*
X147223577Y-53997659D01*
X147223574Y-53997658D01*
X147223571Y-53997657D01*
X147223569Y-53997656D01*
X147010637Y-53924556D01*
X146788569Y-53887500D01*
X146563431Y-53887500D01*
X146341362Y-53924556D01*
X146128430Y-53997656D01*
X146128419Y-53997661D01*
X145930427Y-54104808D01*
X145930422Y-54104812D01*
X145752761Y-54243092D01*
X145752756Y-54243097D01*
X145600284Y-54408723D01*
X145600276Y-54408734D01*
X145509808Y-54547206D01*
X145456662Y-54592562D01*
X145387431Y-54601986D01*
X145324095Y-54572484D01*
X145302192Y-54547206D01*
X145220609Y-54422335D01*
X145211722Y-54408732D01*
X145211719Y-54408729D01*
X145211715Y-54408723D01*
X145059243Y-54243097D01*
X145059238Y-54243092D01*
X144884636Y-54107193D01*
X144881576Y-54104811D01*
X144881575Y-54104810D01*
X144881572Y-54104808D01*
X144683580Y-53997661D01*
X144683577Y-53997659D01*
X144683574Y-53997658D01*
X144683571Y-53997657D01*
X144683569Y-53997656D01*
X144470637Y-53924556D01*
X144248569Y-53887500D01*
X144023431Y-53887500D01*
X143801362Y-53924556D01*
X143588430Y-53997656D01*
X143588419Y-53997661D01*
X143390427Y-54104808D01*
X143390415Y-54104816D01*
X143263879Y-54203304D01*
X143198885Y-54228947D01*
X143130345Y-54215381D01*
X143100036Y-54193132D01*
X142043088Y-53136183D01*
X142033187Y-53123823D01*
X142032977Y-53123998D01*
X142028002Y-53117986D01*
X142028000Y-53117982D01*
X141992345Y-53084500D01*
X141976921Y-53070015D01*
X141955768Y-53048863D01*
X141953792Y-53047331D01*
X141950183Y-53044531D01*
X141945750Y-53040744D01*
X141911321Y-53008414D01*
X141911319Y-53008412D01*
X141893431Y-52998578D01*
X141877170Y-52987897D01*
X141861039Y-52975384D01*
X141817693Y-52956627D01*
X141812445Y-52954056D01*
X141785251Y-52939106D01*
X141771060Y-52931305D01*
X141767660Y-52930432D01*
X141751287Y-52926228D01*
X141732881Y-52919926D01*
X141714144Y-52911818D01*
X141714146Y-52911818D01*
X141667496Y-52904430D01*
X141661781Y-52903246D01*
X141641612Y-52898068D01*
X141616032Y-52891500D01*
X141616030Y-52891500D01*
X141595616Y-52891500D01*
X141576217Y-52889973D01*
X141556058Y-52886780D01*
X141556057Y-52886780D01*
X141509034Y-52891225D01*
X141503196Y-52891500D01*
X136965767Y-52891500D01*
X136898728Y-52871815D01*
X136878086Y-52855181D01*
X136805087Y-52782182D01*
X136795180Y-52769816D01*
X136794971Y-52769990D01*
X136790003Y-52763984D01*
X136738921Y-52716016D01*
X136717768Y-52694863D01*
X136715792Y-52693331D01*
X136712183Y-52690531D01*
X136707750Y-52686744D01*
X136673321Y-52654414D01*
X136673319Y-52654412D01*
X136655431Y-52644578D01*
X136639170Y-52633897D01*
X136623039Y-52621384D01*
X136579693Y-52602627D01*
X136574445Y-52600056D01*
X136547251Y-52585106D01*
X136533060Y-52577305D01*
X136529660Y-52576432D01*
X136513287Y-52572228D01*
X136494881Y-52565926D01*
X136476144Y-52557818D01*
X136476146Y-52557818D01*
X136429496Y-52550430D01*
X136423781Y-52549246D01*
X136403612Y-52544068D01*
X136378032Y-52537500D01*
X136378030Y-52537500D01*
X136357616Y-52537500D01*
X136338217Y-52535973D01*
X136318058Y-52532780D01*
X136318057Y-52532780D01*
X136271034Y-52537225D01*
X136265196Y-52537500D01*
X104919767Y-52537500D01*
X104852728Y-52517815D01*
X104832086Y-52501181D01*
X103066905Y-50736000D01*
X140094835Y-50736000D01*
X140113465Y-50972714D01*
X140168895Y-51203595D01*
X140168895Y-51203597D01*
X140259757Y-51422959D01*
X140259759Y-51422962D01*
X140383820Y-51625410D01*
X140383821Y-51625413D01*
X140383824Y-51625416D01*
X140538031Y-51805969D01*
X140638112Y-51891446D01*
X140718586Y-51960178D01*
X140718588Y-51960178D01*
X140813570Y-52018384D01*
X140921037Y-52084240D01*
X140921040Y-52084242D01*
X141140403Y-52175104D01*
X141140404Y-52175104D01*
X141140406Y-52175105D01*
X141371289Y-52230535D01*
X141608000Y-52249165D01*
X141844711Y-52230535D01*
X142075594Y-52175105D01*
X142075596Y-52175104D01*
X142075597Y-52175104D01*
X142294959Y-52084242D01*
X142294960Y-52084241D01*
X142294963Y-52084240D01*
X142497416Y-51960176D01*
X142677969Y-51805969D01*
X142832176Y-51625416D01*
X142956240Y-51422963D01*
X142959100Y-51416060D01*
X143047104Y-51203597D01*
X143047104Y-51203596D01*
X143047105Y-51203594D01*
X143102535Y-50972711D01*
X143121165Y-50736000D01*
X146594835Y-50736000D01*
X146613465Y-50972714D01*
X146668895Y-51203595D01*
X146668895Y-51203597D01*
X146759757Y-51422959D01*
X146759759Y-51422962D01*
X146883820Y-51625410D01*
X146883821Y-51625413D01*
X146883824Y-51625416D01*
X147038031Y-51805969D01*
X147138112Y-51891446D01*
X147218586Y-51960178D01*
X147218588Y-51960178D01*
X147313570Y-52018384D01*
X147421037Y-52084240D01*
X147421040Y-52084242D01*
X147640403Y-52175104D01*
X147640404Y-52175104D01*
X147640406Y-52175105D01*
X147871289Y-52230535D01*
X148108000Y-52249165D01*
X148344711Y-52230535D01*
X148575594Y-52175105D01*
X148575596Y-52175104D01*
X148575597Y-52175104D01*
X148794959Y-52084242D01*
X148794960Y-52084241D01*
X148794963Y-52084240D01*
X148997416Y-51960176D01*
X149177969Y-51805969D01*
X149332176Y-51625416D01*
X149456240Y-51422963D01*
X149459100Y-51416060D01*
X149547104Y-51203597D01*
X149547104Y-51203596D01*
X149547105Y-51203594D01*
X149602535Y-50972711D01*
X149621165Y-50736000D01*
X149602535Y-50499289D01*
X149547105Y-50268406D01*
X149547104Y-50268403D01*
X149547104Y-50268402D01*
X149456242Y-50049040D01*
X149456240Y-50049037D01*
X149332179Y-49846589D01*
X149332178Y-49846586D01*
X149297340Y-49805797D01*
X149177969Y-49666031D01*
X149058596Y-49564076D01*
X148997413Y-49511821D01*
X148997410Y-49511820D01*
X148794962Y-49387759D01*
X148794959Y-49387757D01*
X148575596Y-49296895D01*
X148344714Y-49241465D01*
X148108000Y-49222835D01*
X147871285Y-49241465D01*
X147640404Y-49296895D01*
X147640402Y-49296895D01*
X147421040Y-49387757D01*
X147421037Y-49387759D01*
X147218589Y-49511820D01*
X147218586Y-49511821D01*
X147038031Y-49666031D01*
X146883821Y-49846586D01*
X146883820Y-49846589D01*
X146759759Y-50049037D01*
X146759757Y-50049040D01*
X146668895Y-50268402D01*
X146668895Y-50268404D01*
X146613465Y-50499285D01*
X146594835Y-50736000D01*
X143121165Y-50736000D01*
X143102535Y-50499289D01*
X143047105Y-50268406D01*
X143047104Y-50268403D01*
X143047104Y-50268402D01*
X142956242Y-50049040D01*
X142956240Y-50049037D01*
X142832179Y-49846589D01*
X142832178Y-49846586D01*
X142797340Y-49805797D01*
X142677969Y-49666031D01*
X142558596Y-49564076D01*
X142497413Y-49511821D01*
X142497410Y-49511820D01*
X142294962Y-49387759D01*
X142294959Y-49387757D01*
X142075596Y-49296895D01*
X141844714Y-49241465D01*
X141608000Y-49222835D01*
X141371285Y-49241465D01*
X141140404Y-49296895D01*
X141140402Y-49296895D01*
X140921040Y-49387757D01*
X140921037Y-49387759D01*
X140718589Y-49511820D01*
X140718586Y-49511821D01*
X140538031Y-49666031D01*
X140383821Y-49846586D01*
X140383820Y-49846589D01*
X140259759Y-50049037D01*
X140259757Y-50049040D01*
X140168895Y-50268402D01*
X140168895Y-50268404D01*
X140113465Y-50499285D01*
X140094835Y-50736000D01*
X103066905Y-50736000D01*
X98566905Y-46236000D01*
X140094835Y-46236000D01*
X140113465Y-46472714D01*
X140168895Y-46703595D01*
X140168895Y-46703597D01*
X140259757Y-46922959D01*
X140259759Y-46922962D01*
X140383820Y-47125410D01*
X140383821Y-47125413D01*
X140383824Y-47125416D01*
X140538031Y-47305969D01*
X140677797Y-47425340D01*
X140718586Y-47460178D01*
X140718589Y-47460179D01*
X140921037Y-47584240D01*
X140921040Y-47584242D01*
X141140403Y-47675104D01*
X141140404Y-47675104D01*
X141140406Y-47675105D01*
X141371289Y-47730535D01*
X141608000Y-47749165D01*
X141844711Y-47730535D01*
X142075594Y-47675105D01*
X142075596Y-47675104D01*
X142075597Y-47675104D01*
X142294959Y-47584242D01*
X142294960Y-47584241D01*
X142294963Y-47584240D01*
X142497416Y-47460176D01*
X142677969Y-47305969D01*
X142832176Y-47125416D01*
X142956240Y-46922963D01*
X143047105Y-46703594D01*
X143102535Y-46472711D01*
X143121165Y-46236000D01*
X146594835Y-46236000D01*
X146613465Y-46472714D01*
X146668895Y-46703595D01*
X146668895Y-46703597D01*
X146759757Y-46922959D01*
X146759759Y-46922962D01*
X146883820Y-47125410D01*
X146883821Y-47125413D01*
X146883824Y-47125416D01*
X147038031Y-47305969D01*
X147177797Y-47425340D01*
X147218586Y-47460178D01*
X147218589Y-47460179D01*
X147421037Y-47584240D01*
X147421040Y-47584242D01*
X147640403Y-47675104D01*
X147640404Y-47675104D01*
X147640406Y-47675105D01*
X147871289Y-47730535D01*
X148108000Y-47749165D01*
X148344711Y-47730535D01*
X148575594Y-47675105D01*
X148575596Y-47675104D01*
X148575597Y-47675104D01*
X148794959Y-47584242D01*
X148794960Y-47584241D01*
X148794963Y-47584240D01*
X148997416Y-47460176D01*
X149177969Y-47305969D01*
X149332176Y-47125416D01*
X149456240Y-46922963D01*
X149547105Y-46703594D01*
X149602535Y-46472711D01*
X149621165Y-46236000D01*
X149602535Y-45999289D01*
X149547105Y-45768406D01*
X149547104Y-45768403D01*
X149547104Y-45768402D01*
X149456242Y-45549040D01*
X149456240Y-45549037D01*
X149334483Y-45350349D01*
X149332178Y-45346588D01*
X149332178Y-45346586D01*
X149281522Y-45287276D01*
X149177969Y-45166031D01*
X149058596Y-45064076D01*
X148997413Y-45011821D01*
X148997410Y-45011820D01*
X148794960Y-44887758D01*
X148794959Y-44887757D01*
X148575596Y-44796895D01*
X148344714Y-44741465D01*
X148108000Y-44722835D01*
X147871285Y-44741465D01*
X147640404Y-44796895D01*
X147640402Y-44796895D01*
X147421040Y-44887757D01*
X147421040Y-44887758D01*
X147218589Y-45011820D01*
X147218586Y-45011821D01*
X147038031Y-45166031D01*
X146883821Y-45346586D01*
X146883820Y-45346589D01*
X146759759Y-45549037D01*
X146759757Y-45549040D01*
X146668895Y-45768402D01*
X146668895Y-45768404D01*
X146613465Y-45999285D01*
X146594835Y-46236000D01*
X143121165Y-46236000D01*
X143102535Y-45999289D01*
X143047105Y-45768406D01*
X143047104Y-45768403D01*
X143047104Y-45768402D01*
X142956242Y-45549040D01*
X142956240Y-45549037D01*
X142834483Y-45350349D01*
X142832178Y-45346588D01*
X142832178Y-45346586D01*
X142781522Y-45287276D01*
X142677969Y-45166031D01*
X142558596Y-45064076D01*
X142497413Y-45011821D01*
X142497410Y-45011820D01*
X142294960Y-44887758D01*
X142294959Y-44887757D01*
X142075596Y-44796895D01*
X141844714Y-44741465D01*
X141608000Y-44722835D01*
X141371285Y-44741465D01*
X141140404Y-44796895D01*
X141140402Y-44796895D01*
X140921040Y-44887757D01*
X140921040Y-44887758D01*
X140718589Y-45011820D01*
X140718586Y-45011821D01*
X140538031Y-45166031D01*
X140383821Y-45346586D01*
X140383820Y-45346589D01*
X140259759Y-45549037D01*
X140259757Y-45549040D01*
X140168895Y-45768402D01*
X140168895Y-45768404D01*
X140113465Y-45999285D01*
X140094835Y-46236000D01*
X98566905Y-46236000D01*
X97234062Y-44903157D01*
X97200577Y-44841834D01*
X97201537Y-44785038D01*
X97229564Y-44674368D01*
X97248156Y-44450005D01*
X102141844Y-44450005D01*
X102160434Y-44674359D01*
X102160436Y-44674371D01*
X102215703Y-44892614D01*
X102306140Y-45098792D01*
X102429276Y-45287265D01*
X102429284Y-45287276D01*
X102555967Y-45424888D01*
X102581760Y-45452906D01*
X102759424Y-45591189D01*
X102759425Y-45591189D01*
X102759427Y-45591191D01*
X102806516Y-45616674D01*
X102957426Y-45698342D01*
X103170365Y-45771444D01*
X103392431Y-45808500D01*
X103617569Y-45808500D01*
X103839635Y-45771444D01*
X104052574Y-45698342D01*
X104250576Y-45591189D01*
X104428240Y-45452906D01*
X104580722Y-45287268D01*
X104671193Y-45148790D01*
X104724338Y-45103437D01*
X104793569Y-45094013D01*
X104856905Y-45123515D01*
X104878804Y-45148787D01*
X104969278Y-45287268D01*
X104969283Y-45287273D01*
X104969284Y-45287276D01*
X105095967Y-45424888D01*
X105121760Y-45452906D01*
X105299424Y-45591189D01*
X105299425Y-45591189D01*
X105299427Y-45591191D01*
X105346516Y-45616674D01*
X105497426Y-45698342D01*
X105710365Y-45771444D01*
X105932431Y-45808500D01*
X106157569Y-45808500D01*
X106379635Y-45771444D01*
X106592574Y-45698342D01*
X106790576Y-45591189D01*
X106968240Y-45452906D01*
X107120722Y-45287268D01*
X107211193Y-45148790D01*
X107264338Y-45103437D01*
X107333569Y-45094013D01*
X107396905Y-45123515D01*
X107418804Y-45148787D01*
X107509278Y-45287268D01*
X107509283Y-45287273D01*
X107509284Y-45287276D01*
X107635967Y-45424888D01*
X107661760Y-45452906D01*
X107839424Y-45591189D01*
X107839425Y-45591189D01*
X107839427Y-45591191D01*
X107886516Y-45616674D01*
X108037426Y-45698342D01*
X108250365Y-45771444D01*
X108472431Y-45808500D01*
X108697569Y-45808500D01*
X108919635Y-45771444D01*
X109132574Y-45698342D01*
X109330576Y-45591189D01*
X109508240Y-45452906D01*
X109660722Y-45287268D01*
X109751193Y-45148790D01*
X109804338Y-45103437D01*
X109873569Y-45094013D01*
X109936905Y-45123515D01*
X109958804Y-45148787D01*
X110049278Y-45287268D01*
X110049283Y-45287273D01*
X110049284Y-45287276D01*
X110175967Y-45424888D01*
X110201760Y-45452906D01*
X110379424Y-45591189D01*
X110379425Y-45591189D01*
X110379427Y-45591191D01*
X110426516Y-45616674D01*
X110577426Y-45698342D01*
X110790365Y-45771444D01*
X111012431Y-45808500D01*
X111237569Y-45808500D01*
X111459635Y-45771444D01*
X111672574Y-45698342D01*
X111870576Y-45591189D01*
X112048240Y-45452906D01*
X112200722Y-45287268D01*
X112323860Y-45098791D01*
X112414296Y-44892616D01*
X112463073Y-44700000D01*
X119319364Y-44700000D01*
X119376567Y-44913486D01*
X119376570Y-44913492D01*
X119476399Y-45127578D01*
X119611894Y-45321082D01*
X119778917Y-45488105D01*
X119972421Y-45623600D01*
X120186507Y-45723429D01*
X120186516Y-45723433D01*
X120400000Y-45780634D01*
X120400000Y-44885501D01*
X120507685Y-44934680D01*
X120614237Y-44950000D01*
X120685763Y-44950000D01*
X120792315Y-44934680D01*
X120900000Y-44885501D01*
X120900000Y-45780633D01*
X121113483Y-45723433D01*
X121113492Y-45723429D01*
X121327578Y-45623600D01*
X121521082Y-45488105D01*
X121688105Y-45321082D01*
X121818425Y-45134968D01*
X121873002Y-45091344D01*
X121942501Y-45084151D01*
X122004855Y-45115673D01*
X122021575Y-45134968D01*
X122151894Y-45321082D01*
X122318917Y-45488105D01*
X122512421Y-45623600D01*
X122726507Y-45723429D01*
X122726516Y-45723433D01*
X122940000Y-45780634D01*
X122940000Y-44885501D01*
X123047685Y-44934680D01*
X123154237Y-44950000D01*
X123225763Y-44950000D01*
X123332315Y-44934680D01*
X123440000Y-44885501D01*
X123440000Y-45780633D01*
X123653483Y-45723433D01*
X123653492Y-45723429D01*
X123867578Y-45623600D01*
X124061082Y-45488105D01*
X124228105Y-45321082D01*
X124354868Y-45140048D01*
X124409445Y-45096423D01*
X124478944Y-45089231D01*
X124541298Y-45120753D01*
X124560251Y-45143350D01*
X124654276Y-45287265D01*
X124654284Y-45287276D01*
X124780967Y-45424888D01*
X124806760Y-45452906D01*
X124984424Y-45591189D01*
X124984425Y-45591189D01*
X124984427Y-45591191D01*
X125031516Y-45616674D01*
X125182426Y-45698342D01*
X125395365Y-45771444D01*
X125617431Y-45808500D01*
X125842569Y-45808500D01*
X126064635Y-45771444D01*
X126277574Y-45698342D01*
X126475576Y-45591189D01*
X126653240Y-45452906D01*
X126716452Y-45384239D01*
X126776337Y-45348250D01*
X126846175Y-45350349D01*
X126903791Y-45389873D01*
X126923861Y-45424888D01*
X126969111Y-45546204D01*
X127056739Y-45663261D01*
X127173796Y-45750889D01*
X127310799Y-45801989D01*
X127338050Y-45804918D01*
X127371345Y-45808499D01*
X127371362Y-45808500D01*
X129168638Y-45808500D01*
X129168654Y-45808499D01*
X129195692Y-45805591D01*
X129229201Y-45801989D01*
X129366204Y-45750889D01*
X129483261Y-45663261D01*
X129570889Y-45546204D01*
X129621989Y-45409201D01*
X129625591Y-45375692D01*
X129628499Y-45348654D01*
X129628500Y-45348637D01*
X129628500Y-43551362D01*
X129628499Y-43551345D01*
X129624672Y-43515759D01*
X129621989Y-43490799D01*
X129570889Y-43353796D01*
X129483261Y-43236739D01*
X129366204Y-43149111D01*
X129229203Y-43098011D01*
X129168654Y-43091500D01*
X129168638Y-43091500D01*
X127371362Y-43091500D01*
X127371345Y-43091500D01*
X127310797Y-43098011D01*
X127310795Y-43098011D01*
X127173795Y-43149111D01*
X127056739Y-43236739D01*
X126969111Y-43353795D01*
X126923861Y-43475111D01*
X126881989Y-43531044D01*
X126816524Y-43555460D01*
X126748252Y-43540607D01*
X126716454Y-43515762D01*
X126653240Y-43447094D01*
X126475576Y-43308811D01*
X126475575Y-43308810D01*
X126475572Y-43308808D01*
X126277580Y-43201661D01*
X126277577Y-43201659D01*
X126277574Y-43201658D01*
X126277571Y-43201657D01*
X126277569Y-43201656D01*
X126064637Y-43128556D01*
X125842569Y-43091500D01*
X125617431Y-43091500D01*
X125395362Y-43128556D01*
X125182430Y-43201656D01*
X125182419Y-43201661D01*
X124984427Y-43308808D01*
X124984422Y-43308812D01*
X124806761Y-43447092D01*
X124806756Y-43447097D01*
X124654284Y-43612723D01*
X124654276Y-43612734D01*
X124560251Y-43756650D01*
X124507105Y-43802007D01*
X124437873Y-43811430D01*
X124374538Y-43781928D01*
X124354868Y-43759951D01*
X124228113Y-43578926D01*
X124228108Y-43578920D01*
X124061082Y-43411894D01*
X123867578Y-43276399D01*
X123653492Y-43176570D01*
X123653486Y-43176567D01*
X123440000Y-43119364D01*
X123440000Y-44014498D01*
X123332315Y-43965320D01*
X123225763Y-43950000D01*
X123154237Y-43950000D01*
X123047685Y-43965320D01*
X122940000Y-44014498D01*
X122940000Y-43119364D01*
X122939999Y-43119364D01*
X122726513Y-43176567D01*
X122726507Y-43176570D01*
X122512422Y-43276399D01*
X122512420Y-43276400D01*
X122318926Y-43411886D01*
X122318920Y-43411891D01*
X122151891Y-43578920D01*
X122151890Y-43578922D01*
X122021575Y-43765031D01*
X121966998Y-43808655D01*
X121897499Y-43815848D01*
X121835145Y-43784326D01*
X121818425Y-43765031D01*
X121688109Y-43578922D01*
X121688108Y-43578920D01*
X121521082Y-43411894D01*
X121327578Y-43276399D01*
X121113492Y-43176570D01*
X121113486Y-43176567D01*
X120900000Y-43119364D01*
X120900000Y-44014498D01*
X120792315Y-43965320D01*
X120685763Y-43950000D01*
X120614237Y-43950000D01*
X120507685Y-43965320D01*
X120400000Y-44014498D01*
X120400000Y-43119364D01*
X120399999Y-43119364D01*
X120186513Y-43176567D01*
X120186507Y-43176570D01*
X119972422Y-43276399D01*
X119972420Y-43276400D01*
X119778926Y-43411886D01*
X119778920Y-43411891D01*
X119611891Y-43578920D01*
X119611886Y-43578926D01*
X119476400Y-43772420D01*
X119476399Y-43772422D01*
X119376570Y-43986507D01*
X119376567Y-43986513D01*
X119319364Y-44199999D01*
X119319364Y-44200000D01*
X120216314Y-44200000D01*
X120190507Y-44240156D01*
X120150000Y-44378111D01*
X120150000Y-44521889D01*
X120190507Y-44659844D01*
X120216314Y-44700000D01*
X119319364Y-44700000D01*
X112463073Y-44700000D01*
X112469564Y-44674368D01*
X112488156Y-44450000D01*
X112469564Y-44225632D01*
X112414296Y-44007384D01*
X112323860Y-43801209D01*
X112307706Y-43776484D01*
X112200723Y-43612734D01*
X112200715Y-43612723D01*
X112048243Y-43447097D01*
X112048238Y-43447092D01*
X111870577Y-43308812D01*
X111870572Y-43308808D01*
X111672580Y-43201661D01*
X111672577Y-43201659D01*
X111672574Y-43201658D01*
X111672571Y-43201657D01*
X111672569Y-43201656D01*
X111459637Y-43128556D01*
X111237569Y-43091500D01*
X111012431Y-43091500D01*
X110790362Y-43128556D01*
X110577430Y-43201656D01*
X110577419Y-43201661D01*
X110379427Y-43308808D01*
X110379422Y-43308812D01*
X110201761Y-43447092D01*
X110201756Y-43447097D01*
X110049284Y-43612723D01*
X110049276Y-43612734D01*
X109958808Y-43751206D01*
X109905662Y-43796562D01*
X109836431Y-43805986D01*
X109773095Y-43776484D01*
X109751192Y-43751206D01*
X109660723Y-43612734D01*
X109660715Y-43612723D01*
X109508243Y-43447097D01*
X109508238Y-43447092D01*
X109330577Y-43308812D01*
X109330572Y-43308808D01*
X109132580Y-43201661D01*
X109132577Y-43201659D01*
X109132574Y-43201658D01*
X109132571Y-43201657D01*
X109132569Y-43201656D01*
X108919637Y-43128556D01*
X108697569Y-43091500D01*
X108472431Y-43091500D01*
X108250362Y-43128556D01*
X108037430Y-43201656D01*
X108037419Y-43201661D01*
X107839427Y-43308808D01*
X107839422Y-43308812D01*
X107661761Y-43447092D01*
X107661756Y-43447097D01*
X107509284Y-43612723D01*
X107509276Y-43612734D01*
X107418808Y-43751206D01*
X107365662Y-43796562D01*
X107296431Y-43805986D01*
X107233095Y-43776484D01*
X107211192Y-43751206D01*
X107120723Y-43612734D01*
X107120715Y-43612723D01*
X106968243Y-43447097D01*
X106968238Y-43447092D01*
X106790577Y-43308812D01*
X106790572Y-43308808D01*
X106592580Y-43201661D01*
X106592577Y-43201659D01*
X106592574Y-43201658D01*
X106592571Y-43201657D01*
X106592569Y-43201656D01*
X106379637Y-43128556D01*
X106157569Y-43091500D01*
X105932431Y-43091500D01*
X105710362Y-43128556D01*
X105497430Y-43201656D01*
X105497419Y-43201661D01*
X105299427Y-43308808D01*
X105299422Y-43308812D01*
X105121761Y-43447092D01*
X105121756Y-43447097D01*
X104969284Y-43612723D01*
X104969276Y-43612734D01*
X104878808Y-43751206D01*
X104825662Y-43796562D01*
X104756431Y-43805986D01*
X104693095Y-43776484D01*
X104671192Y-43751206D01*
X104580723Y-43612734D01*
X104580715Y-43612723D01*
X104428243Y-43447097D01*
X104428238Y-43447092D01*
X104250577Y-43308812D01*
X104250572Y-43308808D01*
X104052580Y-43201661D01*
X104052577Y-43201659D01*
X104052574Y-43201658D01*
X104052571Y-43201657D01*
X104052569Y-43201656D01*
X103839637Y-43128556D01*
X103617569Y-43091500D01*
X103392431Y-43091500D01*
X103170362Y-43128556D01*
X102957430Y-43201656D01*
X102957419Y-43201661D01*
X102759427Y-43308808D01*
X102759422Y-43308812D01*
X102581761Y-43447092D01*
X102581756Y-43447097D01*
X102429284Y-43612723D01*
X102429276Y-43612734D01*
X102306140Y-43801207D01*
X102215703Y-44007385D01*
X102160436Y-44225628D01*
X102160434Y-44225640D01*
X102141844Y-44449994D01*
X102141844Y-44450005D01*
X97248156Y-44450005D01*
X97248156Y-44450000D01*
X97229564Y-44225632D01*
X97174296Y-44007384D01*
X97083860Y-43801209D01*
X97067706Y-43776484D01*
X96960723Y-43612734D01*
X96960715Y-43612723D01*
X96808243Y-43447097D01*
X96808238Y-43447092D01*
X96630577Y-43308812D01*
X96630572Y-43308808D01*
X96432580Y-43201661D01*
X96432577Y-43201659D01*
X96432574Y-43201658D01*
X96432571Y-43201657D01*
X96432569Y-43201656D01*
X96219637Y-43128556D01*
X95997569Y-43091500D01*
X95772431Y-43091500D01*
X95550362Y-43128556D01*
X95337430Y-43201656D01*
X95337419Y-43201661D01*
X95139427Y-43308808D01*
X95139422Y-43308812D01*
X94961761Y-43447092D01*
X94961756Y-43447097D01*
X94809284Y-43612723D01*
X94809276Y-43612734D01*
X94718808Y-43751206D01*
X94665662Y-43796562D01*
X94596431Y-43805986D01*
X94533095Y-43776484D01*
X94511192Y-43751206D01*
X94420723Y-43612734D01*
X94420715Y-43612723D01*
X94268243Y-43447097D01*
X94268238Y-43447092D01*
X94090577Y-43308812D01*
X94090572Y-43308808D01*
X93892580Y-43201661D01*
X93892577Y-43201659D01*
X93892574Y-43201658D01*
X93892571Y-43201657D01*
X93892569Y-43201656D01*
X93679637Y-43128556D01*
X93457569Y-43091500D01*
X93232431Y-43091500D01*
X93010362Y-43128556D01*
X92797430Y-43201656D01*
X92797419Y-43201661D01*
X92599427Y-43308808D01*
X92599422Y-43308812D01*
X92421761Y-43447092D01*
X92421756Y-43447097D01*
X92269284Y-43612723D01*
X92269276Y-43612734D01*
X92178808Y-43751206D01*
X92125662Y-43796562D01*
X92056431Y-43805986D01*
X91993095Y-43776484D01*
X91971192Y-43751206D01*
X91880723Y-43612734D01*
X91880715Y-43612723D01*
X91728243Y-43447097D01*
X91728238Y-43447092D01*
X91550577Y-43308812D01*
X91550572Y-43308808D01*
X91352580Y-43201661D01*
X91352577Y-43201659D01*
X91352574Y-43201658D01*
X91352571Y-43201657D01*
X91352569Y-43201656D01*
X91139637Y-43128556D01*
X90917569Y-43091500D01*
X90692431Y-43091500D01*
X90470362Y-43128556D01*
X90257430Y-43201656D01*
X90257419Y-43201661D01*
X90059427Y-43308808D01*
X90059422Y-43308812D01*
X89881761Y-43447092D01*
X89881756Y-43447097D01*
X89729284Y-43612723D01*
X89729276Y-43612734D01*
X89638808Y-43751206D01*
X89585662Y-43796562D01*
X89516431Y-43805986D01*
X89453095Y-43776484D01*
X89431192Y-43751206D01*
X89340723Y-43612734D01*
X89340715Y-43612723D01*
X89188243Y-43447097D01*
X89188238Y-43447092D01*
X89010577Y-43308812D01*
X89010572Y-43308808D01*
X88812580Y-43201661D01*
X88812577Y-43201659D01*
X88812574Y-43201658D01*
X88812571Y-43201657D01*
X88812569Y-43201656D01*
X88599637Y-43128556D01*
X88377569Y-43091500D01*
X88152431Y-43091500D01*
X87930362Y-43128556D01*
X87717430Y-43201656D01*
X87717419Y-43201661D01*
X87519427Y-43308808D01*
X87519422Y-43308812D01*
X87341761Y-43447092D01*
X87341756Y-43447097D01*
X87189284Y-43612723D01*
X87189276Y-43612734D01*
X87098808Y-43751206D01*
X87045662Y-43796562D01*
X86976431Y-43805986D01*
X86913095Y-43776484D01*
X86891192Y-43751206D01*
X86800723Y-43612734D01*
X86800715Y-43612723D01*
X86648243Y-43447097D01*
X86648238Y-43447092D01*
X86470577Y-43308812D01*
X86470572Y-43308808D01*
X86272580Y-43201661D01*
X86272577Y-43201659D01*
X86272574Y-43201658D01*
X86272571Y-43201657D01*
X86272569Y-43201656D01*
X86059637Y-43128556D01*
X85837569Y-43091500D01*
X85612431Y-43091500D01*
X85390362Y-43128556D01*
X85177430Y-43201656D01*
X85177419Y-43201661D01*
X84979427Y-43308808D01*
X84979422Y-43308812D01*
X84801761Y-43447092D01*
X84801756Y-43447097D01*
X84649284Y-43612723D01*
X84649276Y-43612734D01*
X84558808Y-43751206D01*
X84505662Y-43796562D01*
X84436431Y-43805986D01*
X84373095Y-43776484D01*
X84351192Y-43751206D01*
X84260723Y-43612734D01*
X84260715Y-43612723D01*
X84108243Y-43447097D01*
X84108238Y-43447092D01*
X83930577Y-43308812D01*
X83930572Y-43308808D01*
X83732580Y-43201661D01*
X83732577Y-43201659D01*
X83732574Y-43201658D01*
X83732571Y-43201657D01*
X83732569Y-43201656D01*
X83519637Y-43128556D01*
X83297569Y-43091500D01*
X83072431Y-43091500D01*
X82850362Y-43128556D01*
X82637430Y-43201656D01*
X82637419Y-43201661D01*
X82439427Y-43308808D01*
X82439422Y-43308812D01*
X82261761Y-43447092D01*
X82261756Y-43447097D01*
X82109284Y-43612723D01*
X82109276Y-43612734D01*
X81986140Y-43801207D01*
X81895703Y-44007385D01*
X81840436Y-44225628D01*
X81840434Y-44225640D01*
X81821844Y-44449994D01*
X81821844Y-44450005D01*
X81840434Y-44674359D01*
X81840436Y-44674371D01*
X81895703Y-44892614D01*
X81986140Y-45098792D01*
X82109276Y-45287265D01*
X82109284Y-45287276D01*
X82235967Y-45424888D01*
X82261760Y-45452906D01*
X82439424Y-45591189D01*
X82439425Y-45591189D01*
X82439427Y-45591191D01*
X82486516Y-45616674D01*
X82637426Y-45698342D01*
X82850365Y-45771444D01*
X83072431Y-45808500D01*
X83297569Y-45808500D01*
X83519635Y-45771444D01*
X83732574Y-45698342D01*
X83930576Y-45591189D01*
X84108240Y-45452906D01*
X84260722Y-45287268D01*
X84351193Y-45148790D01*
X84404338Y-45103437D01*
X84473569Y-45094013D01*
X84536905Y-45123515D01*
X84558804Y-45148787D01*
X84649278Y-45287268D01*
X84649283Y-45287273D01*
X84649284Y-45287276D01*
X84775967Y-45424888D01*
X84801760Y-45452906D01*
X84979424Y-45591189D01*
X84979425Y-45591189D01*
X84979427Y-45591191D01*
X85026516Y-45616674D01*
X85177426Y-45698342D01*
X85390365Y-45771444D01*
X85612431Y-45808500D01*
X85837569Y-45808500D01*
X86059635Y-45771444D01*
X86272574Y-45698342D01*
X86470576Y-45591189D01*
X86648240Y-45452906D01*
X86800722Y-45287268D01*
X86891193Y-45148790D01*
X86944338Y-45103437D01*
X87013569Y-45094013D01*
X87076905Y-45123515D01*
X87098804Y-45148787D01*
X87189278Y-45287268D01*
X87189283Y-45287273D01*
X87189284Y-45287276D01*
X87315967Y-45424888D01*
X87341760Y-45452906D01*
X87519424Y-45591189D01*
X87519426Y-45591190D01*
X87519433Y-45591195D01*
X87566516Y-45616674D01*
X87616107Y-45665892D01*
X87631500Y-45725729D01*
X87631500Y-50867233D01*
X87611815Y-50934272D01*
X87595181Y-50954914D01*
X86768914Y-51781181D01*
X86707591Y-51814666D01*
X86681233Y-51817500D01*
X61170632Y-51817500D01*
X61154880Y-51815760D01*
X61154855Y-51816032D01*
X61147093Y-51815298D01*
X61147092Y-51815298D01*
X61077029Y-51817500D01*
X61047144Y-51817500D01*
X61047141Y-51817500D01*
X61047129Y-51817501D01*
X61040137Y-51818384D01*
X61034320Y-51818841D01*
X60987111Y-51820325D01*
X60987109Y-51820326D01*
X60967496Y-51826023D01*
X60948459Y-51829965D01*
X60928208Y-51832524D01*
X60928202Y-51832526D01*
X60884299Y-51849907D01*
X60878775Y-51851798D01*
X60833406Y-51864981D01*
X60833401Y-51864983D01*
X60815827Y-51875376D01*
X60798362Y-51883932D01*
X60779387Y-51891445D01*
X60779385Y-51891446D01*
X60741176Y-51919206D01*
X60736294Y-51922412D01*
X60695635Y-51946458D01*
X60681200Y-51960894D01*
X60666412Y-51973525D01*
X60649894Y-51985526D01*
X60649888Y-51985532D01*
X60619780Y-52021925D01*
X60615849Y-52026246D01*
X58752179Y-53889914D01*
X58739820Y-53899818D01*
X58739993Y-53900027D01*
X58733983Y-53904999D01*
X58733982Y-53904999D01*
X58733982Y-53905000D01*
X58726883Y-53912560D01*
X58686015Y-53956079D01*
X58664872Y-53977222D01*
X58664857Y-53977239D01*
X58660531Y-53982814D01*
X58656747Y-53987244D01*
X58624419Y-54021671D01*
X58624412Y-54021681D01*
X58614579Y-54039567D01*
X58603903Y-54055820D01*
X58591386Y-54071957D01*
X58591385Y-54071959D01*
X58572625Y-54115310D01*
X58570055Y-54120556D01*
X58547303Y-54161941D01*
X58547303Y-54161942D01*
X58542225Y-54181720D01*
X58535925Y-54200122D01*
X58527818Y-54218857D01*
X58520431Y-54265495D01*
X58519246Y-54271216D01*
X58507500Y-54316965D01*
X58507500Y-54337384D01*
X58505973Y-54356783D01*
X58502780Y-54376941D01*
X58502780Y-54376942D01*
X58507225Y-54423966D01*
X58507500Y-54429804D01*
X58507500Y-64217037D01*
X58487815Y-64284076D01*
X58471181Y-64304718D01*
X58240018Y-64535880D01*
X58178695Y-64569365D01*
X58109003Y-64564381D01*
X58053070Y-64522509D01*
X58035296Y-64489156D01*
X58010043Y-64416985D01*
X57995286Y-64393500D01*
X57970444Y-64353963D01*
X57913111Y-64262719D01*
X57784281Y-64133889D01*
X57630015Y-64036957D01*
X57575693Y-64017949D01*
X57458046Y-63976782D01*
X57458041Y-63976781D01*
X57277004Y-63956384D01*
X57276996Y-63956384D01*
X57095958Y-63976781D01*
X57095953Y-63976782D01*
X56923982Y-64036958D01*
X56769718Y-64133889D01*
X56640889Y-64262718D01*
X56543959Y-64416980D01*
X56543958Y-64416983D01*
X56543957Y-64416985D01*
X56537842Y-64434457D01*
X56497123Y-64491231D01*
X56432170Y-64516978D01*
X56420803Y-64517500D01*
X56309616Y-64517500D01*
X56242577Y-64497815D01*
X56196822Y-64445011D01*
X56185616Y-64393500D01*
X56185616Y-64388996D01*
X56165218Y-64207958D01*
X56165217Y-64207953D01*
X56105383Y-64036958D01*
X56105043Y-64035985D01*
X56008111Y-63881719D01*
X55879281Y-63752889D01*
X55725015Y-63655957D01*
X55670693Y-63636949D01*
X55553046Y-63595782D01*
X55553041Y-63595781D01*
X55372004Y-63575384D01*
X55371996Y-63575384D01*
X55190958Y-63595781D01*
X55190953Y-63595782D01*
X55018980Y-63655958D01*
X55018977Y-63655960D01*
X54890812Y-63736493D01*
X54824840Y-63755500D01*
X52917029Y-63755500D01*
X52901286Y-63753761D01*
X52901261Y-63754033D01*
X52893493Y-63753298D01*
X52823460Y-63755500D01*
X52793542Y-63755500D01*
X52786536Y-63756384D01*
X52780718Y-63756842D01*
X52733511Y-63758326D01*
X52733508Y-63758327D01*
X52713905Y-63764022D01*
X52694859Y-63767966D01*
X52674603Y-63770526D01*
X52674601Y-63770526D01*
X52630692Y-63787910D01*
X52625168Y-63789801D01*
X52579804Y-63802982D01*
X52579803Y-63802983D01*
X52562224Y-63813378D01*
X52544764Y-63821932D01*
X52525784Y-63829447D01*
X52525781Y-63829449D01*
X52487582Y-63857201D01*
X52482700Y-63860409D01*
X52442038Y-63884456D01*
X52427596Y-63898898D01*
X52412808Y-63911527D01*
X52396297Y-63923523D01*
X52396292Y-63923528D01*
X52366190Y-63959914D01*
X52362258Y-63964236D01*
X50920579Y-65405914D01*
X50908220Y-65415818D01*
X50908393Y-65416027D01*
X50902383Y-65420999D01*
X50854416Y-65472078D01*
X50833272Y-65493222D01*
X50833257Y-65493239D01*
X50828931Y-65498814D01*
X50825147Y-65503244D01*
X50792819Y-65537671D01*
X50792812Y-65537681D01*
X50782979Y-65555567D01*
X50772303Y-65571820D01*
X50759786Y-65587957D01*
X50759785Y-65587959D01*
X50741025Y-65631310D01*
X50738455Y-65636556D01*
X50715703Y-65677941D01*
X50715703Y-65677942D01*
X50710625Y-65697720D01*
X50704325Y-65716122D01*
X50696218Y-65734857D01*
X50688831Y-65781495D01*
X50687646Y-65787216D01*
X50675900Y-65832965D01*
X50675900Y-65853384D01*
X50674372Y-65872783D01*
X50671180Y-65892943D01*
X50673122Y-65913487D01*
X50675625Y-65939966D01*
X50675900Y-65945804D01*
X50675900Y-111169766D01*
X50674161Y-111185513D01*
X50674432Y-111185539D01*
X50673698Y-111193305D01*
X50675900Y-111263357D01*
X50675900Y-111293259D01*
X50676784Y-111300256D01*
X50677242Y-111306079D01*
X50678726Y-111353289D01*
X50678727Y-111353291D01*
X50684422Y-111372895D01*
X50688367Y-111391942D01*
X50690926Y-111412197D01*
X50690927Y-111412200D01*
X50690928Y-111412203D01*
X50708314Y-111456116D01*
X50710206Y-111461644D01*
X50723381Y-111506992D01*
X50733772Y-111524562D01*
X50742332Y-111542035D01*
X50749847Y-111561017D01*
X50777609Y-111599227D01*
X50780816Y-111604110D01*
X50804858Y-111644762D01*
X50804862Y-111644766D01*
X50819289Y-111659193D01*
X50831926Y-111673988D01*
X50843928Y-111690507D01*
X50880331Y-111720622D01*
X50884631Y-111724535D01*
X51691257Y-112531161D01*
X52487742Y-113327646D01*
X52521227Y-113388969D01*
X52520267Y-113445767D01*
X52489975Y-113565389D01*
X52471198Y-113791994D01*
X52471198Y-113792005D01*
X52489975Y-114018610D01*
X52489975Y-114018613D01*
X52489976Y-114018614D01*
X52545797Y-114239047D01*
X52637139Y-114447285D01*
X52707626Y-114555174D01*
X52740280Y-114605155D01*
X52761510Y-114637649D01*
X52915517Y-114804946D01*
X52915521Y-114804949D01*
X52915524Y-114804952D01*
X53094952Y-114944606D01*
X53094967Y-114944616D01*
X53119288Y-114957778D01*
X53168878Y-115006997D01*
X53183986Y-115075214D01*
X53159815Y-115140769D01*
X53119290Y-115175885D01*
X53099632Y-115186523D01*
X53099623Y-115186529D01*
X52921296Y-115325327D01*
X52921284Y-115325338D01*
X52768240Y-115491587D01*
X52644639Y-115680774D01*
X52553864Y-115887721D01*
X52504666Y-116082000D01*
X53404804Y-116082000D01*
X53381155Y-116118799D01*
X53340000Y-116258961D01*
X53340000Y-116405039D01*
X53381155Y-116545201D01*
X53404804Y-116582000D01*
X52504666Y-116582000D01*
X52553864Y-116776278D01*
X52644639Y-116983225D01*
X52768240Y-117172412D01*
X52921284Y-117338661D01*
X52921296Y-117338672D01*
X53099623Y-117477470D01*
X53298369Y-117585027D01*
X53298375Y-117585029D01*
X53512106Y-117658403D01*
X53598000Y-117672736D01*
X53598000Y-116776297D01*
X53703408Y-116824435D01*
X53811666Y-116840000D01*
X53884334Y-116840000D01*
X53992592Y-116824435D01*
X54098000Y-116776297D01*
X54098000Y-117672735D01*
X54183893Y-117658403D01*
X54397624Y-117585029D01*
X54397630Y-117585027D01*
X54596376Y-117477470D01*
X54774703Y-117338672D01*
X54774715Y-117338661D01*
X54927759Y-117172412D01*
X55014191Y-117040118D01*
X55067337Y-116994761D01*
X55136569Y-116985337D01*
X55199904Y-117014839D01*
X55221809Y-117040118D01*
X55308240Y-117172412D01*
X55461284Y-117338661D01*
X55461296Y-117338672D01*
X55639623Y-117477470D01*
X55838369Y-117585027D01*
X55838375Y-117585029D01*
X56052106Y-117658403D01*
X56138000Y-117672736D01*
X56138000Y-116776297D01*
X56243408Y-116824435D01*
X56351666Y-116840000D01*
X56424334Y-116840000D01*
X56532592Y-116824435D01*
X56638000Y-116776297D01*
X56638000Y-117672735D01*
X56723893Y-117658403D01*
X56937624Y-117585029D01*
X56937630Y-117585027D01*
X57136376Y-117477470D01*
X57285602Y-117361322D01*
X57350596Y-117335679D01*
X57372703Y-117340054D01*
X57370895Y-117335207D01*
X57385747Y-117266934D01*
X57403350Y-117242377D01*
X57467762Y-117172408D01*
X57591360Y-116983225D01*
X57682135Y-116776278D01*
X57731334Y-116582000D01*
X56831196Y-116582000D01*
X56854845Y-116545201D01*
X56896000Y-116405039D01*
X56896000Y-116258961D01*
X56854845Y-116118799D01*
X56831196Y-116082000D01*
X57731334Y-116082000D01*
X57682135Y-115887721D01*
X57591360Y-115680774D01*
X57467759Y-115491587D01*
X57314715Y-115325338D01*
X57314703Y-115325327D01*
X57136376Y-115186529D01*
X57136367Y-115186523D01*
X57116711Y-115175886D01*
X57067120Y-115126667D01*
X57052013Y-115058450D01*
X57076184Y-114992894D01*
X57116713Y-114957777D01*
X57141032Y-114944616D01*
X57141033Y-114944614D01*
X57141039Y-114944612D01*
X57150997Y-114936862D01*
X57288765Y-114829633D01*
X57320483Y-114804946D01*
X57474490Y-114637649D01*
X57598861Y-114447285D01*
X57690203Y-114239047D01*
X57746024Y-114018614D01*
X57759527Y-113855656D01*
X57764802Y-113792005D01*
X57764802Y-113791994D01*
X57746024Y-113565389D01*
X57746024Y-113565386D01*
X57690203Y-113344953D01*
X57598861Y-113136715D01*
X57474490Y-112946351D01*
X57320483Y-112779054D01*
X57320478Y-112779050D01*
X57320475Y-112779047D01*
X57141047Y-112639393D01*
X57141037Y-112639386D01*
X57125641Y-112631055D01*
X57076050Y-112581836D01*
X57060941Y-112513620D01*
X57085112Y-112448064D01*
X57125641Y-112412945D01*
X57141037Y-112404613D01*
X57141036Y-112404613D01*
X57141039Y-112404612D01*
X57153776Y-112394699D01*
X57320475Y-112264952D01*
X57320483Y-112264946D01*
X57474490Y-112097649D01*
X57598861Y-111907285D01*
X57690203Y-111699047D01*
X57746024Y-111478614D01*
X57760563Y-111303159D01*
X57764802Y-111252005D01*
X57764802Y-111251994D01*
X57746024Y-111025389D01*
X57746024Y-111025386D01*
X57690203Y-110804953D01*
X57598861Y-110596715D01*
X57474490Y-110406351D01*
X57320483Y-110239054D01*
X57320478Y-110239050D01*
X57320475Y-110239047D01*
X57141047Y-110099393D01*
X57141037Y-110099386D01*
X57125641Y-110091055D01*
X57076050Y-110041836D01*
X57060941Y-109973620D01*
X57085112Y-109908064D01*
X57125641Y-109872945D01*
X57141037Y-109864613D01*
X57141036Y-109864613D01*
X57141039Y-109864612D01*
X57320483Y-109724946D01*
X57474490Y-109557649D01*
X57598861Y-109367285D01*
X57663810Y-109219214D01*
X57708765Y-109165731D01*
X57775501Y-109145041D01*
X57842828Y-109163715D01*
X57865046Y-109181346D01*
X58040181Y-109356481D01*
X58073666Y-109417804D01*
X58076500Y-109444162D01*
X58076500Y-116868441D01*
X58056815Y-116935480D01*
X58040181Y-116956122D01*
X57582260Y-117414042D01*
X57520937Y-117447527D01*
X57480597Y-117444642D01*
X57485593Y-117465695D01*
X57462411Y-117531607D01*
X57449446Y-117546856D01*
X54831820Y-120164483D01*
X54770497Y-120197968D01*
X54744139Y-120200802D01*
X51334332Y-120200802D01*
X51318584Y-120199063D01*
X51318559Y-120199334D01*
X51310792Y-120198600D01*
X51310789Y-120198600D01*
X51240740Y-120200802D01*
X51210835Y-120200802D01*
X51203841Y-120201686D01*
X51198018Y-120202144D01*
X51150810Y-120203628D01*
X51150807Y-120203629D01*
X51131204Y-120209324D01*
X51112156Y-120213268D01*
X51091901Y-120215828D01*
X51076045Y-120222105D01*
X51047983Y-120233215D01*
X51042457Y-120235107D01*
X50997105Y-120248283D01*
X50979531Y-120258676D01*
X50962070Y-120267230D01*
X50943084Y-120274748D01*
X50943082Y-120274749D01*
X50904870Y-120302510D01*
X50899988Y-120305717D01*
X50859335Y-120329759D01*
X50844899Y-120344196D01*
X50830113Y-120356825D01*
X50813591Y-120368830D01*
X50813589Y-120368831D01*
X50813589Y-120368832D01*
X50813586Y-120368834D01*
X50783478Y-120405227D01*
X50779547Y-120409548D01*
X49393914Y-121795181D01*
X49332591Y-121828666D01*
X49306233Y-121831500D01*
X47996345Y-121831500D01*
X47935797Y-121838011D01*
X47935795Y-121838011D01*
X47798795Y-121889111D01*
X47681739Y-121976739D01*
X47594111Y-122093795D01*
X47543011Y-122230795D01*
X47543011Y-122230797D01*
X47536500Y-122291345D01*
X47536500Y-124088654D01*
X44593500Y-124088654D01*
X44593500Y-43348037D01*
X44593633Y-43343981D01*
X44610126Y-43092329D01*
X44611183Y-43084294D01*
X44659985Y-42838950D01*
X44662086Y-42831111D01*
X44742498Y-42594225D01*
X44745590Y-42586761D01*
X44856239Y-42362386D01*
X44860293Y-42355368D01*
X44881189Y-42324094D01*
X44999272Y-42147370D01*
X45004193Y-42140957D01*
X45169144Y-41952866D01*
X45174866Y-41947144D01*
X45362957Y-41782193D01*
X45369370Y-41777272D01*
X45577368Y-41638293D01*
X45584386Y-41634239D01*
X45808761Y-41523590D01*
X45816225Y-41520498D01*
X46053114Y-41440085D01*
X46060950Y-41437985D01*
X46306294Y-41389183D01*
X46314323Y-41388126D01*
X46396233Y-41382758D01*
X46565982Y-41371633D01*
X46570038Y-41371500D01*
X46576285Y-41371500D01*
X156559715Y-41371500D01*
X156565962Y-41371500D01*
X156570018Y-41371633D01*
G37*
G04 #@! TD.AperFunction*
M02*
