M48
; DRILL file {KiCad 7.0.9} date Wed Apr  3 04:09:38 2024
; FORMAT={-:-/ absolute / inch / decimal}
; #@! TF.CreationDate,2024-04-03T04:09:38-05:00
; #@! TF.GenerationSoftware,Kicad,Pcbnew,7.0.9
; #@! TF.FileFunction,MixedPlating,1,2
FMAT,2
INCH
; #@! TA.AperFunction,Plated,PTH,ViaDrill
T1C0.0118
; #@! TA.AperFunction,Plated,PTH,ComponentDrill
T2C0.0315
; #@! TA.AperFunction,Plated,PTH,ComponentDrill
T3C0.0394
; #@! TA.AperFunction,Plated,PTH,ComponentDrill
T4C0.0400
; #@! TA.AperFunction,Plated,PTH,ComponentDrill
T5C0.0433
; #@! TA.AperFunction,NonPlated,NPTH,ComponentDrill
T6C0.1181
%
G90
G05
T1
X2.115Y-2.595
X2.175Y-2.605
X2.18Y-2.535
X2.255Y-2.55
X2.425Y-3.955
X2.525Y-2.525
X2.525Y-3.885
X2.625Y-2.51
X2.625Y-3.865
X2.725Y-2.49
X2.725Y-3.79
X2.8Y-2.47
X2.825Y-3.73
X2.925Y-2.46
X2.925Y-3.675
X3.025Y-2.43
X3.025Y-3.645
X3.085Y-2.75
X3.125Y-2.79
X3.15Y-2.415
X3.165Y-2.725
X3.175Y-2.8
X3.175Y-3.59
X3.27Y-2.405
X3.3Y-3.03
X3.315Y-2.885
X3.325Y-3.89
X3.34Y-2.835
X3.415Y-3.43
X3.42Y-2.875
X3.42Y-2.98
X3.425Y-2.105
X3.425Y-3.88
X3.52Y-2.97
X3.525Y-3.385
X3.53Y-2.08
X3.605Y-3.345
X3.625Y-2.055
X3.71Y-2.81
X3.72Y-2.045
X3.75Y-3.2
X3.785Y-2.835
X3.795Y-3.19
X3.795Y-3.63
X3.83Y-2.855
X3.925Y-3.19
X3.945Y-2.825
X4.02Y-2.71
X4.11Y-2.33
X4.115Y-3.12
X4.2Y-4.18
X4.42Y-4.18
X4.54Y-3.395
X4.585Y-2.935
X4.63Y-2.795
X4.745Y-4.375
X4.745Y-4.4
X4.86Y-3.77
X4.875Y-3.71
X4.915Y-4.075
X5.0Y-3.025
X5.15Y-4.03
X5.23Y-3.39
X5.23Y-4.04
X5.325Y-2.22
X5.405Y-3.285
X5.435Y-3.225
X5.465Y-2.755
X5.505Y-3.325
X5.53Y-3.09
X5.71Y-2.755
T2
X3.875Y-2.95
X3.875Y-3.05
X3.875Y-3.15
X3.875Y-3.25
X3.875Y-3.35
X3.875Y-3.45
X3.875Y-3.55
X4.175Y-2.95
X4.175Y-3.05
X4.175Y-3.15
X4.175Y-3.25
X4.175Y-3.35
X4.175Y-3.45
X4.175Y-3.55
T3
X1.925Y-4.85
X2.025Y-4.85
X2.125Y-4.85
X2.225Y-4.85
X2.325Y-4.85
X2.3746Y-2.175
X2.425Y-4.85
X2.4746Y-2.175
X2.525Y-4.85
X2.5746Y-2.175
X2.625Y-4.85
X2.6746Y-2.175
X2.725Y-4.85
X2.7746Y-2.175
X2.825Y-4.85
X2.8746Y-2.175
X2.925Y-4.85
X2.9746Y-2.175
X3.025Y-4.85
X3.0746Y-2.175
X3.1189Y-3.0969
X3.1189Y-3.1969
X3.125Y-4.85
X3.2189Y-3.0969
X3.2189Y-3.1969
X3.225Y-4.85
X3.2746Y-2.1754
X3.275Y-1.75
X3.3189Y-3.0969
X3.3189Y-3.1969
X3.325Y-4.85
X3.3746Y-2.1754
X3.375Y-1.75
X3.4189Y-3.0969
X3.4189Y-3.1969
X3.425Y-4.85
X3.4746Y-2.1754
X3.475Y-1.75
X3.5189Y-3.0969
X3.5189Y-3.1969
X3.525Y-4.85
X3.5746Y-2.1754
X3.575Y-1.75
X3.625Y-4.85
X3.6746Y-2.1754
X3.675Y-1.75
X3.725Y-4.85
X3.7746Y-2.1754
X3.775Y-1.75
X3.8746Y-2.1754
X3.9746Y-2.1754
X4.0746Y-2.175
X4.075Y-1.75
X4.1746Y-2.175
X4.175Y-1.75
X4.2746Y-2.175
X4.275Y-1.75
X4.3746Y-2.175
X4.375Y-1.75
X4.4746Y-2.175
X4.5746Y-2.175
X4.6463Y-3.8835
X4.6463Y-3.9835
X4.6463Y-4.0835
X4.6463Y-4.1835
X4.6463Y-4.2835
X4.6746Y-2.175
X4.7463Y-3.9335
X4.7463Y-4.0335
X4.7463Y-4.1335
X4.7463Y-4.2335
X4.75Y-1.75
X4.7746Y-2.175
X4.8463Y-3.8835
X4.8463Y-3.9835
X4.8463Y-4.0835
X4.8463Y-4.1835
X4.8463Y-4.2835
X4.85Y-1.75
X4.8746Y-2.175
X4.95Y-1.75
X4.9746Y-2.175
X5.05Y-1.75
X5.0746Y-2.175
X5.1274Y-2.9339
X5.1274Y-3.0339
X5.1274Y-3.1339
X5.1274Y-3.2339
X5.1274Y-3.3339
X5.1746Y-2.175
X5.2274Y-2.9839
X5.2274Y-3.0839
X5.2274Y-3.1839
X5.2274Y-3.2839
X5.2746Y-2.175
X5.3274Y-2.9339
X5.3274Y-3.0339
X5.3274Y-3.1339
X5.3274Y-3.2339
X5.3274Y-3.3339
X5.3746Y-2.175
X5.4746Y-2.175
X5.5746Y-2.175
X5.6746Y-2.175
X5.7746Y-2.175
X5.8746Y-2.175
X6.046Y-3.1632
X6.046Y-3.2632
X6.046Y-3.3632
X6.046Y-3.4632
T4
X2.12Y-2.88
X2.12Y-2.98
X2.12Y-3.08
X2.12Y-3.18
X2.12Y-3.28
X2.12Y-3.38
X2.12Y-3.48
X2.12Y-3.58
X2.12Y-3.68
X2.12Y-3.78
X2.12Y-3.88
X2.12Y-3.98
X2.12Y-4.08
X2.12Y-4.18
X2.12Y-4.28
X2.12Y-4.38
X2.12Y-4.48
X2.12Y-4.58
X2.22Y-2.88
X2.22Y-2.98
X2.22Y-3.08
X2.22Y-3.18
X2.22Y-3.28
X2.22Y-3.38
X2.22Y-3.48
X2.22Y-3.58
X2.22Y-3.68
X2.22Y-3.78
X2.22Y-3.88
X2.22Y-3.98
X2.22Y-4.08
X2.22Y-4.18
X2.22Y-4.28
X2.22Y-4.38
X2.22Y-4.48
X2.22Y-4.58
X2.32Y-2.68
X2.42Y-2.68
X2.52Y-2.68
X2.52Y-4.58
X2.62Y-2.68
X2.62Y-4.58
X2.72Y-2.68
X2.72Y-4.58
X2.82Y-2.68
X2.82Y-4.58
X2.92Y-2.68
X2.92Y-4.58
X3.02Y-2.68
X3.02Y-4.58
X3.12Y-4.58
X3.22Y-2.68
X3.22Y-4.58
X3.315Y-3.58
X3.315Y-3.68
X3.315Y-3.78
X3.32Y-2.68
X3.415Y-3.58
X3.415Y-3.68
X3.415Y-3.78
X3.42Y-2.68
X3.42Y-4.58
X3.52Y-2.68
X3.52Y-4.58
X3.62Y-2.68
X3.62Y-4.58
X3.72Y-2.68
X3.72Y-4.58
X3.82Y-2.68
X3.82Y-4.58
X3.92Y-2.68
X3.92Y-4.58
X4.02Y-4.58
X4.12Y-2.68
X4.12Y-4.58
X4.22Y-2.68
X4.28Y-4.58
X4.32Y-2.68
X4.38Y-4.58
X4.42Y-2.68
X4.48Y-4.58
X4.52Y-2.68
X4.58Y-4.58
X4.62Y-2.68
X4.68Y-4.58
X4.72Y-2.68
X4.78Y-4.58
X4.82Y-2.68
X4.88Y-4.58
X4.98Y-4.58
X5.08Y-4.58
X5.18Y-4.58
T5
X5.5751Y-1.8203
X5.5751Y-1.9975
X5.831Y-1.8203
X5.831Y-1.9975
T6
X5.475Y-3.925
X5.475Y-4.2222
X6.0Y-3.9278
X6.0Y-4.225
T0
M30
