G04 #@! TF.GenerationSoftware,KiCad,Pcbnew,7.0.9*
G04 #@! TF.CreationDate,2024-04-03T04:08:09-05:00*
G04 #@! TF.ProjectId,Arduino Controller - Entrex Trapezoid,41726475-696e-46f2-9043-6f6e74726f6c,rev?*
G04 #@! TF.SameCoordinates,Original*
G04 #@! TF.FileFunction,AssemblyDrawing,Top*
%FSLAX46Y46*%
G04 Gerber Fmt 4.6, Leading zero omitted, Abs format (unit mm)*
G04 Created by KiCad (PCBNEW 7.0.9) date 2024-04-03 04:08:09*
%MOMM*%
%LPD*%
G01*
G04 APERTURE LIST*
%ADD10C,0.150000*%
%ADD11C,0.100000*%
G04 APERTURE END LIST*
D10*
X153022819Y-84489333D02*
X153737104Y-84489333D01*
X153737104Y-84489333D02*
X153879961Y-84536952D01*
X153879961Y-84536952D02*
X153975200Y-84632190D01*
X153975200Y-84632190D02*
X154022819Y-84775047D01*
X154022819Y-84775047D02*
X154022819Y-84870285D01*
X153118057Y-84060761D02*
X153070438Y-84013142D01*
X153070438Y-84013142D02*
X153022819Y-83917904D01*
X153022819Y-83917904D02*
X153022819Y-83679809D01*
X153022819Y-83679809D02*
X153070438Y-83584571D01*
X153070438Y-83584571D02*
X153118057Y-83536952D01*
X153118057Y-83536952D02*
X153213295Y-83489333D01*
X153213295Y-83489333D02*
X153308533Y-83489333D01*
X153308533Y-83489333D02*
X153451390Y-83536952D01*
X153451390Y-83536952D02*
X154022819Y-84108380D01*
X154022819Y-84108380D02*
X154022819Y-83489333D01*
X91732666Y-54710819D02*
X91732666Y-55425104D01*
X91732666Y-55425104D02*
X91685047Y-55567961D01*
X91685047Y-55567961D02*
X91589809Y-55663200D01*
X91589809Y-55663200D02*
X91446952Y-55710819D01*
X91446952Y-55710819D02*
X91351714Y-55710819D01*
X92637428Y-55044152D02*
X92637428Y-55710819D01*
X92399333Y-54663200D02*
X92161238Y-55377485D01*
X92161238Y-55377485D02*
X92780285Y-55377485D01*
X68872666Y-54700819D02*
X68872666Y-55415104D01*
X68872666Y-55415104D02*
X68825047Y-55557961D01*
X68825047Y-55557961D02*
X68729809Y-55653200D01*
X68729809Y-55653200D02*
X68586952Y-55700819D01*
X68586952Y-55700819D02*
X68491714Y-55700819D01*
X69253619Y-54700819D02*
X69872666Y-54700819D01*
X69872666Y-54700819D02*
X69539333Y-55081771D01*
X69539333Y-55081771D02*
X69682190Y-55081771D01*
X69682190Y-55081771D02*
X69777428Y-55129390D01*
X69777428Y-55129390D02*
X69825047Y-55177009D01*
X69825047Y-55177009D02*
X69872666Y-55272247D01*
X69872666Y-55272247D02*
X69872666Y-55510342D01*
X69872666Y-55510342D02*
X69825047Y-55605580D01*
X69825047Y-55605580D02*
X69777428Y-55653200D01*
X69777428Y-55653200D02*
X69682190Y-55700819D01*
X69682190Y-55700819D02*
X69396476Y-55700819D01*
X69396476Y-55700819D02*
X69301238Y-55653200D01*
X69301238Y-55653200D02*
X69253619Y-55605580D01*
X106981666Y-43904819D02*
X106981666Y-44619104D01*
X106981666Y-44619104D02*
X106934047Y-44761961D01*
X106934047Y-44761961D02*
X106838809Y-44857200D01*
X106838809Y-44857200D02*
X106695952Y-44904819D01*
X106695952Y-44904819D02*
X106600714Y-44904819D01*
X107886428Y-43904819D02*
X107695952Y-43904819D01*
X107695952Y-43904819D02*
X107600714Y-43952438D01*
X107600714Y-43952438D02*
X107553095Y-44000057D01*
X107553095Y-44000057D02*
X107457857Y-44142914D01*
X107457857Y-44142914D02*
X107410238Y-44333390D01*
X107410238Y-44333390D02*
X107410238Y-44714342D01*
X107410238Y-44714342D02*
X107457857Y-44809580D01*
X107457857Y-44809580D02*
X107505476Y-44857200D01*
X107505476Y-44857200D02*
X107600714Y-44904819D01*
X107600714Y-44904819D02*
X107791190Y-44904819D01*
X107791190Y-44904819D02*
X107886428Y-44857200D01*
X107886428Y-44857200D02*
X107934047Y-44809580D01*
X107934047Y-44809580D02*
X107981666Y-44714342D01*
X107981666Y-44714342D02*
X107981666Y-44476247D01*
X107981666Y-44476247D02*
X107934047Y-44381009D01*
X107934047Y-44381009D02*
X107886428Y-44333390D01*
X107886428Y-44333390D02*
X107791190Y-44285771D01*
X107791190Y-44285771D02*
X107600714Y-44285771D01*
X107600714Y-44285771D02*
X107505476Y-44333390D01*
X107505476Y-44333390D02*
X107457857Y-44381009D01*
X107457857Y-44381009D02*
X107410238Y-44476247D01*
X143143713Y-48940819D02*
X142810380Y-48464628D01*
X142572285Y-48940819D02*
X142572285Y-47940819D01*
X142572285Y-47940819D02*
X142953237Y-47940819D01*
X142953237Y-47940819D02*
X143048475Y-47988438D01*
X143048475Y-47988438D02*
X143096094Y-48036057D01*
X143096094Y-48036057D02*
X143143713Y-48131295D01*
X143143713Y-48131295D02*
X143143713Y-48274152D01*
X143143713Y-48274152D02*
X143096094Y-48369390D01*
X143096094Y-48369390D02*
X143048475Y-48417009D01*
X143048475Y-48417009D02*
X142953237Y-48464628D01*
X142953237Y-48464628D02*
X142572285Y-48464628D01*
X143953237Y-48893200D02*
X143857999Y-48940819D01*
X143857999Y-48940819D02*
X143667523Y-48940819D01*
X143667523Y-48940819D02*
X143572285Y-48893200D01*
X143572285Y-48893200D02*
X143524666Y-48797961D01*
X143524666Y-48797961D02*
X143524666Y-48417009D01*
X143524666Y-48417009D02*
X143572285Y-48321771D01*
X143572285Y-48321771D02*
X143667523Y-48274152D01*
X143667523Y-48274152D02*
X143857999Y-48274152D01*
X143857999Y-48274152D02*
X143953237Y-48321771D01*
X143953237Y-48321771D02*
X144000856Y-48417009D01*
X144000856Y-48417009D02*
X144000856Y-48512247D01*
X144000856Y-48512247D02*
X143524666Y-48607485D01*
X144381809Y-48893200D02*
X144477047Y-48940819D01*
X144477047Y-48940819D02*
X144667523Y-48940819D01*
X144667523Y-48940819D02*
X144762761Y-48893200D01*
X144762761Y-48893200D02*
X144810380Y-48797961D01*
X144810380Y-48797961D02*
X144810380Y-48750342D01*
X144810380Y-48750342D02*
X144762761Y-48655104D01*
X144762761Y-48655104D02*
X144667523Y-48607485D01*
X144667523Y-48607485D02*
X144524666Y-48607485D01*
X144524666Y-48607485D02*
X144429428Y-48559866D01*
X144429428Y-48559866D02*
X144381809Y-48464628D01*
X144381809Y-48464628D02*
X144381809Y-48417009D01*
X144381809Y-48417009D02*
X144429428Y-48321771D01*
X144429428Y-48321771D02*
X144524666Y-48274152D01*
X144524666Y-48274152D02*
X144667523Y-48274152D01*
X144667523Y-48274152D02*
X144762761Y-48321771D01*
X145619904Y-48893200D02*
X145524666Y-48940819D01*
X145524666Y-48940819D02*
X145334190Y-48940819D01*
X145334190Y-48940819D02*
X145238952Y-48893200D01*
X145238952Y-48893200D02*
X145191333Y-48797961D01*
X145191333Y-48797961D02*
X145191333Y-48417009D01*
X145191333Y-48417009D02*
X145238952Y-48321771D01*
X145238952Y-48321771D02*
X145334190Y-48274152D01*
X145334190Y-48274152D02*
X145524666Y-48274152D01*
X145524666Y-48274152D02*
X145619904Y-48321771D01*
X145619904Y-48321771D02*
X145667523Y-48417009D01*
X145667523Y-48417009D02*
X145667523Y-48512247D01*
X145667523Y-48512247D02*
X145191333Y-48607485D01*
X145953238Y-48274152D02*
X146334190Y-48274152D01*
X146096095Y-47940819D02*
X146096095Y-48797961D01*
X146096095Y-48797961D02*
X146143714Y-48893200D01*
X146143714Y-48893200D02*
X146238952Y-48940819D01*
X146238952Y-48940819D02*
X146334190Y-48940819D01*
X147191333Y-48940819D02*
X146619905Y-48940819D01*
X146905619Y-48940819D02*
X146905619Y-47940819D01*
X146905619Y-47940819D02*
X146810381Y-48083676D01*
X146810381Y-48083676D02*
X146715143Y-48178914D01*
X146715143Y-48178914D02*
X146619905Y-48226533D01*
X126022666Y-54700819D02*
X126022666Y-55415104D01*
X126022666Y-55415104D02*
X125975047Y-55557961D01*
X125975047Y-55557961D02*
X125879809Y-55653200D01*
X125879809Y-55653200D02*
X125736952Y-55700819D01*
X125736952Y-55700819D02*
X125641714Y-55700819D01*
X126641714Y-55129390D02*
X126546476Y-55081771D01*
X126546476Y-55081771D02*
X126498857Y-55034152D01*
X126498857Y-55034152D02*
X126451238Y-54938914D01*
X126451238Y-54938914D02*
X126451238Y-54891295D01*
X126451238Y-54891295D02*
X126498857Y-54796057D01*
X126498857Y-54796057D02*
X126546476Y-54748438D01*
X126546476Y-54748438D02*
X126641714Y-54700819D01*
X126641714Y-54700819D02*
X126832190Y-54700819D01*
X126832190Y-54700819D02*
X126927428Y-54748438D01*
X126927428Y-54748438D02*
X126975047Y-54796057D01*
X126975047Y-54796057D02*
X127022666Y-54891295D01*
X127022666Y-54891295D02*
X127022666Y-54938914D01*
X127022666Y-54938914D02*
X126975047Y-55034152D01*
X126975047Y-55034152D02*
X126927428Y-55081771D01*
X126927428Y-55081771D02*
X126832190Y-55129390D01*
X126832190Y-55129390D02*
X126641714Y-55129390D01*
X126641714Y-55129390D02*
X126546476Y-55177009D01*
X126546476Y-55177009D02*
X126498857Y-55224628D01*
X126498857Y-55224628D02*
X126451238Y-55319866D01*
X126451238Y-55319866D02*
X126451238Y-55510342D01*
X126451238Y-55510342D02*
X126498857Y-55605580D01*
X126498857Y-55605580D02*
X126546476Y-55653200D01*
X126546476Y-55653200D02*
X126641714Y-55700819D01*
X126641714Y-55700819D02*
X126832190Y-55700819D01*
X126832190Y-55700819D02*
X126927428Y-55653200D01*
X126927428Y-55653200D02*
X126975047Y-55605580D01*
X126975047Y-55605580D02*
X127022666Y-55510342D01*
X127022666Y-55510342D02*
X127022666Y-55319866D01*
X127022666Y-55319866D02*
X126975047Y-55224628D01*
X126975047Y-55224628D02*
X126927428Y-55177009D01*
X126927428Y-55177009D02*
X126832190Y-55129390D01*
X151638095Y-100219819D02*
X151638095Y-99219819D01*
X151638095Y-99696009D02*
X152209523Y-99696009D01*
X152209523Y-100219819D02*
X152209523Y-99219819D01*
X153209523Y-100219819D02*
X152638095Y-100219819D01*
X152923809Y-100219819D02*
X152923809Y-99219819D01*
X152923809Y-99219819D02*
X152828571Y-99362676D01*
X152828571Y-99362676D02*
X152733333Y-99457914D01*
X152733333Y-99457914D02*
X152638095Y-99505533D01*
X138303095Y-107699819D02*
X138303095Y-106699819D01*
X138303095Y-107176009D02*
X138874523Y-107176009D01*
X138874523Y-107699819D02*
X138874523Y-106699819D01*
X139779285Y-107033152D02*
X139779285Y-107699819D01*
X139541190Y-106652200D02*
X139303095Y-107366485D01*
X139303095Y-107366485D02*
X139922142Y-107366485D01*
X95520238Y-108889819D02*
X95758333Y-109889819D01*
X95758333Y-109889819D02*
X95948809Y-109175533D01*
X95948809Y-109175533D02*
X96139285Y-109889819D01*
X96139285Y-109889819D02*
X96377381Y-108889819D01*
X97282142Y-109889819D02*
X96710714Y-109889819D01*
X96996428Y-109889819D02*
X96996428Y-108889819D01*
X96996428Y-108889819D02*
X96901190Y-109032676D01*
X96901190Y-109032676D02*
X96805952Y-109127914D01*
X96805952Y-109127914D02*
X96710714Y-109175533D01*
X71421666Y-122644819D02*
X71421666Y-123359104D01*
X71421666Y-123359104D02*
X71374047Y-123501961D01*
X71374047Y-123501961D02*
X71278809Y-123597200D01*
X71278809Y-123597200D02*
X71135952Y-123644819D01*
X71135952Y-123644819D02*
X71040714Y-123644819D01*
X72421666Y-123644819D02*
X71850238Y-123644819D01*
X72135952Y-123644819D02*
X72135952Y-122644819D01*
X72135952Y-122644819D02*
X72040714Y-122787676D01*
X72040714Y-122787676D02*
X71945476Y-122882914D01*
X71945476Y-122882914D02*
X71850238Y-122930533D01*
X151638095Y-107769819D02*
X151638095Y-106769819D01*
X151638095Y-107246009D02*
X152209523Y-107246009D01*
X152209523Y-107769819D02*
X152209523Y-106769819D01*
X152638095Y-106865057D02*
X152685714Y-106817438D01*
X152685714Y-106817438D02*
X152780952Y-106769819D01*
X152780952Y-106769819D02*
X153019047Y-106769819D01*
X153019047Y-106769819D02*
X153114285Y-106817438D01*
X153114285Y-106817438D02*
X153161904Y-106865057D01*
X153161904Y-106865057D02*
X153209523Y-106960295D01*
X153209523Y-106960295D02*
X153209523Y-107055533D01*
X153209523Y-107055533D02*
X153161904Y-107198390D01*
X153161904Y-107198390D02*
X152590476Y-107769819D01*
X152590476Y-107769819D02*
X153209523Y-107769819D01*
X83966666Y-79384819D02*
X83966666Y-80099104D01*
X83966666Y-80099104D02*
X83919047Y-80241961D01*
X83919047Y-80241961D02*
X83823809Y-80337200D01*
X83823809Y-80337200D02*
X83680952Y-80384819D01*
X83680952Y-80384819D02*
X83585714Y-80384819D01*
X84490476Y-80384819D02*
X84680952Y-80384819D01*
X84680952Y-80384819D02*
X84776190Y-80337200D01*
X84776190Y-80337200D02*
X84823809Y-80289580D01*
X84823809Y-80289580D02*
X84919047Y-80146723D01*
X84919047Y-80146723D02*
X84966666Y-79956247D01*
X84966666Y-79956247D02*
X84966666Y-79575295D01*
X84966666Y-79575295D02*
X84919047Y-79480057D01*
X84919047Y-79480057D02*
X84871428Y-79432438D01*
X84871428Y-79432438D02*
X84776190Y-79384819D01*
X84776190Y-79384819D02*
X84585714Y-79384819D01*
X84585714Y-79384819D02*
X84490476Y-79432438D01*
X84490476Y-79432438D02*
X84442857Y-79480057D01*
X84442857Y-79480057D02*
X84395238Y-79575295D01*
X84395238Y-79575295D02*
X84395238Y-79813390D01*
X84395238Y-79813390D02*
X84442857Y-79908628D01*
X84442857Y-79908628D02*
X84490476Y-79956247D01*
X84490476Y-79956247D02*
X84585714Y-80003866D01*
X84585714Y-80003866D02*
X84776190Y-80003866D01*
X84776190Y-80003866D02*
X84871428Y-79956247D01*
X84871428Y-79956247D02*
X84919047Y-79908628D01*
X84919047Y-79908628D02*
X84966666Y-79813390D01*
X107740238Y-84769819D02*
X107978333Y-85769819D01*
X107978333Y-85769819D02*
X108168809Y-85055533D01*
X108168809Y-85055533D02*
X108359285Y-85769819D01*
X108359285Y-85769819D02*
X108597381Y-84769819D01*
X108930714Y-84865057D02*
X108978333Y-84817438D01*
X108978333Y-84817438D02*
X109073571Y-84769819D01*
X109073571Y-84769819D02*
X109311666Y-84769819D01*
X109311666Y-84769819D02*
X109406904Y-84817438D01*
X109406904Y-84817438D02*
X109454523Y-84865057D01*
X109454523Y-84865057D02*
X109502142Y-84960295D01*
X109502142Y-84960295D02*
X109502142Y-85055533D01*
X109502142Y-85055533D02*
X109454523Y-85198390D01*
X109454523Y-85198390D02*
X108883095Y-85769819D01*
X108883095Y-85769819D02*
X109502142Y-85769819D01*
X123650476Y-43904819D02*
X123650476Y-44619104D01*
X123650476Y-44619104D02*
X123602857Y-44761961D01*
X123602857Y-44761961D02*
X123507619Y-44857200D01*
X123507619Y-44857200D02*
X123364762Y-44904819D01*
X123364762Y-44904819D02*
X123269524Y-44904819D01*
X124650476Y-44904819D02*
X124079048Y-44904819D01*
X124364762Y-44904819D02*
X124364762Y-43904819D01*
X124364762Y-43904819D02*
X124269524Y-44047676D01*
X124269524Y-44047676D02*
X124174286Y-44142914D01*
X124174286Y-44142914D02*
X124079048Y-44190533D01*
X125269524Y-43904819D02*
X125364762Y-43904819D01*
X125364762Y-43904819D02*
X125460000Y-43952438D01*
X125460000Y-43952438D02*
X125507619Y-44000057D01*
X125507619Y-44000057D02*
X125555238Y-44095295D01*
X125555238Y-44095295D02*
X125602857Y-44285771D01*
X125602857Y-44285771D02*
X125602857Y-44523866D01*
X125602857Y-44523866D02*
X125555238Y-44714342D01*
X125555238Y-44714342D02*
X125507619Y-44809580D01*
X125507619Y-44809580D02*
X125460000Y-44857200D01*
X125460000Y-44857200D02*
X125364762Y-44904819D01*
X125364762Y-44904819D02*
X125269524Y-44904819D01*
X125269524Y-44904819D02*
X125174286Y-44857200D01*
X125174286Y-44857200D02*
X125126667Y-44809580D01*
X125126667Y-44809580D02*
X125079048Y-44714342D01*
X125079048Y-44714342D02*
X125031429Y-44523866D01*
X125031429Y-44523866D02*
X125031429Y-44285771D01*
X125031429Y-44285771D02*
X125079048Y-44095295D01*
X125079048Y-44095295D02*
X125126667Y-44000057D01*
X125126667Y-44000057D02*
X125174286Y-43952438D01*
X125174286Y-43952438D02*
X125269524Y-43904819D01*
X101473095Y-82004819D02*
X101473095Y-82814342D01*
X101473095Y-82814342D02*
X101520714Y-82909580D01*
X101520714Y-82909580D02*
X101568333Y-82957200D01*
X101568333Y-82957200D02*
X101663571Y-83004819D01*
X101663571Y-83004819D02*
X101854047Y-83004819D01*
X101854047Y-83004819D02*
X101949285Y-82957200D01*
X101949285Y-82957200D02*
X101996904Y-82909580D01*
X101996904Y-82909580D02*
X102044523Y-82814342D01*
X102044523Y-82814342D02*
X102044523Y-82004819D01*
X103044523Y-83004819D02*
X102473095Y-83004819D01*
X102758809Y-83004819D02*
X102758809Y-82004819D01*
X102758809Y-82004819D02*
X102663571Y-82147676D01*
X102663571Y-82147676D02*
X102568333Y-82242914D01*
X102568333Y-82242914D02*
X102473095Y-82290533D01*
X138303095Y-100149819D02*
X138303095Y-99149819D01*
X138303095Y-99626009D02*
X138874523Y-99626009D01*
X138874523Y-100149819D02*
X138874523Y-99149819D01*
X139255476Y-99149819D02*
X139874523Y-99149819D01*
X139874523Y-99149819D02*
X139541190Y-99530771D01*
X139541190Y-99530771D02*
X139684047Y-99530771D01*
X139684047Y-99530771D02*
X139779285Y-99578390D01*
X139779285Y-99578390D02*
X139826904Y-99626009D01*
X139826904Y-99626009D02*
X139874523Y-99721247D01*
X139874523Y-99721247D02*
X139874523Y-99959342D01*
X139874523Y-99959342D02*
X139826904Y-100054580D01*
X139826904Y-100054580D02*
X139779285Y-100102200D01*
X139779285Y-100102200D02*
X139684047Y-100149819D01*
X139684047Y-100149819D02*
X139398333Y-100149819D01*
X139398333Y-100149819D02*
X139303095Y-100102200D01*
X139303095Y-100102200D02*
X139255476Y-100054580D01*
D11*
X152298000Y-79711000D02*
X152933000Y-79076000D01*
X152298000Y-89236000D02*
X152298000Y-79711000D01*
X152933000Y-79076000D02*
X154838000Y-79076000D01*
X154838000Y-79076000D02*
X154838000Y-89236000D01*
X154838000Y-89236000D02*
X152298000Y-89236000D01*
X101591000Y-53986000D02*
X102226000Y-54621000D01*
X81906000Y-53986000D02*
X101591000Y-53986000D01*
X102226000Y-54621000D02*
X102226000Y-56526000D01*
X102226000Y-56526000D02*
X81906000Y-56526000D01*
X81906000Y-56526000D02*
X81906000Y-53986000D01*
X78731000Y-53976000D02*
X79366000Y-54611000D01*
X59046000Y-53976000D02*
X78731000Y-53976000D01*
X79366000Y-54611000D02*
X79366000Y-56516000D01*
X79366000Y-56516000D02*
X59046000Y-56516000D01*
X59046000Y-56516000D02*
X59046000Y-53976000D01*
X96520000Y-43180000D02*
X97155000Y-43815000D01*
X81915000Y-43180000D02*
X96520000Y-43180000D01*
X97155000Y-43815000D02*
X97155000Y-45720000D01*
X97155000Y-45720000D02*
X81915000Y-45720000D01*
X81915000Y-45720000D02*
X81915000Y-43180000D01*
X111760000Y-43180000D02*
X112395000Y-43815000D01*
X102235000Y-43180000D02*
X111760000Y-43180000D01*
X112395000Y-43815000D02*
X112395000Y-45720000D01*
X112395000Y-45720000D02*
X102235000Y-45720000D01*
X102235000Y-45720000D02*
X102235000Y-43180000D01*
X147858000Y-51486000D02*
X144858000Y-51486000D01*
X147858000Y-45486000D02*
X147858000Y-51486000D01*
X144858000Y-51486000D02*
X141858000Y-51486000D01*
X141858000Y-51486000D02*
X141858000Y-45486000D01*
X141858000Y-45486000D02*
X147858000Y-45486000D01*
X146873564Y-48486000D02*
G75*
G03*
X146873564Y-48486000I-2015564J0D01*
G01*
X102861000Y-56516000D02*
X102226000Y-55881000D01*
X150486000Y-56516000D02*
X102861000Y-56516000D01*
X102226000Y-55881000D02*
X102226000Y-53976000D01*
X102226000Y-53976000D02*
X150486000Y-53976000D01*
X150486000Y-53976000D02*
X150486000Y-56516000D01*
X48260000Y-124460000D02*
X47625000Y-123825000D01*
X95885000Y-124460000D02*
X48260000Y-124460000D01*
X47625000Y-123825000D02*
X47625000Y-121920000D01*
X47625000Y-121920000D02*
X95885000Y-121920000D01*
X95885000Y-121920000D02*
X95885000Y-124460000D01*
X77950000Y-82470000D02*
X90650000Y-82470000D01*
X90650000Y-82470000D02*
X90650000Y-77390000D01*
X77950000Y-78660000D02*
X77950000Y-82470000D01*
X79220000Y-77390000D02*
X77950000Y-78660000D01*
X90650000Y-77390000D02*
X79220000Y-77390000D01*
X128905000Y-43180000D02*
X129540000Y-43815000D01*
X119380000Y-43180000D02*
X128905000Y-43180000D01*
X129540000Y-43815000D02*
X129540000Y-45720000D01*
X129540000Y-45720000D02*
X119380000Y-45720000D01*
X119380000Y-45720000D02*
X119380000Y-43180000D01*
X99060000Y-74660000D02*
X100060000Y-73660000D01*
X99060000Y-91440000D02*
X99060000Y-74660000D01*
X100060000Y-73660000D02*
X105410000Y-73660000D01*
X105410000Y-73660000D02*
X105410000Y-91440000D01*
X105410000Y-91440000D02*
X99060000Y-91440000D01*
M02*
