G04 #@! TF.GenerationSoftware,KiCad,Pcbnew,7.0.9*
G04 #@! TF.CreationDate,2024-04-03T05:00:35-05:00*
G04 #@! TF.ProjectId,Tester - Entrex Front Panel,54657374-6572-4202-9d20-456e74726578,rev?*
G04 #@! TF.SameCoordinates,Original*
G04 #@! TF.FileFunction,Legend,Bot*
G04 #@! TF.FilePolarity,Positive*
%FSLAX46Y46*%
G04 Gerber Fmt 4.6, Leading zero omitted, Abs format (unit mm)*
G04 Created by KiCad (PCBNEW 7.0.9) date 2024-04-03 05:00:35*
%MOMM*%
%LPD*%
G01*
G04 APERTURE LIST*
%ADD10C,0.300000*%
G04 APERTURE END LIST*
D10*
X62454191Y-126925638D02*
X63406572Y-126925638D01*
X63406572Y-126925638D02*
X63501810Y-127878019D01*
X63501810Y-127878019D02*
X63406572Y-127782780D01*
X63406572Y-127782780D02*
X63216096Y-127687542D01*
X63216096Y-127687542D02*
X62739905Y-127687542D01*
X62739905Y-127687542D02*
X62549429Y-127782780D01*
X62549429Y-127782780D02*
X62454191Y-127878019D01*
X62454191Y-127878019D02*
X62358953Y-128068495D01*
X62358953Y-128068495D02*
X62358953Y-128544685D01*
X62358953Y-128544685D02*
X62454191Y-128735161D01*
X62454191Y-128735161D02*
X62549429Y-128830400D01*
X62549429Y-128830400D02*
X62739905Y-128925638D01*
X62739905Y-128925638D02*
X63216096Y-128925638D01*
X63216096Y-128925638D02*
X63406572Y-128830400D01*
X63406572Y-128830400D02*
X63501810Y-128735161D01*
X61597048Y-127116114D02*
X61501810Y-127020876D01*
X61501810Y-127020876D02*
X61311334Y-126925638D01*
X61311334Y-126925638D02*
X60835143Y-126925638D01*
X60835143Y-126925638D02*
X60644667Y-127020876D01*
X60644667Y-127020876D02*
X60549429Y-127116114D01*
X60549429Y-127116114D02*
X60454191Y-127306590D01*
X60454191Y-127306590D02*
X60454191Y-127497066D01*
X60454191Y-127497066D02*
X60549429Y-127782780D01*
X60549429Y-127782780D02*
X61692286Y-128925638D01*
X61692286Y-128925638D02*
X60454191Y-128925638D01*
X142901810Y-127116114D02*
X142806572Y-127020876D01*
X142806572Y-127020876D02*
X142616096Y-126925638D01*
X142616096Y-126925638D02*
X142139905Y-126925638D01*
X142139905Y-126925638D02*
X141949429Y-127020876D01*
X141949429Y-127020876D02*
X141854191Y-127116114D01*
X141854191Y-127116114D02*
X141758953Y-127306590D01*
X141758953Y-127306590D02*
X141758953Y-127497066D01*
X141758953Y-127497066D02*
X141854191Y-127782780D01*
X141854191Y-127782780D02*
X142997048Y-128925638D01*
X142997048Y-128925638D02*
X141758953Y-128925638D01*
X141092286Y-126925638D02*
X139758953Y-126925638D01*
X139758953Y-126925638D02*
X140616096Y-128925638D01*
M02*
