G04 #@! TF.GenerationSoftware,KiCad,Pcbnew,7.0.9*
G04 #@! TF.CreationDate,2024-04-03T05:00:35-05:00*
G04 #@! TF.ProjectId,Tester - Entrex Front Panel,54657374-6572-4202-9d20-456e74726578,rev?*
G04 #@! TF.SameCoordinates,Original*
G04 #@! TF.FileFunction,Copper,L1,Top*
G04 #@! TF.FilePolarity,Positive*
%FSLAX46Y46*%
G04 Gerber Fmt 4.6, Leading zero omitted, Abs format (unit mm)*
G04 Created by KiCad (PCBNEW 7.0.9) date 2024-04-03 05:00:35*
%MOMM*%
%LPD*%
G01*
G04 APERTURE LIST*
G04 #@! TA.AperFunction,ComponentPad*
%ADD10C,1.700000*%
G04 #@! TD*
G04 #@! TA.AperFunction,ComponentPad*
%ADD11O,1.700000X1.700000*%
G04 #@! TD*
G04 #@! TA.AperFunction,ComponentPad*
%ADD12C,2.000000*%
G04 #@! TD*
G04 #@! TA.AperFunction,ComponentPad*
%ADD13O,1.727200X1.727200*%
G04 #@! TD*
G04 #@! TA.AperFunction,ComponentPad*
%ADD14R,1.700000X1.700000*%
G04 #@! TD*
G04 #@! TA.AperFunction,SMDPad,CuDef*
%ADD15R,1.905000X8.300000*%
G04 #@! TD*
G04 #@! TA.AperFunction,SMDPad,CuDef*
%ADD16R,1.450000X8.300000*%
G04 #@! TD*
G04 #@! TA.AperFunction,ViaPad*
%ADD17C,0.600000*%
G04 #@! TD*
G04 #@! TA.AperFunction,Conductor*
%ADD18C,0.250000*%
G04 #@! TD*
G04 #@! TA.AperFunction,Conductor*
%ADD19C,0.254000*%
G04 #@! TD*
G04 #@! TA.AperFunction,Conductor*
%ADD20C,2.000000*%
G04 #@! TD*
G04 #@! TA.AperFunction,Conductor*
%ADD21C,1.000000*%
G04 #@! TD*
G04 #@! TA.AperFunction,Conductor*
%ADD22C,0.800000*%
G04 #@! TD*
G04 #@! TA.AperFunction,Conductor*
%ADD23C,0.200000*%
G04 #@! TD*
G04 #@! TA.AperFunction,Conductor*
%ADD24C,0.500000*%
G04 #@! TD*
G04 #@! TA.AperFunction,Conductor*
%ADD25C,0.700000*%
G04 #@! TD*
G04 #@! TA.AperFunction,Conductor*
%ADD26C,0.750000*%
G04 #@! TD*
G04 APERTURE END LIST*
D10*
X100956000Y-55256000D03*
D11*
X98416000Y-55256000D03*
X95876000Y-55256000D03*
X93336000Y-55256000D03*
X90796000Y-55256000D03*
X88256000Y-55256000D03*
X85716000Y-55256000D03*
X83176000Y-55256000D03*
D10*
X78096000Y-55246000D03*
D11*
X75556000Y-55246000D03*
X73016000Y-55246000D03*
X70476000Y-55246000D03*
X67936000Y-55246000D03*
X65396000Y-55246000D03*
X62856000Y-55246000D03*
X60316000Y-55246000D03*
D10*
X96520000Y-45085000D03*
D11*
X93980000Y-45085000D03*
X91440000Y-45085000D03*
X88900000Y-45085000D03*
X86360000Y-45085000D03*
X83820000Y-45085000D03*
D10*
X111760000Y-45085000D03*
D11*
X109220000Y-45085000D03*
X106680000Y-45085000D03*
X104140000Y-45085000D03*
D12*
X148108000Y-50736000D03*
X141608000Y-50736000D03*
X148108000Y-46236000D03*
X141608000Y-46236000D03*
D10*
X52700000Y-55246000D03*
D11*
X55240000Y-55246000D03*
D10*
X103496000Y-55246000D03*
D11*
X106036000Y-55246000D03*
X108576000Y-55246000D03*
X111116000Y-55246000D03*
X113656000Y-55246000D03*
X116196000Y-55246000D03*
X118736000Y-55246000D03*
X121276000Y-55246000D03*
X123816000Y-55246000D03*
X126356000Y-55246000D03*
X128896000Y-55246000D03*
X131436000Y-55246000D03*
X133976000Y-55246000D03*
X136516000Y-55246000D03*
X139056000Y-55246000D03*
X141596000Y-55246000D03*
X144136000Y-55246000D03*
X146676000Y-55246000D03*
X149216000Y-55246000D03*
D13*
X122428000Y-65786000D03*
X114808000Y-65786000D03*
X112268000Y-65786000D03*
X84201000Y-93726000D03*
X56388000Y-114046000D03*
X53848000Y-114046000D03*
X99568000Y-65786000D03*
X97028000Y-65786000D03*
X94488000Y-65786000D03*
X91948000Y-65786000D03*
X89408000Y-65786000D03*
X86868000Y-65786000D03*
X84328000Y-65786000D03*
X81788000Y-65786000D03*
X76708000Y-65786000D03*
X74168000Y-65786000D03*
X71628000Y-65786000D03*
X69088000Y-65786000D03*
X66548000Y-65786000D03*
X64008000Y-65786000D03*
X61468000Y-65786000D03*
X58928000Y-65786000D03*
X126492000Y-114046000D03*
X86868000Y-114046000D03*
X89408000Y-114046000D03*
X91948000Y-114046000D03*
X94488000Y-114046000D03*
X97028000Y-114046000D03*
X99568000Y-114046000D03*
X102108000Y-114046000D03*
X104648000Y-114046000D03*
X108712000Y-114046000D03*
X111252000Y-114046000D03*
X113792000Y-114046000D03*
X116332000Y-114046000D03*
X118872000Y-114046000D03*
X121412000Y-114046000D03*
X81788000Y-114046000D03*
X79248000Y-114046000D03*
X76708000Y-114046000D03*
X74168000Y-114046000D03*
X71628000Y-114046000D03*
X69088000Y-114046000D03*
X66548000Y-114046000D03*
X64008000Y-114046000D03*
X56388000Y-111506000D03*
X53848000Y-111506000D03*
X56388000Y-108966000D03*
X53848000Y-108966000D03*
X56388000Y-106426000D03*
X53848000Y-106426000D03*
X56388000Y-103886000D03*
X53848000Y-103886000D03*
X56388000Y-101346000D03*
X53848000Y-101346000D03*
X56388000Y-98806000D03*
X53848000Y-98806000D03*
X56388000Y-96266000D03*
X53848000Y-96266000D03*
X56388000Y-93726000D03*
X53848000Y-93726000D03*
X56388000Y-91186000D03*
X53848000Y-91186000D03*
X56388000Y-88646000D03*
X53848000Y-88646000D03*
X56388000Y-86106000D03*
X53848000Y-86106000D03*
X56388000Y-83566000D03*
X53848000Y-83566000D03*
X56388000Y-81026000D03*
X53848000Y-81026000D03*
X56388000Y-78486000D03*
X53848000Y-78486000D03*
X56388000Y-75946000D03*
X53848000Y-75946000D03*
X56388000Y-73406000D03*
X53848000Y-73406000D03*
X123952000Y-114046000D03*
X109728000Y-65786000D03*
X107188000Y-65786000D03*
X84201000Y-88646000D03*
X56388000Y-70866000D03*
X53848000Y-70866000D03*
X119888000Y-65786000D03*
X86741000Y-93726000D03*
X84201000Y-91186000D03*
X117348000Y-65786000D03*
X86741000Y-88646000D03*
X86741000Y-91186000D03*
X131572000Y-114046000D03*
X129032000Y-114046000D03*
X104648000Y-65786000D03*
D14*
X153475000Y-80395000D03*
D11*
X153475000Y-82935000D03*
X153475000Y-85475000D03*
X153475000Y-88015000D03*
X153475000Y-90555000D03*
X153475000Y-93095000D03*
D14*
X57475000Y-45225000D03*
D11*
X60015000Y-45225000D03*
X62555000Y-45225000D03*
X65095000Y-45225000D03*
X67635000Y-45225000D03*
X70175000Y-45225000D03*
X72715000Y-45225000D03*
X75255000Y-45225000D03*
D14*
X65024000Y-84836000D03*
D11*
X62484000Y-84836000D03*
X65024000Y-87376000D03*
X62484000Y-87376000D03*
X65024000Y-89916000D03*
X62484000Y-89916000D03*
X65024000Y-92456000D03*
X62484000Y-92456000D03*
X65024000Y-94996000D03*
X62484000Y-94996000D03*
D14*
X133985000Y-73660000D03*
D11*
X131445000Y-73660000D03*
X133985000Y-76200000D03*
X131445000Y-76200000D03*
X133985000Y-78740000D03*
X131445000Y-78740000D03*
X133985000Y-81280000D03*
X131445000Y-81280000D03*
X133985000Y-83820000D03*
X131445000Y-83820000D03*
D14*
X133990000Y-93345000D03*
D11*
X131450000Y-93345000D03*
X133990000Y-95885000D03*
X131450000Y-95885000D03*
X133990000Y-98425000D03*
X131450000Y-98425000D03*
X133990000Y-100965000D03*
X131450000Y-100965000D03*
X133990000Y-103505000D03*
X131450000Y-103505000D03*
D15*
X141250000Y-136220000D03*
X138075000Y-136220000D03*
X134900000Y-136220000D03*
X131725000Y-136220000D03*
X128550000Y-136220000D03*
X125375000Y-136220000D03*
X122200000Y-136220000D03*
X119025000Y-136220000D03*
X115850000Y-136220000D03*
X112675000Y-136220000D03*
X109500000Y-136220000D03*
X106325000Y-136220000D03*
D16*
X103300000Y-136220000D03*
X99825000Y-136220000D03*
D15*
X96800000Y-136220000D03*
X93625000Y-136220000D03*
X90450000Y-136220000D03*
X87275000Y-136220000D03*
X84100000Y-136220000D03*
X80925000Y-136220000D03*
X77750000Y-136220000D03*
X74575000Y-136220000D03*
X71400000Y-136220000D03*
X68225000Y-136220000D03*
X65050000Y-136220000D03*
X61875000Y-136220000D03*
D17*
X66000000Y-71075000D03*
X63850000Y-68375000D03*
X66450000Y-69250000D03*
X60375000Y-70525000D03*
X146400000Y-120650000D03*
X145100000Y-120650000D03*
X106299000Y-129286000D03*
X106299000Y-130048000D03*
X106299000Y-130810000D03*
X147650000Y-120650000D03*
X136525000Y-78740000D03*
X104150000Y-120100000D03*
X104150000Y-116200000D03*
X131445000Y-110744000D03*
X65800000Y-105200000D03*
X109474000Y-129286000D03*
X109474000Y-130810000D03*
X136525000Y-83566000D03*
X109474000Y-130048000D03*
X66700000Y-105200000D03*
X58950000Y-71175000D03*
X144399000Y-115316000D03*
X143764000Y-113411000D03*
X143637000Y-111887000D03*
X69088000Y-126746000D03*
X81661000Y-69215000D03*
X81026000Y-68453000D03*
X78867000Y-127000000D03*
X80264000Y-67564000D03*
X75565000Y-62357000D03*
X75565000Y-127254000D03*
X63500000Y-126746000D03*
X61214000Y-101092000D03*
X106426000Y-76327000D03*
X106299000Y-83058000D03*
X129159000Y-76200000D03*
X129159000Y-99949000D03*
X85725000Y-117475000D03*
X133477000Y-114554000D03*
X83947000Y-119380000D03*
X132461000Y-127127000D03*
X133096000Y-117602000D03*
X53340000Y-44069000D03*
X58293000Y-70485000D03*
X71628000Y-52578000D03*
X142367000Y-127381000D03*
X142367000Y-73152000D03*
X80010000Y-56515000D03*
X79121000Y-112141000D03*
X135255000Y-94869000D03*
X137795000Y-97917000D03*
X84963000Y-127508000D03*
X83058000Y-108839000D03*
X135255000Y-107442000D03*
X127889000Y-104648000D03*
X127889000Y-98933000D03*
X128651000Y-75057000D03*
X92964000Y-110871000D03*
X88392000Y-127635000D03*
X82677000Y-79248000D03*
X83693000Y-99314000D03*
X99568000Y-126238000D03*
X100838000Y-98425000D03*
X100965000Y-80645000D03*
X136144000Y-91821000D03*
X76327000Y-81407000D03*
X140208000Y-72009000D03*
X138938000Y-71374000D03*
X122301000Y-75311000D03*
X117221000Y-74549000D03*
X112522000Y-77724000D03*
X107315000Y-110617000D03*
X103251000Y-97028000D03*
X98425000Y-81915000D03*
X88646000Y-92583000D03*
X82804000Y-94615000D03*
X74549000Y-106680000D03*
X64389000Y-105664000D03*
X154850000Y-125600000D03*
X154305000Y-126111000D03*
X156210000Y-122936000D03*
X155702000Y-123444000D03*
X156718000Y-122428000D03*
X129032000Y-127127000D03*
X129413000Y-79248000D03*
X126111000Y-127127000D03*
X125349000Y-74803000D03*
X120015000Y-86995000D03*
X123063000Y-127127000D03*
X120015000Y-127254000D03*
X114935000Y-81788000D03*
X116713000Y-127127000D03*
X109855000Y-82042000D03*
X107823000Y-77724000D03*
X113792000Y-126873000D03*
X105029000Y-96012000D03*
X103759000Y-126873000D03*
X95758000Y-112649000D03*
X97663000Y-127508000D03*
X94742000Y-127635000D03*
X90678000Y-112776000D03*
X85471000Y-92202000D03*
X91313000Y-127508000D03*
X130302000Y-118618000D03*
X82042000Y-127381000D03*
X82296000Y-117602000D03*
X72009000Y-109093000D03*
X72644000Y-127000000D03*
X66675000Y-126746000D03*
X62865000Y-101219000D03*
D18*
X45085000Y-112623000D02*
X45606000Y-113144000D01*
X45085000Y-52324000D02*
X45085000Y-112623000D01*
X52705000Y-44704000D02*
X45085000Y-52324000D01*
X61875000Y-129413000D02*
X45606000Y-113144000D01*
D19*
X65024000Y-84836000D02*
X65024000Y-69135600D01*
X59266000Y-43434000D02*
X57475000Y-45225000D01*
X66272000Y-44737470D02*
X64968530Y-43434000D01*
X66272000Y-45466000D02*
X66272000Y-44737470D01*
X65198600Y-68961000D02*
X65198600Y-57107930D01*
X64968530Y-43434000D02*
X59266000Y-43434000D01*
X66573000Y-55733530D02*
X66573000Y-45767000D01*
X66573000Y-45767000D02*
X66272000Y-45466000D01*
X65024000Y-69135600D02*
X65198600Y-68961000D01*
X65198600Y-57107930D02*
X66573000Y-55733530D01*
X60015000Y-45225000D02*
X61298000Y-43942000D01*
X62658600Y-57107930D02*
X62658600Y-68707000D01*
X62936530Y-43942000D02*
X63754000Y-44759470D01*
X64135000Y-45929530D02*
X64135000Y-55631530D01*
X63754000Y-45548530D02*
X64135000Y-45929530D01*
X61298000Y-43942000D02*
X62936530Y-43942000D01*
X62484000Y-84836000D02*
X62484000Y-68881600D01*
X63754000Y-44759470D02*
X63754000Y-45548530D01*
X64135000Y-55631530D02*
X62658600Y-57107930D01*
X62484000Y-68881600D02*
X62658600Y-68707000D01*
X66201000Y-71276000D02*
X66000000Y-71075000D01*
X66201000Y-86199000D02*
X66201000Y-71276000D01*
X65024000Y-87376000D02*
X66201000Y-86199000D01*
X62484000Y-87376000D02*
X63847000Y-86013000D01*
X63850000Y-68375000D02*
X63847000Y-68372000D01*
X63847000Y-86013000D02*
X63847000Y-68378000D01*
X63847000Y-68378000D02*
X63850000Y-68375000D01*
X63847000Y-68372000D02*
X63847000Y-68360000D01*
X65024000Y-89916000D02*
X66675000Y-88265000D01*
X66675000Y-88265000D02*
X66675000Y-69475000D01*
X66675000Y-69475000D02*
X66450000Y-69250000D01*
X61307000Y-88739000D02*
X61307000Y-73350000D01*
X61307000Y-73350000D02*
X61307000Y-71457000D01*
X61307000Y-71457000D02*
X60375000Y-70525000D01*
X62484000Y-89916000D02*
X61307000Y-88739000D01*
D20*
X106299000Y-136194000D02*
X106325000Y-136220000D01*
X106299000Y-129286000D02*
X106299000Y-136194000D01*
D21*
X131445000Y-110744000D02*
X131450000Y-110749000D01*
D19*
X131450000Y-110993000D02*
X131445000Y-110998000D01*
D21*
X131450000Y-110739000D02*
X131445000Y-110744000D01*
X62484000Y-94996000D02*
X65024000Y-94996000D01*
D22*
X65024000Y-104424000D02*
X65800000Y-105200000D01*
X65800000Y-105200000D02*
X66700000Y-105200000D01*
X65024000Y-94996000D02*
X65024000Y-104424000D01*
D21*
X131450000Y-103505000D02*
X131450000Y-110739000D01*
D20*
X109500000Y-136220000D02*
X109474000Y-130810000D01*
X109474000Y-130810000D02*
X109474000Y-130048000D01*
D21*
X136525000Y-78740000D02*
X136525000Y-83566000D01*
X131450000Y-110749000D02*
X131450000Y-110993000D01*
X104150000Y-116200000D02*
X104150000Y-120100000D01*
D20*
X109474000Y-129286000D02*
X109500000Y-129387000D01*
X109474000Y-130048000D02*
X109474000Y-129286000D01*
D19*
X67129000Y-66888763D02*
X67897400Y-66120363D01*
X65024000Y-92456000D02*
X67129000Y-90351000D01*
X69299000Y-48641000D02*
X72715000Y-45225000D01*
X67897400Y-66120363D02*
X67897400Y-56949130D01*
X69299000Y-55547530D02*
X69299000Y-48641000D01*
X67897400Y-56949130D02*
X69299000Y-55547530D01*
X67129000Y-90351000D02*
X67129000Y-66888763D01*
X60853000Y-90825000D02*
X60853000Y-74425000D01*
X58950000Y-71175000D02*
X58975000Y-71200000D01*
X62484000Y-92456000D02*
X60853000Y-90825000D01*
X60853000Y-74425000D02*
X60853000Y-73078000D01*
X60853000Y-73078000D02*
X58950000Y-71175000D01*
X76708000Y-65786000D02*
X76708000Y-56634000D01*
X76708000Y-56634000D02*
X78096000Y-55246000D01*
X145044000Y-114671000D02*
X144399000Y-115316000D01*
X145044000Y-114671000D02*
X144145000Y-115570000D01*
X149216000Y-55246000D02*
X145044000Y-59418000D01*
X145044000Y-59418000D02*
X145044000Y-114671000D01*
X143891000Y-113411000D02*
X143764000Y-113411000D01*
X146676000Y-55246000D02*
X144590000Y-57332000D01*
X144590000Y-57332000D02*
X144590000Y-112712000D01*
X144590000Y-112712000D02*
X143891000Y-113411000D01*
X144136000Y-55246000D02*
X144136000Y-110744000D01*
X144136000Y-110744000D02*
X144136000Y-111388000D01*
X144136000Y-111388000D02*
X143637000Y-111887000D01*
X144136000Y-111388000D02*
X143383000Y-112141000D01*
X121237400Y-65278000D02*
X122023200Y-64492200D01*
X121412000Y-83693000D02*
X121237400Y-83518400D01*
X131672000Y-62630000D02*
X139056000Y-55246000D01*
X121412000Y-114046000D02*
X121412000Y-83693000D01*
X122023200Y-64492200D02*
X123885400Y-62630000D01*
X123885400Y-62630000D02*
X131672000Y-62630000D01*
X121237400Y-83518400D02*
X121237400Y-65278000D01*
X121545400Y-62176000D02*
X129586000Y-62176000D01*
X119292700Y-64428700D02*
X121545400Y-62176000D01*
X118697400Y-65024000D02*
X119292700Y-64428700D01*
X118872000Y-93599000D02*
X118697400Y-93424400D01*
X118697400Y-93424400D02*
X118697400Y-65024000D01*
X118872000Y-114046000D02*
X118872000Y-93599000D01*
X129586000Y-62176000D02*
X136516000Y-55246000D01*
X116157400Y-63547600D02*
X117983000Y-61722000D01*
X127500000Y-61722000D02*
X133976000Y-55246000D01*
X116332000Y-81661000D02*
X116157400Y-81486400D01*
X116157400Y-81486400D02*
X116157400Y-63547600D01*
X116332000Y-114046000D02*
X116332000Y-81661000D01*
X117983000Y-61722000D02*
X127500000Y-61722000D01*
X113617400Y-63039600D02*
X115443000Y-61214000D01*
X125841947Y-60840053D02*
X131436000Y-55246000D01*
X113792000Y-114046000D02*
X113792000Y-87757000D01*
X123570053Y-61214000D02*
X123944000Y-60840053D01*
X113792000Y-87757000D02*
X113617400Y-87582400D01*
X113617400Y-87582400D02*
X113617400Y-63039600D01*
X115443000Y-61214000D02*
X123570053Y-61214000D01*
X123944000Y-60840053D02*
X125841947Y-60840053D01*
X123490000Y-60652000D02*
X128896000Y-55246000D01*
X111079000Y-67310000D02*
X111077400Y-67308400D01*
X111077400Y-67308400D02*
X111077400Y-61461600D01*
X111887000Y-60652000D02*
X123490000Y-60652000D01*
X111079000Y-113873000D02*
X111079000Y-67310000D01*
X111077400Y-61461600D02*
X111887000Y-60652000D01*
X111252000Y-114046000D02*
X111079000Y-113873000D01*
X110744000Y-60198000D02*
X121404000Y-60198000D01*
X121404000Y-60198000D02*
X126356000Y-55246000D01*
X108537400Y-76787400D02*
X108537400Y-62404600D01*
X108712000Y-76962000D02*
X108537400Y-76787400D01*
X108712000Y-114046000D02*
X108712000Y-76962000D01*
X108537400Y-62404600D02*
X110744000Y-60198000D01*
X105807382Y-66310382D02*
X105838600Y-66279163D01*
X119372000Y-59690000D02*
X123816000Y-55246000D01*
X104402000Y-67715763D02*
X105807382Y-66310382D01*
X104402000Y-112268000D02*
X104402000Y-67715763D01*
X105838600Y-66279163D02*
X105838600Y-61801400D01*
X105838600Y-61801400D02*
X107950000Y-59690000D01*
X107950000Y-59690000D02*
X119372000Y-59690000D01*
X104648000Y-112514000D02*
X104402000Y-112268000D01*
X104648000Y-114046000D02*
X104648000Y-112514000D01*
X103457400Y-68754600D02*
X103457400Y-61388600D01*
X103457400Y-61388600D02*
X105837948Y-59008052D01*
X105837948Y-59008052D02*
X117513948Y-59008052D01*
X102108000Y-70104000D02*
X103457400Y-68754600D01*
X102108000Y-114046000D02*
X102108000Y-70104000D01*
X117513948Y-59008052D02*
X121276000Y-55246000D01*
X115427948Y-58554052D02*
X118736000Y-55246000D01*
X102435000Y-61155104D02*
X105036052Y-58554052D01*
X99568000Y-114046000D02*
X99568000Y-72517000D01*
X99568000Y-72517000D02*
X99568000Y-71755000D01*
X102435000Y-68888000D02*
X102435000Y-61155104D01*
X105036052Y-58554052D02*
X115427948Y-58554052D01*
X102425500Y-68897500D02*
X102435000Y-68888000D01*
X99568000Y-71755000D02*
X102425500Y-68897500D01*
X101600000Y-68707000D02*
X101981000Y-68326000D01*
X97028000Y-73279000D02*
X97028000Y-73533000D01*
X113403000Y-58039000D02*
X116196000Y-55246000D01*
X97028000Y-114046000D02*
X97028000Y-73533000D01*
X101981000Y-60967052D02*
X104909052Y-58039000D01*
X101981000Y-68326000D02*
X101981000Y-60967052D01*
X101600000Y-68707000D02*
X97028000Y-73279000D01*
X104909052Y-58039000D02*
X113403000Y-58039000D01*
X94488000Y-74041000D02*
X94488000Y-114046000D01*
X104775000Y-57531000D02*
X101473000Y-60833000D01*
X113656000Y-55246000D02*
X111371000Y-57531000D01*
X101473000Y-67056000D02*
X94488000Y-74041000D01*
X111371000Y-57531000D02*
X104775000Y-57531000D01*
X101473000Y-60833000D02*
X101473000Y-67056000D01*
X74168000Y-56634000D02*
X75556000Y-55246000D01*
X74168000Y-65786000D02*
X74168000Y-56634000D01*
X71628000Y-65786000D02*
X71628000Y-56634000D01*
X71628000Y-56634000D02*
X73016000Y-55246000D01*
D18*
X69088000Y-126746000D02*
X69088000Y-118618000D01*
X69088000Y-118618000D02*
X69088000Y-115726935D01*
X69088000Y-65786000D02*
X69088000Y-56634000D01*
X67818000Y-114456935D02*
X67818000Y-67056000D01*
X69088000Y-115726935D02*
X67818000Y-114456935D01*
X67818000Y-67056000D02*
X69088000Y-65786000D01*
X69088000Y-118618000D02*
X69088000Y-115697000D01*
X69088000Y-56634000D02*
X70476000Y-55246000D01*
D23*
X80925000Y-117415040D02*
X83566000Y-114774040D01*
D18*
X66548000Y-56634000D02*
X67936000Y-55246000D01*
D23*
X81474400Y-70104000D02*
X81661000Y-69215000D01*
D18*
X66548000Y-65786000D02*
X66548000Y-56634000D01*
D23*
X83566000Y-114774040D02*
X83566000Y-112014000D01*
X81474400Y-109922400D02*
X81474400Y-70104000D01*
X80925000Y-136220000D02*
X80925000Y-117415040D01*
X83566000Y-112014000D02*
X81474400Y-109922400D01*
D18*
X82976600Y-112903000D02*
X81049400Y-110975800D01*
X64008000Y-57150000D02*
X64008000Y-56634000D01*
X81049400Y-69487284D02*
X81026000Y-69463884D01*
X78867000Y-118872000D02*
X82976600Y-114762400D01*
X64008000Y-56634000D02*
X65396000Y-55246000D01*
X81049400Y-110975800D02*
X81049400Y-69487284D01*
X81026000Y-69463884D02*
X81026000Y-68453000D01*
X64008000Y-57150000D02*
X64008000Y-65786000D01*
X82976600Y-114762400D02*
X82976600Y-112903000D01*
X78867000Y-127000000D02*
X78867000Y-118872000D01*
D23*
X80624400Y-114701600D02*
X80624400Y-69956400D01*
X77750000Y-117576000D02*
X80624400Y-114701600D01*
D18*
X61468000Y-56634000D02*
X61468000Y-65786000D01*
D23*
X77750000Y-136220000D02*
X77750000Y-117576000D01*
D18*
X62856000Y-55246000D02*
X61468000Y-56634000D01*
D23*
X80264000Y-69596000D02*
X80264000Y-67564000D01*
X80624400Y-69956400D02*
X80264000Y-69596000D01*
D18*
X58928000Y-56634000D02*
X58928000Y-65786000D01*
X75519400Y-68153400D02*
X75519400Y-63373000D01*
X75519400Y-63373000D02*
X75519400Y-62402600D01*
X75519400Y-62402600D02*
X75565000Y-62357000D01*
X77896600Y-115443000D02*
X77896600Y-70530600D01*
X75519400Y-63373000D02*
X75519400Y-62656600D01*
X76454000Y-126365000D02*
X76454000Y-116885600D01*
X75565000Y-127254000D02*
X76454000Y-126365000D01*
X60316000Y-55246000D02*
X58928000Y-56634000D01*
X77896600Y-70530600D02*
X75519400Y-68153400D01*
X76454000Y-116885600D02*
X77896600Y-115443000D01*
D19*
X99568000Y-65786000D02*
X99568000Y-56644000D01*
X99568000Y-56644000D02*
X100956000Y-55256000D01*
X97028000Y-65786000D02*
X97028000Y-56644000D01*
X97028000Y-56644000D02*
X98416000Y-55256000D01*
X94488000Y-56644000D02*
X95876000Y-55256000D01*
X94488000Y-65786000D02*
X94488000Y-56644000D01*
D18*
X61595000Y-101473000D02*
X61214000Y-101092000D01*
X63500000Y-126363604D02*
X61595000Y-124458604D01*
X61595000Y-124458604D02*
X61595000Y-101473000D01*
X63500000Y-126746000D02*
X63500000Y-126363604D01*
D19*
X91948000Y-65786000D02*
X91948000Y-56644000D01*
X91948000Y-56644000D02*
X93336000Y-55256000D01*
D23*
X106261600Y-83820000D02*
X106261600Y-76491400D01*
X106261600Y-83095400D02*
X106299000Y-83058000D01*
D19*
X129032000Y-76200000D02*
X128295400Y-76936600D01*
X129159000Y-85598000D02*
X129159000Y-99949000D01*
D23*
X106261600Y-117602000D02*
X106261600Y-83820000D01*
D19*
X128295400Y-76936600D02*
X128295400Y-84734400D01*
X129159000Y-76200000D02*
X129032000Y-76200000D01*
D23*
X112675000Y-124015400D02*
X106261600Y-117602000D01*
X106261600Y-83820000D02*
X106261600Y-83095400D01*
X112675000Y-136220000D02*
X112675000Y-124015400D01*
D19*
X128295400Y-84734400D02*
X129159000Y-85598000D01*
D23*
X106261600Y-76491400D02*
X106426000Y-76327000D01*
X133477000Y-114554000D02*
X133858000Y-114554000D01*
X133858000Y-114554000D02*
X136193000Y-112219000D01*
X134749500Y-96644500D02*
X136193000Y-98088000D01*
X87275000Y-136220000D02*
X87275000Y-118517000D01*
X136193000Y-98088000D02*
X136193000Y-98933000D01*
X87275000Y-118517000D02*
X86233000Y-117475000D01*
X136193000Y-112219000D02*
X136193000Y-98933000D01*
X134749500Y-96644500D02*
X133990000Y-95885000D01*
X86233000Y-117475000D02*
X85725000Y-117475000D01*
X84100000Y-136220000D02*
X84100000Y-119533000D01*
X84100000Y-119533000D02*
X83947000Y-119380000D01*
D18*
X133096000Y-118618000D02*
X133096000Y-117602000D01*
X132461000Y-127127000D02*
X133096000Y-126492000D01*
X133096000Y-126492000D02*
X133096000Y-118618000D01*
D19*
X89408000Y-56644000D02*
X90796000Y-55256000D01*
X89408000Y-65786000D02*
X89408000Y-56644000D01*
X86868000Y-65786000D02*
X86868000Y-56644000D01*
X86868000Y-56644000D02*
X88256000Y-55256000D01*
X84328000Y-56644000D02*
X85716000Y-55256000D01*
X84328000Y-65786000D02*
X84328000Y-56644000D01*
X81788000Y-65786000D02*
X81788000Y-56644000D01*
X81788000Y-56644000D02*
X83176000Y-55256000D01*
D18*
X52705000Y-44704000D02*
X53467000Y-43942000D01*
X52705000Y-44704000D02*
X53340000Y-44069000D01*
X61875000Y-136220000D02*
X61875000Y-129413000D01*
X58108000Y-70670000D02*
X58108000Y-91380604D01*
X60729400Y-95879400D02*
X62103000Y-97253000D01*
X62103000Y-122809000D02*
X65196600Y-125902600D01*
X65196600Y-125902600D02*
X65196600Y-136073400D01*
X65196600Y-136073400D02*
X65050000Y-136220000D01*
X60729400Y-94002004D02*
X60729400Y-95879400D01*
X58293000Y-70485000D02*
X58108000Y-70670000D01*
X58108000Y-91380604D02*
X60729400Y-94002004D01*
X62103000Y-97253000D02*
X62103000Y-122809000D01*
X71628000Y-52578000D02*
X71651000Y-52555000D01*
X70276600Y-126765600D02*
X70276600Y-57107101D01*
X71651000Y-55732701D02*
X71651000Y-52601000D01*
X70276600Y-57107101D02*
X71651000Y-55732701D01*
X71400000Y-136220000D02*
X71400000Y-127889000D01*
X71400000Y-127889000D02*
X70276600Y-126765600D01*
X71651000Y-52601000D02*
X71628000Y-52578000D01*
D23*
X55224400Y-55261600D02*
X55240000Y-55246000D01*
X53848000Y-73406000D02*
X55224400Y-72029600D01*
D19*
X55197400Y-55284600D02*
X55236000Y-55246000D01*
D18*
X142367000Y-127381000D02*
X142367000Y-73152000D01*
D23*
X55224400Y-72029600D02*
X55224400Y-55261600D01*
D19*
X101019000Y-57723000D02*
X103496000Y-55246000D01*
X101019000Y-66621000D02*
X101019000Y-57723000D01*
X91948000Y-75692000D02*
X101019000Y-66621000D01*
X91948000Y-114046000D02*
X91948000Y-75692000D01*
X99779000Y-54768470D02*
X100478470Y-54069000D01*
X98298000Y-66199763D02*
X98298000Y-57150000D01*
X100478470Y-54069000D02*
X104859000Y-54069000D01*
X89408000Y-75089763D02*
X98298000Y-66199763D01*
X98298000Y-57150000D02*
X99779000Y-55669000D01*
X99779000Y-55669000D02*
X99779000Y-54768470D01*
X104859000Y-54069000D02*
X106036000Y-55246000D01*
X89408000Y-114046000D02*
X89408000Y-75089763D01*
X97239000Y-55557530D02*
X97239000Y-54768470D01*
X95837400Y-66976600D02*
X95837400Y-56959130D01*
X98392470Y-53615000D02*
X106945000Y-53615000D01*
X86868000Y-95691400D02*
X87342700Y-95216700D01*
X97239000Y-54768470D02*
X98392470Y-53615000D01*
X95837400Y-56959130D02*
X97239000Y-55557530D01*
X87342700Y-95216700D02*
X88019000Y-94540400D01*
X88019000Y-94540400D02*
X88019000Y-74795000D01*
X86868000Y-114046000D02*
X86868000Y-95691400D01*
X88019000Y-74795000D02*
X95837400Y-66976600D01*
X106945000Y-53615000D02*
X108576000Y-55246000D01*
X80010000Y-56515000D02*
X79121000Y-57912000D01*
X79121000Y-57912000D02*
X79121000Y-112141000D01*
D23*
X135255000Y-74930000D02*
X133985000Y-73660000D01*
X134282264Y-116796736D02*
X133052736Y-116796736D01*
X135255000Y-94869000D02*
X136593000Y-96207000D01*
X131318000Y-127635000D02*
X131318000Y-118531471D01*
X131725000Y-136220000D02*
X131725000Y-128042000D01*
X131318000Y-118531471D02*
X133052736Y-116796736D01*
X131725000Y-128042000D02*
X131318000Y-127635000D01*
X136593000Y-114486000D02*
X134282264Y-116796736D01*
X135255000Y-94869000D02*
X135255000Y-74930000D01*
X136593000Y-96207000D02*
X136593000Y-114486000D01*
D19*
X132622000Y-72483000D02*
X135162000Y-72483000D01*
X137541000Y-96520000D02*
X137541000Y-97663000D01*
X131445000Y-73660000D02*
X132622000Y-72483000D01*
D18*
X83991000Y-115614000D02*
X84963000Y-116586000D01*
D19*
X135766000Y-100201000D02*
X135766000Y-106426000D01*
X133990000Y-98425000D02*
X135766000Y-100201000D01*
D18*
X83991000Y-109855000D02*
X83991000Y-109772000D01*
D19*
X137541000Y-74862000D02*
X137541000Y-96520000D01*
D18*
X83991000Y-109772000D02*
X83058000Y-108839000D01*
X83991000Y-109855000D02*
X83991000Y-115614000D01*
X84963000Y-116586000D02*
X84963000Y-127508000D01*
D19*
X135162000Y-72483000D02*
X137541000Y-74862000D01*
X137541000Y-97663000D02*
X137795000Y-97917000D01*
X135766000Y-106426000D02*
X135766000Y-106931000D01*
X135766000Y-106931000D02*
X135255000Y-107442000D01*
D23*
X127868400Y-75839600D02*
X128651000Y-75057000D01*
X127868400Y-99568000D02*
X127868400Y-98953600D01*
X127868400Y-100711000D02*
X127868400Y-99568000D01*
X127868400Y-93726000D02*
X127868400Y-75839600D01*
X127868400Y-98953600D02*
X127889000Y-98933000D01*
X128550000Y-127681600D02*
X127868400Y-127000000D01*
X128550000Y-136220000D02*
X128550000Y-127681600D01*
X127868400Y-100711000D02*
X127868400Y-93726000D01*
X127868400Y-127000000D02*
X127868400Y-100711000D01*
X93111600Y-111018600D02*
X92964000Y-110871000D01*
X93111600Y-113411000D02*
X93111600Y-111018600D01*
X93111600Y-114447600D02*
X93111600Y-113411000D01*
X96800000Y-118136000D02*
X93111600Y-114447600D01*
X96800000Y-136220000D02*
X96800000Y-118136000D01*
D18*
X84328000Y-99949000D02*
X83693000Y-99314000D01*
X81915000Y-97536000D02*
X81915000Y-80264000D01*
X81915000Y-80010000D02*
X82677000Y-79248000D01*
X84455000Y-115095960D02*
X84455000Y-100076000D01*
X88392000Y-119032960D02*
X84455000Y-115095960D01*
X88392000Y-127635000D02*
X88392000Y-119032960D01*
X84455000Y-100076000D02*
X84328000Y-99949000D01*
X84328000Y-99949000D02*
X81915000Y-97536000D01*
X81915000Y-80264000D02*
X81915000Y-80010000D01*
X100838000Y-114456935D02*
X100838000Y-99187000D01*
X100838000Y-80772000D02*
X100965000Y-80645000D01*
X100203000Y-125222000D02*
X100203000Y-125603000D01*
X100203000Y-125222000D02*
X100203000Y-115091935D01*
X100203000Y-115091935D02*
X100838000Y-114456935D01*
X100838000Y-99187000D02*
X100838000Y-83947000D01*
X100838000Y-83947000D02*
X100838000Y-80772000D01*
X100838000Y-99187000D02*
X100838000Y-98425000D01*
X100203000Y-125603000D02*
X99568000Y-126238000D01*
D23*
X134900000Y-121640000D02*
X134900000Y-136220000D01*
X136993000Y-119547000D02*
X134900000Y-121640000D01*
X136993000Y-92670000D02*
X136993000Y-119547000D01*
D19*
X76708000Y-114046000D02*
X76708000Y-81788000D01*
X76708000Y-81788000D02*
X76327000Y-81407000D01*
X132622000Y-86331000D02*
X131450000Y-87503000D01*
D23*
X136144000Y-91821000D02*
X136993000Y-92670000D01*
D19*
X132622000Y-82457000D02*
X132622000Y-86331000D01*
X131450000Y-93345000D02*
X131450000Y-87503000D01*
X131445000Y-81280000D02*
X132622000Y-82457000D01*
D23*
X141250000Y-136220000D02*
X141250000Y-73051000D01*
X141250000Y-73051000D02*
X140208000Y-72009000D01*
X138075000Y-136220000D02*
X138075000Y-125515594D01*
X138684000Y-124906594D02*
X138684000Y-72390000D01*
X138684000Y-71628000D02*
X138938000Y-71374000D01*
X138075000Y-125515594D02*
X138684000Y-124906594D01*
X138684000Y-72390000D02*
X138684000Y-71628000D01*
X122301000Y-85831400D02*
X122301000Y-75311000D01*
X122575600Y-86106000D02*
X122301000Y-85831400D01*
X122575600Y-114527979D02*
X122575600Y-86106000D01*
X125375000Y-136220000D02*
X125375000Y-117327379D01*
X125375000Y-117327379D02*
X122575600Y-114527979D01*
X122200000Y-136220000D02*
X122200000Y-119232379D01*
X122200000Y-119232379D02*
X117495600Y-114527979D01*
X117495600Y-74823600D02*
X117221000Y-74549000D01*
X117495600Y-114527979D02*
X117495600Y-74823600D01*
X119025000Y-120930000D02*
X112522000Y-114427000D01*
X112522000Y-114427000D02*
X112522000Y-82677000D01*
X112522000Y-82677000D02*
X112522000Y-77724000D01*
X119025000Y-136220000D02*
X119025000Y-120930000D01*
X115850000Y-136220000D02*
X115850000Y-124105000D01*
X107188000Y-110744000D02*
X107315000Y-110617000D01*
X115850000Y-124105000D02*
X107188000Y-115443000D01*
X107188000Y-115443000D02*
X107188000Y-110744000D01*
X103271600Y-114527979D02*
X103271600Y-97048600D01*
X103124000Y-129667000D02*
X103124000Y-122729720D01*
X103300000Y-136220000D02*
X103300000Y-129843000D01*
X102695280Y-115104299D02*
X103271600Y-114527979D01*
X103271600Y-97048600D02*
X103251000Y-97028000D01*
X103124000Y-122729720D02*
X102695280Y-122301000D01*
X103300000Y-129843000D02*
X103124000Y-129667000D01*
X102695280Y-122301000D02*
X102695280Y-115104299D01*
X99603000Y-128432000D02*
X98933000Y-127762000D01*
X98191600Y-82148400D02*
X98425000Y-81915000D01*
X98191600Y-115717599D02*
X98191600Y-82148400D01*
X98933000Y-127762000D02*
X98933000Y-125638000D01*
X99603000Y-117128999D02*
X98191600Y-115717599D01*
X99825000Y-136220000D02*
X99603000Y-135998000D01*
X98933000Y-125638000D02*
X99603000Y-124968000D01*
X99603000Y-135998000D02*
X99603000Y-128432000D01*
X99603000Y-124968000D02*
X99603000Y-117128999D01*
X88900000Y-94996000D02*
X88900000Y-92837000D01*
X93625000Y-136220000D02*
X93625000Y-120121379D01*
X88900000Y-92837000D02*
X88646000Y-92583000D01*
X88244400Y-114740779D02*
X88244400Y-95651600D01*
X88244400Y-95651600D02*
X88900000Y-94996000D01*
X93625000Y-120121379D02*
X88244400Y-114740779D01*
X84880000Y-96691000D02*
X82804000Y-94615000D01*
X90450000Y-136220000D02*
X90450000Y-120489920D01*
X84880000Y-114919920D02*
X84880000Y-96691000D01*
X90450000Y-120489920D02*
X84880000Y-114919920D01*
D18*
X75184000Y-107315000D02*
X74549000Y-106680000D01*
X74575000Y-125495600D02*
X75356600Y-124714000D01*
X75356600Y-107487600D02*
X75184000Y-107315000D01*
X75356600Y-124714000D02*
X75356600Y-107487600D01*
X74575000Y-136220000D02*
X74575000Y-125495600D01*
X67899400Y-117429400D02*
X65359400Y-114889400D01*
X68225000Y-136220000D02*
X68225000Y-125730000D01*
X67899400Y-125404400D02*
X67899400Y-117429400D01*
X65359400Y-114889400D02*
X65359400Y-106634400D01*
X65359400Y-106634400D02*
X64389000Y-105664000D01*
X68225000Y-125730000D02*
X67899400Y-125404400D01*
D24*
X154877000Y-125539000D02*
X154686000Y-125730000D01*
X153475000Y-93095000D02*
X156845000Y-96465000D01*
X156845000Y-96465000D02*
X156845000Y-121031000D01*
X154877000Y-122999000D02*
X154877000Y-125539000D01*
X154686000Y-125730000D02*
X154305000Y-126111000D01*
X156845000Y-121031000D02*
X154877000Y-122999000D01*
D25*
X157861000Y-92401000D02*
X157861000Y-121285000D01*
X153475000Y-88015000D02*
X157861000Y-92401000D01*
D26*
X155702000Y-123444000D02*
X157416500Y-121729500D01*
D25*
X157861000Y-121285000D02*
X157416500Y-121729500D01*
D19*
X129458600Y-79248000D02*
X130220600Y-80010000D01*
D18*
X130220600Y-116667400D02*
X130220600Y-80010000D01*
X129032000Y-127127000D02*
X128905000Y-127000000D01*
D19*
X129413000Y-79248000D02*
X129458600Y-79248000D01*
D18*
X128905000Y-117983000D02*
X130220600Y-116667400D01*
X128905000Y-127000000D02*
X128905000Y-117983000D01*
X125222000Y-114554000D02*
X125222000Y-74930000D01*
X126111000Y-127127000D02*
X126111000Y-115443000D01*
X125222000Y-74930000D02*
X125349000Y-74803000D01*
X126111000Y-115443000D02*
X125222000Y-114554000D01*
X123063000Y-127127000D02*
X123063000Y-117540735D01*
X123063000Y-117540735D02*
X120060600Y-114538335D01*
X120060600Y-114538335D02*
X120060600Y-87040600D01*
X120060600Y-87040600D02*
X120015000Y-86995000D01*
X114980600Y-114472600D02*
X114980600Y-81833600D01*
X114980600Y-81833600D02*
X114935000Y-81788000D01*
X120015000Y-127254000D02*
X120015000Y-119507000D01*
X120015000Y-119507000D02*
X114980600Y-114472600D01*
X109982000Y-83058000D02*
X109982000Y-82169000D01*
X109982000Y-114619735D02*
X109982000Y-83058000D01*
X116713000Y-121350735D02*
X109982000Y-114619735D01*
X116713000Y-127127000D02*
X116713000Y-121350735D01*
X109982000Y-82169000D02*
X109855000Y-82042000D01*
X113792000Y-123564400D02*
X106686600Y-116459000D01*
X106686600Y-116459000D02*
X106686600Y-83940400D01*
X107823000Y-82804000D02*
X107823000Y-77724000D01*
X113792000Y-126873000D02*
X113792000Y-123564400D01*
X106686600Y-83940400D02*
X107823000Y-82804000D01*
X105836600Y-124795400D02*
X105836600Y-97282000D01*
X105836600Y-97282000D02*
X105836600Y-96819600D01*
X105836600Y-96819600D02*
X105029000Y-96012000D01*
X103759000Y-126873000D02*
X105836600Y-124795400D01*
X95676600Y-114375535D02*
X95676600Y-112730400D01*
X95676600Y-112730400D02*
X95758000Y-112649000D01*
X97663000Y-127508000D02*
X97663000Y-116361935D01*
X95758000Y-112649000D02*
X95676600Y-112567600D01*
X97663000Y-116361935D02*
X95676600Y-114375535D01*
X94742000Y-118520935D02*
X90678000Y-114456935D01*
X90678000Y-114456935D02*
X90678000Y-112776000D01*
X94742000Y-127635000D02*
X94742000Y-118520935D01*
X85679400Y-95458400D02*
X85389600Y-95168600D01*
X91313000Y-120650000D02*
X85679400Y-115016400D01*
X85389600Y-92283400D02*
X85471000Y-92202000D01*
X91313000Y-127508000D02*
X91313000Y-120650000D01*
X85679400Y-115016400D02*
X85679400Y-95458400D01*
X85389600Y-95168600D02*
X85389600Y-92283400D01*
D19*
X130972801Y-118272801D02*
X130672600Y-118573001D01*
X130972801Y-118272801D02*
X130627602Y-118618000D01*
X132627000Y-112776000D02*
X132762600Y-112911600D01*
D18*
X82042000Y-127381000D02*
X82042000Y-117856000D01*
D19*
X132762600Y-116483001D02*
X130972801Y-118272801D01*
X130627602Y-118618000D02*
X130302000Y-118618000D01*
X132627000Y-94708000D02*
X132627000Y-112776000D01*
D18*
X82042000Y-117856000D02*
X82296000Y-117602000D01*
D19*
X133990000Y-93345000D02*
X132627000Y-94708000D01*
X132762600Y-112911600D02*
X132762600Y-116483001D01*
D18*
X72816600Y-126827400D02*
X72816600Y-109900600D01*
X72816600Y-109900600D02*
X72009000Y-109093000D01*
X72644000Y-127000000D02*
X72816600Y-126827400D01*
X62553000Y-101531000D02*
X62865000Y-101219000D01*
X66675000Y-126746000D02*
X65646600Y-125717600D01*
X65646600Y-119240600D02*
X62553000Y-116147000D01*
X65646600Y-125717600D02*
X65646600Y-119240600D01*
X62553000Y-116147000D02*
X62553000Y-101531000D01*
D19*
X55197400Y-74596600D02*
X56388000Y-73406000D01*
X51425000Y-72666763D02*
X53354837Y-74596600D01*
X53354837Y-74596600D02*
X55197400Y-74596600D01*
X51425000Y-71950000D02*
X51425000Y-72666763D01*
X51425000Y-56521000D02*
X52700000Y-55246000D01*
X51425000Y-71950000D02*
X51425000Y-56521000D01*
G04 #@! TA.AperFunction,Conductor*
G36*
X106220507Y-44875156D02*
G01*
X106180000Y-45013111D01*
X106180000Y-45156889D01*
X106220507Y-45294844D01*
X106246314Y-45335000D01*
X104573686Y-45335000D01*
X104599493Y-45294844D01*
X104640000Y-45156889D01*
X104640000Y-45013111D01*
X104599493Y-44875156D01*
X104573686Y-44835000D01*
X106246314Y-44835000D01*
X106220507Y-44875156D01*
G37*
G04 #@! TD.AperFunction*
G04 #@! TA.AperFunction,Conductor*
G36*
X156570018Y-41371633D02*
G01*
X156750641Y-41383470D01*
X156821674Y-41388126D01*
X156829707Y-41389184D01*
X157060471Y-41435085D01*
X157075046Y-41437985D01*
X157082889Y-41440086D01*
X157319769Y-41520496D01*
X157327243Y-41523592D01*
X157551607Y-41634236D01*
X157558631Y-41638293D01*
X157687083Y-41724121D01*
X157766621Y-41777267D01*
X157773049Y-41782199D01*
X157961123Y-41947135D01*
X157966862Y-41952874D01*
X158131798Y-42140948D01*
X158136736Y-42147383D01*
X158275706Y-42355368D01*
X158279766Y-42362398D01*
X158390401Y-42586743D01*
X158393508Y-42594244D01*
X158473913Y-42831111D01*
X158476014Y-42838953D01*
X158524813Y-43084279D01*
X158525873Y-43092328D01*
X158542367Y-43343981D01*
X158542500Y-43348037D01*
X158542500Y-91569035D01*
X158522815Y-91636074D01*
X158470011Y-91681829D01*
X158400853Y-91691773D01*
X158337297Y-91662748D01*
X158330819Y-91656716D01*
X154867391Y-88193289D01*
X154833906Y-88131966D01*
X154831496Y-88095367D01*
X154838156Y-88015004D01*
X154838156Y-88014994D01*
X154819565Y-87790640D01*
X154819563Y-87790628D01*
X154804188Y-87729912D01*
X154764296Y-87572384D01*
X154673860Y-87366209D01*
X154672679Y-87364402D01*
X154550723Y-87177734D01*
X154550715Y-87177723D01*
X154398243Y-87012097D01*
X154398238Y-87012092D01*
X154220577Y-86873812D01*
X154220578Y-86873812D01*
X154220576Y-86873811D01*
X154184070Y-86854055D01*
X154134479Y-86804836D01*
X154119371Y-86736619D01*
X154143541Y-86671064D01*
X154184070Y-86635945D01*
X154184084Y-86635936D01*
X154220576Y-86616189D01*
X154398240Y-86477906D01*
X154531996Y-86332610D01*
X154550715Y-86312276D01*
X154550716Y-86312274D01*
X154550722Y-86312268D01*
X154673860Y-86123791D01*
X154764296Y-85917616D01*
X154819564Y-85699368D01*
X154823860Y-85647524D01*
X154838156Y-85475005D01*
X154838156Y-85474994D01*
X154819565Y-85250640D01*
X154819563Y-85250628D01*
X154796639Y-85160102D01*
X154764296Y-85032384D01*
X154673860Y-84826209D01*
X154550722Y-84637732D01*
X154550719Y-84637729D01*
X154550715Y-84637723D01*
X154398243Y-84472097D01*
X154398238Y-84472092D01*
X154220577Y-84333812D01*
X154220578Y-84333812D01*
X154220576Y-84333811D01*
X154184070Y-84314055D01*
X154134479Y-84264836D01*
X154119371Y-84196619D01*
X154143541Y-84131064D01*
X154184070Y-84095945D01*
X154184084Y-84095936D01*
X154220576Y-84076189D01*
X154398240Y-83937906D01*
X154533990Y-83790444D01*
X154550715Y-83772276D01*
X154550716Y-83772274D01*
X154550722Y-83772268D01*
X154673860Y-83583791D01*
X154764296Y-83377616D01*
X154819564Y-83159368D01*
X154822913Y-83118952D01*
X154838156Y-82935005D01*
X154838156Y-82934994D01*
X154819565Y-82710640D01*
X154819563Y-82710628D01*
X154783870Y-82569681D01*
X154764296Y-82492384D01*
X154673860Y-82286209D01*
X154550722Y-82097732D01*
X154399291Y-81933236D01*
X154368370Y-81870584D01*
X154376230Y-81801158D01*
X154420376Y-81747002D01*
X154447189Y-81733073D01*
X154567086Y-81688354D01*
X154567093Y-81688350D01*
X154682187Y-81602190D01*
X154682190Y-81602187D01*
X154768350Y-81487093D01*
X154768354Y-81487086D01*
X154818596Y-81352379D01*
X154818598Y-81352372D01*
X154824999Y-81292844D01*
X154825000Y-81292827D01*
X154825000Y-80645000D01*
X153908686Y-80645000D01*
X153934493Y-80604844D01*
X153975000Y-80466889D01*
X153975000Y-80323111D01*
X153934493Y-80185156D01*
X153908686Y-80145000D01*
X154825000Y-80145000D01*
X154825000Y-79497172D01*
X154824999Y-79497155D01*
X154818598Y-79437627D01*
X154818596Y-79437620D01*
X154768354Y-79302913D01*
X154768350Y-79302906D01*
X154682190Y-79187812D01*
X154682187Y-79187809D01*
X154567093Y-79101649D01*
X154567086Y-79101645D01*
X154432379Y-79051403D01*
X154432372Y-79051401D01*
X154372844Y-79045000D01*
X153725000Y-79045000D01*
X153725000Y-79959498D01*
X153617315Y-79910320D01*
X153510763Y-79895000D01*
X153439237Y-79895000D01*
X153332685Y-79910320D01*
X153225000Y-79959498D01*
X153225000Y-79045000D01*
X152577155Y-79045000D01*
X152517627Y-79051401D01*
X152517620Y-79051403D01*
X152382913Y-79101645D01*
X152382906Y-79101649D01*
X152267812Y-79187809D01*
X152267809Y-79187812D01*
X152181649Y-79302906D01*
X152181645Y-79302913D01*
X152131403Y-79437620D01*
X152131401Y-79437627D01*
X152125000Y-79497155D01*
X152125000Y-80145000D01*
X153041314Y-80145000D01*
X153015507Y-80185156D01*
X152975000Y-80323111D01*
X152975000Y-80466889D01*
X153015507Y-80604844D01*
X153041314Y-80645000D01*
X152125000Y-80645000D01*
X152125000Y-81292844D01*
X152131401Y-81352372D01*
X152131403Y-81352379D01*
X152181645Y-81487086D01*
X152181649Y-81487093D01*
X152267809Y-81602187D01*
X152267812Y-81602190D01*
X152382906Y-81688350D01*
X152382913Y-81688354D01*
X152502810Y-81733073D01*
X152558744Y-81774944D01*
X152583161Y-81840409D01*
X152568309Y-81908682D01*
X152550706Y-81933238D01*
X152399284Y-82097723D01*
X152399276Y-82097734D01*
X152276140Y-82286207D01*
X152185703Y-82492385D01*
X152130436Y-82710628D01*
X152130434Y-82710640D01*
X152111844Y-82934994D01*
X152111844Y-82935005D01*
X152130434Y-83159359D01*
X152130436Y-83159371D01*
X152185703Y-83377614D01*
X152276140Y-83583792D01*
X152399276Y-83772265D01*
X152399284Y-83772276D01*
X152551756Y-83937902D01*
X152551761Y-83937907D01*
X152582568Y-83961885D01*
X152729424Y-84076189D01*
X152729429Y-84076191D01*
X152729431Y-84076193D01*
X152765930Y-84095946D01*
X152815520Y-84145165D01*
X152830628Y-84213382D01*
X152806457Y-84278937D01*
X152765930Y-84314054D01*
X152729431Y-84333806D01*
X152729422Y-84333812D01*
X152551761Y-84472092D01*
X152551756Y-84472097D01*
X152399284Y-84637723D01*
X152399276Y-84637734D01*
X152276140Y-84826207D01*
X152185703Y-85032385D01*
X152130436Y-85250628D01*
X152130434Y-85250640D01*
X152111844Y-85474994D01*
X152111844Y-85475005D01*
X152130434Y-85699359D01*
X152130436Y-85699371D01*
X152185703Y-85917614D01*
X152276140Y-86123792D01*
X152399276Y-86312265D01*
X152399284Y-86312276D01*
X152551756Y-86477902D01*
X152551761Y-86477907D01*
X152592619Y-86509708D01*
X152729424Y-86616189D01*
X152729429Y-86616191D01*
X152729431Y-86616193D01*
X152765930Y-86635946D01*
X152815520Y-86685165D01*
X152830628Y-86753382D01*
X152806457Y-86818937D01*
X152765930Y-86854054D01*
X152729431Y-86873806D01*
X152729422Y-86873812D01*
X152551761Y-87012092D01*
X152551756Y-87012097D01*
X152399284Y-87177723D01*
X152399276Y-87177734D01*
X152276140Y-87366207D01*
X152185703Y-87572385D01*
X152130436Y-87790628D01*
X152130434Y-87790640D01*
X152111844Y-88014994D01*
X152111844Y-88015005D01*
X152130434Y-88239359D01*
X152130436Y-88239371D01*
X152185703Y-88457614D01*
X152276140Y-88663792D01*
X152399276Y-88852265D01*
X152399284Y-88852276D01*
X152551756Y-89017902D01*
X152551760Y-89017906D01*
X152729424Y-89156189D01*
X152729429Y-89156191D01*
X152729431Y-89156193D01*
X152765930Y-89175946D01*
X152815520Y-89225165D01*
X152830628Y-89293382D01*
X152806457Y-89358937D01*
X152765930Y-89394054D01*
X152729431Y-89413806D01*
X152729422Y-89413812D01*
X152551761Y-89552092D01*
X152551756Y-89552097D01*
X152399284Y-89717723D01*
X152399276Y-89717734D01*
X152276140Y-89906207D01*
X152185703Y-90112385D01*
X152130436Y-90330628D01*
X152130434Y-90330640D01*
X152111844Y-90554994D01*
X152111844Y-90555005D01*
X152130434Y-90779359D01*
X152130436Y-90779371D01*
X152185703Y-90997614D01*
X152276140Y-91203792D01*
X152399276Y-91392265D01*
X152399284Y-91392276D01*
X152551756Y-91557902D01*
X152551760Y-91557906D01*
X152729424Y-91696189D01*
X152729429Y-91696191D01*
X152729431Y-91696193D01*
X152765930Y-91715946D01*
X152815520Y-91765165D01*
X152830628Y-91833382D01*
X152806457Y-91898937D01*
X152765930Y-91934054D01*
X152729431Y-91953806D01*
X152729422Y-91953812D01*
X152551761Y-92092092D01*
X152551756Y-92092097D01*
X152399284Y-92257723D01*
X152399276Y-92257734D01*
X152276140Y-92446207D01*
X152185703Y-92652385D01*
X152130436Y-92870628D01*
X152130434Y-92870640D01*
X152111844Y-93094994D01*
X152111844Y-93095005D01*
X152130434Y-93319359D01*
X152130436Y-93319371D01*
X152185703Y-93537614D01*
X152276140Y-93743792D01*
X152399276Y-93932265D01*
X152399284Y-93932276D01*
X152518793Y-94062095D01*
X152551760Y-94097906D01*
X152729424Y-94236189D01*
X152729425Y-94236189D01*
X152729427Y-94236191D01*
X152781568Y-94264408D01*
X152927426Y-94343342D01*
X153140365Y-94416444D01*
X153362431Y-94453500D01*
X153587567Y-94453500D01*
X153587569Y-94453500D01*
X153673087Y-94439229D01*
X153742450Y-94447611D01*
X153781176Y-94473857D01*
X156050181Y-96742862D01*
X156083666Y-96804185D01*
X156086500Y-96830543D01*
X156086500Y-120665456D01*
X156066815Y-120732495D01*
X156050181Y-120753137D01*
X154386122Y-122417195D01*
X154372495Y-122428973D01*
X154352941Y-122443531D01*
X154318977Y-122484006D01*
X154315330Y-122487987D01*
X154309418Y-122493900D01*
X154288863Y-122519896D01*
X154238967Y-122579360D01*
X154235001Y-122585391D01*
X154234963Y-122585366D01*
X154230782Y-122591928D01*
X154230821Y-122591952D01*
X154227032Y-122598094D01*
X154194220Y-122668459D01*
X154159391Y-122737810D01*
X154156923Y-122744593D01*
X154156878Y-122744576D01*
X154154322Y-122751932D01*
X154154366Y-122751947D01*
X154152096Y-122758795D01*
X154149025Y-122773671D01*
X154136392Y-122834850D01*
X154124025Y-122887029D01*
X154118498Y-122910351D01*
X154117661Y-122917519D01*
X154117613Y-122917513D01*
X154116823Y-122925244D01*
X154116870Y-122925249D01*
X154116240Y-122932438D01*
X154118500Y-123010079D01*
X154118500Y-125173455D01*
X154098815Y-125240494D01*
X154082181Y-125261136D01*
X153992573Y-125350744D01*
X153957298Y-125372930D01*
X153958263Y-125374934D01*
X153951985Y-125377957D01*
X153797718Y-125474889D01*
X153668889Y-125603718D01*
X153571958Y-125757982D01*
X153511782Y-125929953D01*
X153511781Y-125929958D01*
X153491384Y-126110996D01*
X153491384Y-126111003D01*
X153511781Y-126292041D01*
X153511782Y-126292046D01*
X153552035Y-126407082D01*
X153571295Y-126462124D01*
X153571958Y-126464017D01*
X153614809Y-126532214D01*
X153668889Y-126618281D01*
X153797719Y-126747111D01*
X153951985Y-126844043D01*
X154116894Y-126901747D01*
X154123953Y-126904217D01*
X154123958Y-126904218D01*
X154304996Y-126924616D01*
X154305000Y-126924616D01*
X154305004Y-126924616D01*
X154486041Y-126904218D01*
X154486044Y-126904217D01*
X154486047Y-126904217D01*
X154658015Y-126844043D01*
X154812281Y-126747111D01*
X154941111Y-126618281D01*
X155038043Y-126464015D01*
X155038044Y-126464011D01*
X155041064Y-126457741D01*
X155043116Y-126458729D01*
X155065254Y-126423425D01*
X155110124Y-126378555D01*
X155156850Y-126349196D01*
X155203015Y-126333043D01*
X155357281Y-126236111D01*
X155486111Y-126107281D01*
X155583043Y-125953015D01*
X155643217Y-125781047D01*
X155643499Y-125778543D01*
X155663616Y-125600003D01*
X155663616Y-125599996D01*
X155643218Y-125418958D01*
X155643215Y-125418945D01*
X155642459Y-125416784D01*
X155641692Y-125412271D01*
X155641667Y-125412161D01*
X155641673Y-125412159D01*
X155635500Y-125375829D01*
X155635500Y-124449869D01*
X155655185Y-124382830D01*
X155707989Y-124337075D01*
X155753007Y-124326040D01*
X155840971Y-124321430D01*
X156020363Y-124273362D01*
X156185839Y-124189047D01*
X156293986Y-124101472D01*
X158073972Y-122321486D01*
X158161547Y-122213339D01*
X158167988Y-122200696D01*
X158190787Y-122169313D01*
X158330821Y-122029279D01*
X158392142Y-121995797D01*
X158461834Y-122000781D01*
X158517767Y-122042653D01*
X158542184Y-122108117D01*
X158542500Y-122116963D01*
X158542500Y-127343293D01*
X158542264Y-127348699D01*
X158528640Y-127504410D01*
X158524887Y-127525696D01*
X158486536Y-127668824D01*
X158479144Y-127689133D01*
X158416524Y-127823421D01*
X158405721Y-127842133D01*
X158320728Y-127963514D01*
X158306835Y-127980071D01*
X158202071Y-128084835D01*
X158185514Y-128098728D01*
X158064133Y-128183721D01*
X158045421Y-128194524D01*
X157945663Y-128241043D01*
X157911134Y-128257144D01*
X157890824Y-128264536D01*
X157747696Y-128302887D01*
X157726410Y-128306640D01*
X157615633Y-128316332D01*
X157570693Y-128320264D01*
X157565294Y-128320500D01*
X144978279Y-128320500D01*
X144801566Y-128351660D01*
X144632952Y-128413030D01*
X144632945Y-128413033D01*
X144477552Y-128502750D01*
X144477549Y-128502752D01*
X144340091Y-128618091D01*
X144224752Y-128755549D01*
X144224750Y-128755552D01*
X144135033Y-128910945D01*
X144135030Y-128910952D01*
X144073660Y-129079566D01*
X144042500Y-129256279D01*
X144042500Y-139343293D01*
X144042264Y-139348699D01*
X144028640Y-139504410D01*
X144024887Y-139525696D01*
X143986536Y-139668824D01*
X143979144Y-139689133D01*
X143916524Y-139823421D01*
X143905721Y-139842133D01*
X143820728Y-139963514D01*
X143806835Y-139980071D01*
X143702071Y-140084835D01*
X143685514Y-140098728D01*
X143564133Y-140183721D01*
X143545421Y-140194524D01*
X143430720Y-140248011D01*
X143411134Y-140257144D01*
X143390824Y-140264536D01*
X143247696Y-140302887D01*
X143226410Y-140306640D01*
X143115633Y-140316332D01*
X143070693Y-140320264D01*
X143065294Y-140320500D01*
X142835000Y-140320500D01*
X142767961Y-140300815D01*
X142722206Y-140248011D01*
X142711000Y-140196500D01*
X142711000Y-132021362D01*
X142710999Y-132021345D01*
X142707657Y-131990270D01*
X142704489Y-131960799D01*
X142653389Y-131823796D01*
X142565761Y-131706739D01*
X142448704Y-131619111D01*
X142311703Y-131568011D01*
X142251154Y-131561500D01*
X142251138Y-131561500D01*
X141982500Y-131561500D01*
X141915461Y-131541815D01*
X141869706Y-131489011D01*
X141858500Y-131437500D01*
X141858500Y-128234398D01*
X141878185Y-128167359D01*
X141930989Y-128121604D01*
X142000147Y-128111660D01*
X142023455Y-128117357D01*
X142185945Y-128174215D01*
X142185951Y-128174216D01*
X142185953Y-128174217D01*
X142185954Y-128174217D01*
X142185958Y-128174218D01*
X142366996Y-128194616D01*
X142367000Y-128194616D01*
X142367004Y-128194616D01*
X142548041Y-128174218D01*
X142548044Y-128174217D01*
X142548047Y-128174217D01*
X142720015Y-128114043D01*
X142874281Y-128017111D01*
X143003111Y-127888281D01*
X143100043Y-127734015D01*
X143160217Y-127562047D01*
X143160218Y-127562041D01*
X143180616Y-127381003D01*
X143180616Y-127380996D01*
X143160218Y-127199958D01*
X143160217Y-127199953D01*
X143156403Y-127189054D01*
X143100043Y-127027985D01*
X143060930Y-126965737D01*
X143019506Y-126899811D01*
X143000500Y-126833839D01*
X143000500Y-114090254D01*
X143020185Y-114023215D01*
X143072989Y-113977460D01*
X143142147Y-113967516D01*
X143205703Y-113996541D01*
X143212181Y-114002573D01*
X143256719Y-114047111D01*
X143410985Y-114144043D01*
X143582953Y-114204217D01*
X143582958Y-114204218D01*
X143763996Y-114224616D01*
X143764000Y-114224616D01*
X143764004Y-114224616D01*
X143945041Y-114204218D01*
X143945044Y-114204217D01*
X143945047Y-114204217D01*
X144117015Y-114144043D01*
X144218528Y-114080257D01*
X144285764Y-114061257D01*
X144352599Y-114081624D01*
X144397813Y-114134892D01*
X144408500Y-114185251D01*
X144408500Y-114356405D01*
X144388815Y-114423444D01*
X144372180Y-114444087D01*
X144333755Y-114482511D01*
X144272432Y-114515996D01*
X144259959Y-114518049D01*
X144217956Y-114522781D01*
X144045982Y-114582958D01*
X143891718Y-114679889D01*
X143762889Y-114808718D01*
X143665957Y-114962983D01*
X143605781Y-115134958D01*
X143595523Y-115226005D01*
X143586105Y-115261366D01*
X143529882Y-115391292D01*
X143504765Y-115549874D01*
X143504765Y-115549876D01*
X143504765Y-115549879D01*
X143519876Y-115709732D01*
X143519877Y-115709734D01*
X143519878Y-115709738D01*
X143574262Y-115860798D01*
X143574266Y-115860807D01*
X143664512Y-115993600D01*
X143664516Y-115993605D01*
X143677852Y-116005362D01*
X143784957Y-116099787D01*
X143928021Y-116172682D01*
X144084719Y-116207708D01*
X144245205Y-116202665D01*
X144399393Y-116157869D01*
X144435647Y-116136427D01*
X144484883Y-116119938D01*
X144580047Y-116109217D01*
X144752015Y-116049043D01*
X144906281Y-115952111D01*
X145035111Y-115823281D01*
X145132043Y-115669015D01*
X145192217Y-115497047D01*
X145196949Y-115455039D01*
X145224013Y-115390629D01*
X145232479Y-115381252D01*
X145434074Y-115179657D01*
X145446458Y-115169738D01*
X145446286Y-115169530D01*
X145452292Y-115164559D01*
X145452303Y-115164553D01*
X145500426Y-115113306D01*
X145521639Y-115092094D01*
X145525993Y-115086479D01*
X145529768Y-115082058D01*
X145562217Y-115047506D01*
X145572094Y-115029537D01*
X145582779Y-115013272D01*
X145583398Y-115012474D01*
X145595350Y-114997067D01*
X145614183Y-114953543D01*
X145616732Y-114948341D01*
X145639569Y-114906803D01*
X145644670Y-114886930D01*
X145650969Y-114868534D01*
X145659117Y-114849708D01*
X145663995Y-114818903D01*
X145666530Y-114802902D01*
X145667715Y-114797178D01*
X145668137Y-114795531D01*
X145679500Y-114751282D01*
X145679500Y-114730774D01*
X145681027Y-114711374D01*
X145681441Y-114708761D01*
X145684235Y-114691121D01*
X145679775Y-114643939D01*
X145679500Y-114638101D01*
X145679500Y-59732593D01*
X145699185Y-59665554D01*
X145715814Y-59644917D01*
X148761264Y-56599466D01*
X148822587Y-56565982D01*
X148876256Y-56566892D01*
X148876305Y-56566600D01*
X148878263Y-56566926D01*
X148879398Y-56566946D01*
X148881365Y-56567444D01*
X149103431Y-56604500D01*
X149328569Y-56604500D01*
X149550635Y-56567444D01*
X149763574Y-56494342D01*
X149961576Y-56387189D01*
X150139240Y-56248906D01*
X150251543Y-56126914D01*
X150291715Y-56083276D01*
X150291717Y-56083273D01*
X150291722Y-56083268D01*
X150414860Y-55894791D01*
X150505296Y-55688616D01*
X150560564Y-55470368D01*
X150578327Y-55256005D01*
X150579156Y-55246005D01*
X150579156Y-55245994D01*
X150560565Y-55021640D01*
X150560563Y-55021628D01*
X150557876Y-55011018D01*
X150505296Y-54803384D01*
X150414860Y-54597209D01*
X150398706Y-54572484D01*
X150353291Y-54502970D01*
X150291722Y-54408732D01*
X150291719Y-54408729D01*
X150291715Y-54408723D01*
X150139243Y-54243097D01*
X150139238Y-54243092D01*
X149961577Y-54104812D01*
X149961572Y-54104808D01*
X149763580Y-53997661D01*
X149763577Y-53997659D01*
X149763574Y-53997658D01*
X149763571Y-53997657D01*
X149763569Y-53997656D01*
X149550637Y-53924556D01*
X149328569Y-53887500D01*
X149103431Y-53887500D01*
X148881362Y-53924556D01*
X148668430Y-53997656D01*
X148668419Y-53997661D01*
X148470427Y-54104808D01*
X148470422Y-54104812D01*
X148292761Y-54243092D01*
X148292756Y-54243097D01*
X148140284Y-54408723D01*
X148140276Y-54408734D01*
X148049808Y-54547206D01*
X147996662Y-54592562D01*
X147927431Y-54601986D01*
X147864095Y-54572484D01*
X147842192Y-54547206D01*
X147784286Y-54458576D01*
X147751722Y-54408732D01*
X147751719Y-54408729D01*
X147751715Y-54408723D01*
X147599243Y-54243097D01*
X147599238Y-54243092D01*
X147421577Y-54104812D01*
X147421572Y-54104808D01*
X147223580Y-53997661D01*
X147223577Y-53997659D01*
X147223574Y-53997658D01*
X147223571Y-53997657D01*
X147223569Y-53997656D01*
X147010637Y-53924556D01*
X146788569Y-53887500D01*
X146563431Y-53887500D01*
X146341362Y-53924556D01*
X146128430Y-53997656D01*
X146128419Y-53997661D01*
X145930427Y-54104808D01*
X145930422Y-54104812D01*
X145752761Y-54243092D01*
X145752756Y-54243097D01*
X145600284Y-54408723D01*
X145600276Y-54408734D01*
X145509808Y-54547206D01*
X145456662Y-54592562D01*
X145387431Y-54601986D01*
X145324095Y-54572484D01*
X145302192Y-54547206D01*
X145244286Y-54458576D01*
X145211722Y-54408732D01*
X145211719Y-54408729D01*
X145211715Y-54408723D01*
X145059243Y-54243097D01*
X145059238Y-54243092D01*
X144881577Y-54104812D01*
X144881572Y-54104808D01*
X144683580Y-53997661D01*
X144683577Y-53997659D01*
X144683574Y-53997658D01*
X144683571Y-53997657D01*
X144683569Y-53997656D01*
X144470637Y-53924556D01*
X144248569Y-53887500D01*
X144023431Y-53887500D01*
X143801362Y-53924556D01*
X143588430Y-53997656D01*
X143588419Y-53997661D01*
X143390427Y-54104808D01*
X143390422Y-54104812D01*
X143212761Y-54243092D01*
X143212756Y-54243097D01*
X143060284Y-54408723D01*
X143060276Y-54408734D01*
X142969808Y-54547206D01*
X142916662Y-54592562D01*
X142847431Y-54601986D01*
X142784095Y-54572484D01*
X142762192Y-54547206D01*
X142704286Y-54458576D01*
X142671722Y-54408732D01*
X142671719Y-54408729D01*
X142671715Y-54408723D01*
X142519243Y-54243097D01*
X142519238Y-54243092D01*
X142341577Y-54104812D01*
X142341572Y-54104808D01*
X142143580Y-53997661D01*
X142143577Y-53997659D01*
X142143574Y-53997658D01*
X142143571Y-53997657D01*
X142143569Y-53997656D01*
X141930637Y-53924556D01*
X141708569Y-53887500D01*
X141483431Y-53887500D01*
X141261362Y-53924556D01*
X141048430Y-53997656D01*
X141048419Y-53997661D01*
X140850427Y-54104808D01*
X140850422Y-54104812D01*
X140672761Y-54243092D01*
X140672756Y-54243097D01*
X140520284Y-54408723D01*
X140520276Y-54408734D01*
X140429808Y-54547206D01*
X140376662Y-54592562D01*
X140307431Y-54601986D01*
X140244095Y-54572484D01*
X140222192Y-54547206D01*
X140164286Y-54458576D01*
X140131722Y-54408732D01*
X140131719Y-54408729D01*
X140131715Y-54408723D01*
X139979243Y-54243097D01*
X139979238Y-54243092D01*
X139801577Y-54104812D01*
X139801572Y-54104808D01*
X139603580Y-53997661D01*
X139603577Y-53997659D01*
X139603574Y-53997658D01*
X139603571Y-53997657D01*
X139603569Y-53997656D01*
X139390637Y-53924556D01*
X139168569Y-53887500D01*
X138943431Y-53887500D01*
X138721362Y-53924556D01*
X138508430Y-53997656D01*
X138508419Y-53997661D01*
X138310427Y-54104808D01*
X138310422Y-54104812D01*
X138132761Y-54243092D01*
X138132756Y-54243097D01*
X137980284Y-54408723D01*
X137980276Y-54408734D01*
X137889808Y-54547206D01*
X137836662Y-54592562D01*
X137767431Y-54601986D01*
X137704095Y-54572484D01*
X137682192Y-54547206D01*
X137624286Y-54458576D01*
X137591722Y-54408732D01*
X137591719Y-54408729D01*
X137591715Y-54408723D01*
X137439243Y-54243097D01*
X137439238Y-54243092D01*
X137261577Y-54104812D01*
X137261572Y-54104808D01*
X137063580Y-53997661D01*
X137063577Y-53997659D01*
X137063574Y-53997658D01*
X137063571Y-53997657D01*
X137063569Y-53997656D01*
X136850637Y-53924556D01*
X136628569Y-53887500D01*
X136403431Y-53887500D01*
X136181362Y-53924556D01*
X135968430Y-53997656D01*
X135968419Y-53997661D01*
X135770427Y-54104808D01*
X135770422Y-54104812D01*
X135592761Y-54243092D01*
X135592756Y-54243097D01*
X135440284Y-54408723D01*
X135440276Y-54408734D01*
X135349808Y-54547206D01*
X135296662Y-54592562D01*
X135227431Y-54601986D01*
X135164095Y-54572484D01*
X135142192Y-54547206D01*
X135084286Y-54458576D01*
X135051722Y-54408732D01*
X135051719Y-54408729D01*
X135051715Y-54408723D01*
X134899243Y-54243097D01*
X134899238Y-54243092D01*
X134721577Y-54104812D01*
X134721572Y-54104808D01*
X134523580Y-53997661D01*
X134523577Y-53997659D01*
X134523574Y-53997658D01*
X134523571Y-53997657D01*
X134523569Y-53997656D01*
X134310637Y-53924556D01*
X134088569Y-53887500D01*
X133863431Y-53887500D01*
X133641362Y-53924556D01*
X133428430Y-53997656D01*
X133428419Y-53997661D01*
X133230427Y-54104808D01*
X133230422Y-54104812D01*
X133052761Y-54243092D01*
X133052756Y-54243097D01*
X132900284Y-54408723D01*
X132900276Y-54408734D01*
X132809808Y-54547206D01*
X132756662Y-54592562D01*
X132687431Y-54601986D01*
X132624095Y-54572484D01*
X132602192Y-54547206D01*
X132544286Y-54458576D01*
X132511722Y-54408732D01*
X132511719Y-54408729D01*
X132511715Y-54408723D01*
X132359243Y-54243097D01*
X132359238Y-54243092D01*
X132181577Y-54104812D01*
X132181572Y-54104808D01*
X131983580Y-53997661D01*
X131983577Y-53997659D01*
X131983574Y-53997658D01*
X131983571Y-53997657D01*
X131983569Y-53997656D01*
X131770637Y-53924556D01*
X131548569Y-53887500D01*
X131323431Y-53887500D01*
X131101362Y-53924556D01*
X130888430Y-53997656D01*
X130888419Y-53997661D01*
X130690427Y-54104808D01*
X130690422Y-54104812D01*
X130512761Y-54243092D01*
X130512756Y-54243097D01*
X130360284Y-54408723D01*
X130360276Y-54408734D01*
X130269808Y-54547206D01*
X130216662Y-54592562D01*
X130147431Y-54601986D01*
X130084095Y-54572484D01*
X130062192Y-54547206D01*
X130004286Y-54458576D01*
X129971722Y-54408732D01*
X129971719Y-54408729D01*
X129971715Y-54408723D01*
X129819243Y-54243097D01*
X129819238Y-54243092D01*
X129641577Y-54104812D01*
X129641572Y-54104808D01*
X129443580Y-53997661D01*
X129443577Y-53997659D01*
X129443574Y-53997658D01*
X129443571Y-53997657D01*
X129443569Y-53997656D01*
X129230637Y-53924556D01*
X129008569Y-53887500D01*
X128783431Y-53887500D01*
X128561362Y-53924556D01*
X128348430Y-53997656D01*
X128348419Y-53997661D01*
X128150427Y-54104808D01*
X128150422Y-54104812D01*
X127972761Y-54243092D01*
X127972756Y-54243097D01*
X127820284Y-54408723D01*
X127820276Y-54408734D01*
X127729808Y-54547206D01*
X127676662Y-54592562D01*
X127607431Y-54601986D01*
X127544095Y-54572484D01*
X127522192Y-54547206D01*
X127464286Y-54458576D01*
X127431722Y-54408732D01*
X127431719Y-54408729D01*
X127431715Y-54408723D01*
X127279243Y-54243097D01*
X127279238Y-54243092D01*
X127101577Y-54104812D01*
X127101572Y-54104808D01*
X126903580Y-53997661D01*
X126903577Y-53997659D01*
X126903574Y-53997658D01*
X126903571Y-53997657D01*
X126903569Y-53997656D01*
X126690637Y-53924556D01*
X126468569Y-53887500D01*
X126243431Y-53887500D01*
X126021362Y-53924556D01*
X125808430Y-53997656D01*
X125808419Y-53997661D01*
X125610427Y-54104808D01*
X125610422Y-54104812D01*
X125432761Y-54243092D01*
X125432756Y-54243097D01*
X125280284Y-54408723D01*
X125280276Y-54408734D01*
X125189808Y-54547206D01*
X125136662Y-54592562D01*
X125067431Y-54601986D01*
X125004095Y-54572484D01*
X124982192Y-54547206D01*
X124924286Y-54458576D01*
X124891722Y-54408732D01*
X124891719Y-54408729D01*
X124891715Y-54408723D01*
X124739243Y-54243097D01*
X124739238Y-54243092D01*
X124561577Y-54104812D01*
X124561572Y-54104808D01*
X124363580Y-53997661D01*
X124363577Y-53997659D01*
X124363574Y-53997658D01*
X124363571Y-53997657D01*
X124363569Y-53997656D01*
X124150637Y-53924556D01*
X123928569Y-53887500D01*
X123703431Y-53887500D01*
X123481362Y-53924556D01*
X123268430Y-53997656D01*
X123268419Y-53997661D01*
X123070427Y-54104808D01*
X123070422Y-54104812D01*
X122892761Y-54243092D01*
X122892756Y-54243097D01*
X122740284Y-54408723D01*
X122740276Y-54408734D01*
X122649808Y-54547206D01*
X122596662Y-54592562D01*
X122527431Y-54601986D01*
X122464095Y-54572484D01*
X122442192Y-54547206D01*
X122384286Y-54458576D01*
X122351722Y-54408732D01*
X122351719Y-54408729D01*
X122351715Y-54408723D01*
X122199243Y-54243097D01*
X122199238Y-54243092D01*
X122021577Y-54104812D01*
X122021572Y-54104808D01*
X121823580Y-53997661D01*
X121823577Y-53997659D01*
X121823574Y-53997658D01*
X121823571Y-53997657D01*
X121823569Y-53997656D01*
X121610637Y-53924556D01*
X121388569Y-53887500D01*
X121163431Y-53887500D01*
X120941362Y-53924556D01*
X120728430Y-53997656D01*
X120728419Y-53997661D01*
X120530427Y-54104808D01*
X120530422Y-54104812D01*
X120352761Y-54243092D01*
X120352756Y-54243097D01*
X120200284Y-54408723D01*
X120200276Y-54408734D01*
X120109808Y-54547206D01*
X120056662Y-54592562D01*
X119987431Y-54601986D01*
X119924095Y-54572484D01*
X119902192Y-54547206D01*
X119844286Y-54458576D01*
X119811722Y-54408732D01*
X119811719Y-54408729D01*
X119811715Y-54408723D01*
X119659243Y-54243097D01*
X119659238Y-54243092D01*
X119481577Y-54104812D01*
X119481572Y-54104808D01*
X119283580Y-53997661D01*
X119283577Y-53997659D01*
X119283574Y-53997658D01*
X119283571Y-53997657D01*
X119283569Y-53997656D01*
X119070637Y-53924556D01*
X118848569Y-53887500D01*
X118623431Y-53887500D01*
X118401362Y-53924556D01*
X118188430Y-53997656D01*
X118188419Y-53997661D01*
X117990427Y-54104808D01*
X117990422Y-54104812D01*
X117812761Y-54243092D01*
X117812756Y-54243097D01*
X117660284Y-54408723D01*
X117660276Y-54408734D01*
X117569808Y-54547206D01*
X117516662Y-54592562D01*
X117447431Y-54601986D01*
X117384095Y-54572484D01*
X117362192Y-54547206D01*
X117304286Y-54458576D01*
X117271722Y-54408732D01*
X117271719Y-54408729D01*
X117271715Y-54408723D01*
X117119243Y-54243097D01*
X117119238Y-54243092D01*
X116941577Y-54104812D01*
X116941572Y-54104808D01*
X116743580Y-53997661D01*
X116743577Y-53997659D01*
X116743574Y-53997658D01*
X116743571Y-53997657D01*
X116743569Y-53997656D01*
X116530637Y-53924556D01*
X116308569Y-53887500D01*
X116083431Y-53887500D01*
X115861362Y-53924556D01*
X115648430Y-53997656D01*
X115648419Y-53997661D01*
X115450427Y-54104808D01*
X115450422Y-54104812D01*
X115272761Y-54243092D01*
X115272756Y-54243097D01*
X115120284Y-54408723D01*
X115120276Y-54408734D01*
X115029808Y-54547206D01*
X114976662Y-54592562D01*
X114907431Y-54601986D01*
X114844095Y-54572484D01*
X114822192Y-54547206D01*
X114764286Y-54458576D01*
X114731722Y-54408732D01*
X114731719Y-54408729D01*
X114731715Y-54408723D01*
X114579243Y-54243097D01*
X114579238Y-54243092D01*
X114401577Y-54104812D01*
X114401572Y-54104808D01*
X114203580Y-53997661D01*
X114203577Y-53997659D01*
X114203574Y-53997658D01*
X114203571Y-53997657D01*
X114203569Y-53997656D01*
X113990637Y-53924556D01*
X113768569Y-53887500D01*
X113543431Y-53887500D01*
X113321362Y-53924556D01*
X113108430Y-53997656D01*
X113108419Y-53997661D01*
X112910427Y-54104808D01*
X112910422Y-54104812D01*
X112732761Y-54243092D01*
X112732756Y-54243097D01*
X112580284Y-54408723D01*
X112580276Y-54408734D01*
X112489808Y-54547206D01*
X112436662Y-54592562D01*
X112367431Y-54601986D01*
X112304095Y-54572484D01*
X112282192Y-54547206D01*
X112224286Y-54458576D01*
X112191722Y-54408732D01*
X112191719Y-54408729D01*
X112191715Y-54408723D01*
X112039243Y-54243097D01*
X112039238Y-54243092D01*
X111861577Y-54104812D01*
X111861572Y-54104808D01*
X111663580Y-53997661D01*
X111663577Y-53997659D01*
X111663574Y-53997658D01*
X111663571Y-53997657D01*
X111663569Y-53997656D01*
X111450637Y-53924556D01*
X111228569Y-53887500D01*
X111003431Y-53887500D01*
X110781362Y-53924556D01*
X110568430Y-53997656D01*
X110568419Y-53997661D01*
X110370427Y-54104808D01*
X110370422Y-54104812D01*
X110192761Y-54243092D01*
X110192756Y-54243097D01*
X110040284Y-54408723D01*
X110040276Y-54408734D01*
X109949808Y-54547206D01*
X109896662Y-54592562D01*
X109827431Y-54601986D01*
X109764095Y-54572484D01*
X109742192Y-54547206D01*
X109684286Y-54458576D01*
X109651722Y-54408732D01*
X109651719Y-54408729D01*
X109651715Y-54408723D01*
X109499243Y-54243097D01*
X109499238Y-54243092D01*
X109321577Y-54104812D01*
X109321572Y-54104808D01*
X109123580Y-53997661D01*
X109123577Y-53997659D01*
X109123574Y-53997658D01*
X109123571Y-53997657D01*
X109123569Y-53997656D01*
X108910637Y-53924556D01*
X108688569Y-53887500D01*
X108463431Y-53887500D01*
X108241366Y-53924555D01*
X108239382Y-53925058D01*
X108238544Y-53925026D01*
X108236306Y-53925400D01*
X108236229Y-53924939D01*
X108169562Y-53922430D01*
X108121265Y-53892532D01*
X107453658Y-53224925D01*
X107443732Y-53212535D01*
X107443525Y-53212707D01*
X107438552Y-53206696D01*
X107387306Y-53158573D01*
X107366097Y-53137363D01*
X107360492Y-53133015D01*
X107356046Y-53129218D01*
X107321509Y-53096785D01*
X107321501Y-53096780D01*
X107303540Y-53086906D01*
X107287274Y-53076222D01*
X107271064Y-53063648D01*
X107227571Y-53044827D01*
X107222323Y-53042256D01*
X107180805Y-53019432D01*
X107180804Y-53019431D01*
X107180803Y-53019431D01*
X107160937Y-53014330D01*
X107142538Y-53008030D01*
X107123709Y-52999883D01*
X107123708Y-52999882D01*
X107076902Y-52992469D01*
X107071181Y-52991284D01*
X107025283Y-52979500D01*
X107025282Y-52979500D01*
X107004774Y-52979500D01*
X106985376Y-52977973D01*
X106974769Y-52976293D01*
X106965122Y-52974765D01*
X106965121Y-52974764D01*
X106917939Y-52979225D01*
X106912101Y-52979500D01*
X98476322Y-52979500D01*
X98460539Y-52977757D01*
X98460514Y-52978025D01*
X98452752Y-52977291D01*
X98452751Y-52977291D01*
X98382467Y-52979500D01*
X98352487Y-52979500D01*
X98352484Y-52979500D01*
X98352469Y-52979501D01*
X98345451Y-52980387D01*
X98339634Y-52980845D01*
X98292270Y-52982334D01*
X98292264Y-52982335D01*
X98272563Y-52988058D01*
X98253524Y-52992000D01*
X98233181Y-52994571D01*
X98233173Y-52994572D01*
X98233171Y-52994573D01*
X98233169Y-52994573D01*
X98233163Y-52994575D01*
X98189115Y-53012014D01*
X98183592Y-53013905D01*
X98138079Y-53027130D01*
X98138077Y-53027130D01*
X98138077Y-53027131D01*
X98120418Y-53037573D01*
X98102953Y-53046129D01*
X98083885Y-53053678D01*
X98083884Y-53053679D01*
X98045540Y-53081537D01*
X98040658Y-53084743D01*
X97999868Y-53108868D01*
X97985372Y-53123364D01*
X97970582Y-53135996D01*
X97953986Y-53148054D01*
X97953982Y-53148057D01*
X97923766Y-53184581D01*
X97919834Y-53188902D01*
X96908386Y-54200349D01*
X96847063Y-54233834D01*
X96777371Y-54228850D01*
X96744544Y-54210522D01*
X96621576Y-54114811D01*
X96621575Y-54114810D01*
X96621572Y-54114808D01*
X96423580Y-54007661D01*
X96423577Y-54007659D01*
X96423574Y-54007658D01*
X96423571Y-54007657D01*
X96423569Y-54007656D01*
X96210637Y-53934556D01*
X95988569Y-53897500D01*
X95763431Y-53897500D01*
X95541362Y-53934556D01*
X95328430Y-54007656D01*
X95328419Y-54007661D01*
X95130427Y-54114808D01*
X95130422Y-54114812D01*
X94952761Y-54253092D01*
X94952756Y-54253097D01*
X94800284Y-54418723D01*
X94800276Y-54418734D01*
X94709808Y-54557206D01*
X94656662Y-54602562D01*
X94587431Y-54611986D01*
X94524095Y-54582484D01*
X94502192Y-54557206D01*
X94411723Y-54418734D01*
X94411715Y-54418723D01*
X94259243Y-54253097D01*
X94259238Y-54253092D01*
X94081577Y-54114812D01*
X94081572Y-54114808D01*
X93883580Y-54007661D01*
X93883577Y-54007659D01*
X93883574Y-54007658D01*
X93883571Y-54007657D01*
X93883569Y-54007656D01*
X93670637Y-53934556D01*
X93448569Y-53897500D01*
X93223431Y-53897500D01*
X93001362Y-53934556D01*
X92788430Y-54007656D01*
X92788419Y-54007661D01*
X92590427Y-54114808D01*
X92590422Y-54114812D01*
X92412761Y-54253092D01*
X92412756Y-54253097D01*
X92260284Y-54418723D01*
X92260276Y-54418734D01*
X92169808Y-54557206D01*
X92116662Y-54602562D01*
X92047431Y-54611986D01*
X91984095Y-54582484D01*
X91962192Y-54557206D01*
X91871723Y-54418734D01*
X91871715Y-54418723D01*
X91719243Y-54253097D01*
X91719238Y-54253092D01*
X91541577Y-54114812D01*
X91541572Y-54114808D01*
X91343580Y-54007661D01*
X91343577Y-54007659D01*
X91343574Y-54007658D01*
X91343571Y-54007657D01*
X91343569Y-54007656D01*
X91130637Y-53934556D01*
X90908569Y-53897500D01*
X90683431Y-53897500D01*
X90461362Y-53934556D01*
X90248430Y-54007656D01*
X90248419Y-54007661D01*
X90050427Y-54114808D01*
X90050422Y-54114812D01*
X89872761Y-54253092D01*
X89872756Y-54253097D01*
X89720284Y-54418723D01*
X89720276Y-54418734D01*
X89629808Y-54557206D01*
X89576662Y-54602562D01*
X89507431Y-54611986D01*
X89444095Y-54582484D01*
X89422192Y-54557206D01*
X89331723Y-54418734D01*
X89331715Y-54418723D01*
X89179243Y-54253097D01*
X89179238Y-54253092D01*
X89001577Y-54114812D01*
X89001572Y-54114808D01*
X88803580Y-54007661D01*
X88803577Y-54007659D01*
X88803574Y-54007658D01*
X88803571Y-54007657D01*
X88803569Y-54007656D01*
X88590637Y-53934556D01*
X88368569Y-53897500D01*
X88143431Y-53897500D01*
X87921362Y-53934556D01*
X87708430Y-54007656D01*
X87708419Y-54007661D01*
X87510427Y-54114808D01*
X87510422Y-54114812D01*
X87332761Y-54253092D01*
X87332756Y-54253097D01*
X87180284Y-54418723D01*
X87180276Y-54418734D01*
X87089808Y-54557206D01*
X87036662Y-54602562D01*
X86967431Y-54611986D01*
X86904095Y-54582484D01*
X86882192Y-54557206D01*
X86791723Y-54418734D01*
X86791715Y-54418723D01*
X86639243Y-54253097D01*
X86639238Y-54253092D01*
X86461577Y-54114812D01*
X86461572Y-54114808D01*
X86263580Y-54007661D01*
X86263577Y-54007659D01*
X86263574Y-54007658D01*
X86263571Y-54007657D01*
X86263569Y-54007656D01*
X86050637Y-53934556D01*
X85828569Y-53897500D01*
X85603431Y-53897500D01*
X85381362Y-53934556D01*
X85168430Y-54007656D01*
X85168419Y-54007661D01*
X84970427Y-54114808D01*
X84970422Y-54114812D01*
X84792761Y-54253092D01*
X84792756Y-54253097D01*
X84640284Y-54418723D01*
X84640276Y-54418734D01*
X84549808Y-54557206D01*
X84496662Y-54602562D01*
X84427431Y-54611986D01*
X84364095Y-54582484D01*
X84342192Y-54557206D01*
X84251723Y-54418734D01*
X84251715Y-54418723D01*
X84099243Y-54253097D01*
X84099238Y-54253092D01*
X83921577Y-54114812D01*
X83921572Y-54114808D01*
X83723580Y-54007661D01*
X83723577Y-54007659D01*
X83723574Y-54007658D01*
X83723571Y-54007657D01*
X83723569Y-54007656D01*
X83510637Y-53934556D01*
X83288569Y-53897500D01*
X83063431Y-53897500D01*
X82841362Y-53934556D01*
X82628430Y-54007656D01*
X82628419Y-54007661D01*
X82430427Y-54114808D01*
X82430422Y-54114812D01*
X82252761Y-54253092D01*
X82252756Y-54253097D01*
X82100284Y-54418723D01*
X82100276Y-54418734D01*
X81977140Y-54607207D01*
X81886703Y-54813385D01*
X81831436Y-55031628D01*
X81831434Y-55031640D01*
X81812844Y-55255994D01*
X81812844Y-55256005D01*
X81831435Y-55480366D01*
X81858889Y-55588781D01*
X81856263Y-55658601D01*
X81826364Y-55706901D01*
X81397921Y-56135344D01*
X81385531Y-56145272D01*
X81385702Y-56145479D01*
X81379696Y-56150447D01*
X81368408Y-56162468D01*
X81331573Y-56201693D01*
X81324503Y-56208763D01*
X81310365Y-56222900D01*
X81310363Y-56222902D01*
X81306008Y-56228516D01*
X81302218Y-56232953D01*
X81269782Y-56267494D01*
X81269781Y-56267496D01*
X81259900Y-56285468D01*
X81249225Y-56301719D01*
X81236652Y-56317929D01*
X81236649Y-56317933D01*
X81217827Y-56361428D01*
X81215257Y-56366674D01*
X81192430Y-56408197D01*
X81187329Y-56428064D01*
X81181030Y-56446462D01*
X81172884Y-56465287D01*
X81172881Y-56465296D01*
X81165469Y-56512098D01*
X81164284Y-56517820D01*
X81152500Y-56563711D01*
X81152500Y-56584225D01*
X81150973Y-56603624D01*
X81147765Y-56623877D01*
X81152225Y-56671059D01*
X81152500Y-56676897D01*
X81152500Y-64495891D01*
X81132815Y-64562930D01*
X81087520Y-64604943D01*
X81034961Y-64633388D01*
X81034959Y-64633388D01*
X81034956Y-64633391D01*
X81034949Y-64633395D01*
X80855524Y-64773047D01*
X80855514Y-64773057D01*
X80701507Y-64940354D01*
X80577137Y-65130718D01*
X80485797Y-65338952D01*
X80429975Y-65559389D01*
X80411198Y-65785994D01*
X80411198Y-65786005D01*
X80429975Y-66012610D01*
X80485797Y-66233047D01*
X80577138Y-66441284D01*
X80695882Y-66623036D01*
X80716069Y-66689925D01*
X80696889Y-66757111D01*
X80644430Y-66803261D01*
X80575349Y-66813724D01*
X80551118Y-66807898D01*
X80445054Y-66770784D01*
X80445041Y-66770781D01*
X80264004Y-66750384D01*
X80263996Y-66750384D01*
X80082958Y-66770781D01*
X80082950Y-66770783D01*
X79921454Y-66827293D01*
X79851675Y-66830854D01*
X79791048Y-66796125D01*
X79758821Y-66734132D01*
X79756500Y-66710251D01*
X79756500Y-58133166D01*
X79775886Y-58066594D01*
X80079381Y-57589672D01*
X80254728Y-57314127D01*
X80307326Y-57268137D01*
X80318384Y-57263659D01*
X80363015Y-57248043D01*
X80517281Y-57151111D01*
X80646111Y-57022281D01*
X80743043Y-56868015D01*
X80803217Y-56696047D01*
X80805251Y-56677996D01*
X80823616Y-56515003D01*
X80823616Y-56514996D01*
X80803218Y-56333958D01*
X80803217Y-56333953D01*
X80794471Y-56308959D01*
X80743043Y-56161985D01*
X80646111Y-56007719D01*
X80517281Y-55878889D01*
X80453049Y-55838529D01*
X80363017Y-55781958D01*
X80363016Y-55781957D01*
X80363015Y-55781957D01*
X80308693Y-55762949D01*
X80191046Y-55721782D01*
X80191041Y-55721781D01*
X80010004Y-55701384D01*
X80009996Y-55701384D01*
X79828958Y-55721781D01*
X79828953Y-55721782D01*
X79656982Y-55781958D01*
X79566950Y-55838529D01*
X79499713Y-55857529D01*
X79432878Y-55837161D01*
X79387664Y-55783893D01*
X79378427Y-55714637D01*
X79383701Y-55693259D01*
X79385291Y-55688627D01*
X79385296Y-55688616D01*
X79440564Y-55470368D01*
X79458327Y-55256005D01*
X79459156Y-55246005D01*
X79459156Y-55245994D01*
X79440565Y-55021640D01*
X79440563Y-55021628D01*
X79437876Y-55011018D01*
X79385296Y-54803384D01*
X79294860Y-54597209D01*
X79278706Y-54572484D01*
X79233291Y-54502970D01*
X79171722Y-54408732D01*
X79171719Y-54408729D01*
X79171715Y-54408723D01*
X79019243Y-54243097D01*
X79019238Y-54243092D01*
X78841577Y-54104812D01*
X78841572Y-54104808D01*
X78643580Y-53997661D01*
X78643577Y-53997659D01*
X78643574Y-53997658D01*
X78643571Y-53997657D01*
X78643569Y-53997656D01*
X78430637Y-53924556D01*
X78208569Y-53887500D01*
X77983431Y-53887500D01*
X77761362Y-53924556D01*
X77548430Y-53997656D01*
X77548419Y-53997661D01*
X77350427Y-54104808D01*
X77350422Y-54104812D01*
X77172761Y-54243092D01*
X77172756Y-54243097D01*
X77020284Y-54408723D01*
X77020276Y-54408734D01*
X76929808Y-54547206D01*
X76876662Y-54592562D01*
X76807431Y-54601986D01*
X76744095Y-54572484D01*
X76722192Y-54547206D01*
X76664286Y-54458576D01*
X76631722Y-54408732D01*
X76631719Y-54408729D01*
X76631715Y-54408723D01*
X76479243Y-54243097D01*
X76479238Y-54243092D01*
X76301577Y-54104812D01*
X76301572Y-54104808D01*
X76103580Y-53997661D01*
X76103577Y-53997659D01*
X76103574Y-53997658D01*
X76103571Y-53997657D01*
X76103569Y-53997656D01*
X75890637Y-53924556D01*
X75668569Y-53887500D01*
X75443431Y-53887500D01*
X75221362Y-53924556D01*
X75008430Y-53997656D01*
X75008419Y-53997661D01*
X74810427Y-54104808D01*
X74810422Y-54104812D01*
X74632761Y-54243092D01*
X74632756Y-54243097D01*
X74480284Y-54408723D01*
X74480276Y-54408734D01*
X74389808Y-54547206D01*
X74336662Y-54592562D01*
X74267431Y-54601986D01*
X74204095Y-54572484D01*
X74182192Y-54547206D01*
X74124286Y-54458576D01*
X74091722Y-54408732D01*
X74091719Y-54408729D01*
X74091715Y-54408723D01*
X73939243Y-54243097D01*
X73939238Y-54243092D01*
X73761577Y-54104812D01*
X73761572Y-54104808D01*
X73563580Y-53997661D01*
X73563577Y-53997659D01*
X73563574Y-53997658D01*
X73563571Y-53997657D01*
X73563569Y-53997656D01*
X73350637Y-53924556D01*
X73128569Y-53887500D01*
X72903431Y-53887500D01*
X72681362Y-53924556D01*
X72468430Y-53997656D01*
X72468415Y-53997662D01*
X72467508Y-53998154D01*
X72467094Y-53998242D01*
X72463723Y-53999721D01*
X72463418Y-53999027D01*
X72399178Y-54012743D01*
X72333808Y-53988075D01*
X72292152Y-53931980D01*
X72284500Y-53889094D01*
X72284500Y-53088556D01*
X72303507Y-53022583D01*
X72361041Y-52931018D01*
X72361040Y-52931018D01*
X72361043Y-52931015D01*
X72421217Y-52759047D01*
X72441616Y-52578000D01*
X72421217Y-52396953D01*
X72361043Y-52224985D01*
X72264111Y-52070719D01*
X72135281Y-51941889D01*
X72103571Y-51921964D01*
X71981017Y-51844958D01*
X71981016Y-51844957D01*
X71981015Y-51844957D01*
X71926693Y-51825949D01*
X71809046Y-51784782D01*
X71809041Y-51784781D01*
X71628004Y-51764384D01*
X71627996Y-51764384D01*
X71446958Y-51784781D01*
X71446953Y-51784782D01*
X71274982Y-51844958D01*
X71120718Y-51941889D01*
X70991889Y-52070718D01*
X70894958Y-52224982D01*
X70834782Y-52396953D01*
X70834781Y-52396958D01*
X70814384Y-52577996D01*
X70814384Y-52578003D01*
X70834781Y-52759041D01*
X70834782Y-52759046D01*
X70894958Y-52931017D01*
X70933284Y-52992012D01*
X70989536Y-53081537D01*
X70995594Y-53091177D01*
X70993999Y-53092178D01*
X71016855Y-53148151D01*
X71017500Y-53160785D01*
X71017500Y-53821899D01*
X70997815Y-53888938D01*
X70945011Y-53934693D01*
X70875853Y-53944637D01*
X70853239Y-53939181D01*
X70810636Y-53924556D01*
X70588569Y-53887500D01*
X70363431Y-53887500D01*
X70141363Y-53924556D01*
X70098761Y-53939181D01*
X70028963Y-53942330D01*
X69968542Y-53907243D01*
X69936682Y-53845060D01*
X69934500Y-53821899D01*
X69934500Y-50736000D01*
X140094835Y-50736000D01*
X140113465Y-50972714D01*
X140168895Y-51203595D01*
X140168895Y-51203597D01*
X140259757Y-51422959D01*
X140259759Y-51422962D01*
X140383820Y-51625410D01*
X140383821Y-51625413D01*
X140436076Y-51686596D01*
X140538031Y-51805969D01*
X140628314Y-51883078D01*
X140718586Y-51960178D01*
X140718589Y-51960179D01*
X140921037Y-52084240D01*
X140921040Y-52084242D01*
X141140403Y-52175104D01*
X141140404Y-52175104D01*
X141140406Y-52175105D01*
X141371289Y-52230535D01*
X141608000Y-52249165D01*
X141844711Y-52230535D01*
X142075594Y-52175105D01*
X142075596Y-52175104D01*
X142075597Y-52175104D01*
X142294959Y-52084242D01*
X142294960Y-52084241D01*
X142294963Y-52084240D01*
X142497416Y-51960176D01*
X142677969Y-51805969D01*
X142832176Y-51625416D01*
X142956240Y-51422963D01*
X143047105Y-51203594D01*
X143102535Y-50972711D01*
X143121165Y-50736000D01*
X146594835Y-50736000D01*
X146613465Y-50972714D01*
X146668895Y-51203595D01*
X146668895Y-51203597D01*
X146759757Y-51422959D01*
X146759759Y-51422962D01*
X146883820Y-51625410D01*
X146883821Y-51625413D01*
X146936076Y-51686596D01*
X147038031Y-51805969D01*
X147128314Y-51883078D01*
X147218586Y-51960178D01*
X147218589Y-51960179D01*
X147421037Y-52084240D01*
X147421040Y-52084242D01*
X147640403Y-52175104D01*
X147640404Y-52175104D01*
X147640406Y-52175105D01*
X147871289Y-52230535D01*
X148108000Y-52249165D01*
X148344711Y-52230535D01*
X148575594Y-52175105D01*
X148575596Y-52175104D01*
X148575597Y-52175104D01*
X148794959Y-52084242D01*
X148794960Y-52084241D01*
X148794963Y-52084240D01*
X148997416Y-51960176D01*
X149177969Y-51805969D01*
X149332176Y-51625416D01*
X149456240Y-51422963D01*
X149547105Y-51203594D01*
X149602535Y-50972711D01*
X149621165Y-50736000D01*
X149602535Y-50499289D01*
X149547105Y-50268406D01*
X149547104Y-50268403D01*
X149547104Y-50268402D01*
X149456242Y-50049040D01*
X149456240Y-50049037D01*
X149332179Y-49846589D01*
X149332178Y-49846586D01*
X149297340Y-49805797D01*
X149177969Y-49666031D01*
X149058596Y-49564076D01*
X148997413Y-49511821D01*
X148997410Y-49511820D01*
X148794962Y-49387759D01*
X148794959Y-49387757D01*
X148575596Y-49296895D01*
X148344714Y-49241465D01*
X148108000Y-49222835D01*
X147871285Y-49241465D01*
X147640404Y-49296895D01*
X147640402Y-49296895D01*
X147421040Y-49387757D01*
X147421037Y-49387759D01*
X147218589Y-49511820D01*
X147218586Y-49511821D01*
X147038031Y-49666031D01*
X146883821Y-49846586D01*
X146883820Y-49846589D01*
X146759759Y-50049037D01*
X146759757Y-50049040D01*
X146668895Y-50268402D01*
X146668895Y-50268404D01*
X146613465Y-50499285D01*
X146594835Y-50736000D01*
X143121165Y-50736000D01*
X143102535Y-50499289D01*
X143047105Y-50268406D01*
X143047104Y-50268403D01*
X143047104Y-50268402D01*
X142956242Y-50049040D01*
X142956240Y-50049037D01*
X142832179Y-49846589D01*
X142832178Y-49846586D01*
X142797340Y-49805797D01*
X142677969Y-49666031D01*
X142558596Y-49564076D01*
X142497413Y-49511821D01*
X142497410Y-49511820D01*
X142294962Y-49387759D01*
X142294959Y-49387757D01*
X142075596Y-49296895D01*
X141844714Y-49241465D01*
X141608000Y-49222835D01*
X141371285Y-49241465D01*
X141140404Y-49296895D01*
X141140402Y-49296895D01*
X140921040Y-49387757D01*
X140921037Y-49387759D01*
X140718589Y-49511820D01*
X140718586Y-49511821D01*
X140538031Y-49666031D01*
X140383821Y-49846586D01*
X140383820Y-49846589D01*
X140259759Y-50049037D01*
X140259757Y-50049040D01*
X140168895Y-50268402D01*
X140168895Y-50268404D01*
X140113465Y-50499285D01*
X140094835Y-50736000D01*
X69934500Y-50736000D01*
X69934500Y-48955593D01*
X69954185Y-48888554D01*
X69970814Y-48867917D01*
X72260264Y-46578466D01*
X72321587Y-46544982D01*
X72375256Y-46545892D01*
X72375305Y-46545600D01*
X72377263Y-46545926D01*
X72378398Y-46545946D01*
X72380365Y-46546444D01*
X72602431Y-46583500D01*
X72827569Y-46583500D01*
X73049635Y-46546444D01*
X73262574Y-46473342D01*
X73460576Y-46366189D01*
X73638240Y-46227906D01*
X73738000Y-46119539D01*
X73790715Y-46062276D01*
X73790715Y-46062275D01*
X73790722Y-46062268D01*
X73881193Y-45923790D01*
X73934338Y-45878437D01*
X74003569Y-45869013D01*
X74066905Y-45898515D01*
X74088804Y-45923787D01*
X74179278Y-46062268D01*
X74179283Y-46062273D01*
X74179284Y-46062276D01*
X74330179Y-46226189D01*
X74331760Y-46227906D01*
X74509424Y-46366189D01*
X74509425Y-46366189D01*
X74509427Y-46366191D01*
X74614121Y-46422848D01*
X74707426Y-46473342D01*
X74904567Y-46541020D01*
X74917906Y-46545600D01*
X74920365Y-46546444D01*
X75142431Y-46583500D01*
X75367569Y-46583500D01*
X75589635Y-46546444D01*
X75802574Y-46473342D01*
X76000576Y-46366189D01*
X76178240Y-46227906D01*
X76278000Y-46119539D01*
X76330715Y-46062276D01*
X76330717Y-46062273D01*
X76330722Y-46062268D01*
X76453860Y-45873791D01*
X76544296Y-45667616D01*
X76599564Y-45449368D01*
X76609041Y-45335000D01*
X82489364Y-45335000D01*
X82546567Y-45548486D01*
X82546570Y-45548492D01*
X82646399Y-45762578D01*
X82781894Y-45956082D01*
X82948917Y-46123105D01*
X83142421Y-46258600D01*
X83356507Y-46358429D01*
X83356516Y-46358433D01*
X83570000Y-46415634D01*
X83570000Y-45520501D01*
X83677685Y-45569680D01*
X83784237Y-45585000D01*
X83855763Y-45585000D01*
X83962315Y-45569680D01*
X84070000Y-45520501D01*
X84070000Y-46415633D01*
X84283483Y-46358433D01*
X84283492Y-46358429D01*
X84497578Y-46258600D01*
X84691082Y-46123105D01*
X84858105Y-45956082D01*
X84984868Y-45775048D01*
X85039445Y-45731423D01*
X85108944Y-45724231D01*
X85171298Y-45755753D01*
X85190251Y-45778350D01*
X85284276Y-45922265D01*
X85284284Y-45922276D01*
X85436756Y-46087902D01*
X85436761Y-46087907D01*
X85495981Y-46134000D01*
X85614424Y-46226189D01*
X85614425Y-46226189D01*
X85614427Y-46226191D01*
X85632553Y-46236000D01*
X85812426Y-46333342D01*
X86025365Y-46406444D01*
X86247431Y-46443500D01*
X86472569Y-46443500D01*
X86694635Y-46406444D01*
X86907574Y-46333342D01*
X87105576Y-46226189D01*
X87283240Y-46087906D01*
X87435722Y-45922268D01*
X87526193Y-45783790D01*
X87579338Y-45738437D01*
X87648569Y-45729013D01*
X87711905Y-45758515D01*
X87733804Y-45783787D01*
X87824278Y-45922268D01*
X87824283Y-45922273D01*
X87824284Y-45922276D01*
X87976756Y-46087902D01*
X87976761Y-46087907D01*
X88035981Y-46134000D01*
X88154424Y-46226189D01*
X88154425Y-46226189D01*
X88154427Y-46226191D01*
X88172553Y-46236000D01*
X88352426Y-46333342D01*
X88565365Y-46406444D01*
X88787431Y-46443500D01*
X89012569Y-46443500D01*
X89234635Y-46406444D01*
X89447574Y-46333342D01*
X89645576Y-46226189D01*
X89823240Y-46087906D01*
X89975722Y-45922268D01*
X90066193Y-45783790D01*
X90119338Y-45738437D01*
X90188569Y-45729013D01*
X90251905Y-45758515D01*
X90273804Y-45783787D01*
X90364278Y-45922268D01*
X90364283Y-45922273D01*
X90364284Y-45922276D01*
X90516756Y-46087902D01*
X90516761Y-46087907D01*
X90575981Y-46134000D01*
X90694424Y-46226189D01*
X90694425Y-46226189D01*
X90694427Y-46226191D01*
X90712553Y-46236000D01*
X90892426Y-46333342D01*
X91105365Y-46406444D01*
X91327431Y-46443500D01*
X91552569Y-46443500D01*
X91774635Y-46406444D01*
X91987574Y-46333342D01*
X92185576Y-46226189D01*
X92363240Y-46087906D01*
X92515722Y-45922268D01*
X92606193Y-45783790D01*
X92659338Y-45738437D01*
X92728569Y-45729013D01*
X92791905Y-45758515D01*
X92813804Y-45783787D01*
X92904278Y-45922268D01*
X92904283Y-45922273D01*
X92904284Y-45922276D01*
X93056756Y-46087902D01*
X93056761Y-46087907D01*
X93115981Y-46134000D01*
X93234424Y-46226189D01*
X93234425Y-46226189D01*
X93234427Y-46226191D01*
X93252553Y-46236000D01*
X93432426Y-46333342D01*
X93645365Y-46406444D01*
X93867431Y-46443500D01*
X94092569Y-46443500D01*
X94314635Y-46406444D01*
X94527574Y-46333342D01*
X94725576Y-46226189D01*
X94903240Y-46087906D01*
X95055722Y-45922268D01*
X95146193Y-45783790D01*
X95199338Y-45738437D01*
X95268569Y-45729013D01*
X95331905Y-45758515D01*
X95353804Y-45783787D01*
X95444278Y-45922268D01*
X95444283Y-45922273D01*
X95444284Y-45922276D01*
X95596756Y-46087902D01*
X95596761Y-46087907D01*
X95655981Y-46134000D01*
X95774424Y-46226189D01*
X95774425Y-46226189D01*
X95774427Y-46226191D01*
X95792553Y-46236000D01*
X95972426Y-46333342D01*
X96185365Y-46406444D01*
X96407431Y-46443500D01*
X96632569Y-46443500D01*
X96854635Y-46406444D01*
X97067574Y-46333342D01*
X97265576Y-46226189D01*
X97443240Y-46087906D01*
X97595722Y-45922268D01*
X97718860Y-45733791D01*
X97809296Y-45527616D01*
X97858073Y-45335000D01*
X102809364Y-45335000D01*
X102866567Y-45548486D01*
X102866570Y-45548492D01*
X102966399Y-45762578D01*
X103101894Y-45956082D01*
X103268917Y-46123105D01*
X103462421Y-46258600D01*
X103676507Y-46358429D01*
X103676516Y-46358433D01*
X103890000Y-46415634D01*
X103890000Y-45520501D01*
X103997685Y-45569680D01*
X104104237Y-45585000D01*
X104175763Y-45585000D01*
X104282315Y-45569680D01*
X104390000Y-45520501D01*
X104390000Y-46415633D01*
X104603483Y-46358433D01*
X104603492Y-46358429D01*
X104817578Y-46258600D01*
X105011082Y-46123105D01*
X105178105Y-45956082D01*
X105308425Y-45769968D01*
X105363002Y-45726344D01*
X105432501Y-45719151D01*
X105494855Y-45750673D01*
X105511575Y-45769968D01*
X105641894Y-45956082D01*
X105808917Y-46123105D01*
X106002421Y-46258600D01*
X106216507Y-46358429D01*
X106216516Y-46358433D01*
X106430000Y-46415634D01*
X106430000Y-45520501D01*
X106537685Y-45569680D01*
X106644237Y-45585000D01*
X106715763Y-45585000D01*
X106822315Y-45569680D01*
X106930000Y-45520501D01*
X106930000Y-46415633D01*
X107143483Y-46358433D01*
X107143492Y-46358429D01*
X107357578Y-46258600D01*
X107551082Y-46123105D01*
X107718105Y-45956082D01*
X107844868Y-45775048D01*
X107899445Y-45731423D01*
X107968944Y-45724231D01*
X108031298Y-45755753D01*
X108050251Y-45778350D01*
X108144276Y-45922265D01*
X108144284Y-45922276D01*
X108296756Y-46087902D01*
X108296761Y-46087907D01*
X108355981Y-46134000D01*
X108474424Y-46226189D01*
X108474425Y-46226189D01*
X108474427Y-46226191D01*
X108492553Y-46236000D01*
X108672426Y-46333342D01*
X108885365Y-46406444D01*
X109107431Y-46443500D01*
X109332569Y-46443500D01*
X109554635Y-46406444D01*
X109767574Y-46333342D01*
X109965576Y-46226189D01*
X110143240Y-46087906D01*
X110295722Y-45922268D01*
X110386193Y-45783790D01*
X110439338Y-45738437D01*
X110508569Y-45729013D01*
X110571905Y-45758515D01*
X110593804Y-45783787D01*
X110684278Y-45922268D01*
X110684283Y-45922273D01*
X110684284Y-45922276D01*
X110836756Y-46087902D01*
X110836761Y-46087907D01*
X110895981Y-46134000D01*
X111014424Y-46226189D01*
X111014425Y-46226189D01*
X111014427Y-46226191D01*
X111032553Y-46236000D01*
X111212426Y-46333342D01*
X111425365Y-46406444D01*
X111647431Y-46443500D01*
X111872569Y-46443500D01*
X112094635Y-46406444D01*
X112307574Y-46333342D01*
X112487447Y-46236000D01*
X140094835Y-46236000D01*
X140113465Y-46472714D01*
X140168895Y-46703595D01*
X140168895Y-46703597D01*
X140259757Y-46922959D01*
X140259759Y-46922962D01*
X140383820Y-47125410D01*
X140383821Y-47125413D01*
X140383824Y-47125416D01*
X140538031Y-47305969D01*
X140677797Y-47425340D01*
X140718586Y-47460178D01*
X140718589Y-47460179D01*
X140921037Y-47584240D01*
X140921040Y-47584242D01*
X141140403Y-47675104D01*
X141140404Y-47675104D01*
X141140406Y-47675105D01*
X141371289Y-47730535D01*
X141608000Y-47749165D01*
X141844711Y-47730535D01*
X142075594Y-47675105D01*
X142075596Y-47675104D01*
X142075597Y-47675104D01*
X142294959Y-47584242D01*
X142294960Y-47584241D01*
X142294963Y-47584240D01*
X142497416Y-47460176D01*
X142677969Y-47305969D01*
X142832176Y-47125416D01*
X142956240Y-46922963D01*
X143047105Y-46703594D01*
X143102535Y-46472711D01*
X143121165Y-46236000D01*
X146594835Y-46236000D01*
X146613465Y-46472714D01*
X146668895Y-46703595D01*
X146668895Y-46703597D01*
X146759757Y-46922959D01*
X146759759Y-46922962D01*
X146883820Y-47125410D01*
X146883821Y-47125413D01*
X146883824Y-47125416D01*
X147038031Y-47305969D01*
X147177797Y-47425340D01*
X147218586Y-47460178D01*
X147218589Y-47460179D01*
X147421037Y-47584240D01*
X147421040Y-47584242D01*
X147640403Y-47675104D01*
X147640404Y-47675104D01*
X147640406Y-47675105D01*
X147871289Y-47730535D01*
X148108000Y-47749165D01*
X148344711Y-47730535D01*
X148575594Y-47675105D01*
X148575596Y-47675104D01*
X148575597Y-47675104D01*
X148794959Y-47584242D01*
X148794960Y-47584241D01*
X148794963Y-47584240D01*
X148997416Y-47460176D01*
X149177969Y-47305969D01*
X149332176Y-47125416D01*
X149456240Y-46922963D01*
X149547105Y-46703594D01*
X149602535Y-46472711D01*
X149621165Y-46236000D01*
X149602535Y-45999289D01*
X149547105Y-45768406D01*
X149547104Y-45768403D01*
X149547104Y-45768402D01*
X149456242Y-45549040D01*
X149456240Y-45549037D01*
X149332179Y-45346589D01*
X149332178Y-45346586D01*
X149287986Y-45294844D01*
X149177969Y-45166031D01*
X148998923Y-45013111D01*
X148997413Y-45011821D01*
X148997410Y-45011820D01*
X148794962Y-44887759D01*
X148794959Y-44887757D01*
X148575596Y-44796895D01*
X148344714Y-44741465D01*
X148108000Y-44722835D01*
X147871285Y-44741465D01*
X147640404Y-44796895D01*
X147640402Y-44796895D01*
X147421040Y-44887757D01*
X147421037Y-44887759D01*
X147218589Y-45011820D01*
X147218586Y-45011821D01*
X147038031Y-45166031D01*
X146883821Y-45346586D01*
X146883820Y-45346589D01*
X146759759Y-45549037D01*
X146759757Y-45549040D01*
X146668895Y-45768402D01*
X146668895Y-45768404D01*
X146613465Y-45999285D01*
X146594835Y-46236000D01*
X143121165Y-46236000D01*
X143102535Y-45999289D01*
X143047105Y-45768406D01*
X143047104Y-45768403D01*
X143047104Y-45768402D01*
X142956242Y-45549040D01*
X142956240Y-45549037D01*
X142832179Y-45346589D01*
X142832178Y-45346586D01*
X142787986Y-45294844D01*
X142677969Y-45166031D01*
X142498923Y-45013111D01*
X142497413Y-45011821D01*
X142497410Y-45011820D01*
X142294962Y-44887759D01*
X142294959Y-44887757D01*
X142075596Y-44796895D01*
X141844714Y-44741465D01*
X141608000Y-44722835D01*
X141371285Y-44741465D01*
X141140404Y-44796895D01*
X141140402Y-44796895D01*
X140921040Y-44887757D01*
X140921037Y-44887759D01*
X140718589Y-45011820D01*
X140718586Y-45011821D01*
X140538031Y-45166031D01*
X140383821Y-45346586D01*
X140383820Y-45346589D01*
X140259759Y-45549037D01*
X140259757Y-45549040D01*
X140168895Y-45768402D01*
X140168895Y-45768404D01*
X140113465Y-45999285D01*
X140094835Y-46236000D01*
X112487447Y-46236000D01*
X112505576Y-46226189D01*
X112683240Y-46087906D01*
X112835722Y-45922268D01*
X112958860Y-45733791D01*
X113049296Y-45527616D01*
X113104564Y-45309368D01*
X113111556Y-45224994D01*
X113123156Y-45085005D01*
X113123156Y-45084994D01*
X113104565Y-44860640D01*
X113104563Y-44860628D01*
X113069669Y-44722835D01*
X113049296Y-44642384D01*
X112958860Y-44436209D01*
X112942706Y-44411484D01*
X112887082Y-44326345D01*
X112835722Y-44247732D01*
X112835719Y-44247729D01*
X112835715Y-44247723D01*
X112683243Y-44082097D01*
X112683238Y-44082092D01*
X112547775Y-43976656D01*
X112505576Y-43943811D01*
X112505575Y-43943810D01*
X112505572Y-43943808D01*
X112307580Y-43836661D01*
X112307577Y-43836659D01*
X112307574Y-43836658D01*
X112307571Y-43836657D01*
X112307569Y-43836656D01*
X112094637Y-43763556D01*
X111872569Y-43726500D01*
X111647431Y-43726500D01*
X111425362Y-43763556D01*
X111212430Y-43836656D01*
X111212419Y-43836661D01*
X111014427Y-43943808D01*
X111014422Y-43943812D01*
X110836761Y-44082092D01*
X110836756Y-44082097D01*
X110684284Y-44247723D01*
X110684276Y-44247734D01*
X110593808Y-44386206D01*
X110540662Y-44431562D01*
X110471431Y-44440986D01*
X110408095Y-44411484D01*
X110386192Y-44386206D01*
X110297234Y-44250046D01*
X110295722Y-44247732D01*
X110295719Y-44247729D01*
X110295715Y-44247723D01*
X110143243Y-44082097D01*
X110143238Y-44082092D01*
X110007775Y-43976656D01*
X109965576Y-43943811D01*
X109965575Y-43943810D01*
X109965572Y-43943808D01*
X109767580Y-43836661D01*
X109767577Y-43836659D01*
X109767574Y-43836658D01*
X109767571Y-43836657D01*
X109767569Y-43836656D01*
X109554637Y-43763556D01*
X109332569Y-43726500D01*
X109107431Y-43726500D01*
X108885362Y-43763556D01*
X108672430Y-43836656D01*
X108672419Y-43836661D01*
X108474427Y-43943808D01*
X108474422Y-43943812D01*
X108296761Y-44082092D01*
X108296756Y-44082097D01*
X108144284Y-44247723D01*
X108144276Y-44247734D01*
X108050251Y-44391650D01*
X107997105Y-44437007D01*
X107927873Y-44446430D01*
X107864538Y-44416928D01*
X107844868Y-44394951D01*
X107718113Y-44213926D01*
X107718108Y-44213920D01*
X107551082Y-44046894D01*
X107357578Y-43911399D01*
X107143492Y-43811570D01*
X107143486Y-43811567D01*
X106930000Y-43754364D01*
X106930000Y-44649498D01*
X106822315Y-44600320D01*
X106715763Y-44585000D01*
X106644237Y-44585000D01*
X106537685Y-44600320D01*
X106430000Y-44649498D01*
X106430000Y-43754364D01*
X106429999Y-43754364D01*
X106216513Y-43811567D01*
X106216507Y-43811570D01*
X106002422Y-43911399D01*
X106002420Y-43911400D01*
X105808926Y-44046886D01*
X105808920Y-44046891D01*
X105641891Y-44213920D01*
X105641890Y-44213922D01*
X105511575Y-44400031D01*
X105456998Y-44443655D01*
X105387499Y-44450848D01*
X105325145Y-44419326D01*
X105308425Y-44400031D01*
X105178109Y-44213922D01*
X105178108Y-44213920D01*
X105011082Y-44046894D01*
X104817578Y-43911399D01*
X104603492Y-43811570D01*
X104603486Y-43811567D01*
X104390000Y-43754364D01*
X104390000Y-44649498D01*
X104282315Y-44600320D01*
X104175763Y-44585000D01*
X104104237Y-44585000D01*
X103997685Y-44600320D01*
X103890000Y-44649498D01*
X103890000Y-43754364D01*
X103889999Y-43754364D01*
X103676513Y-43811567D01*
X103676507Y-43811570D01*
X103462422Y-43911399D01*
X103462420Y-43911400D01*
X103268926Y-44046886D01*
X103268920Y-44046891D01*
X103101891Y-44213920D01*
X103101886Y-44213926D01*
X102966400Y-44407420D01*
X102966399Y-44407422D01*
X102866570Y-44621507D01*
X102866567Y-44621513D01*
X102809364Y-44834999D01*
X102809364Y-44835000D01*
X103706314Y-44835000D01*
X103680507Y-44875156D01*
X103640000Y-45013111D01*
X103640000Y-45156889D01*
X103680507Y-45294844D01*
X103706314Y-45335000D01*
X102809364Y-45335000D01*
X97858073Y-45335000D01*
X97864564Y-45309368D01*
X97871556Y-45224994D01*
X97883156Y-45085005D01*
X97883156Y-45084994D01*
X97864565Y-44860640D01*
X97864563Y-44860628D01*
X97829669Y-44722835D01*
X97809296Y-44642384D01*
X97718860Y-44436209D01*
X97702706Y-44411484D01*
X97647082Y-44326345D01*
X97595722Y-44247732D01*
X97595719Y-44247729D01*
X97595715Y-44247723D01*
X97443243Y-44082097D01*
X97443238Y-44082092D01*
X97307775Y-43976656D01*
X97265576Y-43943811D01*
X97265575Y-43943810D01*
X97265572Y-43943808D01*
X97067580Y-43836661D01*
X97067577Y-43836659D01*
X97067574Y-43836658D01*
X97067571Y-43836657D01*
X97067569Y-43836656D01*
X96854637Y-43763556D01*
X96632569Y-43726500D01*
X96407431Y-43726500D01*
X96185362Y-43763556D01*
X95972430Y-43836656D01*
X95972419Y-43836661D01*
X95774427Y-43943808D01*
X95774422Y-43943812D01*
X95596761Y-44082092D01*
X95596756Y-44082097D01*
X95444284Y-44247723D01*
X95444276Y-44247734D01*
X95353808Y-44386206D01*
X95300662Y-44431562D01*
X95231431Y-44440986D01*
X95168095Y-44411484D01*
X95146192Y-44386206D01*
X95057234Y-44250046D01*
X95055722Y-44247732D01*
X95055719Y-44247729D01*
X95055715Y-44247723D01*
X94903243Y-44082097D01*
X94903238Y-44082092D01*
X94767775Y-43976656D01*
X94725576Y-43943811D01*
X94725575Y-43943810D01*
X94725572Y-43943808D01*
X94527580Y-43836661D01*
X94527577Y-43836659D01*
X94527574Y-43836658D01*
X94527571Y-43836657D01*
X94527569Y-43836656D01*
X94314637Y-43763556D01*
X94092569Y-43726500D01*
X93867431Y-43726500D01*
X93645362Y-43763556D01*
X93432430Y-43836656D01*
X93432419Y-43836661D01*
X93234427Y-43943808D01*
X93234422Y-43943812D01*
X93056761Y-44082092D01*
X93056756Y-44082097D01*
X92904284Y-44247723D01*
X92904276Y-44247734D01*
X92813808Y-44386206D01*
X92760662Y-44431562D01*
X92691431Y-44440986D01*
X92628095Y-44411484D01*
X92606192Y-44386206D01*
X92517234Y-44250046D01*
X92515722Y-44247732D01*
X92515719Y-44247729D01*
X92515715Y-44247723D01*
X92363243Y-44082097D01*
X92363238Y-44082092D01*
X92227775Y-43976656D01*
X92185576Y-43943811D01*
X92185575Y-43943810D01*
X92185572Y-43943808D01*
X91987580Y-43836661D01*
X91987577Y-43836659D01*
X91987574Y-43836658D01*
X91987571Y-43836657D01*
X91987569Y-43836656D01*
X91774637Y-43763556D01*
X91552569Y-43726500D01*
X91327431Y-43726500D01*
X91105362Y-43763556D01*
X90892430Y-43836656D01*
X90892419Y-43836661D01*
X90694427Y-43943808D01*
X90694422Y-43943812D01*
X90516761Y-44082092D01*
X90516756Y-44082097D01*
X90364284Y-44247723D01*
X90364276Y-44247734D01*
X90273808Y-44386206D01*
X90220662Y-44431562D01*
X90151431Y-44440986D01*
X90088095Y-44411484D01*
X90066192Y-44386206D01*
X89977234Y-44250046D01*
X89975722Y-44247732D01*
X89975719Y-44247729D01*
X89975715Y-44247723D01*
X89823243Y-44082097D01*
X89823238Y-44082092D01*
X89687775Y-43976656D01*
X89645576Y-43943811D01*
X89645575Y-43943810D01*
X89645572Y-43943808D01*
X89447580Y-43836661D01*
X89447577Y-43836659D01*
X89447574Y-43836658D01*
X89447571Y-43836657D01*
X89447569Y-43836656D01*
X89234637Y-43763556D01*
X89012569Y-43726500D01*
X88787431Y-43726500D01*
X88565362Y-43763556D01*
X88352430Y-43836656D01*
X88352419Y-43836661D01*
X88154427Y-43943808D01*
X88154422Y-43943812D01*
X87976761Y-44082092D01*
X87976756Y-44082097D01*
X87824284Y-44247723D01*
X87824276Y-44247734D01*
X87733808Y-44386206D01*
X87680662Y-44431562D01*
X87611431Y-44440986D01*
X87548095Y-44411484D01*
X87526192Y-44386206D01*
X87437234Y-44250046D01*
X87435722Y-44247732D01*
X87435719Y-44247729D01*
X87435715Y-44247723D01*
X87283243Y-44082097D01*
X87283238Y-44082092D01*
X87147775Y-43976656D01*
X87105576Y-43943811D01*
X87105575Y-43943810D01*
X87105572Y-43943808D01*
X86907580Y-43836661D01*
X86907577Y-43836659D01*
X86907574Y-43836658D01*
X86907571Y-43836657D01*
X86907569Y-43836656D01*
X86694637Y-43763556D01*
X86472569Y-43726500D01*
X86247431Y-43726500D01*
X86025362Y-43763556D01*
X85812430Y-43836656D01*
X85812419Y-43836661D01*
X85614427Y-43943808D01*
X85614422Y-43943812D01*
X85436761Y-44082092D01*
X85436756Y-44082097D01*
X85284284Y-44247723D01*
X85284276Y-44247734D01*
X85190251Y-44391650D01*
X85137105Y-44437007D01*
X85067873Y-44446430D01*
X85004538Y-44416928D01*
X84984868Y-44394951D01*
X84858113Y-44213926D01*
X84858108Y-44213920D01*
X84691082Y-44046894D01*
X84497578Y-43911399D01*
X84283492Y-43811570D01*
X84283486Y-43811567D01*
X84070000Y-43754364D01*
X84070000Y-44649498D01*
X83962315Y-44600320D01*
X83855763Y-44585000D01*
X83784237Y-44585000D01*
X83677685Y-44600320D01*
X83570000Y-44649498D01*
X83570000Y-43754364D01*
X83569999Y-43754364D01*
X83356513Y-43811567D01*
X83356507Y-43811570D01*
X83142422Y-43911399D01*
X83142420Y-43911400D01*
X82948926Y-44046886D01*
X82948920Y-44046891D01*
X82781891Y-44213920D01*
X82781886Y-44213926D01*
X82646400Y-44407420D01*
X82646399Y-44407422D01*
X82546570Y-44621507D01*
X82546567Y-44621513D01*
X82489364Y-44834999D01*
X82489364Y-44835000D01*
X83386314Y-44835000D01*
X83360507Y-44875156D01*
X83320000Y-45013111D01*
X83320000Y-45156889D01*
X83360507Y-45294844D01*
X83386314Y-45335000D01*
X82489364Y-45335000D01*
X76609041Y-45335000D01*
X76611166Y-45309359D01*
X76618156Y-45225005D01*
X76618156Y-45224994D01*
X76599565Y-45000640D01*
X76599563Y-45000628D01*
X76570981Y-44887760D01*
X76544296Y-44782384D01*
X76453860Y-44576209D01*
X76437706Y-44551484D01*
X76367258Y-44443655D01*
X76330722Y-44387732D01*
X76330719Y-44387729D01*
X76330715Y-44387723D01*
X76178243Y-44222097D01*
X76178238Y-44222092D01*
X76000577Y-44083812D01*
X76000572Y-44083808D01*
X75802580Y-43976661D01*
X75802577Y-43976659D01*
X75802574Y-43976658D01*
X75802571Y-43976657D01*
X75802569Y-43976656D01*
X75589637Y-43903556D01*
X75367569Y-43866500D01*
X75142431Y-43866500D01*
X74920362Y-43903556D01*
X74707430Y-43976656D01*
X74707419Y-43976661D01*
X74509427Y-44083808D01*
X74509422Y-44083812D01*
X74331761Y-44222092D01*
X74331756Y-44222097D01*
X74179284Y-44387723D01*
X74179276Y-44387734D01*
X74088808Y-44526206D01*
X74035662Y-44571562D01*
X73966431Y-44580986D01*
X73903095Y-44551484D01*
X73881192Y-44526206D01*
X73822392Y-44436207D01*
X73790722Y-44387732D01*
X73790719Y-44387729D01*
X73790715Y-44387723D01*
X73638243Y-44222097D01*
X73638238Y-44222092D01*
X73460577Y-44083812D01*
X73460572Y-44083808D01*
X73262580Y-43976661D01*
X73262577Y-43976659D01*
X73262574Y-43976658D01*
X73262571Y-43976657D01*
X73262569Y-43976656D01*
X73049637Y-43903556D01*
X72827569Y-43866500D01*
X72602431Y-43866500D01*
X72380362Y-43903556D01*
X72167430Y-43976656D01*
X72167419Y-43976661D01*
X71969427Y-44083808D01*
X71969422Y-44083812D01*
X71791761Y-44222092D01*
X71791756Y-44222097D01*
X71639284Y-44387723D01*
X71639276Y-44387734D01*
X71548808Y-44526206D01*
X71495662Y-44571562D01*
X71426431Y-44580986D01*
X71363095Y-44551484D01*
X71341192Y-44526206D01*
X71282392Y-44436207D01*
X71250722Y-44387732D01*
X71250719Y-44387729D01*
X71250715Y-44387723D01*
X71098243Y-44222097D01*
X71098238Y-44222092D01*
X70920577Y-44083812D01*
X70920572Y-44083808D01*
X70722580Y-43976661D01*
X70722577Y-43976659D01*
X70722574Y-43976658D01*
X70722571Y-43976657D01*
X70722569Y-43976656D01*
X70509637Y-43903556D01*
X70287569Y-43866500D01*
X70062431Y-43866500D01*
X69840362Y-43903556D01*
X69627430Y-43976656D01*
X69627419Y-43976661D01*
X69429427Y-44083808D01*
X69429422Y-44083812D01*
X69251761Y-44222092D01*
X69251756Y-44222097D01*
X69099284Y-44387723D01*
X69099276Y-44387734D01*
X69008808Y-44526206D01*
X68955662Y-44571562D01*
X68886431Y-44580986D01*
X68823095Y-44551484D01*
X68801192Y-44526206D01*
X68742392Y-44436207D01*
X68710722Y-44387732D01*
X68710719Y-44387729D01*
X68710715Y-44387723D01*
X68558243Y-44222097D01*
X68558238Y-44222092D01*
X68380577Y-44083812D01*
X68380572Y-44083808D01*
X68182580Y-43976661D01*
X68182577Y-43976659D01*
X68182574Y-43976658D01*
X68182571Y-43976657D01*
X68182569Y-43976656D01*
X67969637Y-43903556D01*
X67747569Y-43866500D01*
X67522431Y-43866500D01*
X67300362Y-43903556D01*
X67087430Y-43976656D01*
X67087419Y-43976661D01*
X66889427Y-44083808D01*
X66889415Y-44083816D01*
X66766455Y-44179521D01*
X66701461Y-44205164D01*
X66632922Y-44191598D01*
X66602612Y-44169349D01*
X65477188Y-43043925D01*
X65467262Y-43031535D01*
X65467055Y-43031707D01*
X65462082Y-43025696D01*
X65410836Y-42977573D01*
X65389627Y-42956363D01*
X65384022Y-42952015D01*
X65379576Y-42948218D01*
X65345039Y-42915785D01*
X65345031Y-42915780D01*
X65327070Y-42905906D01*
X65310804Y-42895222D01*
X65294594Y-42882648D01*
X65251101Y-42863827D01*
X65245853Y-42861256D01*
X65204335Y-42838432D01*
X65204334Y-42838431D01*
X65204333Y-42838431D01*
X65184467Y-42833330D01*
X65166068Y-42827030D01*
X65147239Y-42818883D01*
X65147238Y-42818882D01*
X65100432Y-42811469D01*
X65094711Y-42810284D01*
X65048813Y-42798500D01*
X65048812Y-42798500D01*
X65028304Y-42798500D01*
X65008906Y-42796973D01*
X64998299Y-42795293D01*
X64988652Y-42793765D01*
X64988651Y-42793764D01*
X64941469Y-42798225D01*
X64935631Y-42798500D01*
X59349851Y-42798500D01*
X59334076Y-42796758D01*
X59334051Y-42797026D01*
X59326283Y-42796291D01*
X59256029Y-42798500D01*
X59226014Y-42798500D01*
X59218976Y-42799388D01*
X59213159Y-42799846D01*
X59165800Y-42801335D01*
X59165789Y-42801337D01*
X59146098Y-42807057D01*
X59127056Y-42811000D01*
X59125127Y-42811244D01*
X59106703Y-42813572D01*
X59106696Y-42813574D01*
X59062631Y-42831020D01*
X59057106Y-42832911D01*
X59011607Y-42846132D01*
X58993950Y-42856573D01*
X58976488Y-42865127D01*
X58957415Y-42872679D01*
X58957406Y-42872684D01*
X58919066Y-42900539D01*
X58914184Y-42903746D01*
X58873402Y-42927864D01*
X58858898Y-42942368D01*
X58844108Y-42955000D01*
X58827515Y-42967055D01*
X58827512Y-42967058D01*
X58797301Y-43003576D01*
X58793368Y-43007897D01*
X58368378Y-43432889D01*
X57971086Y-43830181D01*
X57909763Y-43863666D01*
X57883405Y-43866500D01*
X56576345Y-43866500D01*
X56515797Y-43873011D01*
X56515795Y-43873011D01*
X56378795Y-43924111D01*
X56261739Y-44011739D01*
X56174111Y-44128795D01*
X56123011Y-44265795D01*
X56123011Y-44265797D01*
X56116500Y-44326345D01*
X56116500Y-46123654D01*
X56123011Y-46184202D01*
X56123011Y-46184204D01*
X56162752Y-46290749D01*
X56174111Y-46321204D01*
X56261739Y-46438261D01*
X56378796Y-46525889D01*
X56515799Y-46576989D01*
X56543050Y-46579918D01*
X56576345Y-46583499D01*
X56576362Y-46583500D01*
X58373638Y-46583500D01*
X58373654Y-46583499D01*
X58400692Y-46580591D01*
X58434201Y-46576989D01*
X58571204Y-46525889D01*
X58688261Y-46438261D01*
X58775889Y-46321204D01*
X58821138Y-46199887D01*
X58863009Y-46143956D01*
X58928474Y-46119539D01*
X58996746Y-46134391D01*
X59028545Y-46159236D01*
X59091760Y-46227906D01*
X59269424Y-46366189D01*
X59269425Y-46366189D01*
X59269427Y-46366191D01*
X59374121Y-46422848D01*
X59467426Y-46473342D01*
X59664567Y-46541020D01*
X59677906Y-46545600D01*
X59680365Y-46546444D01*
X59902431Y-46583500D01*
X60127569Y-46583500D01*
X60349635Y-46546444D01*
X60562574Y-46473342D01*
X60760576Y-46366189D01*
X60938240Y-46227906D01*
X61038000Y-46119539D01*
X61090715Y-46062276D01*
X61090715Y-46062275D01*
X61090722Y-46062268D01*
X61181193Y-45923790D01*
X61234338Y-45878437D01*
X61303569Y-45869013D01*
X61366905Y-45898515D01*
X61388804Y-45923787D01*
X61479278Y-46062268D01*
X61479283Y-46062273D01*
X61479284Y-46062276D01*
X61630179Y-46226189D01*
X61631760Y-46227906D01*
X61809424Y-46366189D01*
X61809425Y-46366189D01*
X61809427Y-46366191D01*
X61914121Y-46422848D01*
X62007426Y-46473342D01*
X62204567Y-46541020D01*
X62217906Y-46545600D01*
X62220365Y-46546444D01*
X62442431Y-46583500D01*
X62667569Y-46583500D01*
X62889635Y-46546444D01*
X63102574Y-46473342D01*
X63300576Y-46366189D01*
X63300580Y-46366185D01*
X63304869Y-46363384D01*
X63305694Y-46364647D01*
X63364319Y-46341511D01*
X63432861Y-46355071D01*
X63483190Y-46403534D01*
X63499500Y-46465006D01*
X63499500Y-53856916D01*
X63479815Y-53923955D01*
X63427011Y-53969710D01*
X63357853Y-53979654D01*
X63335237Y-53974197D01*
X63190637Y-53924556D01*
X62968569Y-53887500D01*
X62743431Y-53887500D01*
X62521362Y-53924556D01*
X62308430Y-53997656D01*
X62308419Y-53997661D01*
X62110427Y-54104808D01*
X62110422Y-54104812D01*
X61932761Y-54243092D01*
X61932756Y-54243097D01*
X61780284Y-54408723D01*
X61780276Y-54408734D01*
X61689808Y-54547206D01*
X61636662Y-54592562D01*
X61567431Y-54601986D01*
X61504095Y-54572484D01*
X61482192Y-54547206D01*
X61424286Y-54458576D01*
X61391722Y-54408732D01*
X61391719Y-54408729D01*
X61391715Y-54408723D01*
X61239243Y-54243097D01*
X61239238Y-54243092D01*
X61061577Y-54104812D01*
X61061572Y-54104808D01*
X60863580Y-53997661D01*
X60863577Y-53997659D01*
X60863574Y-53997658D01*
X60863571Y-53997657D01*
X60863569Y-53997656D01*
X60650637Y-53924556D01*
X60428569Y-53887500D01*
X60203431Y-53887500D01*
X59981362Y-53924556D01*
X59768430Y-53997656D01*
X59768419Y-53997661D01*
X59570427Y-54104808D01*
X59570422Y-54104812D01*
X59392761Y-54243092D01*
X59392756Y-54243097D01*
X59240284Y-54408723D01*
X59240276Y-54408734D01*
X59117140Y-54597207D01*
X59026703Y-54803385D01*
X58971436Y-55021628D01*
X58971434Y-55021640D01*
X58952844Y-55245994D01*
X58952844Y-55246005D01*
X58971435Y-55470364D01*
X58999461Y-55581036D01*
X58996836Y-55650856D01*
X58966936Y-55699157D01*
X58539179Y-56126914D01*
X58526820Y-56136818D01*
X58526993Y-56137027D01*
X58520983Y-56141999D01*
X58473016Y-56193078D01*
X58451872Y-56214222D01*
X58451857Y-56214239D01*
X58447531Y-56219814D01*
X58443747Y-56224244D01*
X58411419Y-56258671D01*
X58411412Y-56258681D01*
X58401579Y-56276567D01*
X58390903Y-56292820D01*
X58378386Y-56308957D01*
X58378385Y-56308959D01*
X58359625Y-56352310D01*
X58357055Y-56357556D01*
X58334303Y-56398941D01*
X58334303Y-56398942D01*
X58329225Y-56418720D01*
X58322925Y-56437122D01*
X58314818Y-56455857D01*
X58307431Y-56502495D01*
X58306246Y-56508216D01*
X58294500Y-56553965D01*
X58294500Y-56574384D01*
X58292973Y-56593783D01*
X58291276Y-56604500D01*
X58289780Y-56613943D01*
X58291693Y-56634185D01*
X58294225Y-56660966D01*
X58294500Y-56666804D01*
X58294500Y-64494808D01*
X58274815Y-64561847D01*
X58229518Y-64603862D01*
X58174967Y-64633383D01*
X58174952Y-64633393D01*
X57995524Y-64773047D01*
X57995514Y-64773057D01*
X57841507Y-64940354D01*
X57717137Y-65130718D01*
X57625797Y-65338952D01*
X57569975Y-65559389D01*
X57551198Y-65785994D01*
X57551198Y-65786005D01*
X57569975Y-66012610D01*
X57625797Y-66233047D01*
X57652533Y-66294000D01*
X57717139Y-66441285D01*
X57841510Y-66631649D01*
X57995517Y-66798946D01*
X57995521Y-66798949D01*
X57995524Y-66798952D01*
X58174952Y-66938606D01*
X58174967Y-66938616D01*
X58360506Y-67039025D01*
X58374945Y-67046839D01*
X58374948Y-67046840D01*
X58586350Y-67119414D01*
X58590015Y-67120672D01*
X58814305Y-67158100D01*
X58814306Y-67158100D01*
X59041694Y-67158100D01*
X59041695Y-67158100D01*
X59265985Y-67120672D01*
X59481055Y-67046839D01*
X59681039Y-66938612D01*
X59860483Y-66798946D01*
X60014490Y-66631649D01*
X60094191Y-66509656D01*
X60147337Y-66464300D01*
X60216568Y-66454876D01*
X60279904Y-66484378D01*
X60301809Y-66509657D01*
X60381505Y-66631643D01*
X60381507Y-66631645D01*
X60381510Y-66631649D01*
X60535517Y-66798946D01*
X60535521Y-66798949D01*
X60535524Y-66798952D01*
X60714952Y-66938606D01*
X60714967Y-66938616D01*
X60900506Y-67039025D01*
X60914945Y-67046839D01*
X60914948Y-67046840D01*
X61126350Y-67119414D01*
X61130015Y-67120672D01*
X61354305Y-67158100D01*
X61354306Y-67158100D01*
X61581694Y-67158100D01*
X61581695Y-67158100D01*
X61805985Y-67120672D01*
X61858837Y-67102527D01*
X61928635Y-67099378D01*
X61989056Y-67134464D01*
X62020917Y-67196646D01*
X62023100Y-67219809D01*
X62023100Y-68394962D01*
X62003415Y-68462001D01*
X61989494Y-68479842D01*
X61983501Y-68486224D01*
X61965782Y-68505094D01*
X61965781Y-68505096D01*
X61955900Y-68523068D01*
X61945225Y-68539319D01*
X61932652Y-68555529D01*
X61932649Y-68555533D01*
X61913827Y-68599028D01*
X61911257Y-68604274D01*
X61888430Y-68645797D01*
X61883329Y-68665664D01*
X61877030Y-68684062D01*
X61868884Y-68702887D01*
X61868881Y-68702896D01*
X61861469Y-68749698D01*
X61860284Y-68755420D01*
X61848500Y-68801311D01*
X61848500Y-68821825D01*
X61846973Y-68841224D01*
X61843765Y-68861477D01*
X61848225Y-68908659D01*
X61848500Y-68914497D01*
X61848500Y-70800406D01*
X61828815Y-70867445D01*
X61776011Y-70913200D01*
X61706853Y-70923144D01*
X61643297Y-70894119D01*
X61636819Y-70888087D01*
X61208488Y-70459756D01*
X61175003Y-70398433D01*
X61172951Y-70385974D01*
X61168217Y-70343953D01*
X61108043Y-70171985D01*
X61097105Y-70154578D01*
X61023243Y-70037027D01*
X61011111Y-70017719D01*
X60882281Y-69888889D01*
X60877855Y-69886108D01*
X60728017Y-69791958D01*
X60728016Y-69791957D01*
X60728015Y-69791957D01*
X60673693Y-69772949D01*
X60556046Y-69731782D01*
X60556041Y-69731781D01*
X60375004Y-69711384D01*
X60374996Y-69711384D01*
X60193958Y-69731781D01*
X60193953Y-69731782D01*
X60021982Y-69791958D01*
X59867718Y-69888889D01*
X59738889Y-70017718D01*
X59641958Y-70171982D01*
X59581782Y-70343953D01*
X59581782Y-70343957D01*
X59575134Y-70402955D01*
X59548067Y-70467368D01*
X59490472Y-70506923D01*
X59420635Y-70509060D01*
X59385941Y-70494063D01*
X59303017Y-70441958D01*
X59303019Y-70441958D01*
X59178630Y-70398433D01*
X59166317Y-70394124D01*
X59109542Y-70353403D01*
X59089071Y-70310331D01*
X59088517Y-70310526D01*
X59086710Y-70305363D01*
X59086381Y-70304670D01*
X59086218Y-70303956D01*
X59072879Y-70265834D01*
X59026043Y-70131985D01*
X58929111Y-69977719D01*
X58800281Y-69848889D01*
X58709676Y-69791958D01*
X58646017Y-69751958D01*
X58646016Y-69751957D01*
X58646015Y-69751957D01*
X58561197Y-69722278D01*
X58474046Y-69691782D01*
X58474041Y-69691781D01*
X58293004Y-69671384D01*
X58292996Y-69671384D01*
X58111958Y-69691781D01*
X58111953Y-69691782D01*
X57939982Y-69751958D01*
X57785718Y-69848889D01*
X57656889Y-69977718D01*
X57656884Y-69977724D01*
X57653296Y-69983435D01*
X57600958Y-70029721D01*
X57531904Y-70040364D01*
X57468057Y-70011984D01*
X57457082Y-70001441D01*
X57320483Y-69853054D01*
X57320478Y-69853050D01*
X57320475Y-69853047D01*
X57141047Y-69713393D01*
X57141032Y-69713383D01*
X56941065Y-69605166D01*
X56941051Y-69605159D01*
X56725987Y-69531328D01*
X56576458Y-69506376D01*
X56501695Y-69493900D01*
X56274305Y-69493900D01*
X56242230Y-69499252D01*
X56050015Y-69531327D01*
X55997162Y-69549472D01*
X55927363Y-69552621D01*
X55866942Y-69517534D01*
X55835082Y-69455351D01*
X55832900Y-69432190D01*
X55832900Y-56543700D01*
X55852585Y-56476661D01*
X55897884Y-56434645D01*
X55985566Y-56387195D01*
X55985572Y-56387191D01*
X55985576Y-56387189D01*
X56163240Y-56248906D01*
X56275543Y-56126914D01*
X56315715Y-56083276D01*
X56315717Y-56083273D01*
X56315722Y-56083268D01*
X56438860Y-55894791D01*
X56529296Y-55688616D01*
X56584564Y-55470368D01*
X56602327Y-55256005D01*
X56603156Y-55246005D01*
X56603156Y-55245994D01*
X56584565Y-55021640D01*
X56584563Y-55021628D01*
X56581876Y-55011018D01*
X56529296Y-54803384D01*
X56438860Y-54597209D01*
X56422706Y-54572484D01*
X56377291Y-54502970D01*
X56315722Y-54408732D01*
X56315719Y-54408729D01*
X56315715Y-54408723D01*
X56163243Y-54243097D01*
X56163238Y-54243092D01*
X55985577Y-54104812D01*
X55985572Y-54104808D01*
X55787580Y-53997661D01*
X55787577Y-53997659D01*
X55787574Y-53997658D01*
X55787571Y-53997657D01*
X55787569Y-53997656D01*
X55574637Y-53924556D01*
X55352569Y-53887500D01*
X55127431Y-53887500D01*
X54905362Y-53924556D01*
X54692430Y-53997656D01*
X54692419Y-53997661D01*
X54494427Y-54104808D01*
X54494422Y-54104812D01*
X54316761Y-54243092D01*
X54316756Y-54243097D01*
X54164284Y-54408723D01*
X54164276Y-54408734D01*
X54073808Y-54547206D01*
X54020662Y-54592562D01*
X53951431Y-54601986D01*
X53888095Y-54572484D01*
X53866192Y-54547206D01*
X53808286Y-54458576D01*
X53775722Y-54408732D01*
X53775719Y-54408729D01*
X53775715Y-54408723D01*
X53623243Y-54243097D01*
X53623238Y-54243092D01*
X53445577Y-54104812D01*
X53445572Y-54104808D01*
X53247580Y-53997661D01*
X53247577Y-53997659D01*
X53247574Y-53997658D01*
X53247571Y-53997657D01*
X53247569Y-53997656D01*
X53034637Y-53924556D01*
X52812569Y-53887500D01*
X52587431Y-53887500D01*
X52365362Y-53924556D01*
X52152430Y-53997656D01*
X52152419Y-53997661D01*
X51954427Y-54104808D01*
X51954422Y-54104812D01*
X51776761Y-54243092D01*
X51776756Y-54243097D01*
X51624284Y-54408723D01*
X51624276Y-54408734D01*
X51501140Y-54597207D01*
X51410703Y-54803385D01*
X51355436Y-55021628D01*
X51355434Y-55021640D01*
X51336844Y-55245994D01*
X51336844Y-55246005D01*
X51355435Y-55470366D01*
X51382889Y-55578781D01*
X51380263Y-55648601D01*
X51350364Y-55696901D01*
X51034921Y-56012344D01*
X51022531Y-56022272D01*
X51022702Y-56022479D01*
X51016696Y-56027447D01*
X50991878Y-56053875D01*
X50968573Y-56078693D01*
X50961503Y-56085763D01*
X50947365Y-56099900D01*
X50947363Y-56099902D01*
X50943008Y-56105516D01*
X50939218Y-56109953D01*
X50906782Y-56144494D01*
X50906781Y-56144496D01*
X50896900Y-56162468D01*
X50886225Y-56178719D01*
X50873652Y-56194929D01*
X50873649Y-56194933D01*
X50854827Y-56238428D01*
X50852257Y-56243674D01*
X50829430Y-56285197D01*
X50824329Y-56305064D01*
X50818030Y-56323462D01*
X50809884Y-56342287D01*
X50809881Y-56342296D01*
X50802469Y-56389098D01*
X50801284Y-56394820D01*
X50789500Y-56440711D01*
X50789500Y-56461225D01*
X50787973Y-56480624D01*
X50784947Y-56499733D01*
X50784765Y-56500879D01*
X50786634Y-56520646D01*
X50789225Y-56548059D01*
X50789500Y-56553897D01*
X50789500Y-72582914D01*
X50787758Y-72598690D01*
X50788026Y-72598716D01*
X50787292Y-72606481D01*
X50787292Y-72606482D01*
X50789071Y-72663091D01*
X50789500Y-72676748D01*
X50789500Y-72706746D01*
X50790387Y-72713776D01*
X50790845Y-72719595D01*
X50792334Y-72766966D01*
X50792335Y-72766970D01*
X50798057Y-72786668D01*
X50802000Y-72805709D01*
X50804571Y-72826051D01*
X50804574Y-72826066D01*
X50822016Y-72870122D01*
X50823907Y-72875646D01*
X50837130Y-72921154D01*
X50847570Y-72938807D01*
X50856128Y-72956277D01*
X50863679Y-72975348D01*
X50863682Y-72975354D01*
X50891542Y-73013699D01*
X50894749Y-73018582D01*
X50918866Y-73059361D01*
X50918870Y-73059365D01*
X50933364Y-73073859D01*
X50945996Y-73088648D01*
X50958058Y-73105250D01*
X50994575Y-73135459D01*
X50998886Y-73139381D01*
X52331028Y-74471524D01*
X52772450Y-74912946D01*
X52805935Y-74974269D01*
X52800951Y-75043961D01*
X52776003Y-75084605D01*
X52761512Y-75100347D01*
X52637137Y-75290718D01*
X52545797Y-75498952D01*
X52489975Y-75719389D01*
X52471198Y-75945994D01*
X52471198Y-75946005D01*
X52489975Y-76172610D01*
X52545797Y-76393047D01*
X52613765Y-76547999D01*
X52637139Y-76601285D01*
X52681809Y-76669657D01*
X52761499Y-76791633D01*
X52761510Y-76791649D01*
X52915517Y-76958946D01*
X52915521Y-76958949D01*
X52915524Y-76958952D01*
X53094952Y-77098606D01*
X53094963Y-77098613D01*
X53110360Y-77106946D01*
X53159950Y-77156166D01*
X53175057Y-77224383D01*
X53150886Y-77289938D01*
X53110360Y-77325054D01*
X53094963Y-77333386D01*
X53094952Y-77333393D01*
X52915524Y-77473047D01*
X52915514Y-77473057D01*
X52761507Y-77640354D01*
X52637137Y-77830718D01*
X52545797Y-78038952D01*
X52489975Y-78259389D01*
X52471198Y-78485994D01*
X52471198Y-78486005D01*
X52489975Y-78712610D01*
X52489975Y-78712613D01*
X52489976Y-78712614D01*
X52545797Y-78933047D01*
X52637139Y-79141285D01*
X52665293Y-79184378D01*
X52761499Y-79331633D01*
X52761510Y-79331649D01*
X52915517Y-79498946D01*
X52915521Y-79498949D01*
X52915524Y-79498952D01*
X53094952Y-79638606D01*
X53094963Y-79638613D01*
X53110360Y-79646946D01*
X53159950Y-79696166D01*
X53175057Y-79764383D01*
X53150886Y-79829938D01*
X53110360Y-79865054D01*
X53094963Y-79873386D01*
X53094952Y-79873393D01*
X52915524Y-80013047D01*
X52915514Y-80013057D01*
X52761507Y-80180354D01*
X52637137Y-80370718D01*
X52545797Y-80578952D01*
X52489975Y-80799389D01*
X52471198Y-81025994D01*
X52471198Y-81026005D01*
X52489975Y-81252610D01*
X52545797Y-81473047D01*
X52620481Y-81643310D01*
X52637139Y-81681285D01*
X52710656Y-81793811D01*
X52761499Y-81871633D01*
X52761510Y-81871649D01*
X52915517Y-82038946D01*
X52915521Y-82038949D01*
X52915524Y-82038952D01*
X53094952Y-82178606D01*
X53094963Y-82178613D01*
X53110360Y-82186946D01*
X53159950Y-82236166D01*
X53175057Y-82304383D01*
X53150886Y-82369938D01*
X53110360Y-82405054D01*
X53094963Y-82413386D01*
X53094952Y-82413393D01*
X52915524Y-82553047D01*
X52915514Y-82553057D01*
X52761507Y-82720354D01*
X52637137Y-82910718D01*
X52545797Y-83118952D01*
X52489975Y-83339389D01*
X52471198Y-83565994D01*
X52471198Y-83566005D01*
X52489975Y-83792610D01*
X52545797Y-84013047D01*
X52629995Y-84205000D01*
X52637139Y-84221285D01*
X52674805Y-84278937D01*
X52761499Y-84411633D01*
X52761510Y-84411649D01*
X52915517Y-84578946D01*
X52915521Y-84578949D01*
X52915524Y-84578952D01*
X53094952Y-84718606D01*
X53094963Y-84718613D01*
X53110360Y-84726946D01*
X53159950Y-84776166D01*
X53175057Y-84844383D01*
X53150886Y-84909938D01*
X53110360Y-84945054D01*
X53094963Y-84953386D01*
X53094952Y-84953393D01*
X52915524Y-85093047D01*
X52915514Y-85093057D01*
X52761507Y-85260354D01*
X52637137Y-85450718D01*
X52545797Y-85658952D01*
X52489975Y-85879389D01*
X52471198Y-86105994D01*
X52471198Y-86106005D01*
X52489975Y-86332610D01*
X52545797Y-86553047D01*
X52630654Y-86746502D01*
X52637139Y-86761285D01*
X52688346Y-86839663D01*
X52761499Y-86951633D01*
X52761510Y-86951649D01*
X52915517Y-87118946D01*
X52915521Y-87118949D01*
X52915524Y-87118952D01*
X53094952Y-87258606D01*
X53094963Y-87258613D01*
X53110360Y-87266946D01*
X53159950Y-87316166D01*
X53175057Y-87384383D01*
X53150886Y-87449938D01*
X53110360Y-87485054D01*
X53094963Y-87493386D01*
X53094952Y-87493393D01*
X52915524Y-87633047D01*
X52915514Y-87633057D01*
X52761507Y-87800354D01*
X52637137Y-87990718D01*
X52545797Y-88198952D01*
X52489975Y-88419389D01*
X52471198Y-88645994D01*
X52471198Y-88646005D01*
X52489975Y-88872610D01*
X52545797Y-89093047D01*
X52629995Y-89285000D01*
X52637139Y-89301285D01*
X52665293Y-89344378D01*
X52761499Y-89491633D01*
X52761510Y-89491649D01*
X52915517Y-89658946D01*
X52915521Y-89658949D01*
X52915524Y-89658952D01*
X53094952Y-89798606D01*
X53094963Y-89798613D01*
X53110360Y-89806946D01*
X53159950Y-89856166D01*
X53175057Y-89924383D01*
X53150886Y-89989938D01*
X53110360Y-90025054D01*
X53094963Y-90033386D01*
X53094952Y-90033393D01*
X52915524Y-90173047D01*
X52915514Y-90173057D01*
X52761507Y-90340354D01*
X52637137Y-90530718D01*
X52545797Y-90738952D01*
X52489975Y-90959389D01*
X52471198Y-91185994D01*
X52471198Y-91186005D01*
X52489975Y-91412610D01*
X52545797Y-91633047D01*
X52629995Y-91825000D01*
X52637139Y-91841285D01*
X52674805Y-91898937D01*
X52759345Y-92028336D01*
X52761510Y-92031649D01*
X52915517Y-92198946D01*
X52915521Y-92198949D01*
X52915524Y-92198952D01*
X53094952Y-92338606D01*
X53094963Y-92338613D01*
X53110360Y-92346946D01*
X53159950Y-92396166D01*
X53175057Y-92464383D01*
X53150886Y-92529938D01*
X53110360Y-92565054D01*
X53094963Y-92573386D01*
X53094952Y-92573393D01*
X52915524Y-92713047D01*
X52915514Y-92713057D01*
X52761507Y-92880354D01*
X52637137Y-93070718D01*
X52545797Y-93278952D01*
X52489975Y-93499389D01*
X52471198Y-93725994D01*
X52471198Y-93726005D01*
X52489975Y-93952610D01*
X52545797Y-94173047D01*
X52628556Y-94361719D01*
X52637139Y-94381285D01*
X52697619Y-94473857D01*
X52749577Y-94553385D01*
X52761510Y-94571649D01*
X52915517Y-94738946D01*
X52915521Y-94738949D01*
X52915524Y-94738952D01*
X53094952Y-94878606D01*
X53094963Y-94878613D01*
X53110360Y-94886946D01*
X53159950Y-94936166D01*
X53175057Y-95004383D01*
X53150886Y-95069938D01*
X53110360Y-95105054D01*
X53094963Y-95113386D01*
X53094952Y-95113393D01*
X52915524Y-95253047D01*
X52915514Y-95253057D01*
X52761507Y-95420354D01*
X52637137Y-95610718D01*
X52545797Y-95818952D01*
X52489975Y-96039389D01*
X52471198Y-96265994D01*
X52471198Y-96266005D01*
X52489975Y-96492610D01*
X52545797Y-96713047D01*
X52630754Y-96906730D01*
X52637139Y-96921285D01*
X52761510Y-97111649D01*
X52915517Y-97278946D01*
X52915521Y-97278949D01*
X52915524Y-97278952D01*
X53094952Y-97418606D01*
X53094963Y-97418613D01*
X53110360Y-97426946D01*
X53159950Y-97476166D01*
X53175057Y-97544383D01*
X53150886Y-97609938D01*
X53110360Y-97645054D01*
X53094963Y-97653386D01*
X53094952Y-97653393D01*
X52915524Y-97793047D01*
X52915514Y-97793057D01*
X52761507Y-97960354D01*
X52637137Y-98150718D01*
X52545797Y-98358952D01*
X52489975Y-98579389D01*
X52471198Y-98805994D01*
X52471198Y-98806005D01*
X52489975Y-99032610D01*
X52545797Y-99253047D01*
X52629481Y-99443828D01*
X52637139Y-99461285D01*
X52761510Y-99651649D01*
X52915517Y-99818946D01*
X52915521Y-99818949D01*
X52915524Y-99818952D01*
X53094952Y-99958606D01*
X53094963Y-99958613D01*
X53110360Y-99966946D01*
X53159950Y-100016166D01*
X53175057Y-100084383D01*
X53150886Y-100149938D01*
X53110360Y-100185054D01*
X53094963Y-100193386D01*
X53094952Y-100193393D01*
X52915524Y-100333047D01*
X52915514Y-100333057D01*
X52761507Y-100500354D01*
X52637137Y-100690718D01*
X52545797Y-100898952D01*
X52489975Y-101119389D01*
X52471198Y-101345994D01*
X52471198Y-101346005D01*
X52489975Y-101572610D01*
X52545797Y-101793047D01*
X52622497Y-101967906D01*
X52637139Y-102001285D01*
X52761510Y-102191649D01*
X52915517Y-102358946D01*
X52915521Y-102358949D01*
X52915524Y-102358952D01*
X53094952Y-102498606D01*
X53094963Y-102498613D01*
X53110360Y-102506946D01*
X53159950Y-102556166D01*
X53175057Y-102624383D01*
X53150886Y-102689938D01*
X53110360Y-102725054D01*
X53094963Y-102733386D01*
X53094952Y-102733393D01*
X52915524Y-102873047D01*
X52915514Y-102873057D01*
X52761507Y-103040354D01*
X52637137Y-103230718D01*
X52545797Y-103438952D01*
X52489975Y-103659389D01*
X52471198Y-103885994D01*
X52471198Y-103886005D01*
X52489975Y-104112610D01*
X52545797Y-104333047D01*
X52622497Y-104507906D01*
X52637139Y-104541285D01*
X52684599Y-104613928D01*
X52728145Y-104680581D01*
X52761510Y-104731649D01*
X52915517Y-104898946D01*
X52915521Y-104898949D01*
X52915524Y-104898952D01*
X53094952Y-105038606D01*
X53094963Y-105038613D01*
X53110360Y-105046946D01*
X53159950Y-105096166D01*
X53175057Y-105164383D01*
X53150886Y-105229938D01*
X53110360Y-105265054D01*
X53094963Y-105273386D01*
X53094952Y-105273393D01*
X52915524Y-105413047D01*
X52915514Y-105413057D01*
X52761507Y-105580354D01*
X52637137Y-105770718D01*
X52545797Y-105978952D01*
X52489975Y-106199389D01*
X52471198Y-106425994D01*
X52471198Y-106426005D01*
X52489975Y-106652610D01*
X52545797Y-106873047D01*
X52630875Y-107067006D01*
X52637139Y-107081285D01*
X52761510Y-107271649D01*
X52915517Y-107438946D01*
X52915521Y-107438949D01*
X52915524Y-107438952D01*
X53094952Y-107578606D01*
X53094963Y-107578613D01*
X53110360Y-107586946D01*
X53159950Y-107636166D01*
X53175057Y-107704383D01*
X53150886Y-107769938D01*
X53110360Y-107805054D01*
X53094963Y-107813386D01*
X53094952Y-107813393D01*
X52915524Y-107953047D01*
X52915514Y-107953057D01*
X52761507Y-108120354D01*
X52637137Y-108310718D01*
X52545797Y-108518952D01*
X52489975Y-108739389D01*
X52471198Y-108965994D01*
X52471198Y-108966005D01*
X52489975Y-109192610D01*
X52545797Y-109413047D01*
X52633049Y-109611962D01*
X52637139Y-109621285D01*
X52692924Y-109706670D01*
X52741556Y-109781108D01*
X52761510Y-109811649D01*
X52915517Y-109978946D01*
X52915521Y-109978949D01*
X52915524Y-109978952D01*
X53094952Y-110118606D01*
X53094963Y-110118613D01*
X53110360Y-110126946D01*
X53159950Y-110176166D01*
X53175057Y-110244383D01*
X53150886Y-110309938D01*
X53110360Y-110345054D01*
X53094963Y-110353386D01*
X53094952Y-110353393D01*
X52915524Y-110493047D01*
X52915514Y-110493057D01*
X52761507Y-110660354D01*
X52637137Y-110850718D01*
X52545797Y-111058952D01*
X52489975Y-111279389D01*
X52471198Y-111505994D01*
X52471198Y-111506005D01*
X52489975Y-111732610D01*
X52545797Y-111953047D01*
X52619644Y-112121402D01*
X52637139Y-112161285D01*
X52665293Y-112204378D01*
X52751018Y-112335591D01*
X52761510Y-112351649D01*
X52915517Y-112518946D01*
X52915521Y-112518949D01*
X52915524Y-112518952D01*
X53094952Y-112658606D01*
X53094967Y-112658616D01*
X53119288Y-112671778D01*
X53168878Y-112720997D01*
X53183986Y-112789214D01*
X53159815Y-112854769D01*
X53119290Y-112889885D01*
X53099632Y-112900523D01*
X53099623Y-112900529D01*
X52921296Y-113039327D01*
X52921284Y-113039338D01*
X52768240Y-113205587D01*
X52644639Y-113394774D01*
X52553864Y-113601721D01*
X52504666Y-113796000D01*
X53404804Y-113796000D01*
X53381155Y-113832799D01*
X53340000Y-113972961D01*
X53340000Y-114119039D01*
X53381155Y-114259201D01*
X53404804Y-114296000D01*
X52504666Y-114296000D01*
X52553864Y-114490278D01*
X52644639Y-114697225D01*
X52768240Y-114886412D01*
X52921284Y-115052661D01*
X52921296Y-115052672D01*
X53099623Y-115191470D01*
X53298369Y-115299027D01*
X53298375Y-115299029D01*
X53512106Y-115372403D01*
X53598000Y-115386736D01*
X53598000Y-114490297D01*
X53703408Y-114538435D01*
X53811666Y-114554000D01*
X53884334Y-114554000D01*
X53992592Y-114538435D01*
X54098000Y-114490297D01*
X54098000Y-115386735D01*
X54183893Y-115372403D01*
X54397624Y-115299029D01*
X54397630Y-115299027D01*
X54596376Y-115191470D01*
X54774703Y-115052672D01*
X54774715Y-115052661D01*
X54927759Y-114886412D01*
X55014191Y-114754118D01*
X55067337Y-114708761D01*
X55136569Y-114699337D01*
X55199904Y-114728839D01*
X55221809Y-114754118D01*
X55308240Y-114886412D01*
X55461284Y-115052661D01*
X55461296Y-115052672D01*
X55639623Y-115191470D01*
X55838369Y-115299027D01*
X55838375Y-115299029D01*
X56052106Y-115372403D01*
X56138000Y-115386736D01*
X56138000Y-114490297D01*
X56243408Y-114538435D01*
X56351666Y-114554000D01*
X56424334Y-114554000D01*
X56532592Y-114538435D01*
X56638000Y-114490297D01*
X56638000Y-115386735D01*
X56723893Y-115372403D01*
X56937624Y-115299029D01*
X56937630Y-115299027D01*
X57136376Y-115191470D01*
X57314703Y-115052672D01*
X57314715Y-115052661D01*
X57467759Y-114886412D01*
X57591360Y-114697225D01*
X57682135Y-114490278D01*
X57731334Y-114296000D01*
X56831196Y-114296000D01*
X56854845Y-114259201D01*
X56896000Y-114119039D01*
X56896000Y-113972961D01*
X56854845Y-113832799D01*
X56831196Y-113796000D01*
X57731334Y-113796000D01*
X57682135Y-113601721D01*
X57591360Y-113394774D01*
X57467759Y-113205587D01*
X57314715Y-113039338D01*
X57314703Y-113039327D01*
X57136376Y-112900529D01*
X57136367Y-112900523D01*
X57116711Y-112889886D01*
X57067120Y-112840667D01*
X57052013Y-112772450D01*
X57076184Y-112706894D01*
X57116713Y-112671777D01*
X57141032Y-112658616D01*
X57141033Y-112658614D01*
X57141039Y-112658612D01*
X57150835Y-112650988D01*
X57268014Y-112559784D01*
X57320483Y-112518946D01*
X57474490Y-112351649D01*
X57598861Y-112161285D01*
X57690203Y-111953047D01*
X57746024Y-111732614D01*
X57764802Y-111506000D01*
X57746024Y-111279386D01*
X57690203Y-111058953D01*
X57598861Y-110850715D01*
X57474490Y-110660351D01*
X57320483Y-110493054D01*
X57320478Y-110493050D01*
X57320475Y-110493047D01*
X57141047Y-110353393D01*
X57141037Y-110353386D01*
X57125641Y-110345055D01*
X57076050Y-110295836D01*
X57060941Y-110227620D01*
X57085112Y-110162064D01*
X57125641Y-110126945D01*
X57141039Y-110118612D01*
X57193497Y-110077783D01*
X57313693Y-109984231D01*
X57320483Y-109978946D01*
X57474490Y-109811649D01*
X57598861Y-109621285D01*
X57690203Y-109413047D01*
X57746024Y-109192614D01*
X57759421Y-109030943D01*
X57764802Y-108966005D01*
X57764802Y-108965994D01*
X57752283Y-108814924D01*
X57746024Y-108739386D01*
X57690203Y-108518953D01*
X57598861Y-108310715D01*
X57474490Y-108120351D01*
X57320483Y-107953054D01*
X57320478Y-107953050D01*
X57320475Y-107953047D01*
X57141047Y-107813393D01*
X57141037Y-107813386D01*
X57125641Y-107805055D01*
X57076050Y-107755836D01*
X57060941Y-107687620D01*
X57085112Y-107622064D01*
X57125641Y-107586945D01*
X57141037Y-107578613D01*
X57141036Y-107578613D01*
X57141039Y-107578612D01*
X57320483Y-107438946D01*
X57474490Y-107271649D01*
X57598861Y-107081285D01*
X57690203Y-106873047D01*
X57746024Y-106652614D01*
X57758212Y-106505533D01*
X57764802Y-106426005D01*
X57764802Y-106425994D01*
X57746024Y-106199389D01*
X57746024Y-106199386D01*
X57690203Y-105978953D01*
X57598861Y-105770715D01*
X57474490Y-105580351D01*
X57320483Y-105413054D01*
X57320478Y-105413050D01*
X57320475Y-105413047D01*
X57141047Y-105273393D01*
X57141037Y-105273386D01*
X57125641Y-105265055D01*
X57076050Y-105215836D01*
X57060941Y-105147620D01*
X57085112Y-105082064D01*
X57125641Y-105046945D01*
X57141037Y-105038613D01*
X57141036Y-105038613D01*
X57141039Y-105038612D01*
X57320483Y-104898946D01*
X57474490Y-104731649D01*
X57598861Y-104541285D01*
X57690203Y-104333047D01*
X57746024Y-104112614D01*
X57764802Y-103886000D01*
X57746024Y-103659386D01*
X57690203Y-103438953D01*
X57598861Y-103230715D01*
X57474490Y-103040351D01*
X57320483Y-102873054D01*
X57320478Y-102873050D01*
X57320475Y-102873047D01*
X57141047Y-102733393D01*
X57141037Y-102733386D01*
X57125641Y-102725055D01*
X57076050Y-102675836D01*
X57060941Y-102607620D01*
X57085112Y-102542064D01*
X57125641Y-102506945D01*
X57141039Y-102498612D01*
X57320483Y-102358946D01*
X57474490Y-102191649D01*
X57598861Y-102001285D01*
X57690203Y-101793047D01*
X57746024Y-101572614D01*
X57756597Y-101445015D01*
X57764802Y-101346005D01*
X57764802Y-101345994D01*
X57746024Y-101119389D01*
X57746024Y-101119386D01*
X57690203Y-100898953D01*
X57598861Y-100690715D01*
X57474490Y-100500351D01*
X57320483Y-100333054D01*
X57320478Y-100333050D01*
X57320475Y-100333047D01*
X57141047Y-100193393D01*
X57141037Y-100193386D01*
X57125641Y-100185055D01*
X57076050Y-100135836D01*
X57060941Y-100067620D01*
X57085112Y-100002064D01*
X57125641Y-99966945D01*
X57141037Y-99958613D01*
X57141036Y-99958613D01*
X57141039Y-99958612D01*
X57151963Y-99950110D01*
X57320475Y-99818952D01*
X57320483Y-99818946D01*
X57474490Y-99651649D01*
X57598861Y-99461285D01*
X57690203Y-99253047D01*
X57746024Y-99032614D01*
X57757583Y-98893115D01*
X57764802Y-98806005D01*
X57764802Y-98805994D01*
X57750312Y-98631133D01*
X57746024Y-98579386D01*
X57690203Y-98358953D01*
X57598861Y-98150715D01*
X57474490Y-97960351D01*
X57320483Y-97793054D01*
X57320478Y-97793050D01*
X57320475Y-97793047D01*
X57141047Y-97653393D01*
X57141037Y-97653386D01*
X57125641Y-97645055D01*
X57076050Y-97595836D01*
X57060941Y-97527620D01*
X57085112Y-97462064D01*
X57125641Y-97426945D01*
X57141037Y-97418613D01*
X57141036Y-97418613D01*
X57141039Y-97418612D01*
X57320483Y-97278946D01*
X57474490Y-97111649D01*
X57598861Y-96921285D01*
X57690203Y-96713047D01*
X57746024Y-96492614D01*
X57756485Y-96366370D01*
X57764802Y-96266005D01*
X57764802Y-96265994D01*
X57746024Y-96039389D01*
X57746024Y-96039386D01*
X57690203Y-95818953D01*
X57598861Y-95610715D01*
X57474490Y-95420351D01*
X57320483Y-95253054D01*
X57320478Y-95253050D01*
X57320475Y-95253047D01*
X57141047Y-95113393D01*
X57141037Y-95113386D01*
X57125641Y-95105055D01*
X57076050Y-95055836D01*
X57060941Y-94987620D01*
X57085112Y-94922064D01*
X57125641Y-94886945D01*
X57141037Y-94878613D01*
X57141036Y-94878613D01*
X57141039Y-94878612D01*
X57320483Y-94738946D01*
X57474490Y-94571649D01*
X57598861Y-94381285D01*
X57690203Y-94173047D01*
X57746024Y-93952614D01*
X57757262Y-93816998D01*
X57764802Y-93726005D01*
X57764802Y-93725994D01*
X57746024Y-93499389D01*
X57746024Y-93499386D01*
X57690203Y-93278953D01*
X57598861Y-93070715D01*
X57474490Y-92880351D01*
X57320483Y-92713054D01*
X57320478Y-92713050D01*
X57320475Y-92713047D01*
X57141047Y-92573393D01*
X57141037Y-92573386D01*
X57125641Y-92565055D01*
X57076050Y-92515836D01*
X57060941Y-92447620D01*
X57085112Y-92382064D01*
X57125641Y-92346945D01*
X57134605Y-92342094D01*
X57141039Y-92338612D01*
X57320483Y-92198946D01*
X57474490Y-92031649D01*
X57476655Y-92028336D01*
X57503987Y-91986500D01*
X57544553Y-91924408D01*
X57597698Y-91879053D01*
X57666929Y-91869629D01*
X57730265Y-91899130D01*
X57736042Y-91904550D01*
X60059581Y-94228089D01*
X60093066Y-94289412D01*
X60095900Y-94315770D01*
X60095900Y-95795766D01*
X60094161Y-95811513D01*
X60094432Y-95811539D01*
X60093698Y-95819305D01*
X60095900Y-95889357D01*
X60095900Y-95919259D01*
X60096784Y-95926256D01*
X60097242Y-95932079D01*
X60098726Y-95979289D01*
X60098727Y-95979291D01*
X60104422Y-95998895D01*
X60108367Y-96017942D01*
X60110926Y-96038197D01*
X60110927Y-96038200D01*
X60110928Y-96038203D01*
X60128314Y-96082116D01*
X60130206Y-96087644D01*
X60143381Y-96132992D01*
X60153772Y-96150562D01*
X60162332Y-96168035D01*
X60169847Y-96187017D01*
X60197609Y-96225227D01*
X60200816Y-96230110D01*
X60224858Y-96270762D01*
X60224862Y-96270766D01*
X60239289Y-96285193D01*
X60251927Y-96299989D01*
X60263928Y-96316507D01*
X60263930Y-96316509D01*
X60273348Y-96324300D01*
X60300331Y-96346622D01*
X60304631Y-96350535D01*
X60870500Y-96916404D01*
X61433181Y-97479085D01*
X61466666Y-97540408D01*
X61469500Y-97566766D01*
X61469500Y-100168415D01*
X61449815Y-100235454D01*
X61397011Y-100281209D01*
X61331617Y-100291635D01*
X61214004Y-100278384D01*
X61213996Y-100278384D01*
X61032958Y-100298781D01*
X61032953Y-100298782D01*
X60860982Y-100358958D01*
X60706718Y-100455889D01*
X60577889Y-100584718D01*
X60480958Y-100738982D01*
X60420782Y-100910953D01*
X60420781Y-100910958D01*
X60400384Y-101091996D01*
X60400384Y-101092003D01*
X60420781Y-101273041D01*
X60420782Y-101273046D01*
X60446308Y-101345994D01*
X60480957Y-101445015D01*
X60577889Y-101599281D01*
X60706719Y-101728111D01*
X60860985Y-101825043D01*
X60878454Y-101831155D01*
X60935229Y-101871875D01*
X60960978Y-101936827D01*
X60961500Y-101948197D01*
X60961500Y-124374970D01*
X60959761Y-124390717D01*
X60960032Y-124390743D01*
X60959298Y-124398509D01*
X60961500Y-124468561D01*
X60961500Y-124498463D01*
X60962384Y-124505460D01*
X60962842Y-124511283D01*
X60964326Y-124558493D01*
X60964327Y-124558495D01*
X60970022Y-124578099D01*
X60973967Y-124597146D01*
X60976526Y-124617401D01*
X60976527Y-124617404D01*
X60976528Y-124617407D01*
X60993914Y-124661320D01*
X60995806Y-124666848D01*
X61008981Y-124712196D01*
X61019372Y-124729766D01*
X61027932Y-124747239D01*
X61035447Y-124766221D01*
X61063209Y-124804431D01*
X61066416Y-124809314D01*
X61090458Y-124849966D01*
X61090462Y-124849970D01*
X61104889Y-124864397D01*
X61117526Y-124879192D01*
X61129528Y-124895711D01*
X61165931Y-124925826D01*
X61170231Y-124929739D01*
X61924455Y-125683963D01*
X62677263Y-126436771D01*
X62710748Y-126498094D01*
X62707086Y-126557879D01*
X62708332Y-126558164D01*
X62706782Y-126564954D01*
X62686384Y-126745996D01*
X62686384Y-126746003D01*
X62706781Y-126927041D01*
X62706782Y-126927046D01*
X62743234Y-127031218D01*
X62766733Y-127098376D01*
X62766958Y-127099017D01*
X62804556Y-127158854D01*
X62863889Y-127253281D01*
X62992719Y-127382111D01*
X63146985Y-127479043D01*
X63318953Y-127539217D01*
X63318958Y-127539218D01*
X63499996Y-127559616D01*
X63500000Y-127559616D01*
X63500004Y-127559616D01*
X63681041Y-127539218D01*
X63681044Y-127539217D01*
X63681047Y-127539217D01*
X63853015Y-127479043D01*
X64007281Y-127382111D01*
X64136111Y-127253281D01*
X64233043Y-127099015D01*
X64293217Y-126927047D01*
X64294938Y-126911777D01*
X64313616Y-126746003D01*
X64313616Y-126745996D01*
X64293218Y-126564958D01*
X64293217Y-126564953D01*
X64285135Y-126541857D01*
X64233043Y-126392985D01*
X64136111Y-126238719D01*
X64136110Y-126238718D01*
X64132406Y-126232823D01*
X64133253Y-126232290D01*
X64120939Y-126211033D01*
X64118474Y-126204807D01*
X64101088Y-126160896D01*
X64099196Y-126155370D01*
X64086018Y-126110011D01*
X64085068Y-126108404D01*
X64075625Y-126092438D01*
X64067066Y-126074966D01*
X64059552Y-126055987D01*
X64031794Y-126017783D01*
X64028587Y-126012900D01*
X64016465Y-125992404D01*
X64004542Y-125972242D01*
X63990108Y-125957808D01*
X63977471Y-125943013D01*
X63965472Y-125926497D01*
X63965470Y-125926494D01*
X63929073Y-125896385D01*
X63924751Y-125892451D01*
X62264819Y-124232518D01*
X62231334Y-124171195D01*
X62228500Y-124144837D01*
X62228500Y-124129766D01*
X62248185Y-124062727D01*
X62300989Y-124016972D01*
X62370147Y-124007028D01*
X62433703Y-124036053D01*
X62440181Y-124042085D01*
X64526781Y-126128685D01*
X64560266Y-126190008D01*
X64563100Y-126216366D01*
X64563100Y-131437500D01*
X64543415Y-131504539D01*
X64490611Y-131550294D01*
X64439100Y-131561500D01*
X64048845Y-131561500D01*
X63988297Y-131568011D01*
X63988295Y-131568011D01*
X63851295Y-131619111D01*
X63734239Y-131706739D01*
X63646611Y-131823795D01*
X63595511Y-131960795D01*
X63595511Y-131960797D01*
X63589000Y-132021345D01*
X63589000Y-140196500D01*
X63569315Y-140263539D01*
X63516511Y-140309294D01*
X63465000Y-140320500D01*
X63460000Y-140320500D01*
X63392961Y-140300815D01*
X63347206Y-140248011D01*
X63336000Y-140196500D01*
X63336000Y-132021362D01*
X63335999Y-132021345D01*
X63332657Y-131990270D01*
X63329489Y-131960799D01*
X63278389Y-131823796D01*
X63190761Y-131706739D01*
X63073704Y-131619111D01*
X62936703Y-131568011D01*
X62876154Y-131561500D01*
X62876138Y-131561500D01*
X62632500Y-131561500D01*
X62565461Y-131541815D01*
X62519706Y-131489011D01*
X62508500Y-131437500D01*
X62508500Y-129496626D01*
X62510238Y-129480881D01*
X62509967Y-129480856D01*
X62510701Y-129473093D01*
X62508500Y-129403059D01*
X62508500Y-129373150D01*
X62508500Y-129373144D01*
X62507615Y-129366140D01*
X62507156Y-129360311D01*
X62507064Y-129357397D01*
X62505673Y-129313110D01*
X62499977Y-129293508D01*
X62496032Y-129274457D01*
X62493474Y-129254203D01*
X62476088Y-129210291D01*
X62474196Y-129204764D01*
X62468775Y-129186107D01*
X62461018Y-129159406D01*
X62450625Y-129141833D01*
X62442063Y-129124355D01*
X62438155Y-129114485D01*
X62434552Y-129105383D01*
X62434550Y-129105380D01*
X62434549Y-129105378D01*
X62406794Y-129067177D01*
X62403586Y-129062293D01*
X62395633Y-129048847D01*
X62379542Y-129021637D01*
X62365108Y-129007203D01*
X62352469Y-128992406D01*
X62340472Y-128975893D01*
X62304084Y-128945790D01*
X62299762Y-128941857D01*
X45754819Y-112396914D01*
X45721334Y-112335591D01*
X45718500Y-112309233D01*
X45718500Y-52637766D01*
X45738185Y-52570727D01*
X45754819Y-52550085D01*
X53181134Y-45123770D01*
X53402057Y-44902845D01*
X53463376Y-44869363D01*
X53475836Y-44867310D01*
X53521047Y-44862217D01*
X53693015Y-44802043D01*
X53847281Y-44705111D01*
X53976111Y-44576281D01*
X54073043Y-44422015D01*
X54133217Y-44250047D01*
X54133479Y-44247723D01*
X54153616Y-44069003D01*
X54153616Y-44068996D01*
X54133218Y-43887958D01*
X54133216Y-43887950D01*
X54073044Y-43715988D01*
X54073043Y-43715985D01*
X54047138Y-43674758D01*
X54039490Y-43659057D01*
X54039481Y-43659062D01*
X54035938Y-43652109D01*
X54025318Y-43636483D01*
X53995755Y-43592982D01*
X53976111Y-43561719D01*
X53976110Y-43561718D01*
X53971774Y-43556281D01*
X53972018Y-43556085D01*
X53964520Y-43547022D01*
X53945973Y-43519730D01*
X53825905Y-43413875D01*
X53797233Y-43399267D01*
X53781405Y-43391202D01*
X53776583Y-43388466D01*
X53693015Y-43335957D01*
X53521046Y-43275782D01*
X53521041Y-43275781D01*
X53340004Y-43255384D01*
X53339996Y-43255384D01*
X53158958Y-43275781D01*
X53158953Y-43275782D01*
X52986982Y-43335958D01*
X52832718Y-43432889D01*
X52703889Y-43561718D01*
X52606957Y-43715983D01*
X52546783Y-43887953D01*
X52541690Y-43933148D01*
X52514621Y-43997561D01*
X52506151Y-44006942D01*
X52296196Y-44216898D01*
X44805181Y-51707913D01*
X44743858Y-51741398D01*
X44674166Y-51736414D01*
X44618233Y-51694542D01*
X44593816Y-51629078D01*
X44593500Y-51620232D01*
X44593500Y-43348037D01*
X44593633Y-43343981D01*
X44610126Y-43092329D01*
X44611183Y-43084294D01*
X44659985Y-42838950D01*
X44662086Y-42831111D01*
X44662117Y-42831020D01*
X44742498Y-42594225D01*
X44745590Y-42586761D01*
X44856239Y-42362386D01*
X44860293Y-42355368D01*
X44881189Y-42324094D01*
X44999272Y-42147370D01*
X45004193Y-42140957D01*
X45169144Y-41952866D01*
X45174866Y-41947144D01*
X45362957Y-41782193D01*
X45369370Y-41777272D01*
X45577368Y-41638293D01*
X45584386Y-41634239D01*
X45808761Y-41523590D01*
X45816225Y-41520498D01*
X46053114Y-41440085D01*
X46060950Y-41437985D01*
X46306294Y-41389183D01*
X46314323Y-41388126D01*
X46396233Y-41382758D01*
X46565982Y-41371633D01*
X46570038Y-41371500D01*
X46576285Y-41371500D01*
X156559715Y-41371500D01*
X156565962Y-41371500D01*
X156570018Y-41371633D01*
G37*
G04 #@! TD.AperFunction*
G04 #@! TA.AperFunction,Conductor*
G36*
X106675303Y-118876698D02*
G01*
X106681781Y-118882730D01*
X112030181Y-124231130D01*
X112063666Y-124292453D01*
X112066500Y-124318811D01*
X112066500Y-131437500D01*
X112046815Y-131504539D01*
X111994011Y-131550294D01*
X111942500Y-131561500D01*
X111673845Y-131561500D01*
X111613297Y-131568011D01*
X111613295Y-131568011D01*
X111476295Y-131619111D01*
X111359239Y-131706739D01*
X111271611Y-131823795D01*
X111227926Y-131940915D01*
X111186054Y-131996848D01*
X111120589Y-132021264D01*
X111052316Y-132006411D01*
X111002912Y-131957005D01*
X110987746Y-131898179D01*
X110982500Y-130806456D01*
X110982500Y-129987203D01*
X110982500Y-129687062D01*
X110985804Y-129658627D01*
X110990408Y-129639085D01*
X110996229Y-129614377D01*
X111013328Y-129371421D01*
X110991231Y-129128868D01*
X110936835Y-128917562D01*
X110909523Y-128806752D01*
X110883407Y-128745457D01*
X110881870Y-128741467D01*
X110860124Y-128678493D01*
X110836243Y-128634109D01*
X110833808Y-128629043D01*
X110814056Y-128582684D01*
X110814052Y-128582676D01*
X110785811Y-128538019D01*
X110778461Y-128526395D01*
X110776288Y-128522677D01*
X110744723Y-128464010D01*
X110714033Y-128424034D01*
X110710810Y-128419415D01*
X110683883Y-128376832D01*
X110639718Y-128326980D01*
X110636956Y-128323631D01*
X110602669Y-128278969D01*
X110596411Y-128270817D01*
X110559701Y-128236277D01*
X110555803Y-128232259D01*
X110522375Y-128194526D01*
X110470778Y-128152398D01*
X110467513Y-128149535D01*
X110419029Y-128103916D01*
X110377272Y-128075723D01*
X110372752Y-128072363D01*
X110333713Y-128040489D01*
X110276056Y-128007201D01*
X110272361Y-128004891D01*
X110217179Y-127967633D01*
X110171420Y-127946494D01*
X110166424Y-127943904D01*
X110122787Y-127918711D01*
X110100462Y-127910244D01*
X110060524Y-127895097D01*
X110056508Y-127893411D01*
X110049362Y-127890110D01*
X110007863Y-127870939D01*
X109996068Y-127865490D01*
X109996065Y-127865489D01*
X109947526Y-127851969D01*
X109942175Y-127850213D01*
X109895070Y-127832348D01*
X109895057Y-127832344D01*
X109829807Y-127819022D01*
X109825573Y-127818001D01*
X109761443Y-127800139D01*
X109761435Y-127800138D01*
X109711355Y-127794579D01*
X109705791Y-127793704D01*
X109656428Y-127783627D01*
X109656415Y-127783625D01*
X109605283Y-127781565D01*
X109589881Y-127780944D01*
X109585553Y-127780617D01*
X109519369Y-127773272D01*
X109469033Y-127775818D01*
X109463402Y-127775847D01*
X109413068Y-127773818D01*
X109413064Y-127773818D01*
X109346950Y-127781846D01*
X109342611Y-127782218D01*
X109276132Y-127785582D01*
X109276122Y-127785584D01*
X109226854Y-127796170D01*
X109221302Y-127797102D01*
X109171288Y-127803175D01*
X109171269Y-127803179D01*
X109107328Y-127821699D01*
X109103107Y-127822762D01*
X109058507Y-127832348D01*
X109038001Y-127836755D01*
X109037998Y-127836756D01*
X109037995Y-127836756D01*
X108991066Y-127855109D01*
X108985735Y-127856919D01*
X108937340Y-127870937D01*
X108877173Y-127899486D01*
X108873188Y-127901208D01*
X108850893Y-127909927D01*
X108811173Y-127925461D01*
X108811171Y-127925462D01*
X108767802Y-127951099D01*
X108762831Y-127953741D01*
X108717296Y-127975349D01*
X108717293Y-127975351D01*
X108662494Y-128013176D01*
X108658825Y-128015522D01*
X108601513Y-128049403D01*
X108601507Y-128049407D01*
X108562807Y-128081674D01*
X108558324Y-128085078D01*
X108516851Y-128113707D01*
X108468836Y-128159825D01*
X108465592Y-128162728D01*
X108414451Y-128205369D01*
X108414442Y-128205378D01*
X108381418Y-128243438D01*
X108377537Y-128247520D01*
X108341201Y-128282421D01*
X108301199Y-128335652D01*
X108298462Y-128339039D01*
X108254823Y-128389333D01*
X108254821Y-128389335D01*
X108228327Y-128432201D01*
X108225153Y-128436850D01*
X108194889Y-128477125D01*
X108194883Y-128477135D01*
X108163938Y-128536092D01*
X108161781Y-128539874D01*
X108126775Y-128596515D01*
X108126773Y-128596517D01*
X108107499Y-128643079D01*
X108105111Y-128648178D01*
X108081699Y-128692787D01*
X108081693Y-128692802D01*
X108060607Y-128755958D01*
X108059084Y-128760037D01*
X108033619Y-128821557D01*
X108033616Y-128821567D01*
X108022063Y-128870608D01*
X108020524Y-128876025D01*
X108004570Y-128923812D01*
X108004570Y-128923815D01*
X108004569Y-128923818D01*
X108001797Y-128940868D01*
X107993884Y-128989551D01*
X107993036Y-128993821D01*
X107977771Y-129058623D01*
X107974232Y-129108892D01*
X107973582Y-129114485D01*
X107965500Y-129164216D01*
X107965500Y-129230798D01*
X107965347Y-129235152D01*
X107961240Y-129293514D01*
X107960672Y-129301579D01*
X107961723Y-129313110D01*
X107965244Y-129351770D01*
X107965500Y-129357397D01*
X107965500Y-130685630D01*
X107965322Y-130690322D01*
X107964931Y-130695466D01*
X107965500Y-130813657D01*
X107965500Y-130870794D01*
X107965501Y-130870818D01*
X107965604Y-130872109D01*
X107965801Y-130876760D01*
X107970281Y-131808775D01*
X107950918Y-131875908D01*
X107898335Y-131921917D01*
X107829225Y-131932192D01*
X107765531Y-131903473D01*
X107730099Y-131852702D01*
X107720853Y-131827911D01*
X107720850Y-131827906D01*
X107634690Y-131712812D01*
X107634687Y-131712809D01*
X107519593Y-131626649D01*
X107519586Y-131626645D01*
X107384879Y-131576403D01*
X107384872Y-131576401D01*
X107325344Y-131570000D01*
X106575000Y-131570000D01*
X106575000Y-136346000D01*
X106555315Y-136413039D01*
X106502511Y-136458794D01*
X106451000Y-136470000D01*
X104872500Y-136470000D01*
X104872500Y-140196500D01*
X104852815Y-140263539D01*
X104800011Y-140309294D01*
X104748500Y-140320500D01*
X104657500Y-140320500D01*
X104590461Y-140300815D01*
X104544706Y-140248011D01*
X104533500Y-140196500D01*
X104533500Y-135970000D01*
X104872500Y-135970000D01*
X106075000Y-135970000D01*
X106075000Y-131570000D01*
X105324655Y-131570000D01*
X105265127Y-131576401D01*
X105265120Y-131576403D01*
X105130413Y-131626645D01*
X105130406Y-131626649D01*
X105015312Y-131712809D01*
X105015309Y-131712812D01*
X104929149Y-131827906D01*
X104929145Y-131827913D01*
X104878903Y-131962620D01*
X104878901Y-131962627D01*
X104872500Y-132022155D01*
X104872500Y-135970000D01*
X104533500Y-135970000D01*
X104533500Y-132021362D01*
X104533499Y-132021345D01*
X104530157Y-131990270D01*
X104526989Y-131960799D01*
X104475889Y-131823796D01*
X104388261Y-131706739D01*
X104271204Y-131619111D01*
X104134203Y-131568011D01*
X104073654Y-131561500D01*
X104073638Y-131561500D01*
X104032500Y-131561500D01*
X103965461Y-131541815D01*
X103919706Y-131489011D01*
X103908500Y-131437500D01*
X103908500Y-129886951D01*
X103909031Y-129878850D01*
X103913751Y-129843000D01*
X103913751Y-129842998D01*
X103895830Y-129706879D01*
X103892838Y-129684149D01*
X103831524Y-129536124D01*
X103801216Y-129496626D01*
X103758124Y-129440466D01*
X103732930Y-129375297D01*
X103732500Y-129364980D01*
X103732500Y-127800415D01*
X103752185Y-127733376D01*
X103804989Y-127687621D01*
X103842617Y-127677195D01*
X103940041Y-127666218D01*
X103940044Y-127666217D01*
X103940047Y-127666217D01*
X104112015Y-127606043D01*
X104266281Y-127509111D01*
X104395111Y-127380281D01*
X104492043Y-127226015D01*
X104552217Y-127054047D01*
X104557309Y-127008850D01*
X104584374Y-126944440D01*
X104592838Y-126935065D01*
X106225417Y-125302486D01*
X106237778Y-125292585D01*
X106237604Y-125292375D01*
X106243613Y-125287402D01*
X106243618Y-125287400D01*
X106291584Y-125236320D01*
X106312735Y-125215170D01*
X106317061Y-125209592D01*
X106320850Y-125205155D01*
X106353186Y-125170721D01*
X106363019Y-125152832D01*
X106373702Y-125136569D01*
X106386214Y-125120441D01*
X106404971Y-125077091D01*
X106407541Y-125071847D01*
X106430293Y-125030464D01*
X106430293Y-125030463D01*
X106430295Y-125030460D01*
X106435374Y-125010673D01*
X106441670Y-124992285D01*
X106449781Y-124973545D01*
X106457169Y-124926897D01*
X106458351Y-124921186D01*
X106470100Y-124875430D01*
X106470100Y-124855015D01*
X106471627Y-124835614D01*
X106473594Y-124823195D01*
X106474820Y-124815457D01*
X106470375Y-124768433D01*
X106470100Y-124762595D01*
X106470100Y-118970411D01*
X106489785Y-118903372D01*
X106542589Y-118857617D01*
X106611747Y-118847673D01*
X106675303Y-118876698D01*
G37*
G04 #@! TD.AperFunction*
G04 #@! TA.AperFunction,Conductor*
G36*
X55921155Y-113832799D02*
G01*
X55880000Y-113972961D01*
X55880000Y-114119039D01*
X55921155Y-114259201D01*
X55944804Y-114296000D01*
X54291196Y-114296000D01*
X54314845Y-114259201D01*
X54356000Y-114119039D01*
X54356000Y-113972961D01*
X54314845Y-113832799D01*
X54291196Y-113796000D01*
X55944804Y-113796000D01*
X55921155Y-113832799D01*
G37*
G04 #@! TD.AperFunction*
G04 #@! TA.AperFunction,Conductor*
G36*
X112518000Y-67126735D02*
G01*
X112603893Y-67112403D01*
X112817637Y-67039025D01*
X112887436Y-67035875D01*
X112947857Y-67070961D01*
X112979718Y-67133144D01*
X112981900Y-67156306D01*
X112981900Y-76853595D01*
X112962215Y-76920634D01*
X112909411Y-76966389D01*
X112840253Y-76976333D01*
X112816946Y-76970637D01*
X112703049Y-76930783D01*
X112703041Y-76930781D01*
X112522004Y-76910384D01*
X112521996Y-76910384D01*
X112340958Y-76930781D01*
X112340953Y-76930782D01*
X112168982Y-76990958D01*
X112014718Y-77087889D01*
X111926181Y-77176427D01*
X111864858Y-77209912D01*
X111795166Y-77204928D01*
X111739233Y-77163056D01*
X111714816Y-77097592D01*
X111714500Y-77088746D01*
X111714500Y-67393851D01*
X111716242Y-67378069D01*
X111715975Y-67378044D01*
X111716707Y-67370288D01*
X111716709Y-67370281D01*
X111714500Y-67299996D01*
X111714500Y-67270017D01*
X111713611Y-67262984D01*
X111713153Y-67257166D01*
X111712900Y-67249089D01*
X111712900Y-67210822D01*
X111732585Y-67143783D01*
X111785389Y-67098028D01*
X111854547Y-67088084D01*
X111877164Y-67093541D01*
X111932108Y-67112404D01*
X112018000Y-67126736D01*
X112018000Y-66230297D01*
X112123408Y-66278435D01*
X112231666Y-66294000D01*
X112304334Y-66294000D01*
X112412592Y-66278435D01*
X112518000Y-66230297D01*
X112518000Y-67126735D01*
G37*
G04 #@! TD.AperFunction*
G04 #@! TA.AperFunction,Conductor*
G36*
X106865392Y-59663237D02*
G01*
X106911147Y-59716041D01*
X106921091Y-59785199D01*
X106892066Y-59848755D01*
X106886034Y-59855233D01*
X105448521Y-61292744D01*
X105436131Y-61302672D01*
X105436302Y-61302879D01*
X105430296Y-61307847D01*
X105405478Y-61334275D01*
X105382173Y-61359093D01*
X105375103Y-61366163D01*
X105360965Y-61380300D01*
X105360963Y-61380302D01*
X105356608Y-61385916D01*
X105352818Y-61390353D01*
X105320382Y-61424894D01*
X105320381Y-61424896D01*
X105310500Y-61442868D01*
X105299825Y-61459119D01*
X105287252Y-61475329D01*
X105287249Y-61475333D01*
X105268427Y-61518828D01*
X105265857Y-61524074D01*
X105243030Y-61565597D01*
X105237929Y-61585464D01*
X105231630Y-61603862D01*
X105223484Y-61622687D01*
X105223481Y-61622696D01*
X105216069Y-61669498D01*
X105214884Y-61675220D01*
X105203100Y-61721111D01*
X105203100Y-61741625D01*
X105201573Y-61761024D01*
X105198365Y-61781277D01*
X105202825Y-61828459D01*
X105203100Y-61834297D01*
X105203100Y-64361177D01*
X105183415Y-64428216D01*
X105130611Y-64473971D01*
X105061453Y-64483915D01*
X105038838Y-64478459D01*
X104983890Y-64459595D01*
X104898000Y-64445263D01*
X104898000Y-65341702D01*
X104792592Y-65293565D01*
X104684334Y-65278000D01*
X104611666Y-65278000D01*
X104503408Y-65293565D01*
X104398000Y-65341702D01*
X104398000Y-64445263D01*
X104397999Y-64445263D01*
X104312109Y-64459595D01*
X104257162Y-64478459D01*
X104187363Y-64481608D01*
X104126942Y-64446521D01*
X104095082Y-64384338D01*
X104092900Y-64361177D01*
X104092900Y-61703194D01*
X104112585Y-61636155D01*
X104129219Y-61615513D01*
X106064861Y-59679871D01*
X106126184Y-59646386D01*
X106152542Y-59643552D01*
X106798353Y-59643552D01*
X106865392Y-59663237D01*
G37*
G04 #@! TD.AperFunction*
G04 #@! TA.AperFunction,Conductor*
G36*
X114238444Y-61307185D02*
G01*
X114284199Y-61359989D01*
X114294143Y-61429147D01*
X114265118Y-61492703D01*
X114259086Y-61499181D01*
X113227321Y-62530944D01*
X113214931Y-62540872D01*
X113215102Y-62541079D01*
X113209096Y-62546047D01*
X113187372Y-62569181D01*
X113160973Y-62597293D01*
X113153903Y-62604363D01*
X113139765Y-62618500D01*
X113139763Y-62618502D01*
X113135408Y-62624116D01*
X113131618Y-62628553D01*
X113099182Y-62663094D01*
X113099181Y-62663096D01*
X113089300Y-62681068D01*
X113078625Y-62697319D01*
X113066052Y-62713529D01*
X113066049Y-62713533D01*
X113047227Y-62757028D01*
X113044657Y-62762274D01*
X113021830Y-62803797D01*
X113016729Y-62823664D01*
X113010430Y-62842062D01*
X113002284Y-62860887D01*
X113002281Y-62860896D01*
X112994869Y-62907698D01*
X112993684Y-62913420D01*
X112981900Y-62959311D01*
X112981900Y-62979825D01*
X112980373Y-62999224D01*
X112977165Y-63019477D01*
X112981625Y-63066659D01*
X112981900Y-63072497D01*
X112981900Y-64415693D01*
X112962215Y-64482732D01*
X112909411Y-64528487D01*
X112840253Y-64538431D01*
X112817637Y-64532974D01*
X112603893Y-64459596D01*
X112518000Y-64445263D01*
X112518000Y-65341702D01*
X112412592Y-65293565D01*
X112304334Y-65278000D01*
X112231666Y-65278000D01*
X112123408Y-65293565D01*
X112018000Y-65341702D01*
X112018000Y-64445263D01*
X112017999Y-64445263D01*
X111932109Y-64459595D01*
X111877162Y-64478459D01*
X111807363Y-64481608D01*
X111746942Y-64446521D01*
X111715082Y-64384338D01*
X111712900Y-64361177D01*
X111712900Y-61776194D01*
X111732585Y-61709155D01*
X111749219Y-61688513D01*
X112113913Y-61323819D01*
X112175236Y-61290334D01*
X112201594Y-61287500D01*
X114171405Y-61287500D01*
X114238444Y-61307185D01*
G37*
G04 #@! TD.AperFunction*
M02*
