M48
; DRILL file {KiCad 7.0.9} date Wed Apr  3 05:00:40 2024
; FORMAT={-:-/ absolute / inch / decimal}
; #@! TF.CreationDate,2024-04-03T05:00:40-05:00
; #@! TF.GenerationSoftware,Kicad,Pcbnew,7.0.9
; #@! TF.FileFunction,MixedPlating,1,2
FMAT,2
INCH
; #@! TA.AperFunction,Plated,PTH,ViaDrill
T1C0.0118
; #@! TA.AperFunction,Plated,PTH,ComponentDrill
T2C0.0394
; #@! TA.AperFunction,Plated,PTH,ComponentDrill
T3C0.0400
; #@! TA.AperFunction,Plated,PTH,ComponentDrill
T4C0.0433
%
G90
G05
T1
X2.1Y-1.735
X2.295Y-2.775
X2.3209Y-2.8022
X2.377Y-2.7766
X2.41Y-3.98
X2.475Y-3.985
X2.5Y-4.99
X2.5138Y-2.6919
X2.535Y-4.16
X2.5906Y-4.1417
X2.5984Y-2.7982
X2.6161Y-2.7264
X2.625Y-4.99
X2.626Y-4.1417
X2.72Y-4.99
X2.82Y-2.07
X2.835Y-4.295
X2.86Y-5.0
X2.935Y-4.2
X2.975Y-2.455
X2.975Y-5.01
X3.005Y-3.205
X3.105Y-5.0
X3.115Y-4.415
X3.15Y-2.225
X3.16Y-2.66
X3.19Y-2.695
X3.215Y-2.725
X3.23Y-5.015
X3.24Y-4.63
X3.255Y-3.12
X3.26Y-3.725
X3.27Y-4.285
X3.295Y-3.91
X3.305Y-4.7
X3.345Y-5.02
X3.365Y-3.63
X3.375Y-4.625
X3.48Y-5.025
X3.49Y-3.645
X3.57Y-4.44
X3.595Y-5.02
X3.66Y-4.365
X3.73Y-5.025
X3.77Y-4.435
X3.845Y-5.02
X3.875Y-3.225
X3.92Y-4.97
X3.97Y-3.875
X3.975Y-3.175
X4.065Y-3.82
X4.085Y-4.995
X4.1004Y-4.5748
X4.1004Y-4.7283
X4.135Y-3.78
X4.185Y-3.27
X4.185Y-5.09
X4.185Y-5.12
X4.185Y-5.15
X4.19Y-3.005
X4.225Y-4.355
X4.245Y-3.06
X4.31Y-5.09
X4.31Y-5.12
X4.31Y-5.15
X4.325Y-3.23
X4.43Y-3.06
X4.48Y-4.995
X4.525Y-3.22
X4.595Y-5.005
X4.615Y-2.935
X4.725Y-3.425
X4.725Y-5.01
X4.815Y-2.965
X4.845Y-5.005
X4.935Y-2.945
X4.965Y-5.005
X5.035Y-3.895
X5.035Y-4.12
X5.065Y-2.955
X5.08Y-5.005
X5.085Y-3.0
X5.085Y-3.935
X5.095Y-3.12
X5.13Y-4.67
X5.175Y-4.36
X5.215Y-5.005
X5.24Y-4.63
X5.255Y-4.51
X5.325Y-3.735
X5.325Y-4.23
X5.36Y-3.615
X5.375Y-3.1
X5.375Y-3.29
X5.425Y-3.855
X5.47Y-2.81
X5.52Y-2.835
X5.605Y-2.88
X5.605Y-5.015
X5.655Y-4.405
X5.66Y-4.465
X5.685Y-4.54
X5.7126Y-4.75
X5.7638Y-4.75
X5.813Y-4.75
X6.075Y-4.965
X6.0965Y-4.9449
X6.13Y-4.86
X6.15Y-4.84
X6.17Y-4.82
T2
X2.0748Y-2.175
X2.1748Y-2.175
X2.2628Y-1.7805
X2.3628Y-1.7805
X2.3746Y-2.175
X2.46Y-3.34
X2.46Y-3.44
X2.46Y-3.54
X2.46Y-3.64
X2.46Y-3.74
X2.4628Y-1.7805
X2.4746Y-2.175
X2.56Y-3.34
X2.56Y-3.44
X2.56Y-3.54
X2.56Y-3.64
X2.56Y-3.74
X2.5628Y-1.7805
X2.5746Y-2.175
X2.6628Y-1.7805
X2.6746Y-2.175
X2.7628Y-1.7805
X2.7746Y-2.175
X2.8628Y-1.7805
X2.8746Y-2.175
X2.9628Y-1.7805
X2.9746Y-2.175
X3.0746Y-2.175
X3.2746Y-2.1754
X3.3Y-1.775
X3.3746Y-2.1754
X3.4Y-1.775
X3.4746Y-2.1754
X3.5Y-1.775
X3.5746Y-2.1754
X3.6Y-1.775
X3.6746Y-2.1754
X3.7Y-1.775
X3.7746Y-2.1754
X3.8Y-1.775
X3.8746Y-2.1754
X3.9746Y-2.1754
X4.0746Y-2.175
X4.1Y-1.775
X4.1746Y-2.175
X4.2Y-1.775
X4.2746Y-2.175
X4.3Y-1.775
X4.3746Y-2.175
X4.4Y-1.775
X4.4746Y-2.175
X4.5746Y-2.175
X4.6746Y-2.175
X4.7746Y-2.175
X4.8746Y-2.175
X4.9746Y-2.175
X5.0746Y-2.175
X5.1746Y-2.175
X5.175Y-2.9
X5.175Y-3.0
X5.175Y-3.1
X5.175Y-3.2
X5.175Y-3.3
X5.1752Y-3.675
X5.1752Y-3.775
X5.1752Y-3.875
X5.1752Y-3.975
X5.1752Y-4.075
X5.2746Y-2.175
X5.275Y-2.9
X5.275Y-3.0
X5.275Y-3.1
X5.275Y-3.2
X5.275Y-3.3
X5.2752Y-3.675
X5.2752Y-3.775
X5.2752Y-3.875
X5.2752Y-3.975
X5.2752Y-4.075
X5.3746Y-2.175
X5.4746Y-2.175
X5.5746Y-2.175
X5.6746Y-2.175
X5.7746Y-2.175
X5.8746Y-2.175
X6.0423Y-3.1652
X6.0423Y-3.2652
X6.0423Y-3.3652
X6.0423Y-3.4652
X6.0423Y-3.5652
X6.0423Y-3.6652
T3
X2.12Y-2.79
X2.12Y-2.89
X2.12Y-2.99
X2.12Y-3.09
X2.12Y-3.19
X2.12Y-3.29
X2.12Y-3.39
X2.12Y-3.49
X2.12Y-3.59
X2.12Y-3.69
X2.12Y-3.79
X2.12Y-3.89
X2.12Y-3.99
X2.12Y-4.09
X2.12Y-4.19
X2.12Y-4.29
X2.12Y-4.39
X2.12Y-4.49
X2.22Y-2.79
X2.22Y-2.89
X2.22Y-2.99
X2.22Y-3.09
X2.22Y-3.19
X2.22Y-3.29
X2.22Y-3.39
X2.22Y-3.49
X2.22Y-3.59
X2.22Y-3.69
X2.22Y-3.79
X2.22Y-3.89
X2.22Y-3.99
X2.22Y-4.09
X2.22Y-4.19
X2.22Y-4.29
X2.22Y-4.39
X2.22Y-4.49
X2.32Y-2.59
X2.42Y-2.59
X2.52Y-2.59
X2.52Y-4.49
X2.62Y-2.59
X2.62Y-4.49
X2.72Y-2.59
X2.72Y-4.49
X2.82Y-2.59
X2.82Y-4.49
X2.92Y-2.59
X2.92Y-4.49
X3.02Y-2.59
X3.02Y-4.49
X3.12Y-4.49
X3.22Y-2.59
X3.22Y-4.49
X3.315Y-3.49
X3.315Y-3.59
X3.315Y-3.69
X3.32Y-2.59
X3.415Y-3.49
X3.415Y-3.59
X3.415Y-3.69
X3.42Y-2.59
X3.42Y-4.49
X3.52Y-2.59
X3.52Y-4.49
X3.62Y-2.59
X3.62Y-4.49
X3.72Y-2.59
X3.72Y-4.49
X3.82Y-2.59
X3.82Y-4.49
X3.92Y-2.59
X3.92Y-4.49
X4.02Y-4.49
X4.12Y-2.59
X4.12Y-4.49
X4.22Y-2.59
X4.28Y-4.49
X4.32Y-2.59
X4.38Y-4.49
X4.42Y-2.59
X4.48Y-4.49
X4.52Y-2.59
X4.58Y-4.49
X4.62Y-2.59
X4.68Y-4.49
X4.72Y-2.59
X4.78Y-4.49
X4.82Y-2.59
X4.88Y-4.49
X4.98Y-4.49
X5.08Y-4.49
X5.18Y-4.49
T4
X5.5751Y-1.8203
X5.5751Y-1.9975
X5.831Y-1.8203
X5.831Y-1.9975
T0
M30
