G04 #@! TF.GenerationSoftware,KiCad,Pcbnew,7.0.9*
G04 #@! TF.CreationDate,2024-04-03T05:00:36-05:00*
G04 #@! TF.ProjectId,Tester - Entrex Front Panel,54657374-6572-4202-9d20-456e74726578,rev?*
G04 #@! TF.SameCoordinates,Original*
G04 #@! TF.FileFunction,AssemblyDrawing,Top*
%FSLAX46Y46*%
G04 Gerber Fmt 4.6, Leading zero omitted, Abs format (unit mm)*
G04 Created by KiCad (PCBNEW 7.0.9) date 2024-04-03 05:00:36*
%MOMM*%
%LPD*%
G01*
G04 APERTURE LIST*
%ADD10C,0.150000*%
%ADD11C,0.100000*%
G04 APERTURE END LIST*
D10*
X91732666Y-54710819D02*
X91732666Y-55425104D01*
X91732666Y-55425104D02*
X91685047Y-55567961D01*
X91685047Y-55567961D02*
X91589809Y-55663200D01*
X91589809Y-55663200D02*
X91446952Y-55710819D01*
X91446952Y-55710819D02*
X91351714Y-55710819D01*
X92637428Y-55044152D02*
X92637428Y-55710819D01*
X92399333Y-54663200D02*
X92161238Y-55377485D01*
X92161238Y-55377485D02*
X92780285Y-55377485D01*
X68872666Y-54700819D02*
X68872666Y-55415104D01*
X68872666Y-55415104D02*
X68825047Y-55557961D01*
X68825047Y-55557961D02*
X68729809Y-55653200D01*
X68729809Y-55653200D02*
X68586952Y-55700819D01*
X68586952Y-55700819D02*
X68491714Y-55700819D01*
X69253619Y-54700819D02*
X69872666Y-54700819D01*
X69872666Y-54700819D02*
X69539333Y-55081771D01*
X69539333Y-55081771D02*
X69682190Y-55081771D01*
X69682190Y-55081771D02*
X69777428Y-55129390D01*
X69777428Y-55129390D02*
X69825047Y-55177009D01*
X69825047Y-55177009D02*
X69872666Y-55272247D01*
X69872666Y-55272247D02*
X69872666Y-55510342D01*
X69872666Y-55510342D02*
X69825047Y-55605580D01*
X69825047Y-55605580D02*
X69777428Y-55653200D01*
X69777428Y-55653200D02*
X69682190Y-55700819D01*
X69682190Y-55700819D02*
X69396476Y-55700819D01*
X69396476Y-55700819D02*
X69301238Y-55653200D01*
X69301238Y-55653200D02*
X69253619Y-55605580D01*
X107616666Y-44539819D02*
X107616666Y-45254104D01*
X107616666Y-45254104D02*
X107569047Y-45396961D01*
X107569047Y-45396961D02*
X107473809Y-45492200D01*
X107473809Y-45492200D02*
X107330952Y-45539819D01*
X107330952Y-45539819D02*
X107235714Y-45539819D01*
X108521428Y-44539819D02*
X108330952Y-44539819D01*
X108330952Y-44539819D02*
X108235714Y-44587438D01*
X108235714Y-44587438D02*
X108188095Y-44635057D01*
X108188095Y-44635057D02*
X108092857Y-44777914D01*
X108092857Y-44777914D02*
X108045238Y-44968390D01*
X108045238Y-44968390D02*
X108045238Y-45349342D01*
X108045238Y-45349342D02*
X108092857Y-45444580D01*
X108092857Y-45444580D02*
X108140476Y-45492200D01*
X108140476Y-45492200D02*
X108235714Y-45539819D01*
X108235714Y-45539819D02*
X108426190Y-45539819D01*
X108426190Y-45539819D02*
X108521428Y-45492200D01*
X108521428Y-45492200D02*
X108569047Y-45444580D01*
X108569047Y-45444580D02*
X108616666Y-45349342D01*
X108616666Y-45349342D02*
X108616666Y-45111247D01*
X108616666Y-45111247D02*
X108569047Y-45016009D01*
X108569047Y-45016009D02*
X108521428Y-44968390D01*
X108521428Y-44968390D02*
X108426190Y-44920771D01*
X108426190Y-44920771D02*
X108235714Y-44920771D01*
X108235714Y-44920771D02*
X108140476Y-44968390D01*
X108140476Y-44968390D02*
X108092857Y-45016009D01*
X108092857Y-45016009D02*
X108045238Y-45111247D01*
X143524667Y-48893200D02*
X143667524Y-48940819D01*
X143667524Y-48940819D02*
X143905619Y-48940819D01*
X143905619Y-48940819D02*
X144000857Y-48893200D01*
X144000857Y-48893200D02*
X144048476Y-48845580D01*
X144048476Y-48845580D02*
X144096095Y-48750342D01*
X144096095Y-48750342D02*
X144096095Y-48655104D01*
X144096095Y-48655104D02*
X144048476Y-48559866D01*
X144048476Y-48559866D02*
X144000857Y-48512247D01*
X144000857Y-48512247D02*
X143905619Y-48464628D01*
X143905619Y-48464628D02*
X143715143Y-48417009D01*
X143715143Y-48417009D02*
X143619905Y-48369390D01*
X143619905Y-48369390D02*
X143572286Y-48321771D01*
X143572286Y-48321771D02*
X143524667Y-48226533D01*
X143524667Y-48226533D02*
X143524667Y-48131295D01*
X143524667Y-48131295D02*
X143572286Y-48036057D01*
X143572286Y-48036057D02*
X143619905Y-47988438D01*
X143619905Y-47988438D02*
X143715143Y-47940819D01*
X143715143Y-47940819D02*
X143953238Y-47940819D01*
X143953238Y-47940819D02*
X144096095Y-47988438D01*
X144429429Y-47940819D02*
X144667524Y-48940819D01*
X144667524Y-48940819D02*
X144858000Y-48226533D01*
X144858000Y-48226533D02*
X145048476Y-48940819D01*
X145048476Y-48940819D02*
X145286572Y-47940819D01*
X146191333Y-48940819D02*
X145619905Y-48940819D01*
X145905619Y-48940819D02*
X145905619Y-47940819D01*
X145905619Y-47940819D02*
X145810381Y-48083676D01*
X145810381Y-48083676D02*
X145715143Y-48178914D01*
X145715143Y-48178914D02*
X145619905Y-48226533D01*
X53636666Y-54700819D02*
X53636666Y-55415104D01*
X53636666Y-55415104D02*
X53589047Y-55557961D01*
X53589047Y-55557961D02*
X53493809Y-55653200D01*
X53493809Y-55653200D02*
X53350952Y-55700819D01*
X53350952Y-55700819D02*
X53255714Y-55700819D01*
X54017619Y-54700819D02*
X54684285Y-54700819D01*
X54684285Y-54700819D02*
X54255714Y-55700819D01*
X126022666Y-54700819D02*
X126022666Y-55415104D01*
X126022666Y-55415104D02*
X125975047Y-55557961D01*
X125975047Y-55557961D02*
X125879809Y-55653200D01*
X125879809Y-55653200D02*
X125736952Y-55700819D01*
X125736952Y-55700819D02*
X125641714Y-55700819D01*
X126641714Y-55129390D02*
X126546476Y-55081771D01*
X126546476Y-55081771D02*
X126498857Y-55034152D01*
X126498857Y-55034152D02*
X126451238Y-54938914D01*
X126451238Y-54938914D02*
X126451238Y-54891295D01*
X126451238Y-54891295D02*
X126498857Y-54796057D01*
X126498857Y-54796057D02*
X126546476Y-54748438D01*
X126546476Y-54748438D02*
X126641714Y-54700819D01*
X126641714Y-54700819D02*
X126832190Y-54700819D01*
X126832190Y-54700819D02*
X126927428Y-54748438D01*
X126927428Y-54748438D02*
X126975047Y-54796057D01*
X126975047Y-54796057D02*
X127022666Y-54891295D01*
X127022666Y-54891295D02*
X127022666Y-54938914D01*
X127022666Y-54938914D02*
X126975047Y-55034152D01*
X126975047Y-55034152D02*
X126927428Y-55081771D01*
X126927428Y-55081771D02*
X126832190Y-55129390D01*
X126832190Y-55129390D02*
X126641714Y-55129390D01*
X126641714Y-55129390D02*
X126546476Y-55177009D01*
X126546476Y-55177009D02*
X126498857Y-55224628D01*
X126498857Y-55224628D02*
X126451238Y-55319866D01*
X126451238Y-55319866D02*
X126451238Y-55510342D01*
X126451238Y-55510342D02*
X126498857Y-55605580D01*
X126498857Y-55605580D02*
X126546476Y-55653200D01*
X126546476Y-55653200D02*
X126641714Y-55700819D01*
X126641714Y-55700819D02*
X126832190Y-55700819D01*
X126832190Y-55700819D02*
X126927428Y-55653200D01*
X126927428Y-55653200D02*
X126975047Y-55605580D01*
X126975047Y-55605580D02*
X127022666Y-55510342D01*
X127022666Y-55510342D02*
X127022666Y-55319866D01*
X127022666Y-55319866D02*
X126975047Y-55224628D01*
X126975047Y-55224628D02*
X126927428Y-55177009D01*
X126927428Y-55177009D02*
X126832190Y-55129390D01*
X152929819Y-87078333D02*
X153644104Y-87078333D01*
X153644104Y-87078333D02*
X153786961Y-87125952D01*
X153786961Y-87125952D02*
X153882200Y-87221190D01*
X153882200Y-87221190D02*
X153929819Y-87364047D01*
X153929819Y-87364047D02*
X153929819Y-87459285D01*
X153025057Y-86649761D02*
X152977438Y-86602142D01*
X152977438Y-86602142D02*
X152929819Y-86506904D01*
X152929819Y-86506904D02*
X152929819Y-86268809D01*
X152929819Y-86268809D02*
X152977438Y-86173571D01*
X152977438Y-86173571D02*
X153025057Y-86125952D01*
X153025057Y-86125952D02*
X153120295Y-86078333D01*
X153120295Y-86078333D02*
X153215533Y-86078333D01*
X153215533Y-86078333D02*
X153358390Y-86125952D01*
X153358390Y-86125952D02*
X153929819Y-86697380D01*
X153929819Y-86697380D02*
X153929819Y-86078333D01*
X66031666Y-44679819D02*
X66031666Y-45394104D01*
X66031666Y-45394104D02*
X65984047Y-45536961D01*
X65984047Y-45536961D02*
X65888809Y-45632200D01*
X65888809Y-45632200D02*
X65745952Y-45679819D01*
X65745952Y-45679819D02*
X65650714Y-45679819D01*
X67031666Y-45679819D02*
X66460238Y-45679819D01*
X66745952Y-45679819D02*
X66745952Y-44679819D01*
X66745952Y-44679819D02*
X66650714Y-44822676D01*
X66650714Y-44822676D02*
X66555476Y-44917914D01*
X66555476Y-44917914D02*
X66460238Y-44965533D01*
X63208819Y-90725523D02*
X63923104Y-90725523D01*
X63923104Y-90725523D02*
X64065961Y-90773142D01*
X64065961Y-90773142D02*
X64161200Y-90868380D01*
X64161200Y-90868380D02*
X64208819Y-91011237D01*
X64208819Y-91011237D02*
X64208819Y-91106475D01*
X64208819Y-89725523D02*
X64208819Y-90296951D01*
X64208819Y-90011237D02*
X63208819Y-90011237D01*
X63208819Y-90011237D02*
X63351676Y-90106475D01*
X63351676Y-90106475D02*
X63446914Y-90201713D01*
X63446914Y-90201713D02*
X63494533Y-90296951D01*
X63304057Y-89344570D02*
X63256438Y-89296951D01*
X63256438Y-89296951D02*
X63208819Y-89201713D01*
X63208819Y-89201713D02*
X63208819Y-88963618D01*
X63208819Y-88963618D02*
X63256438Y-88868380D01*
X63256438Y-88868380D02*
X63304057Y-88820761D01*
X63304057Y-88820761D02*
X63399295Y-88773142D01*
X63399295Y-88773142D02*
X63494533Y-88773142D01*
X63494533Y-88773142D02*
X63637390Y-88820761D01*
X63637390Y-88820761D02*
X64208819Y-89392189D01*
X64208819Y-89392189D02*
X64208819Y-88773142D01*
X132169819Y-79073333D02*
X132884104Y-79073333D01*
X132884104Y-79073333D02*
X133026961Y-79120952D01*
X133026961Y-79120952D02*
X133122200Y-79216190D01*
X133122200Y-79216190D02*
X133169819Y-79359047D01*
X133169819Y-79359047D02*
X133169819Y-79454285D01*
X133169819Y-78549523D02*
X133169819Y-78359047D01*
X133169819Y-78359047D02*
X133122200Y-78263809D01*
X133122200Y-78263809D02*
X133074580Y-78216190D01*
X133074580Y-78216190D02*
X132931723Y-78120952D01*
X132931723Y-78120952D02*
X132741247Y-78073333D01*
X132741247Y-78073333D02*
X132360295Y-78073333D01*
X132360295Y-78073333D02*
X132265057Y-78120952D01*
X132265057Y-78120952D02*
X132217438Y-78168571D01*
X132217438Y-78168571D02*
X132169819Y-78263809D01*
X132169819Y-78263809D02*
X132169819Y-78454285D01*
X132169819Y-78454285D02*
X132217438Y-78549523D01*
X132217438Y-78549523D02*
X132265057Y-78597142D01*
X132265057Y-78597142D02*
X132360295Y-78644761D01*
X132360295Y-78644761D02*
X132598390Y-78644761D01*
X132598390Y-78644761D02*
X132693628Y-78597142D01*
X132693628Y-78597142D02*
X132741247Y-78549523D01*
X132741247Y-78549523D02*
X132788866Y-78454285D01*
X132788866Y-78454285D02*
X132788866Y-78263809D01*
X132788866Y-78263809D02*
X132741247Y-78168571D01*
X132741247Y-78168571D02*
X132693628Y-78120952D01*
X132693628Y-78120952D02*
X132598390Y-78073333D01*
X132174819Y-99234523D02*
X132889104Y-99234523D01*
X132889104Y-99234523D02*
X133031961Y-99282142D01*
X133031961Y-99282142D02*
X133127200Y-99377380D01*
X133127200Y-99377380D02*
X133174819Y-99520237D01*
X133174819Y-99520237D02*
X133174819Y-99615475D01*
X133174819Y-98234523D02*
X133174819Y-98805951D01*
X133174819Y-98520237D02*
X132174819Y-98520237D01*
X132174819Y-98520237D02*
X132317676Y-98615475D01*
X132317676Y-98615475D02*
X132412914Y-98710713D01*
X132412914Y-98710713D02*
X132460533Y-98805951D01*
X133174819Y-97282142D02*
X133174819Y-97853570D01*
X133174819Y-97567856D02*
X132174819Y-97567856D01*
X132174819Y-97567856D02*
X132317676Y-97663094D01*
X132317676Y-97663094D02*
X132412914Y-97758332D01*
X132412914Y-97758332D02*
X132460533Y-97853570D01*
D11*
X101591000Y-53986000D02*
X102226000Y-54621000D01*
X81906000Y-53986000D02*
X101591000Y-53986000D01*
X102226000Y-54621000D02*
X102226000Y-56526000D01*
X102226000Y-56526000D02*
X81906000Y-56526000D01*
X81906000Y-56526000D02*
X81906000Y-53986000D01*
X78731000Y-53976000D02*
X79366000Y-54611000D01*
X59046000Y-53976000D02*
X78731000Y-53976000D01*
X79366000Y-54611000D02*
X79366000Y-56516000D01*
X79366000Y-56516000D02*
X59046000Y-56516000D01*
X59046000Y-56516000D02*
X59046000Y-53976000D01*
X97155000Y-43815000D02*
X97790000Y-44450000D01*
X82550000Y-43815000D02*
X97155000Y-43815000D01*
X97790000Y-44450000D02*
X97790000Y-46355000D01*
X97790000Y-46355000D02*
X82550000Y-46355000D01*
X82550000Y-46355000D02*
X82550000Y-43815000D01*
X112395000Y-43815000D02*
X113030000Y-44450000D01*
X102870000Y-43815000D02*
X112395000Y-43815000D01*
X113030000Y-44450000D02*
X113030000Y-46355000D01*
X113030000Y-46355000D02*
X102870000Y-46355000D01*
X102870000Y-46355000D02*
X102870000Y-43815000D01*
X147858000Y-51486000D02*
X144858000Y-51486000D01*
X147858000Y-45486000D02*
X147858000Y-51486000D01*
X144858000Y-51486000D02*
X141858000Y-51486000D01*
X141858000Y-51486000D02*
X141858000Y-45486000D01*
X141858000Y-45486000D02*
X147858000Y-45486000D01*
X146873564Y-48486000D02*
G75*
G03*
X146873564Y-48486000I-2015564J0D01*
G01*
X52065000Y-56516000D02*
X51430000Y-55881000D01*
X56510000Y-56516000D02*
X52065000Y-56516000D01*
X51430000Y-55881000D02*
X51430000Y-53976000D01*
X51430000Y-53976000D02*
X56510000Y-53976000D01*
X56510000Y-53976000D02*
X56510000Y-56516000D01*
X102861000Y-56516000D02*
X102226000Y-55881000D01*
X150486000Y-56516000D02*
X102861000Y-56516000D01*
X102226000Y-55881000D02*
X102226000Y-53976000D01*
X102226000Y-53976000D02*
X150486000Y-53976000D01*
X150486000Y-53976000D02*
X150486000Y-56516000D01*
X152205000Y-79760000D02*
X152840000Y-79125000D01*
X152205000Y-94365000D02*
X152205000Y-79760000D01*
X152840000Y-79125000D02*
X154745000Y-79125000D01*
X154745000Y-79125000D02*
X154745000Y-94365000D01*
X154745000Y-94365000D02*
X152205000Y-94365000D01*
X56840000Y-46495000D02*
X56205000Y-45860000D01*
X76525000Y-46495000D02*
X56840000Y-46495000D01*
X56205000Y-45860000D02*
X56205000Y-43955000D01*
X56205000Y-43955000D02*
X76525000Y-43955000D01*
X76525000Y-43955000D02*
X76525000Y-46495000D01*
X61214000Y-83566000D02*
X61214000Y-96266000D01*
X61214000Y-96266000D02*
X66294000Y-96266000D01*
X65024000Y-83566000D02*
X61214000Y-83566000D01*
X66294000Y-84836000D02*
X65024000Y-83566000D01*
X66294000Y-96266000D02*
X66294000Y-84836000D01*
X130175000Y-72390000D02*
X130175000Y-85090000D01*
X130175000Y-85090000D02*
X135255000Y-85090000D01*
X133985000Y-72390000D02*
X130175000Y-72390000D01*
X135255000Y-73660000D02*
X133985000Y-72390000D01*
X135255000Y-85090000D02*
X135255000Y-73660000D01*
X130180000Y-92075000D02*
X130180000Y-104775000D01*
X130180000Y-104775000D02*
X135260000Y-104775000D01*
X133990000Y-92075000D02*
X130180000Y-92075000D01*
X135260000Y-93345000D02*
X133990000Y-92075000D01*
X135260000Y-104775000D02*
X135260000Y-93345000D01*
M02*
