G04 #@! TF.GenerationSoftware,KiCad,Pcbnew,7.0.9*
G04 #@! TF.CreationDate,2024-04-03T05:00:36-05:00*
G04 #@! TF.ProjectId,Tester - Entrex Front Panel,54657374-6572-4202-9d20-456e74726578,rev?*
G04 #@! TF.SameCoordinates,Original*
G04 #@! TF.FileFunction,Profile,NP*
%FSLAX46Y46*%
G04 Gerber Fmt 4.6, Leading zero omitted, Abs format (unit mm)*
G04 Created by KiCad (PCBNEW 7.0.9) date 2024-04-03 05:00:36*
%MOMM*%
%LPD*%
G01*
G04 APERTURE LIST*
G04 #@! TA.AperFunction,Profile*
%ADD10C,0.050000*%
G04 #@! TD*
G04 APERTURE END LIST*
D10*
X44568000Y-43346000D02*
X44568000Y-127346000D01*
X143068000Y-140346000D02*
X102568000Y-140346000D01*
X59068000Y-139346000D02*
X59068000Y-129346000D01*
X157568000Y-128346000D02*
G75*
G03*
X158568000Y-127346000I0J1000000D01*
G01*
X158568000Y-43346000D02*
G75*
G03*
X156568000Y-41346000I-2000000J0D01*
G01*
X102568000Y-125346000D02*
G75*
G03*
X100568000Y-125346000I-1000000J0D01*
G01*
X58068000Y-128346000D02*
X45568000Y-128346000D01*
X44568000Y-127346000D02*
G75*
G03*
X45568000Y-128346000I1000000J0D01*
G01*
X145068000Y-128346000D02*
X157568000Y-128346000D01*
X143068000Y-140346000D02*
G75*
G03*
X144068000Y-139346000I0J1000000D01*
G01*
X102568000Y-140346000D02*
X102568000Y-125346000D01*
X100568000Y-140346000D02*
X100568000Y-125346000D01*
X145068000Y-128346000D02*
G75*
G03*
X144068000Y-129346000I0J-1000000D01*
G01*
X46568000Y-41346000D02*
G75*
G03*
X44568000Y-43346000I0J-2000000D01*
G01*
X144068000Y-139346000D02*
X144068000Y-129346000D01*
X156568000Y-41346000D02*
X46568000Y-41346000D01*
X59068000Y-129346000D02*
G75*
G03*
X58068000Y-128346000I-1000000J0D01*
G01*
X158568000Y-127346000D02*
X158568000Y-43346000D01*
X60068000Y-140346000D02*
X100568000Y-140346000D01*
X59068000Y-139346000D02*
G75*
G03*
X60068000Y-140346000I1000000J0D01*
G01*
M02*
